<?xml version="1.0" encoding="UTF-8"?>
<!DOCTYPE svg PUBLIC "-//W3C//DTD SVG 1.1//EN" "http://www.w3.org/Graphics/SVG/1.1/DTD/svg11.dtd">
<!-- Creator: CorelDRAW 2020 (64-Bit) -->
<svg xmlns="http://www.w3.org/2000/svg" xml:space="preserve" width="140px" height="140px" version="1.1" style="shape-rendering:geometricPrecision; text-rendering:geometricPrecision; image-rendering:optimizeQuality; fill-rule:evenodd; clip-rule:evenodd"
viewBox="0 0 140 140"
 xmlns:xlink="http://www.w3.org/1999/xlink"
 xmlns:xodm="http://www.corel.com/coreldraw/odm/2003">
 <defs>
  <style type="text/css">
   <![CDATA[
    .fil23 {fill:#343434}
    .fil20 {fill:#393939}
    .fil15 {fill:#3A3A3A}
    .fil14 {fill:#414242}
    .fil1 {fill:#484848}
    .fil25 {fill:#5B5B5B}
    .fil12 {fill:#606060}
    .fil10 {fill:#6A6A6A}
    .fil22 {fill:#6C6C6C}
    .fil5 {fill:#6E6E6E}
    .fil6 {fill:#707071}
    .fil8 {fill:#737374}
    .fil17 {fill:#777878}
    .fil7 {fill:#797979}
    .fil16 {fill:#7B7B7C}
    .fil21 {fill:#7E7E7F}
    .fil11 {fill:#808081}
    .fil18 {fill:#838383}
    .fil24 {fill:#858586}
    .fil13 {fill:#888888}
    .fil4 {fill:#8B8B8B}
    .fil2 {fill:#8C8C8C}
    .fil9 {fill:#8F8F8F}
    .fil19 {fill:#999999}
    .fil3 {fill:#A0A0A1}
    .fil0 {fill:#A1A1A1}
   ]]>
  </style>
 </defs>
 <g id="Layer_x0020_1">
  <metadata id="CorelCorpID_0Corel-Layer"/>
  <g id="_2738308415616">
   <path class="fil0" d="M67.78 38.05l0 4.98c2.03,0 2.85,1 3.61,2.26 1.87,3.08 0.81,10.55 -0.21,14.15 -0.1,0.34 -0.21,0.87 -0.33,1.12 0.24,0.2 0.19,0.73 0.18,1 -0.08,5.06 0,10.91 0,16 0.28,-0.63 1.16,-2.01 1.55,-2.97 0.2,-0.49 0.52,-1.08 0.7,-1.56 0.14,-0.37 0.53,-1.44 0.56,-1.8 -0.7,0 -2.02,-0.22 -2.63,-0.36 0.06,-0.25 0.15,-0.42 0.26,-0.65l2.42 -5.9c0.1,-0.27 0.14,-0.42 0.22,-0.68 0.08,-0.28 0.17,-0.48 0.26,-0.74l0.91 -2.79 2.71 -0.18c0.19,-0.78 0.67,-1.85 0.99,-3.26l1.01 -5.51c0.24,-2.91 0.26,-2.95 0.26,-6.24 -0.72,0.06 -2.93,1.95 -3.16,1.72l-0.51 -2.47c-0.23,-0.87 -0.48,-1.45 -0.85,-2.14 0.15,-0.21 0.22,-0.24 0.39,-0.43l2.26 -2.62c0.14,-0.16 0.23,-0.31 0.34,-0.47 -0.09,-0.1 -0.02,-0.02 -0.12,-0.16 -0.9,-1.34 -0.88,-1.39 -2.21,-2.67 -0.51,-0.49 -2.45,-1.95 -3.28,-1.96l-0.85 2.13c-0.27,0.67 -0.61,1.49 -0.77,2.2 -0.84,-0.4 -1.91,-0.42 -2.87,-0.24 -0.2,0.03 -0.7,0.09 -0.84,0.24z"/>
   <path class="fil1" d="M25.2 42.03c-0.35,-0.26 -0.26,-0.72 -0.9,-0.72 -0.63,0 -1,1.58 -1,2.35 0,2.68 2.09,5.61 3.87,7.52 0.23,0.25 0.29,0.39 0.54,0.64l1.76 1.67c0.74,0.74 2.36,1.89 3.2,2.5l6.48 3.91c0.83,0.44 3.02,1.75 4.19,1.17 0.85,-0.41 0.2,-1.12 -0.74,-1.54 -1.58,-0.7 -3.14,-1.33 -4.68,-2.1 -0.3,-0.15 -0.46,-0.25 -0.7,-0.39l-1.47 -0.79c-0.27,-0.15 -0.46,-0.28 -0.73,-0.44 -3.5,-2.06 -4.45,-2.59 -7.63,-6.03l-1 -1.25c-0.34,-0.45 -0.63,-0.87 -0.91,-1.35 -0.57,-0.96 -1.18,-2.2 -1.18,-3.61 0,-1.9 0.7,-1.59 0.79,-1.25 0.06,0.21 -0.07,0.44 -0.07,0.8 0,5.31 6.14,9.43 10.58,11.66 3.37,1.69 7.6,2.86 11.44,3.47 4.12,0.66 7.83,1.02 10.82,4.01 4.37,4.36 1.48,7.97 1.33,8.61l1.63 0.72c0.58,-0.39 1.14,-1.56 1.44,-2.26 1.24,-2.82 0.55,-6.11 -1.32,-8.43 -1.07,-1.33 -2.5,-2.35 -3.99,-3.25 -3.27,-1.97 -6.94,-2.43 -11.48,-3.07 -4.42,-0.62 -7.42,-1.37 -11.41,-3.15 -1.69,-0.75 -3.14,-1.65 -4.52,-2.71 -0.98,-0.75 -1.98,-1.8 -2.38,-3.04 -0.33,-0.98 -0.91,-4.01 0.94,-4.01 0.6,0 1.73,0.38 2.26,0.63 -0.23,-0.95 -1.65,-2.53 -2.81,-2.53 -0.74,0 -1.26,0.02 -1.77,0.76 -0.23,0.34 -0.57,1 -0.58,1.5z"/>
   <path class="fil2" d="M96.98 67.25c0.46,0 0.15,0 0.27,0.09 -0.48,0 -0.14,0 -0.27,-0.09zm3.88 -4.52l0.37 0c-0.17,0.11 0.2,0.1 -0.19,0.08 -0.19,-0.02 -0.08,-0.01 -0.18,-0.08zm0 0c-0.93,0 -1.97,-0.22 -2.89,-0.27 -0.99,-0.05 -2.15,0 -3.16,0l0 4.07 1.59 0.48c0.06,0.02 0.21,0.07 0.27,0.09 0.03,0.01 0.11,0.05 0.13,0.06 0.19,0.08 0.08,0.03 0.18,0.09 -0.5,0 -0.91,-0.15 -1.4,-0.23 -0.49,-0.08 -0.98,-0.16 -1.41,-0.22l0 8.5c1.6,0 5.62,-0.93 7.22,-1.38 0.69,-0.19 1.55,-0.59 2.28,-0.7l0 -14.56c-2.87,0 -6.89,1.02 -9.44,2.32 -0.29,0.15 -0.9,0.47 -1.05,0.67 1.29,0 2.86,0.18 3.99,0.34l3.63 0.71c0.02,0.01 0.05,0.02 0.06,0.03z"/>
   <path class="fil3" d="M103.67 49.9l0 8.67 0 0.09 0 14.56c0.13,-0.17 1.81,-0.82 2.23,-1.03 0.28,-0.14 0.46,-0.28 0.75,-0.42 1.5,-0.74 2.73,-1.74 4.03,-2.75 0.54,-0.42 3.04,-2.96 3.2,-3.58 -1.31,-0.69 -2.88,-1.72 -4.07,-2.35 0.26,-0.47 1.14,-2.1 1.18,-2.62l-3.62 -1.99 1.99 -4.06c-0.19,-0.3 -0.9,-0.69 -1.25,-0.92l-1.28 -0.89c0.14,-0.6 1.75,-2.32 1.81,-3.08 -1.31,0 -3.97,0.28 -4.97,0.28l0 0.09z"/>
   <path class="fil4" d="M65.86 72.86c-0.27,0.83 -1.44,2.4 -1.91,3.12 -0.31,0.47 -0.71,1.04 -1.06,1.48 -0.21,0.26 -0.34,0.43 -0.55,0.7 -0.24,0.31 -0.34,0.45 -0.62,0.61l-1.75 1.66c-0.22,0.25 -0.14,0.07 -0.15,0.29l0 5.7c0.14,-0.26 0.66,-0.62 0.95,-0.87l2.24 -2.1c0.18,-0.2 0.22,-0.33 0.43,-0.47 0.12,0.53 0.25,1.04 0.38,1.61l0.34 1.65c1.13,-0.6 3.33,-3.46 4.12,-4.47l2.34 -3.54c0.16,-0.27 0.25,-0.36 0.41,-0.67 0,-5.09 -0.08,-10.94 0,-16 0.01,-0.27 0.06,-0.8 -0.18,-1 -0.03,0.49 -0.79,2.7 -1,3.34 -0.54,1.61 -2.1,5.38 -2.9,6.86 -0.14,0.26 -0.23,0.43 -0.37,0.71l-0.72 1.39z"/>
   <path class="fil5" d="M50.06 87.41c0.01,0.18 -0.16,0.07 0.23,0.3 0.18,0.11 0.3,0.16 0.48,0.26 0.2,0.12 0.78,0.38 1.01,0.44 -0.58,1.1 -1.25,3.09 -1.81,4.15 1.52,0.73 3.95,0.59 5.84,0.06l1.66 -0.6 0 -4.16c0.77,-0.18 1.74,-1.2 2.35,-1.44l0 -5.7c-0.45,0.15 -0.29,0.09 -0.61,0.38 -1.47,1.34 -2.95,1.75 -5.07,1.51 -1.42,-0.16 -2.88,-1.12 -3.51,-2.28 -0.16,-0.29 -0.56,-1 -0.57,-1.33l0 8.41z"/>
   <path class="fil6" d="M77.54 71.59l1.41 -1.66c0.57,-0.74 2.02,-2.32 2.75,-2.95 0.15,-0.13 0.09,-0.1 0.22,-0.23l1.25 -1.1c0.18,-0.17 0.23,-0.24 0.43,-0.39 2.22,-1.72 3.03,-2.36 5.48,-3.73 0.74,-0.41 1.4,-0.65 2.2,-1.06l0 -7.77c-0.92,0.05 -4.88,2 -6.03,2.74 -0.24,0.15 -0.18,0.02 -0.26,0.36 -0.05,0.18 -0.03,0.3 -0.06,0.49 -0.22,1.45 -1.38,5.8 -2.05,6.8 -0.37,-0.03 -0.49,-0.13 -0.98,-0.08 -0.38,0.05 -0.6,0.08 -1.1,0.08l-2.82 7.4c-0.16,0.39 -0.33,0.63 -0.44,1.1z"/>
   <path class="fil1" d="M61.72 78.77c0.28,-0.16 0.38,-0.3 0.62,-0.61 0.21,-0.27 0.34,-0.44 0.55,-0.7 0.35,-0.44 0.75,-1.01 1.06,-1.48 0.47,-0.72 1.64,-2.29 1.91,-3.12 -0.97,0.01 -2.58,0.56 -4.35,0.12 -1.32,-0.33 -1.96,-1.03 -3.67,-1.03 -2.24,0 -4.65,1.37 -4.14,3.87l0.25 0.92c-2.84,-0.66 -3.25,-4.67 -7.6,-2.44 -2.06,1.06 -0.88,3.87 0.46,3.98 -0.93,-1.92 0.49,-3.59 2.74,-2.29 1.65,0.95 0.67,2.4 3.66,4.3 0.32,0.21 0.73,0.35 1.17,0.45 1.76,0.43 3.49,-0.48 4.33,-2.04 0.48,-0.89 0.4,-1.62 0.3,-2.77 -0.85,0.57 -1.43,1.27 -2.89,1.27 -0.12,-0.5 -1.09,-2.06 -0.21,-2.92 1.08,-1.06 4.56,-0.36 5.45,1.11 0.19,0.31 0.31,1.03 0.38,1.52 0.19,1.31 0,1.09 -0.02,1.86z"/>
   <path class="fil7" d="M86.67 67.25l0 8.23 1.72 0.09c0.66,0 1.33,0 1.99,0 0.78,0 3.26,-0.11 3.79,-0.27l0 -8.5 -2.98 -0.19c-0.5,0.01 -4.25,0.34 -4.52,0.64z"/>
   <path class="fil8" d="M62.45 45.11l0 -4.43c-0.54,0.09 -0.65,0.4 -1.18,0.81 -1.11,0.85 -2.53,2.86 -2.71,2.98 -0.1,-0.42 -1.01,-1.42 -1.18,-1.53l-4.88 7.86 -1.48 2.86c-0.35,0.67 -0.5,0.39 1.52,0.9 0.42,0.1 0.74,0.2 1.13,0.32 0.29,0.09 0.79,0.32 1.09,0.35 0.17,-0.73 2.35,-4.29 2.79,-4.89 1.12,-1.53 3.28,-4.42 4.9,-5.23z"/>
   <path class="fil9" d="M97.16 50.98l0 7.78c0.37,0 1.15,-0.12 1.47,-0.16 0.55,-0.07 1.12,0.02 1.68,-0.04 1,-0.11 2.16,0.01 3.36,0.01l0 -8.67c-1.13,0 -2.49,0.26 -3.46,0.42l-2.37 0.44c-0.38,0.07 -0.59,0.06 -0.68,0.22z"/>
   <path class="fil10" d="M75.28 82.26l1.04 -1.23c0.69,-0.93 2.48,-2.84 3.35,-3.51 3.32,-2.58 3.61,-2.04 7,-2.04l0 -8.23c-1.05,0.06 -1.4,0.64 -2.32,1.39l-2.02 1.6c-0.75,0.57 -2.27,1.85 -2.84,2.58 -0.16,0.22 -0.25,0.28 -0.44,0.46 -0.21,0.22 -0.26,0.33 -0.42,0.57 0.21,0.15 0.09,0.11 0.36,0.18 -0.37,1.57 -0.91,2.91 -1.63,4.34l-2.08 3.89z"/>
   <path class="fil11" d="M91.28 52.7l0 7.77c0.87,-0.39 1.64,-0.75 2.66,-1.04 1.06,-0.31 2.07,-0.49 3.22,-0.67l0 -7.78c-0.88,0.02 -2.34,0.52 -3.15,0.74 -0.47,0.14 -0.96,0.29 -1.45,0.45l-1.03 0.33c-0.55,0.23 -0.19,0.02 -0.25,0.2z"/>
   <path class="fil12" d="M50.06 87.41l0 -8.41c-0.41,-0.82 -0.61,-1.74 -1.49,-2.12 -0.32,-0.14 -0.69,-0.32 -0.77,0.13 -0.09,0.55 1.02,2.88 1.18,3.53 -0.31,-0.16 -0.66,-0.28 -1.03,-0.42 -0.33,-0.12 -0.78,-0.26 -1.05,-0.39 -0.01,0.42 -0.13,0.43 -0.39,0.61 -0.3,0.21 -0.33,0.27 -0.59,0.49l-1.19 0.98c0.04,1.73 1.26,7.54 2.44,8.4l2.08 -3.52c0.08,0.3 0.24,0.43 0.51,0.58 0.23,0.13 0.03,0.03 0.3,0.14z"/>
   <path class="fil13" d="M62.45 40.68l0 4.43c0.35,-0.46 1.72,-1.06 2.29,-1.33 0.83,-0.4 1.85,-0.75 3.04,-0.75l0 -4.98c-0.3,0.05 -0.2,0.03 -0.45,0.09 -0.07,-0.13 -0.03,0.04 -0.02,-0.14 0,-0.09 0.03,-0.18 0.05,-0.26l0.74 -2.89c0.11,-0.36 0.18,-0.86 0.31,-1.13 -1.15,0.09 -3.08,1.31 -4.01,1.95 -0.41,0.28 -1.46,1.01 -1.5,1.48 -0.09,0.8 0,2.21 0,3.07 -0.72,0.38 -0.45,0.32 -0.45,0.46z"/>
   <path class="fil1" d="M23.94 48.18c0.27,1.17 0.7,2.14 1.23,3.1 0.95,1.72 1.22,1.87 2.21,3.21 0.44,0.6 2.16,2.4 2.65,2.78 0.8,0.61 1.86,1.72 2.96,2.46 1.07,0.72 2.1,1.57 3.24,2.19 1.5,0.81 2.59,1.51 4.29,2.22 2.13,0.9 2.01,-0.97 1.48,-1.48 -0.34,-0.34 -0.98,-0.52 -1.43,-0.74 -0.48,-0.24 -0.96,-0.48 -1.45,-0.72 -0.24,-0.12 -0.48,-0.24 -0.72,-0.36 -0.27,-0.14 -0.39,-0.25 -0.69,-0.4l-2.08 -1.17c-1.94,-1.16 -3.99,-2.62 -5.7,-4.07l-3.75 -3.84 -2.01 -2.87c-0.2,-0.34 0.1,-0.07 -0.23,-0.31z"/>
   <path class="fil1" d="M40.39 67.16c0.55,0 0.99,-0.04 0.99,-0.81 0,-0.64 -0.3,-0.92 -0.77,-1.13 -1.57,-0.7 -4.96,-2.35 -6.34,-3.33l-3.33 -2.45c-1.84,-1.43 -3.27,-3.21 -4.62,-5.05 -0.15,-0.2 -0.27,-0.33 -0.39,-0.52 -0.15,-0.2 -0.24,-0.38 -0.38,-0.61l-0.8 -1.19c0.52,2.23 1.46,3.45 2.54,5.14 0.5,0.79 2.36,2.88 3.13,3.56 0.23,0.19 0.32,0.22 0.55,0.45 0.2,0.2 0.26,0.27 0.47,0.43l1.6 1.29c0.74,0.55 1.52,1.13 2.29,1.6 0.79,0.46 4.29,2.62 5.06,2.62z"/>
   <path class="fil14" d="M43.64 100.07c0,1.14 1.47,1.54 1.54,2.35 -0.37,-0.03 -0.49,-0.1 -0.99,-0.1 -1.3,0.02 -1.09,0.14 -1.09,-1.71 0,-1.1 0.31,-1.27 -0.63,-1.27 -0.21,0 -0.27,0.07 -0.27,0.27 0,1.04 -0.18,2.86 0.25,3.37 0.47,0.55 1.63,0.34 2.91,0.34 0.33,0 0.44,-0.14 0.63,-0.27 0.45,0.39 0.4,0.27 1.54,0.27 0.39,0 0.33,-0.18 0.62,-0.14 0.29,0.03 0.13,0.23 0.74,0.23 0.36,0 0.45,-0.19 0.81,-0.27 0.87,0.58 0.99,0.1 1.29,0.05 0.31,-0.05 0.21,0.13 0.61,0.13 0.89,0 1.47,0.16 1.92,-0.43 0.22,-0.3 0.52,-1.74 -0.11,-1.74 -1.25,0 -0.17,1.18 -0.91,1.18 -1.56,0 -1.09,0.05 -1.17,-0.82 -0.04,-0.51 -0.26,-0.36 -0.82,-0.36 -0.26,1.13 0.19,1.12 -0.36,1.27 -0.59,-0.44 0.41,-1.27 -0.81,-1.27 -0.84,0 0.22,1.19 -0.72,1.27 -0.27,-1.02 0.42,-1.27 -0.73,-1.27 -0.61,0 0.08,1.18 -0.63,1.18 -1.16,0 -1.05,-0.51 -1.97,-1.38 -0.24,-0.23 -0.35,-0.24 -0.38,-0.61 1.08,-0.25 1.43,-0.43 0.99,-1.27 -0.34,0.03 -1.43,0.47 -1.83,0.61 -0.23,0.08 -0.43,0.08 -0.43,0.39z"/>
   <path class="fil15" d="M92.1 101.87c0.75,0.2 0.18,1.02 -0.1,0.74 -0.2,-0.2 0.06,-0.34 0.1,-0.74zm-0.82 0.09c-0.41,0.24 -0.61,0.01 -0.63,0 0.01,-0.32 -0.01,-0.41 0.27,-0.42 0.24,-0.02 0.34,0.14 0.36,0.42zm-1.35 0.37c-0.48,0.11 -0.16,0.04 -0.64,0 -0.25,-1.07 0.3,-1.18 -0.63,-1.18 -0.59,0 -0.23,0.8 -0.45,1.27 -0.31,-0.03 -0.11,0.03 -0.28,-0.09 -0.31,-0.24 -0.1,-0.5 -0.12,-0.72 -0.01,-0.17 -0.09,-0.21 -0.14,-0.46l-0.55 0c-0.58,0.87 0.23,0.81 -0.45,1.27 -0.41,-0.28 -0.27,-0.52 -0.27,-1.18 -1.16,-0.27 -0.9,-0.07 -0.9,1.54 0,1.45 -1.79,1.04 -2.06,0.6 -0.4,-0.65 0.56,-1.69 -0.65,-1.69 -0.62,0 -0.46,1.77 0.03,2.41 0.57,0.74 1.21,0.58 2.22,0.58 0.38,0 0.7,-0.27 0.89,-0.47 0.32,-0.34 0.28,-0.49 0.47,-0.89 0.6,0.05 0.39,0.28 1.09,-0.18 0.36,0.1 0.29,0.27 0.72,0.27 0.39,0 0.38,-0.18 0.65,-0.21l1.07 0.12c0.45,0 0.81,-0.11 1.08,-0.09 0.61,0.04 -0.01,0.27 1.54,0.27 0.28,0 0.81,-0.76 0.81,-0.9 0,-0.96 -0.95,-1.96 -1.54,-2.35 -0.44,0.12 -0.29,0.33 -0.65,0.42 -0.36,0.1 -0.94,-0.18 -1.34,0.84 -0.19,0.46 0.05,0.28 0.1,0.82z"/>
   <path class="fil16" d="M94.81 66.53l0 -4.07c-0.95,0 -1.73,0.14 -2.53,0.27 -1.45,0.24 -2.56,0.81 -3.6,1.83 -0.38,0.38 -1.16,0.99 -1.28,1.52 1.1,-0.1 2.62,-0.22 3.87,-0.08 0.54,0.06 1.18,0.12 1.78,0.2 0.65,0.1 1.15,0.23 1.76,0.33z"/>
   <path class="fil15" d="M119.76 101.6c0.65,0.98 -0.64,0.8 -0.68,0.69 -0.07,-0.17 0.36,-0.6 0.68,-0.69zm-8.95 -0.81c0,0.39 1.14,1.26 1.2,1.42 0.13,0.38 -0.2,0.12 -0.48,0.12 -1.88,0 -1.59,-0.04 -1.36,0.99 1.28,0 1.88,0.17 2.54,-0.27 0.75,0.17 -0.06,0.27 1.53,0.27 0.38,0 0.51,-0.07 0.73,-0.07l1.8 0.07c0.49,0 0.43,-0.27 0.73,-0.27 0.29,0 0.24,0.27 0.72,0.27 1.31,0 2.62,0.25 2.62,-1.27 0,-0.63 -0.97,-2.76 -2.55,-0.11 -0.18,0.29 -0.08,0.29 -0.43,0.39 -0.2,-0.84 0.42,-1.18 -0.72,-1.18 -0.66,0 0.11,1.18 -0.55,1.18 -1.44,0 -1.08,0.04 -1.08,-0.82 0,-0.55 -1,-0.41 -1,-0.09 0,0.85 0.36,0.91 -0.81,0.91 -0.72,0 -1.47,-1.41 -2.13,-1.95 -0.38,-0.31 -0.76,0.18 -0.76,0.41z"/>
   <path class="fil14" d="M33.7 103.23c0.23,0.02 0.34,0.03 0.48,0.17 0.51,0.5 -0.48,1.02 -0.48,-0.17zm0 -0.9c0,-0.53 -0.03,-0.41 0.18,-0.73 0.39,0.04 0.16,-0.01 0.45,0.18 -0.08,0.32 -0.25,0.51 -0.63,0.55zm-1.54 -0.91c0,-0.37 -0.99,-0.37 -0.99,0 0,0.22 0.05,0.35 0.05,0.47 0.01,0.24 -0.05,0.18 -0.05,0.53 0,0.42 0.18,0.64 -0.03,0.96 -0.37,0.57 -1.04,0.26 -1.6,0.39 0,0.44 -0.01,0.81 0.34,0.92 0.14,0.05 0.8,0.02 1.15,-0.06 1.21,-0.32 0.53,-1.31 1.59,-1.31 0.38,0 0.25,0.59 0.46,0.98 0.66,1.21 2.23,0.18 2.16,-0.26l-0.11 -0.72c1.98,0 2.73,0.31 2.73,-1.81 0,-0.59 -1,-0.38 -1,0.09 0,0.82 0.46,0.73 -1.8,0.73 0.03,-0.38 0.09,-0.21 0.09,-0.55 0,-1.1 -2.1,-1.88 -2.36,0.19 -0.02,0.22 0.01,0.27 -0.14,0.37 -0.07,0.04 -0.54,0.12 -0.56,-0.36 -0.01,-0.24 0.07,-0.18 0.07,-0.56z"/>
   <path class="fil17" d="M116.14 51.07l0 -1.44 -0.36 0.36c-0.55,-0.3 -1.78,-1.5 -2.26,-1.54 -0.08,0.31 -0.54,0.9 -0.72,1.18 -0.21,0.31 -0.63,0.8 -0.73,1.17 0.26,0.17 1.5,1.09 1.63,1.27 -0.25,0.47 -1.06,1.53 -1.45,2.26 0.73,0.49 1.44,1.13 2.17,1.62l1.63 -2.35c-0.32,-0.21 -0.52,-0.39 -0.83,-0.62 -0.22,-0.17 -0.66,-0.45 -0.8,-0.64 0.11,-0.39 0.76,-1.27 1,-1.63 0.32,0.17 0.34,0.23 0.72,0.36z"/>
   <path class="fil17" d="M114.88 64.72l0 -5.24c-0.36,-0.25 -0.59,-0.32 -0.93,-0.53 -0.31,-0.19 -0.57,-0.3 -0.88,-0.47 -0.21,0.4 -1.96,3.83 -1.99,4.25l1.84 0.97c0.66,0.37 1.21,0.77 1.96,1.02z"/>
   <path class="fil11" d="M108.37 58.12l3.25 1.81 1.26 -2.54c0.16,-0.28 0.33,-0.58 0.37,-0.99 -0.54,-0.28 -1.04,-0.54 -1.58,-0.86l-1.68 -0.85 -1.62 3.43z"/>
   <path class="fil18" d="M115.96 54.51c0.14,0.19 0.26,0.23 0.45,0.36l-1.62 2.44c0.42,0.22 0.87,0.61 1.26,0.9 0.31,0.24 0.98,0.82 1.36,0.91 0.09,-0.34 0.62,-1.03 0.83,-1.34 0.2,-0.3 0.77,-1.07 0.79,-1.38 -0.25,-0.06 -1.12,-0.77 -1.26,-0.99 0.15,-0.67 0.67,-1.19 0.81,-1.72l-1.72 -0.99c-0.22,0.33 -0.8,1.4 -0.9,1.81z"/>
   <path class="fil1" d="M52.23 61.38c0,0.72 0.32,0.64 1.42,1.47l0.81 0.55c0.3,0.24 0.25,0.58 0.3,1.05 0.17,1.51 1.97,0.99 2.54,-0.18 0.22,-0.46 -0.01,-0.21 -0.01,-0.54 0,-0.61 0.71,-0.51 -0.63,-1.54 -0.97,-0.75 -1.79,-1.54 -3.62,-1.54 0,0 -0.81,0.38 -0.81,0.73z"/>
   <path class="fil14" d="M75.28 101.24c0.17,-0.42 0.68,-0.26 0.73,0.27 -0.96,0 -0.66,-0.14 -0.73,-0.27zm-4.79 -1.63l0 2.72c0,1.4 1.89,0.94 2.72,0.92 0.28,-0.01 0.4,0.07 0.81,0.07l1.8 0c1.05,0 1.34,-1.54 0.88,-2.41 -0.84,-1.59 -2.99,0 -1.97,1.06 0.17,0.18 0.35,0.15 0.46,0.45 -0.06,0 -1.4,-0.14 -1.4,-0.14 -0.54,-0.32 0.43,-1.13 -0.77,-1.13 -0.61,0 0.08,1.18 -0.63,1.18l-0.63 0c-0.93,0 0.15,-2.99 -0.64,-2.99 -0.44,0 -0.63,-0.06 -0.63,0.27z"/>
   <path class="fil1" d="M44.91 68.97c0,0.77 0.86,1.19 1.95,2.3 0.4,0.41 0.84,0.64 1.3,0.95 0.88,-0.2 1.68,-0.96 2.08,-1.71 -0.18,-0.28 -0.41,-0.54 -0.69,-0.76 -0.36,-0.26 -0.77,-0.43 -1.06,-0.74l-0.54 -0.55c-0.81,-0.6 -2.2,-0.73 -2.7,-0.14 -0.07,0.09 -0.34,0.54 -0.34,0.65z"/>
   <path class="fil1" d="M47.08 65.81c0,0.61 0.41,0.75 0.84,0.96 1.48,0.73 1.1,0.39 1.48,1.32 0.59,1.43 1.42,1.65 2.83,0.97 -0.27,-0.41 -0.38,-0.38 -0.5,-1.05 -0.12,-0.67 0.18,-0.66 0.23,-1.21 -0.86,-0.07 -2.65,-1.81 -3.07,-1.81 -0.75,0 -1.81,0.1 -1.81,0.82z"/>
   <path class="fil1" d="M52.86 68.79c1.17,0.78 1.24,-0.29 1.97,-0.83 0.29,-0.21 0.54,-0.23 0.98,-0.29 0.43,-0.06 0.76,-0.06 0.76,-0.51 0,-0.97 -0.82,-1.15 -1.96,-1.83 -1.4,-0.85 -1.23,-0.37 -1.87,1.17 -0.2,0.48 -0.11,0.58 0.02,1.04 0.12,0.47 0.1,0.67 0.1,1.25z"/>
   <path class="fil11" d="M108.19 51.89c0.17,0.26 0.8,0.69 1.13,0.94 0.32,0.24 0.97,0.78 1.31,0.86 0.36,-0.68 1.54,-2.28 1.62,-2.62 -0.25,-0.07 -0.93,-0.63 -1.17,-0.81 -0.22,-0.17 -0.31,-0.27 -0.56,-0.44 -0.27,-0.18 -0.39,-0.32 -0.62,-0.47 -0.22,0.16 -1.66,2.32 -1.71,2.54z"/>
   <path class="fil15" d="M105.2 101.15c0.16,-0.13 0.68,-0.22 0.73,0.36 -0.82,0 -0.61,-0.14 -0.73,-0.36zm-0.81 0.09c0,1.61 1.59,0.67 1.51,1.24 -0.06,0.47 -1.72,0.6 -2.02,0.08 -0.39,-0.67 0.73,-2.09 -1.03,-1.68 -0.02,0.31 -0.03,0.19 -0.02,0.41l0.08 1.52c0.08,0.22 0.26,0.53 0.43,0.66 0.78,0.57 3.49,0.54 3.49,-1.05 0,-0.99 0.19,-1.84 -1.14,-2.12 -0.54,-0.12 -1.3,0.4 -1.3,0.94z"/>
   <path class="fil15" d="M61.99 102.87c0.87,0.2 1.27,-0.09 1.27,0.36 0,0.63 -1.8,0.79 -2.04,0.06 -0.1,-0.28 -0.04,-1.16 -0.04,-1.51 -1.05,-0.24 -0.9,-0.03 -0.9,1.36 0,0.69 0.62,1.54 1.26,1.54 0.91,0 1.75,0.16 2.23,-0.49 0.38,-0.53 0.69,-1.57 -0.02,-1.99 -0.26,-0.16 -0.47,-0.15 -0.85,-0.15 0.05,-0.61 0.43,-0.45 1.08,-0.45 0.07,-0.27 0.31,-0.96 -0.51,-0.98 -0.02,0 -0.05,0 -0.07,0 -0.61,0.02 -1.18,0.28 -1.37,0.93 -0.1,0.36 -0.04,0.92 -0.04,1.32z"/>
   <path class="fil1" d="M54.49 70.24c0,0.05 0.12,1.44 0.27,1.44 0.98,0 1.24,-0.54 2.26,-0.54l1.27 0c0,-2.55 -2,-3.26 -3,-2 -0.12,0.15 -0.8,0.98 -0.8,1.1z"/>
   <path class="fil1" d="M42.38 66.26c0,0.53 0.57,0.53 0.82,0.98 0.11,0.18 0.16,0.92 0.9,0.92 0.67,0 2.62,-0.46 2.62,-1.45 0,-0.69 -0.64,-0.72 -1.09,-0.72 -0.8,0 -0.75,0.32 -1.24,-0.2 -1.34,-1.41 -2.01,0.04 -2.01,0.47z"/>
   <path class="fil14" d="M97.79 101.24c0,0.44 0.06,1.61 -0.03,1.96 -0.22,0.76 -1.13,0.48 -1.42,0.48 -0.31,0 -0.29,0.7 -0.09,0.91 0.16,0.18 1.27,0.32 1.97,-0.38 0.48,-0.47 0.23,-0.38 0.47,-0.89 1.5,0 3.32,0.44 2.72,-2.17 -1.24,0 -0.65,0.09 -0.91,1.18 -2.28,0 -1.81,0.11 -1.81,-0.82 0,-0.49 -0.62,-0.38 -0.9,-0.27z"/>
   <path class="fil1" d="M57.47 65.35c0,0.74 0.13,0.73 0.01,1.09 -0.5,1.47 0.23,2.3 0.96,2.23 0.74,-0.08 1.77,-0.97 1.05,-2.26 -0.22,-0.4 -0.21,-0.35 -0.3,-0.88 -0.27,-1.71 -1.72,-1.62 -1.72,-0.18z"/>
   <path class="fil1" d="M48.62 63.18c0,0.87 1.27,0.74 1.78,1.11 0.54,0.4 0.79,1.37 1.47,1.43 0.1,-0.42 0.38,-0.8 0.65,-1.07 0.48,-0.47 0.79,-0.47 0.89,-0.83 -0.31,-0.09 -0.47,-0.26 -0.76,-0.42 -1.31,-0.72 -4.03,-1.39 -4.03,-0.22z"/>
   <path class="fil15" d="M108.1 101.96c0,-0.47 -0.04,-0.11 0.09,-0.36 0.5,0.01 0.45,0.12 0.45,0.73 -0.33,-0.01 -0.54,-0.04 -0.54,-0.37zm-0.91 -0.09c0,1.19 0.53,1.26 1.36,1.45 -0.09,0.32 -0.38,0.43 -0.73,0.44 -0.07,0 -0.9,-0.22 -0.9,0.19 0,0.27 0.12,0.47 0.18,0.73 0.58,0.01 1.26,0.11 1.74,-0.26 0.91,-0.7 0.79,-1.26 0.79,-2.27 0,-1.83 -2.44,-2.1 -2.44,-0.28z"/>
   <path class="fil1" d="M44.28 64.27c1.19,0 1.21,0.99 1.8,0.99 0.52,0 0.77,-0.36 0.9,-0.74 0.62,-1.89 -3.77,-3.11 -3.74,-1.17 0.03,1.36 1.04,0.92 1.04,0.92z"/>
   <path class="fil15" d="M79.35 102.05c0,-0.24 0.04,-0.24 0.09,-0.45 0.37,0.01 0.54,0.1 0.54,0.45 0,0.58 -0.63,0.23 -0.63,0zm0.45 1.54c-1.52,0.36 -0.65,0.07 -1.18,0.11 -0.62,0.05 -0.35,0.98 0.01,0.98 1.14,0 2.26,-0.06 2.26,-1.99 0,-0.75 -0.1,-1.3 -0.47,-1.7 -0.83,-0.9 -2.33,-0.04 -1.83,1.55 0.09,0.3 0.25,0.49 0.49,0.6 0.51,0.23 0.67,-0.16 0.72,0.45z"/>
   <path class="fil15" d="M68.68 101.6c0.35,0 0.27,0.21 0.27,0.73 -0.86,0 -0.64,-0.73 -0.27,-0.73zm-1.17 0.27c0,1.51 1.14,1.35 1.35,1.45 -0.08,0.31 -0.28,0.38 -0.66,0.42 -0.48,0.05 -0.29,-0.1 -0.87,0.03 0,1.05 0.04,0.91 1.17,0.91 0.76,0 1.36,-1.09 1.36,-1.27 0,-0.9 0.22,-2.77 -1.18,-2.78 -0.7,-0.01 -1.17,0.52 -1.17,1.24z"/>
   <path class="fil15" d="M26.56 102.05c0,1.1 0.17,1.72 -1.18,1.72 -0.56,0 -0.59,-0.15 -0.9,-0.36 0,-1.53 0.23,-1.91 -0.99,-1.63 0,0.64 -0.11,1.48 0.12,1.95 0.56,1.15 1.44,0.95 2.5,0.95 0.63,0 1.23,-0.78 1.33,-1.29 0.07,-0.33 0.01,-0.97 0.02,-1.34 0.03,-0.85 0.2,-0.9 -0.63,-0.9 -0.51,0 -0.27,0.57 -0.27,0.9z"/>
   <path class="fil15" d="M94.72 101.6c0.38,0 0.27,0.35 0.27,0.73 -0.26,0.05 -0.4,0.1 -0.55,-0.18 -0.11,-0.2 -0.05,-0.55 0.28,-0.55zm0.18 1.72c-0.17,0.64 -0.99,0.33 -1.54,0.45 0,0.48 0.01,0.54 0.09,0.91 0.5,0.01 1.22,0.11 1.69,-0.22 0.89,-0.63 0.75,-1.25 0.75,-2.31 0,-2.16 -2.56,-1.88 -2.32,-0.13 0.15,1.08 0.38,1.08 1.33,1.3z"/>
   <path class="fil1" d="M44.64 60.47c0.53,0.8 1.16,0.31 1.54,1.09 0.08,0.18 0.01,1.63 1.34,0.89 0.78,-0.44 0.6,-1.22 0.46,-1.79 -0.38,-1.57 -3.03,-1.51 -3.34,-0.19z"/>
   <path class="fil1" d="M50.33 72.22c0,0.53 1.32,2.61 2.62,2.72 -0.81,-1.54 0.49,-1.27 0.73,-2.17 -0.26,-0.39 -0.82,-0.54 -1.27,-0.72 -0.63,-0.26 -0.58,-0.73 -1.35,-0.73 -0.32,0 -0.73,0.57 -0.73,0.9z"/>
   <path class="fil1" d="M41.29 68.79c0,0.54 0.37,0.67 0.56,0.98 0.23,0.39 0.13,1.74 1.61,1.37 0.9,-0.22 1.11,-1.14 0.43,-1.7 -0.22,-0.18 -0.46,-0.26 -0.66,-0.41 -0.39,-0.3 -0.35,-1.14 -1.03,-1.14 -0.46,0 -0.91,0.44 -0.91,0.9z"/>
   <path class="fil19" d="M114.88 64.72c-0.02,0.11 -0.25,0.09 0.09,0.09 0.35,-0.67 0.66,-1.34 1.02,-2.05 0.15,-0.29 0.96,-1.87 0.96,-2.2 -0.4,-0.09 -1.57,-0.86 -2.07,-1.08l0 5.24z"/>
   <path class="fil1" d="M40.57 71.68c0,0.15 0.45,1.31 0.65,1.52 0.33,0.35 0.86,0.68 1.44,0.69 1.03,0.01 0.98,-0.46 0.98,-0.85 0,-0.86 -0.77,-0.66 -1.44,-0.82 -0.12,-0.5 -0.21,-1.26 -0.82,-1.26 -0.4,0 -0.81,0.36 -0.81,0.72z"/>
   <path class="fil1" d="M48.71 60.11c0,0.54 0.58,0.63 1.03,0.78 0.92,0.3 0.5,0.5 0.68,0.94 1.61,-0.14 1.87,-1.59 0.87,-2.23 -0.57,-0.37 -1.4,-0.34 -2.04,-0.12 -0.25,0.09 -0.54,0.29 -0.54,0.63z"/>
   <path class="fil15" d="M40.03 102.05c0,-0.29 0.08,-0.06 0.18,-0.45 0.58,0.05 0.82,0.82 0.18,0.82 -0.21,0 -0.36,-0.15 -0.36,-0.37zm0.27 1.36c0.76,0 1.36,-0.5 1.36,-1.26 0,-0.66 -0.53,-1.13 -0.96,-1.49 -0.29,-0.24 -0.14,-0.22 -0.4,-0.41 -0.4,0.1 -0.5,0.35 -0.64,0.72 -0.19,0.53 -0.89,1.08 -0.24,1.88 0.15,0.19 0.58,0.56 0.88,0.56z"/>
   <path class="fil15" d="M56.48 100.79c0.42,0.8 1.12,0.98 1.27,1.54 -0.49,0.23 -2.21,-0.47 -2.05,0.49 0.12,0.7 0.48,0.5 2.05,0.5 0.47,0 0.99,-0.4 0.99,-0.9 0,-0.63 -1.29,-1.89 -1.72,-2.17 -0.29,0.15 -0.32,0.21 -0.54,0.54z"/>
   <path class="fil14" d="M66.06 103.41c-0.25,0.17 -0.47,0.32 -0.83,0.33 -0.66,0.03 -0.96,-0.27 -0.7,0.85 0.45,0.22 1.42,0.14 1.82,-0.17 1.02,-0.78 0.6,-2.13 0.66,-2.6 0.09,-0.7 -0.07,-0.67 -0.59,-0.67 -0.55,0 -0.36,1.31 -0.36,2.26z"/>
   <path class="fil14" d="M54.31 99.61l-0.09 1.18c-0.01,0.46 0.09,0.43 0.09,0.9 0,1.17 -0.5,1.63 0.63,1.63 0.21,0 0.27,-0.06 0.27,-0.27l0 -3.16c0,-0.49 -0.62,-0.38 -0.9,-0.28z"/>
   <path class="fil14" d="M28.28 99.89l0 3.16c0,0.4 0.9,0.4 0.9,0l0 -3.16c0,-0.45 -0.9,-0.54 -0.9,0z"/>
   <path class="fil11" d="M115.42 47.91c0.59,0.31 0.88,0.7 1.44,0.99 0.16,-0.58 0.78,-1.05 0.91,-1.53 -0.36,-0.24 -1.06,-0.9 -1.45,-1 -0.36,0.69 -0.78,1.03 -0.9,1.54z"/>
   <path class="fil11" d="M118.13 52.34c0.4,0.09 1.27,0.27 1.72,0.27 0.01,-0.59 0.26,-1.22 0.27,-1.81 -0.37,-0.01 -1.37,-0.19 -1.72,-0.27 -0.01,0.58 -0.22,1.26 -0.27,1.81z"/>
   <path class="fil1" d="M44.37 72.86c0,0.99 2.53,1.06 2.53,0.18 0,-1.07 -2.53,-1.32 -2.53,-0.18z"/>
   <path class="fil20" d="M99.87 104.77c0,0.1 -0.25,0.9 0.45,0.9 0.65,0 0.54,-0.69 0.54,-0.9 0.98,-0.08 0.53,-1.56 -0.24,-1.06 -0.46,0.3 -0.21,0.49 -0.12,0.88l-0.45 0c0.24,-0.45 0.33,-0.6 -0.27,-1 -0.85,0.2 -0.82,1.1 0.09,1.18z"/>
   <path class="fil20" d="M87.21 100.16c0.21,-0.05 0.21,-0.07 0.46,-0.09 -0.1,0.4 -0.32,0.61 -0.46,0.09zm-0.36 -0.73c0,0.34 0.06,0.17 0.09,0.55 -0.48,0.04 -0.62,0.21 -0.72,0.63 0.2,0.29 0.29,0.32 0.54,0.54 0.36,-0.19 0.35,-0.26 0.64,-0.45 0.2,0.13 0.31,0.36 0.54,0.36 0.57,0 0.87,-0.53 0.39,-0.94 -0.24,-0.21 -0.17,-0.14 -0.57,-0.14 0.63,-1.2 -0.91,-1.01 -0.91,-0.55z"/>
   <path class="fil20" d="M97.07 99.07c0,0.38 -0.04,0.37 0.09,0.63 -0.32,0.15 -0.73,0.17 -0.73,0.64 0,0.26 0.32,0.54 0.55,0.54 0.22,0 0.34,-0.23 0.54,-0.36 -0.04,-0.53 -0.46,-0.62 0.27,-0.63 -0.04,0.44 -0.35,0.57 0.12,0.87 0.75,0.49 1.32,-0.97 0.06,-0.97 0.09,-0.38 0.32,-0.52 -0.07,-0.84 -0.33,-0.27 -0.57,-0.05 -0.83,0.12z"/>
   <path class="fil20" d="M48.89 99.79c-0.49,0.12 -0.61,0.14 -0.73,0.64 0.26,0.47 0.16,0.29 0.64,0.54 0.76,-0.67 0.42,-0.43 0.27,-0.99l0.45 0c-0.04,0.46 -0.07,0.12 -0.18,0.54 0.29,0.2 0.25,0.36 0.63,0.36 0.75,0 0.46,-1.33 -0.27,-0.99 0.08,-0.34 0.15,-0.26 0.18,-0.64 -0.69,-0.72 -1.39,-0.2 -0.99,0.54z"/>
   <path class="fil3" d="M116.14 49.63l0 1.44c0.01,0.26 0.39,0.47 0.72,0.54 0.09,-0.33 0.7,-1.13 0.91,-1.44 -0.26,-0.17 -0.46,-0.36 -0.71,-0.56l-0.74 -0.53c-0.1,0.19 -0.03,0 -0.12,0.24 -0.14,0.37 -0.07,0.08 -0.06,0.31z"/>
   <path class="fil11" d="M117.95 49.53c0.45,0.3 0.79,0.66 1.26,0.91l0.82 -1.36c-0.24,-0.16 -0.34,-0.23 -0.57,-0.42 -0.23,-0.19 -0.4,-0.32 -0.7,-0.39 -0.28,0.41 -0.53,0.85 -0.81,1.26z"/>
   <path class="fil20" d="M104.21 99.43c0.33,0.62 0.71,0.88 1.17,0.18 0.48,0.32 0.12,0.37 0.91,0.37 0.18,-0.27 0.27,-0.19 0.27,-0.55 0,-0.23 -0.4,-0.54 -0.54,-0.54 -0.43,0 -0.35,0.36 -0.55,0.36 -0.32,0 -0.65,-0.96 -1.26,0.18z"/>
   <path class="fil11" d="M116.95 46.55l1.27 0c0,-0.57 0.09,-0.75 0.09,-1.35 -0.46,0 -0.49,-0.09 -0.99,-0.09l-0.37 0 0 1.44z"/>
   <path class="fil21" d="M119.83 47.54c-0.01,0.21 0.1,0.28 0.29,0.28l0.81 0 0 -1.18 -0.99 0 -0.11 0.9z"/>
   <path class="fil11" d="M118.94 43.39c0.42,0.01 0.7,0.15 1.09,0.18 0,-0.45 0.09,-0.63 0.09,-1.18 -0.25,0 -0.83,-0.1 -1,-0.18 -0.03,0.43 -0.18,0.69 -0.18,1.18z"/>
   <path class="fil11" d="M119.12 45.74c0.25,0 0.83,0.1 1,0.18 0.03,-0.35 0.15,-0.82 0.18,-1.18 -0.34,0 -0.7,-0.11 -1,-0.18 -0.13,0.28 -0.18,0.75 -0.18,1.18z"/>
   <path class="fil22" d="M43.55 99.52c0.37,0.08 0.41,-0.03 1.24,-0.3 1.3,-0.43 1.22,-1 0.42,-0.67l-1.26 0.47c-0.32,0.11 -0.37,0.15 -0.4,0.5z"/>
   <path class="fil23" d="M24.75 101.15c0,1.11 1.73,0.54 0.96,-0.33 -0.23,-0.26 -0.44,-0.28 -0.71,-0.05 -0.08,0.06 -0.25,0.31 -0.25,0.38z"/>
   <path class="fil23" d="M113.79 100.07l0 0.54c0.4,0.27 0.36,0.48 1.09,0 0,-0.43 -0.03,-0.82 -0.64,-0.82 -0.21,0 -0.27,0.15 -0.45,0.28z"/>
   <path class="fil23" d="M75.01 99.34c0,1.12 1.66,0.58 1.02,-0.2 -0.49,-0.6 -1.02,0.13 -1.02,0.2z"/>
   <path class="fil20" d="M71.94 100.34c0,0.86 1.17,0.47 1.17,0.09 0,-0.4 -0.54,-0.89 -0.95,-0.5 -0.04,0.03 -0.22,0.39 -0.22,0.41z"/>
   <path class="fil23" d="M51.96 100.52c0,0.01 0.55,1.08 1.18,-0.09 -0.62,-1.16 -1.18,-0.17 -1.18,0.09z"/>
   <path class="fil20" d="M35.33 100.43c0,0.21 0.17,0.4 0.27,0.54l0.54 0c0.07,-0.1 0.27,-0.3 0.27,-0.36 0,-0.22 -0.28,-1.07 -0.83,-0.56 -0.03,0.03 -0.25,0.36 -0.25,0.38z"/>
   <path class="fil20" d="M36.59 100.43c0,0.43 0.52,0.94 1.09,0.09 -0.15,-0.27 -0.22,-0.63 -0.64,-0.63 -0.08,0 -0.45,0.34 -0.45,0.54z"/>
   <path class="fil21" d="M118.49 40.22l0 0.64 0.81 0c0,-0.98 0.09,-0.91 -0.54,-0.91 -0.21,0 -0.27,0.07 -0.27,0.27z"/>
   <path class="fil24" d="M117.04 44.38l0.73 0c0.02,-0.28 0.09,-0.32 0.09,-0.63 0,-0.21 -0.06,-0.27 -0.27,-0.27l-0.55 0 0 0.9z"/>
   <path class="fil25" d="M75.01 82.62c0.24,-0.16 0.19,-0.05 0.27,-0.36 -0.23,0.16 -0.18,0.04 -0.27,0.36z"/>
   <path class="fil1" d="M27.64 61.29c-0.06,-0.26 0.02,-0.14 -0.18,-0.27 0.07,0.26 -0.01,0.13 0.18,0.27z"/>
   <polygon class="fil25" points="74.92,82.8 74.83,82.8 74.91,82.91 "/>
   <polygon class="fil1" points="26.2,57.13 26.2,57.04 26.09,57.11 "/>
   <polygon class="fil1" points="33.52,70.33 33.52,70.24 33.41,70.31 "/>
   <line class="fil1" x1="27.64" y1="61.29" x2="27.64" y2= "61.29" />
   <polygon class="fil12" points="77.54,71.59 77.44,71.77 "/>
   <line class="fil1" x1="26.2" y1="57.13" x2="26.2" y2= "57.13" />
   <line class="fil1" x1="33.52" y1="70.33" x2="33.52" y2= "70.33" />
   <polygon class="fil25" points="74.92,82.8 75.01,82.62 "/>
  </g>
 </g>
</svg>
