<?xml version="1.0" encoding="UTF-8"?>
<!DOCTYPE svg PUBLIC "-//W3C//DTD SVG 1.1//EN" "http://www.w3.org/Graphics/SVG/1.1/DTD/svg11.dtd">
<!-- Creator: CorelDRAW 2020 (64-Bit) -->
<svg xmlns="http://www.w3.org/2000/svg" xml:space="preserve" width="140px" height="140px" version="1.1" style="shape-rendering:geometricPrecision; text-rendering:geometricPrecision; image-rendering:optimizeQuality; fill-rule:evenodd; clip-rule:evenodd"
viewBox="0 0 140 140"
 xmlns:xlink="http://www.w3.org/1999/xlink"
 xmlns:xodm="http://www.corel.com/coreldraw/odm/2003">
 <defs>
  <style type="text/css">
   <![CDATA[
    .fil2 {fill:#7F8080}
    .fil1 {fill:#808081}
    .fil0 {fill:#848485}
    .fil3 {fill:#999999}
    .fil4 {fill:#9C9C9C}
   ]]>
  </style>
   <clipPath id="id0">
    <rect x="-9.46" y="18.29" width="158.08" height="104.21"/>
   </clipPath>
 </defs>
 <g id="Layer_x0020_1">
  <metadata id="CorelCorpID_0Corel-Layer"/>
  <g style="clip-path:url(#id0)">
   <image x="-9.46" y="18.29" width="158.08" height="104.21" xlink:href="setad_Images\setad_ImgID1.png"/>
  </g>
  <g id="_2596058491760">
   <path class="fil0" d="M67.82 58.69c-0.29,-0.04 -0.3,-0.11 -0.48,-0.3l-1.87 -1.81c-0.65,-0.59 -1.18,-1.39 -1.7,-2.09 -0.11,-0.15 -0.17,-0.29 -0.29,-0.47 -0.22,-0.35 -0.4,-0.51 -0.58,-0.88 -0.2,-0.41 -0.35,-0.62 -0.55,-0.99l-0.65 -1.42c0,-0.02 -0.01,-0.04 -0.02,-0.06l-0.85 -2.24c-0.32,-1.04 -0.46,-2.02 -0.68,-3.09 -0.35,-1.66 -0.3,-4.45 -0.13,-6.2 0.12,-1.1 0.51,-2.57 0.81,-3.66 0.06,-0.25 0.22,-0.58 0.3,-0.81l0.47 -1.24c0.04,-0.1 0.14,-0.3 0.19,-0.41l0.36 -0.76c0.06,-0.12 0.1,-0.23 0.17,-0.34l0.9 -1.42c0.41,-0.52 0.09,-0.73 -0.4,-0.23l-0.84 0.79c-0.68,0.64 -1.35,1.39 -1.88,2.15l-0.93 1.39c-0.61,0.97 -1.06,1.97 -1.53,3.01l-0.45 1.18c-0.07,0.25 -0.07,0.25 -0.14,0.47l-0.46 1.85c-0.08,0.29 -0.14,0.62 -0.17,0.94 -0.18,1.97 -0.36,4.76 0.17,6.68 0.12,0.42 0.2,0.89 0.32,1.3l0.58 1.82c0.08,0.19 0.08,0.19 0.13,0.3l0.62 1.44c1.35,2.45 1.29,2.4 3.19,4.63l0.2 0.22c0.52,0.56 1.15,1.03 1.71,1.55 0.56,0.54 2.83,1.9 2.93,2.04 -0.51,0 -1.23,0.29 -1.75,0.39 -1.27,0.27 -3.74,0.34 -4.95,0.13 -0.48,-0.08 -0.3,-0.02 -0.76,-0.01l0 0.26c0.48,0.11 0.97,0.47 2.98,0.88 1.64,0.34 3.42,0.51 5.1,0.34 0.37,-0.04 0.89,-0.1 1.19,-0.1 0.1,0.15 0.15,0.19 0.25,0.34l0.72 1.17c1.16,1.77 0.86,1.97 2.11,0.03l0.95 -1.54c0.87,0 1.86,0.17 2.83,0.17 1.93,0 3.89,-0.36 5.71,-0.98 0.31,-0.11 0.39,-0.23 0.72,-0.31l0 -0.26c-0.48,-0.01 -0.25,-0.09 -0.69,-0.01 -1.42,0.27 -3.43,0.1 -4.87,-0.08 -0.24,-0.03 -0.59,-0.14 -0.91,-0.21 -0.38,-0.09 -0.51,-0.2 -0.91,-0.21l0 -0.17c1.28,-0.3 4.17,-2.9 5.11,-3.99 0.81,-0.94 1.57,-1.89 2.16,-2.98 0.33,-0.61 0.68,-1.17 0.94,-1.8 0.52,-1.27 1.08,-2.53 1.34,-3.9 0.07,-0.4 0.13,-1.02 0.21,-1.42 0.28,-1.46 0.31,-3.79 0.08,-5.27 -0.05,-0.34 -0.1,-0.66 -0.17,-1.12 -0.12,-0.85 -0.41,-1.72 -0.66,-2.51l-1.12 -2.83c-0.06,-0.11 -0.17,-0.31 -0.25,-0.43l-1.22 -1.96c-0.72,-0.92 -1.42,-1.81 -2.25,-2.63 -0.05,-0.06 -0.11,-0.12 -0.16,-0.18 -0.3,-0.34 -0.72,-0.85 -1.18,-0.89 0.05,0.55 0.36,0.82 0.66,1.24 0.52,0.72 0.87,1.73 1.23,2.53 0.41,0.9 0.69,1.84 0.98,2.8 0.47,1.56 0.65,4.06 0.65,5.78 0,1.68 -0.27,3.69 -0.73,5.27 -0.4,1.35 -0.76,2.67 -1.42,3.9 -0.28,0.54 -0.56,1.18 -0.91,1.67l-0.44 0.76c-0.81,1.28 -2.35,3.18 -3.52,4.11 -0.27,0.21 -0.53,0.59 -0.87,0.68l0.08 -6.1c0,-0.73 0.09,-1.18 0.09,-1.97 0,-2.85 0.17,-5.36 0.17,-8.15 0,-2.8 0.09,-5.33 0.09,-8.14l0.09 -3.01c0.01,-1.14 -0.6,-0.29 -2.22,-1.9 -1,-1.01 -0.48,-0.67 -1.67,0.33 -0.45,0.38 -0.72,0.56 -1.27,0.8 -0.8,0.35 -0.52,0.56 -0.5,1.37 0.01,0.71 -0.01,1.44 -0.01,2.15l0.15 8.26c0.21,1.53 0.04,6.28 0.19,8.13 0.03,0.32 0,0.7 0,1.02 0.01,0.47 0.08,0.51 0.1,0.94l-0.01 5.24c0,0.5 0.09,0.6 0.09,1.03z"/>
   <path class="fil0" d="M82.91 59.71c0.56,-0.01 0.52,-0.18 0.86,-0.42 0.58,-0.43 0.47,-0.26 1.14,-0.84l1.76 -1.59c1.41,-1.4 2.71,-3.66 3.42,-5.58 0.01,-0.02 0.02,-0.04 0.03,-0.06 0.52,-1.42 0.33,-1.05 0.68,-2.32l0.35 -2.39c0,-2 0.1,-1.71 -0.22,-3.56 -0.06,-0.3 -0.02,-0.47 -0.09,-0.76 -0.37,-1.49 -0.13,-0.86 -0.7,-2.39l-0.88 -2.04c-0.52,-1.09 -1.09,-1.74 -1.68,-2.61 -0.34,-0.51 -1.62,-1.84 -2.08,-2.21l-1.43 -1.14c-0.22,-0.14 -0.32,-0.18 -0.53,-0.33 -0.63,-0.45 -1.5,-0.88 -2.23,-1.2 -0.59,-0.27 -1.86,-0.83 -2.6,-0.83 0.05,0.58 1.14,0.76 2.17,1.78 0.13,0.13 0.22,0.2 0.35,0.33 0.2,0.19 0.13,0.14 0.36,0.32l1.86 2.18c0.11,0.18 0.14,0.25 0.26,0.42 0.59,0.82 1.02,1.67 1.45,2.59l0.77 1.89c0.33,0.84 0.57,1.79 0.75,2.67 0.08,0.38 0.2,0.8 0.24,1.13l0.29 3.67 -0.15 2.51c-0.08,0.45 -0.08,0.77 -0.15,1.23l-1.44 4.99c-0.49,1.25 -1.31,2.58 -2.06,3.69 -0.26,0.39 -0.48,0.38 -0.5,0.87z"/>
   <path class="fil0" d="M49.03 45.48c0,2.41 0.56,4.74 1.52,6.89l2.12 3.45c0.25,0.33 0.34,0.46 0.63,0.74 0.28,0.28 0.42,0.55 0.69,0.77 0.59,0.46 1.12,1.05 1.91,1.61 0.42,0.31 0.92,0.74 1.37,0.77 -0.05,-0.58 -0.9,-1.25 -1.52,-2.51 -0.76,-1.53 -0.9,-1.62 -1.5,-3.47 -1.15,-3.54 -1.18,-4.77 -1.18,-8.51 0,-0.85 0.12,-1.97 0.29,-2.71 0.18,-0.78 0.46,-2.32 0.71,-2.98 0.1,-0.26 0.12,-0.23 0.22,-0.55 0.35,-1.23 0.87,-2.14 1.41,-3.22 0.43,-0.89 1.74,-2.71 2.48,-3.44l1.61 -1.48c0.29,-0.23 0.59,-0.46 0.89,-0.65 0.86,-0.54 0.78,-0.19 0.79,-0.75 -0.59,0 -0.92,0.19 -1.57,0.4l-3.5 1.81c-0.21,0.16 -0.32,0.21 -0.52,0.35 -0.41,0.28 -1.96,1.62 -2.31,2.06 -1,1.25 -2.2,2.53 -2.87,4.16 -0.83,2.02 -1.07,2.38 -1.44,4.73 -0.16,0.97 -0.23,1.46 -0.23,2.53z"/>
   <path class="fil1" d="M95.18 77.98c0,1.05 1.05,1.02 1.46,1.63 -0.19,0.82 -0.82,1.57 -1.54,1.89 -1.15,0.51 -3.15,0.79 -3.67,-0.45 -0.43,-1.01 -0.12,-2.18 0.26,-3.13l0.76 -1.89c0.11,-0.25 0.33,-0.5 0.33,-0.88 0,-0.3 -0.42,-0.15 -0.57,0.03l-0.94 2.06c-0.1,0.28 -0.15,0.41 -0.26,0.69 -0.22,0.56 -0.4,0.82 -0.52,1.54 -0.13,0.7 -0.2,0.45 -0.2,0.83 0,1.02 -0.18,2.34 0.58,3.2 0.39,0.44 0.66,0.62 1.14,0.83 0.45,0.2 1.14,0.19 1.66,0.03 0.32,-0.09 0.12,-0.04 0.35,-0.15 1.2,-0.57 2.12,-1.62 2.69,-2.81 0.48,-1.01 0.87,-2.19 0.87,-3.42 0,-0.63 -0.33,-0.83 -0.81,-1.24 -0.29,-0.24 -0.21,0.01 -0.22,-0.47 0.52,-0.14 0.36,-0.6 1.63,-0.6 0.35,0 0.54,0.71 1.28,-0.18 0.32,-0.39 0.6,-0.7 0.07,-1.26 -0.2,-0.22 -0.24,-0.29 -0.4,-0.53 0.16,-0.31 0.36,-0.78 0.6,-0.95 0.75,0.51 0.32,0.52 1.71,0.52 0.26,0 0.51,-0.16 0.69,-0.26l0.46 -0.31c0.84,-0.77 1.28,-1.44 1.74,-2.47 0.05,-0.12 0.09,-0.22 0.16,-0.35 0.08,-0.15 0.11,-0.16 0.18,-0.34 0.11,-0.24 0.13,-0.56 -0.23,-0.56 -0.48,0 -0.44,1.46 -1.54,1.46 -0.6,0 -0.68,-1.01 -0.03,-1.4 0.53,-0.33 0.44,0.08 1.4,-0.15 0.38,-1.57 -1.58,-1.35 -2.39,0.53 -0.07,0.16 -0.13,0.34 -0.18,0.5 -0.16,0.42 -0.19,0.59 -0.43,0.94 -1.13,-0.09 -0.93,-1.04 -0.81,-1.92l0.29 -2.79c-0.54,0.01 -0.65,0.48 -0.9,1.24 -0.34,1.05 -0.39,1.55 -0.47,2.7 -0.03,0.34 -0.14,0.61 -0.16,0.95 -0.13,1.85 -0.11,1.15 -0.8,2.47 -0.48,0.93 -0.35,0.56 -1.1,1.13l-0.85 0.78c-0.05,0.05 -0.17,0.2 -0.22,0.29 -0.1,0.14 -0.11,0.19 -0.2,0.31 -0.6,0.82 -0.49,0.45 -0.72,1.51 -0.05,0.18 -0.15,0.3 -0.15,0.45z"/>
   <path class="fil1" d="M46.55 76.95c-0.29,0 -0.21,-0.22 -0.52,-0.42 -1.19,0.63 -0.91,0.91 -3.1,1.52 -1.72,0.48 -3.73,0.6 -5.55,0.44 -3.96,-0.33 -2.16,-1.17 -3.1,-1.79 -0.58,0.39 -0.43,1.76 -0.43,2.66 0,2.6 6.49,1.49 7.91,1.05 0.23,-0.07 0.39,-0.09 0.61,-0.17 0.23,-0.09 0.24,-0.11 0.49,-0.2 0.79,-0.26 1.95,-1.02 2.5,-1.62l0.5 -0.61c1.63,0.86 1.6,0.66 2.7,-0.64 0.55,-0.66 0.27,-0.46 0.61,-0.59 0.17,-0.07 0.33,-0.07 0.48,-0.13 0.47,-0.17 0.49,-0.47 1,-0.88l0.63 -0.66c0.25,-0.34 0.24,-0.4 0.4,-0.8 0.18,-0.43 0.27,-0.4 0.27,-1.02 -0.42,-0.09 -0.41,-0.06 -0.62,0.33 -0.43,0.85 -0.44,0.35 -0.86,0.94 -0.09,0.14 -0.12,0.25 -0.26,0.34 -0.74,0.54 -0.04,-0.64 -2.1,1.42 -0.29,0.29 -0.27,0.32 -0.67,0.52 -0.24,0.12 -0.59,0.31 -0.89,0.31z"/>
   <path class="fil1" d="M12.32 78.16c0,1.25 0.91,1.2 1.55,1.54 -0.02,0.66 -0.55,1.46 -1.05,1.86l-0.92 0.55c-0.73,0.29 -2.21,0.47 -2.86,-0.15 -0.63,-0.6 -0.72,-1.35 -0.43,-2.11 0.1,-0.26 0.12,-0.45 0.19,-0.68 0.19,-0.72 1.38,-3.54 1.38,-3.67 0,-0.35 -0.46,-0.48 -0.73,0.29l-0.96 2.22c-0.37,0.68 -0.97,2.57 -0.97,3.32 0,1.01 -0.11,1.85 0.71,2.81 0.75,0.87 2.46,0.92 3.45,0.32 1.17,-0.72 1.81,-1.56 2.36,-2.78 0.18,-0.41 0.34,-0.75 0.46,-1.26 1.03,-4.14 -0.89,-2.89 -0.89,-3.81 0,-0.29 0.24,-0.6 0.39,-0.81 0.19,-0.25 0.42,-0.37 0.65,-0.63 1.31,-1.45 1.69,0.3 2.29,-1.58 0.14,-0.47 0.27,-0.67 0.27,-1.27 -0.43,-0.11 -0.57,-0.14 -1.16,0.3 -0.26,0.19 -0.52,0.34 -0.74,0.54 -0.97,0.85 -0.35,0.28 -0.98,1 -0.01,0.01 -0.03,0.03 -0.04,0.04 -0.55,0.6 -0.37,0.47 -0.82,1.08 -0.49,0.67 -1.15,2.03 -1.15,2.88z"/>
   <path class="fil1" d="M65.85 77.9c0,0.6 -0.11,1.24 1.11,1.62 0.22,0.07 0.43,0.07 0.43,0.35 0,0.97 -1.59,2.49 -3.09,2.49 -0.59,0 -1.31,0 -1.71,-0.35 -0.74,-0.64 -0.7,-1.41 -0.44,-2.23 0.15,-0.49 -0.02,-0.21 0.29,-1 0.05,-0.13 0.05,-0.18 0.1,-0.33 0.08,-0.24 0.15,-0.44 0.25,-0.69 0.32,-0.79 0.97,-1.89 0.83,-2.52 -0.48,0.01 -0.46,0.11 -0.64,0.48l-1.04 2.39c-0.12,0.29 -0.23,0.5 -0.32,0.79l-0.27 0.94c-0.1,0.37 -0.18,0.49 -0.23,0.89 -0.05,0.45 -0.15,1.51 -0.03,2.01 0.07,0.33 0.08,0.23 0.16,0.44 0.19,0.51 0.09,0.42 0.39,0.81 0.81,1.06 2.43,1.04 3.34,0.59 0.12,-0.05 0.31,-0.17 0.44,-0.24 0.53,-0.29 1.33,-1.21 1.66,-1.69 0.46,-0.67 0.97,-2.06 1.09,-2.95 0.08,-0.62 0.44,-1.84 -0.24,-2.43l-0.67 -0.36c-0.19,-0.18 -0.22,-0.32 -0.08,-0.58 0.32,-0.62 0.54,-0.66 0.91,-1.08 0.04,-0.05 0.07,-0.08 0.12,-0.13 1.25,-1.28 1.53,0 1.98,-0.94l0.21 -0.47c0.94,-2.08 -0.18,-1.69 -1.57,-0.55 -1.12,0.92 -2.2,2.41 -2.66,3.78 -0.13,0.37 -0.32,0.41 -0.32,0.96z"/>
   <path class="fil1" d="M72.79 104.66c0,0.82 -1.29,2.22 -2.54,2.43 -0.61,0.11 -1.67,0.12 -2.15,-0.31 -0.51,-0.45 -0.54,-0.9 -0.54,-1.52 0,-0.58 0.79,-2.7 1.14,-3.49 0.12,-0.27 0.49,-1.06 0.49,-1.31 0,-0.33 0.03,-0.03 -0.09,-0.26 -0.54,0.04 -0.63,0.53 -0.87,1.1l-1.19 2.84c-0.51,1.89 -0.42,1.07 -0.42,3.26 0,0.48 0.4,1.21 0.7,1.53 0.88,0.92 2.55,0.86 3.39,0.25 0.72,-0.52 1.2,-0.87 1.72,-1.71 0.2,-0.31 0.35,-0.49 0.5,-0.87 0.19,-0.49 0.6,-1.69 0.64,-2.1 0.06,-0.51 0.45,-1.76 -0.23,-2.27 -0.6,-0.45 -1.31,-0.23 -0.58,-1.21 0.16,-0.22 0.21,-0.35 0.39,-0.55 1.75,-1.84 1.91,0.01 2.63,-1.91 0.06,-0.16 0.62,-1.28 0.01,-1.28 -0.46,0 -1.71,0.95 -2.07,1.28l-1.1 1.38c-0.7,0.98 -0.39,0.48 -0.91,1.57 -1.44,3 1.08,2.79 1.08,3.15z"/>
   <path class="fil1" d="M84.8 103.2c0,0.46 0.13,0.7 0.45,0.92 0.41,0.27 0.62,0.25 1.01,0.45 -0.01,0.32 -0.06,0.59 -0.21,0.82 -0.75,1.15 -1.62,1.76 -3.14,1.76 -1.09,0 -1.88,-0.61 -1.88,-1.46 0,-0.61 0.13,-1.03 0.27,-1.53 0.05,-0.14 0.12,-0.49 0.18,-0.67l0.22 -0.47c0.04,-0.09 0.02,-0.08 0.06,-0.2l0.81 -1.94c0.2,-0.46 0.21,-0.13 0.09,-0.68 -0.72,0.02 -0.55,0.45 -0.96,1.27 -0.7,1.38 -0.83,1.8 -1.3,3.17 -0.34,1 -0.5,2.48 -0.07,3.55 0.58,1.44 2.19,1.71 3.53,1.19 0.62,-0.25 1.14,-0.82 1.54,-1.2 0.58,-0.57 0.97,-1.43 1.25,-2.18l0.46 -1.6c0.08,-0.87 0.31,-1.82 -0.35,-2.22 -0.69,-0.42 -1.16,-0.28 -0.31,-1.44 0.29,-0.4 0.26,-0.31 0.6,-0.61 0.64,-0.55 0.64,-0.62 1.78,-0.62 0.16,-0.3 0.26,-0.53 0.41,-0.88 0.08,-0.19 0.11,-0.25 0.17,-0.42 0.27,-0.73 0.19,0.01 0.19,-0.58 0,-0.92 -1.61,0.29 -1.92,0.56 -0.01,0.01 -0.03,0.03 -0.04,0.04 -1.28,1.17 -2.84,3.15 -2.84,4.97z"/>
   <path class="fil2" d="M9.24 101.66c0,0.66 -0.09,0.72 0.2,1.08 0.39,0.48 0.49,0.35 0.87,0.5 0.55,0.23 0.45,0.42 0.07,1.11 -0.08,0.14 -0.14,0.23 -0.25,0.35 -0.75,0.77 -0.62,0.6 -1.42,0.98 -0.01,0 -0.17,0.08 -0.17,0.08 -0.27,0.12 0.13,0.1 -0.25,0.1 -1.22,0 -1.26,0.13 -1.86,-0.19l-0.41 -0.29c-0.81,-0.87 -0.16,-2.08 0.05,-2.94 0.07,-0.3 0.13,-0.36 0.25,-0.61 0.17,-0.33 0.35,-0.76 0.48,-1.15 0.23,-0.66 0.43,-0.79 0.46,-1.17 -0.43,-0.23 -0.15,-0.09 -0.68,-0.08 -0.03,0.35 -0.49,0.95 -0.72,1.6 -0.25,0.68 -0.53,1.01 -0.75,1.73 -0.08,0.26 -0.01,0.07 -0.1,0.25l-0.32 0.96 0 2.66c0,0.11 0.26,0.52 0.33,0.62 0.11,0.14 0.32,0.34 0.47,0.46l1.43 0.55c1.09,0 0.5,-0.06 0.91,-0.21 0.46,-0.16 0.67,0.21 2.07,-1.18 0.4,-0.4 0.6,-0.65 0.84,-1.13 0.07,-0.12 0.07,-0.14 0.12,-0.23l0.48 -1.23c0.15,-0.49 0.38,-1.71 0.38,-2.28 0,-0.64 -0.7,-1.07 -1.2,-1.2 0,-0.39 0.03,-0.44 0.18,-0.68 0.33,-0.49 0.99,-1.03 1.5,-1.33 0.59,-0.36 0.94,0.18 1.34,-0.46 0.36,-0.58 0.56,-1.19 0.41,-1.82 -0.4,0 -0.35,-0.02 -0.71,0.15 -0.93,0.44 -1.98,1.45 -2.6,2.2 -0.01,0.02 -0.02,0.04 -0.03,0.05 -0.01,0.02 -0.03,0.04 -0.04,0.05 -0.01,0.01 -0.03,0.03 -0.04,0.05l-0.6 0.86c-0.24,0.31 -0.69,1.57 -0.69,1.79z"/>
   <path class="fil1" d="M29.13 70.35l0 0.26c0.91,0 0.41,-0.55 1.21,-0.59 0.28,-0.02 1.13,0.13 1.2,0.16 -0.21,0.29 -0.31,0.19 -0.65,0.38l-1.27 0.88c-0.03,0.02 -0.13,0.11 -0.13,0.12l-0.13 0.13c-0.19,0.19 -0.14,0.13 -0.32,0.28 -0.47,0.37 -0.62,0.67 -0.9,1.24l-0.98 1.26c-0.45,-0.12 -0.76,-1.15 -1.95,0.45 -0.29,0.4 -0.54,0.87 -1.05,1.01 -0.01,-0.58 -0.93,-2.09 -1.91,-0.11 -0.39,0.79 -0.98,1.7 -0.15,2.17 0.4,0.22 0.43,0.12 0.86,0.08 -0.03,0.36 -0.32,0.66 -0.54,0.92l-1.68 1.24c-0.15,0.11 -1.04,0.76 -0.18,0.76 0.22,0 1.78,-0.55 2.12,-0.8 0.58,-0.41 0.82,-1.11 1.14,-1.86 0.33,-0.8 -0.11,-0.38 0.79,-1.44 0.47,-0.54 0.73,-1.02 1.09,-1.14 0.17,-0.06 0.28,-0.04 0.49,0.12 0.68,0.5 -0.32,1.68 0.26,1.99 0.35,0.19 0.47,-0.44 0.77,-1.28 0.08,-0.22 0.17,-0.44 0.22,-0.63 0.16,-0.53 -0.14,-0.44 0.56,-1.07 0.43,-0.38 0.79,-0.16 1.56,-0.16 0.32,0 0.86,-0.81 0.86,-1.11 0,-0.39 -0.33,-0.69 -0.54,-1 -0.18,-0.26 -0.13,0 -0.14,-0.46 0.31,-0.07 0.62,-0.33 0.97,-0.48 0.92,-0.43 2.63,-0.97 2.63,-2.01 0,-0.52 -1.16,-0.7 -1.52,-0.79 -0.66,-0.16 -1.5,-0.38 -2.1,0.44 -0.09,0.12 -0.59,0.93 -0.59,1.04z"/>
   <path class="fil1" d="M119.28 75.93c-0.63,-0.06 -0.74,-0.53 -1.74,0.83 -0.22,0.3 -0.45,0.51 -0.74,0.71 -0.21,0.14 -0.22,0.12 -0.45,0.24 -1.65,0.81 -3.8,0.96 -5.65,0.96 -0.99,0 -2.25,0.07 -3.13,-0.3 -0.56,-0.24 -0.64,-0.69 -0.81,-1.42 -0.51,0.05 -0.4,0.37 -0.48,0.9 -0.1,0.74 -0.27,1.69 0.14,2.36 0.67,1.12 2.2,0.95 3.68,0.95 1.34,0 2.46,-0.18 3.53,-0.42 0.24,-0.06 0.17,-0.05 0.33,-0.1l0.78 -0.25c2.96,-1.21 2.37,-2.78 3.53,-2.99 0.3,-0.05 0.61,0.03 0.89,-0.06 0.54,-0.17 0.98,-1.44 0.98,-2.1 -0.59,0 -0.4,0.01 -0.56,0.29 -0.13,0.23 -0.14,0.24 -0.3,0.4z"/>
   <path class="fil1" d="M126.66 81.07c0.89,0 1.51,-0.72 1.94,-1.14 0.32,-0.32 0.22,-0.13 0.29,-0.4 0.32,0 0.69,0.04 0.99,-0.04l0.49 -0.28c0.43,-0.23 0.28,0.17 0.71,-0.4l0.46 -0.66c0.72,-0.95 0.82,-0.26 1.51,-0.45 0.38,-0.11 1.4,-1.06 0.58,-2.05 -0.11,-0.14 -0.17,-0.23 -0.26,-0.34 -0.43,-0.51 -0.58,-0.15 -0.76,0.13 -0.13,0.21 -0.17,0.27 -0.33,0.44 -0.98,0.98 -0.83,1.23 -1.29,1.89 -0.41,0.57 -0.63,0.22 -1.16,0.47 0.04,-0.45 0.58,-1.06 -0.01,-1.62 -0.65,-0.6 -1.95,-0.07 -2.41,0.49 -0.73,0.91 -0.12,0.84 0.19,0.88 0.37,0.05 0.33,0.05 0.52,0.34 -0.44,0.65 -1.89,0.39 -1.89,-0.52 0,-0.78 0,-2.15 0.15,-2.76 0.15,-0.62 0.24,-1.52 0.28,-2.21 0.05,-0.75 0.37,-1.35 -0.02,-1.43 -0.42,-0.08 -0.87,1.72 -0.96,2.08l-0.56 4.33c-0.07,0.98 -0.24,2.04 0.66,2.85 0.19,0.17 0.56,0.4 0.88,0.4z"/>
   <path class="fil1" d="M37.88 102.26l-1.29 -0.01c-0.91,0.25 0.4,0.27 -2.22,0.27 -0.62,0 -0.19,-0.36 -0.97,-0.29 -0.66,0.06 -1.68,-0.21 -1.89,-0.64 -0.26,-0.52 0.13,-0.96 -0.57,-0.96 -0.29,0 -0.33,0.51 -0.45,1.18 -0.43,2.52 0.83,2.38 1.45,2.7 0.14,0.07 0.07,0.15 0.28,0.15l3.86 0c0.53,0 0.24,-0.27 1.03,-0.26 1.06,0 0.62,-0.12 1.06,-0.23 0.24,-0.06 0.28,0.01 0.52,-0.08l0.87 -0.32c0.68,-0.25 1.72,-0.81 2.08,-1.35 0.61,-0.9 0.88,-1.32 0.88,-2.22 -0.71,0 -0.27,-0.04 -0.48,0.12 -0.02,0.01 -0.08,0.06 -0.1,0.08 -0.4,0.38 -0.21,0.63 -1.51,1.14 -0.66,0.26 -0.69,0.18 -0.92,0.28 -0.83,0.39 -0.41,0.05 -0.96,0.25 -0.13,0.05 -0.21,0.19 -0.67,0.19z"/>
   <path class="fil1" d="M64.73 25.06c0,1.33 0.12,1.82 0.79,2.82 0.29,0.42 1.25,1.3 1.87,1.3 2.04,0 1.55,-0.22 2.66,-1.03 0.35,0.09 0.96,1.03 1.89,1.03l0.85 0c0.6,0 1.53,-0.82 1.81,-1.2 0.19,-0.28 0.38,-0.56 0.54,-0.91 0.32,-0.68 0.31,-1.3 0.31,-2.01 0,-0.33 0.03,-0.03 -0.08,-0.25 -0.37,0.03 -0.21,-0.06 -0.37,0.23 -0.28,0.54 0.04,0.42 -0.68,1.21 -0.24,0.25 -0.29,0.34 -0.68,0.51 -0.93,0.41 -1.75,0.38 -2.6,-0.2 -0.86,-0.59 -0.43,-0.9 -0.99,-0.9 -0.46,0 0.05,0.25 -0.91,0.9 -0.8,0.55 -1.66,0.6 -2.53,0.23 -0.38,-0.16 -0.78,-0.55 -1.03,-0.87 -0.12,-0.15 -0.16,-0.19 -0.23,-0.37 -0.2,-0.49 -0.11,-0.7 -0.53,-0.74 -0.06,0.1 -0.09,0.09 -0.09,0.25z"/>
   <path class="fil1" d="M78.28 78.76c0,0.75 0,0.37 0.11,0.75 0.04,0.13 0.06,0.26 0.1,0.41 0.16,0.51 0.94,1.39 1.79,1.01 0.91,-0.39 1.4,-2.09 2.03,-2.09 0.36,0 0.6,1.07 1.8,-1.03 1.51,-2.63 -0.75,-4.85 -1.47,-3.53 -0.06,0.1 -0.09,0.19 -0.14,0.28 -0.07,0.13 -0.12,0.21 -0.18,0.34 -0.17,0.34 -0.52,1.07 -0.52,1.45 0,0.5 0.68,0.6 1.11,0.6 0.39,0 0.6,-0.2 0.6,0.35 0,0.28 -0.2,0.34 -0.42,0.34 -0.22,0 -0.33,-0.21 -0.52,-0.34 -1.06,0.25 -0.58,1.37 -2.23,1.37 -0.65,0 -0.93,-0.67 -0.92,-1.29 0.01,-1.16 0.39,-3.77 0.56,-5.07 0.08,-0.59 0.16,-0.59 -0.07,-0.93 -0.32,0.08 -0.41,0.3 -0.51,0.6 -0.1,0.28 -0.18,0.53 -0.28,0.83l-0.66 3.81c-0.04,0.5 0.05,1.29 -0.05,1.67 -0.08,0.33 -0.13,0.09 -0.13,0.47z"/>
   <path class="fil1" d="M96.89 103.03c0,0.87 0.03,0.27 0.15,0.71 0.16,0.63 0.38,2.12 1.66,2.12 0.61,0 1.08,-0.64 1.33,-1.07 1.21,-2.01 0.98,-0.07 2.08,-1.35 0.45,-0.52 0.56,-0.71 0.8,-1.43 0.25,-0.74 0.41,-1.3 0.09,-2 -0.18,-0.41 -0.35,-0.71 -0.75,-0.97 -0.99,-0.65 -1.22,0.63 -1.61,1.39 -0.34,0.66 -0.51,1.09 0.31,1.38 0.48,0.16 0.48,0.03 0.92,-0.07 0.44,0.84 -0.27,0.97 -0.43,0.52 -0.47,0 -0.56,0.07 -1.03,0.68 -0.6,0.8 -1.43,0.9 -1.87,0.34 -0.7,-0.89 -0.54,-2.83 -0.3,-3.79l0.2 -2.03c0.04,-0.51 0.2,-0.46 0.08,-0.95 -0.33,0.03 -0.45,0.09 -0.57,0.37 -0.05,0.13 -0.07,0.27 -0.12,0.4l-0.5 2.07c-0.15,0.71 -0.44,2.97 -0.44,3.68z"/>
   <path class="fil1" d="M109.93 103.29c0.1,-0.35 0.45,-0.58 0.39,-0.92 -0.14,-0.81 -1.72,-0.87 -2.64,-0.05 -0.82,0.72 0.15,0.71 0.54,0.71 0.08,0.34 0.31,0.94 -0.95,0.94 -0.49,0 -1.22,-0.89 -2.71,0.72l-0.42 0.52c-0.25,0.36 -0.3,0.42 -0.3,0.99 0.7,-0.05 0.48,-0.34 1.55,-0.34 0.28,0 1.46,0.49 2.29,-0.19 0.31,-0.26 0.57,-0.52 0.87,-0.77 0.83,-0.7 1.07,0.05 1.87,-0.61l1.43 -1.06c0.57,-0.31 0.5,-0.26 0.93,-0.69 0.3,-0.3 0.55,-0.5 0.77,-0.86 0.16,-0.26 0.5,-0.87 0.5,-1.22 0,-0.33 0.03,-0.03 -0.09,-0.26 -0.61,0.05 -0.19,0.44 -0.94,0.77 -0.42,0.18 -0.21,0.06 -0.41,0.45 -0.3,0.56 -0.36,0.1 -0.87,0.5 -0.19,0.15 -0.08,0.06 -0.21,0.22 -0.26,0.3 -0.78,1.08 -1.6,1.15z"/>
   <path class="fil2" d="M123.57 103.72c0,1.15 1.46,3.62 3.04,0.98 0.2,-0.34 0.28,-0.49 0.57,-0.72 0.54,-0.43 0.37,-0.22 0.94,-0.09 0.65,-0.44 0.18,-0.27 1.34,-0.97 0.22,-0.14 0.94,-0.87 1.07,-1.25 0.14,-0.38 0.33,-0.7 0.33,-1.21 -0.55,0.01 -0.41,0.13 -0.63,0.48 -0.25,0.42 -0.22,-0.07 -0.56,0.46 -0.42,0.65 -0.3,0.12 -0.72,0.49 -0.2,0.18 -0.08,0.2 -0.43,0.51l-0.15 0.12c-0.48,-0.13 -0.59,-0.75 -1.54,0.51 -0.98,1.3 -2.06,0.24 -2.06,-0.43 0,-1.28 0.23,-3.57 0.4,-4.83 0.07,-0.45 0.19,-0.93 0.03,-1.26 -0.39,0.03 -0.41,0.24 -0.51,0.53 -0.14,0.41 -0.48,1.31 -0.52,1.7 -0.04,0.35 -0.11,0.69 -0.15,0.97l-0.28 3.06c-0.02,0.48 -0.17,0.49 -0.17,0.95z"/>
   <path class="fil1" d="M61.9 99.6c0.23,-0.06 0.21,-0.11 0.39,-0.29 0.55,-0.56 1.27,-0.18 1.84,0.2 -0.13,0.5 -0.64,0.63 -0.77,1.12 -0.5,-0.04 -0.2,-0.08 -0.49,-0.45 -0.88,-1.13 -2.09,0.86 -2.09,2.16 0,0.34 0.12,0.47 0.38,0.58 0.63,0.27 1.19,-0.27 0.36,0.85 -0.43,0.58 -2.19,1.42 -2.19,1.83 0,0.57 0.94,0.03 1.77,-0.28 0.8,-0.3 1.15,-0.76 1.51,-1.66l0.45 -1.35 2.24 -2.57c0.11,-0.11 0.17,-0.14 0.27,-0.24 0.31,-0.3 0.53,-1.15 0.53,-1.27 0,-0.2 -0.07,-0.19 -0.17,-0.35 -0.42,0.04 -0.65,0.69 -1.93,0.13 -1.02,-0.44 -1.36,-0.24 -1.93,0.56 -0.51,0.71 -0.47,0.82 -0.17,1.03z"/>
   <path class="fil1" d="M76.48 99.34c0,0.39 0.07,0.62 0.3,0.99 0.22,0.35 0.46,0.39 0.64,0.64l-0.51 0.85c-0.07,0.12 -0.03,0.06 -0.1,0.17 -0.01,0.02 -0.08,0.16 -0.09,0.17 -0.2,0.35 -0.17,0.12 -0.35,0.58l-0.12 0.31c-0.28,0.82 -0.61,1.76 0.08,2.53 0.54,0.61 1.25,0.21 1.74,-0.54l0.17 -0.25c1.07,-1.62 -0.53,-2.74 -0.56,-1.5l-0.26 0c-0.21,-0.91 -0.08,-0.84 0.33,-1.73 0.18,-0.39 0.27,-0.54 0.51,-0.87 0.18,-0.24 0.34,-0.54 0.47,-0.82 0.48,-1.05 0.44,-0.78 0.32,-1.3 -1.45,-0.34 -1.45,-0.23 -0.97,-2.86 0.1,-0.52 0.01,-0.22 0.2,-0.58 0.31,-0.62 0.18,-0.67 -0.08,-0.85 -0.32,0.09 -0.35,0.28 -0.5,0.71 -0.5,1.41 -0.5,0.92 -0.99,2.87 -0.11,0.46 -0.23,0.84 -0.23,1.48z"/>
   <path class="fil2" d="M117.74 99.51c0,0.71 0.09,-0.05 0,1.03 -0.35,-0.09 -0.18,-0.12 -0.45,-0.41 -0.32,-0.34 -0.86,-0.47 -1.21,0.12 -0.37,0.62 -0.83,1.18 -0.83,2.01 0,0.63 0.51,0.85 1.2,0.68 -0.16,0.69 -0.72,1.13 -1.25,1.5 -0.83,0.57 -1.4,0.78 -1.41,1.33 0.57,0.14 1.09,-0.22 1.65,-0.4 0.44,-0.15 0.69,-0.21 0.98,-0.57 0.13,-0.18 0.23,-0.27 0.34,-0.43 0.33,-0.48 0.72,-1.88 0.87,-2.13 0.21,-0.35 0.42,-0.5 0.65,-0.9 0.14,-0.23 0.16,-0.24 0.26,-0.51 0.53,-1.4 0.4,-1.59 0.4,-3.29 0,-0.33 0.02,-0.03 -0.09,-0.26 -0.49,0.04 -0.46,0.41 -0.93,1.56 -0.07,0.16 -0.18,0.48 -0.18,0.67z"/>
   <path class="fil2" d="M52.72 78.84c0,3.08 2.3,2.77 2.82,-0.1 0.05,-0.25 0.04,-0.24 0.09,-0.42 0.15,-0.6 0.12,-0.27 0.01,-0.76l-0.34 0c-0.07,0.24 -0.28,0.74 -0.49,0.89 -0.12,0.08 -0.23,0.1 -0.37,0.13 -0.65,-0.43 -0.66,-0.56 -0.54,-1.48 0.09,-0.65 0.04,-1.37 0.14,-2 0.1,-0.62 0.24,-1.23 0.3,-1.85 0.06,-0.63 0.19,-1.46 0.1,-1.87 -0.59,0.05 -0.6,0.65 -0.87,1.45 -0.16,0.45 -0.11,0.37 -0.16,0.95 -0.04,0.44 -0.18,0.4 -0.28,0.93l-0.41 4.13z"/>
   <path class="fil1" d="M123.31 78.07c-0.1,1.23 -2.65,2.13 -2.7,2.68 -0.04,0.56 0.8,0.12 1.17,-0.01 1.53,-0.55 1.31,-0.38 2.06,-1.54 0.22,-0.34 0.25,-0.57 0.37,-0.92 0.29,-0.79 0.48,-1.38 0.48,-2.27 0,-0.43 -0.86,-2.18 -1.92,-0.46l-0.49 1.06c-0.19,0.53 -0.36,0.61 -0.04,1.07 0.34,0.49 0.49,0.44 1.07,0.39z"/>
   <path class="fil1" d="M87.12 77.3c0,0.24 0.29,0.54 0.45,0.66 0.34,0.26 0.43,0.14 0.83,0.11 -0.34,1.46 -3.28,2.3 -2.66,2.92 0.19,0.17 1.27,-0.33 1.55,-0.43 0.25,-0.09 0.56,-0.21 0.79,-0.33 0.27,-0.15 0.36,-0.31 0.53,-0.58 0.15,-0.23 0.28,-0.44 0.38,-0.65 0.44,-0.93 0.7,-2.03 0.7,-3.07 0,-0.45 -0.47,-1.12 -1.12,-1.12 -0.48,0 -1.45,1.89 -1.45,2.49z"/>
   <path class="fil1" d="M76.57 78.07c-0.25,1.06 -1.42,1.51 -2.07,2.05 -0.51,0.41 -0.6,0.39 -0.68,0.69 0.28,0.42 0.3,0.26 1.45,-0.18 0.69,-0.27 0.98,-0.23 1.41,-0.82 0.16,-0.22 0.29,-0.38 0.4,-0.62 0.12,-0.26 0.18,-0.53 0.31,-0.81 0.46,-1.08 0.46,-1.35 0.46,-2.54 0,-0.34 -0.86,-1.92 -1.79,-0.34 -0.32,0.54 -1,1.58 -0.58,2.19 0.36,0.53 0.51,0.43 1.09,0.38z"/>
   <path class="fil2" d="M28.71 102c-0.15,0.28 -0.55,0.85 -0.84,1.05 -0.13,0.1 -0.27,0.16 -0.42,0.27 -0.15,0.12 -0.17,0.17 -0.32,0.27 -0.18,0.12 -0.28,0.13 -0.45,0.25 -0.25,0.17 -0.56,0.37 -0.63,0.65 0.75,0.4 0.36,0.08 1.11,-0.09 0.34,-0.07 0.1,0.02 0.4,-0.12l0.9 -0.38c0.24,-0.13 0.42,-0.32 0.64,-0.65 0.07,-0.12 0.09,-0.17 0.15,-0.28 0.01,-0.02 0.02,-0.04 0.03,-0.05 0.01,-0.02 0.02,-0.04 0.03,-0.06l0.4 -0.97c0.06,-0.2 0.07,-0.27 0.11,-0.4 0.24,-0.79 0.49,-2.22 -0.5,-2.6 -0.22,-0.08 -0.55,-0.03 -0.76,0.13 -0.45,0.32 -0.66,1.06 -0.83,1.32 -0.62,1.01 -0.21,1.66 0.98,1.66z"/>
   <path class="fil2" d="M43.2 95.57c0.15,0.07 0.28,0.1 0.43,0.17 0.94,-0.5 0.05,-0.52 1.97,-0.52 0.51,0 -0.33,0.26 1.46,0.26 0.26,0 0.14,-0.11 0.47,-0.21 1.08,-0.33 0.79,-0.13 1.92,-1 0.3,-0.23 0.95,-0.88 0.96,-1.36 -0.45,-0.1 -0.45,-0.05 -1.02,0.27l-0.39 0.21c-0.65,0.29 -2.01,0.12 -2.8,0.12 -0.96,-0.01 -0.88,0.03 -1.82,0.67 -0.35,0.24 -0.4,0.3 -0.68,0.6 -0.01,0.02 -0.03,0.03 -0.04,0.05l-0.46 0.74z"/>
   <path class="fil1" d="M94.06 102.17c0,0.6 0.49,0.96 1.29,0.77 -0.05,0.6 -0.83,1.18 -1.27,1.48 -0.37,0.25 -1.37,0.89 -1.47,1.27 0.49,0.34 0.63,0.04 1.73,-0.32 1.06,-0.36 1.54,-1.14 1.88,-2.24 0.29,-0.96 0.33,-1.25 0.33,-2.24 0,-0.37 -0.45,-1.03 -0.77,-1.03 -0.51,0 -0.64,-0.02 -0.99,0.63l-0.48 0.98c-0.09,0.2 -0.25,0.45 -0.25,0.7z"/>
   <path class="fil1" d="M52.55 103.37c0.51,0 0.91,1.03 -0.17,1.03 -0.54,0 -0.26,-1.03 0.17,-1.03zm-1.29 1.55c0,1.47 1.83,1.24 2.58,-0.77 0.33,-0.9 0.43,-1.12 0.43,-2.06 0,-0.56 -0.75,-1.55 -1.38,-1.55 -0.25,0 -0.07,-0.08 -0.28,0.24l-0.51 1.2c-0.45,1.33 -0.1,0.6 -0.26,1.2 -0.06,0.23 -0.58,0.61 -0.58,1.74z"/>
   <path class="fil1" d="M119.88 105.86c0.39,0 1.03,-0.34 1.29,-0.51 1.19,-0.8 1.8,-1.85 1.8,-3.52 0,-0.65 -0.15,-0.9 -0.41,-1.31 -0.15,-0.25 -0.18,-0.26 -0.41,-0.45 -0.47,-0.37 -0.73,-0.82 -1.16,0.38l-0.43 0.95c-0.33,0.87 1.83,1.26 0.88,2.42 -0.68,0.83 -1.25,1.09 -1.64,1.45 -0.35,0.32 -0.17,0.59 0.08,0.59z"/>
   <path class="fil2" d="M16.87 104.57c0.55,0.13 0.36,0.09 1.03,0.09 0.33,0 0.3,-0.1 0.5,-0.18l0.13 -0.05c0.36,-0.09 0.55,0.11 1.31,-0.83 0.23,-0.29 0.12,-0.19 0.28,-0.58 0.01,-0.02 0.02,-0.04 0.02,-0.06 0.52,-1.23 0.32,-1.39 1.53,-1.99 0.65,-0.33 0.77,-0.6 1.1,-1.22l0.42 -1.09c-0.02,-0.26 -0.13,-0.33 -0.34,-0.28 -0.53,0.13 -0.41,0.69 -0.94,0.94 -0.02,0.01 -0.04,0.02 -0.06,0.02l-0.7 0.34c-1.06,0.61 -1.26,2.06 -1.8,2.74l-0.15 0.19c-0.26,0.28 -0.83,0.66 -1.15,0.83 -0.2,0.12 -0.29,0.15 -0.47,0.3 -0.23,0.2 -0.15,0.16 -0.43,0.34 -0.27,0.16 -0.27,0.09 -0.28,0.49z"/>
   <path class="fil2" d="M44.66 103.72c0,0.19 0.03,0.1 0.09,0.34 0.46,-0.01 0.46,-0.14 0.67,-0.44 0.46,-0.65 0.7,-1.82 0.7,-2.73 0,-0.87 -0.08,-0.75 0.08,-1.55 0.08,-0.39 0.03,-0.09 0.01,-0.44 -0.06,-1.31 0.58,-1.87 -0.26,-1.87 -0.32,0 -0.09,-0.08 -0.42,0.53 -0.12,0.21 -0.27,0.49 -0.33,0.69 -0.04,0.13 -0.04,0.22 -0.08,0.35 -0.08,0.26 -0.08,0.18 -0.14,0.37 -0.18,0.54 0.06,3.22 -0.14,3.9 -0.08,0.29 -0.18,0.49 -0.18,0.85z"/>
   <path class="fil1" d="M39.51 73.27c-0.38,-0.26 -0.43,-0.57 -0.94,-0.69 -0.29,0.43 -0.94,1.37 -0.94,1.89 0,0.23 0.05,0.14 0.16,0.27l0.87 0.67c0.53,-0.28 0.58,-0.51 0.85,-1.03 0.87,0.46 0.23,0.6 0.95,0.6 0.34,0 0.94,-1.14 0.94,-1.54 0,-0.36 -0.91,-1.78 -1.47,-0.7 -0.17,0.31 -0.13,0.33 -0.42,0.53z"/>
   <path class="fil1" d="M111.82 73.78l-0.26 0c-0.09,-0.35 -0.44,-0.65 -0.86,-0.69l-0.72 1.17c-0.25,0.49 -0.43,0.67 0.2,1.16 0.27,0.22 0.42,0.42 0.7,0.42 0.3,0 0.62,-0.66 0.68,-0.94 0.84,0.07 0.7,1.48 1.7,-0.19 0.69,-1.14 -0.45,-1.97 -0.74,-1.94 -0.34,0.03 -0.63,0.71 -0.7,1.01z"/>
   <path class="fil2" d="M69.53 80.73c0,0.59 1.21,0.14 1.76,-0.05 0.09,-0.03 0.28,-0.12 0.42,-0.18 0.44,-0.17 0.78,-0.51 1.03,-0.94 0.19,-0.33 0.2,-0.49 0.33,-0.87l0.1 -0.24c0.01,-0.02 0.02,-0.04 0.03,-0.06 0,-0.02 0.01,-0.05 0.02,-0.07 0.01,-0.02 0.01,-0.04 0.02,-0.06 0.07,-0.2 0.12,-0.27 0.21,-0.47 0.13,-0.28 0.06,-0.16 0.14,-0.47 0.15,-0.64 0.73,-1.99 0.15,-1.99 -0.33,0 -0.4,0.42 -0.52,0.68l-0.57 1.4c-0.01,0.02 -0.02,0.04 -0.03,0.06 -0.09,0.24 0.01,0.04 -0.1,0.24 -0.55,1 -0.7,1.21 -1.7,1.9 -0.39,0.28 -1.29,0.77 -1.29,1.12z"/>
   <path class="fil1" d="M126.4 93.68c-0.59,-0.16 -0.22,-0.52 -0.94,-0.69 -0.39,0.27 -0.75,0.96 -0.92,1.5 -0.18,0.55 0.47,1.01 0.92,1.25 0.43,-0.23 0.64,-0.49 0.77,-1.03 0.61,0.16 0.72,1.25 1.48,0.1 0.24,-0.36 0.73,-0.96 0.16,-1.57 -0.01,-0.01 -0.03,-0.03 -0.04,-0.04l-0.09 -0.09c-0.25,-0.27 -0.25,-0.37 -0.65,-0.46 -0.3,0.2 -0.6,0.68 -0.69,1.03z"/>
   <path class="fil1" d="M118.51 92.39c-0.71,-0.19 -0.87,-1.32 -1.58,0.14 -0.06,0.14 -0.39,0.91 -0.39,0.98 0,0.25 0.74,0.94 1.03,0.94 0.29,0 0.7,-0.71 0.85,-0.94 0.58,0.38 0.61,1.12 1.42,0.04 0.94,-1.27 -0.25,-2.01 -0.64,-2.1 -0.52,0.34 -0.42,0.44 -0.69,0.94z"/>
   <path class="fil1" d="M54.61 85.45c-0.46,-0.13 -0.41,-0.6 -0.94,-0.6 -0.25,0 -0.52,0.45 -0.62,0.67 -0.42,0.89 -0.62,1.02 -0.08,1.48 0.27,0.24 0.43,0.42 0.78,0.5 0.23,-0.21 0.61,-0.59 0.69,-0.94 0.56,0.05 0.17,0.19 0.94,0.6 0.32,-0.27 0.94,-1.02 0.94,-1.37 0,-0.7 -0.9,-1.91 -1.43,-0.92 -0.11,0.21 -0.23,0.38 -0.28,0.58z"/>
   <path class="fil2" d="M16.01 80.99c0.54,0.12 1.39,-0.18 1.93,-0.39 0.27,-0.12 0.61,-0.23 0.79,-0.41 0.49,-0.48 0.69,-1.09 0.88,-1.61l0.17 -0.43c0.09,-0.31 0.08,-0.27 0.17,-0.51l0.31 -0.9c0.05,-0.19 0.04,-0.31 0.08,-0.52 0.15,-0.69 0.21,-0.2 0.05,-0.89 -0.53,0.01 -0.47,0.14 -0.65,0.55l-0.54 1.35c-0.08,0.19 -0.1,0.25 -0.19,0.41l-0.46 0.82c-0.38,0.64 -1.42,1.29 -2.06,1.72 -0.36,0.24 -0.48,0.27 -0.48,0.81z"/>
   <path class="fil2" d="M55.55 80.73c0,0.61 1.24,0.12 1.82,-0.07 1.65,-0.55 1.95,-2.54 2.43,-4 0.53,-1.62 -0.15,-1.78 -0.55,-0.64 -0.22,0.64 -0.79,1.89 -1.16,2.45 -0.79,1.19 -2.54,1.69 -2.54,2.26z"/>
   <path class="fil1" d="M16.27 93.59l-0.09 -0.17c-0.65,-0.13 -0.62,0.06 -0.89,0.57l-0.41 0.78c-0.2,0.49 0.02,0.41 0.42,0.82 0.19,0.19 0.24,0.33 0.58,0.36 0.43,0.04 0.63,-0.58 0.99,-0.9 0.12,0.36 0.56,0.5 0.94,0.52 0.16,-0.24 0.26,-0.23 0.38,-0.51 0.16,-0.36 -0.02,-0.21 0.31,-0.44 -0.03,-1.13 0.11,-0.78 -0.52,-1.45l-0.6 0 -0.29 0.4c-0.36,0.46 -0.02,0.35 -0.31,0.45 -0.08,-0.14 -0.36,-0.35 -0.51,-0.43z"/>
   <path class="fil2" d="M88.57 105.77c0.71,0.17 1.55,-0.12 2.15,-0.42 0.65,-0.33 0.7,-0.45 1.11,-1.21 0.07,-0.13 0.11,-0.22 0.17,-0.35 0.11,-0.24 0.09,-0.18 0.17,-0.43l0.29 -0.91c0.07,-0.25 0.21,-0.5 0.28,-0.83 0.22,-1.01 0.35,-1.07 -0.05,-1.34 -0.27,0.08 -0.23,0.03 -0.42,0.44l-0.94 2.15c0,0.02 -0.01,0.04 -0.02,0.06 -0.23,0.56 -0.11,0.41 -0.87,1.11 -0.63,0.59 -1.85,0.96 -1.87,1.73z"/>
   <path class="fil2" d="M54.61 105.69c0.07,0.05 0.21,0.17 0.26,0.17 0.5,0 1.61,-0.35 1.97,-0.51 0.89,-0.41 1.12,-1.39 1.48,-2.21l0.59 -1.99c0.1,-0.64 0.23,-0.6 -0.27,-0.87 -0.64,0.62 -0.84,2.76 -2.11,3.73l-1.39 1.01c-0.27,0.17 -0.5,0.28 -0.53,0.67z"/>
   <path class="fil2" d="M12.84 104.57l0.68 0.09c0.57,0 -0.03,-0.15 0.86,-0.26 0.34,-0.05 0.17,-0.01 0.45,-0.15l0.18 -0.08c0.35,-0.14 0.56,-0.31 0.83,-0.62l1.05 -2.47c0.09,-0.31 0.59,-1.65 0.07,-1.71 -0.09,-0.01 -0.26,0.07 -0.33,0.15l-0.22 0.39c-0.33,0.56 -0.13,0.28 -0.35,0.86l-0.52 1.02c-0.01,0.02 -0.02,0.04 -0.03,0.05 -0.01,0.02 -0.02,0.04 -0.03,0.06 -0.59,1.06 -0.52,0.78 -1.23,1.34 -0.93,0.73 -1.4,0.63 -1.41,1.33z"/>
   <path class="fil1" d="M24.25 103.8c0.25,-1.3 0.66,-0.78 0.68,-3.17l0.09 -2.75c0.01,-0.38 0.15,-0.56 -0.09,-0.85 -0.26,0.11 -0.45,0.36 -0.55,0.59l-0.26 0.67c-0.01,0.03 -0.05,0.1 -0.06,0.13 -0.06,0.17 -0.02,0.06 -0.06,0.23 -0.05,0.25 -0.01,0.17 -0.09,0.4l-0.1 0.45c-0.05,0.82 0.1,2.64 -0.07,3.42 -0.09,0.41 -0.09,0.55 -0.09,1.05 0.47,-0.02 0.31,0.01 0.6,-0.17z"/>
   <path class="fil1" d="M83.51 67.86c0.22,0.25 0.94,0.86 1.29,0.86 0.27,0 0.94,-1.1 0.94,-1.63 0,-0.14 -0.55,-1.11 -1.2,-1.11 -0.29,0 -0.49,0.63 -0.6,0.85 -0.17,0.36 -0.32,0.6 -0.43,1.03z"/>
   <path class="fil1" d="M119.62 69.75c0,0.49 0.11,0.43 0.51,0.69 0.46,0.29 0.64,0.75 1.02,0.15 0.82,-1.31 0.79,-1.26 0.19,-2.04 -0.79,-1.03 -1,-0.32 -1.29,0.26 -0.08,0.16 -0.14,0.28 -0.24,0.44 -0.11,0.17 -0.19,0.23 -0.19,0.5z"/>
   <path class="fil1" d="M29.65 85.79c0.43,0 0.81,-0.74 0.91,-1.06 0.05,-0.15 0.12,-0.44 0.12,-0.57 0,-0.47 -0.72,-1.1 -1.12,-1.2 -0.52,0.46 -0.63,0.87 -0.92,1.57 -0.24,0.59 0.33,0.77 0.7,1.06 0.02,0.01 0.07,0.06 0.09,0.08 0.2,0.14 -0.14,0.12 0.22,0.12z"/>
   <path class="fil1" d="M81.63 73.78c0.38,-0.25 0.85,-1 0.89,-1.49 0.01,-0.2 -0.02,-0.39 -0.16,-0.61 -0.39,-0.56 -0.92,-1.13 -1.35,-0.32 -0.19,0.37 -0.4,0.71 -0.51,1.14 -0.17,0.72 0.95,1.24 1.13,1.28z"/>
   <path class="fil2" d="M22.53 94.97c0.64,0 0.76,-0.15 1.19,-1.13 0.12,-0.3 0.1,0.22 0.1,-0.42 0,-0.18 -0.57,-0.83 -0.76,-0.96 -0.85,-0.56 -1.45,1.55 -1.43,1.63 0.07,0.48 0.77,0.37 0.9,0.88z"/>
   <path class="fil2" d="M35.4 109.21c0.49,0 1.03,-1.38 1.03,-1.46 0,-0.19 -0.1,-0.26 -0.17,-0.35 -0.01,-0.02 -0.03,-0.03 -0.04,-0.05 -0.26,-0.32 -0.55,-0.61 -0.91,-0.8 -0.49,0.26 -0.92,0.89 -1.05,1.45 -0.14,0.6 0.24,0.64 0.69,0.96 0.41,0.29 0.19,0.25 0.45,0.25z"/>
   <path class="fil1" d="M57.95 96.25c0,0.35 1.11,0.96 1.21,0.95 0.29,-0.16 0.27,-0.17 0.45,-0.49 0.73,-1.25 0.55,-1.22 -0.01,-1.84 -0.39,-0.43 -0.72,-0.65 -1.05,0.01 -0.13,0.26 -0.6,1.08 -0.6,1.37z"/>
   <path class="fil1" d="M102.13 92.74c0,0.47 0.72,0.91 1.11,1.11 0.18,-0.09 0.17,-0.05 0.32,-0.2l0.2 -0.31c0.48,-0.69 0.43,-0.56 0.43,-1.12 0,-0.36 -0.94,-1.73 -1.51,-0.73l-0.55 1.25z"/>
   <path class="fil1" d="M99.13 97.8c0,0.32 0.93,0.94 1.2,0.94 0.32,0 0.9,-1.15 0.91,-1.47 0.03,-0.56 -0.66,-1.05 -1.09,-1.27 -0.34,0.23 -1.02,1.47 -1.02,1.8z"/>
   <path class="fil1" d="M15.84 92.38c-0.1,0.16 -0.21,0.34 -0.26,0.53l0.26 0.17 0.15 0.12c0.42,0.33 1.01,0.99 1.56,-0.33 0.07,-0.18 0.01,0.1 0.07,-0.21 0.1,-0.46 -0.02,-0.79 -0.28,-1.08 -0.27,-0.3 -0.52,-0.47 -0.85,-0.28 -0.48,0.29 -0.28,0.68 -0.65,1.08z"/>
   <path class="fil3" d="M24.25 103.8c-0.29,0.18 -0.13,0.15 -0.6,0.17 0,-0.5 0,-0.64 0.09,-1.05 0.17,-0.78 0.02,-2.6 0.07,-3.42l0.1 -0.45c0.08,-0.23 0.04,-0.15 0.09,-0.4 0.04,-0.17 0,-0.06 0.06,-0.23 0.01,-0.03 0.05,-0.1 0.06,-0.13l0.26 -0.67c0.1,-0.23 0.29,-0.48 0.55,-0.59 0.24,0.29 0.1,0.47 0.09,0.85l-0.09 2.75c-0.02,2.39 -0.43,1.87 -0.68,3.17zm0 0c0.12,-0.53 0.39,-0.9 0.54,-1.35 0.25,-0.77 0.44,-4.82 0.31,-5.42 -0.41,0 -0.35,0.05 -0.68,0.08 -0.01,0.46 -0.28,0.85 -0.43,1.29 -0.08,0.22 -0.05,0.22 -0.12,0.48 -0.38,1.6 0.02,2.12 -0.23,4.23 -0.03,0.22 -0.27,0.67 -0.13,0.9 0.12,0.22 0.47,0.1 0.74,-0.21z"/>
   <path class="fil3" d="M16.61 93.77l0.26 0 0 0.17c-0.25,-0.06 -0.12,0.01 -0.26,-0.17zm-0.77 -1.39c0.37,-0.4 0.17,-0.79 0.65,-1.08 0.33,-0.19 0.58,-0.02 0.85,0.28 0.26,0.29 0.38,0.62 0.28,1.08 -0.06,0.31 0,0.03 -0.07,0.21 -0.55,1.32 -1.14,0.66 -1.56,0.33l-0.15 -0.12c0.11,0.15 0.2,0.12 0.34,0.34 0.28,0.08 0.29,0.13 0.43,0.35 -0.28,-0.08 -0.12,-0.06 -0.34,-0.18 0.15,0.08 0.43,0.29 0.51,0.43 0.29,-0.1 -0.05,0.01 0.31,-0.45l0.29 -0.4 0.6 0c0.63,0.67 0.49,0.32 0.52,1.45 -0.33,0.23 -0.15,0.08 -0.31,0.44 -0.12,0.28 -0.22,0.27 -0.38,0.51 -0.38,-0.02 -0.82,-0.16 -0.94,-0.52 0.23,0.44 0.58,0.51 0.77,0.6 0.46,-0.3 0.88,-0.86 0.94,-1.38 0.06,-0.5 -0.55,-1.37 -1.11,-1.1 0.13,-0.56 0.57,-0.83 0,-1.46l-0.26 -0.26c-0.14,-0.14 -0.1,-0.01 -0.17,-0.26 -0.52,0 -0.66,0.01 -0.85,0.35l-0.25 0.61c-0.1,0.24 -0.01,-0.09 -0.1,0.23z"/>
   <polygon class="fil4" points="50.58,91.71 50.75,91.71 50.75,91.36 50.58,91.36 "/>
  </g>
 </g>
</svg>
