<?xml version="1.0" encoding="UTF-8"?>
<!DOCTYPE svg PUBLIC "-//W3C//DTD SVG 1.1//EN" "http://www.w3.org/Graphics/SVG/1.1/DTD/svg11.dtd">
<!-- Creator: CorelDRAW 2020 (64-Bit) -->
<svg xmlns="http://www.w3.org/2000/svg" xml:space="preserve" width="140px" height="140px" version="1.1" style="shape-rendering:geometricPrecision; text-rendering:geometricPrecision; image-rendering:optimizeQuality; fill-rule:evenodd; clip-rule:evenodd"
viewBox="0 0 140 140"
 xmlns:xlink="http://www.w3.org/1999/xlink"
 xmlns:xodm="http://www.corel.com/coreldraw/odm/2003">
 <defs>
  <style type="text/css">
   <![CDATA[
    .fil9 {fill:#4A4A4A}
    .fil7 {fill:#505050}
    .fil4 {fill:#515151}
    .fil8 {fill:#585858}
    .fil2 {fill:#5B5B5B}
    .fil5 {fill:#6F6F6F}
    .fil6 {fill:#757676}
    .fil1 {fill:#7C7C7D}
    .fil3 {fill:#7E7E7F}
    .fil0 {fill:#838383}
    .fil11 {fill:#969697}
    .fil13 {fill:#9B9B9B}
    .fil16 {fill:#A1A1A1}
    .fil15 {fill:#A6A6A6}
    .fil10 {fill:#ABABAB}
    .fil12 {fill:#B2B2B2}
    .fil14 {fill:#B5B5B5}
   ]]>
  </style>
 </defs>
 <g id="Layer_x0020_1">
  <metadata id="CorelCorpID_0Corel-Layer"/>
  <g id="_2738305311376">
   <path class="fil0" d="M49.78 73.95c-0.75,0.28 -0.37,0.35 -0.78,0.66 -0.18,0.13 -0.96,0.33 -0.95,-0.35 0,-0.08 0.01,-0.21 0.01,-0.31 0.09,-3.05 0.02,-8.16 -0.03,-11.08 -0.01,-0.48 -0.02,-1 0.01,-1.46l-0.14 -4.39c-0.02,-0.92 -0.11,-2.03 0.05,-2.92 0.17,-0.93 -0.1,-2.14 0.04,-3.04 0.12,-0.49 -0.07,-7.31 0.21,-6.78l1.34 -0.83c0.49,-0.24 0.93,-0.45 1.3,-0.74 0.31,-0.26 0.72,-0.33 1.06,-0.5 0.21,-0.1 0.05,-0.03 0.29,-0.13 0.14,-0.06 0.27,-0.11 0.38,-0.14 0.57,-0.18 0.33,0.02 0.58,-0.45 1.7,0.06 1.22,-0.17 2.2,-0.31 0.42,-0.06 0.25,-0.16 0.79,-0.18 0.41,-0.02 0.67,-0.13 0.7,-0.14 0.36,-0.1 0.59,0.02 0.88,-0.06 0.39,-0.11 0,-0.2 0.74,-0.21 0.42,0 0.5,-0.07 0.88,-0.07 -0.19,0.36 -0.6,0.46 -1.15,0.86 -0.3,0.22 -0.48,0.31 -0.7,0.59 0,0.01 -0.08,0.13 -0.1,0.16 -0.29,0.4 -0.5,0.52 -0.68,0.79 -0.13,0.2 -0.18,0.4 -0.34,0.69 -0.3,0.6 -0.35,0.85 -0.51,1.52 -0.04,0.37 -0.14,0.33 -0.13,0.7 0,0.17 0.07,0.46 0.07,0.8 0.01,3.99 -0.16,7.58 -0.18,11.51 0,0.87 0.1,9.29 -0.09,9.71 -0.14,0.29 -0.19,0.15 -0.5,0.51l-0.92 0.97c-0.24,0.24 -0.08,-0.38 -0.2,0.32 0.42,-0.17 0.37,-0.26 0.68,-0.52 0.16,-0.13 0.07,-0.03 0.16,-0.1l0.93 -1.04c0.21,-0.31 0.21,-0.51 0.2,-1l0 -11.51c0,-0.84 0.09,-1.37 0.09,-2.23 0,-1.88 -0.1,-5.11 0,-6.88 0.03,-0.63 0.09,-1.42 0.28,-2.03 0.09,-0.26 0.05,-0.09 0.19,-0.33l0.63 -1.17c0.35,-0.49 1.2,-1.4 1.77,-1.66l0.8 -0.41c0.31,-0.17 0.49,-0.17 0.87,-0.24l0.96 -0.25c0.75,-0.1 18.78,-0.01 20.7,0 0.36,0 0.74,0.02 1.09,-0.02 0.72,-0.09 0.42,-0.07 0.79,-0.42 0.13,-0.11 0.18,-0.1 0.3,-0.21 0.11,-0.1 0.05,-0.05 0.12,-0.14 0.01,-0.02 0.02,-0.04 0.03,-0.06 0.29,-0.38 0.9,-0.87 1.26,-1.31l2.03 -2.01c0.2,-0.18 0.39,-0.54 0.67,-0.79l0.95 -0.94c0.25,-0.2 -0.13,0.14 0.09,-0.08l0.27 -0.33c0.52,-0.53 0.73,-0.76 0.73,-1.6l-0.28 -0.24 -29.79 -0.02c-0.66,0.01 -0.51,0.16 -1.2,0.18 -0.65,0.02 -1.95,0.49 -2.61,0.73 -0.74,0.28 -1.52,0.63 -2.19,1.08l-0.14 0.11c-1.52,1.01 -2.37,1.82 -3.54,3.17 -0.44,0.51 -0.75,1.07 -1.1,1.65l-0.87 1.79c-0.11,0.29 -0.1,0.23 -0.2,0.49 -0.08,0.21 -0.12,0.29 -0.18,0.5 -0.21,0.66 -0.5,1.57 -0.51,2.24 -0.01,0.97 -0.11,0.67 -0.17,1.81 -0.02,0.37 -0.06,0.28 -0.08,0.61l0.08 2.65c0,3.18 0.13,21.72 -0.05,23.06l-0.04 1.16c0,0.72 0.33,2.29 1.28,1.62l0.39 -0.29c0.01,-0.02 0.03,-0.04 0.04,-0.05l0.15 -0.19c0.01,-0.02 0.03,-0.03 0.04,-0.04 0.24,-0.25 0.17,0.01 0.25,-0.44z"/>
   <path class="fil0" d="M81.31 67.59c-0.73,0 -0.36,0.19 -1.12,0.43 -1.44,0.46 -2.51,0.43 -4.12,0.43 -2.79,0 -19.24,-0.07 -19.64,0.03 -0.37,0.08 -1.48,1.34 -1.72,1.64 -0.17,0.22 -0.03,0.04 -0.21,0.21l-0.4 0.38c-0.41,0.29 -0.1,0.06 -0.34,0.35l-0.55 0.56c-0.01,0.01 -0.03,0.03 -0.05,0.04l-0.14 0.2c-0.22,0.33 -0.19,0.17 -0.41,0.37l-1.33 1.33c-0.22,0.26 0.15,-0.19 -0.06,0.1 -0.08,0.1 -0.01,0.04 -0.12,0.15l-1.45 1.55c-0.15,0.26 -0.25,0.81 -0.05,1.09 0.2,0.27 0.95,0.16 1.39,0.16l28.76 -0.01c0.34,-0.05 0.22,-0.12 0.61,-0.16 0.96,-0.09 0.23,0.07 1.26,-0.2 0.23,-0.07 0.41,-0.1 0.62,-0.16 0.45,-0.12 0.72,-0.23 1.15,-0.39l2.45 -1.25 1.32 -1c1.02,-0.75 1.84,-1.73 2.58,-2.74l0.59 -0.96c0.1,-0.19 0.14,-0.31 0.27,-0.5 0.36,-0.54 0.67,-1.44 0.96,-2.13l0.06 -0.2c0.04,-0.13 0.05,-0.21 0.08,-0.35 0.13,-0.6 0.01,-0.31 0.24,-0.88 0.08,-0.19 0.06,-0.14 0.1,-0.33 0.16,-0.68 0.09,-1.44 0.09,-2.19 -0.3,0.34 -0.09,0.82 -0.34,1.24 -0.17,0.31 0.02,0.06 -0.3,0.24 -0.72,0.41 -2.23,1.36 -2.86,1.59l-2.72 0.98c-0.03,0 -0.15,0.06 -0.19,0.07 -0.1,0.03 -0.06,0.03 -0.22,0.05l-0.15 0.02c-0.56,0.08 -0.05,0.09 -0.78,0.16 -0.64,0.06 -0.17,0.13 -0.69,0.2 -0.59,0.08 -0.21,-0.09 -0.76,0.15l-0.43 0.06c-1.18,-0.05 -0.58,0.14 -1.21,0.22 -0.19,0.02 -0.63,-0.01 -0.81,-0.06 0.24,-0.08 0.2,-0.1 0.45,-0.33l0.12 -0.1c0.01,-0.04 0.05,-0.04 0.07,-0.06z"/>
   <path class="fil1" d="M83.11 65.79c0.59,-0.31 1.05,-2 1.12,-2.58 0.16,-1.22 0.16,-7.83 0.15,-9.79 -0.01,-0.31 -0.05,-0.65 0.1,-0.91 0.23,0.28 0.15,0.96 0.16,1.53 0.46,-0.24 -0.48,-0.24 1.65,-0.24 2.58,0 0.91,0.12 1.73,0.26 0.17,0.03 2.71,0.04 2.9,-0.06 0.06,-0.03 0.11,-0.15 0.34,-0.19 0.09,-0.02 0.45,-0.01 0.57,-0.01 0.08,1.04 0.15,0.51 0.16,2.02 0,0.37 0,0.75 0,1.12 0,0.7 -0.09,0.86 0.14,0.92l0 -24.03c-0.38,-0.01 -0.44,-0.13 -0.69,-0.25 -0.82,0.55 -0.52,0.14 -1,0.79 -0.2,0.27 -0.11,0.16 -0.34,0.36l-0.53 0.49c-0.02,0.01 -0.04,0.03 -0.05,0.04l-0.26 0.35c-0.01,0.01 -0.03,0.02 -0.04,0.04l-0.09 0.08c-0.01,0.01 -0.03,0.03 -0.04,0.04 -0.02,0.02 -0.03,0.04 -0.04,0.05 -0.06,0.06 -0.08,0.11 -0.16,0.18l-0.43 0.44c-0.22,0.28 0.19,-0.15 -0.08,0.08l-0.73 0.73c-0.07,0.08 -0.03,0.04 -0.13,0.14 -0.01,0.01 -0.03,0.02 -0.05,0.03l-1.86 1.92c-0.02,0.01 -0.04,0.03 -0.05,0.04 -0.01,0.01 -0.03,0.03 -0.04,0.04 -0.01,0.01 -0.03,0.03 -0.04,0.05 -1.73,1.7 -1.42,1.5 -1.42,4.33l0 17.78c0,1.95 0.04,0.84 -0.18,2.31 -0.08,0.54 -0.04,0.01 -0.27,0.68 -0.06,0.2 0,0.07 -0.08,0.26 -0.2,0.46 -0.32,0.34 -0.42,0.96z"/>
   <path class="fil2" d="M70.48 54.45c-0.15,0.53 -0.48,0.55 -0.66,0.9 0.69,0.01 0.13,-0.15 0.7,-0.33 0.03,0.45 -0.08,0.22 -0.05,0.54 0.06,0.47 0.11,0.16 0.23,0.43 -0.12,0.06 -0.38,0 -0.67,0.07 0.1,0.62 0.24,0.45 0.24,0.72 0.01,0.67 -0.32,-0.35 -0.33,0.71l0.84 0.02 0 0.37c-0.57,0.22 -0.42,-0.47 -0.42,1.77l-0.17 0 0 1.79c0.42,0.03 0.24,0.03 0.42,0.35 0.16,0.29 0.16,0.08 0.17,0.51 -0.76,0.02 -0.66,-0.01 -0.67,0.74l0.34 0.13c-0.33,0.17 -0.22,0.05 -0.3,0.44 1.09,-0.13 4.04,-1.64 4.75,-2.26l0.51 -0.35c0.01,-0.01 0.03,-0.03 0.04,-0.04l1.07 -0.9c0.78,-0.74 0.49,-0.73 1.26,-1.32 0.3,0.17 0.46,-0.31 0.59,-0.53 0.31,-0.51 0.51,-0.68 0.74,-1.15 0.12,-0.23 0.12,-0.22 0.25,-0.44l1.42 -3.47c0.01,-0.03 0.04,-0.1 0.05,-0.13 0.06,-0.23 0.02,-0.3 0.07,-0.52 0.06,-0.3 0.14,-0.24 0.21,-0.49 0.06,-0.23 0,-0.26 0.09,-0.51 0.34,-1.01 0.08,-0.1 0.2,-0.99 0.05,-0.31 0.11,-0.23 0.15,-0.54 0.09,-0.59 -0.11,-0.16 0.17,-1.12 0.12,-0.42 0.1,-0.67 0.1,-1.19 -0.01,-0.77 0.17,-0.86 0.17,-2.4l0 -2.41c-0.39,0.04 -0.77,0.47 -1.17,0.89l-0.89 0.91c-0.12,0.14 -0.09,0.1 -0.21,0.22l-1.26 1.23c-0.12,0.12 -0.09,0.08 -0.21,0.22 -0.53,0.64 -0.67,0.68 -1.05,1.1l-6.66 6.75c-0.12,0.19 -0.11,0.04 -0.06,0.28z"/>
   <path class="fil2" d="M83.11 65.79l-0.22 0.12c-0.25,0.25 0.05,0.1 -0.66,0.8 -0.6,0.59 -0.98,0.51 -0.92,0.88 -0.02,0.02 -0.06,0.02 -0.07,0.06l-0.12 0.1c-0.25,0.23 -0.21,0.25 -0.45,0.33 0.18,0.05 0.62,0.08 0.81,0.06 0.63,-0.08 0.03,-0.27 1.21,-0.22l0.43 -0.06c0.55,-0.24 0.17,-0.07 0.76,-0.15 0.52,-0.07 0.05,-0.14 0.69,-0.2 0.73,-0.07 0.22,-0.08 0.78,-0.16l0.15 -0.02c0.16,-0.02 0.12,-0.02 0.22,-0.05 0.04,-0.01 0.16,-0.07 0.19,-0.07l2.72 -0.98c0.63,-0.23 2.14,-1.18 2.86,-1.59 0.32,-0.18 0.13,0.07 0.3,-0.24 0.25,-0.42 0.04,-0.9 0.34,-1.24l0 -5.3c-0.23,-0.06 -0.14,-0.22 -0.14,-0.92 0,-0.37 0,-0.75 0,-1.12 -0.01,-1.51 -0.08,-0.98 -0.16,-2.02 -0.12,0 -0.48,-0.01 -0.57,0.01 -0.23,0.04 -0.28,0.16 -0.34,0.19 -0.19,0.1 -2.73,0.09 -2.9,0.06 -0.82,-0.14 0.85,-0.26 -1.73,-0.26 -2.13,0 -1.19,0 -1.65,0.24 -0.01,-0.57 0.07,-1.25 -0.16,-1.53 -0.15,0.26 -0.11,0.6 -0.1,0.91 0.01,1.96 0.01,8.57 -0.15,9.79 -0.07,0.58 -0.53,2.27 -1.12,2.58z"/>
   <path class="fil2" d="M67.82 45.94c-0.38,-0.09 -0.26,0.04 -0.71,0.33l-3.15 2.77 -2.12 3.81c0,0.02 -0.02,0.04 -0.02,0.06l-0.71 2.21c-0.2,0.66 0.13,0.15 -0.24,0.96l-0.26 1.38c-0.12,1.28 -0.35,3.09 -0.35,4.37l0 1.21c0.06,0.29 0.2,0.41 0.43,0.18l8.1 -8.15c0.58,-0.57 0.47,-0.32 0.41,-0.62 0.08,-0.57 -0.04,-0.13 0.18,-0.42l1.17 -1.15c0.22,-0.21 0.33,-0.23 0.43,-0.64 -0.41,0.11 -0.24,0.03 -0.53,0.26 0,-0.93 0.01,-0.42 0.13,-0.98l0.03 -0.64c0.65,0 0.26,0 0.42,-0.16 -0.54,-0.14 -0.07,-0.47 -0.31,-1.21 -0.21,-0.62 -0.1,-0.6 -0.11,-1.42 0,-0.11 -0.01,-0.42 0,-0.5l0.17 -0.4 -0.75 -0.04c0.04,-0.55 0.72,0.17 0.9,-0.71 0.03,-0.19 0.02,-0.33 0.01,-0.52l-0.17 0.34c-0.02,-0.45 0.03,-0.24 -0.25,-0.4 0.02,-0.27 0.18,-0.26 0.2,-0.33 0,-0.03 0.04,-0.03 0.06,-0.05 -0.15,-0.01 -0.38,0.01 -0.48,-0.05 -0.14,-0.09 -0.1,-0.18 -0.18,-0.34 -1.14,0.42 -0.4,0.05 -1.65,0.67 -0.12,0.06 -0.07,0.07 -0.32,0.13 -0.26,0.07 -0.06,0.04 -0.33,0.05z"/>
   <path class="fil2" d="M47.99 51.06c0.19,0.44 0.13,2.73 0.02,3.35l0.36 0.02c-0.01,-1.47 0,-0.68 0.14,-1.37l0.03 -0.16c0.02,0.02 0.05,0 0.06,0.04 0.15,0.44 -0.03,-0.49 0.31,0.38l0.1 0.23c0.02,-0.02 0.03,-0.09 0.03,-0.07 0.01,0.01 0.03,-0.06 0.04,-0.08 0.34,-0.89 0.31,0.13 0.32,-0.8 0.39,0 1.83,-0.12 2.03,0.1l0.12 0.18c0.01,0.02 0.02,0.05 0.04,0.08 0.99,0 1.72,0.08 2.66,0.08 0.22,-0.05 0.12,-0.17 0.25,-0.34 0.1,-0.11 -0.24,-0.08 0.31,-0.1 -0.01,0.75 -0.17,0.69 0.52,0.69l0.01 -2.38c-0.14,0.19 -0.03,2.45 -0.03,3.02 0,0.17 -0.01,0.36 -0.01,0.52 0,0.03 0.02,0.24 0.02,0.26 0.07,0.33 -0.02,0.11 0.13,0.33 0.48,-0.55 -0.09,-3.9 0.24,-4.11 -0.08,-1.19 -0.13,-4.9 0.17,-5.8 0.16,-0.67 0.21,-0.92 0.51,-1.52 0.16,-0.29 0.21,-0.49 0.34,-0.69 0.18,-0.27 0.39,-0.39 0.68,-0.79 0.02,-0.03 0.1,-0.15 0.1,-0.16 0.22,-0.28 0.4,-0.37 0.7,-0.59 0.55,-0.4 0.96,-0.5 1.15,-0.86 -0.38,0 -0.46,0.07 -0.88,0.07 -0.74,0.01 -0.35,0.1 -0.74,0.21 -0.29,0.08 -0.52,-0.04 -0.88,0.06 -0.03,0.01 -0.29,0.12 -0.7,0.14 -0.54,0.02 -0.37,0.12 -0.79,0.18 -0.98,0.14 -0.5,0.37 -2.2,0.31 -0.25,0.47 -0.01,0.27 -0.58,0.45 -0.11,0.03 -0.24,0.08 -0.38,0.14 -0.24,0.1 -0.08,0.03 -0.29,0.13 -0.34,0.17 -0.75,0.24 -1.06,0.5 -0.37,0.29 -0.81,0.5 -1.3,0.74l-1.34 0.83c-0.28,-0.53 -0.09,6.29 -0.21,6.78z"/>
   <path class="fil3" d="M55.69 50.93c0.17,1.12 0.02,3.92 0.02,5.24 0,0.36 0.06,4.77 -0.04,5.07 -0.07,0.23 -0.01,0.1 -0.13,0.25 -0.23,-0.12 -0.69,-0.83 -0.87,-0.86l-3.34 0c-0.2,-0.22 -0.17,0.27 -0.17,-0.26 -0.37,0 -0.75,0.01 -1.12,0 -0.99,-0.01 -0.61,0.01 -0.81,0.16l-0.13 0.1c-0.4,-0.46 -0.14,-0.31 -0.09,-0.34l0 1.72c-0.63,-0.08 -0.32,0.18 -0.43,-0.26 -0.01,0.54 0.08,0.02 -0.26,0.26 0,-0.18 0,-0.24 0.03,-0.41 0.07,-0.45 -0.03,-0.08 0.06,-0.11 -0.02,0.02 -0.09,0.04 -0.1,0.05 -0.48,0.02 -0.04,0.01 -0.24,-0.05 -0.17,-0.52 -0.19,-6.34 -0.06,-7.08 0.11,-0.62 0.17,-2.91 -0.02,-3.35 -0.14,0.9 0.13,2.11 -0.04,3.04 -0.16,0.89 -0.07,2 -0.05,2.92l0.14 4.39c-0.03,0.46 -0.02,0.98 -0.01,1.46 0.05,2.92 0.12,8.03 0.03,11.08 0,0.1 -0.01,0.23 -0.01,0.31 -0.01,0.68 0.77,0.48 0.95,0.35 0.41,-0.31 0.03,-0.38 0.78,-0.66 0.3,-0.01 0.42,-0.24 0.81,-0.66 0.11,-0.12 0.14,-0.16 0.24,-0.27l2.3 -2.34c0.01,-0.02 0.08,-0.12 0.11,-0.15l0.07 -0.1c0.25,-0.27 0.34,-0.44 0.68,-0.52l-0.08 -0.26c0.12,-0.7 -0.04,-0.08 0.2,-0.32l0.92 -0.97c0.31,-0.36 0.36,-0.22 0.5,-0.51 0.19,-0.42 0.09,-8.84 0.09,-9.71 0.02,-3.93 0.19,-7.52 0.18,-11.51 0,-0.34 -0.07,-0.63 -0.07,-0.8 -0.01,-0.37 0.09,-0.33 0.13,-0.7 -0.3,0.9 -0.25,4.61 -0.17,5.8z"/>
   <path class="fil4" d="M83.39 87.41c0.05,0.48 0.09,1.69 -0.06,2.12 -0.46,0.07 -1.12,0.05 -1.6,0.04 -0.32,0 -0.43,0.03 -0.5,-0.25 -0.17,-0.68 0.08,-1.49 0.63,-1.83 0.34,-0.21 1.09,-0.17 1.53,-0.08zm-19.78 0.28c0.37,0.3 0.96,1.18 0.95,1.37 -0.28,0.66 -0.82,0.64 -1.64,0.58 -0.66,-0.04 -1.65,-0.42 -1.85,-0.44 -0.09,0.38 -0.25,0.78 -0.34,1.15 0.09,0.06 0.04,0.03 0.19,0.11 0.05,0.02 0.2,0.08 0.24,0.09 1.83,0.63 2.32,0.32 3.74,0.06 0.31,0.06 0.18,-0.03 0.52,-0.26 0.19,0.37 0.04,0.24 0.71,0.57 0.5,0.25 5.66,0.12 6.59,0.12 1.45,0.01 0.74,-0.11 1.7,-0.37 0.12,-0.03 0.09,-0.07 0.34,0.03l0.12 0.06c0.89,0.42 1.11,0.28 2.39,0.28 0.65,0 2.08,0.09 2.63,-0.05 0.46,-0.11 -0.02,-0.15 0.4,-0.06 0.26,0.06 0.12,0.1 0.57,0.11l3.44 -0.01c0.31,-0.06 0.18,-0.08 0.43,-0.25 0.27,0.37 0.67,0.26 1.29,0.26l3.27 0c0.7,0 0.72,0.08 1.19,-0.18 0.95,-0.52 1.24,-1.08 1.29,-2.15 0.01,-0.03 -0.09,-1.43 -0.1,-1.51 -0.24,-1.17 -0.12,-1.01 -0.5,-1.14l-0.99 0.29c-0.19,0.07 -0.23,0.06 -0.38,0.14 0.01,0.58 0.18,0.37 0.25,0.78 0.08,0.47 -0.1,0 0.14,0.89 0.44,1.64 -1.35,1.29 -2.89,1.17 -0.63,-0.06 -1.48,-0.01 -2.14,-0.01 -0.55,-1.04 -0.1,-1.4 -0.25,-2.92 -0.1,-0.9 -1.09,-0.59 -2.41,-0.6 -0.5,-0.01 -0.86,0.01 -1.3,0.25 -0.69,0.38 -0.78,0.61 -1.2,1.21l-0.39 1.24c-0.06,0.25 -0.03,0.55 -0.03,0.82l-4.04 0c-0.52,-0.99 -0.07,-1.6 -0.26,-2.4 -0.59,-0.14 -1.13,-0.16 -1.63,0.08 0,0.79 0.09,1.78 -0.17,2.32l-6.27 0c-0.42,0.01 -0.55,0.07 -0.8,-0.14 -0.16,-0.13 -0.25,-0.32 -0.37,-0.49l-0.6 -0.87c-0.01,-0.01 -0.02,-0.03 -0.03,-0.05l-1.89 -2.92c-0.35,0 -0.35,-0.03 -0.64,0.14 -0.02,0.02 -0.64,0.36 -0.82,0.64 0.06,0.24 0.54,0.84 0.72,1.08l0.69 0.92c0.21,0.16 -0.13,0.04 0.13,0.06z"/>
   <path class="fil5" d="M48.01 54.41c-0.13,0.74 -0.11,6.56 0.06,7.08 0.2,0.06 -0.24,0.07 0.24,0.05 0.01,-0.01 0.08,-0.03 0.1,-0.05 -0.09,0.03 0.01,-0.34 -0.06,0.11 -0.03,0.17 -0.03,0.23 -0.03,0.41 0.34,-0.24 0.25,0.28 0.26,-0.26 0.11,0.44 -0.2,0.18 0.43,0.26l0 -1.72c-0.05,0.03 -0.31,-0.12 0.09,0.34l0.13 -0.1c0.2,-0.15 -0.18,-0.17 0.81,-0.16 0.37,0.01 0.75,0 1.12,0 0,0.53 -0.03,0.04 0.17,0.26l3.34 0c0.18,0.03 0.64,0.74 0.87,0.86 0.12,-0.15 0.06,-0.02 0.13,-0.25 0.1,-0.3 0.04,-4.71 0.04,-5.07 0,-1.32 0.15,-4.12 -0.02,-5.24 -0.33,0.21 0.24,3.56 -0.24,4.11 -0.15,-0.22 -0.06,0 -0.13,-0.33 0,-0.02 -0.02,-0.23 -0.02,-0.26 0,-0.16 0.01,-0.35 0.01,-0.52 0,-0.57 -0.11,-2.83 0.03,-3.02l-0.01 2.38c-0.69,0 -0.53,0.06 -0.52,-0.69 -0.55,0.02 -0.21,-0.01 -0.31,0.1 -0.13,0.17 -0.03,0.29 -0.25,0.34 -0.94,0 -1.67,-0.08 -2.66,-0.08 -0.02,-0.03 -0.03,-0.06 -0.04,-0.08l-0.12 -0.18c-0.2,-0.22 -1.64,-0.1 -2.03,-0.1 -0.01,0.93 0.02,-0.09 -0.32,0.8 -0.01,0.02 -0.03,0.09 -0.04,0.08 0,-0.02 -0.01,0.05 -0.03,0.07l-0.1 -0.23c-0.34,-0.87 -0.16,0.06 -0.31,-0.38 -0.01,-0.04 -0.04,-0.02 -0.06,-0.04l-0.03 0.16c-0.14,0.69 -0.15,-0.1 -0.14,1.37l-0.36 -0.02z"/>
   <path class="fil6" d="M77.78 58.74c-0.77,0.59 -0.48,0.58 -1.26,1.32l-1.07 0.9c-0.01,0.01 -0.03,0.03 -0.04,0.04l-0.51 0.35c-0.71,0.62 -3.66,2.13 -4.75,2.26 0.08,-0.39 -0.03,-0.27 0.3,-0.44l-0.34 -0.13c0.01,-0.75 -0.09,-0.72 0.67,-0.74 -0.01,-0.43 -0.01,-0.22 -0.17,-0.51 -0.18,-0.32 0,-0.32 -0.42,-0.35l0 -1.79 0.17 0c0,-2.24 -0.15,-1.55 0.42,-1.77l0 -0.37 -0.84 -0.02c0.01,-1.06 0.34,-0.04 0.33,-0.71 0,-0.27 -0.14,-0.1 -0.24,-0.72 0.29,-0.07 0.55,-0.01 0.67,-0.07 -0.12,-0.27 -0.17,0.04 -0.23,-0.43 -0.03,-0.32 0.08,-0.09 0.05,-0.54 -0.57,0.18 -0.01,0.34 -0.7,0.33 0.18,-0.35 0.51,-0.37 0.66,-0.9 -0.36,0 -0.28,0.09 -0.47,0.3 -0.02,0.01 -0.03,0.03 -0.04,0.04l-4.64 4.64c-0.2,0.18 -0.14,0.17 -0.33,0.36l-1.98 1.97c-0.01,0.02 -0.07,0.07 -0.09,0.08l-2.7 2.71c-0.01,0.01 -0.03,0.03 -0.04,0.04 -0.37,0.38 -0.42,0.35 -0.44,0.68 0.38,0.01 0.47,0.08 1.37,0.09 1.05,0 2.47,-0.27 2.83,-0.26 1.39,0.01 2.71,-0.29 4.09,-0.55 0.25,-0.05 0.4,-0.09 0.64,-0.14l2.34 -0.75c0.19,-0.06 0.11,-0.04 0.26,-0.08l1.38 -0.6c0.79,-0.4 1.2,-0.58 1.97,-1.12l1.76 -1.34c0.22,-0.19 0.58,-0.55 0.77,-0.77 0.26,-0.31 0.56,-0.62 0.62,-1.01z"/>
   <path class="fil7" d="M106.64 103.32c-0.26,0.16 -1.85,0.27 -2.06,-0.02 -0.24,-0.36 0.01,-1.48 0.35,-1.78 0.29,-0.27 1.42,-0.61 1.74,-0.2 0.14,0.18 0.08,1.68 0.06,1.82 -0.04,0.18 -0.02,0.08 -0.09,0.18zm-10.25 3.44c0.38,0 1.41,0.34 2.33,0.15 0.22,-0.05 0.18,-0.09 0.47,-0.14 0.47,-0.07 0.19,0.06 0.51,-0.09 0.22,-0.11 0.05,-0.19 0.41,-0.17 0.36,0.01 0.6,0.53 2.58,0.42 0.89,-0.05 1.7,0.18 2.46,0.05l1.46 -0.34c0.47,-0.21 0.74,-0.48 1.08,-0.9l0.43 -0.86c0.13,-0.3 0.08,-4.58 0.05,-4.72 -0.05,-0.27 -0.11,-0.3 -0.21,-0.39 -0.27,-0.23 -0.63,-0.23 -0.97,-0.23 -0.68,0 -0.94,-0.06 -1.45,0.1 -0.02,0.01 -0.04,0.02 -0.06,0.02l-0.6 0.1c-0.42,0.13 -1.24,0.66 -1.16,1.07l-0.16 0.27c-0.51,0.85 -0.42,2.65 -0.28,3.54 0.89,0.19 2.26,0.01 3.24,0.1 0.04,0.55 -0.76,0.79 -1.08,0.56 -0.83,0 -3.44,-0.15 -4.03,0.08 -1.1,-0.37 -0.48,-1.43 -0.72,-2.46l-1.21 -0.02c-0.18,0.94 0.38,2.27 -0.7,2.49 -0.32,0.06 -1.14,0.02 -1.5,0.02 -0.51,-0.01 -0.84,-0.15 -0.97,-0.59 -0.36,-1.26 0.26,-5.04 -0.08,-6.27 -0.39,-0.05 -1.23,-0.2 -1.3,0.24l-0.01 4.62c0.08,3.75 0.74,2.42 1.47,3.35z"/>
   <path class="fil6" d="M67.82 45.94c0.27,-0.01 0.07,0.02 0.33,-0.05 0.25,-0.06 0.2,-0.07 0.32,-0.13 1.25,-0.62 0.51,-0.25 1.65,-0.67 0.08,0.16 0.04,0.25 0.18,0.34 0.1,0.06 0.33,0.04 0.48,0.05 -0.02,0.02 -0.06,0.02 -0.06,0.05 -0.02,0.07 -0.18,0.06 -0.2,0.33 0.28,0.16 0.23,-0.05 0.25,0.4l0.17 -0.34c0.01,0.19 0.02,0.33 -0.01,0.52 -0.18,0.88 -0.86,0.16 -0.9,0.71l0.75 0.04 -0.17 0.4c-0.01,0.08 0,0.39 0,0.5 0.01,0.82 -0.1,0.8 0.11,1.42 0.24,0.74 -0.23,1.07 0.31,1.21 -0.16,0.16 0.23,0.16 -0.42,0.16l-0.03 0.64c-0.12,0.56 -0.13,0.05 -0.13,0.98 0.29,-0.23 0.12,-0.15 0.53,-0.26 -0.1,0.41 -0.21,0.43 -0.43,0.64l-1.17 1.15c-0.22,0.29 -0.1,-0.15 -0.18,0.42 0.44,-0.08 0.28,-0.07 0.79,-0.58l9.85 -9.99c0.15,-0.19 0.17,-0.17 0.18,-0.51 -0.8,-0.02 -0.08,-0.2 -1.55,-0.09 -0.96,0.07 -1.6,0.01 -2.56,0.27 -0.35,0.1 -0.43,0.06 -0.88,0.07l-2.4 0.43c-0.5,0.06 -0.33,0.1 -0.74,0.21 -1.18,0.32 -2.64,0.71 -3.78,1.37 -0.3,0.17 -0.16,-0.08 -0.29,0.31z"/>
   <path class="fil4" d="M96.85 89.15c0,-0.67 -0.1,-1.13 0.58,-1.48 0.42,-0.21 -0.04,-0.15 1.06,-0.15 0.41,0 0.25,0.57 0.25,1.63 0,0.41 -0.57,0.26 -1.63,0.26 -0.2,0 -0.26,-0.06 -0.26,-0.26zm0.21 3.26c-0.09,0.25 -0.01,0.22 -0.38,0.28 -0.25,0.04 -0.25,-0.03 -0.52,0.07 -0.11,0.37 -0.07,0.84 -0.05,1.24 0.83,0.02 1.16,-0.11 1.86,-0.21 0.45,0.24 1.04,-0.26 1.35,-0.54 0.36,-0.31 0.7,-0.67 0.84,-1.14 0.05,-0.14 0.03,-0.14 0.06,-0.28 0.08,-0.34 0.01,-0.04 0.08,-0.27l0.08 -0.26c0.05,-0.16 -0.01,-0.07 0.08,-0.26l4.9 0c0.78,0 1.03,0.1 1.59,-0.21 0.75,-0.41 1.22,-1.48 1.25,-1.93 0.06,-1.08 -0.19,-1.01 -0.25,-1.39 -0.06,-0.33 0.02,-0.45 -0.08,-0.79 -0.05,-0.2 -0.03,-0.09 -0.1,-0.33 -0.06,-0.22 0.01,-0.11 -0.09,-0.33 -0.48,0.04 -0.09,0.02 -0.33,0.1 -0.07,0.01 -0.02,0.01 -0.21,0.05 -0.8,0.17 -0.44,0.16 -0.92,0.28 0,1.04 0.73,2.47 -0.12,2.89 -0.52,0.25 -5.58,0.09 -5.64,0.03 -0.23,-0.48 -0.09,-1.91 -0.08,-2.58 0.01,-1.14 -0.44,-1.13 -1.49,-1.08 -0.25,0.01 -0.72,0.04 -1.05,0.02 -0.55,-0.03 -1.27,0.39 -1.29,0.41 -0.35,0.2 -0.79,0.57 -0.97,0.93l-0.08 0.17c0,0.02 -0.01,0.04 -0.02,0.06l-0.18 0.43c-0.29,0.68 -0.16,0.97 -0.16,1.89 -0.01,1.29 -0.05,1.39 1.28,1.38 0.43,0 0.86,0 1.29,0 0.45,0 1.1,-0.15 1.02,0.31 -0.03,0.2 -0.44,0.69 -0.85,0.89 -0.02,0.01 -0.09,0.04 -0.12,0.05 -0.02,0.01 -0.2,0.12 -0.7,0.12z"/>
   <path class="fil7" d="M69.28 104.35c0,-0.54 -0.11,-1.03 0.37,-1.43 0.27,-0.23 0.71,-0.2 1.09,-0.2l0 1.89c-0.98,0 -1.46,0.14 -1.46,-0.26zm2.97 0.29c-0.05,-0.27 -0.1,-1.76 -0.04,-2 0.08,-0.34 1.28,-0.23 1.74,-0.19 0.34,0.8 0.04,2.46 -1.7,2.19zm-7.52 0.57c0.37,0.25 0.19,0.27 0.61,0.5 0.3,0.16 0.42,0.21 0.77,0.26l6.09 0.03c1.36,0.01 2.19,-0.29 2.78,-1.27 0.42,-0.71 0.66,-2.76 0.28,-3.51 -0.66,-0.18 -3.26,-0.06 -4.17,-0.06 -0.89,0 -1.68,-0.07 -2.46,0.65l-0.55 0.57c-0.29,0.04 -0.17,0.01 -0.34,0.52l-0.09 0.34c-0.04,0.35 0,0.98 0,1.37 -1.4,0 -0.62,0.06 -1.63,-0.17l0 -5.93c-0.05,-0.69 -0.39,-0.51 -1.46,-0.51l-0.24 0.27 -0.02 5.4c-0.01,0.85 0.26,0.72 0.26,1.54 0.13,0.11 0.04,0.02 0.17,0z"/>
   <path class="fil7" d="M41.65 104.87c-0.07,0.34 -0.15,0.39 -0.54,0.45 -0.28,0.04 -0.66,0.01 -0.95,0.01 -3.87,0 -3.05,0.05 -3.14,-2.57 -0.43,-0.04 -0.91,-0.07 -1.31,0.05 -0.09,1.41 0.28,4.45 -0.44,4.97 -0.26,0.02 -0.44,0.34 -0.79,0.42 -0.27,0.06 -1.04,0.02 -1.36,0.02 -0.41,0 -1,0.07 -1.3,-0.08 -0.93,-0.43 -1.02,-0.86 -1.23,-1.43 -0.35,-0.92 -0.04,-1.21 0.09,-1.71 0.07,-0.28 0.05,-0.29 0.14,-0.54l0.23 -0.46c0.14,-0.27 0.09,-0.21 0.09,-0.59 -1.46,-0.71 -1.29,-0.82 -1.74,0.23l-0.27 0.59c-0.16,0.5 -0.18,0.89 -0.29,1.52 -0.04,0.25 0.15,1.89 0.52,2.37l0.3 0.47c0.22,0.32 0.7,0.66 1.04,0.85 0.6,0.33 0.95,0.41 1.82,0.41 0.62,0 1.38,0.04 1.98,0 0.3,-0.02 0.17,-0.01 0.35,-0.07 0.02,-0.01 0.04,-0.02 0.07,-0.02l0.12 -0.05c0.49,-0.13 0.19,0.02 0.57,-0.21l0.16 -0.09c0.39,-0.24 0.48,-0.37 0.78,-0.68 0.01,-0.02 0.03,-0.03 0.04,-0.05 0.01,-0.01 0.03,-0.03 0.04,-0.04l0.44 -1.02c0.35,-1.1 -1.06,-0.9 3.95,-0.86 0.86,0.01 0.95,-0.11 1.46,-0.43 0.28,-0.18 0.41,-0.34 0.53,-0.68 0.37,-0.98 0.34,-0.47 0.34,-1.39 -0.01,-0.74 -0.03,-0.39 -0.2,-0.83 -0.16,-0.39 0.07,-0.84 -0.32,-1.65 -0.33,0 -0.19,0.02 -0.36,0.07 -0.82,0.25 -0.26,-0.01 -1.1,0.44 0,0.63 0.17,0.83 0.23,1.14 0.09,0.45 -0.01,0.97 0.05,1.44z"/>
   <path class="fil8" d="M79.42 104.78c0,0.47 0.09,0.32 0.14,0.63 0.05,0.25 -0.01,0.39 0.07,0.62 0.19,0.52 1.08,0.64 1.67,0.73 0.52,0.08 -0.22,-0.08 0.15,0.03 0.58,0.16 -0.1,0.13 0.63,0.22 0.45,0.06 0.43,-0.07 0.43,0.61 0,0.4 -0.95,0.77 -1.12,0.77l-2.23 0c-0.39,0 0.04,0 -0.25,-0.1 -0.02,-0.01 -0.04,-0.01 -0.06,-0.02 -0.51,-0.17 -0.92,-0.38 -1.2,-1.12 -0.13,-0.33 -0.12,0.06 -0.12,-0.31 0,-1.06 -0.1,-1.1 0.14,-1.91 0.15,-0.5 0.55,-1.02 0.48,-1.38 -0.05,-0.26 -0.04,-0.15 -0.59,-0.43 -0.02,-0.02 -0.09,-0.05 -0.11,-0.06l-0.52 -0.25c-0.37,0.32 -0.36,0.46 -0.54,0.84l-0.58 1.82c0,1.39 -0.12,1.05 0.2,2.03 0.29,0.88 0.67,1.5 1.47,1.97 1.18,0.7 2.19,0.64 3.57,0.64l1.48 -0.33c0.08,-0.03 1.12,-0.5 1.39,-1.18 0.08,-0.19 0.07,-0.36 0.16,-0.62 0.5,-1.34 -0.07,-2.46 -1.5,-2.67 -1,-0.14 -0.38,-0.16 -0.95,-0.25 -0.64,-0.12 -0.67,0.01 -0.3,-0.94 0.13,-0.35 0.25,-0.45 0.58,-0.62 0.72,-0.38 0.66,-0.26 2.15,-0.26 0.17,-0.37 0.12,-0.51 0.22,-0.81 0.12,-0.41 0.12,0.26 0.12,-0.65 -0.85,-0.02 0.13,-0.26 -1.8,-0.26 -0.14,0 -1.32,0.36 -1.69,0.63 -0.11,0.08 -0.13,0.11 -0.23,0.2l-0.79 0.85c-0.01,0.01 -0.01,0.04 -0.02,0.06l-0.45 1.52z"/>
   <path class="fil9" d="M52.79 90.7l0.28 0.13c0.02,0.01 0.05,0.02 0.06,0.03 0.78,0.37 1.13,0.19 1.69,-0.03 0.16,-0.06 0.17,-0.03 0.32,-0.1 0.16,-0.06 0.18,-0.12 0.31,-0.21 0.3,0.08 0.13,0.07 0.41,0.19 0.12,0.06 0.12,0.05 0.25,0.1l0.24 0.1c0.3,0.13 0.73,0.19 1.16,0.12 0.27,-0.04 0.23,-0.08 0.43,-0.17 0.25,-0.11 0.67,-0.2 0.97,-0.66 0.11,-0.18 0.06,-0.02 0.06,-0.19 0.08,-0.35 0.21,-0.52 0.27,-0.94 0.11,-0.88 -0.13,-2.09 -0.31,-2.88 -0.4,0.07 -0.84,0.24 -1.18,0.37 0,0.67 0.41,1.51 0.24,2.31 -0.14,0.71 -1.08,0.88 -1.59,0.36 -0.56,-0.77 -0.19,-1.06 -0.31,-2.24l-1.21 0.02c-0.14,1.04 0.43,2.63 -1.06,2.5 -1.3,-0.12 -0.64,-1.84 -0.93,-2.59 0,-0.11 0.08,-0.09 -0.53,-0.1 -0.39,0 -0.56,-0.04 -0.6,0.1 -0.32,1.23 0.56,2.58 -1.2,2.61 -0.94,0.01 -2.93,0.07 -3.78,-0.07 -0.96,-0.15 -0.68,-1.44 -0.68,-2.97 0,-1.14 0.09,-2.72 -0.02,-3.8l-1.27 -0.02c-0.1,1.29 -0.01,2.87 -0.01,4.16 -0.01,3.83 -0.12,3.99 4.3,3.99 0.95,0 2.06,0.15 2.84,-0.28 0.44,-0.24 0.64,-0.34 0.85,0.16z"/>
   <path class="fil9" d="M46.18 103.49c0.18,0 0.01,0.04 0.26,-0.07 0.24,-0.1 0.18,-0.12 0.36,-0.16 0.4,-0.09 0.56,0.06 1.01,-0.11 0.26,0.23 0.16,0.75 0.16,1.12 0,1.02 0.13,1.14 -0.58,1.15 -0.34,0 -1.39,0.09 -1.58,-0.1 -0.15,-0.16 -0.31,-1.44 0.37,-1.83zm-1.64 3.1c0.91,0.18 2.64,-0.12 3.29,0.13 0.1,0.18 0.04,-0.19 0.08,0.22 0.06,0.51 -0.43,0.99 -0.84,1.21 -0.55,0.29 -1.59,0.21 -1.93,0.39l-0.01 1.14c0.56,0.23 1.96,-0.15 2.42,-0.32 0.29,0.11 0.23,0.07 0.68,-0.21 0.6,-0.38 0.64,-0.64 0.91,-1.14 0.84,-1.53 -1.27,-1.25 3.76,-1.25 0.11,-0.45 0.05,-0.18 0.5,-0.43 1.61,-0.88 0.64,-4.05 0.51,-4.24 -0.55,-0.05 -0.57,0.15 -1.1,0.23 0.04,0.85 0.63,2.53 -0.15,2.93 -0.42,0.22 -2.87,0.17 -3.38,0.04 -0.14,-1.05 0.11,-2.45 -0.1,-3.43 -0.01,-0.4 -0.44,-0.35 -0.85,-0.34 -0.47,0 -0.93,-0.01 -1.39,-0.01 -0.27,0 -0.3,-0.01 -0.53,0.07l-0.93 0.45c-0.15,0.12 -0.21,0.17 -0.36,0.32 -0.41,0.41 -0.39,0.41 -0.65,0.89 -0.01,0.02 -0.03,0.04 -0.04,0.06 -0.18,0.35 -0.15,0.43 -0.15,0.88 0.01,0.46 0.01,0.92 0.01,1.38 -0.01,0.19 -0.02,0.51 -0.01,0.69 0.04,0.48 0.07,0.37 0.26,0.34z"/>
   <path class="fil4" d="M57.43 107.1c-1.06,-0.78 0.22,-3.17 0.24,-3.76 -0.25,-0.12 -0.74,-0.38 -1.02,-0.39 -0.66,1.01 -0.97,2.63 -0.71,3.99 0.09,0.51 0.33,0.82 0.46,1.19 0.01,0.35 0.27,0.47 0.65,0.81 0.4,0.37 1.44,0.74 1.92,0.74 0.63,0 1.95,0.12 2.48,-0.1 0.26,-0.11 0.06,-0.07 0.37,-0.14 0.71,-0.17 1.16,-0.52 1.53,-1.14 0.1,-0.17 0.11,-0.17 0.15,-0.36l0.19 -0.85c0.05,-0.39 0.02,-0.73 -0.1,-1 -0.37,-0.95 -0.61,-0.65 -1.22,-0.93 -0.4,-0.19 -1.15,-0.19 -1.68,-0.46 0.05,-0.6 0.43,-1.26 1.11,-1.48 1.62,-0.52 0.65,-0.07 1.64,0.02 0.18,-0.38 0.57,-1.32 0.26,-1.64 -0.12,-0.11 -1.82,-0.1 -1.98,-0.08 -0.35,0.05 -0.1,0.09 -0.68,0.27l-0.95 0.59 -0.74 1.15c-0.2,0.44 -0.19,0.2 -0.21,0.65 -0.01,0.21 -0.01,1.01 0.03,1.18 0.11,0.52 0.37,0.9 0.93,0.96 0.39,0.05 0.18,-0.01 0.5,0.1 0.96,0.36 1.64,0.16 1.45,0.91 -0.23,0.94 -2.02,0.63 -3.08,0.63 -0.48,0.01 -0.67,-0.05 -0.93,-0.27l-0.61 -0.59z"/>
   <path class="fil4" d="M92.47 105.3l-1.63 0c0,-0.96 -0.11,-0.96 0.26,-1.55 0.23,-0.37 0.51,-0.4 1.17,-0.4 0.63,-0.01 0.46,-0.18 0.46,1.69 0,0.2 -0.06,0.26 -0.26,0.26zm-2.57 3.09c-0.49,2.08 0.59,1.5 1.37,1.46 0.54,-0.02 0.68,-0.02 1.15,-0.22l0.71 -0.41c0.33,-0.29 0.71,-0.67 0.94,-1.03l0.29 -1 0 -5.07c0,-0.22 -0.22,-0.36 -0.45,-0.49 -0.23,-0.14 0.13,-0.11 -0.23,-0.11l-1.81 0c-0.32,0 -0.42,0.16 -0.71,0.23 -0.62,0.15 -0.25,-0.04 -0.69,0.34 -0.74,0.65 -0.06,-0.17 -0.77,0.77 -0.31,0.41 -0.21,0.07 -0.34,0.62 -0.25,1.14 -0.67,3.17 0.47,3.43 0.7,0.16 2.8,-0.21 2.88,0.2 0.04,0.2 -0.02,0.12 -0.18,0.38 -0.01,0.02 -0.02,0.04 -0.04,0.06 -0.21,0.35 -0.11,0.27 -0.48,0.46 -0.02,0.01 -0.04,0.02 -0.06,0.03 -0.29,0.14 -1.68,0.34 -2.05,0.35z"/>
   <path class="fil8" d="M35.52 87c0,0.56 0.09,4.2 -0.17,4.73l-0.29 0.31c-0.73,0.57 -1.56,0.37 -2.89,0.37 -0.04,0 -1.03,-0.35 -1.24,-0.73 -0.06,-0.11 -0.03,-0.07 -0.07,-0.18 -0.01,-0.02 -0.02,-0.05 -0.03,-0.07 -0.53,-1.31 -0.39,-1.24 -0.07,-2.5l0.25 -0.68c0.1,-0.2 0.33,-0.42 -0.08,-0.78 -0.13,-0.11 -0.19,-0.13 -0.31,-0.2 -0.39,-0.22 -0.52,-0.18 -0.94,-0.18l-0.2 0.56c-0.21,0.5 -0.48,0.91 -0.49,1.58 0,0.55 -0.12,0.74 -0.05,1.26 0.08,0.49 0,0.72 0.12,1.08 0.01,0.02 0.02,0.04 0.03,0.06 0.01,0.02 0.02,0.04 0.02,0.06 0.01,0.02 0.02,0.05 0.03,0.07 0.28,0.7 0.94,1.53 1.64,1.88 0.16,0.08 0.36,0.17 0.48,0.2 1.55,0.42 0.77,0.29 2.8,0.29l1.66 -0.49c0.17,-0.09 0.33,-0.19 0.47,-0.31 0.43,-0.36 0.67,-0.84 0.86,-1.37 0.21,-0.57 0.11,-4.04 0.11,-4.87 0,-0.47 -0.8,-0.36 -1.22,-0.31 -0.3,0.03 -0.15,0.04 -0.42,0.22z"/>
   <path class="fil8" d="M38.19 83.91l-0.09 5.33c0,1.23 -0.37,2.2 1.72,1.71l0 -7.64c0.01,-1 0.19,-0.86 -1.29,-0.86 -0.6,0 -0.34,1 -0.34,1.46z"/>
   <path class="fil4" d="M84.23 108.65c0,0.72 -0.06,0.69 0.08,1.29 1.53,0 1.87,-0.01 2.91,-0.62 0.43,-0.26 0.73,-0.58 0.95,-1.02l0.44 -1.2 0 -4.21c0,-0.37 -0.37,-0.26 -1.2,-0.26 -0.4,0 -0.35,0.38 -0.35,0.78 0.01,0.5 -0.07,0.58 -0.09,1.03 -0.06,2.17 0.57,3.77 -1.89,3.86 -0.41,0.02 -0.85,-0.08 -0.85,0.35z"/>
   <path class="fil8" d="M92.73 82.62l0 7.56c-0.01,1 -0.21,0.86 1.37,0.86 0.2,0 0.26,-0.06 0.26,-0.26l0 -7.9c0,-0.55 -1.44,-0.33 -1.63,-0.26z"/>
   <path class="fil9" d="M42.14 93.01c0.11,0.12 0.11,0.12 0,0 0.2,-0.42 0.47,-0.68 0.65,-1.12 0.17,-0.43 0.23,-0.99 0.22,-1.54 0,-1.01 0.1,-2.41 0.01,-3.37l-1.23 0.04c-0.27,3.28 1.05,5.77 -2.8,5.55l0 1.28c0.44,-0.02 1.45,-0.04 1.84,-0.14 0.41,-0.12 0.71,-0.34 0.98,-0.52 0.27,-0.17 0.07,-0.06 0.33,-0.18z"/>
   <path class="fil10" d="M52.79 90.7c-0.21,-0.5 -0.41,-0.4 -0.85,-0.16 -0.78,0.43 -1.89,0.28 -2.84,0.28 -4.42,0 -4.31,-0.16 -4.3,-3.99 0,-1.29 -0.09,-2.87 0.01,-4.16l1.27 0.02c0.11,1.08 0.02,2.66 0.02,3.8 0,1.53 -0.28,2.82 0.68,2.97 0.85,0.14 2.84,0.08 3.78,0.07 1.76,-0.03 0.88,-1.38 1.2,-2.61 -0.18,0.11 -0.28,-0.22 -0.18,0.68 0.03,0.32 0.01,0.62 -0.04,0.9 -0.11,0.76 -0.24,0.83 -1.07,0.82 -1.28,-0.01 -2.58,0 -3.86,0 -0.4,-0.74 -0.44,-0.17 -0.44,-1.37l0.01 -5.5c-2.11,0 -1.63,-0.81 -1.64,5.32 0,0.36 -0.03,0.75 0.04,1.09l0.22 0.98 0.86 0.86c1.31,0.56 3.47,0.33 4.9,0.34 0.6,0 0.57,0.05 1.03,-0.17l0.77 -0.35c0.33,0.22 0.02,0.1 0.43,0.18z"/>
   <path class="fil11" d="M68.08 102.38l0.55 -0.57c0.78,-0.72 1.57,-0.65 2.46,-0.65 0.91,0 3.51,-0.12 4.17,0.06 0.38,0.75 0.14,2.8 -0.28,3.51 -0.59,0.98 -1.42,1.28 -2.78,1.27l-6.09 -0.03c-0.35,-0.05 -0.47,-0.1 -0.77,-0.26 -0.42,-0.23 -0.24,-0.25 -0.61,-0.5l0 0.35c0.1,0.05 0.09,0.05 0.21,0.13l0.43 0.26c0.45,0.2 1.28,0.29 1.85,0.3 1.23,0 5.42,0.11 6.3,-0.15 1.22,-0.34 2.04,-1.55 2.03,-2.78 -0.02,-2.53 0.34,-2.49 -2.4,-2.49 -0.99,0 -2.34,-0.17 -3.13,0.14 -0.64,0.24 -0.4,-0.01 -0.91,0.29l-0.66 0.46c-0.32,0.29 -0.3,0.21 -0.37,0.66z"/>
   <path class="fil12" d="M96.39 106.76c-0.73,-0.93 -1.39,0.4 -1.47,-3.35l0.01 -4.62c0.07,-0.44 0.91,-0.29 1.3,-0.24 0.34,1.23 -0.28,5.01 0.08,6.27 0.13,0.44 0.46,0.58 0.97,0.59 0.36,0 1.18,0.04 1.5,-0.02 1.08,-0.22 0.52,-1.55 0.7,-2.49l1.21 0.02c0.24,1.03 -0.38,2.09 0.72,2.46l-0.32 -0.38c-0.33,-0.42 -0.2,-0.85 -0.19,-1.6 0,-0.75 -0.17,-1 -1.56,-0.68 0,0.32 -0.05,0.29 -0.05,0.5 0.01,0.11 0.05,0.31 0.06,0.53 0.02,0.55 -0.09,0.7 -0.09,1.2 -0.37,0.2 -0.46,0.35 -1.03,0.35 -2.29,0.01 -1.81,-0.17 -1.81,-5.07 0,-2.2 0.18,-1.77 -0.95,-1.81 -0.91,-0.02 -0.76,-0.32 -0.76,1.81 0,1.44 -0.19,4.8 0.42,5.76 0.24,0.4 0.72,0.75 1.26,0.77z"/>
   <path class="fil13" d="M42.14 93.01c-0.26,0.12 -0.06,0.01 -0.33,0.18 -0.27,0.18 -0.57,0.4 -0.98,0.52 -0.39,0.1 -1.4,0.12 -1.84,0.14l0 -1.28c3.85,0.22 2.53,-2.27 2.8,-5.55l1.23 -0.04c0.09,0.96 -0.01,2.36 -0.01,3.37 0.01,0.55 -0.05,1.11 -0.22,1.54 -0.18,0.44 -0.45,0.7 -0.65,1.12 0.41,-0.13 0.34,-0.14 0.53,-0.49l0.13 -0.22c0.1,-0.17 0.01,0 0.09,-0.17 0,0 0.07,-0.16 0.08,-0.18 0.16,-0.42 0.05,-0.3 0.14,-0.72 0.09,-0.43 0.2,-0.14 0.24,-0.7 0.06,-1.1 -0.01,-2.48 -0.01,-3.61 -0.34,-0.08 -0.92,-0.15 -1.38,-0.1 -0.47,0.05 -0.34,0.22 -0.34,1.13 0.01,1.38 0.2,2.42 -0.19,3.5 -0.19,0.55 -0.66,0.87 -1.28,0.95 -1.65,0.23 -1.36,-0.59 -1.36,1.65 1.01,0.23 1.23,0.04 1.85,-0.13 1.34,-0.37 0.96,-0.5 1.5,-0.65l0 -0.26z"/>
   <path class="fil8" d="M51.59 99.54c0,0.41 0.04,0.21 0.21,0.39l0.28 0.32c0.19,0.21 0.33,0.42 0.62,0.5l1.03 -1.04c-0.07,-0.3 -0.19,-0.41 -0.46,-0.65 -0.74,-0.67 -0.5,-0.79 -1.08,-0.21 -0.04,0.04 -0.07,0.07 -0.13,0.13 -0.32,0.33 -0.47,0.33 -0.47,0.56z"/>
   <path class="fil8" d="M98.74 100.14c0,0.42 0.23,0.38 0.48,0.65 0.31,0.34 0.48,0.71 0.93,0.25 0.67,-0.69 0.33,-0.12 0.74,-0.9 -1.34,-1.54 -1.14,-1.06 -1.81,-0.44 -0.2,0.18 -0.34,0.22 -0.34,0.44z"/>
   <path class="fil10" d="M52.9 106.76c0.56,-0.26 1.09,-0.61 1.37,-1.18l0.16 -0.7c0.05,-0.53 0.01,-0.81 0,-1.48l-0.27 -1.45c-0.32,-0.32 -1.21,0.25 -1.63,0.26 0,0.43 0.02,0.26 0.1,0.5l0.1 0.59c0.04,0.29 0.25,0.87 0.23,1.13 -0.1,1.14 -2.09,0.75 -3.18,0.7 -0.61,-0.02 -0.43,-0.29 -0.43,-0.95 0.01,-0.43 0.07,-1 0.06,-1.27 -0.03,-0.75 0.16,-0.75 -0.23,-1.05 0.21,0.98 -0.04,2.38 0.1,3.43 0.51,0.13 2.96,0.18 3.38,-0.04 0.78,-0.4 0.19,-2.08 0.15,-2.93 0.53,-0.08 0.55,-0.28 1.1,-0.23 0.13,0.19 1.1,3.36 -0.51,4.24 -0.45,0.25 -0.39,-0.02 -0.5,0.43z"/>
   <path class="fil14" d="M35.27 107.78c0.72,-0.52 0.35,-3.56 0.44,-4.97 0.4,-0.12 0.88,-0.09 1.31,-0.05 0.09,2.62 -0.73,2.57 3.14,2.57 0.29,0 0.67,0.03 0.95,-0.01 0.39,-0.06 0.47,-0.11 0.54,-0.45 -0.75,0.42 -2.49,0.28 -3.47,0.26 -0.69,-0.02 -1.09,-0.09 -1.07,-0.75 0.03,-0.68 0.1,-1.13 -0.04,-1.75 -1.94,0 -1.63,-0.42 -1.63,1.89 0,1.78 0.08,1.74 -0.17,3.26z"/>
   <path class="fil8" d="M41.02 108.82c0.31,0.46 0.29,0.29 0.65,0.73 0.26,0.33 0.09,-0.04 0.21,0.3 0.46,-0.01 0.5,-0.13 0.97,-0.58 0.6,-0.57 -0.02,-0.72 -0.26,-0.99 -0.29,-0.34 -0.16,-0.24 -0.54,-0.49 -0.05,0.03 -0.25,0.16 -0.3,0.21 -0.19,0.16 -0.07,0.09 -0.24,0.28 -0.25,0.27 -0.2,0.1 -0.49,0.54z"/>
   <path class="fil15" d="M56.4 108.13c-0.13,-0.37 -0.37,-0.68 -0.46,-1.19 -0.26,-1.36 0.05,-2.98 0.71,-3.99 0.28,0.01 0.77,0.27 1.02,0.39 -0.02,0.59 -1.3,2.98 -0.24,3.76 -0.12,-0.74 -0.16,-1.27 -0.09,-2.06 0.04,-0.38 0.02,-0.12 0.11,-0.41 0.01,-0.05 0.03,-0.14 0.05,-0.2 0.15,-0.49 0.4,-0.57 0.44,-1.11 -0.19,-0.13 -0.37,-0.21 -0.61,-0.33 -0.44,-0.2 -0.4,-0.28 -0.68,-0.36 -0.3,0.23 -0.25,0.45 -0.45,0.84 -0.24,0.46 -0.2,0.37 -0.33,0.96 -0.09,0.42 -0.18,0.28 -0.24,0.62 -0.03,0.17 -0.02,1.52 0.01,1.69l0.41 1.31c0.15,0.03 0.2,0.04 0.35,0.08z"/>
   <path class="fil15" d="M64.9 90.61c-1.42,0.26 -1.91,0.57 -3.74,-0.06 -0.04,-0.01 -0.19,-0.07 -0.24,-0.09 -0.15,-0.08 -0.1,-0.05 -0.19,-0.11 0.09,-0.37 0.25,-0.77 0.34,-1.15 0.2,0.02 1.19,0.4 1.85,0.44 0.82,0.06 1.36,0.08 1.64,-0.58 0.01,-0.19 -0.58,-1.07 -0.95,-1.37l0 0.34c0.42,0.28 0.52,0.56 0.54,0.58l0.08 0.18c0.09,0.22 0.07,0.14 0.07,0.45 -0.55,0.28 -0.98,0.38 -1.63,0.17 -0.31,-0.1 -0.52,-0.05 -0.8,-0.15 -0.45,-0.15 -0.17,-0.2 -0.83,-0.2 -0.54,1.01 -0.08,-0.13 -0.4,0.9 -0.07,0.22 -0.12,0.13 -0.12,0.56 0.51,0.12 0.32,0.18 0.7,0.25 0.12,0.02 0.18,0.01 0.31,0.03 0.55,0.12 -0.11,0.18 1.14,0.24 0.31,0.01 0.31,0.07 0.57,0.05 0.21,-0.02 0.37,-0.04 0.63,-0.05 0.4,-0.01 0.79,-0.11 1.03,-0.43z"/>
   <path class="fil9" d="M42.74 85.11l0.01 0c0.29,-0.46 0.34,-0.26 0.6,-0.68 -0.08,-0.13 -0.02,-0.06 -0.11,-0.16 -0.18,-0.24 -0.59,-0.67 -0.84,-0.78 -0.24,0.14 -0.77,0.69 -0.87,0.94 0.25,0.45 0.53,0.48 0.81,0.9 0.27,-0.12 0.13,-0.04 0.4,-0.22z"/>
   <path class="fil9" d="M33.29 103.24c-0.04,0.14 -0.27,0.17 0.09,0.14 0.24,-0.02 0.11,0.07 0.11,-0.14 0.24,-0.4 0.63,-0.53 0.84,-0.95l-0.44 -0.51c-0.14,-0.15 -0.29,-0.28 -0.51,-0.38 -0.27,0.12 -0.7,0.6 -0.82,0.89 0.26,0.47 0.46,0.42 0.73,0.95z"/>
   <path class="fil9" d="M89 83.82c0.17,0.33 0,0.06 0.25,0.31 0.35,0.35 0.36,0.49 0.73,0.57 0.14,-0.08 0.81,-0.71 0.81,-0.88 0,-0.15 -0.75,-0.84 -0.81,-0.88 -0.33,0.08 -0.85,0.58 -0.98,0.88z"/>
   <path class="fil9" d="M32.58 86.4c0.18,0.38 0.07,0.23 0.37,0.51 0.15,0.13 0.26,0.26 0.43,0.42 0.29,-0.08 0.87,-0.65 0.97,-0.93 -0.13,-0.18 -0.32,-0.34 -0.47,-0.5 -0.19,-0.22 -0.21,-0.3 -0.5,-0.37 -0.28,0.19 -0.71,0.68 -0.8,0.87z"/>
   <path class="fil15" d="M105.44 105.3c0.32,0.23 1.12,-0.01 1.08,-0.56 -0.98,-0.09 -2.35,0.09 -3.24,-0.1 -0.14,-0.89 -0.23,-2.69 0.28,-3.54l0.16 -0.27c-0.42,0 -0.46,0.42 -0.62,1 -0.13,0.45 -0.15,0.3 -0.15,0.89 0.01,2.03 -0.17,1.33 0.43,2.23l2.84 0c-0.14,0.19 -0.47,0.32 -0.78,0.35z"/>
   <path class="fil9" d="M73.49 84.6l0 0.01c0.28,0.22 0.45,0.5 0.77,0.59l0.83 -0.86c-0.12,-0.3 -0.75,-0.9 -0.83,-0.91 -0.32,-0.06 -0.75,0.56 -0.92,0.82l0.15 0.35z"/>
   <path class="fil9" d="M106.33 97.96c-0.38,-0.28 -0.39,-0.51 -0.8,-0.67 -0.28,0.13 -0.8,0.7 -0.89,0.88l0.89 0.9c0.19,-0.09 0.82,-0.64 0.95,-0.91l-0.15 -0.2z"/>
   <path class="fil15" d="M52.89 86.92c0.29,0.75 -0.37,2.47 0.93,2.59 1.49,0.13 0.92,-1.46 1.06,-2.5l1.21 -0.02c0.12,1.18 -0.25,1.47 0.31,2.24 0.12,-0.34 0,-1.74 0,-2.31 -2.16,-0.18 -1.54,-0.32 -1.63,1.55 -0.01,0.32 -0.03,0.34 -0.26,0.6 -0.28,0.33 -0.47,0.25 -0.95,0.25 -0.61,-0.91 -0.43,-0.56 -0.43,-2.4l-0.24 0z"/>
   <path class="fil10" d="M56.4 89.23c0.51,0.52 1.45,0.35 1.59,-0.36 0.17,-0.8 -0.24,-1.64 -0.24,-2.31 0.34,-0.13 0.78,-0.3 1.18,-0.37 0.18,0.79 0.42,2 0.31,2.88 -0.06,0.42 -0.19,0.59 -0.27,0.94 0.28,-0.18 0.06,0.24 0.37,-0.58 0.01,-0.02 0.02,-0.04 0.03,-0.06 0.12,-0.29 0.17,-0.15 0.21,-0.56 0.08,-0.88 -0.22,-0.91 -0.26,-1.55 -0.03,-0.35 -0.11,-1.22 -0.45,-1.28 -0.35,-0.06 -0.11,0.07 -0.61,0.23l-0.66 0.28c0,2.06 0.26,-0.18 0.26,2.57 -0.28,0.25 -0.24,0.3 -0.86,0.26l-0.6 -0.09z"/>
   <path class="fil10" d="M47.55 109.36c-0.46,0.17 -1.86,0.55 -2.42,0.32l0.01 -1.14c0.34,-0.18 1.38,-0.1 1.93,-0.39 0.41,-0.22 0.9,-0.7 0.84,-1.21 -0.04,-0.41 0.02,-0.04 -0.08,-0.22 -0.65,-0.25 -2.38,0.05 -3.29,-0.13 0.07,0.16 -0.05,0.19 0.69,0.17 0.68,-0.01 1.96,-0.04 2.49,0.08 -0.07,0.92 -0.62,1.21 -1.49,1.35 -1.57,0.25 -1.26,-0.49 -1.26,1.66 0.43,0 0.87,0.01 1.3,0 0.72,-0.01 0.21,-0.17 1.19,-0.17 0.08,-0.14 0.05,-0.11 0.09,-0.32z"/>
   <path class="fil9" d="M39.65 109.71c0.32,-0.16 0.68,-0.57 0.82,-0.81 -0.09,-0.28 -0.13,-0.27 -0.38,-0.52 -0.14,-0.13 -0.22,-0.25 -0.44,-0.35 -0.27,0.13 -0.69,0.58 -0.79,0.87 0.18,0.32 0.19,0.25 0.37,0.43 0.25,0.25 0.08,0.22 0.42,0.38z"/>
   <path class="fil9" d="M106.25 84.08c0.16,0.26 0.54,0.69 0.83,0.81 0.19,-0.1 0.63,-0.53 0.78,-0.81 -0.08,-0.27 -0.56,-0.74 -0.78,-0.87 -0.21,0.11 -0.25,0.2 -0.43,0.35 -0.26,0.22 -0.3,0.23 -0.4,0.52z"/>
   <path class="fil9" d="M105.03 83.55l-0.42 -0.37c-0.21,0.18 -0.71,0.64 -0.79,0.9 0.12,0.24 0.18,0.2 0.37,0.4 0.2,0.19 0.13,0.21 0.39,0.4 0.3,-0.11 0.72,-0.54 0.89,-0.8 -0.13,-0.29 -0.22,-0.27 -0.44,-0.53z"/>
   <path class="fil10" d="M106.22 103.32c-1.75,0 -1.55,0.17 -1.55,-0.69 0,-0.58 0.37,-1.2 0.77,-1.2 1.42,0 1.03,-0.16 1.03,0.86 0,0.42 0.14,1.03 -0.25,1.03zm0.42 0c0.07,-0.1 0.05,0 0.09,-0.18 0.02,-0.14 0.08,-1.64 -0.06,-1.82 -0.32,-0.41 -1.45,-0.07 -1.74,0.2 -0.34,0.3 -0.59,1.42 -0.35,1.78 0.21,0.29 1.8,0.18 2.06,0.02z"/>
   <path class="fil14" d="M81.31 89.06c0,-0.48 0.03,-0.8 0.35,-1.19 0.43,-0.53 0.97,-0.48 1.54,-0.35 0,0.34 -0.01,0.69 0,1.03 0.01,0.92 0.23,0.77 -1.64,0.77 -0.19,0 -0.25,-0.06 -0.25,-0.26zm2.08 -1.65c-0.44,-0.09 -1.19,-0.13 -1.53,0.08 -0.55,0.34 -0.8,1.15 -0.63,1.83 0.07,0.28 0.18,0.25 0.5,0.25 0.48,0.01 1.14,0.03 1.6,-0.04 0.15,-0.43 0.11,-1.64 0.06,-2.12z"/>
   <path class="fil13" d="M46.18 103.49c-0.68,0.39 -0.52,1.67 -0.37,1.83 0.19,0.19 1.24,0.1 1.58,0.1 0.71,-0.01 0.58,-0.13 0.58,-1.15 0,-0.37 0.1,-0.89 -0.16,-1.12l0 1.98 -1.81 0c0,-0.29 -0.01,-0.59 0,-0.87 0.01,-0.53 0.09,-0.31 0.18,-0.77z"/>
   <path class="fil16" d="M73.32 104.44c-1.18,0 -0.95,0.26 -0.95,-1.63 0,-0.4 0.49,-0.26 1.46,-0.26 0,1.74 0.08,1.01 -0.51,1.89zm-1.07 0.2c1.74,0.27 2.04,-1.39 1.7,-2.19 -0.46,-0.04 -1.66,-0.15 -1.74,0.19 -0.06,0.24 -0.01,1.73 0.04,2z"/>
   <path class="fil15" d="M73.49 84.6l-0.15 -0.35c0.17,-0.26 0.6,-0.88 0.92,-0.82 0.08,0.01 0.71,0.61 0.83,0.91l-0.83 0.86c-0.32,-0.09 -0.49,-0.37 -0.77,-0.59 0.04,0.12 0.05,0.2 0.09,0.33 0.5,0.26 0.28,0.28 0.6,0.52 0.3,-0.08 0.23,-0.12 0.61,-0.51 0.15,-0.14 0.13,-0.16 0.24,-0.27 0.16,-0.16 0.24,-0.05 0.27,-0.35 0.02,-0.25 -0.14,-0.33 -0.6,-0.77 -0.01,-0.01 -0.03,-0.03 -0.04,-0.04l-0.4 -0.38c-0.49,0.33 -1.11,0.72 -1.11,1.37 0.14,0.08 0.1,0.05 0.34,0.09z"/>
   <path class="fil15" d="M97.97 93.79c-0.7,0.1 -1.03,0.23 -1.86,0.21 -0.02,-0.4 -0.06,-0.87 0.05,-1.24 0.27,-0.1 0.27,-0.03 0.52,-0.07 0.37,-0.06 0.29,-0.03 0.38,-0.28 -0.19,0 -0.53,-0.02 -0.71,0.02 -0.3,0.07 -0.21,0.16 -0.53,0.24 0,1.35 -0.16,1.45 0.42,1.47 0.29,0.01 0.67,0 0.96,0 0.55,-0.01 0.58,-0.06 0.77,-0.35z"/>
   <path class="fil10" d="M32.58 86.4c0.09,-0.19 0.52,-0.68 0.8,-0.87 0.29,0.07 0.31,0.15 0.5,0.37 0.15,0.16 0.34,0.32 0.47,0.5 -0.1,0.28 -0.68,0.85 -0.97,0.93 -0.17,-0.16 -0.28,-0.29 -0.43,-0.42 -0.3,-0.28 -0.19,-0.13 -0.37,-0.51zm-0.32 0l1.12 1.12c0.25,0 1.11,-0.83 1.11,-1.03 0,-0.39 -0.78,-1.04 -1.03,-1.21 -0.45,0.24 -0.24,0.24 -0.6,0.52l-0.6 0.6z"/>
   <path class="fil10" d="M106.33 97.96l0.15 0.2c-0.13,0.27 -0.76,0.82 -0.95,0.91l-0.89 -0.9c0.09,-0.18 0.61,-0.75 0.89,-0.88 0.41,0.16 0.42,0.39 0.8,0.67zm0 0l0.07 -0.22c-0.44,-0.12 -0.38,-0.36 -0.87,-0.69 -0.22,0.15 -0.34,0.3 -0.54,0.5 -0.76,0.76 -0.62,0.54 0.24,1.52 0.41,0.46 0.79,-0.15 1.15,-0.48 0.41,-0.36 0.37,-0.54 -0.05,-0.63z"/>
   <path class="fil10" d="M33.29 103.24c-0.27,-0.53 -0.47,-0.48 -0.73,-0.95 0.12,-0.29 0.55,-0.77 0.82,-0.89 0.22,0.1 0.37,0.23 0.51,0.38l0.44 0.51c-0.21,0.42 -0.6,0.55 -0.84,0.95 0.32,-0.15 0.99,-0.8 1,-0.86 0.08,-0.3 -0.93,-1.21 -1.11,-1.21 -0.21,0 -0.24,0.14 -0.4,0.3l-0.72 0.74c0.09,0.38 0.16,0.3 0.41,0.53 0.38,0.36 0.18,0.32 0.62,0.5z"/>
   <path class="fil12" d="M89 83.82c0.13,-0.3 0.65,-0.8 0.98,-0.88 0.06,0.04 0.81,0.73 0.81,0.88 0,0.17 -0.67,0.8 -0.81,0.88 -0.37,-0.08 -0.38,-0.22 -0.73,-0.57 -0.25,-0.25 -0.08,0.02 -0.25,-0.31zm-0.13 0c0,0.26 0.83,1.03 1.11,1.03 0.28,0 0.16,-0.06 0.3,-0.21 0.17,-0.17 0.16,-0.12 0.32,-0.28 0.11,-0.1 0.02,-0.03 0.12,-0.14l0.18 -0.17c0.17,-0.22 0.11,-0.1 0.11,-0.48 -0.59,-0.16 -0.68,-0.86 -1.03,-0.86 -0.18,0 -1.11,0.85 -1.11,1.11z"/>
   <path class="fil10" d="M39.65 109.71c-0.34,-0.16 -0.17,-0.13 -0.42,-0.38 -0.18,-0.18 -0.19,-0.11 -0.37,-0.43 0.1,-0.29 0.52,-0.74 0.79,-0.87 0.22,0.1 0.3,0.22 0.44,0.35 0.25,0.25 0.29,0.24 0.38,0.52 -0.14,0.24 -0.5,0.65 -0.82,0.81zm-1.03 -0.89c0.01,0.02 0.02,0.03 0.03,0.05 0,0.04 0.05,0.09 0.06,0.11 0.29,0.42 0.62,0.87 1.2,0.87 0.19,-0.53 0.77,-0.34 0.77,-1.2 -0.7,-0.19 -0.8,-1.28 -1.34,-0.66 -0.09,0.1 0.01,0.02 -0.12,0.15 -0.12,0.13 -0.03,0.02 -0.14,0.12 -0.12,0.11 -0.38,0.44 -0.46,0.56z"/>
   <path class="fil10" d="M106.25 84.08c0.1,-0.29 0.14,-0.3 0.4,-0.52 0.18,-0.15 0.22,-0.24 0.43,-0.35 0.22,0.13 0.7,0.6 0.78,0.87 -0.15,0.28 -0.59,0.71 -0.78,0.81 -0.29,-0.12 -0.67,-0.55 -0.83,-0.81zm-0.21 -0.26l0 0.52c0.65,0.17 0.33,0.69 1.21,0.69 0.17,-0.26 0.12,-0.27 0.39,-0.47 0.6,-0.45 0.38,-0.63 0.12,-0.9 -0.52,-0.55 -0.67,-0.92 -1.22,-0.29 -0.31,0.35 -0.04,0.21 -0.5,0.45z"/>
   <path class="fil10" d="M42.74 85.11c-0.27,0.18 -0.13,0.1 -0.4,0.22 -0.28,-0.42 -0.56,-0.45 -0.81,-0.9 0.1,-0.25 0.63,-0.8 0.87,-0.94 0.25,0.11 0.66,0.54 0.84,0.78 0.09,0.1 0.03,0.03 0.11,0.16 -0.26,0.42 -0.31,0.22 -0.6,0.68 0.25,-0.1 0.06,0.01 0.27,-0.15l0.36 -0.33c0.15,-0.2 0.07,-0.06 0.13,-0.29l-0.38 -0.39c-0.63,-0.63 -0.57,-1.14 -1.77,0.3l-0.08 0.09c0.12,0.23 0.11,0.22 0.27,0.42l0.7 0.68c0.37,0.13 0.42,-0.16 0.49,-0.33z"/>
   <path class="fil12" d="M105.03 83.55c0.22,0.26 0.31,0.24 0.44,0.53 -0.17,0.26 -0.59,0.69 -0.89,0.8 -0.26,-0.19 -0.19,-0.21 -0.39,-0.4 -0.19,-0.2 -0.25,-0.16 -0.37,-0.4 0.08,-0.26 0.58,-0.72 0.79,-0.9l0.42 0.37zm0 0c0.12,-0.37 -0.18,-0.47 -0.53,-0.5 -0.21,0.14 -0.31,0.27 -0.5,0.45 -0.53,0.53 -0.48,0.59 0.05,1.12 0.73,0.73 0.66,0.41 1.19,-0.06 0.28,-0.24 0.63,-0.52 0.16,-0.87 -0.29,-0.21 -0.09,-0.11 -0.37,-0.14z"/>
  </g>
 </g>
</svg>
