<?xml version="1.0" encoding="UTF-8"?>
<!DOCTYPE svg PUBLIC "-//W3C//DTD SVG 1.1//EN" "http://www.w3.org/Graphics/SVG/1.1/DTD/svg11.dtd">
<!-- Creator: CorelDRAW 2020 (64-Bit) -->
<svg xmlns="http://www.w3.org/2000/svg" xml:space="preserve" width="140px" height="140px" version="1.1" style="shape-rendering:geometricPrecision; text-rendering:geometricPrecision; image-rendering:optimizeQuality; fill-rule:evenodd; clip-rule:evenodd"
viewBox="0 0 140 140"
 xmlns:xlink="http://www.w3.org/1999/xlink"
 xmlns:xodm="http://www.corel.com/coreldraw/odm/2003">
 <defs>
  <style type="text/css">
   <![CDATA[
    .fil2 {fill:#585858}
    .fil0 {fill:#949595}
    .fil1 {fill:#C3C3C4}
   ]]>
  </style>
 </defs>
 <g id="Layer_x0020_1">
  <metadata id="CorelCorpID_0Corel-Layer"/>
  <g id="_2738171699792">
   <path class="fil0" d="M25.2 47.13c0.42,0.8 5.01,7.85 5.65,8.79l4.24 6.6c0.25,0.4 0.46,0.73 0.72,1.13 0.19,0.29 0.63,0.83 0.71,1.14 0.37,-0.03 4.32,-1.29 4.83,-1.43l4.88 -1.46c3.13,-0.87 6.56,-2.01 9.76,-2.93 3.97,-1.13 8.1,-2.45 12.1,-3.63 2.01,-0.59 5.68,-1.8 7.36,-2.19 0.16,0.67 0.4,1.36 0.58,2.07l6.49 23.44c0.23,0.8 2.17,8.03 2.4,8.52 0.32,-0.15 18.97,-4.2 20.16,-4.48 0.36,-0.08 6.39,-1.46 6.81,-1.46l-0.57 -1.75c-0.81,-2.15 -1.75,-4.97 -2.56,-7 -1.06,-2.66 -2.13,-6.08 -3.19,-8.77 -0.9,-2.29 -1.68,-4.71 -2.55,-6.99 -0.24,-0.61 -0.45,-1.16 -0.65,-1.77 -0.21,-0.63 -0.43,-1.14 -0.64,-1.76 -1.07,-3.17 -2.64,-7.23 -3.81,-10.48 -0.21,-0.57 -0.45,-1.16 -0.65,-1.76 -0.85,-2.56 -2.21,-6.08 -3.19,-8.77l-2.58 -7.06 -4.12 1.34c-1.42,0.47 -2.78,0.92 -4.16,1.38l-58.02 19.28z"/>
   <path class="fil1" d="M39 73.3c0.04,0.47 3.45,5.89 3.93,6.74 0.11,0.19 0.17,0.31 0.29,0.51 0.12,0.19 0.23,0.34 0.28,0.53l14.16 -4.38c0.37,-0.13 0.66,-0.2 1.04,-0.32 0.39,-0.13 0.64,-0.27 1.1,-0.27 0.04,0.49 0.35,1.26 0.48,1.76 0.88,3.36 2.11,7.35 3.09,10.79 0.18,0.62 0.38,1.22 0.52,1.81l11.16 -2.73c-0.01,-0.5 -1.81,-5.01 -2.12,-5.9l-2.17 -5.86c-0.18,-0.53 -0.34,-1 -0.53,-1.48 -1.08,-2.73 -2.17,-5.98 -3.26,-8.78 -0.1,-0.27 -0.15,-0.45 -0.25,-0.72 -0.48,-1.22 0.07,-0.7 -3.76,0.38 -1.16,0.33 -2.28,0.76 -3.44,1.14l-18.76 6.2c-0.56,0.19 -1.2,0.45 -1.76,0.58z"/>
   <path class="fil2" d="M30.66 108.21c-0.33,0 -0.77,0.04 -0.98,-0.07 -0.25,-0.15 -0.23,-0.46 -0.04,-0.7 0.46,-0.57 0.98,0.32 1.02,0.77zm7.54 -2.65c0,0.38 -0.02,0.13 0.42,0.55 0.65,0.6 1.19,0.87 1.19,1.7 0,0.56 -1.38,0.4 -2.01,0.4 -0.49,0 -0.56,-0.9 -0.56,-1.44l-0.96 0.09c0,0.43 0,1.35 -0.49,1.35 -0.52,0 -0.24,-1.07 -0.24,-1.36l-0.96 -0.1c-0.01,0.33 -0.14,0.69 -0.23,0.91 -0.12,0.29 -0.26,0.55 -0.57,0.63 -0.39,-0.72 0.07,-1.11 -0.05,-1.33 -0.1,-0.17 -0.64,-0.19 -0.92,-0.19 -0.05,0.68 -0.33,1.44 -1.12,1.44 -0.14,-0.6 -0.17,-0.88 -0.5,-1.34 -1.82,-2.54 -4.6,2.47 -0.62,2.47 -0.46,0.67 -1.49,1.14 -2.25,1.2 0,0.27 0.15,0.87 0.24,1.05 1.07,-0.03 2.39,-0.86 2.88,-1.86 0.07,-0.14 0.07,-0.24 0.17,-0.31 0.29,-0.25 0.4,0.11 1.28,-0.48 0.66,0.56 1.43,0.55 1.85,-0.08 0.45,0.3 1.38,0.93 2.01,0 0.92,0.61 0.8,0.48 2.24,0.48 2.18,0 2.2,-2.24 0.87,-3.43 -0.24,-0.21 -0.26,-0.13 -0.46,-0.43l2.16 -0.96c-0.12,-0.24 -0.33,-0.6 -0.4,-0.88 -0.34,0.08 -0.56,0.2 -0.87,0.33l-1.69 0.72c-0.37,0.15 -0.41,0.36 -0.41,0.87z"/>
   <path class="fil2" d="M60.52 108.21l0 0zm0 0c0.11,-0.42 1.34,-1.64 2.49,-1.04 0,1.11 -1.38,1.04 -2.49,1.04zm-0.89 -4.01c0,0.73 0.32,3.1 -0.09,3.68 -0.29,0.4 -0.2,0.33 -0.71,0.33 -0.38,0 -0.77,-0.89 -0.8,-1.28 -0.32,0.07 -0.77,0.27 -1.04,0.4 0.15,0.68 0.86,1.37 0.31,2.24 -0.36,0.55 -1.16,0.98 -1.76,1.29 0.2,0.39 0.43,0.57 0.64,0.89 0.25,-0.17 0.46,-0.26 0.71,-0.42l0.68 -0.53c0.16,-0.14 0.4,-0.48 0.53,-0.67 0.17,-0.26 0.3,-0.5 0.33,-0.87 0.72,0.17 1.72,0.08 2.49,0.08 0.49,0 0.81,-0.12 1.13,-0.13 0.32,-0.01 0.71,0.13 1.2,0.13 1.74,0 2.56,0.1 4.18,-0.55 0.36,-0.15 2,-0.82 2,-1.14l0 -0.8c-1.41,0 -2.7,-1.61 -4.13,-0.52 -0.24,0.18 -0.53,0.48 -0.61,0.76 0.13,0.17 0.51,0.37 0.72,0.48 0.23,-0.15 0.55,-0.56 0.89,-0.56 0.7,0 1.16,0.34 1.76,0.48l-0.1 0.06c-0.01,0.01 -0.08,0.04 -0.1,0.05 -1.54,0.73 -2.54,0.61 -4.21,0.61 0.53,-1.01 0.25,-2.32 -1.21,-2.32 -0.72,0 -1.05,0.31 -1.52,0.56 0,-0.53 -0.05,-1.35 -0.12,-1.89 -0.15,-1.06 -0.09,-0.38 -1.17,-0.36z"/>
   <path class="fil2" d="M86.28 105.56c0,0.36 0.22,0.34 0.83,0.95 0.43,0.43 0.78,0.66 0.78,1.14 0,0.76 -1.03,0.56 -2.01,0.56 -0.32,0 -0.37,-0.4 -0.48,-0.64l-0.69 -1.56c-0.12,-0.3 -0.22,-0.58 -0.35,-0.85 -0.42,0.04 -0.64,0.23 -1.05,0.32 0.1,0.41 0.61,1.35 0.84,1.9 0.12,0.28 0.22,0.39 0.29,0.67 -0.94,0.5 -1.6,-0.21 -1.93,-0.24 -0.08,0.31 -0.32,0.5 -0.48,0.81 0.42,0.63 1.44,0.83 2.33,0.63 0.18,-0.04 0.5,-0.18 0.6,-0.2 0.39,-0.06 0.25,0.29 1.16,0.29 1.15,0 2.73,0.11 2.73,-1.69 0,-1.03 -1.09,-1.76 -1.36,-2.17 0.3,-0.15 1.83,-0.86 2.09,-0.88 -0.02,-0.5 -0.22,-0.53 -0.32,-0.96l-2.58 1.04c-0.36,0.16 -0.4,0.39 -0.4,0.88z"/>
   <path class="fil2" d="M110.45 106.45c0.2,0.39 1.07,1.84 0,1.84 -0.46,0 -0.33,-0.68 -0.3,-1.12 0.01,-0.2 0.21,-0.4 -0.91,-0.4 -0.02,1.19 -1.4,2.72 -0.8,0.16 -0.21,-0.1 -0.63,-0.16 -0.96,-0.16 -0.05,0.51 -0.36,1.44 -0.97,1.44 -0.56,0 -0.83,-0.72 -0.96,-1.28 -0.31,0.07 -0.77,0.27 -1.04,0.4 1.04,1.97 0.49,2.51 -1.45,3.53 0.21,0.31 0.44,0.59 0.64,0.89 0.86,-0.46 2.23,-1.4 2.25,-2.49 0.88,0.2 1.03,0.06 1.61,-0.32 0.3,0.44 0.67,0.4 1.12,0.4 0.38,0 0.58,-0.25 0.8,-0.4 0.52,0.76 2.41,0.47 2.41,-0.81 0,-0.93 -0.13,-1.35 -0.56,-2.16 -0.31,0.16 -0.59,0.32 -0.88,0.48z"/>
   <path class="fil2" d="M75.93 109.82c-0.17,0.65 -1.64,0.64 -2.25,0.64 -2.44,0 -1.05,-2.38 -1.04,-2.97 -0.39,-0.03 -0.45,-0.2 -0.88,-0.24 -0.16,0.66 -0.49,1.18 -0.49,2.17 0,3.06 5.62,2.69 5.62,0.24 0,-1.02 -1.31,-0.82 -2,-1.29 0.08,-0.33 0.22,-0.53 0.46,-0.74 0.69,-0.61 1.11,-0.3 1.46,-0.22 0.15,-0.31 0.24,-0.66 0.4,-0.96 -2.73,-1.45 -4.95,3.37 -1.28,3.37z"/>
   <path class="fil2" d="M95.6 98.74c0.39,-0.59 1.3,-1.25 1.76,-0.56 -0.16,0.63 -0.97,0.56 -1.76,0.56zm-4.82 -0.48c0,-0.22 0.04,-0.22 0.08,-0.4 0.64,-0.17 0.9,0.34 0.32,0.72 -0.11,-0.06 -0.4,-0.17 -0.4,-0.32zm-0.48 -0.24c0,0.81 0.03,0.25 0.16,0.72l-2.09 0c-0.05,0.24 -0.08,0.25 -0.08,0.56 0.4,0.04 0.86,0.15 1.05,0.41 -0.18,0.26 -0.17,0.22 -0.5,0.3 -1.8,0.42 -2.25,-0.46 -1.51,-1.99 -0.3,-0.07 -0.23,-0.13 -0.56,-0.16 -0.04,0.43 -0.32,0.71 -0.32,1.52 0,1.75 2.5,1.37 3.03,0.95 0.4,-0.32 0.5,-0.56 0.26,-1.03 0.47,0 0.78,0.02 1.14,-0.06 0.29,-0.07 0.91,0.06 1.67,0.06 0.39,0 0.29,-0.08 0.59,-0.12 0.39,-0.05 0.06,0.12 0.93,0.12 0.32,0 0.4,-0.16 0.72,-0.24 0.33,0.22 0.59,0.32 1.13,0.32 2.61,0 2.3,-2.08 0.96,-2.08 -0.73,0 -1.55,0.61 -1.68,1.2 -0.32,-0.23 -0.1,-0.16 -0.09,-0.64 -0.19,-0.05 -0.32,-0.09 -0.48,-0.16 -0.17,0.36 -0.15,1.04 -0.72,1.04 -0.44,0 -0.28,-0.71 -0.48,-1.12 -0.16,0.07 -0.37,0.11 -0.56,0.16 0.19,0.84 0.27,0.96 -1.05,0.96 0.32,-0.59 0.28,-1.17 -0.3,-1.46 -0.3,-0.15 -0.51,-0.13 -0.79,0.05 -0.21,0.14 -0.43,0.37 -0.43,0.69z"/>
   <path class="fil2" d="M102.1 107.25c0.61,0.05 0.72,0.41 0.72,0.8 0,0.47 -0.58,0.03 -1.04,-0.08 0.09,-0.4 0.22,-0.31 0.32,-0.72zm-3.93 -2.97c0.15,1.84 0.16,1.19 0.16,3.21 -0.01,0.69 -0.06,1 0.29,1.39 0.97,1.06 2.4,0.03 2.41,0.03 0.51,-0.18 0.18,0.35 1.63,0.35 1.44,0 1.37,-3.05 -0.32,-3.05 -1.17,0 -1.21,1.22 -1.82,1.79 -0.31,0.29 -0.53,0.21 -1.07,0.21 -0.22,-0.96 -0.08,-1.29 -0.08,-2.56 0,-0.58 -0.05,-1.22 -0.16,-1.69 -0.27,0.06 -0.82,0.21 -1.04,0.32z"/>
   <path class="fil2" d="M104.43 98.02c0.76,0.02 0.6,0.72 0.4,0.72 -0.25,0 -0.47,-0.14 -0.64,-0.24 0.1,-0.19 0.18,-0.27 0.24,-0.48zm1.52 0c0.3,0.07 0.23,0.13 0.56,0.16 0.19,-0.71 1.32,-0.07 1.61,0 -0.02,0.01 -0.04,0.01 -0.05,0.03 -0.04,0.1 -1.33,0.53 -1.96,0.53 -0.88,0 -0.51,-0.18 -0.71,-0.73 -0.2,-0.58 -1.1,-0.96 -1.62,0.09 -0.77,1.55 -1.43,-0.04 -1.6,-0.16 -0.21,0.05 -0.29,0.14 -0.48,0.24 0.05,0.18 1.24,2.01 -0.81,2.01 -0.47,0 -0.81,-0.21 -0.92,-0.61 -0.11,-0.42 0.2,-0.9 0.28,-1.24 -0.16,-0.11 -0.32,-0.21 -0.48,-0.32 -0.11,0.46 -0.4,0.67 -0.4,1.28 0,1.93 3.13,1.99 3.29,0 0.86,0 0.56,0.03 1.14,-0.22 0.39,-0.18 0.22,0.22 1.11,0.22 0.38,0 -0.04,-0.11 0.32,-0.11 0.36,0 -0.06,0.11 0.32,0.11 0.86,0 1.04,0.07 1.82,-0.19 0.29,-0.09 0.64,-0.27 0.91,-0.29 0.18,0.66 1.88,0.61 2.31,0.23 0.49,-0.44 0.18,-1.29 -0.06,-1.75 -0.25,0.06 -0.24,0.1 -0.48,0.16 0.01,0.81 0.87,1.28 -0.65,1.28 -0.29,0 -0.44,-0.07 -0.64,-0.16 0.13,-0.18 0.39,-0.24 0.38,-0.59 -0.02,-0.31 -0.34,-0.19 -0.7,-0.29 -0.8,-0.21 -1.33,-0.86 -2.11,-0.18 -0.18,0.15 -0.31,0.25 -0.38,0.5z"/>
   <path class="fil2" d="M93.43 107.01c0.01,0.35 0.08,0.38 0.08,0.8 -0.74,0 -0.53,-0.04 -0.96,-0.08 0.19,-0.36 0.45,-0.49 0.88,-0.72zm-1.77 0.72c0,1.17 1.37,1.11 1.94,1.12 1.02,0.02 -0.04,0.49 2.16,0.49 2.26,0 2.14,-1.82 1.36,-3.29 -0.44,0.03 -0.62,0.3 -1.04,0.4 0.99,1.88 0.73,1.76 -1.13,1.76 -0.46,0 -0.47,-1.99 -0.55,-2.57 -0.04,-0.25 0.02,-0.28 -0.23,-0.3 0,0 -0.45,0.09 -0.47,0.09 -0.63,0.14 -0.26,0.12 -0.48,0.57 -0.1,0.2 -0.5,0.31 -0.69,0.43 -0.35,0.25 -0.87,0.74 -0.87,1.3z"/>
   <path class="fil2" d="M50.24 105.48c0.13,0.57 0.74,1.65 1,2.23 0.25,0.56 -0.16,0.5 -0.68,0.5 -0.63,0 -0.66,-0.29 -1.12,-0.4 -0.09,0.36 -0.39,0.45 -0.48,0.81 0.43,0.64 1.43,0.84 2.26,0.65 0.34,-0.08 0.29,-0.13 0.53,-0.2 0.37,-0.11 0.55,0.27 1.14,0.27 1.61,0 2.73,0.07 2.73,-1.77 0,-0.4 -0.33,-1.24 -0.48,-1.52 -0.24,0.02 -0.85,0.3 -1.04,0.4 0.24,0.46 0.56,0.92 0.56,1.6 -1.04,0.25 -0.57,0.16 -1.85,0.16 -0.39,0 -1.03,-1.81 -1.18,-2.19 -0.11,-0.28 -0.28,-0.6 -0.34,-0.86 -0.44,0.01 -0.61,0.22 -1.05,0.32z"/>
   <path class="fil2" d="M47.11 106.45c0.12,0.52 0.51,0.87 0.56,1.52 -0.51,0.35 -0.86,0.24 -1.68,0.24 -0.37,0 -0.73,-0.94 -0.8,-1.28 -0.24,0.05 -0.83,0.3 -1.05,0.4 1.03,1.94 0.59,2.46 -1.44,3.53 0.21,0.31 0.44,0.59 0.64,0.89 0.86,-0.46 2.22,-1.36 2.25,-2.49 0.7,0.16 1.93,0.17 2.47,-0.26 0.99,-0.8 0.49,-2.06 0.02,-2.95 -0.33,0.02 -0.71,0.26 -0.97,0.4z"/>
   <path class="fil2" d="M63.01 98.74c0.14,-0.53 1.19,-1.11 1.62,-0.73 0.3,0.28 -0.07,0.51 -0.37,0.62 -0.4,0.16 -0.74,0.11 -1.25,0.11zm-5.06 -1.83l0.72 1.67c-1.37,0.32 -0.47,0.08 -1.36,-0.16 -0.13,0.19 -0.22,0.26 -0.24,0.56 0.51,0.14 0.16,0.32 1.12,0.32 0.64,0 0.47,-0.31 0.91,-0.11 0.34,0.14 -0.07,0.11 0.94,0.11 0.32,0 0.26,-0.11 0.49,-0.13 0.32,-0.01 0.74,0.41 1.51,-0.11 0.52,0.12 0.49,0.32 1.29,0.32 3.18,0 1.92,-3.17 -0.17,-1.68 -0.4,0.28 -0.43,0.59 -0.72,0.8 0,-0.38 0.02,-0.36 0.08,-0.64 -0.23,-0.06 -0.24,-0.08 -0.56,-0.08 -0.31,1.34 -0.95,1.13 -1.03,0.55 -0.04,-0.25 -0.07,-0.51 -0.09,-0.71 -0.16,0.07 -0.37,0.11 -0.56,0.16 0.03,0.45 0.35,0.96 -0.65,0.96 -0.38,0 -0.77,-1.34 -1.12,-2l-0.56 0.17z"/>
   <path class="fil2" d="M38.04 98.74c0.15,-0.63 0.26,-0.68 0.32,-0.96l0.24 0c0.07,0.26 0.25,0.77 -0.56,0.96zm-1.68 -2.65c0,0.8 0.08,1.33 0.07,2.17 -0.01,0.98 0.25,1.04 1.21,1.04 0.15,0.66 0.67,1.09 1.2,1.37 0.15,-0.27 0.06,-0.23 0.33,-0.4 -0.63,-1.19 1.05,-0.85 1.46,-1.11 0.76,-0.49 0.17,-1.46 0.14,-1.86 -0.3,0.07 -0.22,0.13 -0.56,0.16 0.03,0.39 0.24,0.62 0.24,0.96 0,0.48 -0.82,0.24 -1.21,0.4 -0.62,0.25 -0.5,0.66 -0.8,0.89 -0.05,-0.25 -0.1,-0.24 -0.16,-0.49 1.18,-0.27 1.07,-2 0.24,-2 -0.55,0 -0.96,0.89 -0.96,1.52 -0.32,0 -0.33,-0.02 -0.56,-0.08l-0.08 -2.73c-0.18,0.09 -0.32,0.14 -0.56,0.16z"/>
   <path class="fil2" d="M49.52 98.74c0.2,-0.3 0.24,-0.28 0.24,-0.8 0.26,0.14 0.4,0.15 0.48,0.48 -0.18,0.28 -0.26,0.32 -0.72,0.32zm-0.8 -0.16c-0.42,-0.36 -0.41,-0.58 0,-0.96 0.16,0.04 0.48,0.15 0.48,0.32 0,0.41 -0.21,0.5 -0.48,0.64zm-2.17 -2.49l0.08 1.93c-0.01,1.68 0.73,1.24 2.01,1.21 0.86,-0.03 2.08,0.5 2.08,-0.97 0,-0.5 -0.49,-0.74 -0.87,-0.9 -1.27,-0.52 -1.31,-0.74 -1.58,-0.34l-0.44 1.08c0,0.23 0.11,0.42 0.17,0.64 -0.96,0 -0.73,-0.02 -0.73,-1.04 0.01,-0.69 -0.08,-1.04 -0.08,-1.69 -0.37,0 -0.33,0.05 -0.64,0.08z"/>
   <path class="fil2" d="M32.26 98.74c0.12,-0.23 0.22,-0.47 0.24,-0.8 0.27,0.18 0.4,0.15 0.4,0.48 0,0.31 -0.32,0.32 -0.64,0.32zm-0.88 -0.16c-0.19,-0.28 -0.24,-0.12 -0.24,-0.56 0,-0.19 -0.08,-0.06 0.23,-0.33 0.01,-0.01 0.03,-0.03 0.04,-0.04 0.01,-0.01 0.03,-0.02 0.05,-0.03 0.62,0.33 0.51,0.65 -0.08,0.96zm-2.09 -2.49l0.15 2.83c0.32,0.63 1.45,0.31 1.94,0.31 0.51,0 2.09,0.46 2.09,-0.89 0,-0.9 -2.18,-1.52 -2.41,-1.52 -0.09,0.33 0,-0.02 -0.13,0.27 -0.11,0.24 -0.04,0.12 -0.1,0.27 -0.14,0.35 -0.47,0.68 -0.09,1.38 -0.43,0 -0.48,0 -0.81,-0.08l-0.08 -2.65c-0.27,0.01 -0.31,0.06 -0.56,0.08z"/>
   <path class="fil2" d="M71.11 97.54c0.87,1.63 -0.21,1.11 -2.01,1.19 -0.49,0.02 -0.39,0.11 -0.39,0.57 0.45,0.11 0.9,0.09 1.04,0.49 -0.39,0.26 -2.33,0.84 -2.33,-0.57 0,-0.56 0.2,-0.75 0.24,-1.2 -0.19,-0.1 -0.21,-0.14 -0.48,-0.16 -0.15,0.65 -0.32,0.6 -0.32,1.6 0,1.93 4.03,1.38 3.29,-0.16 0.38,0 1.85,0.19 1.85,-0.8 0,-0.47 -0.16,-0.9 -0.32,-1.2 -0.24,0.05 -0.38,0.14 -0.57,0.24z"/>
   <path class="fil2" d="M80.26 104.28c0.25,1.05 0.3,3.5 0.22,4.74 -0.01,0.29 -0.1,0.33 0.29,0.28 0.29,-0.03 0.54,-0.1 0.78,-0.12 0,-0.79 0.13,-1.79 0.08,-2.73l-0.24 -2.49c-0.39,0.03 -0.75,0.23 -1.13,0.32z"/>
   <path class="fil2" d="M28.17 99.71c-0.22,0.6 -3.39,1.19 -2.09,-1.53 -0.17,-0.08 -0.31,-0.14 -0.56,-0.16 -0.15,0.31 -0.28,0.7 -0.32,1.09l0 0.43c0.04,0.36 0.18,0.69 0.5,0.95 0.83,0.67 3.03,0.26 3.03,-0.78 0,-0.74 -0.76,-0.61 -1.28,-0.89 0.02,-0.32 0.16,-0.5 0.38,-0.66 0.28,-0.2 0.47,-0.14 0.9,-0.14l0.17 -0.56c-0.48,-0.04 -1.64,-0.28 -1.94,1.05 -0.24,1.08 0.91,1.05 1.21,1.2z"/>
   <path class="fil2" d="M26.72 107.33c0.82,1.71 0.68,2.37 -1.52,3.53 0.16,0.3 0.49,0.63 0.56,0.89 0.86,-0.23 2.41,-1.47 2.41,-2.97 0,-0.78 -0.26,-1.24 -0.4,-1.85 -0.32,0.07 -0.77,0.27 -1.05,0.4z"/>
   <path class="fil2" d="M82.99 97.06c0.3,0.08 0.48,0.33 0.66,0.54 0.18,0.23 0.38,0.46 0.34,0.72 -0.07,0.55 -0.71,0.42 -1.24,0.42 -0.38,0 -0.24,-0.62 -0.24,-1.28 0,-0.6 -0.08,-0.96 -0.08,-1.45 -0.38,0 -0.33,0.06 -0.64,0.08 0.12,0.53 0.08,1.28 0.08,1.93 0,0.39 -0.03,0.65 0.13,0.92 0.29,0.49 1.02,0.36 1.72,0.36 0.48,0 0.88,-0.39 0.88,-0.96 0,-0.73 -0.6,-1.09 -0.88,-1.52 0.43,-0.11 0.93,-0.45 1.36,-0.49l-0.17 -0.55c-0.27,0.02 -0.89,0.3 -1.17,0.42 -0.75,0.33 -0.55,0.04 -0.75,0.86z"/>
   <path class="fil2" d="M78.58 107.33c0.19,0.8 1.34,1.81 -0.92,3.18 -0.25,0.15 -0.45,0.22 -0.61,0.43 0.2,0.29 0.39,0.47 0.57,0.81 3.65,-1.94 2.08,-3.86 2,-4.82l-1.04 0.4z"/>
   <path class="fil2" d="M78.9 97.38c0.31,0.2 0.31,0.23 0.4,0.64 -0.41,0 -0.41,-0.06 -0.72,-0.08 0.01,-0.4 0.07,-0.4 0.32,-0.56zm-0.8 0.32c0,0.58 0.23,0.88 0.96,0.88l0 0.08c-0.86,0 -1.41,0.46 -1.69,-0.72 -0.33,0.03 -0.26,0.09 -0.56,0.16 0.04,0.39 0.24,0.62 0.24,0.96 0,0.79 -0.9,0.96 -1.2,1.37 0.06,0.24 0.12,0.31 0.24,0.48 0.64,-0.43 1.32,-0.73 1.53,-1.61 0.54,0 1.06,0.04 1.49,-0.11 1.4,-0.49 0.58,-2.37 -0.05,-2.37 -0.5,0 -0.96,0.23 -0.96,0.88z"/>
   <path class="fil2" d="M53.05 98.42c0,-0.3 0.09,-0.32 0.32,-0.48 0.34,0.17 0.48,0.37 0.49,0.8 -0.3,0 -0.81,0.06 -0.81,-0.32zm-0.56 0.08c0,0.3 0.19,0.53 0.39,0.66 0.28,0.18 0.55,0.14 0.98,0.14 -0.12,0.21 -0.15,0.38 -0.35,0.54 -0.64,0.47 -1.74,0.19 -1.74,-0.54 0,-0.46 0,-0.54 0.24,-1.04l-0.48 -0.24c-0.12,0.51 -0.32,0.48 -0.32,1.28 0,1.68 3.21,2.19 3.21,-0.56 0,-1.66 -1.93,-1.83 -1.93,-0.24z"/>
   <path class="fil2" d="M75.21 98.02c0.49,0.13 0.75,1.05 -0.32,0.48 0.13,-0.24 0.1,-0.32 0.32,-0.48zm-2.57 -1.93l0.08 1.93c-0.01,1 0.09,1.28 1.12,1.28 0.22,0 0.22,-0.03 0.38,-0.1 0.78,-0.39 0.34,0.1 1.15,0.1 0.93,0 1.1,-1.84 -0.16,-1.84 -0.92,0 -0.55,1.28 -1.61,1.28 -0.49,0 -0.08,-1.28 -0.32,-2.57 -0.08,-0.4 -0.2,-0.11 -0.64,-0.08z"/>
   <path class="fil2" d="M43.34 98.42c0,-0.3 0.09,-0.32 0.32,-0.48 0.3,0.2 0.44,0.34 0.48,0.8 -0.34,0 -0.8,0.01 -0.8,-0.32zm-0.56 0c0,0.37 0.16,0.58 0.39,0.73 0.29,0.17 0.51,0.15 0.97,0.15 -0.27,0.52 -0.83,0.84 -1.44,0.89 0,0.31 0.02,0.32 0.08,0.56 2.41,0 2.43,-3.37 0.88,-3.37 -0.64,0 -0.88,0.88 -0.88,1.04z"/>
   <path class="fil2" d="M55.38 98.42c0,-0.3 0.09,-0.32 0.32,-0.48 0.3,0.2 0.44,0.34 0.48,0.8 -0.36,0 -0.8,0.04 -0.8,-0.32zm-0.56 0c0,0.86 0.79,0.88 1.36,0.88 -0.27,0.52 -0.82,0.84 -1.44,0.89 0,0.31 0.02,0.32 0.08,0.56 0.93,0 1.93,-0.76 1.93,-1.69 0,-1.97 -1.26,-1.93 -1.66,-1.33 -0.08,0.11 -0.27,0.55 -0.27,0.69z"/>
   <path class="fil2" d="M34.27 97.3c0.44,0.23 1,0.73 1.12,1.28 -0.75,0.4 -0.85,-0.02 -1.52,-0.08 -0.07,0.3 -0.13,0.23 -0.16,0.56 0.37,0.09 0.77,0.34 1.26,0.29 1.77,-0.18 0.59,-2.28 -0.38,-2.53 -0.11,0.16 -0.21,0.31 -0.32,0.48z"/>
   <path class="fil2" d="M80.59 98.02c0.03,0.37 0.24,0.69 0.24,1.04 0,0.46 -0.79,1.11 -1.21,1.21 0.03,0.33 0.09,0.26 0.16,0.56 0.6,-0.14 1.61,-0.92 1.61,-1.61 0,-1.06 -0.09,-0.7 -0.24,-1.36 -0.16,0.07 -0.37,0.11 -0.56,0.16z"/>
   <path class="fil2" d="M111.17 96.09c0.13,0.56 0.16,1.63 0.16,2.33 0,0.45 -0.08,0.48 -0.08,0.88l0.64 -0.08 0 -2.55c-0.02,-0.34 -0.08,-0.36 -0.08,-0.74 -0.22,0.05 -0.42,0.11 -0.64,0.16z"/>
   <path class="fil2" d="M54.36 110.24l-0.67 -0.5c-0.3,0.16 -0.45,0.28 -0.64,0.56l0.63 0.66 0.6 -0.56c0.1,0.07 0.23,0.14 0.35,0.25 0.17,0.13 0.17,0.18 0.35,0.29 0.24,-0.16 0.56,-0.4 0.64,-0.72 -0.34,-0.09 -0.46,-0.39 -0.72,-0.56l-0.54 0.58z"/>
   <path class="fil2" d="M46.07 110.46c0.32,0.09 0.36,0.3 0.64,0.48 0.32,-0.08 0.37,-0.29 0.64,-0.48 0.29,0.2 0.28,0.29 0.65,0.48 0.28,-0.19 0.44,-0.27 0.64,-0.56l-0.63 -0.66 -0.64 0.6 -0.64 -0.6c-0.26,0.18 -0.58,0.43 -0.66,0.74z"/>
   <path class="fil2" d="M33.8 105.42l0.65 0.69 0.61 -0.56c0.31,0.09 0.5,0.35 0.65,0.58l0.66 -0.63 -0.64 -0.68 -0.6 0.57c-0.21,-0.14 -0.45,-0.38 -0.7,-0.55l-0.63 0.58z"/>
   <path class="fil2" d="M95.1 110.36c0.21,0.31 0.37,0.39 0.66,0.58l0.54 -0.49c0.32,0.09 0.51,0.35 0.66,0.57l0.71 -0.66 -0.61 -0.64c-0.25,0.18 -0.49,0.41 -0.74,0.58l-0.54 -0.58 -0.68 0.64z"/>
   <path class="fil2" d="M86.28 103.96l0 0.48 2.81 -1.12c-0.08,-0.17 -0.11,-0.19 -0.16,-0.4l-2.65 1.04z"/>
   <path class="fil2" d="M65.41 104.92c0.11,0.17 0.64,0.61 0.81,0.73l0.74 -0.71c-0.21,-0.3 -0.54,-0.55 -0.82,-0.74 -0.28,0.41 -0.57,0.51 -0.73,0.72z"/>
   <path class="fil2" d="M83.15 103.96c0.07,0.26 0.16,0.28 0.34,0.46 0.19,0.19 0.2,0.27 0.47,0.34l0.74 -0.7 -0.76 -0.72c-0.27,0.17 -0.42,0.52 -0.79,0.62z"/>
   <path class="fil2" d="M50.08 104.04l0.71 0.74c0.28,-0.19 0.56,-0.48 0.82,-0.66l-0.74 -0.79c-0.27,0.18 -0.6,0.42 -0.79,0.71z"/>
   <path class="fil2" d="M34.49 104.5l0.56 0.6c0.31,-0.09 0.59,-0.37 0.66,-0.66 -0.31,-0.08 -0.36,-0.3 -0.64,-0.48l-0.58 0.54z"/>
   <path class="fil2" d="M53.69 111.18l0.61 0.65 0.04 0 0.58 -0.55 -0.56 -0.6c-0.14,0.1 -0.24,0.16 -0.36,0.25 -0.14,0.11 -0.15,0.15 -0.31,0.25z"/>
   <path class="fil2" d="M39.89 96.74c0.31,0.08 0.28,0.24 0.4,0.24 0.17,0 0.4,-0.24 0.4,-0.33 0,-0.19 -0.2,-0.3 -0.32,-0.48 -0.55,0.37 -0.46,0.28 -0.48,0.57z"/>
   <path class="fil2" d="M60.12 96.9c0.09,0.13 0.34,0.3 0.48,0.4l0.41 -0.47c-0.35,-0.25 -0.42,-0.64 -0.89,0.07z"/>
   <path class="fil2" d="M109.72 96.57c0,0.17 0.24,0.41 0.33,0.41 0.27,0 0.11,-0.15 0.48,-0.24l0 -0.25c-0.31,-0.08 -0.24,-0.15 -0.48,-0.32 -0.07,0.11 -0.33,0.35 -0.33,0.4z"/>
   <path class="fil2" d="M90.7 96.33l0.46 0.5 0.44 -0.48c-0.12,-0.08 -0.36,-0.34 -0.42,-0.34 -0.2,0 -0.3,0.2 -0.48,0.32z"/>
   <path class="fil2" d="M92.71 96.82l0.41 0.46c0.24,-0.15 0.17,-0.22 0.47,-0.3 -0.07,-0.27 0.05,-0.04 -0.14,-0.27 -0.36,-0.44 -0.42,-0.11 -0.74,0.11z"/>
   <path class="fil2" d="M107.08 100.03c0.09,0.13 0.34,0.3 0.48,0.4 0.07,-0.1 0.32,-0.35 0.32,-0.4 0,0 -0.21,-0.89 -0.8,0z"/>
   <path class="fil2" d="M100.55 98.08c0.28,0.16 0.29,0.2 0.5,0.34l0.42 -0.38 -0.4 -0.44 -0.52 0.48z"/>
   <path class="fil2" d="M78.4 96.16l0.4 0.43c0.24,-0.16 0.39,-0.25 0.42,-0.58 -0.29,-0.08 -0.17,-0.08 -0.4,-0.24l-0.42 0.39z"/>
   <path class="fil2" d="M71.27 99.95l0.39 0.42 0.35 -0.41c-0.07,-0.1 -0.2,-0.34 -0.33,-0.34 -0.23,0 -0.31,0.19 -0.41,0.33z"/>
   <polygon class="fil2" points="52.5,96.75 52.87,97.15 53.31,96.75 52.91,96.4 "/>
   <path class="fil2" d="M53.37 96.74c0,0.22 0.19,0.3 0.32,0.4l0.39 -0.34 -0.37 -0.4c-0.11,0.07 -0.34,0.2 -0.34,0.34z"/>
   <path class="fil2" d="M70.45 99.93l0.4 0.44 0.36 -0.41c-0.19,-0.28 -0.15,-0.19 -0.42,-0.34l-0.34 0.31z"/>
  </g>
 </g>
</svg>
