<?xml version="1.0" encoding="UTF-8"?>
<!DOCTYPE svg PUBLIC "-//W3C//DTD SVG 1.1//EN" "http://www.w3.org/Graphics/SVG/1.1/DTD/svg11.dtd">
<!-- Creator: CorelDRAW 2020 (64-Bit) -->
<svg xmlns="http://www.w3.org/2000/svg" xml:space="preserve" width="140px" height="140px" version="1.1" style="shape-rendering:geometricPrecision; text-rendering:geometricPrecision; image-rendering:optimizeQuality; fill-rule:evenodd; clip-rule:evenodd"
viewBox="0 0 140 140"
 xmlns:xlink="http://www.w3.org/1999/xlink"
 xmlns:xodm="http://www.corel.com/coreldraw/odm/2003">
 <defs>
  <style type="text/css">
   <![CDATA[
    .fil1 {fill:#3C3C3C}
    .fil0 {fill:lightgrey}
   ]]>
  </style>
 </defs>
 <g id="Layer_x0020_1">
  <metadata id="CorelCorpID_0Corel-Layer"/>
  <g id="_2738312288816">
   <path class="fil0" d="M70.61 36.24c0,1.17 0.13,2.32 0.45,3.38 0.11,0.4 0.19,0.72 0.31,1.06l1.45 3.82 -2.18 -0.88c-0.76,-0.3 -1.54,-0.52 -2.34,-0.73l-3.16 -0.67c-1.41,-0.18 -2.94,-0.19 -4.41,-0.19 -0.62,0 -0.94,0.13 -1.53,0.17 -0.79,0.06 -2.01,0.46 -2.77,0.72 -0.5,0.18 -1.91,0.82 -2.32,1.17 -0.89,0.78 -2.57,6.05 -2.24,6.37 0.2,0.21 9.67,0.08 10.4,0.08 0.35,0.68 0.68,1.35 1.03,2.03 0.21,0.4 0.87,1.81 1.09,1.98 0.25,-0.07 0.91,-0.85 1.12,-1.1l6.69 -7.53c0.13,-0.15 0.12,-0.18 0.26,-0.34 0.2,-0.22 0.39,-0.41 0.62,-0.57 0.15,0.22 0.22,0.41 0.35,0.67l2.36 4.53c0.11,0.2 0.13,0.16 0.18,0.42l6.39 0c0.84,-1.25 1.11,-3.33 1.11,-4.85 0,-1.03 -2.46,-4.04 -3.43,-5.01 -0.96,-0.96 -2,-1.73 -3.18,-2.44 -1.23,-0.74 -2.51,-1.3 -3.92,-1.69 -0.24,-0.07 -0.23,-0.08 -0.54,-0.15 -0.49,-0.09 -1.41,-0.4 -1.79,-0.25z"/>
   <path class="fil0" d="M63.8 58.8l-2.68 -5.24c-0.43,-0.82 -0.21,-0.63 -2.26,-0.63 -0.53,0 -0.07,2.06 0,2.72 0.13,1.25 1,4.1 1.37,5.11 0.77,2.13 2.05,4.4 3.68,6.03l1.24 1.14c0.42,0.34 2.11,1.52 2.57,1.52 2.9,0 3.8,-0.17 6.26,-0.97 0.3,-0.1 0.53,-0.2 0.74,-0.29 1.73,-0.71 4.69,-2.5 5.6,-3.85 -0.18,-0.34 -0.36,-0.42 -0.66,-0.71 -0.7,-0.66 -1.69,-1.19 -2.56,-1.61 -0.34,-0.15 -0.6,-0.25 -0.98,-0.38l-3.72 -0.45c0.18,-0.27 2.12,-1.42 2.58,-1.77 0.3,-0.22 0.51,-0.41 0.81,-0.63l1.14 -0.99c0.89,-0.83 1.7,-1.51 2.55,-2.56 0.23,-0.29 0.41,-0.49 0.64,-0.8 0.91,-1.23 1.3,-1.44 0.29,-1.43 -1.96,0.01 -3.92,0 -5.88,0 -0.27,-0.39 -1.76,-3.5 -1.79,-3.83 -0.53,0.05 -1.21,1.17 -1.72,1.68 -0.26,0.27 -0.34,0.35 -0.57,0.63l-5.45 6.13c-0.2,0.25 -0.96,1.12 -1.2,1.18z"/>
   <path class="fil1" d="M50.43 58.8c-2.42,0 -3.2,-1.48 -2.34,0.72l1.36 2.9c0.62,1.15 1.92,3.14 2.75,3.98l2.5 2.44 2.12 1.54c1.37,0.92 2.6,1.4 4.11,2.02 0.94,0.39 1.95,0.58 2.92,0.83 0.42,0.1 0.56,0.09 1.02,0.17l3.44 0.3c0.63,0 4.6,-0.18 5.03,-0.76l-2.15 -0.5c-0.27,-0.07 -0.32,-0.1 -0.52,-0.16l-1.02 -0.34c-2.49,-0.93 -5.75,-2.82 -7.33,-4.84l-0.9 -1.15c-1.03,-1.45 -1.2,-1.83 -1.95,-3.41 -0.15,-0.32 -0.27,-0.62 -0.41,-0.96 -0.61,-1.42 -1.24,-3.88 -1.47,-5.34 -0.23,-1.48 -0.46,0.4 -3.83,1.81 -0.15,0.07 -0.32,0.11 -0.49,0.18 -0.91,0.35 -1.77,0.57 -2.84,0.57z"/>
   <path class="fil1" d="M84.91 44.16c0,1.22 0.06,1.58 -0.12,2.77 -0.15,1.02 -0.08,1.2 -0.45,2.44 -0.33,1.1 -0.71,2.09 -1.26,3.08 -0.21,0.37 -0.31,0.58 -0.53,0.92 -1.22,1.88 -1.22,1.74 -2.48,3.32 -0.2,0.25 -0.47,0.49 -0.71,0.73 -0.26,0.26 -0.46,0.46 -0.72,0.72l-2.32 2.03c0.16,0.23 0.2,0.2 0.54,0.3 0.38,0.11 0.28,0.1 0.61,0.24 0.49,0.21 0.78,0.35 1.22,0.57l1.09 0.7c1.5,1.23 2.9,2.51 3.29,4.63 0.04,0.25 0.13,0.47 0.14,0.79 0.46,-0.03 0.09,0.04 0.71,-0.57 0.23,-0.24 0.4,-0.46 0.62,-0.74 0.21,-0.27 0.36,-0.49 0.54,-0.73 0.99,-1.29 1.82,-2.67 2.53,-4.2 0.31,-0.66 0.72,-1.63 0.91,-2.33 0.04,-0.17 0.09,-0.29 0.16,-0.52l0.41 -1.55c0.05,-0.29 0.07,-0.29 0.13,-0.55l0.38 -3.71c0,-0.87 -0.16,-1.48 -0.17,-2.3 -0.01,-1.23 -0.84,-3.79 -1.27,-4.95l-1.21 -2.54c-0.59,-1.03 -2.02,-3.16 -2.85,-4.04 -0.18,-0.19 -0.14,-0.19 -0.46,-0.22 0.58,1.22 1.27,4.31 1.27,5.71z"/>
   <path class="fil1" d="M47.79 48.42c0.32,-0.09 0.41,-0.47 0.82,-1.06 0.48,-0.7 1.16,-1.47 1.76,-2.07 0.17,-0.18 0.29,-0.3 0.46,-0.47 1.32,-1.27 3.7,-2.72 5.48,-3.3 1.75,-0.58 3.05,-0.8 4.94,-0.85 0.42,-0.01 0.45,-0.11 0.83,-0.08 2.37,0.2 3.52,0.2 6.01,0.81 0.58,0.15 1.11,0.37 1.58,0.37 0,-0.44 -0.14,-0.67 -0.28,-1.24 -0.39,-1.62 -0.37,-3.98 0.15,-5.53 0.27,-0.8 1.2,-2.65 1.92,-2.85l0 -0.25c-0.3,-0.07 -0.28,-0.17 -0.59,-0.17l-5.2 0 -1.79 0.33c-2.33,0.26 -4.6,1.37 -6.65,2.46l-1.06 0.65c-0.88,0.58 -1.67,1.22 -2.4,1.94 -0.37,0.38 -0.68,0.69 -1.06,1.07 -1.54,1.53 -2.86,4.05 -3.71,5.99l-0.84 2.4c-0.06,0.19 -0.07,0.26 -0.11,0.4 -0.12,0.39 -0.26,0.95 -0.26,1.45z"/>
   <path class="fil1" d="M99.39 102.82c0.17,-0.62 2.29,-2.31 3.09,-1.04 0.74,1.17 -2.4,1.04 -3.09,1.04zm-10.47 -1.53l1.87 0.09c-0.06,0.24 -0.02,0.11 -0.17,0.25 0,0 -0.24,0.18 -0.29,0.22 -0.24,0.18 -0.33,0.3 -0.65,0.38 -0.2,-0.14 -1.46,-0.94 -0.76,-0.94zm9.53 1.28c-0.62,-0.94 0.21,-1.46 -0.4,-1.43 -0.13,0.01 -0.47,0.23 -0.61,0.58 -0.31,0.81 -0.26,1.1 -1.37,1.1 -1.53,0 -1.04,-1.03 -1.02,-1.62 -1.23,-0.26 -0.48,1.62 -2.3,1.62 -0.56,0 -1.51,0.05 -1.96,-0.17 0.2,-0.56 0.86,-0.35 1.21,-1.52 0.18,-0.62 0.22,-0.77 -0.28,-0.94 -1.09,-0.39 -3.13,-0.32 -4.16,0 -0.43,0.14 -0.68,0.99 -0.69,1.44 0.98,0 0.89,0.76 1.54,0.94l0 0.17c-0.78,0.06 -2.73,0.39 -3.01,-0.41 -0.11,-0.33 0.1,-0.69 0.11,-1.13 -1.22,0.03 -0.56,1.23 -1.64,1.52 -1.44,0.38 -3.74,0.76 -5.17,0.02 -0.26,-0.13 -0.56,-0.31 -0.74,-0.54 -0.52,-0.7 -0.37,-1.27 -0.2,-2.02 -0.25,-0.16 -0.25,-0.17 -0.59,-0.25 -1.99,4.13 1.82,5.74 5.65,4.71l1.43 -0.43c0.71,-0.25 0.05,-0.2 0.49,-0.2 0.22,0 0.61,0.52 1.11,0.52 1.16,0 2.16,0.13 3.17,-0.5 0.84,-0.52 0.48,-0.27 1.47,0.2 0.71,0.34 2.62,0.52 3.26,0.02l0.22 -0.21c0.26,-0.23 0.05,-0.17 0.4,-0.2 0.24,0.93 2.74,0.98 3.06,0.09 0.54,0.01 0.32,0.12 0.69,0.34 0.79,0.47 3.21,0.38 4.25,-0.26 1.1,-0.68 1.54,-2.09 1.08,-3.12 -0.49,-1.12 -1.19,-1.05 -1.93,-1.05 -1.3,0 -2.78,2.53 -3.07,2.73z"/>
   <path class="fil1" d="M70.44 86.73c0.53,0.04 1.95,1.28 0.94,1.28 -0.35,0 -0.97,-0.15 -1.2,-0.26 0.12,-0.5 0.26,-0.3 0.26,-1.02zm-2.47 -0.08c0,-0.56 1.02,-1.42 1.56,-0.54 0.25,0.42 0.39,0.83 -0.06,1.09 -1.04,0.6 -1.5,-0.51 -1.5,-0.55zm-0.77 0.34c0,0.43 0.06,0.36 0.09,0.68l-1.1 0.03c-1.33,-0.07 -0.52,-1.45 -0.66,-1.71 -0.12,-0.24 -0.26,-0.08 -0.4,0.01 -0.56,0.34 -0.45,0.76 -0.71,1.27 -0.19,0.39 -1.3,0.96 -1.09,-0.15 0.08,-0.44 0.65,-1.52 -0.41,-0.76 -0.53,0.39 -0.25,0.91 -0.88,1.26 -1,0.55 -0.93,-1.17 -1.48,-1.57 -0.47,0.13 -0.85,1.22 -0.85,1.28 0,0.18 0.77,1.06 0.77,1.95 0,0.38 -0.46,0.64 -0.74,0.8 -0.82,0.49 -1.76,0.59 -2.59,-0.02 -0.78,-0.58 -0.53,-1.79 -0.16,-2.56 -0.32,-0.22 -0.11,-0.25 -0.6,-0.26 -0.11,0.41 -1.42,2.7 0.11,4.24 1.62,1.64 4.69,0.29 4.74,-2.02 0.75,0 0.72,-0.14 1.28,-0.52 0.44,0.3 0.33,0.52 1.11,0.52 0.41,0 0.94,-0.43 1.11,-0.69 0.62,0.42 0.7,0.69 1.87,0.69l1.4 -0.3c0.8,-0.26 0.65,-0.1 1.69,0.1 1.3,0.26 2.31,0.51 2.88,-0.9 0.83,-2.03 -1.28,-2.84 -3.02,-4.24 -0.5,-0.4 -0.63,-0.68 -0.85,-0.41 -0.06,0.07 -0.14,0.45 -0.19,0.59 -0.12,0.34 -0.13,0.28 -0.37,0.48l-0.18 0.16c-0.5,0.53 -0.77,1.26 -0.77,2.05z"/>
   <path class="fil1" d="M111.57 87.75c-0.79,0 -0.47,0.03 -0.69,-0.08 0.12,-0.44 1.3,-1.45 2.13,-1.45 1.36,0 2.02,1.53 -1.44,1.53zm3.49 -1.62l0 1.07c-0.04,0.3 -0.15,0.57 -0.47,1.03 -0.94,1.37 -4.02,1.52 -5.06,0.87 -0.17,-0.1 -0.2,-0.1 -0.26,-0.33 -0.38,0.04 -0.37,0.2 -0.71,0.41 -0.91,0.55 -2.5,0.26 -2.7,-0.49 -0.21,0.05 -1.54,1.45 -2.76,0.38 -0.28,-0.25 -0.32,-0.43 -0.48,-0.72 -0.26,0.19 -0.34,0.51 -0.82,0.8 -0.9,0.53 -2.84,0.72 -2.84,-1.74 0,-0.55 0.14,-0.59 0.51,-0.59 0.51,0 0,1.12 1.46,0.86 0.87,-0.14 1.28,-0.19 1.12,-1.13 -0.19,-1.02 -0.4,-1.38 -0.54,-1.94 -0.07,-0.31 0.45,-1.24 0.94,-1.29 0.03,0.35 0.09,0.29 0.16,0.61 0.07,0.32 0.06,0.33 0.15,0.62 0.34,1.16 0.2,3.12 1.31,3.12 1.41,0 1.21,-0.29 1.58,-1.06 0.08,-0.16 0.44,-0.49 0.6,-0.53 0.43,-0.1 0.21,0.21 0.21,0.99 0,0.65 1.5,0.8 1.97,0.45 0.57,-0.42 0.28,-1.33 1.26,-1.56 0.18,0.75 -0.26,0.68 0.26,1.45 0.28,-0.18 0.45,-0.57 0.67,-0.86 2.39,-3.27 4.44,-1.46 4.44,-0.42z"/>
   <path class="fil1" d="M45.49 85.28c0.54,-0.81 1.53,-0.45 1.79,0.68 -0.24,0 -0.84,-0.08 -1.05,-0.14 -0.04,-0.01 -0.39,-0.15 -0.43,-0.17 -0.31,-0.17 -0.15,-0.07 -0.31,-0.37zm-4.85 4.18c1.15,0 1.33,-0.52 1.7,-0.77 0.22,0.16 0.45,0.77 1.62,0.77 1.7,0 4.51,0.37 4.51,-2.13 0,-0.94 -0.16,-1.75 -0.4,-2.41 -0.72,-2.03 -2.24,-1.65 -3.04,-0.35 -0.58,0.94 -0.47,2.22 0.68,2.62 0.56,0.2 1.12,0.14 1.83,0.14 -0.09,0.33 -0.28,0.28 -0.69,0.34 -0.85,0.1 -3.83,0.36 -3.83,-0.68 0,-0.48 0.09,-0.51 0.09,-0.94 -0.98,0.02 -0.87,0.99 -1.22,1.33 -0.46,0.43 -1.45,0.39 -2.02,0.12 -0.19,-0.85 -0.06,-3.49 -0.08,-4.69 0,-0.54 -0.16,-0.96 -0.17,-1.44 -0.44,0.03 -0.58,0.26 -0.84,0.52 -0.41,0.44 -0.24,0.51 -0.19,1.1 0.08,0.93 0,1.76 0.14,2.67 0.16,1.03 -0.51,3.8 1.91,3.8z"/>
   <path class="fil1" d="M90.7 86.22c1.15,-1.32 2.35,0.77 1.62,0.77 -0.38,0 -0.77,-0.08 -1.04,-0.15 -0.49,-0.13 -0.41,-0.26 -0.58,-0.62zm-0.76 0c0,0.83 -0.13,1.44 0.67,1.97 0.64,0.43 1.48,0.32 2.22,0.23 -0.08,0.33 -0.27,0.43 -0.52,0.59 -1.06,0.71 -2.53,1.2 -3.76,0.56 -0.7,-0.36 -1.1,-1.26 -1.05,-2.06 0.02,-0.43 0.22,-0.96 0.22,-1.38 -0.2,-0.1 -0.36,-0.16 -0.68,-0.17 -0.04,0.47 -0.42,0.96 -0.42,2.64 0,1.58 1.15,2.98 2.89,2.98 2.14,0 4.26,-1.25 4.26,-3.66 0,-3.07 -2.09,-4.94 -3.51,-2.57 -0.1,0.16 -0.32,0.65 -0.32,0.87z"/>
   <path class="fil1" d="M66.1 100.95c0.37,0 0.57,-0.05 0.89,0.39 0.16,0.21 0.27,0.41 0.3,0.72 -1,0 -1.39,0.04 -1.87,-0.51 0.08,-0.36 0.24,-0.6 0.68,-0.6zm-1.45 0.34c0,0.97 -0.17,1.7 0.92,2.15 0.56,0.23 1.18,0.15 1.98,0.15 -0.08,0.28 -0.07,0.21 -0.55,0.56 -2.15,1.55 -5.25,1.04 -4.72,-2.08 0.09,-0.54 0.48,-0.82 -0.44,-1.04 -0.71,1.48 -0.85,3.78 0.58,5.05 1.25,1.12 3.75,0.68 5.06,-0.59 1.35,-1.31 1.17,-3.04 0.51,-4.73 -1.13,-2.84 -3.34,-0.43 -3.34,0.53z"/>
   <path class="fil1" d="M28.46 89.2c-0.08,0.31 -0.14,0.24 -0.44,0.41 -1.09,0.64 -2.54,1.08 -3.58,0.12 -1.43,-1.31 0.41,-3 -1,-3 -0.04,0.44 -0.34,0.77 -0.34,1.02l0 2.03c0.05,0.3 0.15,0.58 0.35,0.94 1.32,2.33 5.15,1.14 5.95,-1.01 0.82,-2.21 -0.97,-2.21 -1.56,-2.35 -0.05,-0.01 -0.25,-0.07 -0.27,-0.08 -0.46,-0.1 -0.54,0.01 -0.81,-0.38 0.1,-0.39 1.52,-1.81 2.06,-0.7 0.09,0.18 0.15,0.4 0.33,0.53 0.18,-0.05 0.25,-0.02 0.44,-0.49 0.26,-0.67 0.32,-0.97 -0.03,-1.63 -0.58,-1.08 -2.03,-0.02 -2.61,0.52 -0.39,0.36 -0.85,1.09 -1,1.64 -0.61,2.21 1.23,2.13 2.51,2.43z"/>
   <path class="fil1" d="M37.74 102.74c0,0.64 0.39,1.05 0.91,1.22 0.52,0.17 1.35,0.21 1.73,0.4 -0.39,0.58 -3.47,2.01 -4.46,-0.05 -0.41,-0.86 -0.11,-1.6 0.04,-2.25 -0.19,-0.13 -0.25,-0.2 -0.51,-0.26 -0.7,1.04 -1.07,4.06 1.03,5.1 1.66,0.82 5.01,-0.65 5.01,-2.97 0,-0.71 -0.43,-1.2 -1.05,-1.33 -0.52,-0.11 -1.76,-0.14 -1.76,-0.63 0,-0.35 0.9,-0.92 1.21,-1.01 0.87,-0.26 0.71,0.58 1.18,0.93 0.47,-0.26 -0.24,0.23 0.1,-0.07 1.09,-0.95 0.26,-4.02 -2.04,-1.79l-0.31 0.29c-0.61,0.61 -1.08,1.29 -1.08,2.42z"/>
   <path class="fil1" d="M83.04 85.88c0,0.55 0.48,0.76 0.68,1.62 -0.64,0.3 -1.95,0.25 -2.72,0.25 -0.55,0 -0.8,-0.26 -1.04,-0.58 -0.24,-0.33 -0.34,-0.73 -0.66,-0.95 -0.85,1.26 -0.65,1.3 -0.26,1.96l0.43 0.68c0,0.84 -0.93,1.8 -1.99,2.1 -0.34,0.1 -0.21,0.07 -0.58,0.11 -0.35,0.03 -0.41,-0.03 -0.41,0.34 0,0.48 1.43,0.77 1.78,0.77 0.57,0 1.15,-0.53 1.44,-0.95 0.32,-0.47 0.61,-1.01 0.61,-1.77 1.37,0 3.06,0.21 3.85,-0.66 0.34,-0.37 0.46,-0.86 0.57,-1.31 0.12,-0.47 0,-1.19 -0.22,-1.72 -0.1,-0.23 -0.16,-0.36 -0.26,-0.6 -0.13,-0.31 -0.13,-0.32 -0.37,-0.48 -0.29,0.19 -0.85,1.04 -0.85,1.19z"/>
   <path class="fil1" d="M35.19 86.73c0,-0.47 0.79,-0.57 1.19,-0.34 0.17,0.09 1.05,1.02 0.43,1.02 -0.64,0 -0.59,0.01 -1.16,-0.2 -0.21,-0.08 -0.46,-0.24 -0.46,-0.48zm-0.85 0.17c0,0.72 -0.08,1.28 0.81,1.83 0.43,0.26 1.09,0.21 1.74,0.21 -0.1,0.41 -0.7,0.85 -1.05,1.08 -0.23,0.15 -0.4,0.27 -0.65,0.37 -1.74,0.72 -2.21,-0.4 -2.21,0.51 0,0.37 1.46,1.02 1.96,1.02 1.01,0 1.75,-0.29 2.41,-1.41 0.44,-0.76 0.49,-0.95 0.65,-1.75 0.12,-0.64 -0.03,-2.06 -0.31,-2.74 -1.13,-2.67 -3.35,-0.28 -3.35,0.88z"/>
   <path class="fil1" d="M74.44 86.73c0.75,-1.41 2.33,0.68 1.62,0.68 -0.63,0 -1.29,-0.07 -1.62,-0.68zm-0.85 0.51c0,1.69 1.44,1.7 2.55,1.7 -0.17,0.66 -1.67,1.71 -2.97,1.71 -0.35,0 -0.94,-0.38 -0.94,0.25 0,0.27 0.58,0.51 0.82,0.63 1.58,0.79 2.54,0.45 3.54,-1.03 0.88,-1.31 0.95,-3.13 0.32,-4.54 -1.13,-2.54 -3.32,-0.4 -3.32,1.28z"/>
   <path class="fil1" d="M51.11 86.73c0,-0.41 0.93,-0.91 1.63,0.17 0.36,0.55 0.03,0.51 -0.35,0.51 -0.43,0 -1.28,-0.28 -1.28,-0.68zm-0.85 0.26c0,0.58 -0.07,1.35 0.85,1.78 0.44,0.2 1.07,0.17 1.71,0.17 -0.71,1.06 -1.81,1.71 -3.15,1.71 -0.38,0 -0.77,-0.44 -0.77,0.25 0,0.24 0.14,0.27 0.31,0.38 0.82,0.5 1.92,0.98 2.85,0.4 0.63,-0.4 1.1,-0.98 1.42,-1.64 1.28,-2.61 -0.38,-6.74 -2.4,-4.71l-0.21 0.22c-0.26,0.31 -0.61,0.9 -0.61,1.44z"/>
   <path class="fil1" d="M56.48 101.89c0,-0.85 1.68,-0.63 1.78,0.59 -0.96,0.23 -1.78,-0.3 -1.78,-0.59zm-0.85 0.08c0,0.85 -0.11,1.17 0.61,1.77 0.66,0.54 1.49,0.31 1.94,0.27 -0.53,1.01 -1.89,1.79 -3.07,1.79 -0.44,0 -0.85,-0.55 -0.85,0.26 0,0.28 0.64,0.53 0.88,0.65 1.38,0.69 2.43,0.44 3.35,-0.94 0.9,-1.36 1.08,-3.27 0.38,-4.75 -1.16,-2.48 -3.24,-0.11 -3.24,0.95z"/>
   <path class="fil1" d="M95.56 86.73c0,-0.47 0.79,-0.57 1.19,-0.34 0.19,0.11 1.02,1.02 0.43,1.02 -0.49,0 -1.62,-0.13 -1.62,-0.68zm-0.85 0.17c0,0.61 -0.11,1.43 0.85,1.87 0.43,0.2 1.07,0.17 1.7,0.17 -0.58,1.09 -1.9,1.71 -3.15,1.71 -0.38,0 -0.77,-0.44 -0.77,0.25 0,0.24 0.14,0.27 0.31,0.38 0.19,0.11 0.3,0.18 0.49,0.28 0.75,0.4 1.05,0.36 1.84,0.36 0.37,0 -0.02,0.03 0.25,-0.09 0,-0.01 0.2,-0.1 0.22,-0.12 1.05,-0.56 1.92,-2.08 1.92,-3.36 0,-1.15 -0.25,-3.58 -1.79,-3.58 -0.14,0 -0.54,0.2 -0.67,0.27 -0.65,0.38 -1.2,1.31 -1.2,1.86z"/>
   <path class="fil1" d="M72.91 101.12l0.68 1.21c0.19,0.46 -0.18,0.49 -1.28,0.49 -0.95,0 -1.1,0.12 -1.57,-0.56l-0.37 -0.64c-0.09,-0.19 -0.03,0.03 -0.1,-0.24 -0.41,0.03 -0.36,0.18 -0.5,0.51 -0.11,0.25 -0.27,0.44 -0.27,0.76 0,0.35 0.77,1.2 0.77,1.36 0,0.79 -0.92,1.79 -1.94,2.06 -0.3,0.08 -1.04,0.01 -1.04,0.33 0,0.42 0.28,0.52 0.87,0.75 1.5,0.56 2.52,-0.62 2.84,-1.73 0.21,-0.73 -0.13,-0.91 0.71,-0.9 1.06,0.01 1.92,0.12 2.53,-0.79 1.02,-1.54 0.09,-3.56 -0.39,-3.89 -0.27,0.07 -0.13,0 -0.3,0.22l-0.64 1.06z"/>
   <path class="fil1" d="M49.15 102.82c-0.83,0 -1.19,0.09 -1.77,-1.2 -0.08,-0.19 -0.03,0.03 -0.1,-0.24 -0.41,0.03 -0.36,0.18 -0.5,0.51 -0.11,0.25 -0.27,0.44 -0.27,0.76 0,0.35 0.77,1.2 0.77,1.36 0,0.6 -0.65,1.36 -1.02,1.62 -1.1,0.8 -1.96,0.31 -1.96,0.77 0,0.79 1.74,1.02 2.24,0.8 0.69,-0.3 1.3,-1.12 1.49,-1.84 0.19,-0.77 -0.14,-0.86 0.78,-0.84 0.75,0.01 0.98,0.07 1.53,-0.17 1.3,-0.56 1.44,-2.18 0.88,-3.6 -0.12,-0.31 -0.27,-0.73 -0.53,-0.91 -0.35,0.09 -0.32,0.32 -0.67,0.78 -0.37,0.48 -0.32,0.49 0,0.99 0.82,1.31 0.34,1.1 -0.14,1.17 -0.28,0.04 -0.42,0.04 -0.73,0.04z"/>
   <path class="fil0" d="M51.62 53.01c0,0.72 0.1,1.07 0.16,1.64 0.05,0.47 0.21,1.86 0.4,2.24 0.2,0.42 0.73,0.04 1.25,-0.2 1.73,-0.79 1.51,-0.9 2.71,-1.8 0.33,-0.25 1.02,-1.11 1.26,-1.48 0.11,-0.18 0.34,-0.48 -0.07,-0.48 -0.84,0 -5.24,-0.1 -5.71,0.08z"/>
   <path class="fil1" d="M32.38 88.52c0,0.37 -0.55,1.04 -0.78,1.26 -1.18,1.08 -1.79,0.84 -2.18,0.98 -1.13,0.38 1.96,2.26 3.26,-0.15 0.72,-1.35 0.91,-2.96 0.21,-4.39 -0.33,-0.67 -0.44,-0.99 -0.85,-1.02 -0.2,0.74 -0.89,1.09 -0.56,1.65 0.2,0.32 0.9,1.31 0.9,1.67z"/>
   <path class="fil1" d="M40.9 106.14c0,0.46 2.22,1.98 3.62,-0.71 0.64,-1.22 0.65,-2.93 0.03,-4.13 -0.08,-0.17 -0.19,-0.36 -0.29,-0.56 -0.17,-0.31 -0.12,-0.38 -0.56,-0.39 -0.23,0.87 -0.95,1.09 -0.45,1.73 0.29,0.38 0.87,1.3 0.75,1.8 -0.18,0.74 -1.48,1.72 -2.12,1.88 -0.38,0.1 -0.98,0 -0.98,0.38z"/>
   <path class="fil1" d="M52.39 97.88c0,0.87 0.18,1.34 0.17,2.3l0.09 2.47c0,0.61 -0.18,1.76 0,2.13 1.12,-0.3 1.11,-2.69 1.1,-3.58 0,-0.52 -0.07,-0.66 -0.09,-1.1 -0.02,-0.96 0.06,-2.47 -0.16,-3.41 -0.47,0.01 -0.19,-0.04 -0.66,0.45 -0.22,0.22 -0.45,0.33 -0.45,0.74z"/>
   <path class="fil1" d="M66.1 97.46l-0.47 -0.56c-0.01,-0.01 -0.02,-0.03 -0.04,-0.04l-0.08 -0.09c-0.25,-0.23 -0.24,-0.27 -0.53,0 -0.01,0.01 -0.03,0.03 -0.04,0.04l-0.63 0.73c0.08,0.3 0.76,0.94 1.02,1.11 0.36,-0.09 0.85,-0.64 0.94,-1.02l1 0.95c0.04,-0.03 0.06,-0.07 0.07,-0.05l0.18 -0.16c0.25,-0.22 0.53,-0.49 0.62,-0.83 -0.33,-0.5 -0.6,-0.77 -1.11,-1.1 -0.06,0.1 -0.85,0.96 -0.93,1.02z"/>
   <path class="fil1" d="M62.86 84.09c-0.86,-1.29 -1.13,-0.61 -1.35,-0.33 -0.22,0.29 -0.25,0.23 -0.44,0.59 0.15,0.16 0.93,0.93 1.11,0.93 0.29,0 0.79,-0.71 0.85,-0.93 0.53,0.28 0.58,0.57 1.11,0.85 1.22,-1.06 0.68,-1.23 0.32,-1.6 -0.25,-0.25 -0.28,-0.36 -0.66,-0.45 -0.27,0.19 -0.44,0.61 -0.94,0.94z"/>
   <path class="fil1" d="M80.49 91.58c0.19,0.2 0.9,0.89 1.1,1.03 0.29,-0.19 0.76,-0.58 0.86,-0.94 0.77,0.2 0.64,1.29 1.47,0.45 0.39,-0.4 0.54,-0.42 0.27,-0.84 -0.01,-0.01 -0.02,-0.03 -0.03,-0.04 -0.73,-0.97 -0.94,-0.9 -1.39,-0.36 -0.25,0.3 -0.15,0.41 -0.58,0.45 -0.09,-0.36 -0.49,-0.67 -0.77,-0.85l-0.93 1.1z"/>
   <path class="fil1" d="M43.36 98.23c-0.36,-0.25 -0.56,-0.74 -1.02,-0.86 -0.2,0.14 -0.31,0.26 -0.47,0.46 -0.58,0.74 -0.43,0.63 -0.16,0.86 0.12,0.11 0.15,0.12 0.27,0.24 0.19,0.18 0.35,0.32 0.53,0.49 0.35,-0.19 0.74,-0.53 0.85,-0.94 0.57,0.05 0.32,0.35 1.11,0.77 0.36,-0.25 0.61,-0.58 0.85,-0.94 -0.26,-0.49 -0.65,-0.8 -1.1,-1.11 -0.2,0.14 -0.32,0.26 -0.48,0.46 -0.17,0.22 -0.31,0.31 -0.38,0.57z"/>
   <path class="fil1" d="M91.47 82.39c-0.2,-0.15 -0.5,-0.65 -0.94,-0.94l-0.95 0.92c0.08,0.28 0.9,1.12 1.12,1.12 0.26,0 0.83,-0.72 0.86,-1.02l1 0.96c1.38,-0.97 0.74,-1.17 0.41,-1.6 -0.21,-0.28 -0.29,-0.38 -0.65,-0.46 -0.2,0.14 -0.23,0.28 -0.44,0.49 -0.25,0.23 -0.32,0.15 -0.41,0.53z"/>
   <path class="fil1" d="M81.25 98.65c-0.47,-0.25 -0.66,-0.85 -1.02,-0.85 -0.26,0 -0.09,0.02 -0.45,0.4 -0.13,0.15 -0.4,0.31 -0.4,0.54 0,0.21 0.81,1.02 1.02,1.02 0.21,0 0.37,-0.23 0.5,-0.36 0.22,-0.23 0.27,-0.23 0.35,-0.58 0.44,0.12 0.63,0.63 0.94,0.85 0.34,-0.08 0.94,-0.55 0.94,-0.93 0,-0.17 -0.5,-0.73 -0.66,-0.88l-0.28 -0.23c-0.34,0.18 -0.9,0.6 -0.94,1.02z"/>
   <path class="fil1" d="M78.78 84.09c-0.23,-0.16 -0.65,-0.77 -0.93,-0.77 -0.25,0 -0.79,0.79 -0.85,1.03 0.13,0.2 0.29,0.36 0.49,0.52 0.85,0.69 0.66,0.44 1.06,0.01 0.23,-0.24 0.29,-0.16 0.32,-0.53 0.36,0.09 0.8,0.64 1.11,0.85 0.37,-0.33 0.6,-0.56 0.85,-1.02 -0.21,-0.31 -0.78,-0.94 -1.11,-1.03 -0.45,0.3 -0.51,0.66 -0.94,0.94z"/>
   <path class="fil1" d="M41.41 84.09c0,0.24 0.37,0.51 0.54,0.65 0.28,0.21 0.41,0.38 0.65,0.54 0.01,-0.01 0.04,-0.05 0.04,-0.04l0.19 -0.15c0.1,-0.09 0.17,-0.15 0.26,-0.26 0.53,-0.62 0.48,-0.74 -0.13,-1.27 -0.92,-0.8 -0.81,-0.49 -1.16,-0.02 -0.14,0.18 -0.39,0.32 -0.39,0.55z"/>
   <path class="fil1" d="M71.89 106.82c0.7,0.19 0.74,0.93 1.45,0.94 0.12,-0.46 0.57,-0.7 0.68,-1.11 -0.2,-0.3 -0.91,-1 -1.28,-1.1 -0.32,0.27 -0.84,0.85 -0.85,1.27z"/>
   <path class="fil1" d="M93.26 99.25c0.2,0.29 1.08,1.1 1.28,1.1 0.31,0 0.85,-0.91 0.85,-1.02 0,-0.32 -1.06,-1.1 -1.19,-1.1 -0.25,0 -0.79,0.8 -0.94,1.02z"/>
   <path class="fil1" d="M49.15 98.05c0.44,0.12 0.73,0.79 1.28,0.94 0.3,-0.2 0.75,-0.73 0.85,-1.11 -0.16,-0.23 -0.1,-0.11 -0.3,-0.29 -0.34,-0.31 -0.46,-0.54 -0.97,-0.81 -0.18,0.16 -0.31,0.33 -0.48,0.54 -0.25,0.32 -0.37,0.29 -0.38,0.73z"/>
   <path class="fil1" d="M104.75 84.09c0.18,0.34 0.29,0.36 0.58,0.62 0.15,0.12 0.19,0.13 0.33,0.26 0.09,0.08 0.08,0.08 0.12,0.13l0.17 0.18c0.43,-0.23 0.93,-0.81 0.93,-1.1 0,-0.26 -0.04,-0.12 -0.43,-0.51 -0.89,-0.87 -0.79,-0.75 -1.23,-0.14 -0.19,0.26 -0.31,0.33 -0.47,0.56z"/>
   <path class="fil1" d="M45.15 81.54l1.19 1.1c0.41,-0.11 0.94,-0.91 0.94,-1.02 0,-0.31 -1.01,-1.05 -1.28,-1.19l-0.85 1.11z"/>
   <path class="fil1" d="M62.95 83.49c0.33,-0.17 0.19,-0.12 0.45,-0.4 0.25,-0.27 0.22,-0.2 0.4,-0.53 -0.25,-0.46 -0.65,-0.86 -1.11,-1.11 -0.23,0.16 -0.89,0.8 -0.82,1.07 0.05,0.19 0.37,0.39 0.52,0.51 0.28,0.22 0.3,0.33 0.56,0.46z"/>
   <path class="fil1" d="M77.68 82.39c0.17,0.32 0.79,0.89 1.1,1.1 0.36,-0.18 0.86,-0.63 0.86,-0.93 0,-0.23 -0.84,-1.04 -1.11,-1.11 -0.1,0.07 -0.77,0.82 -0.85,0.94z"/>
   <path class="fil1" d="M42.17 96.52c0.15,0.22 0.32,0.39 0.54,0.57 0.27,0.24 0.41,0.39 0.65,0.45 0.18,-0.11 0.3,-0.23 0.46,-0.4 0.25,-0.25 0.22,-0.23 0.31,-0.62l-1 -1.04c-0.36,0.25 -0.73,0.7 -0.96,1.04z"/>
   <path class="fil1" d="M81.68 93.2c0,0 1.02,1.02 1.02,1.02 0.29,-0.08 0.77,-0.6 0.94,-0.85 -0.11,-0.44 -0.83,-1.12 -1.11,-1.19 -0.17,0.11 -0.79,0.79 -0.85,1.02z"/>
  </g>
 </g>
</svg>
