<?xml version="1.0" encoding="UTF-8"?>
<!DOCTYPE svg PUBLIC "-//W3C//DTD SVG 1.1//EN" "http://www.w3.org/Graphics/SVG/1.1/DTD/svg11.dtd">
<!-- Creator: CorelDRAW 2020 (64-Bit) -->
<svg xmlns="http://www.w3.org/2000/svg" xml:space="preserve" width="140px" height="140px" version="1.1" style="shape-rendering:geometricPrecision; text-rendering:geometricPrecision; image-rendering:optimizeQuality; fill-rule:evenodd; clip-rule:evenodd"
viewBox="0 0 140 140"
 xmlns:xlink="http://www.w3.org/1999/xlink"
 xmlns:xodm="http://www.corel.com/coreldraw/odm/2003">
 <defs>
  <style type="text/css">
   <![CDATA[
    .fil2 {fill:#777878}
    .fil1 {fill:#939393}
    .fil0 {fill:#ACACAC}
   ]]>
  </style>
 </defs>
 <g id="Layer_x0020_1">
  <metadata id="CorelCorpID_0Corel-Layer"/>
  <g id="_2738304676288">
   <path class="fil0" d="M23.36 88.28c0.16,-0.14 0.31,-0.4 0.46,-0.6 0.19,-0.25 0.31,-0.44 0.48,-0.69l2.86 -4.03c0.35,-0.46 0.6,-0.86 0.94,-1.32l2.6 -3.68c0.31,-0.37 0.46,-0.38 0.79,-0.05 0.09,0.08 0.14,0.19 0.25,0.34 0.18,0.25 0.34,0.45 0.5,0.68l4.82 6.77c0.17,0.24 0.29,0.4 0.45,0.64 0.47,0.73 1.33,1.44 1.37,2.34l-1.08 0.89c-0.14,0.11 -0.27,0.18 -0.41,0.29 -0.18,0.13 -0.19,0.15 -0.4,0.28l-1.49 0.78c-1.7,0.92 -4.91,1.1 -6.9,0.63 -1.26,-0.3 -1.53,-0.49 -2.51,-0.96 -0.8,-0.39 -1.8,-1.07 -2.41,-1.72 -0.29,-0.3 -0.22,-0.41 -0.32,-0.59zm7.66 -25.84c0.5,0.17 0.19,-0.1 0.71,0.69l3.11 4.35c0.2,0.27 0.33,0.47 0.52,0.76l3.64 5.11c0.31,0.44 0.38,0.29 0.47,0.98 -0.87,0.58 -1.42,1.49 -3.48,2.36 -0.28,0.11 -0.15,0.08 -0.46,0.22l-1.67 0.52c-2,0.44 -4.55,0.32 -6.54,-0.34l-0.74 -0.26c-0.02,-0.01 -0.04,-0.02 -0.07,-0.03 -0.24,-0.13 0.03,0 -0.24,-0.14 -0.22,-0.1 -0.29,-0.11 -0.49,-0.2 -0.29,-0.14 -0.26,-0.15 -0.44,-0.26 -0.15,-0.09 -0.26,-0.13 -0.45,-0.24 -0.19,-0.12 -0.31,-0.21 -0.47,-0.33l-1.65 -1.3c0.09,-0.7 0.39,-0.83 0.98,-1.66l4.13 -5.79c0.18,-0.26 0.31,-0.5 0.51,-0.77l2.63 -3.67zm-8.25 11.69c-0.64,0.95 -1.37,1.99 -1.76,3.16 -0.89,2.65 -0.85,5.69 0.31,8.21 0.84,1.81 1.46,2.13 2.04,2.98 -1.35,2.54 -2.02,5.62 -0.63,8.49 1,2.05 0.92,1.54 1.8,2.71 0.99,1.32 3.39,2.38 5.17,2.7 0.37,0.07 0.7,0.04 1.08,0.1 1.02,0.15 2.94,-0.3 3.71,-0.61l2.15 -1.19c0.21,-0.17 0.45,-0.35 0.65,-0.53 1.51,-1.4 2.97,-3.96 2.97,-6.07 0,-2.11 -0.12,-3.72 -1.38,-5.6 0.75,-0.55 1.7,-2.29 2.1,-3.11 1.18,-2.45 1.25,-5.68 0.22,-8.25 -0.12,-0.3 -0.23,-0.48 -0.34,-0.74 -0.13,-0.34 -0.21,-0.5 -0.39,-0.79 -0.28,-0.48 -0.81,-1.11 -0.9,-1.46 0.43,-0.64 0.64,-0.71 1.16,-1.49 0.19,-0.3 0.37,-0.52 0.54,-0.83 0.18,-0.32 0.32,-0.62 0.46,-0.92 2.05,-4.14 1.1,-8.85 -1.61,-12.44 -0.31,-0.41 -0.51,-0.74 -0.82,-1.15 -2.12,-2.83 -4.38,-6.33 -6.5,-9.13 -0.26,-0.34 -1.37,-2.03 -1.68,-2.24 -0.36,0.26 -0.8,1.11 -1.12,1.53l-8.97 12.65c-1.46,2.73 -2,5.75 -1.21,8.82 0.18,0.73 0.43,1.36 0.75,1.99 0.43,0.86 1.48,2.69 2.2,3.21z"/>
   <path class="fil1" d="M28.39 66.11c-0.2,0.27 -0.33,0.51 -0.51,0.77l-4.13 5.79c-0.59,0.83 -0.89,0.96 -0.98,1.66l1.65 1.3c0.16,0.12 0.28,0.21 0.47,0.33 0.19,0.11 0.3,0.15 0.45,0.24 0.18,0.11 0.15,0.12 0.44,0.26 0.2,0.09 0.27,0.1 0.49,0.2 0.27,0.14 0,0.01 0.24,0.14 0.03,0.01 0.05,0.02 0.07,0.03l0.74 0.26c1.99,0.66 4.54,0.78 6.54,0.34l1.67 -0.52c0.31,-0.14 0.18,-0.11 0.46,-0.22 2.06,-0.87 2.61,-1.78 3.48,-2.36 -0.09,-0.69 -0.16,-0.54 -0.47,-0.98l-3.64 -5.11c-0.19,-0.29 -0.32,-0.49 -0.52,-0.76l-3.11 -4.35c-0.52,-0.79 -0.21,-0.52 -0.71,-0.69l-2.63 3.67z"/>
   <path class="fil1" d="M23.36 88.28c0.1,0.18 0.03,0.29 0.32,0.59 0.61,0.65 1.61,1.33 2.41,1.72 0.98,0.47 1.25,0.66 2.51,0.96 1.99,0.47 5.2,0.29 6.9,-0.63l1.49 -0.78c0.21,-0.13 0.22,-0.15 0.4,-0.28 0.14,-0.11 0.27,-0.18 0.41,-0.29l1.08 -0.89c-0.04,-0.9 -0.9,-1.61 -1.37,-2.34 -0.16,-0.24 -0.28,-0.4 -0.45,-0.64l-4.82 -6.77c-0.16,-0.23 -0.32,-0.43 -0.5,-0.68 -0.11,-0.15 -0.16,-0.26 -0.25,-0.34 -0.33,-0.33 -0.48,-0.32 -0.79,0.05l-2.6 3.68c-0.34,0.46 -0.59,0.86 -0.94,1.32l-2.86 4.03c-0.17,0.25 -0.29,0.44 -0.48,0.69 -0.15,0.2 -0.3,0.46 -0.46,0.6z"/>
   <path class="fil2" d="M63.06 65.68c2.51,0 2.06,0.39 2.06,-1.77 0,-1.22 0.14,-5.59 -0.1,-6.09 0.23,0.08 0.08,0 0.23,0.16l5.62 7.25c0.45,0.62 0.39,0.45 2.01,0.45l0 -11.3 -1.96 0 0 7.66 -3.01 -3.87c-0.27,-0.37 -0.46,-0.59 -0.74,-0.93l-2.05 -2.67c-0.13,-0.13 0.01,-0.19 -0.29,-0.19l-1.77 0 0 11.3z"/>
   <path class="fil2" d="M91.56 59.88l-3.05 0 0 -3.63c1.59,0 5.11,-0.43 5.11,1.47 0,1.24 -0.38,2.16 -2.06,2.16zm-5.11 5.51c0,0.48 0.77,0.29 2.06,0.29l0 -3.93c2.81,0 2.3,-0.24 3.05,0.88l2.16 3.05 2.36 0c-0.09,-0.34 -0.49,-0.78 -0.69,-1.08l-1.89 -2.63c-0.18,-0.26 -0.3,-0.34 -0.37,-0.61 0.69,-0.06 1.67,-0.84 2.01,-1.34 0.51,-0.74 0.65,-1.59 0.55,-2.59 -0.2,-1.98 -1.93,-3.05 -3.74,-3.05l-5.5 0 0 11.01z"/>
   <path class="fil2" d="M97.55 60.08c0,1.19 0.39,2.35 0.96,3.26l0.64 0.84c0.13,0.14 0.6,0.5 0.76,0.62 0.28,0.2 0.59,0.35 0.95,0.52 1.76,0.85 3.69,0.66 5.42,-0.05 0.4,-0.15 1.88,-0.92 1.88,-1.36l0 -4.62 -4.61 0c-0.55,0 -0.29,1.49 -0.2,1.87l2.85 0 0 1.77c0,0.89 -5.9,2.81 -6.46,-2.78 -0.22,-2.17 2.01,-5.19 5.41,-3.74 0.23,0.1 0.51,0.23 0.71,0.37 0.28,0.19 0.38,0.35 0.73,0.45 0.12,-0.45 0.81,-0.87 1.18,-1.57 -0.56,-0.38 -0.91,-0.69 -1.57,-0.99 -1.62,-0.72 -3.83,-0.69 -5.47,0.13 -1.87,0.94 -3.18,2.9 -3.18,5.28z"/>
   <path class="fil2" d="M52.25 65.39c0,0.22 0.07,0.29 0.29,0.29l8.26 0 0 -1.87 -6.39 0 0 -2.95 5.6 0c0,-1.2 0.18,-1.86 -0.29,-1.86l-5.31 0 0 -2.75 5.99 0c0.47,0 0.3,-0.66 0.3,-1.87l-8.45 0 0 11.01z"/>
   <path class="fil2" d="M75.73 65.68l8.26 0c0.37,0 0.2,-0.09 0.2,-1.47 0,-0.24 0.21,-0.4 -0.2,-0.4l-6.19 0 0 -2.95 5.6 0c0,-1.2 0.17,-1.86 -0.3,-1.86l-5.3 0 0 -2.75 6.29 0 0 -1.87 -8.36 0 0 11.3z"/>
   <path class="fil2" d="M115.24 59.88c0,6.72 7.99,7.41 10.32,3.93l-1.26 -1.3c-1.45,1 -1.32,1.4 -3.66,1.4 -0.79,0 -1.91,-0.7 -2.27,-1.16 -2.54,-3.19 0.23,-8.18 4.5,-6.27 0.65,0.3 0.98,0.72 1.31,0.95l1.28 -1.48c-0.56,-0.84 -2.4,-1.77 -3.83,-1.77 -1.3,0 -2.03,-0.01 -3.25,0.59 -0.31,0.15 -0.58,0.29 -0.85,0.52l-0.74 0.64c-0.92,0.99 -1.55,2.56 -1.55,3.95z"/>
   <path class="fil2" d="M110.72 65.39c0,0.46 0.66,0.29 1.87,0.29 0.22,0 0.29,-0.07 0.29,-0.29l0 -10.72c0,-0.49 -0.84,-0.29 -2.16,-0.29l0 11.01z"/>
   <path class="fil2" d="M52.54 75.9c0,0.23 0.07,0.3 0.3,0.3l4.03 0c0.4,0 0.29,-0.31 0.29,-1.09l-3.44 0 0 -1.47 2.95 0c0.14,-0.6 0.14,-0.48 0,-1.08l-2.95 0 0 -1.47 3.44 0 0 -0.99 -4.62 0 0 5.8z"/>
   <path class="fil2" d="M75.54 73.54c0,1.48 -1.98,1.76 -2.46,0.48 -0.64,-1.72 2.46,-2.27 2.46,-0.48zm-3.64 0.1c0,1.26 0.83,2.16 2.16,2.16 0.8,0 1.04,-0.39 1.48,-0.69 0,1.41 -0.6,1.48 -1.67,1.48 -0.6,0 -0.9,-0.28 -1.38,-0.39l-0.39 0.78c2.17,1.15 4.52,0.52 4.52,-1.37l0 -4.03 -1.08 0 0 0.49c-0.69,-0.47 -0.73,-0.59 -1.67,-0.59 -1.14,0 -1.97,0.99 -1.97,2.16z"/>
   <path class="fil2" d="M55.1 94.18c1.09,0 2.12,-0.15 2.75,-1.08l-0.67 -0.71c-0.99,0.68 -0.7,0.71 -2.08,0.71 -1.88,0 -2.49,-4.13 0.49,-4.13 0.91,0 1.03,0.54 1.57,0.69 0.12,-0.09 0.59,-0.65 0.69,-0.79 -0.42,-0.28 -0.4,-0.43 -0.98,-0.69 -1.9,-0.85 -4.32,0.15 -4.57,2.71 -0.16,1.67 1.29,3.29 2.8,3.29z"/>
   <path class="fil2" d="M87.92 82.88c0,-1.88 2.65,-1.99 2.65,0 0,1.38 -1.42,1.77 -2.24,0.96 -0.26,-0.25 -0.41,-0.75 -0.41,-0.96zm-1.08 -0.3c0,1.02 -0.06,1.18 0.81,2.04 2.01,2 5.66,-1.03 3.44,-3.44 -1.41,-1.54 -4.25,-0.54 -4.25,1.4z"/>
   <path class="fil2" d="M77.99 84.35c-0.74,0 -1.08,0.08 -1.08,-0.78 0,-0.82 1.54,-0.5 1.97,-0.4 0,0.7 -0.21,1.18 -0.89,1.18zm-1.76 -3.54c0.01,0.45 0.11,0.52 0.19,0.89 0.61,-0.05 2.34,-0.78 2.46,0.69l-1.48 -0.1c-2.1,0 -2.28,2.95 0.1,2.95 0.74,0 0.89,-0.37 1.38,-0.5l0 0.4 1.08 0c0,-1.44 0.27,-3.6 -0.57,-4.25 -1.17,-0.9 -2.45,-0.24 -3.16,-0.08z"/>
   <path class="fil2" d="M60.6 90.35l0.2 0c0.57,0 0.94,0.54 0.98,1.08l-2.16 0c0.05,-0.57 0.38,-1.08 0.98,-1.08zm-2.16 1.47c0,2.52 3.17,3.02 4.22,1.57 -0.08,-0.3 -0.26,-0.47 -0.68,-0.59 -0.23,0.15 -0.2,0.21 -0.47,0.33 -0.91,0.41 -1.82,-0.03 -1.89,-0.92 0.38,0 3.34,0.18 3.34,-0.19 0,-1.99 -1.5,-3.15 -3.21,-2.42 -0.66,0.28 -1.31,1.23 -1.31,2.22z"/>
   <path class="fil2" d="M65.61 72.36c0.53,0 0.93,0.53 0.99,1.18l-2.17 0c0.02,-0.72 0.47,-1.18 1.18,-1.18zm-2.36 1.48c0,0.68 0.3,1.32 0.66,1.7 0.88,0.9 2.34,0.98 3.3,0.19 0.22,-0.18 0.24,-0.17 0.27,-0.52 -0.37,-0.1 -0.29,-0.19 -0.59,-0.39 -0.54,0.36 -0.59,0.49 -1.38,0.49 -0.61,0 -1.03,-0.49 -1.08,-1.08 0.55,0.26 2.75,0.14 3.34,0 0,-3.93 -4.52,-3.31 -4.52,-0.39z"/>
   <path class="fil2" d="M66.69 82.88c0,-1.98 2.66,-1.91 2.66,0 0,1.9 -2.66,1.73 -2.66,0zm1.28 2.36c0.76,0 1.25,-0.19 1.78,-0.68 1.38,-1.24 0.85,-4.14 -1.88,-4.14 -1.27,0 -2.37,1.3 -2.34,2.45 0.03,1.25 1.07,2.37 2.44,2.37z"/>
   <path class="fil2" d="M74.46 90.35c1.01,0 0.9,0.31 1.27,1.08l-2.26 0c0.12,-0.49 0.38,-1.08 0.99,-1.08zm0 3.83c1.37,0 1.25,-0.18 2.16,-0.79l-0.57 -0.61c-0.5,0.15 -0.8,0.61 -1.54,0.47 -0.81,-0.15 -0.76,-0.47 -1.04,-1.04l3.35 0c0,-3.99 -4.26,-3.44 -4.47,-0.54 -0.09,1.23 0.85,2.51 2.11,2.51z"/>
   <path class="fil2" d="M93.82 81.01l0 -0.49c-1.6,0 -1.18,-0.68 -1.18,4.32 0,0.41 0.34,0.3 1.18,0.3 0,-2.3 -0.37,-3.64 1.08,-3.64 1.63,0 0.16,3.64 1.08,3.64l0.88 0c0,-2.17 0.46,-4.72 -1.67,-4.72 -0.64,0 -0.98,0.33 -1.37,0.59z"/>
   <path class="fil2" d="M59.32 72.07l0 -0.49c-1.59,0 -1.18,-0.68 -1.18,4.32 0,0.38 0.26,0.3 0.89,0.3 0.91,0 -0.59,-3.74 1.28,-3.74 0.33,0 0.63,0.21 0.76,0.41 0.43,0.64 -0.29,3.33 0.41,3.33 1.16,0 0.89,0.4 0.89,-2.85 0,-1.35 -0.67,-1.87 -1.77,-1.87 -0.67,0 -0.88,0.32 -1.28,0.59z"/>
   <path class="fil2" d="M65.02 90.05c0,-0.66 0.05,-0.59 -0.88,-0.59 -0.23,0 -0.3,0.07 -0.3,0.3l0 4.32 1.18 0c0,-2.36 -0.37,-3.64 1.08,-3.64 0.51,0 0.79,0.41 0.79,0.89l0 2.75 1.18 0c0,-1.8 0.48,-4.72 -1.67,-4.72 -0.2,0 -0.66,0.13 -0.79,0.2 -0.24,0.13 -0.33,0.32 -0.59,0.49z"/>
   <path class="fil2" d="M56.28 81.11l0 -0.59 -1.08 0 0 4.62 1.08 0c0,-2.84 -0.35,-3.64 1.27,-3.64 1.28,0 0.04,3.64 0.89,3.64l0.88 0c0,-2.26 0.5,-4.72 -1.67,-4.72 -0.83,0 -0.91,0.38 -1.37,0.69z"/>
   <path class="fil2" d="M79.27 76.1c0,0.22 -0.03,0.11 -0.1,0.39 -0.85,0.2 -0.34,0.06 -1.08,0 -0.14,0.27 -0.26,0.42 -0.29,0.79 1.99,1.05 2.5,-0.72 3.1,-2.31 0.23,-0.59 0.37,-1.07 0.6,-1.65 0.2,-0.52 0.57,-1.18 0.62,-1.74l-1.08 0c-0.32,0.6 -0.74,2.21 -1.12,3.1 0,0.02 -0.02,0.06 -0.03,0.07 0,0.02 -0.01,0.05 -0.03,0.07 -0.19,-0.82 -0.93,-2.17 -1.18,-3.24l-1.18 0c0.03,0.34 0.72,1.88 0.87,2.27 0.15,0.37 0.9,2 0.9,2.25z"/>
   <path class="fil2" d="M61.58 81.01c0.05,-0.56 0.34,-0.49 -1.08,-0.49l0 4.62c1.54,0 1.06,0.36 1.08,-2.07 0.01,-1.48 0.38,-1.57 1.28,-1.57 0.97,0 0.69,2.61 0.69,3.64l1.08 0 0 -3.15c0,-0.92 -0.68,-1.57 -1.67,-1.57 -0.9,0 -0.86,0.45 -1.38,0.59z"/>
   <path class="fil2" d="M72.59 85.14l1.08 0c0.19,-0.83 1.71,-3.9 1.77,-4.62l-1.08 0 -1.18 3.24 -1.18 -3.24 -1.18 0c0.05,0.65 1.02,2.56 1.32,3.4 0.14,0.42 0.36,0.84 0.45,1.22z"/>
   <path class="fil2" d="M81.34 80.22c0,0.35 -0.2,0.3 -0.59,0.3l0 0.98 0.59 0c0,2.98 -0.43,4.17 2.26,3.54l0 -0.98c-1.38,0.32 -1.18,0.34 -1.18,-2.56l1.18 0 0 -0.98 -1.18 0c0,-1.5 0.2,-1.28 -1.08,-1.28l0 0.98z"/>
   <path class="fil2" d="M69.44 89.46l-0.58 0 0 0.98 0.58 0c0,2.36 -0.4,3.74 1.38,3.74 0.42,0 0.53,-0.12 0.89,-0.2l0 -0.98c-0.52,0.25 -0.57,0.14 -1.09,0.1 -0.19,-0.83 -0.09,-1.8 -0.09,-2.66 1.42,0 1.27,0.14 1.27,-0.68 0,-0.42 -0.37,-0.3 -1.27,-0.3l0 -1.18 -1.09 0 0 1.18z"/>
   <path class="fil2" d="M69.84 72.26l0 -0.68 -1.18 0 0 4.32c0,0.38 0.25,0.3 0.88,0.3 0.43,0 0.31,-0.53 0.3,-0.99 -0.02,-1.22 -0.09,-2.55 1.57,-2.55l0 -1.18c-0.59,0 -0.84,0.07 -1.27,0.5 -0.17,0.18 -0.06,0.12 -0.3,0.28z"/>
   <path class="fil2" d="M52.64 85.14c0.84,0 1.18,0.11 1.18,-0.3l0 -5.5c0,-0.41 -0.34,-0.29 -1.18,-0.29l0 6.09z"/>
   <path class="fil2" d="M78.88 90.35l0 -0.89 -1.08 0 0 4.62 1.08 0c0,-1.58 -0.27,-3.49 1.67,-3.54 0,-0.76 0.05,-0.54 -0.1,-1.18 -0.75,0.07 -1.05,0.29 -1.4,0.77l-0.17 0.22z"/>
   <polygon class="fil2" points="84.68,85.14 85.76,85.14 85.76,80.52 84.68,80.52 "/>
   <path class="fil2" d="M84.58 79.14c0,0.91 -0.12,0.79 0.98,0.79 0.4,0 0.3,-0.31 0.3,-1.08 -0.9,0 -1.28,-0.13 -1.28,0.29z"/>
  </g>
 </g>
</svg>
