<?xml version="1.0" encoding="UTF-8"?>
<!DOCTYPE svg PUBLIC "-//W3C//DTD SVG 1.1//EN" "http://www.w3.org/Graphics/SVG/1.1/DTD/svg11.dtd">
<!-- Creator: CorelDRAW 2020 (64-Bit) -->
<svg xmlns="http://www.w3.org/2000/svg" xml:space="preserve" width="140px" height="140px" version="1.1" style="shape-rendering:geometricPrecision; text-rendering:geometricPrecision; image-rendering:optimizeQuality; fill-rule:evenodd; clip-rule:evenodd"
viewBox="0 0 140 140"
 xmlns:xlink="http://www.w3.org/1999/xlink"
 xmlns:xodm="http://www.corel.com/coreldraw/odm/2003">
 <defs>
  <style type="text/css">
   <![CDATA[
    .fil3 {fill:#2C2C2C}
    .fil4 {fill:#313131}
    .fil16 {fill:#3A3A3A}
    .fil12 {fill:#545455}
    .fil18 {fill:#5A5A5A}
    .fil15 {fill:#606161}
    .fil14 {fill:#636363}
    .fil1 {fill:#6A6A6A}
    .fil5 {fill:#6E6E6E}
    .fil6 {fill:#757676}
    .fil7 {fill:#939393}
    .fil0 {fill:#979797}
    .fil2 {fill:#989898}
    .fil8 {fill:#999999}
    .fil9 {fill:#A7A7A7}
    .fil17 {fill:#B4B4B4}
    .fil13 {fill:#BDBDBE}
    .fil23 {fill:lightgrey}
    .fil10 {fill:#E0E0E0}
    .fil11 {fill:#E8E8E8}
    .fil21 {fill:#F1F2F2}
    .fil20 {fill:#F5F6F6}
    .fil22 {fill:#F6F6F7}
    .fil19 {fill:#FBFBFB}
   ]]>
  </style>
 </defs>
 <g id="Layer_x0020_1">
  <metadata id="CorelCorpID_0Corel-Layer"/>
  <g id="_2738308852704">
   <path class="fil0" d="M81.15 81.25c0.5,0.28 0.75,0.4 1.23,0.88 0.37,0.37 0.62,0.73 0.86,1.23 0.57,1.18 0.5,2.12 0.16,3.46 0,0.07 0.01,0.29 -0.01,0.37 -0.13,0.55 -0.08,-0.24 -0.19,0.44 -0.03,0.17 0.05,0.38 -0.52,0.8 -0.02,0.02 -0.08,0.06 -0.1,0.07 -0.09,0.07 -0.05,0.04 -0.14,0.13l-0.34 0.44c-0.1,0.18 -0.24,0.23 -0.44,0.37 -0.36,0.25 0.1,0.15 -1.2,0.15 -0.17,0.2 -0.41,0.25 -0.67,0.26 -0.29,0.01 -0.61,0.04 -0.86,-0.08 -0.31,-0.15 0.02,0.1 -0.18,-0.15 -0.01,-0.01 -0.02,-0.03 -0.03,-0.04l-0.13 -0.19c-0.26,-0.52 0.08,-3.88 -0.07,-4.93 -0.07,-0.47 -0.29,-0.54 -0.74,-0.58 -0.41,-0.03 -1.34,0.14 -1.62,0l-0.74 -0.17 -0.42 0.52c-0.02,0.01 -0.04,0.03 -0.05,0.05l-0.12 0.1c0,1.4 0,2.8 0,4.2 0,1.54 0.08,2.8 0.08,4.29 0.3,0 0.52,0.02 0.76,-0.17 0.33,-0.25 -0.34,0.04 0.08,-0.09 0.3,-0.04 0.47,0 0.67,0.11 0.02,0.02 0.08,0.06 0.11,0.07 0.02,0.01 0.04,0.02 0.06,0.03 0.03,0.01 0.05,0.02 0.08,0.02 0.49,0.13 3.81,0.03 4.46,0.03l0.09 -0.13c0.02,-0.01 0.04,-0.04 0.05,-0.05 0.19,-0.15 0.6,-0.08 0.87,-0.08 0.01,-0.01 0.03,-0.06 0.03,-0.05 0.01,0.02 -0.1,0.1 0.07,-0.09 0.28,-0.32 -0.18,0.02 0.22,-0.17l0.12 -0.05c0.02,-0.01 0.04,-0.02 0.06,-0.03l0.12 -0.06c0.4,-0.22 0.41,-0.13 0.97,-0.13 0.28,-0.73 0.01,-0.2 0.68,-0.55l0.75 -1.13 0.51 0c0.02,-0.03 0.04,-0.09 0.05,-0.08 0,0 0.18,-0.39 0.79,-0.92 0.02,-0.01 0.04,-0.02 0.05,-0.04 0.36,-0.33 0.26,-1.03 0.54,-1.48l0.33 -0.26c0,-0.45 0.09,-0.59 0.09,-1.09 0,-0.48 0.02,-0.74 0.06,-1.09 0.09,-0.73 -0.14,-0.43 -0.15,-1.01 -0.02,-0.46 0.08,-0.84 -0.14,-1.19l-0.08 -0.09c-0.36,-0.51 0.08,0.4 -0.11,-0.19 0,-0.02 -0.03,-0.17 -0.03,-0.21 -0.1,-0.5 -0.24,-1.07 -0.54,-1.51 -0.01,-0.02 -0.03,-0.04 -0.04,-0.05 -0.39,-0.57 -0.34,-0.93 -0.82,-0.96l-1.48 -1.4 -0.78 -0.39c-0.3,-0.18 -0.02,-0.02 -0.12,-0.07 -0.02,-0.01 -0.04,-0.01 -0.06,-0.02l-0.67 -0.27c-0.46,-0.14 -0.42,-0.25 -0.78,-0.33 -0.42,-0.08 -0.39,0.12 -0.57,-0.29l-6.39 0 -0.08 1.59c0.01,0.26 0.01,0.51 0,0.76l0.04 0.59c0.08,0.25 0.09,0.28 0.38,0.32 1.02,0.14 3.42,-0.05 4.62,0.01 0.5,0.03 0.53,0.26 1.35,0.26l0.02 0.31z"/>
   <path class="fil1" d="M87.77 107.32c-1.51,0 -2.01,0.18 -1.65,-0.55 0.1,-0.21 0.04,-0.31 0.72,-0.3 0.32,0 0.63,0.03 0.71,0.09 0.16,0.12 0.21,0.48 0.22,0.76zm-8.49 -3.11c3.14,0 2.37,-0.09 3.18,1.61 0.24,0.52 0.46,0.87 0.6,1.5 -5.88,0 -5.06,0.38 -5.04,-0.84 0.05,-2.09 -0.48,-2.27 1.26,-2.27zm-20.33 2.86l0 -2.78c0.3,0 0.3,-0.03 0.54,-0.03 1.28,-0.03 1.06,-0.58 1.06,2.81 0,0.38 -0.44,0.25 -1.35,0.25 -0.19,0 -0.25,-0.06 -0.25,-0.25zm-13.61 0.25l-1.51 0c0,-1 0.32,-0.84 1.17,-0.84 0.23,0 0.23,0.04 0.42,0.08 0,0.45 0.07,0.34 0.11,0.5 0,0.03 0.18,0.26 -0.19,0.26zm-5.38 -0.34l0 -0.92c0.51,0.01 0.44,0.16 0.67,0.5 0.15,0.22 0.43,0.49 0.51,0.76 -0.47,0 -1.18,0.14 -1.18,-0.34zm-2.27 0c0,-3 -0.31,-2.77 1.18,-2.77 0.23,0 0.23,0.04 0.42,0.08 0,0.54 0,1.07 0,1.6 0,1.67 0.29,1.43 -1.26,1.43 -0.2,0 -0.34,-0.14 -0.34,-0.34zm57.98 0.25c-1.4,0 -1.1,0.5 -1.1,-2.94 0.27,-0.02 0.3,-0.08 0.59,-0.08 2.91,0 2.52,-0.49 2.52,2.35 0,0.42 -0.07,0.38 -0.08,0.76l-1.18 0 0.1 -0.67 -0.35 0c-0.02,0.29 -0.22,0.58 -0.5,0.58zm-4.04 0c-1.13,0 -0.92,0.21 -0.92,-2.1 0,-1.2 0.24,-0.92 2.69,-0.92 0.25,0 0.5,0.08 0.5,0.34 0,3.22 0.29,2.77 -1.34,2.77 0.11,-0.5 0.28,-0.35 0.08,-0.76 -0.16,0.11 -0.09,0.06 -0.22,0.2 -0.21,0.23 -0.36,0.47 -0.79,0.47zm-29.32 0c-1.37,0 -1.09,0.34 -1.09,-2.68 0,-0.54 2.02,-0.34 2.85,-0.34 0.2,0 0.34,0.14 0.34,0.34l0 2.43c0,0.47 -0.65,0.34 -1.34,0.34 0.01,-0.63 0.31,-0.28 0.08,-0.76 -0.24,0.16 -0.55,0.67 -0.84,0.67zm8.82 -1c0,-0.56 -0.07,-2.08 1.08,-2 0.33,0.02 0.53,0.15 0.7,0.39 0.4,0.54 0.32,1.04 0.32,1.69 0,0.19 -0.3,1.01 -0.92,1.01l-0.42 0c-0.33,0 -0.76,-0.74 -0.76,-1.09zm15.71 -1.18l0.17 0c0.04,0.48 0.22,0.49 0.34,1.01l-0.84 0c0.13,-0.58 0.25,-0.63 0.33,-1.01zm-42.09 0c0.09,0.4 0.24,0.6 0.34,1.01l-0.84 0c0.06,-0.26 0.29,-0.77 0.5,-1.01zm3.44 0.08c0.36,0.1 1.26,1.36 1.57,1.72l0.37 0.47c-2.34,0 -1.78,0.28 -1.85,-1.35l-0.09 -0.84zm51 0.34l-0.84 0c0,-1.38 -0.18,-1.18 0.93,-1.18 0.69,0 0.16,0.35 0.75,0.51 0.13,-0.22 0.09,-0.23 0.09,-0.59l0.47 0.02c0.64,-0.03 0.7,0.01 1.09,0.6 0.91,1.41 0.87,1.17 0.87,2.15 0,0.53 -1.42,0.34 -2.35,0.34 0.03,-0.33 0.08,-0.22 0.09,-0.59 -0.94,0.08 0.4,0.5 -1.68,0.5 -0.38,0 -0.26,-0.43 -0.26,-1.34 1.3,0 0.8,-0.03 1.14,0.36 0.17,0.2 0.22,0.07 0.28,-0.12l0.01 -1 -0.33 0c-0.02,0.24 0,0.34 -0.26,0.34zm-58.81 0.17l-0.42 0c0,-1.4 -0.11,-1.35 0.42,-1.35 0.23,0 0.98,0.54 0.43,1.11 -0.07,0.07 -0.3,0.24 -0.43,0.24zm16.3 -1.09c0,-0.2 0.03,-0.1 0.08,-0.34 0.58,0 0.96,-0.03 1.43,0.08 0.02,0.27 0.09,0.3 0.09,0.59 0,2.87 0.28,2.44 -1.52,2.44 0.36,-0.67 0.42,-1.18 -0.6,-1.75 -0.54,-0.31 -0.81,-0.33 -1.16,-0.86 0.22,-0.42 0.15,-0.42 0.67,-0.42 0.55,0 0.74,0.49 0.84,0.93l0.17 -0.67zm25.96 -0.26l1.09 -0.08c0.9,0 0.72,0.17 0.34,1.1 -0.11,0.28 -0.37,1.09 -0.59,1.25 -0.03,-0.34 -0.29,-0.82 -0.42,-1.09 -0.13,-0.26 -0.41,-0.82 -0.42,-1.18zm19.58 0c0.65,-0.01 0.66,-0.19 1.51,0 -0.03,0.42 -0.46,0.73 -0.59,1.26l-0.25 0c-0.13,-0.5 -0.6,-0.69 -0.67,-1.26zm-57.05 -0.08c0.56,0.12 2.69,-0.3 2.69,0.5 0,0.81 0.09,1.85 -0.09,2.61 -1.59,0 -1.29,0.14 -1.81,-1.05l-0.44 -0.99c-0.15,-0.33 -0.3,-0.67 -0.35,-1.07zm42.18 0c0.41,0.03 0.17,0.03 0.59,0.01 0.26,-0.02 0.58,-0.02 0.84,-0.01 0.35,0.02 0.38,0.04 0.64,0.04 0.28,0.01 0.26,0.04 0.62,0.04l0 2.78c0,0.36 -0.36,0.25 -1.18,0.25 -0.42,0 -0.81,-1.47 -1.19,-2.26l-0.32 -0.85zm-1.93 3.11l-1.69 0 0.66 -1.7c0.65,-1.51 0.38,-1.33 1.53,-1.4 0.27,-0.02 0.56,-0.01 0.84,-0.01 -0.13,0.54 -1.34,3.1 -1.34,3.11zm-8.66 -1.01c0.07,0.41 0.06,0.26 0.38,0.63l0.29 0.38c-2.28,0 -1.85,0.47 -1.85,-2.27 0.42,0.31 -0.08,0.13 0.42,0.25 -0.06,-0.15 -0.05,-0.2 -0.17,-0.33 -0.18,-0.21 0.01,-0.06 -0.25,-0.17l-0.16 1.43c0,1.15 -0.12,0.89 0.2,1.32l-0.45 0.04c0.25,-0.61 0.16,-1.18 0.16,-1.87 0,-2.03 0,-1.01 -0.25,-1.72 0.74,-0.03 0.52,0.14 0.81,0.66 0.1,0.18 1.4,1.88 1.91,1.97 0.02,0.45 -0.05,0.56 0.16,0.91 -0.68,-0.01 0,0 -0.8,-0.95 -0.21,-0.25 -0.12,-0.17 -0.4,-0.28zm-3.19 -2.1l1.03 0.04c0.23,0 0.56,0.06 0.56,0.38 0,3.25 0.49,2.69 -1.84,2.69 0.1,-0.14 -0.03,0.02 0.12,-0.13 0.01,-0.01 0.03,-0.03 0.04,-0.04 0.55,-0.59 0.71,-1.7 0.23,-2.41l-0.2 -0.24c-0.01,-0.02 -0.06,-0.07 -0.07,-0.09 -0.06,-0.09 -0.35,-0.2 0.13,-0.2zm-7.31 1.34c0,1.06 -0.02,0.86 0.59,1.77 -1.02,-0.22 -1.77,0.49 -1.78,-0.5 0,-0.83 0.01,-1.69 0.01,-2.53 0.84,-0.19 0.88,0 1.85,-0.08 -0.13,0.35 0.04,-0.03 -0.21,0.29 -0.21,0.27 -0.46,0.77 -0.46,1.05zm-11.76 -0.92c0,0.96 0.04,0.88 1.14,1.55 0.22,0.13 0.7,0.29 0.7,0.72 0,0.4 -0.97,0.73 -1.36,0.02 -0.21,-0.39 -0.21,-0.45 -0.48,-0.53l0 0.93c-4.33,0 -3.82,0.24 -3.79,-0.58 0.14,-3.01 -0.95,-2.53 3.2,-2.53 0.52,0 0.21,0.13 0.75,0 -0.09,0.36 -0.16,0.15 -0.16,0.42zm-5.97 -0.42c0.53,0.12 1.1,-0.05 1.68,0.08l0 2.02c-0.25,-0.17 -0.26,-0.23 -0.44,-0.49l-0.83 -1.01c-0.07,-0.09 -0.16,-0.2 -0.23,-0.28 -0.2,-0.26 -0.07,-0.11 -0.18,-0.32zm-5.71 3.11c-0.73,0 -1.07,0.05 -1.85,-1.43 0.52,-0.35 0.75,-0.21 0.75,-1.18 0,-0.33 -0.12,-0.01 -0.16,-0.5l2.94 0c-0.14,0.57 -0.73,1.86 -1.02,2.51 -0.16,0.33 -0.19,0.6 -0.66,0.6zm33.02 -3.11c0.55,0 1.29,-0.03 1.76,0.08l0 2.1 -1.76 -2.18zm-5.46 1.18c0,1.31 -0.01,1.04 0.58,1.93l-1.68 0c0.12,-0.45 0.21,-0.09 0.26,-0.59 -0.49,0.04 -0.65,0.59 -1.27,0.59 -0.56,0 -0.5,-0.22 -0.92,-0.25 -0.03,-0.35 -0.06,-0.21 -0.2,-0.56 -0.31,-0.79 -0.1,-1.97 0.63,-2.21 1.16,-0.39 1.23,0.72 1.67,0.83 0.32,-0.67 -0.6,-0.83 0.6,-0.91 0.33,-0.02 0.66,-0.01 1,-0.01 -0.21,0.32 -0.67,0.65 -0.67,1.18zm23.49 2.15c0.31,-0.52 0.2,-1.15 0.2,-1.82 0,-1.19 0.16,-1.31 -0.25,-1.7l0.72 0.12c-0.42,0.68 -0.2,3 -0.13,3.09 0.36,0.35 1.62,0.29 1.76,-0.08 0.01,0.11 -0.01,0.07 0.03,0.18 0.05,0.15 0.09,0.16 0.14,0.23 0.33,-0.01 1.37,0.09 1.45,-0.24l0.04 -0.16c0.04,-0.24 0,0.04 0.02,-0.17l0 -1.27c0,-0.69 0.08,-1.07 -0.16,-1.71 0.38,-0.01 1.93,-0.09 2.25,0.12l-0.41 0.04c-0.08,0 -0.28,-0.04 -0.42,-0.05 -0.2,-0.01 -0.81,-0.04 -0.87,0.17l-0.04 2.78c0.09,0.68 1.11,0.4 1.53,0.26 0.34,-0.12 0.19,-0.07 0.29,0.07 -0.3,0.34 -2.47,0.11 -3.01,0.1 -0.99,-0.02 -2.13,0.03 -3.14,0.04zm-59.29 -3.41c0.65,0.3 2.44,-0.25 2.44,0.33 0,3.49 0.44,2.85 -1.86,2.85 -0.43,0 -0.4,-0.07 -0.58,0.18 0.05,0.18 0.02,0.25 0.26,0.25l71.58 0c0.23,0 0.2,-0.07 0.25,-0.25 -0.21,-0.3 -1.03,-0.17 -1.76,-0.17 -1.95,0 -1.68,0.27 -1.68,-1.09 0,-0.28 0.93,-1.81 1.26,-1.94 0.35,-0.13 1.83,0 2.18,-0.16 -0.14,-0.53 -0.7,-0.34 -1.93,-0.34l-68.14 0c-1.52,0 -1.88,-0.21 -2.02,0.34z"/>
   <path class="fil2" d="M53.84 82.63l0.6 1.67c0.2,0.8 0.26,0.74 0.44,1.18 0,0.02 0.01,0.04 0.02,0.05 0.29,0.88 -0.04,0.19 0.4,1.04 0.01,0.02 0.02,0.04 0.03,0.06l0.15 0.59c0.04,0.14 0.12,0.3 0.15,0.42l0.3 0.81c0.18,0.52 0.27,0.64 0.08,0.85 0.03,0.16 0.23,0.34 -0.32,0.44 -0.21,0.04 -3.18,0.04 -3.28,-0.04 -0.52,-0.48 -0.6,-0.23 -0.71,-0.55 -0.18,-0.51 0.08,-0.41 0.14,-0.51 0.21,-0.4 -0.19,-0.52 0.29,-1.48 0.17,-0.34 0.03,-0.47 0.32,-0.71 0.31,-0.26 -0.36,0.21 0.11,-0.05 0,-0.36 0.01,-0.83 0.05,-1.08 0.06,-0.37 0.12,-0.6 0.12,-1.02 0.2,-0.08 0.01,-0.03 0.34,-0.09l0 -0.42c-0.49,0 -2.24,-0.12 -2.55,0.09 -0.02,0.01 -0.14,0.08 -0.14,0.08 0,0.16 0.01,0.35 -0.02,0.51l-0.13 0.34c-0.24,0.41 -0.45,0.41 -0.69,0.41 0,0.51 -0.09,0.76 -0.09,1.34 -0.48,0.1 -0.3,0.15 -0.35,0.67l-0.39 1.58c-0.01,0.02 -0.02,0.04 -0.02,0.06l-0.11 0.54c-0.09,0.48 -0.19,0.62 -0.44,0.88 -0.36,0.39 -0.08,0.53 -0.32,1.08l-0.06 0.11c-0.01,0.02 -0.02,0.04 -0.03,0.05 -0.12,0.32 0.08,0.27 0.02,0.67 -0.07,0.51 -0.42,0.27 -0.48,0.5l13.44 0 0 -0.42c-0.61,-0.01 -0.33,0.11 -0.42,-0.25 -0.01,0.45 -0.05,0.2 -0.42,0.25 0.08,-0.75 -0.04,-0.14 0.18,-0.5l0.07 -0.09c0.17,-0.27 0.05,0.12 0.07,-0.17 0.03,-0.38 -0.32,-1.27 -0.32,-2.6 -0.63,-0.01 -0.14,0.04 -0.27,-0.16 -0.1,-0.13 -0.11,-0.33 -0.13,-0.43 -0.06,-0.51 -0.04,-0.35 -0.18,-0.71l-0.5 -1.6c-0.01,-0.03 -0.04,-0.12 -0.07,-0.2 -0.06,-0.2 -0.06,-0.27 -0.09,-0.42 -0.19,-0.81 -0.11,-0.87 -0.43,-1.38 -0.29,-0.47 -0.08,-0.21 -0.28,-0.66 -0.27,-0.65 -0.08,-0.94 -0.27,-1.22 -0.02,-0.02 -0.06,-0.05 -0.12,-0.12 -0.47,-0.51 -0.42,-1.58 -0.64,-2.17 -0.01,-0.01 -0.02,-0.04 -0.03,-0.05 0,-0.02 -0.02,-0.03 -0.03,-0.05 -0.2,-0.38 -0.19,-0.26 -0.27,-0.77 -0.29,-1.78 -0.38,-0.07 -0.38,-1.32 -0.56,0 -1.12,0 -1.68,0l-1.52 -0.09c-0.24,0.48 -0.17,0.49 -0.17,1.18 0.04,0.25 -0.02,-0.05 0.3,0.29 0.29,0.31 0.8,3.12 0.8,3.25l-0.07 0.34z"/>
   <path class="fil2" d="M44.75 86.81c0.44,-0.13 1.01,-0.41 1.35,-0.66 0.23,-0.18 0.89,-0.79 1,-0.98 0.04,-0.43 -0.01,-0.16 0.14,-0.39 0.01,-0.01 0.1,-0.12 0.12,-0.14l0.52 -1.13c0.11,-0.46 0.09,-0.6 0.08,-1.14 0,-0.58 -0.1,-1.61 -0.28,-2.04 -0.04,-0.1 -0.01,-0.02 -0.08,-0.17 -0.01,-0.02 -0.02,-0.04 -0.03,-0.05 -0.22,-0.43 -0.29,-0.26 -0.3,-0.69 -0.59,0 -0.53,0.06 -0.81,-0.27 -0.3,-0.37 -0.08,-0.49 -0.43,-0.76 -0.24,-0.18 -0.18,-0.08 -0.53,-0.25 -0.48,-0.24 -0.68,-0.14 -1.42,-0.14l0.18 -0.18c0.01,-0.04 0.05,-0.05 0.07,-0.08 -0.27,0 -0.28,-0.01 -0.44,-0.09 -0.28,-0.12 0.2,-0.16 -0.4,-0.13 -0.65,0.04 0.14,0.01 -0.38,0.13 -0.1,0.03 -0.23,0.01 -0.3,-0.01 -0.83,-0.25 -0.71,-0.15 -1.84,-0.15 -1.29,0 -2.58,0 -3.87,0l-0.04 3.19 6.43 0c0.02,0.37 -0.01,0.15 0.13,0.35 0,0 0.11,0.13 0.12,0.15l0.27 0.3c0.27,0.49 0.08,0.51 -0.05,0.79l-0.18 0.41c-0.11,0.21 -0.28,0.48 -0.29,0.69 -1.12,0 -0.31,0.27 -1.42,0.26l-4.88 -0.01 -0.08 2.36c0,0.45 -0.09,0.64 -0.09,1.09 -0.03,2.47 0.01,3.45 0.17,5.8 0.12,0 0.56,-0.03 0.66,-0.01 0.23,0.02 0.22,0.12 0.35,0.26 1.01,0 2.68,0.28 2.85,-0.57l0 -5.31c0.71,-0.38 0.55,-0.26 1.68,-0.26 1.37,0.01 0.95,-0.06 2.02,-0.17z"/>
   <path class="fil3" d="M77.01 49.68c0.59,-0.87 1.58,0.13 1.68,0.5 -0.33,0 -0.65,-0.04 -0.99,-0.09 -0.33,-0.05 -0.53,-0.17 -0.69,-0.41zm-2.6 -2.77c-0.08,0.31 -0.05,0.19 -0.3,0.37 -0.68,0.51 -1.36,1.01 -2.12,1.41 -0.75,0.39 -1.57,0.86 -2.38,1.15 -0.44,0.15 -0.73,0.31 -1.71,0.48 -1.21,0.21 -1.88,0.3 -3.09,-0.03 -1.13,-0.31 -1.66,-1.15 -2.04,-2.16 -0.13,-0.33 -0.12,0.06 -0.12,-0.3 0,-1.61 -0.05,-2.48 0.49,-3.96l0.12 -0.3c0.05,-0.13 0.02,-0.06 0.07,-0.18 0.03,-0.07 0.2,-0.01 -0.01,-0.43 -0.36,0.24 -0.53,0.76 -0.69,1.16l-0.17 0.51c-0.15,0.4 -0.49,1.64 -0.49,2.11 0,1.59 -0.01,1.42 0.36,2.84 0.06,0.23 0.07,0.25 0.19,0.48 0.28,0.56 0.63,1.04 1.13,1.39l-0.66 1.94c-0.14,0.48 -0.43,1.7 -0.43,2.17 0,0.56 0.32,1.6 0.69,2l0.23 0.27c0.84,0.98 2.12,0.98 3.18,-0.1l1.66 -1.96c0.51,-0.6 1.55,-1.96 2.22,-2.14 -0.05,0.66 -0.1,0.32 -0.02,1.11 0.03,0.33 0,0.65 0.04,0.97 0.19,1.51 1.28,2.88 2.92,2.88 1.66,0 2.75,-0.96 4.02,-1.87 0.56,-0.4 2.03,-1.82 2.33,-2.37 0.2,-0.37 0.43,-0.66 0.54,-1.06 0.27,-1.05 0.17,-0.37 0.17,-1.93 0,-0.27 -0.08,-0.31 -0.14,-0.53l-0.12 -0.47c-0.25,-0.76 -0.53,-1.45 -1.15,-1.95 -0.97,-0.78 -1.76,-0.89 -2.58,0.31 -0.79,1.16 -0.6,2.97 1.12,3.03 0.58,0.02 2.3,-0.09 2.25,0.79 -0.02,0.44 -1.1,1.4 -1.53,1.8 0,0 -0.13,0.11 -0.13,0.12 -1.07,0.89 -3.02,2.45 -4.44,2.45 -0.78,0 -1.77,-0.15 -2.27,-0.84 -0.35,-0.47 -0.43,-0.76 -0.56,-1.29 -0.36,-1.46 -0.06,-1.68 0.76,-2.13 0.67,-0.37 1.03,-0.45 1.82,-0.45 1.12,0 1.04,0.79 1.68,0.84 0.07,-0.87 0.31,-1.1 -0.13,-1.8 -1.25,-1.96 -4.28,0.02 -5.35,1.11 -1.34,1.35 -2.64,3.54 -4.27,4.47 -0.57,0.32 -0.66,0.34 -1.26,0.34 -1.15,0 -1.17,-1.26 -1.17,-2.1 0,-0.44 0.02,-0.08 0.1,-0.4 0.07,-0.24 0.04,-0.17 0.07,-0.44 0.09,-0.84 0.58,-1.68 0.58,-2.52 1.16,0.27 0.12,0.59 3.19,0.59 1.84,0 8.15,-3.19 8.15,-5.3 0,-1.35 -0.16,-1.76 -1.51,-2.18l-0.78 -0.23c-0.19,-0.04 -0.24,-0.04 -0.42,-0.09l-1 -0.26c-2.06,-0.74 -1.42,-1.18 -0.19,-2.99 0.19,-0.26 0.3,-0.35 0.52,-0.57 0.11,-0.1 0.15,-0.15 0.25,-0.26l0.16 -0.17c1.37,-1.39 1.55,-0.17 2.05,0.2 0.48,-0.46 0.34,-0.97 0.34,-1.6 0,-0.38 -0.52,-0.82 -0.88,-0.89 -0.95,-0.19 -2.05,1.14 -2.58,1.8 -1.02,1.28 -2.25,3.85 -1.27,5.41 0.24,0.39 0.29,0.36 0.73,0.54 0.83,0.33 1.55,0.49 2.4,0.71 0.44,0.11 1.08,0.13 1.43,0.5z"/>
   <path class="fil4" d="M99.03 47.33c0,0.35 0.44,1.7 0.56,2.12l0.75 3.79c0.09,0.37 0.08,0.26 0.12,0.72l0.38 2.39c0.1,0.45 0.08,1.23 0.13,1.72 0.03,0.28 0.13,0.46 0.15,0.77 0.03,0.44 0.01,0.48 0.09,0.84 -0.95,0.64 -1.69,0.75 -2.58,1.7l-0.29 0.31c-0.01,0.01 -0.03,0.02 -0.04,0.04l-2.08 2.53c-0.18,0.21 -0.26,0.29 -0.45,0.48 -1.05,1.04 -1.21,1.49 -2.71,1.49 -0.24,0 -0.59,-0.35 -0.7,-0.55 -0.26,-0.44 -0.15,-0.63 -0.31,-0.96 0.84,-0.44 1.88,-0.53 3.42,-1.54 0.65,-0.43 1.66,-1.02 2.21,-1.57 0.56,-0.55 0.9,-1.04 1.04,-1.9 0.34,-2.16 0.03,-2.88 -0.2,-4.9 -0.13,-1.14 -0.75,-3.51 -0.75,-4.46 1.42,0.96 0.2,-0.83 -0.08,-1.44 -0.22,-0.49 -0.64,-0.96 -0.76,-1.5 -0.33,0.03 -0.27,0.02 -0.39,0.29 -0.16,0.38 -0.22,0.78 -0.11,1.21l0.75 3.79c0.02,0.28 0.04,0.39 0.09,0.67l0.91 5.05c0.14,1.38 -0.05,1.48 -1.76,2.6 -1.12,0.75 -2.3,1.33 -3.62,1.68 -0.3,0.08 -0.33,0.11 -0.58,0.17 0.09,-0.38 0.5,-1.75 0.5,-2.1 -0.51,0.04 -0.5,0.61 -0.64,1.04 0,0.02 -0.01,0.04 -0.02,0.06l-0.26 1.09c-0.83,0 -1.63,0.48 -3.18,-0.18l-0.4 -0.19c-1.12,-0.57 -2.1,-1.53 -1.78,-2.89l0.32 -1.79c-0.43,0.04 -0.51,0.53 -0.61,0.9 -0.53,1.85 -0.07,4.36 1.78,5.41 0.28,0.16 0.77,0.34 1.12,0.39l1.83 0.19c0.42,0 0.37,-0.07 0.75,-0.08 0,2.15 1.93,4 3.98,2.13 0.05,-0.05 0.1,-0.09 0.13,-0.12l0.46 -0.47c0.14,-0.16 0.17,-0.23 0.29,-0.38l2.53 -2.93c0.01,-0.02 0.03,-0.03 0.04,-0.04 0.01,-0.02 0.03,-0.04 0.04,-0.05 0.06,-0.06 0.08,-0.1 0.16,-0.17 0.17,-0.17 0.45,-0.37 0.65,-0.53 0.38,-0.28 1.07,-0.79 1.64,-0.8 0,1.44 0.92,3.11 2.52,3.11 0.82,0 1.34,-0.3 1.93,-0.76 0.02,-0.01 0.04,-0.02 0.05,-0.03l0.17 -0.16c0.42,-0.45 0.66,-0.92 0.8,-1.48 0.21,-0.88 0.28,-1.04 -0.19,-2.01 -0.18,-0.36 -0.46,-0.55 -0.49,-0.94 0.32,0.03 0.21,0.08 0.58,0.08 -0.01,-0.51 -0.31,-0.49 -0.7,-0.81l-1.18 -0.99c-0.22,-0.21 0,-0.18 -0.38,-0.21 -0.11,0.22 -0.03,0.6 -0.01,1.01 0.03,0.45 0.16,0.44 0.39,0.79 0.34,0.5 0.64,0.87 0.92,1.43 0.08,0.15 0.12,0.27 0.2,0.39 0.23,0.39 0.59,0.68 0.24,1.15 -0.78,1.02 -3.44,1.13 -3.86,-0.05 -0.1,-0.27 -0.03,-0.36 -0.15,-0.6 1.08,0 1.09,0.79 1.68,0.84 0.19,-0.82 0.19,-1.32 -0.27,-1.92 -0.14,-0.18 -0.1,-0.15 -0.29,-0.3 -0.14,-0.1 -0.29,-0.17 -0.44,-0.23 -0.37,-0.13 -0.79,-0.06 -1.02,-0.16l-0.25 -1.68c-0.02,-0.5 -0.12,-0.49 -0.16,-0.85 -0.11,-0.94 -0.1,-1.74 -0.28,-2.65l-0.16 -0.86c-0.04,-0.68 -0.31,-1.82 -0.42,-2.52 -0.19,-1.19 -0.53,-2.89 -0.96,-4 -0.12,-0.3 -0.22,-0.43 -0.29,-0.71l-0.25 0c-0.1,0.4 -0.25,0.52 -0.25,1.09z"/>
   <path class="fil0" d="M72.39 84.3l0.17 0.04c-0.48,-0.75 0.3,-0.84 0.48,-2.19l-0.47 -2.43c-0.01,-0.02 -0.02,-0.04 -0.03,-0.06 -0.07,-0.15 -0.03,-0.11 -0.07,-0.19 -0.08,-0.18 -0.06,-0.09 -0.21,-0.24 -0.2,-0.2 -0.25,-0.41 -0.29,-0.73 -0.38,0 -0.75,-0.22 -1.06,-0.43l-0.31 -0.29c-0.01,-0.01 -0.03,-0.02 -0.04,-0.03 -0.32,-0.2 -6.77,-0.1 -7.41,-0.09 0,0.63 -0.45,1.25 -0.19,2.08 0.06,0.2 0.11,0.03 0.11,0.69l4.28 0c0.57,0 0.87,0.09 1.51,0.09 0.18,0.41 -0.03,0.09 0.38,0.36l0.38 0.39c0.14,0.16 0.26,-0.04 0.31,0.59l-0.09 0.6c-0.01,0.03 -0.02,0.05 -0.03,0.07 -0.01,0.02 -0.02,0.04 -0.03,0.06l-0.66 0.95 -5.85 0.01c-0.22,0.04 -0.23,0.18 -0.54,0.24l0 2.69c0.88,0.06 -0.16,0.27 1,0.26l4.12 -0.01c0.16,0.21 0.38,0.04 0.68,0.43 0.01,0.02 0.02,0.04 0.03,0.06l0.14 0.19c0.01,0.02 0.06,0.07 0.08,0.09 0.14,0.2 0.25,0.71 0.28,1.02 0.01,0.03 0.01,0.05 0.01,0.07l-0.04 4.11 3.27 -0.14c0,-0.01 0.02,-0.04 0.03,-0.06 0,-0.02 0.02,-0.04 0.02,-0.06 0.1,-0.27 0.06,-3.81 0.01,-4.06 -0.09,-0.49 -0.39,-0.36 -0.39,-1.06 -0.1,-0.07 -0.12,-0.04 -0.27,-0.12 -0.02,-0.01 -0.04,-0.02 -0.06,-0.03 -0.23,-0.14 -0.27,-0.27 -0.39,-0.51 0,-0.01 -0.05,0.22 -0.12,-0.26l-0.75 0c-0.25,-0.54 -0.22,-0.39 -0.39,-0.64 -0.01,-0.02 -0.03,-0.04 -0.04,-0.06l-0.08 -0.31c0.03,-0.67 -0.04,-0.09 0.11,-0.3 0.16,-0.22 -0.04,0.01 0.2,-0.17l0.59 -0.36c0.22,-0.07 0.28,-0.05 0.52,-0.08 0.57,-0.09 -0.05,0.05 0.37,-0.18 0.31,-0.17 0.39,-0.1 0.73,0z"/>
   <path class="fil0" d="M100.58 81.58c-0.23,-0.29 -0.39,-0.31 -0.65,-0.62 -0.34,-0.4 -0.57,-0.58 -0.57,-1.2 -0.28,-0.02 -0.37,0.01 -0.46,-0.25 -0.17,-0.47 -0.09,-0.88 -0.14,-1.35 -0.01,-0.06 -0.04,-0.26 -0.07,-0.36 -0.09,-0.23 -0.05,-0.17 -0.17,-0.31l-0.57 0.08c-0.03,0.01 -0.09,0.05 -0.11,0.07 -0.28,0.16 -0.13,0.1 -0.58,0.1l-0.25 -0.33c-2.02,0 -1.9,-0.29 -1.85,1.85 0.01,0.63 0.1,0.46 0.29,0.85l0.57 1.21c0.01,0.01 0.02,0.03 0.03,0.05 0.01,0.02 0.02,0.04 0.03,0.06l0.06 0.1c0.29,0.49 0.4,0.33 0.61,0.65l0.26 0.33c0.08,0.14 0.08,0.19 0.08,0.44l0.51 0c0.03,0.28 0.15,0.42 0.3,0.61l0.54 0.9c0.08,0.11 0.07,0.12 0.18,0.24 0.19,0.19 0.31,0.26 0.66,0.27 0.02,0.21 0.03,0.25 0.15,0.42 0.39,0.58 0.6,0.23 0.6,1.17 0.2,0.08 0.02,0.03 0.34,0.09l-0.14 1.59c-0.18,0.63 0.04,0.52 0.06,1.01 -0.31,0.03 -0.32,0.03 -0.34,0.34l-1.26 0c-0.19,0.5 -0.05,0.35 -0.75,0.34l-2.27 0c-1.12,-0.01 -0.82,-0.04 -1.01,0.16 -0.31,0.34 -0.17,0.67 -0.17,1.18 0,0.49 -0.08,0.71 -0.08,1.18l0.22 0.2c0.01,0.01 0.03,0.03 0.04,0.05l0.16 0.17c1.26,0 2.52,0 3.78,0 0.31,0 0.71,0.02 1.01,-0.01l0.74 -0.22c0.81,-0.3 0.43,-0.36 1.52,-0.36 0.07,-0.35 -0.15,0.1 0.18,-0.44l0.41 -0.5c0.19,-0.19 0.43,-0.07 0.59,-0.24 0.15,-0.15 0.08,-0.48 0.2,-0.75 0.11,-0.24 0.17,-0.27 0.37,-0.43l0.1 -0.08c0.34,-0.39 0.48,-3.71 -0.09,-3.88 -0.01,0 -0.03,-0.01 -0.04,-0.01l-0.16 -0.23c-0.19,-0.4 -0.44,-0.57 -0.51,-0.98 -0.08,-0.46 -0.53,-0.97 -0.84,-1.32 -0.02,-0.01 -0.06,-0.07 -0.08,-0.08l-0.39 -0.38c-0.06,-0.04 -0.01,-0.04 -0.17,-0.11l-0.49 -0.07c-0.3,-0.58 -0.11,-0.83 -0.38,-1.2z"/>
   <path class="fil0" d="M91.13 93.19c0.29,0 1.49,0.03 1.69,-0.02 0.39,-0.1 0.3,-0.13 0.3,-0.63l-0.01 -11.69c-0.01,-4.41 0.64,-3.62 -2.65,-3.62 -2.09,0 -1.64,-0.39 -1.64,2.78l0.03 13.15 2.28 0.03z"/>
   <path class="fil5" d="M68.36 65.73c0.75,0.06 0.59,-0.04 0.67,0.25 -0.11,0 -0.31,0.01 -0.41,-0.01 -0.36,-0.1 -0.19,-0.05 -0.26,-0.24zm0 0c-0.22,-0.09 -0.07,0.11 -0.13,-0.12 -0.1,-0.37 -0.01,-0.14 0.04,-0.22 0.03,0.26 0,0.16 0.09,0.34zm0.25 -0.17l0.03 0.03c-0.01,-0.01 -0.04,-0.02 -0.03,-0.03zm-0.92 -0.42c0,-0.21 0.13,-0.01 0.05,0 0,0 -0.05,0.23 -0.05,0zm-0.17 -0.67c0.19,0.81 0.08,0.72 -0.17,1.09 -0.3,-0.16 -0.43,-0.16 -0.67,-0.42 0.1,-0.43 0.32,-0.66 0.84,-0.67zm-15.71 -0.34l0.02 0.03c0,0 -0.03,-0.02 -0.02,-0.03zm-8.15 -0.5c0.17,-0.04 0.23,-0.05 0.41,-0.09 1.56,-0.39 2.59,-1.18 2.86,-1.26l0.16 0.19 -0.91 1.16c-0.32,0.37 -0.91,1.14 -1.3,1.28l-0.2 0.05c-0.51,0.09 -0.1,0.13 -0.47,0.04 -0.59,-0.15 -0.55,-0.65 -0.55,-1.37zm6.38 -0.93c0.42,-0.24 0.26,-0.5 0.7,-0.6 0.45,-0.1 0.41,-0.01 0.63,0.13l0.55 0.52c0.24,0.39 0.22,0.77 0.22,1.37 -0.2,-0.15 -0.16,0.27 -0.16,-0.32l-1.34 -0.08c-0.11,-0.01 -0.23,-0.01 -0.35,-0.01 -0.1,-0.52 -0.25,0.06 -0.25,-0.84 -0.62,0.21 0.01,0.93 0.18,1 0.29,0.14 1.06,0.09 1.5,0.09 0,0.08 0.01,0.17 -0.01,0.24l-0.14 0.2c-0.29,0.26 -1.48,0.86 -1.85,0.88l-0.38 0.1c-0.53,0.07 -0.11,-0.09 -0.44,0.21 -0.03,0.02 0.28,0.22 -1.71,0.22 -0.15,-0.54 -0.7,-0.08 -0.41,-1.42 0.05,-0.24 -0.01,-0.13 0.16,-0.33 0.54,-0.64 -0.01,-0.37 0.58,-0.94 0.71,-0.67 0.52,-0.66 1.49,-1.03l0.12 -0.05c0.02,-0.01 0.04,-0.02 0.06,-0.03 0.34,-0.12 0.66,-0.14 0.94,0.27 -0.06,0.24 -0.04,0.14 -0.09,0.42zm-7.64 -0.16c-0.56,-0.15 -0.82,-0.69 -0.85,-1.27 -0.03,-0.69 0.42,-1.33 0.26,-1.68 -0.38,0.1 -0.5,0.71 -0.6,1.08 -0.12,0.43 -0.11,1.18 0.04,1.58 0.38,0.98 0.84,1.38 2.16,1.38 -0.03,0.32 -0.06,0.19 -0.07,0.54 -0.04,1.24 0.86,1.87 1.88,1.44 0.19,-0.07 0.35,-0.2 0.5,-0.25 0.42,-0.15 0.25,0.09 0.54,-0.22 0,0.56 0.11,0.98 0.49,1.36 0.52,0.5 1.16,0.3 1.86,0.24 0.25,0.51 0.33,0.86 0.81,1.21 0.31,0.24 1.17,0.48 1.52,0.44 0.62,-0.06 0.82,0.07 1.2,0.03 0.29,-0.03 0.51,-0.21 1.05,-0.3 0.48,-0.09 0.62,-0.22 1.07,-0.28 0.95,-0.11 1.12,-0.6 2.08,-0.52 0.05,0.1 -0.01,0.11 0.12,0.21 0.82,0.63 0.66,0.71 1.96,0.36 0.48,-0.13 1.01,-0.39 1.46,-0.64 0.27,-0.16 0.5,-0.35 0.83,-0.43 0.1,0.41 0.52,0.84 1,0.83 0.47,0 0.78,-0.31 1.01,-0.67 0.05,-0.06 0.05,-0.03 0.09,-0.16l0.17 0c0.03,0.39 0.07,0.23 0.25,0.5 1.09,0 0.8,-0.21 1.43,-0.67 0.38,0.36 0.56,0.53 1.25,0.41 0.19,-0.03 0.4,-0.16 0.6,-0.24 0.31,-0.12 0.48,-0.07 0.59,-0.34 0.4,0.01 1.34,0.67 2.02,0.18 0.53,-0.37 0.6,-1.21 0.15,-1.67l-0.58 -0.52c-0.03,-0.02 -0.28,-0.07 -0.33,-0.09 0.07,-0.21 0.01,-0.03 0.07,-0.1l0.07 -0.05c0.01,-0.01 0.03,-0.02 0.03,-0.03l0.28 -0.2c0.46,-0.32 0.55,-0.89 0.46,-1.53 -0.05,-0.33 -0.21,-0.43 -0.24,-0.77l-0.33 0c-0.07,0.24 -0.25,0.34 -0.15,0.72 0.08,0.34 0.23,0.17 0.23,0.79 -0.39,0.1 -0.07,0.12 -0.51,0.17 -0.89,0.09 -0.82,-0.43 -1.25,0.51 -0.13,0.29 -0.5,0.58 -0.69,0.98 -0.27,0.56 -0.08,0.64 -0.07,1.19 -0.38,0.04 -1.04,0.43 -1.17,-0.17 -0.01,-0.08 -0.01,-0.17 -0.01,-0.25 -0.69,0.02 -0.48,0.78 -1.16,0.75 -0.23,-0.01 -0.26,-0.1 -0.52,-0.16 0,-0.34 0.03,-0.27 -0.08,-0.5 -0.51,0.12 -0.62,0.73 -1.09,0.93 -0.25,0.11 -0.56,0.12 -0.82,-0.03 -0.32,-0.18 -0.28,-0.28 -0.36,-0.65 -0.35,0.01 -0.66,0.14 -0.92,0.26 -1.11,0.5 -1.44,1.14 -3.11,0.75 0,-1.04 -0.13,-0.93 -1.36,-0.43l-1.93 0.59c-0.96,0.3 -2.4,0.21 -3.44,0.09 -0.46,-0.05 -0.59,-0.16 -0.92,-0.34 0.02,-0.18 0.02,-0.23 0.07,-0.34 0.15,-0.29 0.53,-0.32 0.8,-0.47 0.26,-0.14 0.93,-0.51 1.06,-0.7 0.52,0.17 -0.3,0.11 0.34,0.17 0.01,-0.65 0.28,-0.54 0.54,-0.97 0.45,-0.73 0.34,-2.73 -1.55,-2.73 -0.12,-0.33 0.01,0.03 -0.11,-0.22 -0.26,-0.51 -0.59,-0.55 -1.15,-0.54 -0.56,0.01 -1.24,0.29 -1.62,0.65 -0.01,0.02 -0.03,0.03 -0.04,0.05 -0.21,0.21 -0.38,0.4 -0.69,0.48 0.1,-0.39 0.44,-0.43 0.54,-0.81 0.09,-0.36 0.01,-0.74 -0.28,-0.96 -0.33,-0.24 -1.65,-0.63 -2.11,-0.66 0.07,-0.82 0.79,-1.3 1.43,-1.6 0.31,0.21 0.11,0.24 0.59,0.25 0.03,-0.39 0.14,-0.27 0.11,-0.55 -0.04,-0.23 -0.14,-0.27 -0.2,-0.54 -0.79,0 -1.04,0.14 -1.45,0.56l-0.81 1.3c-0.08,0.28 -0.2,0.5 -0.18,0.83 0.01,0.24 0.06,0.37 0.22,0.54 0.3,0.31 1.36,0.54 1.89,0.55 -0.02,0.01 -0.04,0.01 -0.05,0.04 -0.01,0.03 -0.07,0.07 -0.08,0.08 -0.02,0.02 -0.04,0.05 -0.06,0.07 0,0.01 -0.01,0.03 -0.02,0.04l-0.06 0.12c-0.29,0.45 -1.01,0.52 -1.42,0.76 -0.4,0.23 -1.11,0.63 -0.92,-0.18l-0.25 0c0,0.33 -0.05,0.52 -0.43,0.58 -0.32,0.05 -0.8,0.02 -1,-0.08 -0.12,0.07 -0.02,0.12 -0.08,-0.08z"/>
   <path class="fil4" d="M53.74 31.28c0,0.56 0.03,0.98 0.46,1.31 0.71,0.54 1.47,1.79 3.02,2.52l0.96 0.47c0.16,0.06 0.28,0.1 0.47,0.2 0.16,0.07 0.33,0.14 0.46,0.21 1.57,0.81 -0.02,1.49 -0.77,1.99l-3.2 2.09c-0.79,0.52 -2.72,1.42 -3.3,0.25 -0.2,-0.41 -0.12,-0.2 -0.12,-1.14 0,-0.28 0.09,-0.3 0.14,-0.53l0.45 -1.66c-0.47,0.04 -0.43,0.4 -0.53,0.73l-0.56 2.3 0.08 0.84c0.3,1.02 0.46,1.68 1.77,1.68 0.39,0 0.25,-0.16 0.75,-0.17 -0.21,0.9 -0.22,2 0.05,2.9 0.12,0.41 0.27,0.57 0.52,0.91 1.14,1.55 2.91,0.99 4.26,0.09 0.51,-0.34 1.05,-0.63 1.5,-1.02 0.57,-0.5 1.17,-1.03 1.66,-1.61 0.77,-0.9 1.42,-1.87 1.42,-3.12 1.41,0 2.53,-0.58 3.04,-1.83 0.4,-0.96 -0.04,-2.46 -0.56,-3.33 -0.19,-0.31 -0.18,-0.08 -0.21,-0.47 0.26,0.06 0.27,0.12 0.51,0 -0.1,-0.42 -1.1,-1.47 -1.6,-1.51 -0.08,0.33 -0.3,1.12 -0.11,1.54l0.06 0.11c0.51,0.76 0.9,1.63 1.35,2.43 0.11,0.2 0.19,0.38 0.3,0.54 -0.54,0.39 -0.16,0.34 -1.24,0.79 -0.65,0.26 -1.7,0.32 -2.37,0.04 -0.28,-0.12 -0.47,-0.33 -0.76,-0.41 -0.17,0.25 -0.13,0.12 -0.18,0.5 -0.03,0.3 -0.05,0.34 -0.07,0.59 2.77,1.86 0,3.24 -1.37,4.44 -0.21,0.18 -0.12,0.1 -0.34,0.24 -0.15,0.1 -0.27,0.17 -0.41,0.27 -0.83,0.53 -1.41,0.75 -2.38,0.97 -0.73,0.17 -1.05,0.15 -1.74,-0.18 -1.02,-0.5 -1.24,-2.45 -0.85,-3.07 0.21,-0.33 1.82,-1.28 2.22,-1.56 1.42,-0.98 3.69,-1.93 3.69,-3.88 0,-1.61 -0.39,-1.94 -1.64,-2.56l-1.12 -0.56c-0.16,-0.07 -0.22,-0.1 -0.39,-0.19 -0.21,-0.11 -0.21,-0.1 -0.38,-0.22 -0.23,-0.15 -0.37,-0.27 -0.64,-0.44l-0.62 -0.57c0.46,0 0.39,0.05 0.59,-0.25 -0.13,-0.19 -0.31,-0.26 -0.54,-0.38 -0.25,-0.14 -0.42,-0.21 -0.66,-0.35 -0.36,-0.2 -1.07,-0.82 -1.07,0.06z"/>
   <path class="fil3" d="M90.04 51.87c0.2,-0.76 1.05,-0.36 1.43,-0.01l0.33 0.43c-0.69,0 -1.48,-0.03 -1.76,-0.42zm-11.01 -10.26l0.24 0.61c0.18,0.68 0.72,2.81 0.77,3.43l0.27 2.25c0.03,0.21 0.12,0.41 0.14,0.69 0.04,0.5 0.04,1.08 0.11,1.57 0.03,0.21 0.13,0.43 0.15,0.7 0.02,0.27 -0.02,0.56 0.01,0.83 0.03,0.23 0.12,0.45 0.15,0.69 0.03,0.27 -0.01,0.54 0.02,0.82 0.03,0.24 0.05,0.42 0.08,0.76 0.02,0.29 0.11,0.48 0.14,0.7l0.17 1.09c0.16,0.75 0.29,1.55 0.83,2.11 0.42,0.43 1.19,0.65 1.83,0.6l1.03 -0.23c1.07,-0.32 1.86,-1.57 2.21,-1.66 0.17,2 1.93,2.05 3.45,1.44 0.21,-0.09 0.18,-0.08 0.35,-0.16 0.17,-0.08 0.26,-0.11 0.4,-0.19 0.24,-0.12 0.46,-0.27 0.67,-0.42 1.68,-1.18 1.68,-2.21 1.68,-3.78l-0.2 -0.81c-0.05,-0.21 0.01,0.01 -0.08,-0.25l-1.07 -1.79c-0.01,-0.01 -0.03,-0.03 -0.04,-0.04 -0.01,-0.01 -0.03,-0.03 -0.04,-0.04l-0.22 -0.2c-1.34,-1.22 -2.48,-0.03 -2.84,0.91 -0.29,0.75 -0.45,1.7 0.14,2.29 0.69,0.69 1.52,0.1 2.86,0.5 0.73,0.21 1.55,0.88 0.24,1.46 -0.98,0.44 -0.81,0.45 -2,0.85 -0.65,0.22 -2.71,0.63 -2.71,-0.61l0 -0.92c-0.58,0.01 -0.4,0.21 -1,0.68 -0.65,0.52 -1.25,1.14 -2.12,1.24 -0.55,0.06 -0.91,0.09 -1.47,-0.02 -0.56,-0.12 -0.81,-0.38 -0.95,-0.82 -0.01,-0.02 -0.01,-0.04 -0.02,-0.06l-0.66 -4.22c-0.01,-0.32 0.01,-0.47 -0.05,-0.79l-0.15 -1.52c-0.26,-1.17 -0.07,-1.44 -0.29,-2.23 -0.1,-0.37 -0.09,-0.29 -0.1,-0.75l-0.47 -2.89c-0.3,-1.13 -0.28,-1.32 -0.7,-2.66 -0.1,-0.32 -0.09,-0.41 -0.42,-0.5 -0.1,0.19 -0.34,1.06 -0.34,1.34z"/>
   <path class="fil4" d="M51.81 34.56c0,0.49 -2.22,1.71 -3.04,0.68 -0.21,-0.27 -0.16,-0.7 -0.16,-1.19 -0.51,0.05 -0.18,0.12 -0.72,1.04 -0.68,1.14 -1.47,0.95 -1.85,0.27 -0.27,-0.49 0.1,-0.48 0.14,-0.97 -0.41,0.01 -0.42,0.08 -0.59,0.33 -0.55,0.81 -1.03,1.67 -2.39,1.5 -0.2,-0.03 -0.13,-0.01 -0.29,-0.08 -0.33,-0.17 -0.61,-0.39 -0.78,-0.73 -0.18,-0.36 -0.04,-0.48 -0.49,-0.52l-0.25 1.1c0,0.27 0.05,0.41 0.14,0.61 0.09,0.18 0.07,0.1 0.15,0.27l0.12 0.3c0.68,1.7 0.39,2.09 -0.89,3.13l-2.62 1.5c-1.13,0.52 -2.81,0.85 -4.07,0.68 -1.07,-0.14 -1.52,-0.45 -2.15,-1.21 -1.01,-1.2 -0.14,-3.84 -0.34,-4.28 -0.22,0.08 -0.25,0.18 -0.32,0.53 -0.22,1.2 -0.4,1.91 -0.21,3.37 0.07,0.57 -0.02,0.27 0.16,0.75 0.43,1.13 0.73,1.58 1.77,2.1 1.13,0.58 2.43,0.46 3.62,0.12 0.27,-0.08 0.4,-0.07 0.67,-0.17l1.23 -0.53c1.11,-0.6 2.12,-1.39 3.01,-2.28l0.37 -0.47c0.24,-0.36 0.46,-0.77 0.57,-1.28 0.08,-0.36 -0.03,-1.46 0.3,-1.46 0.24,0 0.72,0.2 1.4,-0.29 0.41,-0.29 0.7,-0.67 1.04,-0.89 0.24,0.16 0.94,1.89 2.25,0.49 0.39,-0.42 0.29,-0.52 0.52,-0.99 0.27,0.19 0.27,0.5 0.61,0.82 0.97,0.92 1.86,0.18 2.74,-0.66l0.75 -1.27c0.12,-0.29 0.1,0.19 0.1,-0.32 0,-0.78 -0.39,-1.77 -0.72,-2.39 -0.23,-0.44 -0.28,-0.43 -0.29,-0.81 0.23,0.02 0.23,0.04 0.42,0.09 0,-0.81 -0.86,-0.98 -1.09,-1.6l-0.34 0c-0.1,0.44 -0.14,0.36 -0.24,0.61 -0.15,0.37 -0.03,0.23 0.09,0.55 0.41,1.04 -0.03,0.97 1.36,2.93 0.15,0.22 0.31,0.43 0.31,0.62z"/>
   <path class="fil6" d="M50.97 56.07c0,-0.22 0.13,-0.02 0.05,0 0,0 -0.05,0.23 -0.05,0zm-0.34 -0.17c0,-0.22 0.13,-0.02 0.05,0 0,0 -0.05,0.23 -0.05,0zm-7.39 -0.34c-0.23,0 -0.23,-0.04 -0.42,-0.08 0,-0.3 -0.02,-0.29 0.19,-0.48 0.01,-0.01 0.03,-0.03 0.05,-0.04l0.09 -0.07c0.27,0.1 0.12,-0.18 0.17,0.25l0.34 0c-0.03,0.29 -0.13,0.42 -0.42,0.42zm11.84 -1.09c0.11,0.37 0.17,0.61 -0.07,0.95 -0.17,0.23 -0.22,0.3 -0.44,0.32 -0.37,0.02 -0.56,-0.22 -0.7,-0.32 -0.26,-0.17 -0.41,-0.13 -0.63,-0.36 0.56,-0.16 0.06,-0.28 0.61,-0.62 0.46,-0.27 0.43,-0.43 1.07,-0.31l0.16 0.34zm-11.67 0.42c0.08,-0.09 0.31,0.13 0.09,0.04 0,0 -0.24,0.1 -0.09,-0.04zm4.03 -0.17c0.27,0 0.54,0.03 0.7,0.06 0.35,0.07 0.37,0.08 0.56,0.28 -0.28,0.41 -0.98,0.59 -1.51,0.59l0 0.25 -1.52 0 1.52 -1.01c0.14,0.54 0.38,0.07 0.25,-0.17zm7.64 -0.25l0.1 -0.33c-0.43,-0.23 -0.62,-0.49 -1.47,0.14 -0.21,0.15 -0.02,-0.02 -0.21,0.2 -0.47,0.52 -1.33,1.54 -2.1,0.73 -0.31,-0.32 -0.09,-0.28 -0.26,-0.66 -0.56,0.13 -0.59,0.71 -1.09,0.92 -0.2,0.09 -0.19,0.02 -0.51,0.09 0.01,-0.38 0.15,-0.42 0.05,-0.8 -0.1,-0.35 -0.21,-0.21 -0.22,-0.71 -0.63,0.3 -0.99,-0.92 -3.11,0.5 0,-1.43 0.11,-2.62 0,-4.02 -0.18,-2.15 0.14,-1.06 0.14,-1.76 0.01,-0.23 -0.14,-0.62 -0.23,-0.84 -0.12,-0.27 -0.2,-0.53 -0.41,-0.69 -0.58,0.39 -0.25,1.22 -0.25,2.02 -0.01,0.98 0.17,1.45 0.16,2.35 0,0.81 0,1.63 0,2.44 0.01,1.49 -0.13,1.05 -0.56,1.62 -0.07,0.09 -0.08,0 -0.11,0.23 -1.73,0 -0.5,-0.25 -0.78,-1.41 -0.03,-0.13 -0.22,-0.47 -0.31,-0.61 -0.57,0 -0.91,0.16 -1.25,0.69 -0.39,0.6 -0.26,0.73 -0.43,1.07 -0.14,0.28 -0.11,-0.18 -0.17,0.34 -1.66,0 -1.47,-0.51 -1.8,-1.14 -0.75,-1.46 -1.81,0.43 -2.06,1.23 -0.45,1.42 -1.58,1.41 -1.77,0.16 -0.05,-0.34 0,-0.4 -0.25,-0.5 -0.57,1.19 1.02,3.37 1.92,1.66 0.02,-0.04 0.1,-0.21 0.11,-0.22 0,-0.02 0.01,-0.04 0.02,-0.06 0.14,-0.36 0.29,-0.9 0.5,-1.26 0.25,-0.42 0.63,-0.75 1.01,-0.33l0.42 0.68c0.29,0.48 0.31,0.45 0.98,0.79 0.19,0.1 -0.22,0.03 0.26,0.09 0.32,0.04 0.43,-0.08 0.6,-0.16 0.88,-0.39 1.32,-0.07 2.5,-0.02 0.37,0.02 0.38,0.1 0.51,0.11 0.23,0.02 0.36,-0.1 0.53,-0.15l1.81 -0.12c1.01,-0.04 0.91,0.08 2.04,-0.15 0.57,-0.11 0.65,-0.23 0.99,-0.52l0.16 0.08c0.26,0.1 0.21,0.03 0.55,0.05 0.66,0.06 1.01,0.8 2.15,-0.89l0.32 0.17c0.21,0.13 0.15,0.11 0.33,0.27 0.2,0.19 0.41,0.31 0.84,0.22 0.27,-0.06 0.46,-0.25 0.58,-0.52 0.16,-0.37 0.03,-0.52 0.03,-0.98 -0.14,-0.11 -0.03,-0.01 -0.26,0z"/>
   <path class="fil7" d="M53.84 82.63l0.07 -0.34c0,-0.13 -0.51,-2.94 -0.8,-3.25 -0.32,-0.34 -0.26,-0.04 -0.3,-0.29 0,-0.69 -0.07,-0.7 0.17,-1.18l1.52 0.09c0.56,0 1.12,0 1.68,0 0,1.25 0.09,-0.46 0.38,1.32 0.08,0.51 0.07,0.39 0.27,0.77 0.01,0.02 0.03,0.03 0.03,0.05 0.01,0.01 0.02,0.04 0.03,0.05 0.22,0.59 0.17,1.66 0.64,2.17 0.06,0.07 0.1,0.1 0.12,0.12 0.19,0.28 0,0.57 0.27,1.22 0.2,0.45 -0.01,0.19 0.28,0.66 0.32,0.51 0.24,0.57 0.43,1.38 0.03,0.15 0.03,0.22 0.09,0.42 0.03,0.08 0.06,0.17 0.07,0.2l0.5 1.6c0.14,0.36 0.12,0.2 0.18,0.71 0.02,0.1 0.03,0.3 0.13,0.43 0.13,0.2 -0.36,0.15 0.27,0.16 0,1.33 0.35,2.22 0.32,2.6 -0.02,0.29 0.1,-0.1 -0.07,0.17l-0.07 0.09c-0.22,0.36 -0.1,-0.25 -0.18,0.5 0.37,-0.05 0.41,0.2 0.42,-0.25 0.09,0.36 -0.19,0.24 0.42,0.25l0 0.42 -13.44 0c0.06,-0.23 0.41,0.01 0.48,-0.5 0.06,-0.4 -0.14,-0.35 -0.02,-0.67 0.01,-0.01 0.02,-0.03 0.03,-0.05l0.06 -0.11c0.24,-0.55 -0.04,-0.69 0.32,-1.08 0.25,-0.26 0.35,-0.4 0.44,-0.88l0.11 -0.54c0,-0.02 0.01,-0.04 0.02,-0.06l0.39 -1.58c0.05,-0.52 -0.13,-0.57 0.35,-0.67 0,-0.58 0.09,-0.83 0.09,-1.34 0.24,0 0.45,0 0.69,-0.41l0.13 -0.34c0.03,-0.16 0.02,-0.35 0.02,-0.51 0,0 0.12,-0.07 0.14,-0.08 0.31,-0.21 2.06,-0.09 2.55,-0.09l0 0.42c-0.33,0.06 -0.14,0.01 -0.34,0.09 0,0.42 -0.06,0.65 -0.12,1.02 -0.04,0.25 -0.05,0.72 -0.05,1.08 -0.47,0.26 0.2,-0.21 -0.11,0.05 -0.29,0.24 -0.15,0.37 -0.32,0.71 -0.48,0.96 -0.08,1.08 -0.29,1.48 -0.06,0.1 -0.32,0 -0.14,0.51 0.11,0.32 0.19,0.07 0.71,0.55 0.1,0.08 3.07,0.08 3.28,0.04 0.55,-0.1 0.35,-0.28 0.32,-0.44 -0.89,0.12 -2.89,0.04 -3.8,-0.04 0,-1.12 1.57,-5.06 1.46,-5.97l-3.64 0c-0.31,0.56 -2.15,6.4 -2.42,7.24 -0.24,0.77 -0.74,1.93 -0.73,2.63l14.46 0.02c0.03,-1.09 -2.75,-8.73 -3.13,-10.6 -0.34,-0.89 -1.4,-4.86 -1.67,-5.2 -0.43,-0.31 -1.52,-0.14 -2.13,-0.14 -0.72,0 -1.57,-0.05 -2.27,0.01 -0.08,0.49 0.99,3.23 1.26,4.02 0.15,0.43 0.26,0.96 0.44,1.36z"/>
   <path class="fil7" d="M72.39 84.3c-0.34,-0.1 -0.42,-0.17 -0.73,0 -0.42,0.23 0.2,0.09 -0.37,0.18 -0.24,0.03 -0.3,0.01 -0.52,0.08l-0.59 0.36c-0.24,0.18 -0.04,-0.05 -0.2,0.17 -0.15,0.21 -0.08,-0.37 -0.11,0.3l0.08 0.31c0.01,0.02 0.03,0.04 0.04,0.06 0.17,0.25 0.14,0.1 0.39,0.64l0.75 0c0.07,0.48 0.12,0.25 0.12,0.26 0.12,0.24 0.16,0.37 0.39,0.51 0.02,0.01 0.04,0.02 0.06,0.03 0.15,0.08 0.17,0.05 0.27,0.12 0,0.7 0.3,0.57 0.39,1.06 0.05,0.25 0.09,3.79 -0.01,4.06 0,0.02 -0.02,0.04 -0.02,0.06 -0.01,0.02 -0.03,0.05 -0.03,0.06l-3.27 0.14 0.04 -4.11c0,-0.02 0,-0.04 -0.01,-0.07 -0.03,-0.31 -0.14,-0.82 -0.28,-1.02 -0.02,-0.02 -0.07,-0.07 -0.08,-0.09l-0.14 -0.19c-0.01,-0.02 -0.02,-0.04 -0.03,-0.06 -0.3,-0.39 -0.52,-0.22 -0.68,-0.43l-4.12 0.01c-1.16,0.01 -0.12,-0.2 -1,-0.26l0 -2.69c0.31,-0.06 0.32,-0.2 0.54,-0.24l5.85 -0.01 0.66 -0.95c0.01,-0.02 0.02,-0.04 0.03,-0.06 0.01,-0.02 0.02,-0.04 0.03,-0.07l0.09 -0.6c-0.05,-0.63 -0.17,-0.43 -0.31,-0.59l-0.38 -0.39c-0.41,-0.27 -0.2,0.05 -0.38,-0.36 -0.64,0 -0.94,-0.09 -1.51,-0.09l-4.28 0c0,-0.66 -0.05,-0.49 -0.11,-0.69 -0.26,-0.83 0.19,-1.45 0.19,-2.08 0.64,-0.01 7.09,-0.11 7.41,0.09 0.01,0.01 0.03,0.02 0.04,0.03l0.31 0.29c0.31,0.21 0.68,0.43 1.06,0.43 0.04,0.32 0.09,0.53 0.29,0.73 0.15,0.15 0.13,0.06 0.21,0.24 0.04,0.08 0,0.04 0.07,0.19 0.01,0.02 0.02,0.04 0.03,0.06l0.47 2.43c-0.18,1.35 -0.96,1.44 -0.48,2.19 0.05,-0.13 0.06,-0.13 0.11,-0.19l0.12 -0.13c1.3,-1.5 0.83,-5.39 -1.35,-6.27l-0.85 -0.33c-0.7,-0.27 -2.58,-0.16 -3.41,-0.16 -0.47,0 -3.72,-0.05 -4.11,0.04l-0.42 0.11c0,0.61 -0.09,0.99 -0.09,1.68 0,0.56 0,1.12 0,1.68 1.37,0 2.75,0 4.12,0 0.86,0 1.08,-0.07 1.75,0.18 0.52,0.2 0.96,0.48 0.91,1.16 -0.04,0.61 -0.5,0.9 -1,1.08 -0.86,0.3 -4.56,-0.11 -5.81,0.14 -0.09,0.42 -0.09,3.37 0.03,3.66 0.85,0.47 4.38,-0.48 5.5,0.63 0.72,0.72 0.52,2.69 0.52,4.07 0,0.22 -0.09,1.3 0.1,1.45 0.31,0.14 3.74,0.13 4.08,-0.02 0.23,-0.36 0.09,-1.88 0.09,-2.44 0,-1.98 0.19,-4.81 -2.39,-5.04 -0.13,-0.53 0.32,-0.31 0.88,-0.6l0.56 -0.28c0.14,-0.07 0.14,-0.04 0.28,-0.15 0.17,-0.15 0.12,-0.08 0.21,-0.31z"/>
   <path class="fil8" d="M81.15 81.25l-0.02 -0.31c-0.82,0 -0.85,-0.23 -1.35,-0.26 -1.2,-0.06 -3.6,0.13 -4.62,-0.01 -0.29,-0.04 -0.3,-0.07 -0.38,-0.32l-0.04 -0.59c0.01,-0.25 0.01,-0.5 0,-0.76l0.08 -1.59 6.39 0c0.18,0.41 0.15,0.21 0.57,0.29 0.36,0.08 0.32,0.19 0.78,0.33l0.67 0.27c0.02,0.01 0.04,0.01 0.06,0.02 0.1,0.05 -0.18,-0.11 0.12,0.07l0.78 0.39 1.48 1.4c0.48,0.03 0.43,0.39 0.82,0.96 0.01,0.01 0.03,0.03 0.04,0.05 0.3,0.44 0.44,1.01 0.54,1.51 0,0.04 0.03,0.19 0.03,0.21 0.19,0.59 -0.25,-0.32 0.11,0.19l0.08 0.09c0.22,0.35 0.12,0.73 0.14,1.19 0.01,0.58 0.24,0.28 0.15,1.01 -0.04,0.35 -0.06,0.61 -0.06,1.09 0,0.5 -0.09,0.64 -0.09,1.09l-0.33 0.26c-0.28,0.45 -0.18,1.15 -0.54,1.48 -0.01,0.02 -0.03,0.03 -0.05,0.04 -0.61,0.53 -0.79,0.92 -0.79,0.92 -0.01,-0.01 -0.03,0.05 -0.05,0.08l-0.51 0 -0.75 1.13c-0.67,0.35 -0.4,-0.18 -0.68,0.55 -0.56,0 -0.57,-0.09 -0.97,0.13l-0.12 0.06c-0.02,0.01 -0.04,0.02 -0.06,0.03l-0.12 0.05c-0.4,0.19 0.06,-0.15 -0.22,0.17 -0.17,0.19 -0.06,0.11 -0.07,0.09 0,-0.01 -0.02,0.04 -0.03,0.05 -0.27,0 -0.68,-0.07 -0.87,0.08 -0.01,0.01 -0.03,0.04 -0.05,0.05l-0.09 0.13c-0.65,0 -3.97,0.1 -4.46,-0.03 -0.03,0 -0.05,-0.01 -0.08,-0.02 -0.02,-0.01 -0.04,-0.02 -0.06,-0.03 -0.03,-0.01 -0.09,-0.05 -0.11,-0.07 -0.2,-0.11 -0.37,-0.15 -0.67,-0.11 -0.42,0.13 0.25,-0.16 -0.08,0.09 -0.24,0.19 -0.46,0.17 -0.76,0.17 0,-1.49 -0.08,-2.75 -0.08,-4.29 0,-1.4 0,-2.8 0,-4.2l0.12 -0.1c0.01,-0.02 0.03,-0.04 0.05,-0.05l0.42 -0.52 0.74 0.17c0.28,0.14 1.21,-0.03 1.62,0 0.45,0.04 0.67,0.11 0.74,0.58 0.15,1.05 -0.19,4.41 0.07,4.93l0.13 0.19c0.01,0.01 0.02,0.03 0.03,0.04 0.2,0.25 -0.13,0 0.18,0.15 0.25,0.12 0.57,0.09 0.86,0.08 0.26,-0.01 0.5,-0.06 0.67,-0.26 1.3,0 0.84,0.1 1.2,-0.15 0.2,-0.14 0.34,-0.19 0.44,-0.37l0.34 -0.44c0.09,-0.09 0.05,-0.06 0.14,-0.13 0.02,-0.01 0.08,-0.05 0.1,-0.07 0.57,-0.42 0.49,-0.63 0.52,-0.8 0.11,-0.68 0.06,0.11 0.19,-0.44 0.02,-0.08 0.01,-0.3 0.01,-0.37l-0.33 0.6c-0.37,0.58 -0.75,1.03 -1.34,1.4 -0.4,0.25 -1.44,0.77 -1.94,0.77 -0.31,0.01 -0.62,0 -0.93,0l-0.03 -6.13 -4.25 0.02 0 9.22 0.42 0.42c3.68,0 7.06,0.59 9.84,-1.58 0.47,-0.36 0.67,-0.56 1.01,-0.93 0.23,-0.26 0.7,-0.9 0.91,-1.01 0.13,0.06 0.13,0.26 0.34,-0.42 0.07,-0.26 -0.05,-0.31 0.42,-0.35 0,-0.41 0.01,-0.55 0.13,-0.87 0.16,-0.43 0.19,-0.48 0.45,-0.55 0,-0.92 0.03,-1.88 0.01,-2.78l-0.13 -1.98c-0.07,-0.33 -0.12,-0.23 -0.13,-0.62 -0.31,-0.01 -0.26,-0.05 -0.5,-0.04l-0.75 -1.13c-0.01,-0.02 -0.02,-0.04 -0.03,-0.05l-0.71 -0.97c-0.3,-0.44 -0.72,-0.66 -0.97,-0.9 -0.35,-0.34 -0.86,-0.64 -1.33,-0.86 -1.61,-0.76 -2.69,-0.88 -4.61,-0.85 -0.79,0.01 -3.82,-0.12 -4.29,0.07 -0.18,0.15 -0.12,1.54 -0.12,1.79 0.01,0.53 -0.08,1.24 0.07,1.73 1.9,0.19 5.07,-0.32 6.54,0.43z"/>
   <path class="fil8" d="M97.01 77.41l0.25 0.33c0.45,0 0.3,0.06 0.58,-0.1 0.02,-0.02 0.08,-0.06 0.11,-0.07l0.57 -0.08c0.12,0.14 0.08,0.08 0.17,0.31 0.03,0.1 0.06,0.3 0.07,0.36 0.05,0.47 -0.03,0.88 0.14,1.35 0.09,0.26 0.18,0.23 0.46,0.25 0,0.62 0.23,0.8 0.57,1.2 0.26,0.31 0.42,0.33 0.65,0.62 0.27,0.37 0.08,0.62 0.38,1.2l0.49 0.07c0.16,0.07 0.11,0.07 0.17,0.11l0.39 0.38c0.02,0.01 0.06,0.07 0.08,0.08 0.31,0.35 0.76,0.86 0.84,1.32 0.07,0.41 0.32,0.58 0.51,0.98l0.16 0.23c0.01,0 0.03,0.01 0.04,0.01 0.57,0.17 0.43,3.49 0.09,3.88l-0.1 0.08c-0.2,0.16 -0.26,0.19 -0.37,0.43 -0.12,0.27 -0.05,0.6 -0.2,0.75 -0.16,0.17 -0.4,0.05 -0.59,0.24l-0.41 0.5c-0.33,0.54 -0.11,0.09 -0.18,0.44 -1.09,0 -0.71,0.06 -1.52,0.36l-0.74 0.22c-0.3,0.03 -0.7,0.01 -1.01,0.01 -1.26,0 -2.52,0 -3.78,0l-0.16 -0.17c-0.01,-0.02 -0.03,-0.04 -0.04,-0.05l-0.22 -0.2c0,-0.47 0.08,-0.69 0.08,-1.18 0,-0.51 -0.14,-0.84 0.17,-1.18 0.19,-0.2 -0.11,-0.17 1.01,-0.16l2.27 0c0.7,0.01 0.56,0.16 0.75,-0.34l1.26 0c0.02,-0.31 0.03,-0.31 0.34,-0.34 -0.02,-0.49 -0.24,-0.38 -0.06,-1.01l0.14 -1.59c-0.32,-0.06 -0.14,-0.01 -0.34,-0.09 0,-0.94 -0.21,-0.59 -0.6,-1.17 -0.12,-0.17 -0.13,-0.21 -0.15,-0.42 -0.35,-0.01 -0.47,-0.08 -0.66,-0.27 -0.11,-0.12 -0.1,-0.13 -0.18,-0.24l-0.54 -0.9c-0.15,-0.19 -0.27,-0.33 -0.3,-0.61l-0.51 0c0,-0.25 0,-0.3 -0.08,-0.44l-0.26 -0.33c-0.21,-0.32 -0.32,-0.16 -0.61,-0.65l-0.06 -0.1c-0.01,-0.02 -0.02,-0.04 -0.03,-0.06 -0.01,-0.02 -0.02,-0.04 -0.03,-0.05l-0.57 -1.21c-0.19,-0.39 -0.28,-0.22 -0.29,-0.85 -0.05,-2.14 -0.17,-1.85 1.85,-1.85zm6.86 8.23c0.04,-0.29 0.02,-0.32 -0.05,-0.51l-0.14 -0.27c-0.67,-1.07 -0.01,-0.56 -0.94,-1.5 -0.01,-0.02 -0.03,-0.03 -0.04,-0.05 -0.28,-0.31 -0.5,-0.94 -0.56,-1.03 -0.38,-0.51 -0.32,0.24 -1.03,-0.99l-0.1 -0.16c-0.07,-0.12 -0.07,-0.11 -0.13,-0.2 -0.07,-0.09 -0.02,-0.03 -0.11,-0.14l-0.12 -0.13c-0.32,-0.31 -0.13,0.01 -0.37,-0.39 -0.27,-0.45 -0.09,-0.48 -0.75,-0.62 -0.71,-0.8 -0.24,-1.96 -0.27,-2.4 -0.62,-0.07 -3.75,-0.07 -4.22,0.04 -0.63,1.74 0.26,3.39 1,4.53 0.71,1.11 1.73,2.15 2.58,3.22 0.44,0.57 0.85,1.12 1.15,1.71 0.39,0.77 0.35,1.6 -0.23,2.18 -0.86,0.87 -2.92,0.67 -4.38,0.66 -0.12,0 -0.76,-0.03 -0.79,0.15 0,0.03 -0.02,0.05 -0.03,0.06l-0.07 3.37c4.98,0.12 8.28,0.64 9.81,-3.67 0.56,-1.6 0.32,-2.4 -0.21,-3.86z"/>
   <path class="fil9" d="M36.85 80.84c2.44,0.39 6.83,-0.75 6.83,1.19 0,0.28 -0.17,0.66 -0.22,0.72 -0.03,0.02 -0.05,0.03 -0.14,0.09l-0.16 0.1c-1.13,0.66 -4.2,0.08 -6.3,0.35 -0.16,0.72 -0.03,6.85 -0.04,8.57 0,0.34 -0.06,0.76 0.04,1.09 0.07,0.21 0.11,0.14 0.13,0.18 0.06,0.15 3.89,0.08 4.16,0.01l0.03 -5.92c1.06,-0.37 2.64,0.15 3.57,-0.41 -1.07,0.11 -0.65,0.18 -2.02,0.17 -1.13,0 -0.97,-0.12 -1.68,0.26l0 5.31c-0.17,0.85 -1.84,0.57 -2.85,0.57 -0.13,-0.14 -0.12,-0.24 -0.35,-0.26 -0.1,-0.02 -0.54,0.01 -0.66,0.01 -0.16,-2.35 -0.2,-3.33 -0.17,-5.8 0,-0.45 0.09,-0.64 0.09,-1.09l0.08 -2.36 4.88 0.01c1.11,0.01 0.3,-0.26 1.42,-0.26 0.01,-0.21 0.18,-0.48 0.29,-0.69l0.18 -0.41c0.13,-0.28 0.32,-0.3 0.05,-0.79l-0.27 -0.3c-0.01,-0.02 -0.12,-0.15 -0.12,-0.15 -0.14,-0.2 -0.11,0.02 -0.13,-0.35l-6.43 0 0.04 -3.19c1.29,0 2.58,0 3.87,0 1.13,0 1.01,-0.1 1.84,0.15 0.07,0.02 0.2,0.04 0.3,0.01 0.52,-0.12 -0.27,-0.09 0.38,-0.13 0.6,-0.03 0.12,0.01 0.4,0.13 0.16,0.08 0.17,0.09 0.44,0.09 -0.02,0.03 -0.06,0.04 -0.07,0.08l-0.18 0.18c0.74,0 0.94,-0.1 1.42,0.14 0.35,0.17 0.29,0.07 0.53,0.25 0.35,0.27 0.13,0.39 0.43,0.76 0.28,0.33 0.22,0.27 0.81,0.27 0.01,0.43 0.08,0.26 0.3,0.69 0.01,0.01 0.02,0.03 0.03,0.05 0.07,0.15 0.04,0.07 0.08,0.17 0.18,0.43 0.28,1.46 0.28,2.04 0.01,0.54 0.03,0.68 -0.08,1.14l-0.52 1.13c-0.02,0.02 -0.11,0.13 -0.12,0.14 -0.15,0.23 -0.1,-0.04 -0.14,0.39l0.59 -0.03c0.09,-0.34 0.09,-0.1 0.22,-0.45l0.2 -0.65c0.05,-0.47 0,-0.68 0.18,-1.33 0.16,-0.58 0.03,-0.45 -0.03,-0.84 -0.07,-0.44 -0.12,-1.65 -0.43,-2.08 -0.26,-0.36 -0.48,-0.42 -0.48,-1.12 -0.4,0.14 0.07,0.02 -0.33,0.17 -0.35,-0.66 -0.81,-1.08 -1.52,-1.35 0,0 -0.19,-0.05 -0.2,-0.05 -0.06,-0.01 -0.16,-0.03 -0.21,-0.04l-1.39 -0.45 -5.09 -0.05c-0.28,0 -1.57,0.23 -1.73,0.37 -0.46,0.4 -0.15,2.25 -0.17,2.71 -0.03,0.42 -0.14,0.7 0.14,0.86z"/>
   <path class="fil10" d="M53.74 83.79c0.07,0.08 0.02,0.02 0.11,0.14 0.07,0.1 0.03,0.07 0.1,0.16 0.2,0.24 0.02,0.18 0.38,0.21 0,0.53 0.06,0.93 0.27,1.32 0.01,0.02 0.02,0.04 0.03,0.05l0.38 0.88c0.25,0.63 -0.03,0.46 0.57,1.71 0.1,0.21 0.15,0.28 0.18,0.57 -1.01,0.03 0.57,0.35 -1.55,0.21 -0.48,-0.03 0.02,0.05 -0.39,0.05 -0.6,0 -0.21,-0.26 -1.09,-0.26 0,-0.51 0.07,-0.97 0.15,-1.36 0.25,-1.32 0.59,-2 0.67,-2.44l0.16 -0.84c0.04,-0.17 0.03,-0.22 0.03,-0.4zm0.08 -0.84l0.03 0.03c0,0 -0.03,-0.02 -0.03,-0.03zm4.39 -0.37c0.38,1.87 3.16,9.51 3.13,10.6l-14.46 -0.02c-0.01,-0.7 0.49,-1.86 0.73,-2.63 0.27,-0.84 2.11,-6.68 2.42,-7.24l3.64 0c0.11,0.91 -1.46,4.85 -1.46,5.97 0.91,0.08 2.91,0.16 3.8,0.04 0.19,-0.21 0.1,-0.33 -0.08,-0.85l-0.3 -0.81c-0.03,-0.12 -0.11,-0.28 -0.15,-0.42l-0.15 -0.59c-0.01,-0.02 -0.02,-0.04 -0.03,-0.06 -0.44,-0.85 -0.11,-0.16 -0.4,-1.04 -0.01,-0.01 -0.02,-0.03 -0.02,-0.05 -0.18,-0.44 -0.24,-0.38 -0.44,-1.18l-0.6 -1.67c-0.18,-0.4 -0.29,-0.93 -0.44,-1.36 -0.27,-0.79 -1.34,-3.53 -1.26,-4.02 0.7,-0.06 1.55,-0.01 2.27,-0.01 0.61,0 1.7,-0.17 2.13,0.14 0.27,0.34 1.33,4.31 1.67,5.2zm0 0c0.13,-0.52 -0.1,-0.87 -0.25,-1.58 -0.07,-0.32 -0.06,-0.47 -0.12,-0.8 -0.1,-0.57 -0.16,-0.27 -0.4,-0.61 0,-1.16 -0.24,-0.9 -0.5,-1.69 -0.15,-0.45 -0.15,-0.53 -0.53,-0.81 -0.6,-0.46 -2.49,-0.04 -2.82,-0.08 -0.27,-0.03 -0.42,-0.21 -0.91,-0.07 -0.34,0.09 -0.4,0.26 -0.87,0.3 -0.03,0.32 -0.16,0.51 0.07,0.74 0.31,0.31 -0.08,-0.25 0.22,0.15l1.15 3.38c0.07,0.42 0.16,0.84 0.38,1.19 0.01,0.01 0.02,0.03 0.03,0.04 0,0.01 0.02,0.03 0.02,0.04 0.02,0.03 0.03,0.1 0.06,0.17 -0.2,0.09 0.01,0 -0.14,0.04 -0.01,0 -0.04,0.01 -0.05,0.01 -0.66,0.17 -0.59,0 -1.12,0.01 -0.31,0.01 -0.7,0.09 -0.88,0.09 -0.45,0.02 -0.54,-0.17 -1.06,-0.03 -0.05,0.01 -0.14,0.03 -0.2,0.04 -0.42,0.11 -0.1,-0.01 -0.5,0.26 -0.37,0.26 -0.25,0.05 -0.4,0.36 -0.14,0.32 -0.06,0.55 -0.08,0.78 -0.03,0.38 -0.16,0.51 -0.3,0.77 -0.31,0.56 -0.21,1.05 -0.38,1.64 -0.08,0.29 -0.18,0.43 -0.31,0.69 -0.34,0.68 -0.04,0.58 -0.33,1.27 -0.32,0.75 -0.59,1.06 -0.64,1.46 -0.13,1.07 -0.25,0.47 -0.25,1.35 -0.34,0 -0.27,-0.03 -0.5,0.08 -0.2,0.87 -0.21,0.79 0.33,1.6 3.03,0 6.05,0 9.08,0 1.37,0 3.22,-0.11 4.53,0.01 1.1,0.09 0.88,-0.2 0.91,-0.5 0.02,-0.33 0.08,-0.29 0.12,-0.41 0.07,-0.26 -0.07,-0.61 -0.19,-0.85 -0.11,-0.22 -0.09,-0.2 -0.24,-0.35 -0.11,-0.1 -0.22,-0.17 -0.34,-0.25 0,-1.35 -0.29,-1.24 -0.41,-2.28 -0.12,-1.1 -0.27,-0.81 -0.51,-1.51l-0.31 -0.87c-0.15,-0.37 0.1,0.35 -0.04,-0.12l-0.15 -0.53c-0.17,-0.45 -0.19,-1.34 -0.31,-1.7 -0.11,-0.34 -0.14,-0.19 -0.29,-0.39l-0.2 -0.46c-0.07,-0.23 -0.11,-0.3 -0.14,-0.54 -0.1,-0.09 -0.16,-0.03 -0.23,-0.04z"/>
   <path class="fil10" d="M72.56 84.34l-0.17 -0.04c-0.09,0.23 -0.04,0.16 -0.21,0.31 -0.14,0.11 -0.14,0.08 -0.28,0.15l-0.56 0.28c-0.56,0.29 -1.01,0.07 -0.88,0.6 2.58,0.23 2.39,3.06 2.39,5.04 0,0.56 0.14,2.08 -0.09,2.44 -0.34,0.15 -3.77,0.16 -4.08,0.02 -0.19,-0.15 -0.1,-1.23 -0.1,-1.45 0,-1.38 0.2,-3.35 -0.52,-4.07 -1.12,-1.11 -4.65,-0.16 -5.5,-0.63 -0.12,-0.29 -0.12,-3.24 -0.03,-3.66 1.25,-0.25 4.95,0.16 5.81,-0.14 0.5,-0.18 0.96,-0.47 1,-1.08 0.05,-0.68 -0.39,-0.96 -0.91,-1.16 -0.67,-0.25 -0.89,-0.18 -1.75,-0.18 -1.37,0 -2.75,0 -4.12,0 0,-0.56 0,-1.12 0,-1.68 0,-0.69 0.09,-1.07 0.09,-1.68l0.42 -0.11c0.39,-0.09 3.64,-0.04 4.11,-0.04 0.83,0 2.71,-0.11 3.41,0.16l0.85 0.33c2.18,0.88 2.65,4.77 1.35,6.27l-0.12 0.13c-0.05,0.06 -0.06,0.06 -0.11,0.19zm-10.33 -5.59c0,0.32 0.05,0.46 0.06,0.62 0.03,0.45 -0.41,0.47 0.06,1.44 0.17,0.37 0.22,0.31 0.55,0.46 0.35,-0.26 -0.02,-0.25 0.66,-0.26l3.03 0.01c0.93,0 1.06,-0.15 1.46,0.05 0.15,0.09 -0.02,0.03 0.17,0.09 0.22,0.07 0.18,-0.01 0.41,0.09l0.48 0.53c0.12,0.35 -0.24,0.88 -0.72,1.12 -0.89,0.44 -1,0.22 -2.22,0.22 -1.18,0 -2.94,-0.15 -3.94,0.08 0,0.25 -0.02,0.53 -0.01,0.76 0.02,0.39 0.11,0.43 0.15,0.69 0.1,0.55 -0.22,1.71 0.07,2.37 0.11,0.25 0.28,0.3 0.37,0.64l0.17 0c0.07,-0.25 0.04,-0.14 0.17,-0.34 0.54,0.31 3.82,-0.19 4.4,0.3 0.41,0.34 0.55,0.43 0.62,0.73 0.03,0.16 0.01,0.19 0.06,0.36 0.01,0.02 0.02,0.04 0.02,0.06l0.09 0.25c0.14,0.71 0.02,1.19 0.02,1.58 0,0.52 0.08,0.79 0.09,1.18 0.01,0.38 -0.09,0.66 -0.09,1.17 0,0.17 0.13,-0.03 0.17,0.42l3.27 0.01c1.65,0.14 1.26,0.39 1.26,-5.39 0,-0.31 -0.23,-1.02 -0.34,-1.24 -0.07,-0.14 -0.05,-0.13 -0.17,-0.26 -0.28,-0.31 -0.44,-0.1 -0.49,-0.77 -0.34,0 -0.35,-0.02 -0.59,-0.08l0 -0.42c0.38,-0.03 0.28,-0.05 0.67,-0.08l0 -0.26c0.76,-0.01 0.27,-0.53 0.92,-0.58 0.01,-0.29 0.25,-0.81 0.38,-1.05 0.6,-1.1 0.26,-0.72 0.25,-1.46 -0.01,-0.14 0.14,-0.95 -0.03,-1.37 -0.16,-0.38 -0.05,0.09 -0.21,-0.38 -0.07,-0.23 -0.02,-0.27 -0.08,-0.5 -0.15,-0.56 0.01,0.02 -0.32,-0.52 0,0 -0.06,-0.12 -0.09,-0.16l-0.43 -0.67c-0.16,-0.16 -0.22,-0.17 -0.47,-0.19l0 -0.26c-0.71,0 -0.07,0.03 -0.92,-0.34 -1.16,-0.51 -0.68,-0.04 -1.23,-0.36 -0.02,-0.01 -0.04,-0.03 -0.05,-0.04 -0.02,-0.01 -0.03,-0.03 -0.05,-0.03 -0.2,-0.1 -6.65,-0.12 -6.94,-0.01 -0.64,0.22 -0.64,0.98 -0.64,1.79z"/>
   <path class="fil10" d="M86.76 89.6c-0.21,0.11 -0.68,0.75 -0.91,1.01 -0.34,0.37 -0.54,0.57 -1.01,0.93 -2.78,2.17 -6.16,1.58 -9.84,1.58l-0.42 -0.42 0 -9.22 4.25 -0.02 0.03 6.13c0.31,0 0.62,0.01 0.93,0 0.5,0 1.54,-0.52 1.94,-0.77 0.59,-0.37 0.97,-0.82 1.34,-1.4l0.33 -0.6c0.34,-1.34 0.41,-2.28 -0.16,-3.46 -0.24,-0.5 -0.49,-0.86 -0.86,-1.23 -0.48,-0.48 -0.73,-0.6 -1.23,-0.88 -1.47,-0.75 -4.64,-0.24 -6.54,-0.43 -0.15,-0.49 -0.06,-1.2 -0.07,-1.73 0,-0.25 -0.06,-1.64 0.12,-1.79 0.47,-0.19 3.5,-0.06 4.29,-0.07 1.92,-0.03 3,0.09 4.61,0.85 0.47,0.22 0.98,0.52 1.33,0.86 0.25,0.24 0.67,0.46 0.97,0.9l0.71 0.97c0.01,0.01 0.02,0.03 0.03,0.05l0.75 1.13c0,-0.79 -0.62,-1.33 -1.01,-1.98 -0.32,-0.55 -0.36,-0.03 -0.62,-0.55 -0.16,-0.33 0.08,-0.09 -0.21,-0.38l-0.14 -0.12c-0.09,-0.06 -0.11,-0.07 -0.19,-0.14 -0.02,-0.01 -0.04,-0.02 -0.05,-0.04l-0.09 -0.08c-0.08,-0.07 -0.06,-0.06 -0.17,-0.16l-4.07 -1.64 -6.03 0.2c-0.28,0.14 -0.29,-0.01 -0.4,0.35 -0.08,0.23 -0.07,3.05 0.01,3.26 0.16,0.36 0.4,0.17 0.84,0.33 0.32,0.12 0.05,0.1 0.45,0.15 0.19,0.02 0.39,0 0.57,-0.03 0.32,-0.04 3.99,0.02 4.38,0.11 0.36,0.09 0.49,0.27 0.79,0.43 0.82,0.45 0.63,0.42 1.02,0.96l0.25 0.33c0.86,1.27 0.72,1.9 0.72,3.49 -0.24,0.11 -0.16,0.09 -0.51,0.09 -0.04,0.56 -0.09,0.93 -0.42,1.25l-0.33 0.26c-0.26,0.19 -0.39,0.3 -0.42,0.67 -0.54,0.04 -0.84,0.23 -1.33,0.44 -0.98,0.4 -0.64,-0.09 -1.36,-0.1 -0.15,-1.79 -0.08,-3.75 -0.08,-5.55l-0.37 -0.22c-0.01,-0.01 -0.03,-0.03 -0.05,-0.04 -0.4,-0.23 -0.67,-0.09 -1.1,-0.08 -0.4,0.01 -0.23,-0.07 -0.59,-0.07 -0.39,0 -0.12,0.08 -0.55,0.04l-1.88 0.03c-0.16,1.92 0.02,3.04 0,4.88 0,0.49 -0.09,0.63 -0.09,1.17 0.01,0.85 -0.06,2.95 0.13,3.65 0.11,0.38 0.29,0.54 0.72,0.56 0.41,0.02 0.65,-0.09 1.17,-0.09 0.95,0 5.46,0.18 6.11,-0.19l0.31 -0.19c0.29,-0.15 0.24,-0.12 0.64,-0.12 0.24,-0.5 -0.04,-0.21 0.88,-0.63 0.36,-0.17 0.59,-0.4 0.89,-0.62l0.2 -0.14c0.12,-0.07 0.05,-0.01 0.16,-0.09l1.23 -1.79z"/>
   <path class="fil11" d="M103.87 85.64c0.53,1.46 0.77,2.26 0.21,3.86 -1.53,4.31 -4.83,3.79 -9.81,3.67l0.07 -3.37c0.01,-0.01 0.03,-0.03 0.03,-0.06 0.03,-0.18 0.67,-0.15 0.79,-0.15 1.46,0.01 3.52,0.21 4.38,-0.66 0.58,-0.58 0.62,-1.41 0.23,-2.18 -0.3,-0.59 -0.71,-1.14 -1.15,-1.71 -0.85,-1.07 -1.87,-2.11 -2.58,-3.22 -0.74,-1.14 -1.63,-2.79 -1,-4.53 0.47,-0.11 3.6,-0.11 4.22,-0.04 0.03,0.44 -0.44,1.6 0.27,2.4 -0.01,-0.34 -0.09,-0.45 -0.09,-0.9 0,-1.91 0.21,-2.08 -2.18,-1.75 -0.42,0.05 -0.4,0.01 -0.73,-0.05 -1.08,-0.22 -0.95,0.2 -1.7,0.2 -0.05,0.49 -0.23,3.04 0.13,3.56 0.2,0.28 0.03,0.02 0.21,0.21 0.22,0.23 0.4,0.69 0.41,1.11 0.63,0 0.45,0.07 0.64,0.62 0.23,0.69 0.46,0.55 0.79,0.55 0.06,0.73 0.06,0.16 0.61,0.99l1.05 1.39c0.04,0.07 -0.03,0.12 0.31,0.36 0.13,0.09 0.04,-0.01 0.16,0.1 0.09,0.08 0.66,1.45 0.65,1.78 -0.02,0.52 -0.18,0.33 -0.18,0.93 -0.1,0.01 -0.46,0.07 -0.56,0.11l-0.48 0.27c-0.29,0.19 -0.11,0.17 -0.47,0.22 -0.55,0.07 -0.54,-0.08 -0.59,-0.18l-0.42 0c-0.04,0.1 0.08,0.17 -0.49,0.18 -0.25,0 -0.51,-0.01 -0.77,-0.01 -1.69,0 -0.57,-0.07 -1.26,-0.25 -0.17,0.32 -0.35,0.48 -0.47,0.87 -0.17,0.54 -0.06,0.67 -0.09,1.1 -0.03,0.45 0.08,0.72 0.01,1.17 -0.12,0.75 -0.02,0.69 0.22,1.14 0.65,0 5.85,0.12 6.37,-0.1 0.33,-0.14 0.01,-0.07 0.44,-0.15 0.86,-0.14 0.07,-0.06 0.84,-0.33 0.42,-0.15 0.02,0.15 0.51,-0.42l0.78 -0.73c0.5,-0.62 0.79,-1.49 0.82,-1.53 0.12,-0.21 0.21,-0.21 0.21,-0.21 0.78,-0.61 0.35,-1.49 0.36,-2.66 0,-0.39 0.03,-0.81 -0.09,-1.09l-0.39 -0.41c-0.04,-0.01 -0.21,-0.1 -0.22,-0.1z"/>
   <path class="fil11" d="M47.1 85.17c-0.11,0.19 -0.77,0.8 -1,0.98 -0.34,0.25 -0.91,0.53 -1.35,0.66 -0.93,0.56 -2.51,0.04 -3.57,0.41l-0.03 5.92c-0.27,0.07 -4.1,0.14 -4.16,-0.01 -0.02,-0.04 -0.06,0.03 -0.13,-0.18 -0.1,-0.33 -0.04,-0.75 -0.04,-1.09 0.01,-1.72 -0.12,-7.85 0.04,-8.57 2.1,-0.27 5.17,0.31 6.3,-0.35l0.16 -0.1c0.09,-0.06 0.11,-0.07 0.14,-0.09 0.05,-0.06 0.22,-0.44 0.22,-0.72 0,-1.94 -4.39,-0.8 -6.83,-1.19 0.17,0.17 0.24,0.27 0.44,0.33l0.56 0.01c0.76,-0.17 -0.6,-0.22 1.69,-0.25 0.27,0 0.47,-0.02 0.71,0.05 0.55,0.17 1.82,0.28 2.32,0.04 0.04,0.19 0.06,0.19 0.08,0.42 0.69,0 0.85,0.03 0.64,0.72 -0.1,0.32 -0.03,0.32 -0.35,0.58l-0.63 0.29c-0.28,0.04 -0.86,0.01 -1.17,0.01 -1.09,0 -2.26,-0.23 -3.25,0.03 -0.33,0.08 -0.74,0.05 -1.12,0.05 -0.16,0.3 0.01,0.24 -0.34,0.34 0,0.79 0.15,0.71 0.23,1.03 0.13,0.56 -0.06,2.11 -0.06,2.58l0.02 5.24c-0.09,0.66 0.19,0.61 0.23,1.06l3.63 0.08c0.84,0.08 0.76,-0.36 0.84,-1.07 0.05,-0.51 0.05,-0.38 -0.01,-0.87 -0.02,-0.21 0.15,-1.34 0,-2.78 -0.03,-0.3 0.04,-0.52 0.08,-0.82 0.09,-0.5 0.04,-0.4 0.45,-0.56 0.73,-0.29 0.6,0.04 1.09,-0.01 0.19,-0.01 0.29,-0.06 0.41,-0.08 0.31,-0.04 0.66,-0.08 0.91,-0.11 0.64,-0.05 0.6,0.09 0.84,0.17 0.18,-0.25 0.11,-0.08 0.25,-0.25 0.21,-0.25 0.09,-0.31 0.33,-0.43 0.69,-0.36 0.03,0.27 0.82,-0.52l0.4 -0.35c0.24,-0.17 0.33,-0.17 0.21,-0.6z"/>
   <path class="fil4" d="M102.3 66.74c0.34,0.22 1.07,0.91 1.43,1 0.3,-0.21 0.33,-0.51 0.51,-0.84 0.51,0.14 0.9,0.73 1.34,0.84 0.28,-0.26 0.24,-0.44 0.5,-0.84l0.59 0.35c0.02,0.01 0.07,0.05 0.09,0.07 0.2,0.14 0.44,0.36 0.67,0.42 0.11,-0.17 0.24,-0.33 0.32,-0.51 0.4,-0.9 0.42,-0.68 -0.36,-1.22 -0.92,-0.63 -0.92,-0.63 -1.21,0.07 -0.11,0.26 0,-0.11 -0.1,0.24 -0.47,-0.32 -1.07,-0.75 -1.51,-0.76 -0.07,0.32 -0.18,0.35 -0.25,0.67 -0.38,-0.03 -0.48,-0.19 -0.75,-0.35 -0.06,-0.04 -0.09,-0.05 -0.16,-0.08l-0.1 -0.07c-0.34,-0.21 -0.18,-0.17 -0.59,-0.17 -0.03,0.35 -0.27,0.53 -0.42,1.18z"/>
   <path class="fil10" d="M91.13 93.19l-2.28 -0.03 -0.03 -13.15c0,-3.17 -0.45,-2.78 1.64,-2.78 3.29,0 2.64,-0.79 2.65,3.62l0.01 11.69c0,0.5 0.09,0.53 -0.3,0.63 -0.2,0.05 -1.4,0.02 -1.69,0.02zm-2.61 -15.87l0.09 1.77c0,0.32 -0.07,0.29 -0.05,0.49 0.02,0.25 0.13,0.19 0.13,0.52l0 5.79c0,0.44 -0.07,0.63 -0.08,0.93 -0.01,0.31 0.08,0.56 0.08,1.01l0 3.02c0,0.33 -0.17,0.06 -0.17,0.5 0,0.31 0.08,0.31 0.05,0.56 -0.02,0.2 -0.12,0.39 -0.13,0.55 -0.01,0.31 0.21,0.51 0.42,0.91 0.49,0 0.64,0.08 1.01,0.09 0.39,0.01 0.52,-0.09 1,-0.09 0.73,0 1.46,0 2.19,0 0.51,-0.96 0.15,-0.95 0.21,-1.66 0.07,-0.72 0.14,0.03 0.01,-0.72 -0.04,-0.22 0,-0.23 0.02,-0.48 0.13,-1.55 0.08,-0.79 0.01,-2.01 -0.04,-0.69 0.05,-1.39 -0.05,-2.05 -0.12,-0.83 0.02,-5.39 0.05,-6.36 0.01,-0.19 0.41,-3.19 -0.59,-3.19 -0.85,0 -2.33,-0.01 -3.19,0.08 -0.38,0.04 -0.74,0.2 -1.01,0.34z"/>
   <path class="fil4" d="M94.07 56.32c0,0.59 -0.12,1.16 0.34,1.43 0.44,0.26 1.03,0.12 1.51,0.07 -0.07,0.27 -0.21,0.38 -0.41,0.53l-0.53 0.39c-0.78,0.56 -0.9,0.44 -0.91,0.94 0.61,0 0.32,-0.03 0.43,-0.07 1.05,-0.43 1.45,-0.23 1.91,-1.37 0.23,-0.59 0.26,-0.79 0.26,-1.33 0,-0.06 0.09,-0.19 -0.31,-0.36 -0.6,-0.26 -1.7,0.31 -1.7,-0.48 0,-0.25 0.41,-0.64 0.59,-0.76 0.28,0.08 0.32,0.32 0.52,0.04 0.01,-0.02 0.02,-0.04 0.03,-0.06l0.15 -0.46c0.09,-0.4 -0.17,-0.76 -0.45,-0.95 -0.45,0.24 -0.66,0.57 -0.95,0.99 -0.26,0.39 -0.48,0.83 -0.48,1.45z"/>
   <path class="fil12" d="M53.64 64.13c0.07,0.48 1.16,0.63 1.92,-0.02 0.15,-0.13 0.12,-0.14 0.28,-0.23 0.12,-0.06 0.05,-0.03 0.17,-0.06 0.01,0 0.04,-0.01 0.05,-0.01l0.12 -0.01c0.31,0.16 0.65,0.74 1.92,0.31 0.57,-0.19 1.22,-0.41 1.31,-1.04 -0.59,0.1 -1.11,0.47 -1.8,0.53 -1.36,0.1 -1.01,-0.52 -1.37,-0.91 -0.41,0.59 -1,1.21 -1.99,0.97 -0.84,-0.21 -0.8,-1.15 -0.84,-2.05 -0.03,-0.49 -0.1,-4.87 -0.25,-5.22 -0.1,-0.22 0.02,-0.09 -0.18,-0.19 -0.22,0.44 0.02,3.37 0.02,4.15 -0.01,1.98 -0.13,2.34 0.64,3.78z"/>
   <path class="fil3" d="M63.74 41.87c0,0.29 0.24,0.26 0.42,0.5 -0.08,0.28 -0.36,0.65 -0.51,0.93 0.27,0.3 0.33,0.24 0.51,0.5 -0.14,0.5 -0.86,0.83 -0.05,1.39 0.24,0.17 0.39,0.16 0.47,0.46l0.5 0c0.04,-0.5 0.94,-1.18 0,-1.43 0.04,-0.47 0.42,-0.6 0.42,-1.01 0,-0.29 -0.24,-0.26 -0.42,-0.5 0.22,-0.94 0.93,-0.7 -0.13,-1.47 -0.27,-0.2 -0.36,-0.37 -0.79,-0.38 -0.1,0.43 -0.42,0.56 -0.42,1.01z"/>
   <path class="fil13" d="M53.64 64.13c-0.77,-1.44 -0.65,-1.8 -0.64,-3.78 0,-0.78 -0.24,-3.71 -0.02,-4.15 0.2,0.1 0.08,-0.03 0.18,0.19 0.15,0.35 0.22,4.73 0.25,5.22 0.04,0.9 0,1.84 0.84,2.05 0.99,0.24 1.58,-0.38 1.99,-0.97 0.36,0.39 0.01,1.01 1.37,0.91 0.69,-0.06 1.21,-0.43 1.8,-0.53 -0.09,0.63 -0.74,0.85 -1.31,1.04 -1.27,0.43 -1.61,-0.15 -1.92,-0.31 0,0.3 0.18,0.45 0.61,0.56 0.7,0.18 1.97,-0.12 2.51,-0.64 0.31,-0.31 0.86,-1.87 -0.24,-2.89 -0.24,-0.23 -0.1,-0.16 -0.43,-0.23 0.17,0.2 0.27,0.22 0.38,0.36 0.06,0.06 0.26,0.33 0.33,0.43 0.25,0.38 0.21,0.86 0.22,1.36 -0.51,-0.2 -0.33,-0.4 -1.03,-0.37 -0.67,0.04 -0.89,-0.05 -1.29,-0.31 -0.09,-0.56 -0.02,-0.57 0.17,-1.05 -0.19,0.15 -0.42,0.68 -0.48,0.93 0.19,0.06 0.07,0.03 0.2,0.13 1.33,1.03 1.5,-0.07 2.07,0.79 -0.4,0.27 -0.72,0.33 -0.93,0.41 -0.42,0.16 -0.9,0.1 -1.42,0.1l-0.42 -0.84 -0.25 0c-0.09,0.24 -0.34,0.41 -0.54,0.56 -0.47,0.34 -0.19,0.34 -0.66,0.43 -1.77,0.33 -1.39,-1.92 -1.43,-2.23 -0.11,-0.8 -0.06,-1.95 -0.06,-2.88 0,-0.67 -0.02,-0.83 -0.12,-1.39 -0.12,-0.65 0.09,-0.81 -0.39,-1.13 -0.33,0.62 -0.19,1.11 -0.16,1.84 0.02,0.77 0,1.59 0,2.36 0,0.54 0.01,3.55 0.54,3.91 0.21,0.14 0.08,0.05 0.28,0.12z"/>
   <path class="fil4" d="M47.69 40.77c0,0.19 0.98,0.9 1.09,0.93 0.3,-0.2 0.14,-0.11 0.3,-0.37 0.13,-0.21 0.17,-0.21 0.29,-0.39 0.28,0.19 0.79,0.68 1.09,0.76 0.18,-0.27 0.51,-0.76 0.59,-1.09 -0.17,-0.26 -0.3,-0.34 -0.57,-0.53 -0.26,-0.17 -0.36,-0.3 -0.77,-0.31 -0.06,0.2 -0.23,0.51 -0.34,0.67 -0.54,-0.36 -0.74,-0.66 -1.26,-0.67 -0.1,0.37 -0.42,0.55 -0.42,1z"/>
   <path class="fil14" d="M57.41 61.02c-0.19,0.48 -0.26,0.49 -0.17,1.05 0.4,0.26 0.62,0.35 1.29,0.31 0.7,-0.03 0.52,0.17 1.03,0.37 -0.01,-0.5 0.03,-0.98 -0.22,-1.36 -0.07,-0.1 -0.27,-0.37 -0.33,-0.43 -0.11,-0.14 -0.21,-0.16 -0.38,-0.36 -0.02,-0.03 0.14,-0.09 -0.27,-0.16 -0.4,-0.07 -0.99,0.09 -0.95,0.58z"/>
   <path class="fil14" d="M73.99 101.1c0.68,-0.06 0.43,0.05 0.75,-0.17 -0.05,0.2 -0.04,0.35 -0.43,0.33 -0.28,-0.01 -0.25,-0.06 -0.32,-0.16zm0.5 -0.5c-0.21,0 -0.44,-0.1 -0.59,-0.17 -0.11,-0.5 -0.22,-0.58 0.42,-0.93 0.99,0.52 0.18,1.1 0.17,1.1zm-1.17 -0.68c0,0.45 -0.05,0.46 0.25,0.84 0.04,0.05 0.12,0.12 0.17,0.17 -0.13,0.19 -0.02,0.11 -0.26,0.17 0.05,0.52 0.55,0.67 1.01,0.67 0.22,0 0.45,-0.14 0.6,-0.33 0.39,-0.47 0.17,-1.71 0.16,-2.36 -1.17,0.1 -0.37,0 -1.09,0 -0.43,0 -0.84,0.42 -0.84,0.84z"/>
   <path class="fil3" d="M85.84 49.76c0,0.34 0.31,0.45 0.64,0.7l0.57 0.44c0.13,0.09 0.04,0.06 0.21,0.12 0.98,-1.46 1.03,-1.42 0.1,-2.03 -0.7,-0.46 -0.78,-0.69 -1.07,-0.28l-0.17 0.33c-0.12,0.22 -0.28,0.45 -0.28,0.72z"/>
   <path class="fil3" d="M91.3 46.49c0.24,-0.92 1.38,-1.18 0.01,-1.95 -0.29,-0.16 -0.15,-0.05 -0.41,-0.26 -0.64,-0.51 -0.63,-0.15 -0.95,0.44 -0.39,0.74 -0.33,0.71 0.54,1.31 0.38,0.27 0.31,0.45 0.81,0.46z"/>
   <path class="fil3" d="M93.87 107.54c1.01,-0.01 2.15,-0.06 3.14,-0.04 0.54,0.01 2.71,0.24 3.01,-0.1 -0.1,-0.14 0.05,-0.19 -0.29,-0.07 -0.42,0.14 -1.44,0.42 -1.53,-0.26l0.04 -2.78c0.06,-0.21 0.67,-0.18 0.87,-0.17 0.14,0.01 0.34,0.05 0.42,0.05l0.41 -0.04c-0.32,-0.21 -1.87,-0.13 -2.25,-0.12 0.24,0.64 0.16,1.02 0.16,1.71l0 1.27c-0.02,0.21 0.02,-0.07 -0.02,0.17l-0.04 0.16c-0.08,0.33 -1.12,0.23 -1.45,0.24 -0.05,-0.07 -0.09,-0.08 -0.14,-0.23 -0.04,-0.11 -0.02,-0.07 -0.03,-0.18 -0.14,0.37 -1.4,0.43 -1.76,0.08 -0.07,-0.09 -0.29,-2.41 0.13,-3.09l-0.72 -0.12c0.41,0.39 0.25,0.51 0.25,1.7 0,0.67 0.11,1.3 -0.2,1.82z"/>
   <path class="fil14" d="M85.33 100.6l-0.44 -0.4c0.14,-0.54 0.11,-0.48 0.53,-0.7 0.64,0.35 0.74,0.9 -0.09,1.1zm-0.92 -0.59c0,0.3 0.08,0.62 0.33,0.84 0.49,0.44 1.01,0.16 1.01,0.16 0.57,-0.12 0.13,0.26 0.53,0.02 0.3,-0.18 0.19,-1.58 0.13,-1.77 -0.13,-0.34 -0.17,-0.1 -0.56,-0.12 -0.22,-0.01 -0.38,-0.14 -0.64,-0.09 -0.42,0.08 -0.8,0.51 -0.8,0.96z"/>
   <path class="fil14" d="M50.04 62.7c-0.05,0.01 -0.17,-0.19 0,0.17 0,0.9 0.15,0.32 0.25,0.84 0.12,0 0.24,0 0.35,0.01l1.34 0.08c0,0.59 -0.04,0.17 0.16,0.32 0,-0.6 0.02,-0.98 -0.22,-1.37l-0.55 -0.52c-0.22,-0.14 -0.18,-0.23 -0.63,-0.13 -0.44,0.1 -0.28,0.36 -0.7,0.6z"/>
   <path class="fil14" d="M52.56 100.26l0.93 0c-0.15,0.21 -0.13,0.24 -0.47,0.3 -0.35,0.06 -0.38,-0.01 -0.46,-0.3zm0.76 -0.42l-0.76 0c0.06,-0.22 0.1,-0.28 0.36,-0.31 0.27,-0.02 0.34,0.08 0.4,0.31zm-1.34 0.08c0,1.39 1.12,1.31 1.55,0.97l0.37 -0.72c0.07,-0.23 0.11,0.08 0.04,-0.28 -0.25,-1.24 -1.96,-1 -1.96,0.03z"/>
   <path class="fil5" d="M41.72 52.29c0,0.33 0.43,0.75 0.76,0.75 0.21,0 0.39,-0.28 0.59,-0.42 0.3,0.2 0.51,0.42 1.01,0.42 0.15,-0.41 0.76,-0.58 0.13,-1.06 -0.42,-0.33 -0.44,-0.4 -0.81,-0.12l-0.33 0.26 -0.46 -0.3c-0.2,-0.15 0.18,-0.12 -0.3,-0.12 -0.2,0 -0.59,0.38 -0.59,0.59z"/>
   <path class="fil5" d="M63.4 64.05c-0.02,-0.32 -0.14,-0.41 -0.51,-0.66 -0.37,-0.25 -0.75,0.24 -0.92,0.49 0.07,0.26 0.49,0.76 0.84,0.76 0.22,0 0.24,-0.12 0.36,-0.24 0.53,-0.56 0.45,-0.18 1.07,0.24 0.2,-0.05 0.32,-0.08 0.45,-0.22 0.47,-0.52 0.1,-1.07 -0.53,-1.21l-0.39 0.28c-0.57,0.51 0.04,0.42 -0.37,0.56z"/>
   <path class="fil1" d="M58.61 98.58l0 2.44c0.66,0.15 0.51,-0.16 0.51,-1.35 1.23,-0.29 0.1,0.73 0.84,1.43 0.39,-0.21 0.34,-0.19 0.25,-1.34 -0.04,-0.59 -0.5,-0.87 -1.09,-0.59 0,-0.52 -0.04,-0.77 -0.51,-0.59z"/>
   <path class="fil14" d="M65.92 100.51c0,0.24 -0.26,-0.01 -0.59,-0.08 0,-0.48 -0.09,-0.69 0.26,-0.84 0.73,-0.33 0.92,0.77 0.33,0.92zm-1.09 -0.67c0,0.53 0.06,1.26 1.01,1.26 1.34,0 1.12,-2.09 0.01,-2.08 -0.18,0.01 -0.52,0.12 -0.67,0.25 -0.1,0.09 -0.35,0.42 -0.35,0.57z"/>
   <path class="fil14" d="M70.54 100.09c0,-0.21 -0.05,-0.27 0.22,-0.45 0.4,-0.28 0.37,-0.11 0.71,0.12l0 0.67c-0.48,0.11 -0.39,0.22 -0.84,0 -0.06,-0.23 -0.09,-0.16 -0.09,-0.34zm-0.5 -0.08c0,1.27 1.29,1.31 1.74,0.73 0.75,-0.94 -0.44,-2.3 -1.42,-1.42 -0.16,0.14 -0.32,0.42 -0.32,0.69z"/>
   <path class="fil14" d="M82.47 99.59l-0.25 0 0 -0.51 0.25 0c0.2,0 0.26,0.06 0.26,0.26 0,0.19 -0.06,0.25 -0.26,0.25zm-0.84 -0.93c0.02,0.66 0.1,0.21 0.05,1.37l0.12 1.07c0.31,-0.08 0.18,-0.09 0.42,-0.25 -0.01,-0.74 -0.4,-0.61 0.4,-0.78 0.66,-0.15 0.81,-1 0.39,-1.35 -0.28,-0.24 -1.03,-0.26 -1.38,-0.06z"/>
   <path class="fil1" d="M90.12 98.83l0 1.93c0,0.48 0.73,0.31 0.42,-0.33 0.6,0.16 0.23,0.61 1.01,0.67 0.09,-0.4 0.12,-0.23 -0.14,-0.53 -0.06,-0.07 -0.37,-0.46 -0.37,-0.48 0,-0.24 0.75,-1.01 0.26,-1.01 -0.26,0 -0.4,0.31 -0.56,0.46 -0.13,0.12 -0.01,0.06 -0.2,0.13 0.09,-0.2 0.11,-0.36 0.09,-0.67 -0.02,-0.4 -0.01,-0.34 -0.26,-0.5 -0.13,0.08 -0.25,0.11 -0.25,0.33z"/>
   <path class="fil1" d="M56.18 101.1c0.62,0 0.92,-0.29 0.92,-0.84 -0.78,0 -0.48,0.56 -1.08,0.28 -0.74,-0.34 -0.01,-1.03 -0.01,-1.04 0.22,0.11 0.25,0.05 0.45,0.14 0.37,0.15 -0.04,0.2 0.64,0.2 -0.03,-1.29 -2.04,-0.81 -1.91,0.35 0.04,0.39 0.53,0.91 0.99,0.91z"/>
   <path class="fil14" d="M55.08 54.47l-0.16 -0.34c-0.64,-0.12 -0.61,0.04 -1.07,0.31 -0.55,0.34 -0.05,0.46 -0.61,0.62 0.22,0.23 0.37,0.19 0.63,0.36 0.14,0.1 0.33,0.34 0.7,0.32 0.22,-0.02 0.27,-0.09 0.44,-0.32 0.24,-0.34 0.18,-0.58 0.07,-0.95z"/>
   <path class="fil4" d="M76 105.3l-0.1 0.25c0.41,0.26 0.44,0.44 0.65,0.64 0.17,0.16 0.04,0.11 0.21,0.12 0.28,0.11 0.19,0.03 0.4,0.28 0.8,0.95 0.12,0.94 0.8,0.95 -0.21,-0.35 -0.14,-0.46 -0.16,-0.91 -0.51,-0.09 -1.81,-1.79 -1.91,-1.97 -0.29,-0.52 -0.07,-0.69 -0.81,-0.66 0.25,0.71 0.25,-0.31 0.25,1.72 0,0.69 0.09,1.26 -0.16,1.87l0.45 -0.04c-0.32,-0.43 -0.2,-0.17 -0.2,-1.32l0.16 -1.43c0.26,0.11 0.07,-0.04 0.25,0.17 0.12,0.13 0.11,0.18 0.17,0.33z"/>
   <path class="fil1" d="M77.18 100.76c0,0.76 -0.2,0.31 -0.08,0.84l0.42 0c0.03,-0.36 0.04,-0.18 0.23,-0.61l0.26 -0.66c0,-0.02 0.02,-0.04 0.02,-0.06 0.01,-0.02 0.02,-0.04 0.03,-0.06 0.01,-0.02 0.01,-0.04 0.02,-0.06l0.15 -0.35c0.12,-0.27 0.13,-0.36 0.13,-0.72 -0.43,0.04 -0.41,0.11 -0.56,0.46l-0.05 0.11c-0.15,0.34 -0.14,0.15 -0.15,0.53l-0.17 0c0,-0.28 -0.14,-0.75 -0.31,-0.95 -0.09,-0.12 -0.17,-0.16 -0.28,-0.23 -0.17,0.26 -0.16,0.08 -0.14,0.39l0.38 1.14c0.11,0.27 0.1,-0.14 0.1,0.23z"/>
   <path class="fil14" d="M49.54 98.58c0.01,0.41 0,0.41 0.42,0.42 0,1.84 -0.19,2.18 0.5,2.02l0 -1.94c0.23,-0.01 0.23,-0.04 0.42,-0.08 0,-0.3 0.07,-0.44 -0.22,-0.49l-1.12 0.07z"/>
   <path class="fil5" d="M52.31 65.64c0,0.14 0.19,0.4 0.29,0.48 0.4,0.33 0.64,0.22 0.86,0.01 0.29,-0.28 -0.07,-0.11 0.28,-0.23l0 -0.51c-0.5,-0.13 -0.65,-0.76 -1.16,-0.15 -0.04,0.05 -0.27,0.39 -0.27,0.4z"/>
   <path class="fil5" d="M62.73 62.45c0,0.19 -0.02,0.12 0.43,0.5 0.01,0.01 0.03,0.03 0.04,0.04 0.13,0.1 0.21,0.29 0.69,-0.14 0.46,-0.42 0.25,-0.6 -0.14,-0.92 -0.29,-0.24 -0.35,-0.23 -0.6,-0.23 -0.11,0.39 -0.42,0.46 -0.42,0.75z"/>
   <path class="fil15" d="M54.5 59.17c0,0.24 -0.12,0.15 0.37,0.55 0.01,0.02 0.03,0.03 0.05,0.04 0.01,0.01 0.03,0.03 0.04,0.04l0.38 0.13c0.38,-0.26 0.78,-0.59 0.43,-0.94 -1,-0.98 -1.27,0.18 -1.27,0.18z"/>
   <path class="fil5" d="M57.18 58.67c0,0.41 -0.02,0.31 0.1,0.49l0.39 0.29c0.1,0.05 0.18,0.1 0.27,0.14 0.53,-0.35 0.59,-0.32 0.59,-1 -0.74,-0.39 -0.75,-0.55 -1.35,0.08z"/>
   <path class="fil5" d="M50.29 53.04c0.15,0.27 0.28,0.37 0.55,0.55 0.32,0.21 0.44,0.19 0.77,-0.25 0.15,-0.2 0.11,0.17 0.11,-0.3 0,-0.21 -0.41,-0.66 -0.92,-0.67 -0.06,0.17 -0.02,0.06 -0.1,0.16 0,0 -0.15,0.16 -0.16,0.17l-0.12 0.13c-0.07,0.1 -0.08,0.12 -0.13,0.21z"/>
   <path class="fil5" d="M67.52 68c0.96,1.43 1.51,0.04 1.51,0 0,-0.29 -0.67,-0.68 -0.84,-0.68l-0.67 0.68z"/>
   <path class="fil5" d="M53.91 65.31c0,0.38 0.01,0.41 0.21,0.63 0.52,0.55 0.88,0.25 1.22,-0.38 -1.05,-1.21 -0.82,-0.47 -1.43,-0.25z"/>
   <path class="fil14" d="M68.27 101.1c0.44,-0.1 0.34,0.01 0.34,-1.09 0,-0.48 0,-0.95 0,-1.43 -0.75,-0.16 -0.36,0.44 -0.42,1 -0.06,0.46 -0.12,1.09 0.08,1.52z"/>
   <path class="fil16" d="M62.33 99.17c-0.17,0.26 -0.05,0.15 -0.49,0.09 0.01,0.46 -0.16,1.34 0.13,1.64 0.36,-0.32 -0.19,-0.92 0.42,-1.46 1.07,-0.06 0.41,1 0.76,1.46 0.28,-0.14 0.19,-0.9 0.11,-1.2 -0.14,-0.6 -0.45,-0.33 -0.8,-0.62l-0.13 0.09z"/>
   <path class="fil17" d="M62.46 99.08c0.35,0.29 0.66,0.02 0.8,0.62 0.08,0.3 0.17,1.06 -0.11,1.2 -0.35,-0.46 0.31,-1.52 -0.76,-1.46 -0.61,0.54 -0.06,1.14 -0.42,1.46 -0.29,-0.3 -0.12,-1.18 -0.13,-1.64 0.44,0.06 0.32,0.17 0.49,-0.09 -0.62,-0.05 -0.68,-0.46 -0.61,1.43 0.01,0.39 0.01,0.34 0.25,0.5 0.39,-0.26 0.26,-0.38 0.26,-1.34l0.32 -0.27c0.81,0.45 0.21,0.97 0.52,1.61l0.25 0c0.11,-0.23 0.29,-1.54 -0.2,-1.9 -0.18,-0.14 -0.38,-0.12 -0.66,-0.12z"/>
   <path class="fil18" d="M88.27 101.1c0.18,-0.36 0.03,-0.65 0.09,-1.09 0.07,-0.54 0.42,-0.32 0.42,-0.76 0,-0.26 -0.4,-0.12 -0.42,-0.12 -0.4,0 -0.42,-0.4 -0.42,1.05 -0.01,0.94 -0.09,0.82 0.33,0.92z"/>
   <path class="fil19" d="M47.1 53.21c0.07,0.25 0.04,0.14 0.17,0.34 0.18,-0.13 0.29,-0.16 0.42,-0.34 -0.23,-0.13 -0.51,-0.1 -0.59,0z"/>
   <path class="fil20" d="M67.6 82.28c0.24,-0.02 0.33,0 0.3,-0.2 -0.04,-0.29 -0.1,-0.25 -0.3,-0.3l0 0.5z"/>
   <polygon class="fil21" points="44.92,64.13 45.17,64.13 45.17,63.88 44.92,63.88 "/>
   <path class="fil19" d="M51.89 66.99c0.06,-0.11 0.05,-0.09 0.09,-0.25l-0.26 0c0.06,0.23 -0.03,0.13 0.17,0.25z"/>
   <polygon class="fil19" points="67.6,61.86 67.85,61.86 67.85,61.7 67.6,61.7 "/>
   <polygon class="fil22" points="44.92,57.91 45.09,57.91 45.09,57.66 44.92,57.66 "/>
   <polygon class="fil20" points="50.61,64.82 50.63,64.55 50.38,64.55 "/>
   <path class="fil19" d="M58.53 66.4c0.24,-0.06 0.12,0.01 0.25,-0.17l-0.25 0 0 0.17z"/>
   <polygon class="fil20" points="45.25,61.53 45.59,61.53 45.59,61.44 45.25,61.44 "/>
   <path class="fil21" d="M42.4 62.54c0.2,-0.06 0.11,0.03 0.17,-0.17 -0.22,0.06 -0.1,-0.03 -0.17,0.17z"/>
   <path class="fil19" d="M78.11 82.2c0.08,0.08 0.3,-0.12 0.09,-0.05 0,0 -0.24,-0.09 -0.09,0.05z"/>
   <path class="fil22" d="M46.35 59.26c0.08,0.09 0.3,-0.12 0.09,-0.05 0,0 -0.24,-0.09 -0.09,0.05z"/>
   <path class="fil23" d="M46.18 62.96c0,0.2 0.13,0.02 0.05,0 0,0 -0.05,-0.24 -0.05,0z"/>
   <path class="fil20" d="M55.76 64.89l0.02 -0.03c0,0 -0.03,0.02 -0.02,0.03z"/>
   <path class="fil20" d="M69.03 64.55l0.03 -0.02c-0.01,0 -0.04,0.01 -0.03,0.02z"/>
   <path class="fil21" d="M47.69 61.53l0.03 -0.03c-0.01,0 -0.04,0.02 -0.03,0.03z"/>
   <path class="fil20" d="M67.94 63.21l0.02 -0.03c0,0 -0.03,0.02 -0.02,0.03z"/>
   <path class="fil22" d="M51.81 54.97l0.02 -0.02c0,0 -0.03,0.02 -0.02,0.02z"/>
   <path class="fil20" d="M47.02 56.99l0.02 -0.02c0,0 -0.03,0.01 -0.02,0.02z"/>
   <line class="fil19" x1="49.29" y1="62.87" x2="49.29" y2= "62.87" />
  </g>
 </g>
</svg>
