<?xml version="1.0" encoding="UTF-8"?>
<!DOCTYPE svg PUBLIC "-//W3C//DTD SVG 1.1//EN" "http://www.w3.org/Graphics/SVG/1.1/DTD/svg11.dtd">
<!-- Creator: CorelDRAW 2020 (64-Bit) -->
<svg xmlns="http://www.w3.org/2000/svg" xml:space="preserve" width="140px" height="140px" version="1.1" style="shape-rendering:geometricPrecision; text-rendering:geometricPrecision; image-rendering:optimizeQuality; fill-rule:evenodd; clip-rule:evenodd"
viewBox="0 0 140 140"
 xmlns:xlink="http://www.w3.org/1999/xlink"
 xmlns:xodm="http://www.corel.com/coreldraw/odm/2003">
 <defs>
  <style type="text/css">
   <![CDATA[
    .fil1 {fill:#7B7B7B}
    .fil3 {fill:#888888}
    .fil4 {fill:#8C8C8C}
    .fil0 {fill:#FEFEFE}
    .fil2 {fill:white}
   ]]>
  </style>
 </defs>
 <g id="Layer_x0020_1">
  <metadata id="CorelCorpID_0Corel-Layer"/>
  <g id="_2774294521968">
   <path class="fil0" d="M90.75 83.17c0,-0.51 -0.09,-0.54 -0.09,-1.1l0 -9.97c0.89,0 1.12,0.11 1.69,-0.2l0 10.77c-0.9,-0.21 -1.11,0.37 -1.6,0.5zm33 -18.23l0 8.34c-0.01,0.33 -0.04,0.56 -0.07,0.64 -0.3,0.69 -1.37,0.89 -2.04,0.4 -0.58,-0.43 -1.79,-2.39 -3.37,-2.52 0.01,0.62 0.34,0.89 0.77,1.23 0.7,0.57 1.65,0.87 2.35,1.44 0.81,0.67 2.26,2.21 2.36,3.35l0 3.84 0 0.05c-0.49,-0.35 -0.15,-2.27 -1.85,-4.76 -0.96,-1.4 -1.47,-1.62 -2.71,-2.28 -0.4,-0.21 -0.68,-0.42 -0.96,-0.63 -0.55,-0.42 -1.24,-1.05 -1.29,-2.04 -0.06,-1.04 0.7,-1.63 1.8,-1.43 1.86,0.35 3.45,2.6 3.76,2.68 0.15,-2.38 0.06,-5.41 0.03,-7.83 -0.01,-0.73 -0.37,-0.83 -0.85,-1.12 -0.4,-0.24 -0.78,-0.49 -1.21,-0.68 -0.84,-0.37 -1.99,-0.81 -3.09,-0.79 -5.26,0.11 -9.93,7.76 -5.5,14.46 1.63,2.46 3.06,2.53 4.2,3.58 0.82,0.75 1.22,1.7 0.91,2.91 -0.26,0.99 -1.22,1.55 -2.5,1.15 -2.48,-0.77 -3.89,-3.27 -4.28,-3.42l0.02 8.64c0,0 7.37,6.05 11.95,-1.47 0.6,-0.98 1.02,-2.12 1.25,-3.21 0.04,-0.2 0.11,-1.12 0.32,-1.16l0 0.2c0,0.99 0,1.98 0,2.97l0 0.92c-0.02,0.14 -0.08,0.28 -0.22,0.52 -0.76,1.33 -1.71,2.54 -2.98,3.4 -1.89,1.28 -3.8,1.85 -6.4,1.15 -1.67,-0.45 -3.11,-1.19 -4.35,-2.03 0,0.97 -0.4,1.57 -1.22,1.68 -1.22,0.17 -4.15,0.01 -5.56,0.02 -1.03,0.01 -1.7,-0.06 -1.9,-0.9 -0.35,0.26 -0.2,0.44 -0.57,0.72 -0.67,0.51 -2.67,0.28 -3.51,0.28 -1.1,0 -3.79,0.3 -4.39,-0.6 -1.69,1.13 -4.08,1.4 -6.06,0.87 -2.84,-0.76 -3.27,-2.62 -3.91,-3.36 0,0.58 0.2,0.77 0.3,1.29 0.36,1.76 -1.67,1.6 -2.89,1.6 -1.03,0 -2.06,0 -3.09,0 -0.91,0 -1.95,0.22 -2.5,-0.6 -0.84,0.57 -1.23,0.99 -2.46,1.23 -2.17,0.42 -3.79,-0.71 -5,-2.24 -0.41,-0.52 -0.82,-1.08 -1.11,-1.68 -0.1,-0.23 -0.17,-0.42 -0.4,-0.5 0,1.54 0.59,3.46 -1.05,3.93 -0.69,0.2 -4.26,0.06 -5.13,0.06 -1.28,0 -2.05,0.04 -2.32,-1.07 -0.23,-0.93 -0.07,-11.77 -0.07,-13.69l-0.08 0.13c-0.01,0.02 -0.05,0.11 -0.06,0.14l-1.02 4.16c-0.1,0.54 -0.18,0.57 -0.28,1.11 -0.19,0.99 -0.3,2.48 -1.49,2.6 -0.55,0.06 -1.1,-0.19 -1.35,-0.67 -0.23,-0.46 -0.3,-1.14 -0.42,-1.68 -0.07,-0.36 -0.19,-0.76 -0.26,-1.13 -0.1,-0.48 -0.81,-3.9 -1.12,-4.36 0,1.64 0.14,12.15 -0.05,13.21 -0.1,0.54 -0.13,0.52 -0.47,0.83 -0.93,0.85 -4.67,0.41 -6.07,0.42 -2.38,0.01 -2.09,-1.27 -2.09,-3.19l0 -31.61c0,-0.93 -0.27,-3.98 0.52,-4.66 0.68,-0.59 3.7,-0.32 4.97,-0.32 0.7,0 2.02,-0.07 2.65,0.03 0.82,0.15 1.09,0.55 1.3,1.3 0.11,0.4 0.16,0.7 0.28,1.11l0.7 2.59c0.21,0.74 1.15,4 1.15,4.64l0.2 0c0.01,-0.46 0.19,-0.82 0.27,-1.22l0.28 -1.11c0.1,-0.45 0.23,-0.79 0.32,-1.18 0.22,-0.87 1.24,-5.15 1.56,-5.63 0.44,-0.66 1.19,-0.63 2.25,-0.63 0.97,0 1.93,0 2.89,0 1.16,0 2.99,-0.39 3.78,0.6 0.22,0.28 0.29,0.63 0.31,1.09 0.17,3.7 0,7.83 0,11.57 0,3.18 0.16,8.31 -0.1,11.46 0.25,-0.09 0.28,-0.25 0.41,-0.49 0.65,-1.18 1.63,-2.34 2.72,-3.15l3.24 -1.85c0.14,-0.05 0.16,-0.04 0.31,-0.09l0.9 -0.3c-0.18,-0.67 -1.07,-0.77 -1.77,-0.47 -1.58,0.69 -2.84,2.37 -3.7,2.31 -1.29,-0.09 -1.31,-1.1 -1.31,-2.34 0,-6.91 -0.87,-6.75 2.29,-8.57 3.23,-1.87 7.06,-2.2 9.8,0.57 0.36,0.37 0.78,0.97 1.17,1.22 0,-2.07 0.05,-2.66 2.21,-2.63 0.32,0 0.43,0.11 0.48,-0.35l0.4 -5.69c-0.02,-3.82 1.32,-3.09 4.98,-3.09 0.64,0 1.4,-0.06 1.88,0.12 0.43,0.16 0.83,0.54 0.91,1.08 0.15,1.11 0.01,6.5 0.01,8.07 2.23,0 1.99,0.41 2,-0.38 0.02,-1.63 -0.3,-7.37 0.21,-8.17 0.44,-0.69 1.1,-0.62 2.17,-0.62 0.93,0 1.86,0 2.79,0 1.16,0 2.88,-0.38 3.37,0.82 0.15,0.34 0.12,0.72 0.12,1.17 0.34,-0.22 0.58,-0.46 1.1,-0.49 2.32,-0.18 1.54,0.47 2.67,0.08 0.4,-0.13 0.97,-0.09 1.52,-0.08 1.59,0 3.47,-0.18 4.18,1.39 0.18,0.39 -0.01,0.27 0.3,0.5 0.03,-1.25 0.78,-1.9 1.99,-1.9 1.13,0 2.38,-0.09 2.5,1.3 0.49,-0.36 0.04,-0.86 1.18,-1.21 0.5,-0.16 1.68,-0.17 2.18,0.06 0.49,0.22 0.23,0.3 0.72,0.06 0.39,-0.18 0.45,-0.21 1,-0.21 3.02,-0.02 2.3,1.38 2.3,4.89 0,0.84 0.1,1.61 -0.32,2.08 -0.49,0.54 -0.8,0.51 -1.78,0.51 0.49,0.42 1.34,0.71 1.88,1.11 0.67,0.5 1.16,0.71 1.21,1.6zm-13.95 15.24l0 -3.99 0.26 0.43c2.47,5.25 5.72,4.03 5.72,6.55 0,1.59 -2.52,-0.27 -3.38,-1.21l-1.16 -1.33c-0.52,-0.52 -0.77,-0.52 -1.44,-0.45zm-16.11 -25.6l6.19 0.01 0.02 10.97c0.2,-0.09 0.32,-0.41 0.49,-0.65 1.55,-2.12 4.07,-2.55 5.85,-0.81 1.59,1.56 2.31,4.81 2.3,7.7 0,1.62 0.08,18.94 -0.05,20.06l-6.16 -0.02c-0.14,-1 -0.02,-14.23 -0.02,-16.45 0,-1.18 0.5,-4.55 -1.26,-4.14 -1.17,0.27 -1.19,3.07 -1.19,4.24 0,5.42 -0.09,11.08 -0.01,16.45l-6.19 0 0.03 -37.36zm-12.75 9.01l2.52 -0.03 0.64 -9.05 4.47 -0.04c0.06,0 0.23,0.01 0.28,0.02l0.22 0.07c0.41,0.16 0.1,8.09 0.14,9.2l2.81 -0.01 0.03 6.95 -2.64 0.25c-0.11,0.44 -0.05,3.56 -0.05,4.04 0,1.69 -0.13,7.28 0.14,8.54 0.45,2.03 2.2,0.55 2.53,0.45l0 7.53c-1.57,1.56 -8.52,2.19 -8.91,-4.95 -0.23,-4.17 0.06,-11.2 -0.02,-15.89 -0.38,-0.01 -2.02,0.09 -2.17,-0.12 -0.13,-0.19 -0.04,-1.96 -0.04,-2.34 0,-0.91 -0.11,-3.94 0.05,-4.62zm-13.28 9.1c-0.21,-1.81 -0.01,-4.64 -0.03,-6.57 -0.01,-1 -0.09,-0.89 1.48,-1.8 0.72,-0.42 1.38,-0.73 2.31,-1.01 2.01,-0.63 3.67,-0.46 5.2,0.6 2.88,1.99 3.97,5.48 4.02,9.09 0.03,2.19 -0.02,4.39 0.02,6.58 0.04,2.22 0.11,4.28 0.18,6.48 0.09,3.1 0.74,4.4 0.88,5.72l-6.18 0.02 -0.5 -1.97c-0.59,0.34 -0.8,1.66 -2.64,2.4 -1.52,0.61 -2.78,0.02 -3.69,-0.87 -3.49,-3.35 -4.23,-10.54 -0.42,-14.81 0.68,-0.76 1.73,-1.6 2.83,-2.15 2.08,-1.06 2.87,-0.98 3.7,-1.37 0.2,-0.58 -0.59,-1.7 -0.91,-2.02 -2.35,-2.39 -5.69,1.54 -6.25,1.68zm-18.15 19.19c-0.51,0.15 -5.11,0.1 -5.93,0.06l-0.01 -37.13 6.75 -0.04c0.31,1.37 3.38,13 3.55,13.17 0.28,-0.25 2.31,-8.41 2.69,-9.86 0.27,-1 0.76,-2.5 0.89,-3.43l6.79 0c0.16,0.92 0.03,17.26 0.03,18.65 0,2.17 0.17,17.95 -0.1,18.58 -0.45,0.16 -5.17,0.14 -5.89,0.03 -0.13,-1.05 -0.02,-9.97 -0.02,-11.83 0,-1.46 0.21,-11.3 -0.11,-11.77 -0.43,0.58 -3.87,16.4 -4.28,16.91 -0.19,-0.3 -1.86,-7.5 -2.09,-8.47 -0.25,-1.08 -1.88,-8.25 -2.1,-8.45 -0.08,0.1 -0.06,0.03 -0.11,0.23 -0.03,0.15 -0.03,0.22 -0.03,0.38 -0.01,0.21 0.01,0.47 0.01,0.7 0,0.5 0,1 -0.01,1.5 0,0.99 0,1.99 0,2.99l-0.01 11.86c0,1.84 0.12,4.13 -0.02,5.92zm56.4 -29.65c2.32,0 1.02,-0.5 1.84,-0.16 0.77,0.33 1.88,0.11 2.55,0.11 0.47,0 1.74,0.2 2.35,-0.09 0.05,-0.02 0.23,-0.14 0.24,-0.15 0.18,-0.16 0.12,-0.03 0.2,-0.31l0.2 0c0.13,0.49 0.74,0.6 1.19,0.6 -0.42,0.37 -1.46,0.59 -3.06,2.32 -0.8,0.86 -1.33,1.85 -1.78,2.91l-0.24 0.46c-0.61,-2.61 -1.25,-4.16 -3.32,-5.56 -0.15,-0.11 -0.07,-0.04 -0.17,-0.13zm-4.79 0.2l0 -0.7c0.26,0.17 0.41,0.16 0.5,0.5 -0.36,0.1 -0.13,0.09 -0.5,0.2zm1.06 -1.46c-0.19,-0.47 -0.11,-4.18 -0.07,-4.93 0.5,-0.13 1.07,-0.09 1.58,-0.04 0.06,0.85 0.13,4.28 -0.05,4.98l-1.46 -0.01zm8.42 0.06c0.1,-0.85 0.8,-2.38 1.09,-3.25l0.63 -1.79 1.86 -0.02c0.07,0.68 1.59,4.15 1.7,5.07l-1.64 -0.03 -0.25 -0.77 -1.64 0 -0.16 0.8 -1.59 -0.01zm6.23 -0.06c-0.18,-0.47 -0.1,-4.18 -0.06,-4.98l1.56 0.02c0.48,0.88 1.13,1.65 1.64,2.53l0.02 -2.57 1.53 0.05 -0.01 4.96c-0.3,0.05 -0.54,0.07 -0.85,0.06 -1.45,-0.01 -1.1,-1.27 -2.38,-2.51 -0.01,0.63 0.11,1.9 -0.07,2.45l-1.38 -0.01zm-11.67 -4.96c1.06,-0.15 3.13,-0.21 3.94,0.23 0.92,0.51 0.71,2.11 -0.43,2.5 0.1,0.22 0.27,0.22 0.43,0.41l0.9 1.89 -1.7 -0.05c-0.73,-0.96 -0.8,-1.96 -1.53,-1.95l-0.02 1.99 -1.61 -0.04 0.02 -4.98z"/>
   <path class="fil1" d="M49.51 91.88c0.14,-1.79 0.02,-4.08 0.02,-5.92l0.01 -11.86c0,-1 0,-2 0,-2.99 0.01,-0.5 0.01,-1 0.01,-1.5 0,-0.23 -0.02,-0.49 -0.01,-0.7 0,-0.16 0,-0.23 0.03,-0.38 0.05,-0.2 0.03,-0.13 0.11,-0.23 0.22,0.2 1.85,7.37 2.1,8.45 0.23,0.97 1.9,8.17 2.09,8.47 0.41,-0.51 3.85,-16.33 4.28,-16.91 0.32,0.47 0.11,10.31 0.11,11.77 0,1.86 -0.11,10.78 0.02,11.83 0.72,0.11 5.44,0.13 5.89,-0.03 0.27,-0.63 0.1,-16.41 0.1,-18.58 0,-1.39 0.13,-17.73 -0.03,-18.65l-6.79 0c-0.13,0.93 -0.62,2.43 -0.89,3.43 -0.38,1.45 -2.41,9.61 -2.69,9.86 -0.17,-0.17 -3.24,-11.8 -3.55,-13.17l-6.75 0.04 0.01 37.13c0.82,0.04 5.42,0.09 5.93,-0.06z"/>
   <path class="fil1" d="M93.66 91.94l6.19 0c-0.08,-5.37 0.01,-11.03 0.01,-16.45 0,-1.17 0.02,-3.97 1.19,-4.24 1.76,-0.41 1.26,2.96 1.26,4.14 0,2.22 -0.12,15.45 0.02,16.45l6.16 0.02c0.13,-1.12 0.05,-18.44 0.05,-20.06 0.01,-2.89 -0.71,-6.14 -2.3,-7.7 -1.78,-1.74 -4.3,-1.31 -5.85,0.81 -0.17,0.24 -0.29,0.56 -0.49,0.65l-0.02 -10.97 -6.19 -0.01 -0.03 37.36z"/>
   <path class="fil1" d="M74.9 78.25c0.1,1.55 0.57,5.86 -0.87,7.03 -0.68,0.54 -1.36,0.24 -1.77,-0.27 -1.34,-1.67 -0.55,-6.96 2.64,-6.76zm-7.24 -5.56c0.56,-0.14 3.9,-4.07 6.25,-1.68 0.32,0.32 1.11,1.44 0.91,2.02 -0.83,0.39 -1.62,0.31 -3.7,1.37 -1.1,0.55 -2.15,1.39 -2.83,2.15 -3.81,4.27 -3.07,11.46 0.42,14.81 0.91,0.89 2.17,1.48 3.69,0.87 1.84,-0.74 2.05,-2.06 2.64,-2.4l0.5 1.97 6.18 -0.02c-0.14,-1.32 -0.79,-2.62 -0.88,-5.72 -0.07,-2.2 -0.14,-4.26 -0.18,-6.48 -0.04,-2.19 0.01,-4.39 -0.02,-6.58 -0.05,-3.61 -1.14,-7.1 -4.02,-9.09 -1.53,-1.06 -3.19,-1.23 -5.2,-0.6 -0.93,0.28 -1.59,0.59 -2.31,1.01 -1.57,0.91 -1.49,0.8 -1.48,1.8 0.02,1.93 -0.18,4.76 0.03,6.57z"/>
   <path class="fil1" d="M123.75 84.31l0 -2.6c-0.49,-0.35 -0.15,-2.27 -1.85,-4.76 -0.96,-1.4 -1.47,-1.62 -2.71,-2.28 -0.4,-0.21 -0.68,-0.42 -0.96,-0.63 -0.55,-0.42 -1.24,-1.05 -1.29,-2.04 -0.06,-1.04 0.7,-1.63 1.8,-1.43 1.86,0.35 3.45,2.6 3.76,2.68 0.15,-2.38 0.06,-5.41 0.03,-7.83 -0.01,-0.73 -0.37,-0.83 -0.85,-1.12 -0.4,-0.24 -0.78,-0.49 -1.21,-0.68 -0.84,-0.37 -1.99,-0.81 -3.09,-0.79 -5.26,0.11 -9.93,7.76 -5.5,14.46 1.63,2.46 3.06,2.53 4.2,3.58 0.82,0.75 1.22,1.7 0.91,2.91 -0.26,0.99 -1.22,1.55 -2.5,1.15 -2.48,-0.77 -3.89,-3.27 -4.28,-3.42l0.02 8.64c0,0 7.37,6.05 11.95,-1.47 0.6,-0.98 1.02,-2.12 1.25,-3.21 0.04,-0.2 0.11,-1.12 0.32,-1.16z"/>
   <path class="fil1" d="M80.94 63.59c-0.16,0.68 -0.05,3.71 -0.05,4.62 0,0.38 -0.09,2.15 0.04,2.34 0.15,0.21 1.79,0.11 2.17,0.12 0.08,4.69 -0.21,11.72 0.02,15.89 0.39,7.14 7.34,6.51 8.91,4.95l0 -7.53c-0.33,0.1 -2.08,1.58 -2.53,-0.45 -0.27,-1.26 -0.14,-6.85 -0.14,-8.54 0,-0.48 -0.06,-3.6 0.05,-4.04l2.64 -0.25 -0.03 -6.95 -2.81 0.01c-0.04,-1.11 0.27,-9.04 -0.14,-9.2l-0.22 -0.07c-0.05,-0.01 -0.22,-0.02 -0.28,-0.02l-4.47 0.04 -0.64 9.05 -2.52 0.03z"/>
   <path class="fil1" d="M19.05 65.4c-0.12,0.44 -0.22,25.62 -0.04,26.51 0.7,0.11 8.69,0.11 9.18,-0.02 0.16,-1.98 0.02,-4.58 0.02,-6.63 0,-2.19 0.12,-19.25 -0.04,-19.87l-9.12 0.01z"/>
   <path class="fil1" d="M16.08 50.43l0 2.17c0.02,0.03 0.04,0.04 0.05,0.09l0.54 1.67c0.68,1.81 1.62,2.92 2.66,4.42l3.93 5.55c0.25,-0.25 0.32,-0.45 0.52,-0.78 0.51,-0.83 1.28,-1.6 2,-2.19 3.48,-2.84 4.34,-2.7 6.77,-4.39 2.05,-1.42 4.88,-3.79 4.19,-6.73 -0.34,-1.45 -1.35,-2.62 -2.48,-3.1 -1.46,-0.62 -3.36,-0.46 -4.86,-0.04 -0.94,0.27 -2.17,0.76 -2.97,1.25 -0.34,0.2 -0.54,0.39 -0.92,0.55 -0.63,-1.31 -1.69,-2.17 -2.96,-2.62 -0.35,-0.13 -0.34,-0.02 -0.48,-0.3l-2.09 0c-0.2,0.24 -0.35,0.18 -0.75,0.35 -2.48,1.03 -2.88,3.68 -3.15,4.1z"/>
   <path class="fil2" d="M19.05 65.4l9.12 -0.01c0.16,0.62 0.04,17.68 0.04,19.87 0,2.05 0.14,4.65 -0.02,6.63 -0.49,0.13 -8.48,0.13 -9.18,0.02 -0.18,-0.89 -0.08,-26.07 0.04,-26.51zm-2.97 -9.5l0 -3.3c0.02,0.03 0.04,0.04 0.05,0.09l0.54 1.67c0.68,1.81 1.62,2.92 2.66,4.42l3.93 5.55c0.25,-0.25 0.32,-0.45 0.52,-0.78 0.51,-0.83 1.28,-1.6 2,-2.19 3.48,-2.84 4.34,-2.7 6.77,-4.39 2.05,-1.42 4.88,-3.79 4.19,-6.73 -0.34,-1.45 -1.35,-2.62 -2.48,-3.1 -1.46,-0.62 -3.36,-0.46 -4.86,-0.04 -0.94,0.27 -2.17,0.76 -2.97,1.25 -0.34,0.2 -0.54,0.39 -0.92,0.55 -0.63,-1.31 -1.69,-2.17 -2.96,-2.62 -0.35,-0.13 -0.34,-0.02 -0.48,-0.3l2.68 0c0,0 1,0.84 1.1,1.2 0.31,-0.16 0.59,-0.3 0.93,-0.47 0.32,-0.16 0.65,-0.32 0.97,-0.43l0.51 -0.19c0.52,-0.21 1.21,-0.11 1.98,-0.11 0.62,0 4.46,-0.16 4.95,0.14 0.02,0.01 0.09,0.06 0.11,0.08 1.78,1.23 2.15,2.04 2.72,3.87 0.26,0.84 0.01,2.3 -0.29,3.01 -0.51,1.22 -1.31,2.44 -2.28,3.29 -2.65,2.33 -4.85,2.99 -7.61,4.96l-1.98 1.71c-0.43,0.45 -0.77,0.68 -0.81,1.09 0.82,-0.19 2.65,-0.18 3.47,0.02 1.03,0.26 1.02,1.33 1.02,2.67 0,2.46 0,4.92 0,7.38 0.56,-0.59 0.8,-0.5 1.89,-0.5 2.49,0 7.05,-0.11 9.18,-0.01 0.66,0.03 1.11,0.42 1.31,0.99 0.21,0.59 0.08,3.55 0.08,4.5 0,5.79 0.52,5.48 -3.69,5.48l-6.88 0c-1.02,0.01 -1.25,0.03 -1.89,-0.39 0,10.13 0.81,8.97 -4.49,8.97 -7.22,0 -7.37,0.71 -7.37,-2.79l0 -23.53c0,-1.25 -0.07,-2.15 0.75,-2.64 0.51,-0.31 2.29,-0.46 2.94,-0.15 -0.05,-0.5 -2.1,-3.14 -2.52,-3.77l-1.73 -2.46c-0.41,-0.62 -0.97,-1.24 -1.04,-2zm14.47 27.45l-0.01 -8.34c0.67,-0.11 9.66,-0.1 10.12,0.02l0.01 8.26c-0.62,0.25 -9.99,0.08 -10.12,0.06z"/>
   <path class="fil1" d="M30.55 83.35c0.13,0.02 9.5,0.19 10.12,-0.06l-0.01 -8.26c-0.46,-0.12 -9.45,-0.13 -10.12,-0.02l0.01 8.34z"/>
   <path class="fil2" d="M74.9 78.25c-3.19,-0.2 -3.98,5.09 -2.64,6.76 0.41,0.51 1.09,0.81 1.77,0.27 1.44,-1.17 0.97,-5.48 0.87,-7.03z"/>
   <path class="fil3" d="M116.83 60.97l1.38 0.01c0.18,-0.55 0.06,-1.82 0.07,-2.45 1.28,1.24 0.93,2.5 2.38,2.51 0.31,0.01 0.55,-0.01 0.85,-0.06l0.01 -4.96 -1.53 -0.05 -0.02 2.57c-0.51,-0.88 -1.16,-1.65 -1.64,-2.53l-1.56 -0.02c-0.04,0.8 -0.12,4.51 0.06,4.98z"/>
   <path class="fil4" d="M105.14 60.99l1.61 0.04 0.02 -1.99c0.73,-0.01 0.8,0.99 1.53,1.95l1.7 0.05 -0.9 -1.89c-0.16,-0.19 -0.33,-0.19 -0.43,-0.41 1.14,-0.39 1.35,-1.99 0.43,-2.5 -0.81,-0.44 -2.88,-0.38 -3.94,-0.23l-0.02 4.98z"/>
   <path class="fil4" d="M110.6 61.03l1.59 0.01 0.16 -0.8 1.64 0 0.25 0.77 1.64 0.03c-0.11,-0.92 -1.63,-4.39 -1.7,-5.07l-1.86 0.02 -0.63 1.79c-0.29,0.87 -0.99,2.4 -1.09,3.25z"/>
   <path class="fil3" d="M102.18 60.97l1.46 0.01c0.18,-0.7 0.11,-4.13 0.05,-4.98 -0.51,-0.05 -1.08,-0.09 -1.58,0.04 -0.04,0.75 -0.12,4.46 0.07,4.93z"/>
   <path class="fil0" d="M16.08 50.43c0.27,-0.42 0.67,-3.07 3.15,-4.1 0.4,-0.17 0.55,-0.11 0.75,-0.35l-3.9 0 0 4.45z"/>
  </g>
 </g>
</svg>
