<?xml version="1.0" encoding="UTF-8"?>
<!DOCTYPE svg PUBLIC "-//W3C//DTD SVG 1.1//EN" "http://www.w3.org/Graphics/SVG/1.1/DTD/svg11.dtd">
<!-- Creator: CorelDRAW 2020 (64-Bit) -->
<svg xmlns="http://www.w3.org/2000/svg" xml:space="preserve" width="140px" height="140px" version="1.1" style="shape-rendering:geometricPrecision; text-rendering:geometricPrecision; image-rendering:optimizeQuality; fill-rule:evenodd; clip-rule:evenodd"
viewBox="0 0 140 140"
 xmlns:xlink="http://www.w3.org/1999/xlink"
 xmlns:xodm="http://www.corel.com/coreldraw/odm/2003">
 <defs>
  <style type="text/css">
   <![CDATA[
    .fil9 {fill:#7B7B7C}
    .fil27 {fill:#868686}
    .fil18 {fill:#8D8D8D}
    .fil16 {fill:#8E8E8E}
    .fil15 {fill:#909090}
    .fil14 {fill:#939393}
    .fil20 {fill:#959596}
    .fil0 {fill:#969697}
    .fil22 {fill:#999999}
    .fil21 {fill:#9A9A9A}
    .fil6 {fill:#9D9D9D}
    .fil11 {fill:#9E9F9F}
    .fil13 {fill:#9F9FA0}
    .fil12 {fill:#A1A1A1}
    .fil2 {fill:#A3A3A3}
    .fil24 {fill:#A6A6A6}
    .fil8 {fill:#A7A7A7}
    .fil1 {fill:#AAAAAA}
    .fil3 {fill:#ADADAD}
    .fil26 {fill:#AFAFB0}
    .fil17 {fill:#B2B2B2}
    .fil4 {fill:#B5B6B6}
    .fil23 {fill:#BBBBBB}
    .fil28 {fill:#BCBCBD}
    .fil25 {fill:#BEBEBE}
    .fil7 {fill:#C1C1C1}
    .fil5 {fill:#C2C2C3}
    .fil19 {fill:#C4C4C4}
    .fil10 {fill:#C7C8C8}
   ]]>
  </style>
 </defs>
 <g id="Layer_x0020_1">
  <metadata id="CorelCorpID_0Corel-Layer"/>
  <g id="_1970420735520">
   <path class="fil0" d="M69.62 65.17l-0.26 0c0.02,0.04 0.06,0.32 0.09,-0.08 0,-0.07 -0.04,-0.22 -0.04,-0.24l-0.04 -0.4c0,-0.03 0,-0.05 -0.01,-0.07 -1.07,0.26 -1.51,0.59 -2.88,0.45 -1.27,-0.12 -1.78,-0.64 -2.38,-0.99 1.32,0.8 3.24,0.95 4.9,0.18 0,-0.02 -0.03,-0.05 -0.03,-0.06l-1.25 -4.56c-0.01,-0.02 -0.02,-0.04 -0.03,-0.07 -0.26,-0.75 -0.19,-0.39 -0.09,-0.57l0.59 -0.9c0.09,-0.14 0.14,-0.23 0.23,-0.37 0.08,-0.15 0.05,-0.11 0.13,-0.24 0.01,-0.02 0.03,-0.05 0.04,-0.06l0.07 -0.15c0.1,-0.07 0.71,-1.05 0.83,-1.27 -0.29,-0.24 -0.04,0 -0.18,-0.44l-0.17 -0.37c-0.04,-0.1 -0.17,-0.85 -0.2,-0.94 -0.11,-0.33 -0.12,-0.6 -0.22,-0.94 -0.1,-0.32 -0.01,0 -0.07,-0.2l-1.08 -3.83c0,-0.02 -0.1,0.12 0.01,-0.11 -0.46,0.08 -0.07,-0.04 -0.38,0.15l-0.92 0.67c-1.27,1.04 -2.17,1.84 -3.18,3.12 -2.96,3.73 -4.03,8.31 0.03,11.51 1.68,1.31 4.21,1.85 6.13,1.05l0.36 -0.27z"/>
   <path class="fil1" d="M72.55 53.11c-0.38,-0.02 -0.13,-0.22 -0.69,0.37 -0.17,0.19 -0.3,0.31 -0.48,0.49 -0.34,0.34 -0.65,0.63 -0.98,0.98l-1.24 1.51c-0.02,0.01 -0.03,0.03 -0.05,0.04 -0.13,0.13 -0.4,0.37 -0.45,0.54l-0.07 0.15c-0.01,0.01 -0.03,0.04 -0.04,0.06 -0.08,0.13 -0.05,0.09 -0.13,0.24 -0.09,0.14 -0.14,0.23 -0.23,0.37l-0.59 0.9c-0.1,0.18 -0.17,-0.18 0.09,0.57 0.01,0.03 0.02,0.05 0.03,0.07l1.25 4.56c0,0.01 0.03,0.04 0.03,0.06 -1.66,0.77 -3.58,0.62 -4.9,-0.18 0.6,0.35 1.11,0.87 2.38,0.99 1.37,0.14 1.81,-0.19 2.88,-0.45 0.01,0.02 0.01,0.04 0.01,0.07l0.04 0.4c0,0.02 0.04,0.17 0.04,0.24 -0.03,0.4 -0.07,0.12 -0.09,0.08l0.26 0c0.88,0.22 3.51,-2.41 4.18,-3.28l1.21 -1.8c0.21,-0.38 0.48,-0.7 0.56,-1.13 -0.05,-0.17 0.11,-0.13 -0.11,-0.57 -0.05,-0.12 -0.09,-0.2 -0.19,-0.29 -0.13,-0.12 -0.12,0 -0.13,-0.04 0,-0.01 -0.02,0.01 -0.02,0.02 0.02,-0.03 0.05,-0.08 0.06,-0.1 0,-0.02 0.01,-0.04 0.02,-0.05 0.37,-0.79 0.68,-1.88 0.91,-2.73 0.14,-0.51 0.22,-1.03 0.31,-1.66 0.04,-0.31 0.07,-0.67 0.1,-0.88 0.13,-0.83 -0.05,-0.82 -0.24,-0.97 -0.1,0.27 -0.1,0.77 -0.15,1.06 -0.48,2.87 -2.17,5.79 -2.14,5.78l-1.16 -4.43c-0.22,-0.51 0.02,-0.67 -0.28,-0.99z"/>
   <path class="fil2" d="M95 76.26l0 0zm0 0c3.22,2.16 6.3,2.14 9.84,0.7 0.38,-0.15 0.94,-0.36 1.16,-0.7 -1.86,0.16 -3.33,1.17 -6.33,-0.85 -1.72,-1.15 -2.89,-2.1 -5.14,-2.75 -3.26,-0.94 -7.03,-0.58 -10.14,0.71 -0.61,0.25 -2.14,1.13 -2.43,1.56 0.35,-0.03 0.55,-0.15 0.81,-0.25 2.19,-0.83 4.74,-1 6.9,-0.27 1.03,0.35 2.23,0.95 2.96,1.65 0.5,0.48 1.91,1.97 1.39,3.04 0.57,-0.15 1.29,-1.21 1.23,-1.93 -0.03,-0.33 -0.18,-0.62 -0.25,-0.91z"/>
   <path class="fil2" d="M30.76 76.26c0.57,0.78 3.85,1.69 5.33,1.69 4.06,0 4.83,-1.44 5.76,-1.69 -0.79,1.5 0.35,2.7 0.89,2.84 -0.79,-1.64 2.76,-5.14 7.01,-5.14 1.84,0 3.65,0.32 5.06,1.06 -0.31,-1.14 -5.19,-2.84 -7.46,-2.84 -4.01,0 -5.78,0.16 -9.19,2.52 -0.97,0.68 -1.91,1.39 -3.15,1.73 -1.13,0.3 -1.98,0.23 -3.2,0.02 -0.37,-0.06 -0.71,-0.16 -1.05,-0.19z"/>
   <path class="fil3" d="M91.01 63.4c-0.25,-0.28 -0.75,-1.82 -2.58,-1.86 0.14,0.38 0.5,0.29 1.01,1.48 1.11,2.63 0.03,5.84 -2.48,7.24 -1.32,0.73 -1.57,0.14 -1.9,0.59 1.36,0.11 1.82,0.22 3.54,-0.36 0.77,-0.26 1.36,-0.58 2,-1.02 1.24,-0.86 2.05,-1.9 2.72,-3.23 1.27,-2.57 -0.11,-5.55 1.61,-7.26 0.28,-0.27 0.48,-0.47 0.82,-0.69 0.33,-0.22 0.72,-0.28 0.94,-0.57 -0.96,0 -1.64,0.22 -2.37,0.48 -1.39,0.49 -2.37,1.49 -2.96,2.8 -0.14,0.33 -0.22,0.68 -0.3,1.12 -0.14,0.75 -0.05,0.58 -0.05,1.28z"/>
   <path class="fil3" d="M40.61 57.9c0.51,0.04 1.51,0.8 1.8,1.13 1.58,1.78 0.23,4.56 1.57,7.3 1.4,2.85 4.14,4.61 7.54,4.61 0.31,0 0.35,-0.07 0.63,-0.09l0 -0.18c-1.47,0 -2.52,-0.59 -3.39,-1.67 -1.45,-1.8 -1.8,-3.59 -0.97,-5.88 0.37,-1.04 0.76,-1.12 1.07,-1.58 -0.81,0.01 -1.7,0.44 -2.14,1.04 -0.18,0.25 -0.21,0.48 -0.43,0.73 0,-3.57 -2.67,-5.59 -5.68,-5.59l0 0.18z"/>
   <path class="fil4" d="M50.64 55.15c0,2.8 0.12,4.1 1.01,6.71 0.14,0.43 0.76,1.98 0.99,2.2 0.09,0.08 0.95,0.41 1.11,0.48 0.32,0.15 0.77,0.47 1.06,0.54 -0.08,-0.32 -0.32,-0.62 -0.5,-0.92 -2.17,-3.7 -2.64,-7.52 -1.87,-11.74 0.39,-2.17 1.82,-5.26 3.24,-6.96 0.23,-0.27 0.34,-0.2 0.37,-0.6 -0.73,0 -0.96,-0.14 -1.51,-0.27l-0.76 1.01c-1,1.5 -1.22,2 -1.87,3.54 -0.64,1.5 -1.27,3.93 -1.27,6.01z"/>
   <path class="fil4" d="M81.42 44.86c0.09,0.3 1.14,1.6 1.51,2.22 2.72,4.51 3.31,9.86 1.31,14.87 -0.58,1.45 -0.83,1.71 -1.48,2.96 0.42,-0.1 0.78,-0.39 1.23,-0.55 0.2,-0.07 0.43,-0.12 0.67,-0.21 0.33,-0.13 0.29,-0.14 0.44,-0.45l0.99 -2.56c0.42,-1.47 0.39,-1.49 0.62,-2.93 0.11,-0.67 0.1,-0.89 0.12,-1.65 0.02,-0.42 0.1,-0.43 0.09,-0.79 -0.01,-0.31 -0.08,-0.37 -0.09,-0.8 -0.02,-2.81 -1.07,-6.03 -2.4,-8.24 -0.23,-0.37 -0.43,-0.75 -0.68,-1.09 -0.25,-0.33 -0.54,-0.7 -0.73,-1.05 -0.43,0.21 -0.94,0.27 -1.6,0.27z"/>
   <path class="fil5" d="M77.96 43.52c0.37,-0.03 0.14,0.03 0.32,-0.12 0.22,-0.18 0.45,-0.65 0.48,-1.03 0.26,0.18 0.28,0.34 0.51,0.56 0.14,0.12 0.44,0.35 0.62,0.45 1.39,0.81 2.76,0.57 3.91,-0.5 0.61,-0.56 1.13,-1.09 1.35,-2.02 -0.21,0.08 -0.19,0.17 -0.43,0.37 -2.66,2.28 -4.15,-0.93 -5.44,-1.77 -2.11,-1.39 -5.15,0.65 -7.19,-0.62 -0.37,-0.22 -0.83,-0.75 -0.87,-1.26l-0.18 0c0,1.8 1.49,2.86 3.18,3.22 1.46,0.3 3.74,1 3.74,2.72z"/>
   <path class="fil5" d="M63.95 39.27c-3.31,0 -4.2,-1.27 -6.46,0.99 -0.98,0.99 -2.34,2.56 -4.12,1.33 -0.13,-0.09 -0.33,-0.24 -0.45,-0.35 -0.35,-0.33 -0.11,-0.26 -0.42,-0.38 0.09,1.04 3.03,4.99 6.11,1.77 0.16,-0.17 0.07,-0.12 0.28,-0.26 0.01,0.53 0.39,1.03 0.71,1.24 0.14,-1.73 2.11,-2.48 3.76,-2.8 1.73,-0.33 3.21,-1.41 3.25,-3.32 -0.23,0.17 -0.21,0.37 -0.39,0.68 -0.45,0.77 -1.29,1.1 -2.27,1.1z"/>
   <path class="fil1" d="M67.58 48.94c-0.11,0.23 -0.01,0.09 -0.01,0.11l1.08 3.83c0.06,0.2 -0.03,-0.12 0.07,0.2 0.1,0.34 0.11,0.61 0.22,0.94 0.03,0.09 0.16,0.84 0.2,0.94l0.17 0.37c0.14,0.44 -0.11,0.2 0.18,0.44 0.52,-0.13 2.95,-5.13 3,-5.5l-0.03 -0.18c0.07,-0.5 0.17,-0.56 0.33,-1.05l0.38 -0.9c0.14,-0.12 0.15,-0.4 0.18,-0.62 0.05,-0.29 0.09,-0.44 0.09,-0.8 -1.69,0 -3.34,0.71 -4.7,1.42 -0.23,0.11 -0.4,0.23 -0.62,0.36 -0.5,0.29 -0.53,0.26 -0.54,0.44z"/>
   <path class="fil6" d="M61.46 82.3c-1.95,0 -2.21,-0.71 -3.46,-0.71 -2.21,0 -1.7,3.19 -0.18,3.19 0.52,0 1.51,-0.03 1.51,-0.8 0,-0.64 -0.43,-0.71 -1.06,-0.71 0.05,0.24 0.09,0.17 0.09,0.36 0,0.46 -1.07,0.58 -1.07,-0.45 0,-0.44 0.77,-0.92 1.83,-0.31 0.36,0.2 0.47,0.27 0.89,0.43 1.45,0.57 3.58,0.64 5.03,-0.17 1.62,-0.91 3.24,-3.36 3.34,-4.65l-2.18 -0.3c-0.35,-0.1 -0.31,-0.14 -0.75,-0.14 0,1.87 -1.83,4.26 -3.99,4.26z"/>
   <path class="fil6" d="M69 78.48c0.02,0.55 0.51,1.5 0.74,1.93 0.54,1.01 1.56,2.19 2.6,2.72 3.3,1.67 5.99,-0.57 6.87,-0.57 1.32,0 0.92,1.67 0.05,1.37 -0.39,-0.13 -0.26,-0.3 -0.23,-0.66 -1.58,0 -1.02,1.51 -0.09,1.51l0.62 0c1.53,0 2.06,-3.19 -0.26,-3.19 -0.91,0 -3.06,1.39 -4.94,0.32 -0.88,-0.51 -1.62,-1.31 -2.05,-2.21 -0.27,-0.59 -0.31,-1 -0.47,-1.66 -0.44,0.01 -0.88,0.19 -1.33,0.27 -0.47,0.08 -1.05,0.07 -1.51,0.17z"/>
   <path class="fil2" d="M73.35 70.05c0,1.8 2.42,1.84 1.95,-0.17 0.55,0.28 0.8,0.36 0.91,1.13 0.07,0.5 -0.05,1.17 -0.21,1.69 -0.3,1.03 -0.96,2.4 -0.96,3.12 0,1.68 2.65,3.02 4.43,3.02 1.77,0 3,-1.4 2.1,-2.72 -0.52,-0.77 -1.61,-0.53 -1.83,0.41 1.74,-0.42 1.42,2.03 -1.26,0.81 -1.41,-0.64 -2.02,-1.97 -2.02,-3.65 0,-1.38 0.88,-1.42 0.88,-3.19 0,-2.69 -3.99,-2.76 -3.99,-0.45z"/>
   <path class="fil2" d="M60.04 70.32c0,2.21 0.89,1.85 0.89,3.64 0,3.66 -4.35,4.46 -4.35,3.1 0,-0.79 0.73,-0.59 0.98,-0.53 -0.03,-1.15 -2.04,-1.34 -2.04,0.62 0,0.91 1.19,1.69 2.3,1.69 1.64,0 4.53,-1.19 4.53,-3.11 0,-0.88 -1.98,-4.23 -0.92,-5.44 0.3,-0.34 0.29,-0.24 0.65,-0.41 -0.48,2.07 1.95,1.91 1.95,0.17 0,-1.52 -2.16,-2.26 -3.35,-1.13 -0.32,0.3 -0.64,0.81 -0.64,1.4z"/>
   <path class="fil7" d="M76.01 50.27c-0.18,0.42 0.04,0.12 -0.34,0.38l-2.32 1.75c-0.12,0.18 -0.21,0.25 -0.38,0.42 -0.06,0.07 -0.16,0.17 -0.22,0.21 -0.18,0.13 -0.02,0.07 -0.2,0.08 0.3,0.32 0.06,0.48 0.28,0.99l1.16 4.43c-0.03,0.01 1.66,-2.91 2.14,-5.78 0.05,-0.29 0.05,-0.79 0.15,-1.06 0.19,0.15 0.37,0.14 0.24,0.97 -0.03,0.21 -0.06,0.57 -0.1,0.88 -0.09,0.63 -0.17,1.15 -0.31,1.66 -0.23,0.85 -0.54,1.94 -0.91,2.73 -0.01,0.01 -0.02,0.03 -0.02,0.05 -0.01,0.02 -0.04,0.07 -0.06,0.1 0,-0.01 0.02,-0.03 0.02,-0.02 0.01,0.04 0,-0.08 0.13,0.04 0.1,0.09 0.14,0.17 0.19,0.29 0.22,0.44 0.06,0.4 0.11,0.57 0.14,-0.04 0,0.08 0.15,-0.12 0.01,-0.01 0.11,-0.22 0.12,-0.23 0.57,-1.3 0.95,-2.28 1.33,-3.73 0.3,-1.16 0.65,-4.06 0.08,-5.23 -0.3,0.07 -0.47,0.13 -0.7,0.26 -0.12,0.07 -0.46,0.26 -0.54,0.36z"/>
   <path class="fil8" d="M50.9 65.08c1.18,0.28 1.9,1.14 2.14,2.3 0.29,1.38 -0.11,2.05 0.68,3.85 0.82,1.89 3.1,3.44 5.52,3.44 0.97,0 0.89,0.07 0.98,-0.27 -1.08,0 -1.94,-0.58 -2.55,-1.09 -1.38,-1.17 -1.58,-3.14 -0.95,-4.72 0.24,-0.6 0.38,-0.6 0.66,-1.02 -0.86,0.02 -1.34,0.48 -1.72,1.12l-0.14 0.21c-0.04,-1.82 -1.24,-3.17 -2.87,-3.7 -0.3,-0.09 -1.69,-0.45 -1.75,-0.12z"/>
   <path class="fil8" d="M81.87 68.99c-0.2,-0.28 -0.54,-1.39 -1.86,-1.42 0.11,0.31 0.13,0.19 0.37,0.52 0.95,1.31 0.86,4.03 -0.68,5.21 -0.54,0.42 -1.2,0.88 -1.88,1.05 -0.48,0.12 -0.51,-0.09 -0.74,0.23 2.94,0.68 6.54,-1.52 7.06,-5.09 0.21,-1.46 -0.23,-3.81 2.34,-4.41 -0.15,-0.2 0.07,-0.2 -0.78,-0.07 -2.09,0.32 -3.83,1.51 -3.83,3.98z"/>
   <path class="fil9" d="M21.18 100.13l44.27 0c0,-0.28 0.03,-0.44 -0.26,-0.44l-44.01 0 0 0.44z"/>
   <path class="fil9" d="M72.46 100.13l44.01 0 0 -0.44 -44.01 0c-0.38,0 -0.38,0.44 0,0.44z"/>
   <path class="fil10" d="M71.75 36.16c0,-0.31 0.31,0 0.62,0 1.18,0 1.05,-1.99 -0.42,-1.5 -1.58,0.53 -1.09,3.63 1.31,3.63 2.1,0 2.72,-2.2 3.97,-3.31 2.04,-1.79 5.44,-1.62 5.44,0.47 0,0.81 -0.65,0.98 -1.33,0.98 0,-0.32 0.09,-1.17 -0.79,-1.11 -0.41,0.03 -0.72,0.34 -0.72,0.75 0,2.26 3.81,2.07 3.81,-0.44 0,-1.3 -1.5,-2.4 -2.84,-2.4 -2.18,0 -3.11,0.86 -4.63,2.2 -0.22,0.19 -0.25,0.27 -0.41,0.48 -0.44,0.55 -1.26,1.45 -1.97,1.58 -0.87,0.17 -2.04,-0.35 -2.04,-1.33z"/>
   <path class="fil10" d="M54.01 35.54c0,0.66 0.02,1.02 0.52,1.51 0.29,0.29 0.72,0.46 1.23,0.56 1.9,0.37 2.98,-2.25 1.09,-2.25 -0.21,0 -0.41,0.23 -0.5,0.4 -0.15,0.28 -0.1,0.39 -0.03,0.67 -0.8,0 -1.34,-0.21 -1.34,-0.98 0,-1.16 1,-1.71 2.23,-1.69 4.51,0.07 4.04,4.53 7.27,4.53 2.19,0 2.82,-3.02 1.29,-3.6 -1.5,-0.57 -1.77,1.47 -0.4,1.47 0.28,0 0.06,-0.08 0.44,-0.18 0,0.55 0.07,0.83 -0.54,1.23 -0.81,0.52 -1.82,0.44 -2.47,-0.35 -0.57,-0.71 -1.99,-2.03 -2.73,-2.59 -1.48,-1.11 -3.6,-1.54 -5.16,-0.32 -0.39,0.31 -0.9,0.91 -0.9,1.59z"/>
   <path class="fil4" d="M49.13 55.77c0,2.06 0.4,4.6 1.06,6.39 0.22,0.58 0.44,1.25 0.71,1.77l0.8 0c-0.12,-0.5 -0.83,-1.97 -1.21,-3.49 -1.11,-4.46 -0.6,-8.91 1.37,-12.94 0.07,-0.15 0.06,-0.15 0.15,-0.3l1.82 -2.97c-0.12,-0.16 -0.39,-0.38 -0.62,-0.44l-1.55 2.45c-0.51,0.86 -0.92,1.76 -1.28,2.71 -0.71,1.92 -1.25,4.22 -1.25,6.82z"/>
   <path class="fil4" d="M83.64 44.23c0.1,0.35 0.43,0.64 0.71,1.07 0.8,1.2 1.34,2.19 1.9,3.6 1.29,3.18 1.6,6.54 1.08,9.94 -0.1,0.69 -0.24,1.25 -0.39,1.83 -0.15,0.6 -0.36,1.14 -0.54,1.68l-0.63 1.58 0.8 0c1.28,-2.42 1.91,-6.02 1.76,-9.02l-0.01 -0.32c-0.02,-0.4 -0.09,-1.08 -0.15,-1.49 -0.23,-1.7 -0.79,-3.75 -1.42,-5.05l-2.4 -4.17c-0.31,0.07 -0.45,0.22 -0.71,0.35z"/>
   <polygon class="fil6" points="82.49,81.14 116.74,81.14 116.74,80.7 82.49,80.7 "/>
   <polygon class="fil6" points="21.36,81.14 55.52,81.14 55.52,80.7 21.36,80.7 "/>
   <path class="fil11" d="M72.37 77.77c0,0.97 0.72,2.08 1.24,2.75 1.2,1.56 4.62,1.82 4.62,-0.35 0,-1.4 -1.7,-1.55 -1.95,-0.62 0,0 0.97,-0.49 0.97,0.35 0,0.67 -1.55,0.71 -2.12,-0.89 -0.26,-0.75 -0.27,-1.74 -0.27,-2.75 -0.4,0.11 -1.02,1.17 -2.49,1.51z"/>
   <path class="fil12" d="M39.55 89.31l0.21 0.49c0.08,0.23 0.09,0.31 0.16,0.55 0.1,0.35 0.25,0.71 0.34,1.09l-1.33 0c0.15,-0.33 0.58,-1.71 0.62,-2.13zm-5.06 -1.16l-1.07 0c0.07,-0.21 0.46,-0.01 0.55,0.04 0.74,0.44 -0.15,-0.27 0.25,0.23 0.01,0.31 0.81,0.7 0.32,2.36 -0.09,0.32 -0.06,0.09 -0.05,0.3 -0.06,0.13 -0.07,0.2 -0.32,0.34 -0.28,0.16 -0.17,0.07 -0.21,0.02 0.21,0.22 0.17,-0.33 0.17,0.35 0.01,0.33 1.18,1.9 1.36,2.11 0.5,0.57 2.12,0.38 3.26,0.38 -0.09,-0.23 0.03,-0.07 -0.17,-0.19 -0.12,-0.06 -0.11,-0.04 -0.28,-0.08 0,-0.58 0.35,-1.74 0.54,-2.13l1.59 0c0.03,0.32 0.57,1.66 0.62,1.88 0.11,0.48 -0.17,0.35 0.05,0.47 0.12,0.07 0.14,0.04 0.29,0.05 0.41,0.02 0.93,0 1.35,0l0 -0.18c-0.65,-0.15 -0.77,-0.15 -1.12,-1.19 -0.21,-0.63 -0.39,-1.07 -0.6,-1.71 -0.13,-0.4 -0.99,-3.17 -1.3,-3.4 -0.23,0.17 -0.25,0.43 -0.34,0.72 -0.09,0.28 -0.18,0.55 -0.27,0.8l-1.05 3.21c-0.26,0.7 -0.25,0.9 -0.64,1.48 -0.74,0 -0.98,-0.15 -1.64,-1.03l-0.85 -1.19c-0.17,-0.23 -0.19,-0.15 -0.26,-0.44 0.41,-0.62 1.24,-1.37 0.65,-2.61 -0.26,-0.55 -0.32,-0.34 -0.56,-0.68l-0.27 0.09z"/>
   <path class="fil11" d="M60.66 80.35c-0.21,0 -0.59,-0.22 -0.62,-0.45 0.17,-0.73 0.54,-0.48 1.07,-0.35 -0.22,-0.8 -1.96,-1.03 -1.96,0.8 0,1.84 3.94,2.19 5.38,-1.02 0.18,-0.39 0.47,-1.07 0.48,-1.56 -1.25,-0.1 -2.18,-1.42 -2.48,-1.51 0,1 -0.07,1.85 -0.29,2.65 -0.17,0.67 -0.73,1.44 -1.58,1.44z"/>
   <path class="fil10" d="M74.5 32.08c0,0.35 -0.2,0.74 -0.42,0.91 -0.31,0.23 -0.65,0.24 -1.17,0.24 0.27,0.37 1.05,0.52 1.11,1.71 0.04,0.97 -0.55,1.29 -1.38,1.49l0 0.17c1.27,0 1.76,-0.21 2.42,-0.86 1.43,-1.42 1.45,-3.76 -0.25,-5.03 -0.5,-0.38 -1.65,-1.12 -2.44,-1.12l1.4 0.92c0.29,0.3 0.73,1.03 0.73,1.57z"/>
   <path class="fil10" d="M61.55 33.05c0,1.17 0.25,1.9 1,2.65 0.68,0.68 1.14,0.9 2.46,0.9l0 -0.17c-1.63,-0.38 -1.7,-1.63 -1.07,-2.49 0.29,-0.4 0.58,-0.4 0.8,-0.71 -0.48,0 -0.8,0 -1.12,-0.21 -0.95,-0.62 -0.42,-2.16 0.86,-2.98l0.8 -0.45c-0.43,0 -1.04,0.25 -1.37,0.42 -1.07,0.52 -2.36,1.61 -2.36,3.04z"/>
   <path class="fil0" d="M21.18 86.82l0 0.18c0.31,0.07 0.71,0.07 0.71,0.44l0 5.86c0,0.31 -0.07,0.34 -0.09,0.62 -0.39,0.19 -0.29,-0.06 -0.53,0.27 0.33,0.18 1.6,0.09 2.04,0.09 0.25,0 0.16,-0.04 0.27,-0.18 -0.97,-0.23 -0.78,-0.02 -0.8,-1.16l-0.09 -2.39c1.61,0 1.51,-0.12 1.77,0.54 0.13,0.33 -0.17,0.12 0.18,0.26 0.09,-0.19 0.16,-1.18 0.15,-1.37 -0.02,-0.43 -0.15,-0.15 -0.31,-0.05 -0.11,0.06 0.07,0.02 -0.24,0.12 -0.33,0.1 -0.92,0.06 -1.29,0.06 -0.2,0 -0.26,-0.07 -0.26,-0.27l0 -2.31c0,-0.59 1.65,-0.14 1.86,-0.09 0.09,0.37 0.02,0.53 0.27,0.71 0.07,-0.16 0.18,-1.16 0.18,-1.42 -1.36,0.12 -2.43,0.09 -3.82,0.09z"/>
   <path class="fil13" d="M27.83 89.48l0.18 0c0.04,0.4 0.47,1.64 0.62,1.96l-1.33 0c0.08,-0.36 0.19,-0.58 0.29,-0.96 0.06,-0.27 0.22,-0.71 0.24,-1zm-2.66 4.62c0.23,0.31 1.09,0.18 1.87,0.18 -0.09,-0.22 -0.06,-0.1 -0.45,-0.36 0.06,-0.73 0.48,-1.43 0.53,-2.04l1.6 0c0.15,0.32 0.28,0.8 0.41,1.19 0.42,1.26 0.27,0.46 0.21,1.21l1.69 -0.18c-0.98,-0.23 -1.14,-1.36 -1.67,-2.85l-1.17 -3.45 -0.27 0 -1.97 5.92c-0.15,0.24 -0.25,0.33 -0.78,0.38z"/>
   <path class="fil12" d="M72.46 50.09c0.09,0.3 0.01,0.06 0.1,0.23l0.08 0.15c0.01,0.01 0.02,0.03 0.02,0.04 0.01,0.01 0.02,0.03 0.02,0.04 0.02,0.03 0.23,0.19 -0.04,0.34 0.03,0.03 0.07,0.02 0.09,0.07l0.27 0.11c0.02,0.35 0.11,0.43 0.15,0.67 0.05,0.38 -0.05,0.41 0.2,0.66l2.32 -1.75c0.38,-0.26 0.16,0.04 0.34,-0.38 -0.43,-0.28 -0.13,-0.14 -0.47,-0.77 -0.43,-0.81 -0.99,-1.08 -1.84,-1.17 -0.58,-0.06 -0.4,0 -0.53,-0.19l-0.38 0.9c-0.16,0.49 -0.26,0.55 -0.33,1.05z"/>
   <path class="fil13" d="M82.92 89.04c0.56,-0.15 0.14,-0.62 0.9,-0.62l1.24 0 0 4.61c0,0.5 -0.09,0.53 -0.09,0.98 -0.24,0.02 -0.24,0.04 -0.44,0.09l2.04 0c-0.21,-0.05 -0.45,-0.1 -0.62,-0.18 -0.25,-1.07 -0.09,-4.2 -0.09,-5.59 0.67,0.32 1.47,-0.29 1.69,0.43 0.11,0.35 -0.17,0.25 0.26,0.37 0,-2.14 0.57,-0.88 -3.36,-1.16 -0.3,-0.03 -0.87,-0.16 -1.34,-0.17l-0.19 1.24z"/>
   <path class="fil14" d="M97.44 94.36c-0.05,-0.31 0.13,-0.39 -0.27,-0.26 0.08,-0.01 0.27,-0.01 0.33,-0.04 0.28,-0.13 0.11,0.12 0.25,-0.23 -1.05,0 -1.49,0.04 -2.29,-0.82 -1.23,-1.32 -1.2,-4.58 1.14,-4.77 0.71,-0.05 0.96,0.09 1.5,0.18 -0.39,-0.59 0.17,0.2 -0.07,-0.28 -0.05,-0.11 0.05,-0.02 -0.19,-0.13 0.42,0.02 0.37,-0.02 0.53,-0.12 -1.14,-0.02 -2.08,-0.35 -3.19,0.35 -1.56,0.98 -1.81,3.82 -0.52,5.13 0.78,0.78 1.27,0.99 2.78,0.99z"/>
   <path class="fil15" d="M114.96 94.1l-0.39 0.02c0.06,0 0.13,0 0.23,-0.06 0.19,-0.12 0.13,-0.08 0.25,-0.23 -0.59,0.04 -1.43,0.44 -2.33,-0.51 -0.92,-0.96 -1.63,-4.57 0.96,-5.12 0.59,-0.13 0.82,0.13 1.37,0.22 -0.14,-0.24 -0.04,-0.08 -0.05,-0.25 0,-0.01 0.01,-0.04 0,-0.05l0.32 0.03c-0.48,-0.65 -3.83,-0.92 -4.33,2.69 -0.14,1 0.49,2.35 0.98,2.79 0.71,0.64 1.83,0.91 2.62,0.72 0.5,-0.11 0.24,-0.07 0.37,-0.25z"/>
   <path class="fil16" d="M47.8 93.21l0.14 -2.37 -1.47 -0.03 -0.02 -0.26 -1.76 0c0,-0.47 0.01,-0.95 0,-1.42 -0.01,-0.68 -0.13,-0.96 0.53,-0.98l0 -0.26 -1.95 0 0 0.26c0.9,0 0.62,0.44 0.62,2.66l-0.08 3.2c-0.24,0.02 -0.25,0.04 -0.45,0.09l2.04 0c-0.48,-0.11 -0.71,0.04 -0.71,-1.15 0,-0.65 0,-1.31 0,-1.96l3.11 0 0 2.22z"/>
   <path class="fil15" d="M72.46 87.18c-0.05,-0.04 -0.26,-0.33 -0.53,-0.18 0.49,0 0.37,0.05 0.71,-0.07 0.03,-0.02 0.07,-0.01 0.09,-0.05 0.02,-0.05 0.07,-0.03 0.09,-0.06l-2.39 0.01c-0.03,0 -0.05,0 -0.08,0.01l-0.19 0.07c0.19,0.27 0.15,0.18 0.62,0.18 0.22,0.95 0.08,4.33 0.09,5.77 0.01,1.69 -0.36,0.77 -0.54,1.42l2.22 -0.18c-0.3,-0.07 -0.64,-0.04 -0.76,-0.31 -0.14,-0.33 -0.2,-5.61 -0.13,-6.27 0.04,-0.49 0.25,-0.34 0.8,-0.34z"/>
   <path class="fil17" d="M58.98 90.46l0.08 0c-0.16,0.68 0.02,0.5 -0.34,0.79 0.09,-0.11 0.02,-0.13 0.08,0.01 0.01,0.28 1.13,1.44 1.31,1.62 0.38,0.38 1.02,1.35 1.53,1.48 0,-1.71 -0.05,-4.49 0.09,-6.12 0.38,-0.18 0.29,0.06 0.53,-0.26 -0.28,-0.14 -0.66,-0.06 -0.89,-0.05 -0.17,0 -0.65,-0.04 -0.97,-0.04l0 0.26c0.6,0 0.67,0.06 0.71,0.62 0.03,0.46 -0.02,0.97 -0.01,1.43l0.1 2.66c-0.3,-0.34 -1.94,-2.39 -2.22,-2.4z"/>
   <path class="fil17" d="M102.9 90.55l0 0.18c2.35,0.14 1.98,0.05 1.86,0.35 0,0.39 0.05,2.43 -0.05,2.7 -0.17,0.49 -0.31,0.08 -0.48,0.5 0.38,0 0.77,-0.01 1.15,0 0.99,0 0.79,0.08 0.98,-0.18 -0.24,-0.02 -0.54,-0.1 -0.71,-0.18l-0.09 -4.26c-0.01,-0.62 0.09,-0.89 0.09,-1.42 0.23,-0.11 0.09,-0.08 0.44,-0.09l0 -0.26 -1.95 0 0 0.26c0.86,0 0.62,0.31 0.62,2.4l-1.86 0z"/>
   <path class="fil0" d="M90.3 89.31c0.14,0.6 0.58,1.61 0.62,2.13l-1.24 0 0.62 -2.13zm0.97 2.66l0.14 -1.15c0.01,0 0.05,0.05 0.05,0.03 0.01,-0.02 0.06,0.03 0.08,0.05 -0.03,-0.52 -0.54,-1.75 -0.73,-2.28 -0.09,-0.23 -0.23,-0.6 -0.25,-0.82l-0.26 0 -1.68 5.07c-0.22,0.68 -0.23,1.16 -1.07,1.23l1.86 0.18c-0.06,-0.16 0,-0.17 -0.44,-0.27 0,-0.73 0.38,-1.48 0.53,-2.13 0.6,0 1.31,-0.05 1.77,0.09z"/>
   <path class="fil16" d="M34.13 91.79c0,-0.68 0.04,-0.13 -0.17,-0.35 0.04,0.05 -0.07,0.14 0.21,-0.02 0.25,-0.14 0.26,-0.21 0.32,-0.34 -0.46,0.07 -0.7,0.39 -1.51,0l0 -2.75c0.56,0 0.8,0.06 1.24,0.09 -0.4,-0.5 0.49,0.21 -0.25,-0.23 -0.09,-0.05 -0.48,-0.25 -0.55,-0.04l1.07 0c-0.4,-0.5 -1.27,-0.15 -2.14,-0.25 -0.37,-0.04 -0.54,-0.04 -0.79,0.08 0.25,0.34 0.21,0.06 0.62,0.26 0.13,0.55 0.14,4.08 0.09,5.06 -0.02,0.4 -0.08,0.32 -0.09,0.71 -0.24,0.02 -0.24,0.04 -0.44,0.09l0 0.18c0.35,0 0.71,-0.01 1.06,0 0.15,0 0.41,0.01 0.54,0 0.46,-0.03 0.25,0.08 0.44,-0.18 -0.82,-0.19 -0.8,0.19 -0.8,-2.49 0.61,0 0.7,-0.09 1.15,0.18z"/>
   <path class="fil18" d="M104.76 91.08c0.12,-0.3 0.49,-0.21 -1.86,-0.35l0 -0.18 -1.16 0 0 -2.31c0.39,-0.18 0.3,0.06 0.54,-0.26l-2.05 -0.09c0.28,1.01 0.9,-1.68 0.72,4.88 -0.01,0.26 -0.05,0.62 -0.1,0.88 -0.07,0.42 -0.13,0.36 -0.53,0.45l2.13 0c-0.26,-0.06 -0.27,-0.09 -0.62,-0.09 -0.19,-0.83 -0.09,-2.04 -0.09,-3.02 0.77,0 2.39,-0.15 3.02,0.09z"/>
   <path class="fil19" d="M68.83 35.45c0.62,0 1.19,-0.2 1.58,-0.46 1.07,-0.69 1.23,-2.73 -0.34,-2.73 -0.45,0 -1.07,0.47 -0.18,1.06 0.04,-0.15 0.1,-0.35 0.27,-0.35 1.01,0 0.78,1.95 -1.51,1.95 -0.42,0 -0.94,-0.21 -1.18,-0.42 -1.38,-1.21 0.07,-2.02 0.29,-1.18 0.66,-0.44 0.59,-1.06 -0.35,-1.06 -1.57,0 -1.49,3.19 1.42,3.19z"/>
   <path class="fil20" d="M107.78 87.98c0.27,0.37 0.53,-0.01 0.53,0.44l0 5.32c0,0.31 -0.27,0.3 -0.53,0.36l2.13 0c-0.32,-0.07 -0.71,-0.08 -0.71,-0.45l0 -5.23c0,-0.45 0.25,-0.07 0.53,-0.44 -0.34,-0.19 -0.73,-0.05 -0.98,-0.05 -0.03,0 -0.83,-0.13 -0.97,0.05z"/>
   <path class="fil8" d="M52.14 89.57c0.04,0.35 0.06,0.01 0.05,0.45 0,0.33 -0.15,0.23 0.04,0.26 0.11,-0.25 0.24,-0.64 0.27,-0.97 0.17,0.24 0.27,0.65 0.36,0.97 0.07,0.26 0.19,0.83 0.35,0.98 0.42,0.55 -0.7,0.44 -0.8,0.44l0.71 0.01c0.49,0.12 0.14,-0.03 0.36,0.17 -0.14,0.39 -0.1,0.07 0.01,0.42l0.48 1.4c0.09,0.53 -0.26,0.57 0.47,0.58 0.41,0.01 0.84,0 1.25,0l0 -0.18c-0.69,-0.16 -0.75,-0.16 -1.12,-1.19 -0.19,-0.56 -1.57,-4.88 -1.89,-5.11 -0.23,0.17 -0.26,0.46 -0.37,0.79 -0.11,0.33 -0.3,0.61 -0.17,0.98z"/>
   <path class="fil21" d="M63.68 87.98c0.24,0.32 0.15,0.08 0.53,0.26 0,0.62 0.09,0.87 0.09,1.51l-0.12 4.05c-0.22,0.55 -0.25,-0.14 -0.41,0.48l2.04 -0.18c-0.99,-0.23 -0.71,-0.14 -0.71,-3.02 0,-0.61 0.02,-1.26 0,-1.87 -0.01,-0.37 -0.1,-0.51 -0.01,-0.79 0.2,-0.6 0.19,0.03 0.54,-0.44 -0.34,-0.19 -0.73,-0.05 -0.97,-0.05 -0.03,0 -0.83,-0.13 -0.98,0.05z"/>
   <path class="fil17" d="M46.45 90.55l0.02 0.26 1.47 0.03 -0.14 2.37c-0.04,0.99 -0.36,0.58 -0.53,1.07l2.04 -0.18c-0.95,-0.22 -0.71,-0.37 -0.71,-2.84 0,-0.59 0,-1.18 0,-1.78 0,-0.78 -0.22,-1.31 0.53,-1.33l0 -0.26c-0.36,0 -0.78,0.05 -0.97,0.05 -0.18,-0.01 -0.62,-0.05 -0.98,-0.05l0 0.26c0.36,0 0.28,-0.03 0.53,0.09 0.14,0.62 0.09,1.55 0.09,2.31l-1.35 0z"/>
   <path class="fil15" d="M58.8 91.26c-0.06,-0.14 0.01,-0.12 -0.08,-0.01 0.36,-0.29 0.18,-0.11 0.34,-0.79l-0.08 0c-0.11,-0.62 -0.04,-0.16 -0.5,-0.75 -0.31,-0.4 -1.4,-1.8 -1.81,-1.91 0,0.62 0.08,5.45 -0.09,5.95 -0.11,0.34 -0.12,0.25 -0.53,0.35l1.86 0c-0.54,-0.13 -0.62,-0.05 -0.69,-0.64l-0.11 -4.06 1.18 1.39c0.24,0.28 0.22,0.34 0.51,0.47z"/>
   <path class="fil22" d="M75.66 88.15c0.32,0.01 0.53,0.04 0.53,0.36l0 4.7c0,0.45 -0.08,0.4 -0.09,0.8 -0.24,0.02 -0.24,0.04 -0.44,0.09l2.04 0.18c-0.13,-0.48 -0.17,-0.14 -0.62,-0.36 -0.21,-0.88 -0.09,-4.28 -0.09,-5.41 0,-0.32 0.21,-0.35 0.53,-0.36l0 -0.26 -1.86 0 0 0.26z"/>
   <path class="fil20" d="M63.59 106.34l0 0zm2.49 -0.09c0.03,-0.44 0.15,-0.69 0.44,-0.88 0.22,0.45 -0.1,0.7 -0.44,0.88zm-2.49 -0.53c0.07,0.34 0.01,0.29 -0.18,0.62l0.18 0c0.01,0.58 0.21,0.9 0.44,1.24 1.19,0 0.87,-0.77 1.51,-1.24 0,0.79 0.04,0.77 0.36,1.24 1.38,0 1.65,-1.66 1.51,-1.95 -0.47,0.35 -0.41,1.33 -1.07,1.51 -0.23,-0.17 -0.19,-0.2 -0.26,-0.53 0.7,-0.17 1.08,-0.77 0.53,-1.6l-0.62 0c-0.33,0.48 -0.57,0.68 -0.77,1.09 -0.24,0.48 -0.5,1.01 -0.92,1.04 -0.08,-0.98 -0.13,-0.85 0.09,-1.77 0.26,0.19 0.16,-0.02 0.19,0.43 0.01,0.17 -0.01,0.45 -0.01,0.63l0.26 0c0,-0.57 0.02,-0.86 -0.09,-1.33 -0.31,-0.07 -0.29,-0.09 -0.71,-0.09 -0.16,0.25 -0.24,0.43 -0.44,0.71z"/>
   <path class="fil21" d="M67.23 82.74c0.45,0.67 1.42,1.44 1.42,3.02l0.09 0c0,-0.79 0.2,-1.2 0.47,-1.75 0.38,-0.76 0.68,-0.87 0.95,-1.27 -0.78,-0.41 -1.21,-1.05 -1.42,-1.95 -0.46,0.33 -0.23,1.27 -1.51,1.95z"/>
   <path class="fil23" d="M115.05 88.42c0.02,0.25 0.13,0.12 0.41,0.48 0.49,0.62 0.65,1.36 0.7,2.21 0.03,0.44 -0.1,1.22 -0.25,1.62 -0.27,0.68 -0.79,0.9 -0.86,1.1 -0.12,0.15 -0.06,0.11 -0.25,0.23 -0.1,0.06 -0.17,0.06 -0.23,0.06l0.39 -0.02c0.37,0.12 0.53,-0.08 0.79,-0.28 0.66,-0.49 1.2,-1.39 1.25,-2.35l0 -0.58c-0.03,-1.14 -0.26,-2.03 -1.25,-2.64 -0.3,-0.19 -0.13,-0.17 -0.43,-0.1l-0.32 -0.03c0.01,0.01 0,0.04 0,0.05 0.01,0.17 -0.09,0.01 0.05,0.25z"/>
   <path class="fil24" d="M67.49 72.18c0,2.04 2.4,1.72 2.4,0.09 0,-0.79 -1.14,-1.61 -2,-0.85 -0.18,0.15 -0.4,0.47 -0.4,0.76z"/>
   <path class="fil23" d="M69.49 55.77c-0.12,0.22 -0.73,1.2 -0.83,1.27 0.05,-0.17 0.32,-0.41 0.45,-0.54 0.02,-0.01 0.03,-0.03 0.05,-0.04l1.24 -1.51c0.33,-0.35 0.64,-0.64 0.98,-0.98 0.18,-0.18 0.31,-0.3 0.48,-0.49 0.56,-0.59 0.31,-0.39 0.69,-0.37 0.18,-0.01 0.02,0.05 0.2,-0.08 0.06,-0.04 0.16,-0.14 0.22,-0.21 0.17,-0.17 0.26,-0.24 0.38,-0.42 -0.25,-0.25 -0.15,-0.28 -0.2,-0.66 -0.04,-0.24 -0.13,-0.32 -0.15,-0.67l-0.27 -0.11c-0.02,-0.05 -0.06,-0.04 -0.09,-0.07 0.27,-0.15 0.06,-0.31 0.04,-0.34 0,-0.01 -0.01,-0.03 -0.02,-0.04 0,-0.01 -0.01,-0.03 -0.02,-0.04l-0.08 -0.15c-0.09,-0.17 -0.01,0.07 -0.1,-0.23l0.03 0.18c-0.05,0.37 -2.48,5.37 -3,5.5z"/>
   <path class="fil3" d="M58.53 103.86l0 0zm0.09 -0.36c-0.68,0 -0.61,-1.06 0.27,-1.06 0.57,0 0.31,1.06 -0.27,1.06zm-0.89 -0.35c-0.19,0.17 -0.45,0.2 -0.63,0 0.07,0.01 -0.21,-0.12 0.14,0.02 0.68,0.27 0.16,0.06 0.32,0.24l0.03 0.09c0.01,0.02 0.04,0.08 0.05,0.1l0.45 0.7c0.39,0.5 1.1,1.29 0.95,2.01 -0.13,0.6 -0.61,0.59 -0.68,0.83 -0.19,0.27 0.08,0.04 -0.19,0.19 -0.26,0.15 -0.2,0.03 -0.21,0.03l0.57 -0.04c0.71,0.17 1.24,-1.03 1.11,-1.64 -0.17,-0.84 -0.77,-1.18 -1.11,-1.82 1.19,-0.1 1.14,-1.36 0.68,-1.66 -0.66,-0.43 -1.83,0.06 -1.48,0.95z"/>
   <path class="fil2" d="M67.41 75.82c0.31,0.47 0.65,0.51 1.03,1.36 0.12,0.27 0.08,0.35 0.3,0.5 0.22,-0.46 0.16,-0.64 0.51,-1.08 0.25,-0.3 0.62,-0.46 0.73,-0.87 -0.77,-0.2 -1.11,-1.49 -1.24,-1.77 -0.24,0.17 -0.28,0.54 -0.57,1.03 -0.41,0.68 -0.53,0.51 -0.76,0.83z"/>
   <path class="fil2" d="M70.33 72.54c0.87,0.07 1.49,0.53 1.87,1.24 0.41,-0.3 0.49,-0.92 1.86,-1.24l0 -0.18c-0.42,-0.04 -0.79,-0.23 -1.08,-0.43 -0.16,-0.11 -0.32,-0.23 -0.43,-0.37 -0.17,-0.22 -0.12,-0.27 -0.35,-0.44 -0.88,1.31 -1.53,0.95 -1.87,1.42z"/>
   <path class="fil2" d="M63.24 72.54c1.15,0.09 1.72,1.09 1.95,1.24 0.17,-0.74 1.03,-1.07 1.77,-1.24l0 -0.18c-1.08,-0.09 -1.63,-1.08 -1.86,-1.24 -0.62,1.17 -1.55,0.99 -1.86,1.42z"/>
   <path class="fil16" d="M60.66 106.7l-0.05 0.19 0.05 -0.19zm0.54 -0.36c0,-0.23 0.14,-0.01 0.05,0 0,0 -0.05,0.25 -0.05,0zm0.88 -0.09c-0.17,0.1 -0.27,-0.02 -0.09,0.09 0.03,-0.24 0.04,-0.16 0.09,-0.44 -0.18,-0.1 -0.27,0.02 -0.09,-0.18 0.03,-0.34 0.09,-0.35 0.09,-0.8 -0.35,0 -0.36,0.03 -0.62,0.09 -0.02,0.07 -0.09,0.45 -0.11,0.51 -0.08,0.18 0.01,0.01 -0.1,0.16 -0.52,0.72 -0.16,0.31 -0.44,0.81 -0.1,0.18 -0.06,0.11 -0.15,0.21 0,-0.73 0.18,-1.05 0.18,-1.78 -0.75,0 -0.63,0.29 -0.7,0.99 -0.05,0.56 -0.02,1.25 0.08,1.67 0.68,-0.01 0.53,-0.55 0.98,-1.06 0,0.43 -0.06,0.86 0.08,1.15 0.46,-0.04 0.4,-0.17 0.53,-0.54 0.12,-0.35 0.21,-0.45 0.27,-0.88z"/>
   <path class="fil22" d="M80.89 91.7c-0.07,-0.43 -0.06,-0.01 0.01,-0.6 0.06,-0.49 0.19,-0.39 -0.19,-0.64l0.09 0.09 -0.25 -0.37c-0.31,-0.33 -1.02,-0.88 -0.52,-1.64 0.23,-0.33 0.7,-0.42 1.11,-0.29 0.49,0.16 0.52,0.44 0.64,0.97l0.18 -1.33c-0.45,0 -2.48,-0.58 -2.72,1.27 -0.12,0.93 0.63,1.73 1.27,2.3 0.26,0.23 0.06,0.11 0.38,0.24z"/>
   <path class="fil6" d="M74.77 104.03c0.65,0 -0.03,0.98 -0.32,1.29 -0.21,0.22 -0.85,0.87 -1.15,0.71 -0.47,-0.24 1,-2 1.47,-2zm-1.86 1.6c0,1.16 0.57,0.6 1.15,0.45 -0.21,0.31 -0.49,0.53 -0.77,0.82 -0.29,0.28 -0.57,0.58 -1.09,0.6 0.22,-0.34 0.39,-0.52 -0.27,-0.54 -0.18,0.78 -0.14,0.71 0.62,0.71 0.9,0 2.75,-2.02 2.75,-3.46 0,-1.08 -2.39,0.12 -2.39,1.42z"/>
   <path class="fil8" d="M67.41 68.72l0 0.27c0.34,0.09 0.61,0.44 0.8,0.7 0.22,0.32 0.23,0.5 0.36,0.8 0.08,0.17 0.04,0.13 0.17,0.27 0.17,-0.72 0.53,-1.61 1.24,-1.77 -0.13,-0.5 -0.15,-0.03 -0.78,-0.82 -0.34,-0.44 -0.25,-0.7 -0.46,-1.13 -0.48,0.35 -0.25,1.43 -1.33,1.68z"/>
   <path class="fil6" d="M76.9 106.08l-0.09 0.08 0.09 -0.08zm0 0l0 0zm-0.8 0c0,-1.09 1.78,-2.69 1.78,-1.78 0,0.52 -0.89,1.7 -1.78,1.78zm0.71 0.08c-0.37,0.55 -1.02,1.32 -1.77,1.34 0.13,-0.21 0.17,-0.18 0.17,-0.54 -1.25,0.03 -0.24,1.73 1.62,-0.15 0.8,-0.8 1.51,-1.74 1.22,-2.95 -1.15,-0.27 -2.3,0.91 -2.3,2.22 0.53,0.46 0.46,0.23 1.06,0.08z"/>
   <path class="fil15" d="M53.48 91.88c-0.22,-0.2 0.13,-0.05 -0.36,-0.17l-0.71 -0.01c0.1,0 1.22,0.11 0.8,-0.44 -0.07,0.17 0.11,0.19 -0.62,0.19 -0.23,-0.01 -0.47,-0.01 -0.71,-0.01 0.14,-0.29 0.3,-0.79 0.35,-1.16 -0.19,-0.03 -0.04,0.07 -0.04,-0.26 0.01,-0.44 -0.01,-0.1 -0.05,-0.45 -0.24,0.18 -0.05,-0.01 -0.2,0.23l-0.77 2.26c-0.46,1.52 -0.46,1.83 -1.33,2.04l0 0.18c0.73,0 1.64,0.12 1.86,-0.18 -0.24,-0.02 -0.24,-0.04 -0.44,-0.09 0,-0.5 0.33,-1.72 0.53,-2.13l1.69 0z"/>
   <path class="fil4" d="M72.46 87.18c0.48,0.21 0.63,0.22 0.91,0.68 0.65,1.08 0.29,2.56 -0.76,2.75 -0.48,0.09 -0.47,-0.14 -0.59,0.29 1.28,0 2.07,-0.35 2.39,-1.78 0.26,-1.12 -0.43,-2.3 -1.59,-2.3 -0.02,0.03 -0.07,0.01 -0.09,0.06 -0.02,0.04 -0.06,0.03 -0.09,0.05 -0.34,0.12 -0.22,0.07 -0.71,0.07 0.27,-0.15 0.48,0.14 0.53,0.18z"/>
   <path class="fil10" d="M67.76 31.46c0.09,0.31 0.5,0.76 0.77,1.09 0.15,0.19 0.13,0.26 0.38,0.33 0.08,-0.3 0.71,-0.93 0.98,-1.33 -0.08,-0.3 -0.94,-1.42 -1.06,-1.51 -0.23,0.16 -0.88,1.13 -1.07,1.42z"/>
   <path class="fil20" d="M78.32 107.5c-0.95,0 0.96,-2.51 1.53,-3 1.4,-1.18 1.37,0.12 0.09,1.69 -0.28,0.35 -1.11,1.31 -1.62,1.31zm-0.53 -0.45c0,0.68 0.29,0.62 0.62,0.62 0.93,0 2.75,-2.34 2.75,-3.37 0,-0.24 -0.04,-0.24 -0.09,-0.44 -0.54,-0.13 -0.63,-0.16 -1.42,0.36 -0.35,0.23 -0.54,0.42 -0.83,0.76 -0.25,0.31 -0.43,0.5 -0.64,0.86 -0.1,0.17 -0.39,1.03 -0.39,1.21z"/>
   <path class="fil25" d="M82.76 38.2c0,0.15 0.11,0.33 0.17,0.44 -0.66,0 -0.65,0.1 -1.35,-0.06 -0.6,-0.15 -0.77,-0.17 -1.22,-0.47 0.17,0.63 1.76,1.07 2.22,1.07 1.95,0 1.84,-1.69 0.97,-1.69 -0.43,0 -0.79,0.29 -0.79,0.71z"/>
   <path class="fil25" d="M53.48 38.11c0,0.94 1.61,1.54 3.39,0.47 0.24,-0.15 0.34,-0.17 0.42,-0.47 -0.88,0.47 -1.25,0.53 -2.57,0.53 0.39,-1.66 -1.24,-1.24 -1.24,-0.53z"/>
   <path class="fil26" d="M91.27 91.97c-0.15,0.41 0.13,0.84 0.26,1.16 0.35,0.95 0.23,0.64 0.19,1.15l1.68 -0.18c-0.92,-0.22 -1,-0.83 -1.5,-2.32 -0.07,-0.22 -0.18,-0.79 -0.36,-0.88 -0.02,-0.02 -0.07,-0.07 -0.08,-0.05 0,0.02 -0.04,-0.03 -0.05,-0.03l-0.14 1.15z"/>
   <path class="fil14" d="M71.75 104.66l-0.09 0.08 0.09 -0.08zm0 0l0 0zm-0.09 0.08c-0.06,0.27 -0.33,0.51 -0.5,0.74 -0.31,0.41 -1.47,1.93 -1.54,2.19l0.63 0 1.19 -2c0.14,-0.21 0.19,-0.26 0.32,-0.48 0.28,-0.47 0.85,-1.12 0.88,-1.51l-2.45 1.72c-0.63,0.41 -0.66,0.24 -0.57,0.68 0.62,-0.33 1.7,-1.24 2.04,-1.34z"/>
   <path class="fil4" d="M80.89 91.7c0.01,0.3 0.33,0.33 0.49,0.85 0.22,0.77 -0.21,0.79 -0.14,1.19 -0.02,0.03 -0.06,0.12 -0.06,0.13 -0.01,0.09 -0.05,-0.07 0,0.15l0.07 -0.01c0.44,0.24 1.02,-1.09 0.82,-1.89 -0.13,-0.53 -0.91,-1.56 -1.27,-1.57l-0.09 -0.09c0.38,0.25 0.25,0.15 0.19,0.64 -0.07,0.59 -0.08,0.17 -0.01,0.6z"/>
   <path class="fil2" d="M63.15 106.43l-0.05 0.19 0.05 -0.19zm-1.16 -0.71l0.09 0.18c-0.05,0.28 -0.06,0.2 -0.09,0.44 -0.18,-0.11 -0.08,0.01 0.09,-0.09 0.31,-0.24 0.21,-0.56 0.53,-0.8 0,0.31 -0.11,0.83 -0.15,1.09 -0.08,0.57 -0.06,0.72 0.15,1.04 0.44,-0.03 0.39,-0.15 0.57,-0.5 0.18,-0.33 0.38,-0.4 0.23,-0.74 0.19,-0.33 0.25,-0.28 0.18,-0.62 -0.3,0.16 -0.2,0.37 -0.44,0.71 0,-0.43 0.27,-1.44 -0.36,-1.51 -0.34,-0.04 -0.66,0.64 -0.8,0.8z"/>
   <path class="fil19" d="M67.76 39.62c0.13,0.18 0.36,0.31 0.56,0.51 0.12,0.12 0.15,0.16 0.25,0.28 0.16,0.19 0.06,0.2 0.34,0.27 0.08,-0.29 0.21,-0.34 0.42,-0.55 0.22,-0.21 0.26,-0.34 0.56,-0.42 -0.1,-0.37 -0.26,-0.32 -0.56,-0.6 -0.27,-0.25 -0.32,-0.46 -0.59,-0.64 -0.16,0.66 -0.66,0.67 -0.98,1.15z"/>
   <path class="fil19" d="M67.76 37.05c0.3,0.08 0.9,0.68 0.98,0.97l0.17 0c0.15,-0.56 0.77,-0.77 0.98,-1.06 -0.29,-0.43 -0.82,-0.49 -0.98,-1.15l-0.17 0c-0.2,0.75 -0.85,0.74 -0.98,1.24z"/>
   <path class="fil7" d="M65.19 41.66l0 0.18c0.46,0.11 0.95,0.6 1.06,1.06 0.44,-0.32 -0.05,-0.25 0.88,-0.9 0.2,-0.14 0.2,-0.07 0.28,-0.34 -0.35,-0.09 -0.86,-0.53 -0.98,-0.98 -0.48,0.13 -0.54,0.82 -1.24,0.98z"/>
   <path class="fil5" d="M70.25 41.75c0.19,0.26 0.4,0.27 0.64,0.51 0.23,0.23 0.24,0.45 0.51,0.64 0.18,-0.76 0.65,-0.7 0.97,-1.15 -0.15,-0.21 -0.36,-0.28 -0.57,-0.49 -0.21,-0.21 -0.28,-0.42 -0.49,-0.58 -0.26,0.19 -0.24,0.36 -0.48,0.59 -0.22,0.19 -0.43,0.26 -0.58,0.48z"/>
   <path class="fil7" d="M67.76 43.7c0.09,0.33 0.11,0.16 0.51,0.55 0.21,0.2 0.38,0.48 0.56,0.61 0.17,-0.13 0.3,-0.36 0.5,-0.56 0.39,-0.39 0.47,-0.27 0.56,-0.6 -0.44,-0.1 -0.86,-0.56 -0.98,-0.97l-0.17 0c-0.12,0.42 -0.55,0.87 -0.98,0.97z"/>
   <path class="fil18" d="M70.96 100.31c-1.56,0 -2.38,1.63 -2.23,1.79 0.21,0.2 1.25,-0.33 1.43,-0.46 0.34,-0.24 0.78,-0.76 0.8,-1.33z"/>
   <path class="fil18" d="M68.56 102.17c-0.04,-0.49 -0.47,-0.99 -0.78,-1.26 -0.38,-0.34 -0.84,-0.6 -1.53,-0.6 0.11,1.3 1.4,1.65 2.31,1.86z"/>
   <path class="fil18" d="M58.53 107.32l-0.57 0.04c0.01,0 -0.05,0.12 0.21,-0.03 0.27,-0.15 0,0.08 0.19,-0.19 -0.97,0.15 -1.78,0.14 -1.69,-1.06 0.04,-0.61 0.44,-1 0.85,-0.87 0.24,0.08 0.15,0.08 0.21,0.16 0.23,0.31 -0.08,0.18 0.27,0.44 0.13,-0.26 0.09,-0.25 0.09,-0.62 -0.46,-0.31 -0.61,-0.6 -1.26,-0.11 -0.4,0.3 -0.51,0.81 -0.49,1.21 0.05,1.09 1.02,1.47 1.82,1.29 0.49,-0.11 0.25,-0.09 0.37,-0.26z"/>
   <path class="fil5" d="M68.12 41.66c0,0.95 1.42,0.92 1.39,0.01 -0.03,-0.99 -1.39,-0.84 -1.39,-0.01z"/>
   <path class="fil18" d="M68.65 100.75c0.48,0 0.92,-0.16 1.21,-0.38 0.28,-0.22 0.55,-0.58 0.56,-1.04 -0.96,0.02 -1.59,0.63 -1.77,1.42z"/>
   <path class="fil15" d="M81.25 94.01l-0.07 0.01c-0.05,-0.22 -0.01,-0.06 0,-0.15 0,-0.01 0.04,-0.1 0.06,-0.13 -0.15,0.03 -1.48,0.62 -1.8,-0.41 -0.14,-0.46 0.1,-0.41 -0.23,-0.65 -0.16,0.32 -0.09,0.96 -0.09,1.42 0.83,0.44 1.05,0.26 2.04,0.18 0.05,-0.07 0.07,-0.22 0.09,-0.27z"/>
   <path class="fil18" d="M68.56 100.75c-0.06,-0.77 -0.91,-1.42 -1.77,-1.42 0.06,0.77 0.9,1.42 1.77,1.42z"/>
   <path class="fil18" d="M68.2 97.56c0,0.66 -0.04,0.46 0.36,1.06 0.58,-0.38 0.65,-0.85 0.36,-1.43 -0.12,-0.25 -0.09,-0.31 -0.45,-0.34 -0.09,0.35 -0.27,0.29 -0.27,0.71z"/>
   <path class="fil4" d="M97.75 93.83c-0.14,0.35 0.03,0.1 -0.25,0.23 -0.06,0.03 -0.25,0.03 -0.33,0.04 0.4,-0.13 0.22,-0.05 0.27,0.26 0.53,0 1.18,-0.02 1.39,-0.33 0.18,-0.27 0.28,-1.2 0.16,-1.44 -0.5,0.37 -0.04,1.24 -1.24,1.24z"/>
   <path class="fil27" d="M68.56 99.42c-0.16,-0.68 -0.75,-1.06 -1.6,-1.06 0.04,0.42 0.29,0.64 0.56,0.86 0.3,0.25 0.69,0.28 1.04,0.2z"/>
   <path class="fil27" d="M56.67 103.59c-0.04,-0.19 0.15,-0.06 0.11,0.02 -0.1,0.18 -0.1,0.05 -0.11,-0.02zm0.89 -0.18c-0.16,-0.18 0.36,0.03 -0.32,-0.24 -0.35,-0.14 -0.07,-0.01 -0.14,-0.02 0.18,0.2 0.44,0.17 0.63,0l-0.94 -0.21c-0.4,-0.12 -0.3,-0.36 -0.74,-0.15 0.08,0.32 0.09,0.28 0.44,0.36 -0.14,0.6 -0.25,0.88 0.54,0.88l0.08 -0.7c0.22,0.1 0.11,0.06 0.45,0.08z"/>
   <path class="fil18" d="M68.65 99.42c0.81,0.19 1.54,-0.37 1.6,-1.06 -0.79,0 -1.44,0.45 -1.6,1.06z"/>
   <path class="fil28" d="M98.1 88.42c0.08,0.23 -0.13,-0.08 0.09,0.11 0.11,0.1 0.04,0.02 0.14,0.1 0.63,0.5 0.16,0.82 0.57,1.12 0.17,-0.35 0.06,-0.84 0.11,-1.33 0.09,-0.76 -0.03,-0.26 -0.64,-0.53 -0.16,0.1 -0.11,0.14 -0.53,0.12 0.24,0.11 0.14,0.02 0.19,0.13 0.24,0.48 -0.32,-0.31 0.07,0.28z"/>
   <path class="fil15" d="M60.4 104.39c0,0.31 0.17,0.27 0.35,0.27 0.19,-0.34 0.13,-0.54 -0.26,-0.54 -0.07,0.11 -0.09,0.1 -0.09,0.27z"/>
  </g>
 </g>
</svg>
