<?xml version="1.0" encoding="UTF-8"?>
<!DOCTYPE svg PUBLIC "-//W3C//DTD SVG 1.1//EN" "http://www.w3.org/Graphics/SVG/1.1/DTD/svg11.dtd">
<!-- Creator: CorelDRAW 2020 (64-Bit) -->
<svg xmlns="http://www.w3.org/2000/svg" xml:space="preserve" width="140px" height="140px" version="1.1" style="shape-rendering:geometricPrecision; text-rendering:geometricPrecision; image-rendering:optimizeQuality; fill-rule:evenodd; clip-rule:evenodd"
viewBox="0 0 140 140"
 xmlns:xlink="http://www.w3.org/1999/xlink"
 xmlns:xodm="http://www.corel.com/coreldraw/odm/2003">
 <defs>
  <style type="text/css">
   <![CDATA[
    .fil0 {fill:#282828}
    .fil3 {fill:#333333}
    .fil2 {fill:#444444}
    .fil4 {fill:#575757}
    .fil1 {fill:#5A5A5A}
   ]]>
  </style>
 </defs>
 <g id="Layer_x0020_1">
  <metadata id="CorelCorpID_0Corel-Layer"/>
  <g id="_2738702000064">
   <path class="fil0" d="M47.86 71.8l1.63 1.77c-0.02,0.02 -0.04,0.03 -0.06,0.04l-0.34 0.24c-0.5,0.38 -0.4,0.37 -1.4,0.4 -0.28,-0.59 -0.79,-1.09 -1.02,-1.82 -0.31,-0.9 -0.74,-1.38 -0.66,-2.61 0.41,0.01 1.63,1.68 1.85,1.98zm3.83 -2.57c0.39,0.16 0.49,0.32 0.82,0.65 0.56,0.56 0.52,0.3 0.68,0.81 -0.9,0.36 -0.67,0.34 -1.21,0.72l-0.59 0.29c-0.01,0.03 0.07,0.1 0,0.27 -0.23,0.09 0.04,-0.02 -0.15,0.09 -0.01,0.01 -0.03,0.03 -0.05,0.03 -0.38,0.22 -1.05,0.25 -1.26,0.21 -0.31,-0.07 -0.76,-0.69 -0.87,-0.98 -0.44,-0.39 -2.23,-3 -2.24,-3.97 0.33,0.32 0.52,0.55 0.81,0.88 0.87,0.99 2.44,2.16 2.57,2.3 0.51,0.15 0.8,0.43 1.38,0.48 -0.17,-0.29 -0.28,-0.26 -0.52,-0.5 -0.18,-0.18 -0.32,-0.32 -0.47,-0.54 -0.58,-0.84 -2.04,-2.5 -2.04,-4.11l3.14 3.37zm19.18 -7.79c0,2.35 0.15,4.01 1.52,5.83 1.44,1.92 3.23,2.24 3.44,2.53 -0.27,0.06 -0.36,0.09 -0.61,0.22 -0.2,0.11 -0.07,0.05 -0.3,0.16 -0.1,0.05 -0.18,0.08 -0.32,0.14l-2.46 1.03c-1.34,0.45 -2.69,0.92 -4.09,1.14 -3.43,0.55 -6.62,0.47 -9.87,-0.75l-4.33 -2.29c-1.15,-0.77 -2.66,-2.09 -3.48,-3.13 -0.57,-0.71 -2.68,-3.18 -2.75,-3.96l-0.27 0c-0.08,0.92 -0.32,2.07 -0.09,3.03 -0.6,0 -0.95,-0.18 -1.36,-0.57 -0.11,-0.12 -0.32,-0.39 -0.5,-0.39 -0.26,0.01 -0.09,0.24 -0.07,0.68 0.04,1.07 0.37,2.83 0.37,3.5 -0.62,-0.06 -1.14,-0.38 -1.63,-0.68 -0.23,-0.14 -0.27,-0.22 -0.58,-0.24 0.03,0.35 0.1,0.35 0.2,0.71l0.75 2.29c0.21,0.54 0.35,0.92 0.58,1.44 0.21,0.46 0.47,0.96 0.58,1.44 -1.02,0 -1.45,-0.27 -2.23,-0.64 -0.41,-0.19 -0.29,-0.06 -0.26,0.35 0.05,0.85 0.05,1 0.25,1.71 1.03,3.61 3.91,6.07 7.25,7.53 1.82,0.8 4.64,0.93 6.13,2.79 1.08,1.36 0.63,1.72 -0.27,2.7l-1.07 1.24c-1.93,2.39 -1.95,3.66 -2.32,4.11 -0.55,0.67 -4.26,2.53 -5.69,3.58 -0.76,0.56 -0.77,0.42 -2.32,-0.24 -1.28,-0.54 -2.51,-1.23 -3.75,-1.85 -1.82,-0.9 -4.33,-2.83 -5.89,-4.22 -1.4,-1.24 -2.69,-2.58 -3.84,-4.06l-1.85 -2.65c-1.16,-1.95 -2.16,-3.98 -2.82,-6.19 -1.27,-4.29 -1.67,-8.81 -1.53,-13.35 0.03,-0.94 0.21,-1.98 0.28,-2.84 0.05,-0.66 0.18,-1.17 0.28,-1.75l0.73 -3.4c0.48,-1.84 1.12,-3.64 1.91,-5.35 0.12,-0.27 0.2,-0.42 0.32,-0.69l1.44 -2.69c0.26,-0.47 0.49,-0.86 0.79,-1.32l2.19 -2.96c0.16,-0.2 0.29,-0.37 0.45,-0.56 1.52,-1.81 3.52,-3.58 5.43,-4.95 1.59,-1.14 3.37,-2.18 5.23,-3.04 0.5,-0.23 0.96,-0.37 1.44,-0.58 0.5,-0.23 0.97,-0.37 1.53,-0.58 1.03,-0.38 2.14,-0.61 3.23,-0.9 0.25,-0.07 0.59,-0.12 0.85,-0.17l1.73 -0.29c0.34,-0.04 0.64,-0.13 0.94,-0.16 5.75,-0.58 13.52,-0.07 17.74,3.08 0.19,0.14 0.3,0.22 0.46,0.37 0.21,0.2 0.26,0.21 0.45,0.38l0.81 0.93c1.86,2.58 1.82,5.61 1.4,8.65 -0.12,0.83 -0.27,1.67 -0.47,2.39l-2.33 7.58c-0.72,1.91 -1.35,3.8 -1.35,5.91zm10.77 -14c-0.15,0.91 -0.9,2.57 -1.23,3.42 -0.98,2.51 -1.65,4.2 -2.34,6.85 -0.27,1.02 -0.65,2.87 -0.66,3.94l-1.63 1.04c-0.02,0.01 -0.04,0.02 -0.06,0.03l-1.01 0.68c-0.04,-3.59 -0.28,-3.89 0.77,-7.81 0.3,-1.09 1.78,-5.62 2.36,-6.37 0.26,-0.94 0.91,-2.22 1.37,-3.96 1.86,-7.01 -3.32,-10.18 -3.88,-11.44 1.06,0.15 3.06,1.3 3.82,1.79 2.71,1.75 3.84,4.07 3.55,7.46 -0.18,2.06 -0.75,2.86 -1.06,4.37zm-59 19.15c0,4.9 1.14,9.46 3,13.8 0.19,0.43 0.34,0.72 0.53,1.13 0.52,1.16 1.14,2.26 1.83,3.31l1.36 2.04c0.23,0.33 0.46,0.64 0.7,0.95 0.26,0.32 0.52,0.6 0.75,0.91 0.14,0.18 0.24,0.26 0.38,0.44l3.82 3.81 2.84 2.22c1.34,0.97 2.73,1.81 4.23,2.56 0.39,0.19 0.71,0.37 1.11,0.55 0.42,0.18 0.85,0.33 1.22,0.52 -0.11,0.15 -2.35,1.89 -2.92,2.5l-2.44 2.99c-0.63,0.85 -1.08,1.6 -1.48,2.56 -0.57,1.38 -1.11,1.48 -2.43,1.7 -1.29,0.22 -0.93,1.4 -0.93,2.38 0,0.43 -0.47,1.03 -0.69,1.32 -0.81,1.08 -2.74,1.98 -4.09,1.98 0.17,0.23 0.13,0.21 0.47,0.28 3.34,0.67 6.54,-2.5 8.17,-4.96 1.28,-1.93 1.6,-3.51 3.47,-5.35 0.13,-0.13 0.2,-0.2 0.31,-0.33 0.07,-0.07 0.06,-0.06 0.13,-0.15l0.17 -0.2c0.72,-0.85 2.07,-1.97 2.97,-2.73 1.25,-1.05 5.73,-4.59 7.29,-4.74 2.48,-0.24 4.13,-2.73 5.96,-4.14 0.25,-0.19 0.4,-0.36 0.65,-0.55l2.83 -2.22c0.26,-0.19 0.5,-0.33 0.76,-0.52 2.84,-2.12 7.46,-4.36 11.07,-3.84 2.19,0.32 3.6,1.62 6.01,1.62 1.77,0 2.83,-0.03 4.49,-0.66 0.63,-0.24 1.8,-0.86 2.28,-1.29 0.91,-0.83 2.14,-1.68 3.35,-1.99 2.31,-0.59 1.11,2.86 -2.36,3.81 -0.41,0.11 -0.5,0.03 -0.6,0.4 4.19,0 4.39,-2.22 5.33,-2.84 0.6,1.07 -1,2.29 -1.19,3.12 0.77,-0.21 4.33,-4.61 4.79,-5.22 1.28,-1.72 2.41,-3.46 3.53,-5.29 0.18,-0.31 0.3,-0.49 0.47,-0.82 0.29,-0.6 0.56,-1.02 0.83,-1.65 0.78,-1.84 1.6,-3.47 1.95,-5.58 0.28,-1.63 0.29,-2.82 -0.04,-4.46 -0.32,-1.62 -0.69,-3.13 -0.69,-4.82 0,-3.08 4.24,-4.35 5.42,-6.98 0.66,-1.48 0.08,-1.67 1.18,-3.04 0.31,-0.4 0.56,-0.72 0.88,-1.15 0.88,-1.18 5.8,-7.37 6.3,-8.3 -0.46,0.12 -2.06,1.62 -2.45,1.96 -0.83,0.69 -1.57,1.32 -2.39,2.02 -0.83,0.69 -1.56,1.32 -2.39,2.02l-0.88 0.77c-0.3,0.25 -0.58,0.65 -0.99,0.67 -1.14,0.06 -3.35,-0.71 -4.87,1.28 -0.42,0.55 -0.5,0.81 -0.77,1.53l-0.56 1.74c-0.85,2.59 -1.61,2.3 -2.55,4.24 -0.74,1.54 -0.55,3.14 -0.29,4.75 0.1,0.64 0.22,0.97 0.33,1.61 0.52,3.07 1.05,4.07 -0.38,7.26 -0.75,1.67 -4.1,7.17 -6.07,7.17 -0.24,0 -0.25,-0.04 -0.46,-0.09 0.02,-0.64 0.45,-1.67 0.59,-2.44 0.48,-2.57 0.7,-6.51 -0.62,-8.92 -1.12,-2.06 -0.46,-5.44 -0.05,-7.47 0.09,-0.45 0.18,-0.9 0.29,-1.36 0.67,-2.86 0.93,-5.35 1.17,-8.3 0.21,-2.66 0.25,-6.37 -0.67,-8.78 -0.51,-1.37 -0.91,-2.17 -1.66,-3.3 -0.65,-0.98 -1.43,-1.79 -2.33,-2.55l-1.38 -1.09c-0.52,-0.35 -0.97,-0.62 -1.53,-0.95 -0.54,-0.32 -1.04,-0.53 -1.61,-0.78 -1.5,-0.66 -3.1,-1.13 -4.71,-1.44 -1.1,-0.21 -2.24,-0.26 -3.3,-0.38 -1.52,-0.16 -5.52,-0.29 -7.15,-0.29 -7.45,0 -14.96,0.54 -21.74,3.16 -3.52,1.36 -6.88,3.09 -9.8,5.45 -0.27,0.21 -0.46,0.39 -0.71,0.58 -0.99,0.76 -2.41,2.16 -3.24,3.1l-4.23 5.87c-0.67,1.12 -1.15,2.22 -1.75,3.4 -0.27,0.53 -0.53,1.15 -0.75,1.72 -0.08,0.2 -0.1,0.28 -0.17,0.48 -0.44,1.08 -0.83,2.1 -1.14,3.27l-0.56 2.01c-0.22,1.07 -0.51,2.07 -0.65,3.12 -0.26,1.96 -0.55,3.81 -0.55,5.88z"/>
   <path class="fil1" d="M77.84 49.22l-0.21 0.79c0.63,-0.04 0.24,0.06 0.7,-0.31l0.54 -0.37c0.02,-0.01 0.04,-0.02 0.06,-0.03l0.59 -0.41c0,0 0.2,-0.09 0.25,-0.12 0.02,-0.01 0.04,-0.03 0.06,-0.04 0.02,-0.01 0.04,-0.02 0.06,-0.04 0.5,-0.34 0.99,-0.78 1.49,-0.75 0.08,-0.34 0.09,-0.33 0.26,-0.5 0.31,-1.51 0.88,-2.31 1.06,-4.37 0.29,-3.39 -0.84,-5.71 -3.55,-7.46 -0.76,-0.49 -2.76,-1.64 -3.82,-1.79 0.56,1.26 5.74,4.43 3.88,11.44 -0.46,1.74 -1.11,3.02 -1.37,3.96z"/>
   <path class="fil2" d="M77.84 49.22c-0.58,0.75 -2.06,5.28 -2.36,6.37 -1.05,3.92 -0.81,4.22 -0.77,7.81l1.01 -0.68c0.02,-0.01 0.04,-0.02 0.06,-0.03l1.63 -1.04c0.01,-1.07 0.39,-2.92 0.66,-3.94 0.69,-2.65 1.36,-4.34 2.34,-6.85 0.33,-0.85 1.08,-2.51 1.23,-3.42 -0.17,0.17 -0.18,0.16 -0.26,0.5 -0.5,-0.03 -0.99,0.41 -1.49,0.75 -0.02,0.02 -0.04,0.03 -0.06,0.04 -0.02,0.01 -0.04,0.03 -0.06,0.04 -0.05,0.03 -0.25,0.12 -0.25,0.12l-0.59 0.41c-0.02,0.01 -0.04,0.02 -0.06,0.03l-0.54 0.37c-0.46,0.37 -0.07,0.27 -0.7,0.31l0.21 -0.79z"/>
   <path class="fil3" d="M84.28 110.04c0,-0.45 -0.08,-1.38 0.73,-1.38 1.04,0 1.02,1.39 1.02,2.21 -0.72,0 -1.75,0.09 -1.75,-0.83zm5.97 -2.21c0.61,0 1.29,-0.06 1.29,1.11 -0.79,0 -0.9,0.06 -1.56,-0.1 -0.28,-0.57 -0.11,-1.01 0.27,-1.01zm-1.56 0.37c0,0.67 -0.01,1.22 0.63,1.66 0.48,0.33 1.61,0.27 2.31,0.27 0,0.3 -0.04,0.74 -0.46,0.74l-3.95 0c0,-1.71 -0.06,-3.4 -2.21,-3.4 -1.73,0 -2.19,1.31 -2.04,2.68 0.05,0.38 0.1,0.66 0.25,0.95 0.49,0.92 1.63,1.05 2.71,1.05 -0.2,0.87 -0.52,1.56 -1.74,1.65 -1.44,0.11 -1.72,-0.44 -1.57,0.75 0.08,0.66 0.08,0.54 1.38,0.54 0.82,0 1.47,-0.16 1.96,-0.52 0.49,-0.36 0.9,-0.75 1.11,-1.37 0.52,-1.52 -0.87,-0.94 4.01,-1.04 0.77,-0.02 1.29,-0.39 1.62,-0.87 0.46,-0.68 0.2,-1.16 0.22,-2.08 0.01,-0.88 -0.16,-1.44 -0.57,-1.92 -1.32,-1.55 -3.66,-0.66 -3.66,0.91z"/>
   <path class="fil3" d="M60.58 108.94c0.56,0.37 1.76,2.16 0.53,2.37 -0.44,0.08 -0.74,-0.18 -1.08,-0.26 0.2,-0.76 0.55,0.13 0.55,-2.11zm-2.76 0.46c0,-0.14 0.13,-0.45 0.2,-0.55 0.56,-0.8 2.32,0.48 0.72,1.56 -0.3,-0.16 -0.92,-0.41 -0.92,-1.01zm2.76 -0.46l0 0zm-1.38 -1.38c-1.55,-0.36 -2.57,0.56 -2.57,1.74 0,0.53 0.36,1.2 0.55,1.57 -1.57,0 -1.75,0.18 -2.57,-0.37 0,-2.35 0.32,-2.02 -1.29,-2.02l0 3.58c0,1.99 -2.19,1.75 -3.4,1.75 0,0.57 0.08,0.82 0.18,1.28 1.51,0 2.37,0.09 3.26,-0.6 0.66,-0.5 1.16,-1.66 1.25,-2.71 0.77,0.52 1.17,0.37 2.39,0.37 0.43,0 0.8,-0.07 1.11,-0.17 0.44,-0.14 0.51,-0.28 0.92,-0.04 2.5,1.48 3.94,0.04 3.94,-1.26 0,-0.93 -0.68,-1.82 -1.13,-2.36l-1.72 -1.77c-0.26,0.07 -0.84,0.53 -0.91,0.86 -0.1,0.52 0.16,-0.22 -0.01,0.15z"/>
   <path class="fil3" d="M105.96 96.44c-0.72,0.38 -1.07,0.28 -2.02,0.28 -0.57,0 -0.6,-0.16 -0.92,-0.37 0,-0.4 0,-0.8 0,-1.2 0.02,-1.05 0.2,-0.91 -1.29,-0.91 0,2.5 0.2,2.48 -1.65,2.48 -0.81,0 -1.21,-0.27 -1.56,-0.74 -0.34,-0.45 -0.76,-0.8 -1.17,-1.21l-2.32 -2.46 -0.85 0.8c0.45,0.66 2.63,2.61 2.78,3.24 -0.36,0.54 -1.05,0.37 -1.93,0.37 -0.8,0 -1.59,0 -2.39,0 0.07,0.29 0.16,0.88 0.18,1.19 0.62,0 3.8,0.07 4.25,-0.07 0.52,-0.16 0.55,-0.34 0.9,-0.57 0.39,0.1 0.68,0.64 1.28,0.64 1.77,0 2.06,0.2 3.13,-0.37 0.88,0.59 1.53,0.37 3.21,0.37 0.9,0 1.66,-0.74 1.66,-1.65l0 -5.51c0,-0.38 -0.29,-0.28 -1.01,-0.28 -0.45,0 -0.28,0.87 -0.28,1.29l0 4.68z"/>
   <path class="fil3" d="M68.11 110.87c0.07,-0.79 2.67,-3.84 2.67,-0.83 0,1.09 -0.55,0.83 -2.67,0.83zm-1.29 0c-2.13,0 -1.65,0.52 -1.65,-5.98l-1.28 0 0 5.52c0,1.15 0.96,1.74 2.11,1.74l4.32 0c2.55,0 2.12,-4.68 -0.19,-4.68 -1.08,0 -1.38,0.76 -2.02,1.19l0 -3.95 -1.29 0 0 6.16z"/>
   <path class="fil3" d="M77.57 91.3c0,1.59 0.24,1.41 1.08,2.32 0.23,0.25 0.3,0.39 0.55,0.64 0.33,0.33 1.49,1.39 1.62,1.79 0.11,0.3 -0.09,0.67 -0.4,0.67 -0.75,0 -3.33,0.08 -3.91,-0.13 -0.34,-0.12 -0.41,-0.38 -0.41,-0.79l0 -5.15c-0.89,0 -1.28,-0.12 -1.28,0.28l0 4.96c0,0.64 0.12,1.23 0.49,1.53 0.34,0.28 0.94,0.49 1.53,0.49l3.95 0c0.99,0 1.47,-0.67 1.47,-1.65 0,-0.94 -2.55,-3.28 -3.12,-4.14l2.54 -0.94c0.17,-0.08 0.34,0 0.32,-0.4 0,-0.05 -0.03,-0.22 -0.04,-0.28 -0.04,-0.25 -0.07,-0.29 -0.07,-0.67 -0.56,0.01 -3.41,1.26 -4.32,1.47z"/>
   <path class="fil3" d="M110.19 95.98c0,-0.86 -0.16,-1.47 0.82,-1.47 1.04,0 0.83,1.4 0.83,2.21 -0.48,0 -1.65,-0.11 -1.65,-0.74zm-1.56 4.87c1.11,0 2.13,0.09 2.91,-0.3 0.7,-0.36 1.27,-0.99 1.51,-1.8 0.36,-1.21 -0.65,-0.71 2.47,-0.83 1.9,-0.08 1.56,-2.58 1.56,-3.68l-1.2 0c0,2.83 0.18,2.48 -2.75,2.48 0,-1.6 -0.04,-3.49 -2.21,-3.49 -1.34,0 -1.96,0.72 -2.03,2.02 -0.08,1.71 0.41,2.57 2.32,2.66 0.44,0.01 0.64,-0.12 0.59,0.31 -0.05,0.52 -0.54,0.98 -0.88,1.16 -1.06,0.56 -2.48,-0.29 -2.45,0.51 0.01,0.22 0.11,0.79 0.16,0.96z"/>
   <path class="fil3" d="M94.11 110.04c0,0.39 0.03,0.56 0.11,0.9 0.2,0.84 1.09,1.21 2,1.21 2.73,0 3.98,0.3 6.1,-0.89l1.8 -1.04c0.37,-0.17 0.55,-0.16 0.55,-0.55 0,-2.73 -2.9,-2.2 -5.23,-2.2 0,0.55 0.09,0.73 0.09,1.19 1.55,0 3.27,-0.29 3.77,0.64 -3.98,2.11 -2.79,1.47 -7.72,1.47 -0.36,-0.75 -0.18,-4.79 -0.18,-5.88l-1.29 0 0 5.15z"/>
   <path class="fil3" d="M45.42 110.04c0,0.79 -0.06,0.9 0.09,1.56 1.95,0 2.57,-0.2 2.57,0.92 0,1.54 -2.4,1.29 -3.3,1.29 -0.86,0 -1.56,-0.63 -1.65,-1.39 -0.28,-2.49 0.72,-2.84 -0.93,-2.84 -0.21,0 -0.27,0.06 -0.27,0.28 0,1.85 -0.27,3.19 0.85,4.38 0.95,1.02 2.15,0.85 3.56,0.85 3.03,0 3.69,-3.48 2.43,-4.36 -0.48,-0.33 -1.41,-0.32 -2.06,-0.32 0,-1.99 0.2,-1.75 2.29,-1.75 0,-1.45 0.28,-1.19 -1.47,-1.19 -1.49,0 -2.11,1.06 -2.11,2.57z"/>
   <path class="fil3" d="M87.86 95.25l0 2.11c0.87,0 2.67,-0.19 2.67,0.74 0,0.52 -0.25,0.88 -0.55,1.1 -0.91,0.68 -3.21,0.63 -3.98,-0.07 -0.83,-0.75 -0.22,-2.43 -0.43,-3.42 -0.08,-0.39 -0.23,-0.28 -0.73,-0.3 -0.72,-0.04 -0.56,0.01 -0.56,1.86 0,1.92 0.84,3.58 2.94,3.58 1.58,0 3.23,0.22 4.13,-1.38 0.45,-0.79 0.75,-2.47 -0.36,-3.03 -0.56,-0.29 -1.24,-0.27 -1.93,-0.27 0,-2.04 0.7,-1.75 2.39,-1.75 0,-1.43 0.24,-1.19 -1.29,-1.19 -0.77,0 -1.16,0.14 -1.59,0.52 -0.37,0.34 -0.71,0.83 -0.71,1.5z"/>
   <path class="fil3" d="M77.85 109.58c0,2.54 -0.33,1.98 1.57,2.02 1.94,0.03 1.09,2.21 -0.65,2.21 -1.04,0 -2.11,0.15 -2.77,-0.45 -0.77,-0.68 -0.54,-2.49 -0.54,-3.78l-1.1 0c0,2.31 -0.35,3.49 0.94,4.76 0.93,0.91 1.99,0.75 3.38,0.75 2.89,0 3.52,-2.9 2.81,-4.01 -0.27,-0.42 -0.61,-0.53 -1.21,-0.63 -0.94,-0.14 -1.31,0.27 -1.18,-0.62 0.09,-0.64 0.11,-1.07 0.68,-1.16 1.05,-0.17 1.98,0.6 1.56,-1.2 -0.92,0 -1.9,-0.09 -2.49,0.26 -0.61,0.36 -1,1.06 -1,1.85z"/>
   <path class="fil3" d="M59.38 95.98c0,-0.74 -0.14,-1.47 0.83,-1.47 0.96,0 0.83,1.14 0.83,1.93 0,0.57 -1.66,0.16 -1.66,-0.46zm-1.28 -0.92c0,1.59 0.05,2.8 2.39,2.85 0.4,0.01 0.44,-0.08 0.5,0.17 0.07,0.3 -0.26,1.49 -1.97,1.49 -1.29,0 -1.58,-0.36 -1.2,1.28 1.46,0 2.53,0.09 3.33,-0.62 0.83,-0.73 1.17,-1.27 1.17,-2.78 0,-2.3 0.06,-4.22 -2.29,-4.22 -1.23,0 -1.93,0.87 -1.93,1.83z"/>
   <path class="fil3" d="M66.44 93.11l2.53 2.76c0.16,0.21 0.07,0.03 0.14,0.22 0.35,0.88 -1.4,0.63 -1.92,0.63 -0.76,0 -1.53,0 -2.29,0 0.02,0.31 0.11,0.9 0.18,1.19 1.21,0 3.94,0.18 4.69,-0.27 0.69,-0.43 0.64,-0.96 0.64,-1.57 0,-0.74 -1.02,-1.46 -1.42,-1.98 -0.25,-0.32 -0.56,-0.59 -0.86,-0.89 -0.3,-0.3 -0.57,-0.63 -0.85,-0.89l-0.84 0.8z"/>
   <path class="fil3" d="M69.21 100.85c1.74,0 3.03,0.14 3.96,-1.74 0.45,-0.91 0.27,-3.57 0.27,-4.87 -1.62,0 -1.29,-0.39 -1.29,2.39 0,0.9 0.13,1.84 -0.34,2.32 -0.81,0.82 -2.11,0.55 -2.7,0.61 -0.34,0.04 -0.33,0.02 -0.32,0.31 0.02,0.38 0.08,0.98 0.42,0.98z"/>
   <path class="fil2" d="M50.59 69.97c0.15,0.22 0.29,0.36 0.47,0.54 0.24,0.24 0.35,0.21 0.52,0.5 -0.58,-0.05 -0.87,-0.33 -1.38,-0.48 0.01,0.03 0.04,0.06 0.05,0.08 0.01,0.02 0.03,0.05 0.04,0.08l0.08 0.2c-0.69,0.36 -0.76,0.05 -1.13,0.32l-0.18 0.11c0.11,0.29 0.56,0.91 0.87,0.98 0.21,0.04 0.88,0.01 1.26,-0.21 0.02,0 0.04,-0.02 0.05,-0.03 0.19,-0.11 -0.08,0 0.15,-0.09 0.07,-0.17 -0.01,-0.24 0,-0.27l0.59 -0.29c0.54,-0.38 0.31,-0.36 1.21,-0.72 -0.16,-0.51 -0.12,-0.25 -0.68,-0.81 -0.33,-0.33 -0.43,-0.49 -0.82,-0.65l0.15 0.38c-0.88,0.02 -0.63,0.05 -1.25,0.36z"/>
   <path class="fil1" d="M50.59 69.97c0.62,-0.31 0.37,-0.34 1.25,-0.36l-0.15 -0.38 -3.14 -3.37c0,1.61 1.46,3.27 2.04,4.11z"/>
   <path class="fil4" d="M49.06 71.32l0.18 -0.11c0.37,-0.27 0.44,0.04 1.13,-0.32l-0.08 -0.2c-0.01,-0.03 -0.03,-0.06 -0.04,-0.08 -0.01,-0.02 -0.04,-0.05 -0.05,-0.08 -0.13,-0.14 -1.7,-1.31 -2.57,-2.3 -0.29,-0.33 -0.48,-0.56 -0.81,-0.88 0.01,0.97 1.8,3.58 2.24,3.97z"/>
   <path class="fil2" d="M46.67 72.43c0.23,0.73 0.74,1.23 1.02,1.82 1,-0.03 0.9,-0.02 1.4,-0.4l0.34 -0.24c0.02,-0.01 0.04,-0.02 0.06,-0.04l-1.63 -1.77 0.23 0.49c-0.47,0.12 -0.81,0.06 -1.02,0.18 -0.01,0.01 -0.04,0.03 -0.05,0.05 -0.02,0.01 -0.04,0.04 -0.05,0.05l-0.1 0.11c-0.09,-0.44 0,-0.12 -0.2,-0.25z"/>
   <path class="fil4" d="M46.67 72.43c0.2,0.13 0.11,-0.19 0.2,0.25l0.1 -0.11c0.01,-0.01 0.03,-0.04 0.05,-0.05 0.01,-0.02 0.04,-0.04 0.05,-0.05 0.21,-0.12 0.55,-0.06 1.02,-0.18l-0.23 -0.49c-0.22,-0.3 -1.44,-1.97 -1.85,-1.98 -0.08,1.23 0.35,1.71 0.66,2.61z"/>
   <path class="fil3" d="M90.89 105.26c0,1.1 1.66,0.98 1.66,0.09 0,-0.49 -0.34,-0.73 -0.83,-0.73 -0.42,0 -0.83,0.23 -0.83,0.64z"/>
   <path class="fil3" d="M88.69 105.35c0,0.94 1.65,0.92 1.65,0 0,-0.99 -1.65,-0.99 -1.65,0z"/>
   <path class="fil3" d="M116.16 92.22c0,0.84 0.23,0.92 1.01,0.92 0.49,0 1.3,-1.38 -0.37,-1.38 -0.31,0 -0.64,0.16 -0.64,0.46z"/>
   <path class="fil3" d="M101 114.08c0,0.8 1.65,1.01 1.65,0 0,-1.12 -1.65,-0.83 -1.65,0z"/>
   <path class="fil3" d="M113.86 92.4c0,0.87 1.66,1.12 1.66,0 0,-0.99 -1.66,-0.77 -1.66,0z"/>
   <path class="fil3" d="M99.9 115.64l0.09 0.55c1.66,0.8 2.17,-1.19 0.55,-1.19 -0.43,0 -0.64,0.21 -0.64,0.64z"/>
   <path class="fil3" d="M98.89 113.9c0,0.9 0.2,0.82 1.1,0.82 0.62,0 0.74,-1.37 -0.37,-1.37 -0.33,0 -0.73,0.25 -0.73,0.55z"/>
   <path class="fil3" d="M102.01 100.76c0.57,0 1.01,0.03 1.01,-0.83 0,-0.64 -1.47,-0.83 -1.62,0.04 -0.05,0.31 0.31,0.79 0.61,0.79z"/>
   <path class="fil3" d="M99.25 99.84c0,0.84 0.24,0.92 1.02,0.92 0.65,0 0.89,-1.38 -0.19,-1.38 -0.37,0 -0.83,0.1 -0.83,0.46z"/>
  </g>
 </g>
</svg>
