<?xml version="1.0" encoding="UTF-8"?>
<!DOCTYPE svg PUBLIC "-//W3C//DTD SVG 1.1//EN" "http://www.w3.org/Graphics/SVG/1.1/DTD/svg11.dtd">
<!-- Creator: CorelDRAW 2020 (64-Bit) -->
<svg xmlns="http://www.w3.org/2000/svg" xml:space="preserve" width="140px" height="140px" version="1.1" style="shape-rendering:geometricPrecision; text-rendering:geometricPrecision; image-rendering:optimizeQuality; fill-rule:evenodd; clip-rule:evenodd"
viewBox="0 0 140 140"
 xmlns:xlink="http://www.w3.org/1999/xlink"
 xmlns:xodm="http://www.corel.com/coreldraw/odm/2003">
 <defs>
  <style type="text/css">
   <![CDATA[
    .fil6 {fill:#333333}
    .fil0 {fill:#343434}
    .fil3 {fill:#373737}
    .fil4 {fill:#393939}
    .fil13 {fill:#3A3A3A}
    .fil1 {fill:#3D3D3D}
    .fil2 {fill:#414242}
    .fil5 {fill:#434343}
    .fil10 {fill:#4A4A4A}
    .fil14 {fill:#4B4B4B}
    .fil15 {fill:#4F4F4F}
    .fil12 {fill:#525253}
    .fil11 {fill:#5A5A5A}
    .fil9 {fill:#5B5B5B}
    .fil8 {fill:#626262}
    .fil7 {fill:#6A6A6A}
   ]]>
  </style>
 </defs>
 <g id="Layer_x0020_1">
  <metadata id="CorelCorpID_0Corel-Layer"/>
  <g id="_2738999874480">
   <path class="fil0" d="M68.15 78.34c0,-0.68 1.14,-1.77 1.68,-1.77 0.59,0 1.48,0.71 1.48,1.86 0,0.54 -1.02,0.41 -1.54,0.33 -0.6,-0.09 -1.62,0.13 -1.62,-0.42zm-0.37 -27.42c0,-1.66 -0.21,-1.84 0.49,-2.59 1.24,-1.33 2.39,0.39 2.39,1.01l0 12.36c0.01,0.78 -0.09,1.22 -0.09,2.04 0,0.87 0.1,5.7 -0.1,6.32 -0.55,1.72 -2.12,1.23 -2.52,-0.17 -0.18,-0.63 -0.07,-7.12 -0.07,-8.1 0,-1 -0.1,-1.63 -0.1,-2.6l0 -8.27zm-0.56 -10.04c0.61,-0.7 1.17,-1.43 1.96,-1.95 0.52,0.34 1.63,1.47 1.95,1.95 -0.15,0.57 -1.59,1.97 -1.97,2.01 -0.58,0.07 -1.64,-1.45 -1.94,-2.01zm-7.71 -0.84c0.29,-0.39 1.24,-0.46 1.95,-0.46 0.31,-0.65 0.06,-1.03 0.75,-1.49 0,1.5 0.51,1.89 0.93,2.51 -0.29,0.43 -0.84,0.6 -1.42,1.28 -0.27,0.33 -0.09,0.35 -0.54,0.39 0,-0.57 0.09,-0.88 0.1,-1.3 -0.5,-0.04 -1.51,-0.57 -1.77,-0.93zm17.2 1.86c-0.27,-0.18 -0.72,-0.83 -1.13,-1.29l-0.64 -0.66c0.19,-0.26 0.42,-0.26 0.81,-0.96 0.3,-0.55 0.2,-1.04 0.4,-1.46 0.49,0.36 0.56,1 0.56,1.58 0.83,0 1.41,0.27 1.95,0.56 -0.26,0.39 -0.88,0.61 -1.4,0.74 -0.59,0.15 -0.51,0.02 -0.48,0.47 0.03,0.58 -0.06,0.56 -0.07,1.02zm-9.11 -12.18c0.4,0.11 0.56,0.56 1.17,0.5 0.48,-0.04 0.86,-0.38 0.96,-0.77 1.11,0.74 1.01,3.19 0.35,4.52 -0.13,0.25 -0.31,0.53 -0.51,0.71 -0.75,0.7 -1.24,0.46 -2,-0.38 -0.39,-0.44 -0.45,-0.83 -0.61,-1.43 -0.18,-0.68 -0.01,-0.94 0.13,-1.61 0.24,-1.07 0.41,-1.11 0.51,-1.54zm1.3 -1.67c-0.18,-0.04 -0.24,-0.06 -0.42,-0.14 -0.45,-0.2 -0.33,-0.07 -0.33,-1.62 0,-1.68 0.2,-3.28 0.19,-4.38 -0.01,-0.67 -0.09,-1 0.56,-1.02 0.1,0.4 0.18,0.17 0.18,0.47 0,1.3 0.03,2.82 -0.1,4.08 -0.09,0.79 -0.08,1.68 -0.08,2.61zm-4.56 3.53c0,1.73 0.55,2.94 1.58,4.28 0.26,0.33 0.61,0.68 0.84,1.02 -0.15,0.63 -0.72,1.67 -1.49,1.67 -0.3,0 -0.99,-0.91 -1.18,-1.14 -1.84,-2.17 -1.31,-4.07 -1.61,-5.36 -0.58,-0.14 -0.85,-0.01 -1.31,0.36 -2.26,1.79 -1.57,2.81 -1.57,5.31 -0.48,0 -0.93,0.06 -1.28,0.2 -0.09,0.03 -0.37,0.18 -0.5,0.25 -0.76,0.42 -1.45,1.06 -1.93,1.78 0.65,1.23 1.76,2.08 2.95,2.72 0.23,0.12 0.36,0.15 0.58,0.25 0,1.28 0.23,1.9 0.7,2.74 0.88,1.56 2.27,2.69 2.27,0.52 0,-0.47 -0.08,-0.42 -0.09,-0.84 0.66,-0.35 0.85,-0.43 1.38,-0.94 0.36,-0.35 0.78,-1.11 1.04,-1.29 0.31,0.23 0.04,-0.01 0.25,0.31 0.86,1.31 1.98,2.01 2.16,2.29 -0.43,0.64 -1.85,1.5 -2.17,2.29 -0.13,0.35 -0.15,6.73 -0.15,7.38 0,0.59 -0.1,0.77 -0.1,1.39 0.02,3.84 -0.19,7.63 -0.18,11.53 0,0.54 0.08,0.63 0.1,1.11 0.05,1.77 0.12,2.19 1.53,3.3 0.32,0.24 0.35,0.29 0.71,0.5 0.55,0.31 0.63,0.35 0.63,0.94 0,0.37 -0.58,0.65 -0.83,0.84 -1.56,1.2 -1.86,2.13 -1.86,4.09 0,0.24 0.18,1.23 0.25,1.42 0.3,0.8 1.24,1.28 1.98,1.55 0.82,0.31 0.68,0.1 1.49,0.1 1.51,0 0.43,2.23 1.48,2.23 0.3,0 0.49,-0.41 0.56,-0.65 0.45,-1.45 0.44,-1.79 2.14,-1.77 0.88,0.01 1.22,-0.08 1.7,-0.9 0.76,-1.26 0.7,-4.29 -0.23,-5.21l-2.03 -1.98c1.03,-1.94 1.49,-2.02 1.49,-5.11 0,-2.23 0,-4.46 0,-6.69 0,-2.26 0.09,-4.29 0.09,-6.6 0,-2.23 0,-4.46 0,-6.69 0,-0.24 -1.03,-1.72 -1.17,-1.9 -0.49,-0.63 -0.98,-0.97 -1.43,-1.63 0.5,-0.34 0.78,-0.87 1.19,-1.33 0.16,-0.17 0.16,-0.15 0.29,-0.35 0.24,-0.36 0.63,-0.78 0.75,-1.21 0.5,0.14 0.5,1.14 2.04,1.96 0,1.45 -0.35,2.69 0.93,2.69 0.52,0 1.38,-0.95 1.64,-1.34 0.35,-0.5 0.55,-1.02 0.62,-1.62l-0.03 -1.22c1.2,-0.03 4,-1.95 4,-3.07 0,-0.92 -3.05,-2.86 -4,-2.88 0.16,-0.68 1.39,-1.98 -0.3,-3.79 -0.17,-0.19 -0.46,-0.49 -0.66,-0.63 -1.38,-0.96 -1.55,-0.25 -1.89,1.01 -0.45,1.73 0.22,2.29 -0.84,2.78 -0.25,0.11 -0.5,0.27 -0.74,0.47 -0.13,0.11 -0.16,0.16 -0.29,0.27 -0.37,0.29 -0.54,0.64 -0.95,0.91 -0.68,-0.16 -1.09,-0.92 -1.39,-1.48 0.78,-1.17 2.32,-2.28 2.32,-4.84 0,-1.24 -0.53,-2.3 -1.2,-3.25 -0.56,-0.79 -1.43,-1.69 -2.23,-2.23 0,-0.64 0.09,-3.59 -0.05,-3.95 -0.14,-0.35 -0.65,-0.84 -0.85,-1.2 -0.24,-0.43 -0.55,-0.93 -0.59,-1.45 -0.34,0.09 -0.32,0.24 -0.47,0.56 -0.33,0.69 -0.86,1.26 -1.33,1.83 -0.29,0.35 -0.13,0.38 -0.08,0.78 0.13,1.01 0.04,2.05 0.02,3.06 -0.02,0.79 -0.12,0.96 -0.63,1.51 -1.06,1.12 -2.07,2.76 -2.07,4.34z"/>
   <path class="fil0" d="M87.02 87.17l-2.51 0c0.72,-1.07 2.48,-1.29 2.51,0zm11.06 -4.19c0.8,0 1.2,0.67 1.49,1.21l-2.6 0c0.12,-0.54 0.47,-1.21 1.11,-1.21zm-8.83 -0.37l0 2.6c-0.39,-0.26 -0.78,-0.76 -0.88,-1.35 -0.04,-0.26 0.03,-0.64 0.17,-0.85 0.18,-0.26 0.45,-0.27 0.71,-0.4zm9.48 -13.1c-0.22,-0.15 -0.09,-0.12 -0.37,-0.19l0 -7.53c0.6,0.29 0.98,0.04 1.7,1.28 0.41,0.73 0.63,1.58 0.63,2.62 0,0.33 -0.71,1.63 -0.89,2l-1.07 1.82zm-1.2 -14.32l0.46 0 0.09 14.32c0.2,0.13 0.32,0.17 0.47,0.37 -0.21,0.3 -0.27,0.21 -0.37,0.65 -0.36,-0.1 -0.89,-0.54 -1.1,-0.86 -0.25,-0.37 -0.11,-1.3 -0.11,-1.84 0,-0.64 -0.1,-1.1 -0.1,-1.86l-0.09 -7.9c0.01,-0.69 -0.09,-1.16 -0.09,-1.95l-14.22 0.09c-0.49,0 -0.72,-0.44 -1.04,-0.73l-4.59 -4.42c-0.47,-0.42 -1.61,-1.78 -2.09,-1.91l-0.24 3.11c-0.14,0.88 0.21,1 0.77,1.47l2.47 2.18c0.26,0.26 0.34,0.29 0.6,0.52 0.46,0.38 3.48,3.22 3.75,3.22 3.93,0 7.82,-0.18 11.71,-0.18 0,0.72 0.09,1.09 0.09,1.86l0 7.99c0,1.56 0.05,1.21 1.01,2.06 0.53,0.47 1.2,0.89 1.59,1.47 -0.25,0.95 -1.3,1.05 -1.3,3.07 0,1.51 2.14,1.68 2.14,2.97 0,0.42 0.04,0.71 -0.33,0.89 -0.25,0.12 -0.41,0.14 -0.66,0.26 -2.95,1.36 -1.71,4.81 -1.71,5.82 0,1.96 -2.57,2.51 -3.1,1.43 -0.19,-0.4 -0.05,-5.5 -0.06,-6.54 0,-1.13 0.42,-4.25 0.1,-4.92 -0.38,0.1 -0.57,0.41 -0.77,0.72 -0.2,0.33 -0.42,0.64 -0.6,0.98 -0.53,1.01 -0.77,0.81 -1.59,1.48 -0.58,0.48 -1.06,0.95 -1.33,1.73 -0.22,0.62 -0.52,1.79 -0.17,2.52 -2.31,-0.54 -2.33,0.5 -3.98,2.62 -0.18,0.22 -0.21,0.28 -0.49,0.36 -0.33,-0.51 -0.16,-1.51 -0.06,-2.21 0.09,-0.69 0.06,-1.61 0.06,-2.44 -0.9,0.07 -2.69,2.4 -2.69,3.07l0 0.92c0,0.67 0.4,0.45 -0.8,0.6 -1.22,0.16 -1.64,0.18 -2.54,1 -0.33,0.3 -0.47,0.65 -0.47,1.1l2.51 -0.09c0.17,0.64 1.04,2.38 -0.07,3.37 -0.74,0.67 -2.32,0.66 -3.07,0.04 -0.37,-0.3 -0.64,-0.73 -0.79,-1.25 -0.52,-1.85 -0.27,-2.94 -0.63,-3.46 -0.54,0.14 -0.64,0.72 -0.82,1.22 -0.63,1.73 -0.86,1.49 0.17,3.61 0.51,1.05 1.81,2.08 1.91,2.28 0.19,0.42 0,0.55 0.39,1 0.24,0.27 0.45,0.48 0.78,0.61 0.3,0.12 0.83,0.26 1.2,0.29 -0.64,-1.2 -1.15,-1.66 0.28,-2.04 1.74,-0.47 3.67,-1.11 4.29,-2.96 0.42,-1.27 -0.07,-1.24 1.58,-1.05 0.81,0.09 1.77,0.05 2.59,0.01 0.94,-0.05 2.13,-0.28 3.06,-0.28 0.05,0.19 0.05,0.13 0.08,0.2 0,0.01 0.11,0.24 0.12,0.25 0.23,0.45 0.48,0.87 1,1.05l1.38 0.57c0.99,0.35 0.47,0.07 0.9,1.15 0.16,0.41 0.3,0.57 0.61,0.78 0.48,-0.32 0.56,-0.97 0.56,-1.77 0.55,-0.15 2.85,-1.69 3.25,-2.32 0.09,-0.15 0.23,-0.43 0.31,-0.62 0.12,-0.29 0.14,-0.54 0.24,-0.78 0.31,-0.73 1.41,-0.2 2.4,-1.42 1.12,-1.36 1.26,-4.93 -0.14,-6.21 -0.07,-0.06 -0.42,-0.32 -0.49,-0.36 -0.69,-0.36 -0.61,0.12 -0.85,-0.81 -0.55,-2.13 -1.31,-0.87 -2.46,-2.38 -0.99,-1.32 0.06,-2.53 0.62,-3.59 0.3,0.2 0.55,0.26 0.65,0.65 -2.25,0 -1.5,3.3 0.7,2.56 0.42,-0.15 0.18,0.02 0.49,-0.26 0.27,-0.23 0.49,-0.43 0.58,-0.82 0.32,0.09 0.55,0.37 0.81,0.59 0.16,0.13 0.22,0.23 0.37,0.37l0.75 0.65c0.18,0.16 0.23,0.16 0.41,0.32l1.92 1.71c0.19,0.15 0.22,0.15 0.41,0.34 0.3,0.29 0.5,0.42 0.79,0.69 0.28,0.28 0.55,0.4 0.76,0.72 -0.12,0.47 -1.17,1.31 -1.56,1.69l-0.14 0.14c-0.15,0.15 -0.02,0.03 -0.19,0.18 -0.72,0.59 -1.32,1.28 -2,1.92 -0.71,0.69 0.45,0.4 1.58,0.52 1.94,0.22 1.53,-0.09 3.56,-1.8l1.2 -1.04c0.36,-0.35 0.97,-1.1 1.46,-1.23 -0.1,-0.36 -1.25,-1.33 -1.62,-1.64l-5.99 -5.44c-0.01,-0.02 -0.03,-0.03 -0.05,-0.05 -0.01,-0.01 -0.03,-0.03 -0.05,-0.04l-1.11 -1.03c-0.43,-0.34 -1.79,-1.75 -2.15,-1.84 0.07,-0.26 0.36,-0.61 0.56,-0.75 0.26,0.18 0.44,0.4 0.67,0.63l2.17 1.93c1.49,1.25 2.88,2.63 4.38,3.89 0.49,0.41 0.95,0.92 1.45,1.33l2.12 1.88c0.01,0.01 0.03,0.03 0.05,0.04l0.78 0.71c-0.11,0.41 -1.51,1.53 -1.83,1.8l-2.56 2.36c-0.15,0.15 -0.2,0.19 -0.34,0.31 -0.2,0.17 -0.21,0.07 -0.29,0.37 0.41,0.2 0.5,-0.09 0.77,-0.35l0.33 -0.31c0.19,-0.19 0.12,-0.13 0.34,-0.31l1.85 -1.69c0.45,-0.42 2.07,-1.71 2.19,-2.18 -0.25,-0.38 -1.07,-1 -1.46,-1.32 -1.4,-1.18 -3.76,-3.52 -5.24,-4.7l-0.97 -0.9c-0.02,-0.01 -0.08,-0.06 -0.1,-0.08l-1.17 -1.06c-0.28,-0.26 -0.46,-0.35 -0.75,-0.65 -0.28,-0.29 -0.47,-0.38 -0.74,-0.65l-0.74 -0.65c-0.28,-0.24 -0.53,-0.48 -0.73,-0.77 0.24,-0.34 0.54,-0.7 0.82,-1.04l0.83 -1.02c0.53,-0.54 1.83,-1.19 2.63,-1.19 1.17,0 1.21,1.06 1.21,2.23 0.29,0.06 0.28,0.08 0.5,-0.14 0.84,-0.82 1.07,-2.43 0.31,-3.37 -0.25,-0.31 -0.75,-0.74 -1.17,-0.87 -0.22,-0.07 -0.63,-0.12 -0.87,-0.15 -1.14,-0.13 -0.09,-0.67 -0.91,-2.25 -1.15,-2.21 -3.04,-1.46 -3.24,-1.51 -0.29,-0.08 -0.33,-0.35 -0.13,-0.55 0.34,-0.34 1.36,-0.5 1.24,-1.06 -0.04,-0.2 0,-0.07 -0.06,-0.17 -0.13,-0.24 -0.07,-0.14 -0.28,-0.28 -1.35,-0.89 -1.35,0.38 -1.9,0.78 0,-1.34 0,-2.67 0.01,-4.01 0.01,-0.92 -0.28,-0.64 -1.4,-0.64 -0.7,0 -1.17,0.09 -1.95,0.09 -3.21,0 -7.91,-0.1 -11.07,0 -0.4,0.01 -0.61,0.14 -0.91,0.09 -0.32,-0.04 -0.4,-0.24 -0.6,-0.44l-1.62 -1.44c-1.22,-1.02 -4.2,-4.02 -5.26,-4.89 -0.18,-0.15 -0.54,-0.3 -0.37,0.1l2.1 2c1.51,1.29 3.43,3.27 4.82,4.38 0.86,0.69 0.4,0.77 2.31,0.67 0.41,-0.02 0.45,-0.09 0.93,-0.1 1.35,-0.02 2.73,0 4.09,0 1.41,0 2.54,-0.09 4,-0.09 1.36,0 2.72,0 4.09,0z"/>
   <path class="fil0" d="M39.43 81.59c0.13,0.46 1.23,1.36 1.64,1.8l0.72 0.76c0.02,0.02 0.04,0.04 0.05,0.05l1.94 1.96c0.26,0.27 0.34,0.44 0.6,0.7l4.42 4.51c0.28,0.3 0.29,0.43 0.67,0.63 0,2.18 -0.09,4.13 -0.09,6.23 0,2.18 -0.19,3.97 -0.19,6.13l0 2.51c0.5,0 0.94,0.09 1.58,0.09l4.93 0.1c1.08,0.05 2.26,-0.06 3.35,-0.01l4.11 0.17c0.58,0.07 0.46,-0.04 0.8,0.32l1.19 1.32c0.01,0.01 0.03,0.03 0.04,0.05l4.25 4.76c0.56,0.6 1.36,1.72 1.97,2.12 0.42,-0.11 0.76,-0.59 1.08,-0.87 0.09,-0.08 0.06,-0.05 0.15,-0.13l1.76 -1.58c0.74,-0.75 1.64,-1.34 2.37,-2.09 0.25,-0.25 0.36,-0.29 0.61,-0.51l4.13 -3.68c0.54,-0.53 1.57,-0.15 3,-0.15 1.37,-0.01 3.09,-0.09 4.41,0.02 1.6,0.13 5.11,-0.07 6.45,0.08 1.96,0.23 1.5,0.09 1.5,-2.15 0,-3.66 -0.09,-7.02 -0.09,-10.69 -0.2,0.14 -0.21,0.18 -0.39,0.35l-1.27 1.15c-0.74,0.6 -1.4,1.05 -1.3,1.83l0.17 6.15c-0.25,-0.1 -2.45,-0.02 -3.05,0.02l-5.78 0.26c-0.65,0 -1.3,0 -1.95,0 -0.79,0 -0.85,0.1 -1.67,0.1 -1.39,-0.01 -1.16,0.15 -2.03,0.85l-5.09 4.48c-0.23,0.19 -0.31,0.3 -0.54,0.48l-2.1 1.81 -1.43 -1.45c-0.01,-0.02 -0.03,-0.04 -0.05,-0.05l-4.96 -5.08c-1.62,-1.62 -0.72,-1.04 -4.44,-1.04 -0.62,0 -1.23,0 -1.85,0 -0.77,-0.01 -1.18,0.09 -1.86,0.09 -1.18,0 -2.56,-0.07 -3.72,0 -0.41,0.02 -0.43,0.11 -0.85,0.11 -0.74,-0.01 -0.45,-0.71 -0.45,-2.44l0 -10.22c0.01,-0.47 0.07,-0.5 -0.16,-0.77 -0.12,-0.15 -0.3,-0.31 -0.46,-0.47 -0.19,-0.22 -0.24,-0.31 -0.43,-0.5l-0.48 -0.45c-1.9,-2.03 -4.47,-4.29 -6.19,-6.26l-1.06 -1.09c-1,-0.97 -0.57,-0.76 -2.5,-0.52 -0.6,0.07 -0.94,0.09 -1.46,0.21z"/>
   <path class="fil0" d="M63.04 59c0,2.91 0.03,0.84 -0.91,2.9 -0.14,0.3 -0.07,0.16 -0.3,0.35 -0.05,0.04 -0.35,0.27 -0.37,0.29 -0.29,0.31 -0.17,0.56 -0.18,1.12 0,0.58 -0.12,0.53 -0.44,0.85 -0.78,0.75 -1.24,0.94 -1.24,1.65 0,0.55 1.4,0.66 1.73,1.71 0.22,0.71 0.2,4.18 0.22,5.08 0.02,0.55 0.1,0.98 0.1,1.67 0,1.04 0.25,2.46 -0.06,3.28 -0.47,1.19 -2.39,1.59 -2.36,-3.1 0.02,-2.59 -0.28,-4.6 -0.28,-6.78l0 -3.25c0,-1.1 0.25,-3.01 -0.09,-3.72 -0.47,0.04 -0.49,0.23 -0.76,1.01 -0.2,0.58 -0.17,0.89 -0.17,1.68 -2.15,1.14 -0.57,2.68 -1.48,2.93 -0.11,0.03 -0.52,-0.11 -1.06,0.39 -0.63,0.59 -0.82,2.26 -0.25,2.26 0.27,0 0.64,-0.56 1.02,-0.56 0.93,0 0.62,1.52 0.65,2.42 0.02,0.51 0.1,0.77 0.1,1.39 -0.02,3.32 0.35,3.36 -1.58,3.35 -0.87,-0.01 -1.36,0.09 -2.24,0.09 -0.51,0 -0.59,0.07 -1.01,0.09 -0.39,0.03 -0.82,-0.02 -1.21,0.01 -1.77,0.15 -11.34,0.17 -12.87,-0.06 -2.59,-0.39 -3.39,0.68 -4.45,-1.87l-0.47 -1.11c-0.17,-0.39 -0.34,-0.71 -0.34,-1.24l0.56 0.11c0,1.75 2.04,1.33 2.04,0.26 0,-0.9 -0.57,-1.39 -1.39,-1.39 -0.88,0 -0.73,0.49 -1.3,0.65 0.12,-0.53 0.3,-0.98 0.74,-1.31 0.07,-0.05 0.54,-0.37 0.63,-0.4 0.29,-0.1 0.45,0.05 0.77,0.13 0.43,-0.65 0.59,-0.64 2.01,0.21 0.28,0.16 0.44,0.27 0.59,0.53l0.37 0.84c0.5,0 0.37,0.08 0.61,-0.23 0.31,-0.41 0.45,-1.69 -0.29,-2.04 -0.05,-0.03 -0.69,-0.1 -0.69,-0.89 0,-0.69 2.69,-0.14 1.75,-3.61 -0.14,-0.52 -0.38,-0.87 -0.45,-1.13l-0.37 0c-0.06,0.26 -0.13,0.37 -0.23,0.7 -0.19,0.67 -0.6,1.22 -1.05,1.74 -1,1.14 -2.58,1.37 -4.18,3.25 -0.95,1.12 -1.05,2.19 -1.05,3.6 0,1.11 0.83,2.65 1.51,3.42 0.5,0.55 0.21,0.39 0.87,0.9 1.69,1.31 3.37,2.19 5.89,2.19 1.69,0 3.04,0.18 4.74,0.18l6.61 -0.09c0.5,0 0.55,-0.08 1.01,-0.1 0.69,-0.02 1.56,0.07 2.22,-0.01 0.52,-0.05 1.52,-0.17 2.06,-0.17 0,0.92 0.13,1.93 0.8,2.55 1.13,1.03 1.28,0.18 2.36,0.7 0.23,0.99 0.12,1.97 0.75,2.51 0.63,-0.14 0.93,-1.17 1.18,-1.97 0.39,-1.23 0.58,-1.13 1.17,-2.09 1.04,-1.69 0.81,-0.74 0.81,-3.84 0,-1.24 0.09,-2.3 0.09,-3.62l0 -5.58c0,-0.71 0.06,-1.19 0.09,-1.76 0.06,-1.09 0.12,-6.76 0,-7.25 -0.67,-0.06 -0.34,-0.21 -0.93,0.18z"/>
   <path class="fil0" d="M49.01 71.18c-0.32,0.08 -0.22,0.08 -0.45,0.3l-0.38 0.36c-0.3,0.27 -0.52,0.46 -0.82,0.76 -0.19,0.18 -0.23,0.18 -0.41,0.33l-1.2 1.13c0.48,0.23 1.15,0.22 1.69,0.37 0.53,0.13 0.45,0 1.23,-0.61l2.38 -1.81c1.08,-0.8 0.84,-0.65 0.84,-3.06l0 -8.27c0,-2.14 -0.75,-1.39 4.65,-1.4 1.45,0 5.03,0.33 6.04,0.09 0,-0.47 -0.1,-0.5 -0.1,-1.02l0 -1.49 -13.1 0c-0.44,0 -0.28,0.73 -0.28,1.49l0 5.58c0.01,0.66 -0.1,0.96 -0.09,1.67l0 5.58z"/>
   <path class="fil0" d="M80.14 74.8c0,-0.25 0.05,-0.25 0.1,-0.46 1.87,-0.44 1.37,1.58 0.83,1.58 -0.65,0 -0.93,-0.57 -0.93,-1.12zm-1.95 0.19c0,1.15 -0.2,2.32 0.92,2.71 0.55,0.19 1.37,0.17 2.15,0.17l0.26 0.3c-0.03,0.58 -0.35,0.97 -0.76,1.24 -1.01,0.69 -2.31,0.63 -3.19,-0.18l-0.58 -0.8c-0.24,-0.41 -0.41,-0.84 -0.55,-1.31 -0.12,-0.38 -0.24,-1.29 -0.66,-1.29 -0.81,0 -0.98,2.94 0.02,4.61 0.38,0.63 0.83,1.19 1.46,1.52 -0.04,0.19 -0.86,1.35 0.66,2.51 0.3,0.22 0.23,0.19 0.74,0.19 0.06,-0.28 0.18,-0.49 0.26,-0.77 0.11,-0.39 0.28,-1.42 0.47,-1.57 0.17,-0.12 1.13,-0.25 2.17,-0.9l0.85 -0.64c0.02,-0.02 0.14,-0.13 0.14,-0.13 0.02,-0.01 0.04,-0.03 0.05,-0.05 0.01,-0.01 0.03,-0.03 0.04,-0.04 0.02,-0.02 0.04,-0.04 0.05,-0.05 0.68,-0.73 1.23,-1.79 1.27,-2.83 0.04,-1.23 0.4,-4.27 -0.05,-5.34 -0.45,-1.06 -1.14,-0.32 -1.59,-1.01 -0.13,-0.19 -0.22,-0.38 -0.35,-0.59 -0.39,-0.66 -0.41,-0.85 -0.9,-0.86 -0.08,0.31 -0.34,0.6 -0.5,0.89 -0.12,0.22 -0.01,0.18 -0.23,0.33 -0.25,0.17 -0.25,0.01 -0.76,0.26 -1.29,0.65 -1.39,2.25 -1.39,3.63z"/>
   <path class="fil1" d="M47.89 92.28c0,2.04 0,4.09 0,6.13l-0.1 9.12c-0.01,0.96 0.35,0.64 2.43,0.64 2.14,0 3.97,0.09 6.13,0.09 1.92,0 4.3,-0.08 6.03,0.06 0.45,0.03 0.45,0.21 0.78,0.57 0.27,0.3 0.51,0.48 0.78,0.8l5.17 5.62c0.26,0.27 0.54,0.5 0.78,0.79 0.39,0.47 1.05,1.3 1.52,1.64 0.27,-0.06 0.32,-0.15 0.51,-0.32 0.07,-0.06 0.08,-0.07 0.15,-0.13 0.22,-0.18 0.36,-0.32 0.6,-0.52 0.24,-0.2 0.36,-0.32 0.58,-0.53l2.07 -1.83c0.13,-0.11 0.16,-0.14 0.29,-0.27l5.94 -5.31c0.91,-0.79 0.88,-0.47 2.87,-0.47l13.48 -0.1c0,-2.55 0.09,-4.8 0.09,-7.34 0,-0.72 0.09,-1.17 0.1,-1.76 0,-0.62 -0.02,-1.25 -0.01,-1.87 0.01,-0.59 0.1,-1.04 0.1,-1.76 0,-0.62 0,-1.24 0,-1.86l-0.38 0c0,2.5 -0.09,4.72 -0.09,7.16l-0.09 5.39c0,0.74 -0.09,1.09 -0.09,1.76l-15.43 0c-0.25,0 -3.58,3.06 -3.98,3.47l-3.87 3.46c-0.71,0.59 -2.14,2.05 -2.75,2.37 -0.38,-0.25 -0.77,-0.71 -1.07,-1.06l-4.73 -5.13c-0.66,-0.78 -1.45,-1.48 -2.12,-2.25 -1.1,-1.25 -0.6,-0.86 -3.23,-0.86 -0.68,0 -1.37,0 -2.05,0 -0.78,0.01 -1.25,-0.09 -1.95,-0.09 -2.84,0.01 -5.37,-0.09 -8.18,-0.09l0.09 -15.43c0,-0.26 -0.32,-0.46 -0.48,-0.63l-1.2 -1.22c-0.01,-0.01 -0.03,-0.04 -0.04,-0.05l-0.48 -0.54c-0.21,-0.21 -0.36,-0.35 -0.56,-0.56l-3.78 -4.03c-0.06,-0.05 -0.12,-0.13 -0.18,-0.19 -0.2,-0.22 -0.34,-0.35 -0.55,-0.56l-0.57 -0.64c-0.15,-0.18 -1.07,-1.16 -1.23,-1.2 -0.67,-0.13 0.69,1.1 0.81,1.25l0.13 0.15c0.12,0.15 0.13,0.16 0.26,0.3 0.9,0.95 1.86,1.86 2.71,2.86l3.16 3.35c0.23,0.27 1.36,1.54 1.63,1.62z"/>
   <path class="fil2" d="M44.82 73.59c0.46,-0.03 0.51,-0.28 0.73,-0.57l1.25 -1.35c1.78,-2.15 1.37,-0.81 1.37,-5.42l0 -8.08c0,-1 0.09,-1.63 0.09,-2.61 1.44,0 9.08,-0.09 10.08,0.06 0.6,0.09 2.06,0.03 2.85,0.04 0.49,0.01 0.62,0.09 0.83,-0.19 -0.18,-0.24 0.11,-0.2 -1.02,-0.19 -2.43,0.03 -5.72,0.06 -8.1,-0.03l-5.01 -0.06 -0.09 14.6c-0.04,0.34 -0.02,0.27 -0.54,0.85l-2.19 2.46c-0.21,0.25 -0.21,0.11 -0.25,0.49z"/>
   <path class="fil3" d="M63.97 101.48l0.28 0 0 0.37c-0.38,-0.1 -0.23,-0.01 -0.28,-0.37zm-6.04 0l0 0.18 -0.28 0c0.15,-0.21 0.02,-0.1 0.28,-0.18zm2.88 0.18c0.18,-0.24 0.23,-0.27 0.65,-0.27 -0.1,0.39 -0.13,0.27 -0.65,0.27zm-1.58 -0.09c0.06,-0.22 0.03,-0.36 0.2,-0.19 0.2,0.2 -0.04,0.12 -0.2,0.19zm0.75 -1.3c0,0.36 0.26,0.86 0.27,1.39l-0.46 0c0.27,-1.16 -0.57,-1.06 -0.82,-0.63 -0.11,0.19 -0.11,0.36 -0.11,0.63l-0.37 0c-0.01,-0.24 -0.11,-0.95 -0.19,-1.11 -0.47,0.13 -0.33,0.3 -0.58,0.62l-0.35 0.32c-0.24,0.31 -0.18,0.68 0.48,0.76 0.03,0.01 0.1,0.01 0.12,0.01 0.51,0.1 -0.02,0.24 0.8,0.24 0.46,0 0.13,-0.1 0.49,-0.13 0.48,-0.04 0.01,0.13 0.44,0.13 0.89,0 1.16,0.09 1.86,-0.28 0.4,0.28 0.08,0.28 0.83,0.28 0.32,0 0.05,-0.12 0.36,-0.11 0.37,0 0,0.11 0.48,0.11 0.44,0 -0.04,-0.13 0.37,-0.13 0.48,0 -0.22,0.13 0.56,0.13 0.47,0 0.87,-1.02 -0.19,-1.58 -0.36,0.19 -0.54,0.2 -0.56,0.74l-0.46 0 -0.1 -0.36 -0.27 -0.01c-0.1,0.42 -0.06,0.37 -0.56,0.37 0.14,-0.59 0.13,-0.18 0,-0.74 -0.86,-0.2 -0.67,-0.05 -1.3,0.37 0,-1.02 0.22,-0.71 -0.19,-1.48 -0.14,0.07 -0.55,0.27 -0.55,0.46z"/>
   <path class="fil3" d="M89.72 62.63c0.11,0.17 0.1,-0.21 0.07,0.18 -0.01,0.2 -0.01,0.09 -0.07,0.19l0 -0.37zm2.77 0l0.2 0c0,0.05 0,0.15 0,0.18 -0.05,0.16 -0.03,0.1 -0.09,0.19l-0.11 -0.37zm-1.19 0.09c-0.28,0.13 -0.26,0.09 -0.65,0.09 -0.05,-0.21 -0.07,-0.21 -0.1,-0.46l-0.18 0c-0.01,0.48 0.08,0.27 -0.19,0.46 -0.45,-0.33 -0.04,-0.44 -0.46,-0.83 -0.87,0.23 0.13,0.76 -0.75,0.83 0.11,-0.44 0.35,-0.95 -0.27,-1.11 -0.43,0.28 -0.35,0.64 -0.1,1.02 -1.74,1.17 0.44,3.34 0.56,1.86 -0.72,-0.06 -0.65,-0.46 -0.65,-1.02 0,-0.36 -0.03,-0.04 0.09,-0.28 0.16,0.06 0.24,0.05 0.28,0.56l1.62 -0.1c0,0 0.69,0.4 0.89,-0.37l0.19 0c0.03,0.4 -0.02,0.17 0.18,0.47 0.28,0 0.25,-0.04 0.4,-0.07 0.57,-0.11 0.72,0.39 0.72,-0.96 0,-0.45 -0.1,-0.65 -0.37,-0.83 -0.62,0.45 0.11,0.77 -0.65,0.83 0.06,-0.28 0.16,-0.53 0.18,-0.83 -0.69,-0.17 -0.48,-0.33 -1.02,-0.38 -0.05,0.22 -0.28,0.67 -0.24,0.85 0.16,0.71 0.31,-0.5 0.52,0.27z"/>
   <path class="fil0" d="M41.2 69.32c0,1.05 1.68,1.83 2.34,0.48 0.27,-0.54 0.12,-1 -0.24,-1.37 -0.76,-0.79 -2.1,-0.19 -2.1,0.89z"/>
   <path class="fil0" d="M62.02 83.35c0,0.71 0.63,1.25 1.21,1.27 0.74,0.01 1.85,-1 0.91,-2.08 -0.71,-0.81 -2.12,-0.23 -2.12,0.81z"/>
   <path class="fil0" d="M56.72 83.63c0,0.3 0.37,1.21 1.12,1.21 0.5,0 0.67,0.07 1.07,-0.42 1.02,-1.28 -0.7,-2.6 -1.75,-1.65 -0.19,0.16 -0.44,0.57 -0.44,0.86z"/>
   <path class="fil0" d="M43.8 68.95c0,0.51 0.47,1.21 1.4,1.21 1.3,0 1.46,-2.42 -0.1,-2.42 -0.88,0 -1.3,0.78 -1.3,1.21z"/>
   <path class="fil3" d="M75.78 63.65l0.02 0.03c0,0 -0.03,-0.02 -0.02,-0.03zm0 -0.09l-0.38 0c0.18,-0.11 -0.2,-0.11 0.19,-0.08 0.2,0.01 0.08,0.01 0.19,0.08zm1.67 -0.75c-0.41,-0.03 -0.38,-0.08 -0.47,-0.46l-0.18 0c-0.01,0.48 0.08,0.27 -0.19,0.46 -0.27,-0.19 -0.17,0.02 -0.18,-0.46 -0.31,0.22 -0.11,0.1 -0.28,0.46 -0.76,0 -1.02,0.18 -1.02,0.84 0,0.31 0.16,0.27 0.46,0.28 -0.28,0.4 -0.51,0.13 -0.84,-0.09l-0.18 -0.93c-0.07,0.86 -0.44,2.04 0.74,2.04 0.46,0 0.56,-0.61 0.56,-1.11l0.74 0c0.47,0 -0.12,-0.26 0.46,-0.09 0.29,0.09 -0.32,0.09 0.29,0.09 0.65,0 0.31,-1.85 0.27,-2.24 -0.58,0.43 -0.21,0.92 -0.18,1.21z"/>
   <path class="fil3" d="M86.09 67.18l0 -0.18 0.28 0c-0.2,0.29 -0.01,0.06 -0.28,0.18zm-0.93 0.84c0.82,0.39 0.55,0 1.03,0 0.29,0 0.17,0.17 0.52,0.13 0.51,-0.07 -0.08,-0.21 0.52,-0.06 0.32,0.07 0.16,0.21 0.54,0.03 0.48,-0.22 0.37,-0.64 0.37,-1.22 0,-0.37 -0.09,-0.48 -0.37,-0.55 -0.24,1.01 -0.2,0.2 0,0.92 -0.95,0 -0.21,-0.2 -0.84,-0.37 -0.03,0.34 -0.03,0.35 -0.37,0.37 0.26,-0.98 -0.38,-1.24 -0.66,-0.56 -0.16,0.4 0.04,0.33 -0.27,0.56 -0.19,-0.39 -0.09,-1.21 -0.09,-1.76 -0.45,0.12 -0.62,0.38 -0.53,0.98 0.09,0.55 0.04,1.03 0.15,1.53z"/>
   <path class="fil3" d="M83.4 68.11l-0.21 -0.17c0.26,0.05 0.13,-0.05 0.21,0.17zm-0.47 -0.28c0.1,-0.1 0.36,0.15 0.11,0.05 -0.01,0 -0.26,0.11 -0.11,-0.05zm0.47 0.28c1.44,0 1.39,-0.21 1.39,-0.93 -0.53,0 -0.63,0.13 -0.74,-0.28l0.74 0c-0.02,-0.9 -1.11,-0.99 -1.11,0.37 -0.81,0 -1.03,0.13 -1.3,0.66l0.31 0.33c0.01,0.01 0.04,0.02 0.06,0.04 -1.24,0 -0.6,-0.23 -0.93,-0.93 -0.49,0.32 -0.52,1.28 0.13,1.63 0.27,0.15 1.45,0.34 1.45,-0.89z"/>
   <path class="fil3" d="M61.65 96.83c0.1,-0.1 0.35,0.15 0.1,0.05 0,0 -0.26,0.11 -0.1,-0.05zm1.76 -0.37c0.3,0.2 0.37,0.19 0.19,0.56 -0.27,-0.19 -0.38,-0.21 -0.19,-0.56zm-1.11 0.28c-0.2,-0.86 -1.12,-0.82 -1.12,0.46 0,0.37 0.28,0.37 0.65,0.37 -0.22,0.33 -0.58,0.55 -1.02,0.66l0 0.27 1.21 0c0.09,-0.16 0.33,-0.77 0.43,-0.87 0.36,-0.33 0.68,-0.06 1.06,-0.06 0.68,0 0.63,-1.48 -0.19,-1.48 -0.96,0 -0.07,0.63 -1.02,0.65z"/>
   <path class="fil3" d="M91.67 67.27l-0.28 0 -0.1 -0.36c-0.33,0.08 -0.24,0 -0.27,0.36 -0.67,-0.01 -0.23,-0.14 -0.74,-0.27 -0.24,1.03 -0.1,0.28 0.09,1.11 -0.46,0.68 -0.72,0.47 -0.84,0.93 0.24,0.13 0.25,0.09 0.65,0.09 0.66,0 0.24,-1.22 1.15,-1.04 0.41,0.08 0.03,0.13 0.6,0.01 0.5,-0.11 0.87,-0.01 0.92,-0.68 0.06,-0.76 -0.6,0.25 -0.81,-0.52l0.75 0c-0.02,-0.59 -0.07,-0.19 -0.19,-0.65 -0.59,0 -0.93,0.05 -0.93,1.02z"/>
   <path class="fil3" d="M58.58 96.46l0 0.28 -0.37 0c-0.04,-0.43 0.1,-0.16 -0.19,-0.37 -0.4,0.76 -0.39,0.23 -0.93,0.09 -0.14,0.28 -0.25,0.31 -0.28,0.65 0.39,0.1 0.2,0.04 0.38,0.37 -0.4,0.21 -0.32,0.19 -0.84,0.19 -0.74,0 -0.44,-0.39 -0.65,-0.84 -0.45,0.17 -0.87,1.67 0.84,1.67 0.33,0 1,-0.25 1.02,-0.93 0.6,-0.01 0.25,-0.18 0.72,-0.07 0.03,0.01 0.03,0.05 0.3,0.07 0.22,-0.32 0.37,-0.35 0.37,-1.11 0,-0.36 0.03,-0.03 -0.09,-0.28 -0.21,0.06 -0.28,0.02 -0.28,0.28z"/>
   <path class="fil3" d="M80.24 66.81c0,0.3 0.08,0.07 0.18,0.46 -0.53,0 -0.36,0.08 -0.55,-0.27 -0.3,0.11 -0.14,-0.21 -0.19,0.27l-0.19 0c-0.07,-0.28 0.01,-0.2 -0.27,-0.27 -0.07,0.24 0,0.07 -0.1,0.27 -0.2,-0.14 -0.11,-0.01 -0.18,-0.27 -0.28,0.07 -0.21,-0.01 -0.28,0.27 -0.53,-0.01 -0.31,-0.04 -0.65,-0.27l-0.29 0.55c0.27,0.4 0.29,0.11 0.29,0.75 -0.3,0.08 -0.23,0.09 -0.46,0.29 -0.34,0.31 -0.24,0.03 -0.29,0.45 0.94,0.52 1.12,-0.74 1.12,-0.75 0.21,-0.37 0.75,-0.22 1.04,-0.19 0.01,0 0.04,0.01 0.05,0.01l0.3 -0.03c0.39,0.01 1.03,0.45 1.03,-0.99 0,-0.34 -0.08,-0.52 -0.19,-0.74 -0.16,0.1 -0.37,0.2 -0.37,0.46z"/>
   <path class="fil3" d="M82.47 63.65l-0.09 -0.09 0.09 0.09zm-0.09 -0.09l-0.38 0c0.18,-0.11 -0.2,-0.11 0.19,-0.08 0.2,0.01 0.08,0.01 0.19,0.08zm0.09 0.09c0.35,0.23 0.23,0.08 0.56,0.09 0.01,0.01 0.04,0.01 0.05,0.01 0.01,0 0.04,0.01 0.05,0.01l0.19 0c0.07,0 0.32,0.33 0.51,-0.7 0.08,-0.48 0.02,-0.64 -0.06,-0.99 -0.22,0.25 -0.19,0.35 -0.19,0.74 -0.27,-0.19 -0.17,0.02 -0.18,-0.46 -0.29,0.21 -0.15,-0.06 -0.19,0.37 -0.28,-0.21 -0.15,0.06 -0.18,-0.37 -0.27,0.2 -0.18,-0.01 -0.19,0.46 -0.84,0 -1.02,0.18 -1.02,1.03 0.24,0.11 0.1,0.08 0.46,0.09l-0.56 0.18c-0.35,-0.4 -0.25,-0.17 -0.27,-1.2l-0.19 0c-0.26,1.13 -0.2,1.31 0.19,2.04l0.74 0c0.39,-0.59 0.34,-0.57 0.28,-1.3z"/>
   <path class="fil0" d="M68.15 101.66l0 -0.27 -0.27 0 0 0.27c-0.67,-0.01 -0.23,-0.14 -0.75,-0.27 -0.07,0.28 -0.12,0.26 -0.18,0.55 0.2,0.31 0.24,0.13 0.27,0.56 -0.82,0.07 -1.3,0.41 -1.3,-0.65l-0.28 0c-0.04,0.49 -0.47,1.58 0.93,1.58 0.46,0 0.97,-0.3 1.03,-0.93 1.2,-0.03 1.32,0 1.21,-1.39 -0.91,0.24 0.23,0.53 -0.66,0.55z"/>
   <path class="fil1" d="M85.26 62.91l0.02 0.02c0,0 -0.03,-0.01 -0.02,-0.02zm0.93 -0.28l0.18 0 0 0.37c-0.3,-0.22 -0.13,0.07 -0.18,-0.37zm-0.38 0.18c-0.4,-0.29 0.02,-0.39 -0.46,-0.74 -0.3,0.22 -0.28,0.4 -0.34,0.88 -0.09,0.71 0.07,0.81 0.34,0.89 -0.07,0.78 -0.5,0.46 -0.56,1.11 0.89,0.5 0.86,-0.72 0.87,-0.8 0.17,-0.76 0.25,-0.35 0.71,-0.31 0.26,-0.49 0.39,-1.69 -0.28,-1.86 -0.3,0.46 -0.08,0.42 -0.28,0.83z"/>
   <path class="fil3" d="M54.21 102.5c0.21,-0.02 0.25,0.08 0.53,-0.4 0.14,-0.25 0.24,-0.44 0.31,-0.71 0.4,0.29 0.23,0.95 0.84,1.11 0.07,-0.95 0.35,-0.44 -0.13,-1.36 -0.2,-0.39 -0.42,-0.99 -0.43,-1.52l-0.37 0c-0.03,1.04 -0.74,1.82 -0.8,2 -0.1,0.31 0.05,0.45 0.05,0.88z"/>
   <path class="fil0" d="M73.82 101.11c0.12,0.45 0.16,0.1 0.28,0.55 -1.13,0 -0.43,-0.22 -1.11,-0.27 -0.07,0.85 -0.37,0.2 0.18,1.02 -0.2,0.31 -0.62,0.64 -1.02,0.74l0 0.28 1.02 0c0.19,-0.28 0.36,-0.46 0.38,-0.93 1,0 0.92,-0.12 0.92,-1.21 0,-0.28 -0.08,-0.37 -0.18,-0.55l-0.43 0.31c-0.01,0.01 -0.02,0.04 -0.04,0.06z"/>
   <path class="fil3" d="M75.03 67.18l0 0zm0 0l0 0zm-0.46 0.56c0.27,0.07 0.12,0.06 0.2,0.08 0.37,0.13 0.3,0.01 0.57,0.18 0.72,0.44 1.09,-0.01 1.07,-0.81 0,-0.03 -0.06,-0.42 -0.08,-0.47 -0.08,-0.28 -0.02,-0.13 -0.18,-0.37 -0.1,0.07 -0.3,0.27 -0.33,0.41 -0.09,0.39 0.02,0.07 0.14,0.51 -0.33,0 -0.53,0.18 -0.56,-1.11 -0.37,0.1 -0.35,0.36 -0.55,0.66 -0.27,0.42 -0.28,0.22 -0.28,0.92z"/>
   <path class="fil4" d="M64.16 95.25c0.38,-0.09 0.43,-0.09 0.93,-0.09 -0.15,0.19 -0.27,0.24 -0.47,0.37 0,0.57 0,1.65 0.19,2.04 0.73,-0.19 0.66,-1.97 0.56,-2.41 0.46,-0.13 0.49,-0.23 0.55,-0.47 -0.41,0 -0.44,0.09 -0.72,0.07 -0.19,-0.01 -0.48,-0.14 -0.76,-0.16 -0.24,0.35 -0.27,0.12 -0.28,0.65z"/>
   <path class="fil3" d="M53.56 96.83c0.1,-0.1 0.35,0.15 0.11,0.05 -0.01,0 -0.26,0.11 -0.11,-0.05zm-0.37 -0.18c0,0.98 -0.08,0.92 0.56,0.92 -0.14,0.51 -0.71,0.42 -1.02,0.84 0.27,0.15 0.54,0.09 1.02,0.09 0.66,0 0.89,-2.32 -0.1,-2.32 -0.21,0 -0.46,0.25 -0.46,0.47z"/>
   <path class="fil0" d="M71.31 101.76c0.1,-0.1 0.36,0.15 0.11,0.05 0,-0.01 -0.26,0.1 -0.11,-0.05zm-0.46 0.28c0,0.21 0.03,0.1 0.09,0.37 0.26,0.12 0.18,0.09 0.56,0.09l0 0.19c-0.38,0.1 -0.39,0.34 -0.93,0.46l0 0.28 1.12 0c0.08,-0.32 0.08,-0.13 0.18,-0.46 0.14,-0.43 0.18,-1.38 -0.17,-1.78 -0.01,-0.02 -0.03,-0.04 -0.05,-0.05 -0.01,-0.01 -0.03,-0.03 -0.05,-0.04l-0.1 -0.09c-0.34,0.19 -0.65,0.34 -0.65,1.03z"/>
   <path class="fil3" d="M71.59 96.27c0.3,0.08 0.5,0.24 0.65,0.47 -0.55,0 -0.72,0.14 -0.83,-0.28l-0.28 0c-0.03,0.36 -0.45,1.11 0.93,1.11 0.6,0 1.18,-1.19 -0.09,-2.04 -0.3,0.19 -0.37,0.27 -0.38,0.74z"/>
   <path class="fil3" d="M78.84 62.16c0,0.34 0.09,0.22 0.1,0.65 -0.55,-0.04 -0.21,-0.23 -0.56,-0.37 -0.28,1.18 -0.01,0.62 0.05,1.24 0.05,0.52 -1.23,1.36 -0.24,1.36 0.46,0 0.47,-0.76 0.47,-1.11 0.27,-0.13 0.41,-0.06 0.52,-0.41 0.16,-0.52 0.15,-1.39 -0.06,-1.82 -0.14,0.06 -0.28,0.15 -0.28,0.46z"/>
   <path class="fil3" d="M67.13 96.55c0.25,0.02 0.25,0.05 0.47,0.1l0 0.18 -0.47 0 0 -0.28zm-0.46 0.28l0 0.47c1.21,0.81 1.78,-0.43 1.25,-1.07 -0.01,-0.02 -0.03,-0.03 -0.04,-0.05 -0.36,-0.37 -0.51,-0.28 -0.93,-0.28 -0.1,0.38 -0.28,0.37 -0.28,0.93z"/>
   <path class="fil1" d="M79.96 62.91c0,0.93 -0.07,0.89 0.37,0.93 -0.15,0.63 -0.56,0.63 -0.56,1.11 0.23,0.13 0.2,0.09 0.56,0.09 0.45,-0.85 0.3,-2.06 0.09,-2.97l-0.28 0c-0.07,0.33 -0.18,0.44 -0.18,0.84z"/>
   <path class="fil0" d="M70.66 97.57c0.09,-0.37 0.3,-0.74 0.25,-1.16 -0.05,-0.42 -0.01,-1.13 -0.15,-1.44 -0.97,0.26 -0.68,1.24 -0.48,1.97 0.12,0.44 0.02,0.54 0.38,0.63z"/>
   <path class="fil3" d="M59.88 97.02c0,0.06 0.3,0.34 0.37,0.46 -0.36,0.55 -0.92,0.51 -1.2,0.93 0.3,0.17 0.84,0.09 1.2,0.09 0.45,-0.67 0.77,-1.56 -0.09,-2.13 -0.07,0.13 -0.28,0.49 -0.28,0.65z"/>
   <path class="fil3" d="M69.08 96.92c0,0.42 0.27,0.05 0.28,0.75 -0.12,0.03 -0.92,0.45 -1.11,0.74 0.31,0.17 0.84,0.09 1.21,0.09 1.06,-1.59 -0.38,-2.71 -0.38,-1.58z"/>
   <path class="fil5" d="M86.65 60.86l0.47 0c-0.16,0.58 -0.19,-0.18 -0.19,1.3 0,0.53 0,1.06 0,1.58 0.14,-0.03 0.29,0.05 0.36,-0.65 0.04,-0.33 0.01,-0.78 0.01,-1.11 0,-0.24 -0.03,-0.83 0,-1.02 0.06,-0.33 0.63,-0.67 0.14,-0.68l-0.7 -0.07c-0.06,0.27 -0.09,0.28 -0.09,0.65z"/>
   <path class="fil0" d="M72.99 95.53l0.23 1.72c0.11,0.32 0.01,0.24 0.33,0.32 0.12,-0.54 0.27,-0.45 0.21,-1.13 -0.05,-0.5 0.04,-1.13 -0.12,-1.47 -0.4,0.11 -0.65,0.54 -0.65,0.56z"/>
   <path class="fil0" d="M69.64 101.94l0.17 0.2c0.11,0.13 0.11,0.14 0.2,0.27 -0.24,0.35 -0.54,0.63 -1.02,0.74l0 0.28 1.12 0c0.05,-0.21 0.7,-1.51 -0.1,-2.04 -0.25,0.18 -0.22,0.27 -0.37,0.55z"/>
   <path class="fil1" d="M84.33 63c0,0.63 0.28,0.48 0.03,1.05 -0.21,0.5 -0.46,0.44 -0.5,0.9 0.51,0.12 0.93,0.26 0.93,-1.21 0,-0.38 -0.11,-0.98 -0.18,-1.3l-0.19 0c-0.03,0.38 -0.09,0.21 -0.09,0.56z"/>
   <path class="fil3" d="M88.23 66.16c0.13,0.27 0.28,1.51 0.28,1.95 0.33,-0.09 0.24,-0.02 0.34,-0.4 0.13,-0.54 0.04,-1.78 -0.06,-2.2l-0.19 0c-0.1,0.43 -0.17,0.35 -0.37,0.65z"/>
   <path class="fil6" d="M76.52 66.16c0,0.49 0.21,1.17 0.28,1.95l0.28 -2.6c-0.41,0.11 -0.56,0.53 -0.56,0.65z"/>
   <path class="fil7" d="M57.65 95.62l0.2 0.27c0.59,-0.15 0.03,-0.15 0.64,0.01l0.17 -0.2c-0.5,-0.8 -0.42,-0.84 -0.76,-0.38l-0.25 0.3z"/>
   <path class="fil8" d="M73.73 102.87c0.06,0.12 0.06,0.09 0.14,0.23l0.08 0.13c0.13,0.28 0.05,0.26 0.43,0.29 0.12,-0.57 -0.01,-0.15 0.28,-0.55 -0.3,-0.45 -0.8,-0.22 -0.93,-0.1z"/>
   <path class="fil8" d="M67.69 100.74c0.57,0.11 0.06,-0.07 0.44,-0.03 0.35,0.05 -0.12,0.11 0.21,0.08 0.48,-0.04 -0.09,-0.8 -0.19,-0.8 -0.35,0 -0.17,0.14 -0.27,0.33l-0.17 0.25c-0.04,0.12 -0.01,0.03 -0.02,0.17z"/>
   <path class="fil7" d="M80.14 68.48c0.16,0.59 0.23,0.62 0.47,0.75l0.28 -0.75c-0.16,-0.07 -0.63,-0.13 -0.75,0z"/>
   <path class="fil8" d="M83.3 61.23l0.03 0.03c0,0 -0.03,-0.02 -0.03,-0.03zm-0.18 0.37l0.24 -0.01c0.01,0 0.03,0.01 0.04,0.02l0.18 0.09c0,-0.33 -0.08,-0.82 -0.18,-1.02 -0.27,0.17 -0.19,-0.05 -0.32,0.68l0.04 0.24z"/>
   <path class="fil9" d="M59.32 100.08l-0.46 0c0.05,0.58 0.2,0.33 0.54,0.33 0.18,0.01 0.09,0.18 0.3,-0.05 0.1,-0.11 0.09,-0.15 -0.01,-0.26 -0.18,-0.18 -0.11,-0.02 -0.37,-0.02z"/>
   <path class="fil10" d="M78.75 60.95c0,0.81 1.13,-0.2 0.26,-0.16 -0.18,0.01 -0.26,0.03 -0.26,0.16z"/>
   <path class="fil11" d="M76.05 61.42l0 0.18c0.36,0.2 0.56,0.14 0.56,-0.27 -0.32,-0.19 -0.56,-0.07 -0.56,0.09z"/>
   <path class="fil11" d="M86.74 66.16c0,0.42 0.15,0.19 0.28,0.19 0.18,0 0.37,0.17 0.37,-0.1 0,-0.42 -0.14,-0.18 -0.27,-0.18 -0.18,0 -0.38,-0.17 -0.38,0.09z"/>
   <path class="fil12" d="M90.83 68.76c0.33,0.19 0.56,0.09 0.75,0 -0.12,-0.43 -0.74,-0.33 -0.75,0z"/>
   <path class="fil8" d="M90.74 61.6l0 -0.37c-0.45,0.04 -0.16,0.09 -0.56,0 0.01,0.37 -0.08,0.34 0.16,0.43l0.4 -0.06z"/>
   <path class="fil11" d="M76.71 64.3l0 0.37c0.28,0.03 0.17,0 0.37,0.1l0.16 -0.21 -0.17 -0.35c-0.18,0.09 -0.1,0.06 -0.36,0.09z"/>
   <path class="fil2" d="M59.68 95.79c0.22,0.29 0.08,0.13 0.39,0.3 0.2,-0.3 0.15,-0.07 0.18,-0.47 -0.24,-0.06 -0.07,0.01 -0.27,-0.09l-0.3 0.26z"/>
   <path class="fil13" d="M62.58 100.83c0.32,-0.09 0.28,-0.05 0.37,-0.37 -0.25,-0.12 -0.1,-0.09 -0.47,-0.1 0.01,0.33 -0.01,0.25 0.1,0.47z"/>
   <path class="fil10" d="M92.04 65.79c0,0.35 -0.03,0.03 0.09,0.28 0.23,-0.03 0.31,0 0.34,-0.21 0.03,-0.19 -0.1,-0.23 -0.34,-0.26 0,0 -0.09,0.17 -0.09,0.19z"/>
   <path class="fil5" d="M86 65.79c0,0.35 -0.03,0.03 0.09,0.28 0.33,-0.09 0.21,-0.04 0.37,-0.28 -0.22,-0.15 -0.09,-0.12 -0.37,-0.19 0,0 -0.09,0.17 -0.09,0.19z"/>
   <path class="fil14" d="M87.58 65.97c0.18,-0.01 0.37,0.01 0.37,-0.18 0,-0.26 -0.04,-0.17 -0.18,-0.28 -0.26,0.19 -0.19,-0.01 -0.19,0.46z"/>
   <path class="fil15" d="M77.36 64.49c0,0.25 0.07,0.22 0.27,0.28l0 -0.56c-0.2,0.05 -0.27,0.02 -0.27,0.28z"/>
   <path class="fil12" d="M91.39 64.86c0.16,-0.11 0.19,-0.02 0.19,-0.28l0 -0.28 -0.28 0c0,0.28 0.04,0.34 0.09,0.56z"/>
   <path class="fil13" d="M75.96 65.97c0.08,-0.04 0.19,-0.06 0.19,-0.18 0,-0.26 -0.07,-0.23 -0.28,-0.28 -0.1,0.42 -0.21,0.24 0.09,0.46z"/>
   <path class="fil12" d="M84.23 61.6c0,0.26 0.08,0.23 0.28,0.28 0,-0.37 0.03,-0.3 -0.09,-0.55 -0.16,0.1 -0.19,0.01 -0.19,0.27z"/>
  </g>
 </g>
</svg>
