<?xml version="1.0" encoding="UTF-8"?>
<!DOCTYPE svg PUBLIC "-//W3C//DTD SVG 1.1//EN" "http://www.w3.org/Graphics/SVG/1.1/DTD/svg11.dtd">
<!-- Creator: CorelDRAW 2020 (64-Bit) -->
<svg xmlns="http://www.w3.org/2000/svg" xml:space="preserve" width="140px" height="140px" version="1.1" style="shape-rendering:geometricPrecision; text-rendering:geometricPrecision; image-rendering:optimizeQuality; fill-rule:evenodd; clip-rule:evenodd"
viewBox="0 0 140 140"
 xmlns:xlink="http://www.w3.org/1999/xlink"
 xmlns:xodm="http://www.corel.com/coreldraw/odm/2003">
 <defs>
  <style type="text/css">
   <![CDATA[
    .fil2 {fill:black}
    .fil0 {fill:#2F2F2F}
    .fil1 {fill:#9C9C9C}
   ]]>
  </style>
 </defs>
 <g id="Layer_x0020_1">
  <metadata id="CorelCorpID_0Corel-Layer"/>
  <g id="_2738084105776">
   <path class="fil0" d="M119.91 92.35l0 0zm-23.85 -10.3c0,1.66 -0.02,2.8 0.96,4.14 2.1,2.9 4.95,1.6 4.95,-0.47 0,-0.81 -0.54,-1.45 -1.16,-1.69 -0.92,-0.37 -1.4,0.11 -2.23,-0.62 -1.64,-1.44 -1.49,-4.07 0.16,-6.01 0.14,-0.17 0.18,-0.2 0.33,-0.38 0.16,-0.2 0.14,-0.21 0.32,-0.4 1.08,-1.13 2.85,-2.22 4.31,-2.93 0,2.85 -0.03,5.72 0,8.57 0.01,1.34 0.55,2.34 1.25,3.03 0.99,0.99 1.93,1.35 3.44,1.35 1.18,0 2.66,-0.86 3.17,-1.52 0.77,-1.03 1.13,-1.87 1.12,-3.68 -0.01,-1.56 -0.01,-3.12 -0.01,-4.69 0,-0.88 -0.12,-1.52 0.29,-2.06 0.32,-0.42 1.04,-0.79 1.75,-0.79 0.6,0 2.62,1.81 3.28,2.63 0.15,0.19 0.24,0.35 0.38,0.54 0.78,1.05 1.85,3.71 1.85,5.09 -0.34,-0.23 -0.68,-0.5 -1.23,-0.51 0.04,0.42 0.21,0.54 0.29,1.14 0.06,0.46 0,0.94 0.02,1.41 0.05,1.37 1.22,1.37 1.22,1.63 0,3.43 -2.51,7.41 -4.86,9.5 -2.05,1.82 -4.82,2.82 -7.46,3.35 -2.84,0.58 -5.53,0.28 -8.17,-0.52 -0.97,-0.29 -3.15,-1.29 -3.91,-1.79 -0.62,-0.41 -1.12,-0.73 -1.67,-1.19 -1.13,-0.92 -1.91,-1.75 -2.72,-2.99 -0.2,-0.31 -0.87,-1.61 -0.87,-1.98 0,-3.41 2.66,-2.77 3.35,-3.18 1.34,-0.8 1.06,-3.04 -0.8,-3.04 -2.8,0 -3.21,3.33 -3.57,4.89 -0.57,-0.41 -1.12,-3.14 -1.12,-3.87 0,-0.38 1.98,-1.7 2.36,-2.01l4.92 -3.87c1.11,-0.75 0.06,0.69 0.06,2.92zm10.39 2.04l0 -11.42c0.57,0 1.43,-0.2 2.76,-0.2 0.86,0 1.53,0.11 2.28,0.26 0.5,0.1 0.62,0.14 1.04,0.29 0.18,0.06 0.34,0.11 0.47,0.15 0.13,0.04 0.1,0.03 0.22,0.08l0.27 0.14c-0.93,0 -1.35,0.24 -1.92,0.63 -2.03,1.38 -1.65,3.6 -1.65,6.2 0,1.52 0.3,3.88 -0.43,4.77 -1.07,1.28 -3.04,0.28 -3.04,-0.9zm-17.84 -3.77c0,-2.03 0.99,-4.31 1.78,-6.07 0.41,-0.93 1.64,-2.76 2.27,-3.54 1.2,-1.49 1.91,-2.16 3.45,-3.28 0.77,-0.55 1.56,-1.07 2.42,-1.46 1.42,-0.63 3.63,-1.62 5.17,-1.66l0 6.53c0,0.38 -0.41,0.36 -0.92,0.61 -3.25,1.59 -5.72,3.45 -8.72,5.44l-5.09 3.61c-0.21,0.11 -0.36,0.17 -0.36,-0.18zm7.24 -21.2c0,-0.93 -0.05,-1.89 0.93,-2.54 2.26,-1.48 4.07,1.41 6,1.41l0.92 0 0 2.96c-2.02,0 -3.69,0.1 -5.71,0.1 -0.88,0 -2.14,-1.06 -2.14,-1.93zm24.06 33.23c0.36,-1.55 1.84,-3.16 1.84,-7.95 0,-3.63 -0.91,-6.58 -3.08,-9.26 -0.43,-0.52 -0.71,-0.8 -1.18,-1.27 -1.94,-1.95 -5.8,-3.64 -8.58,-3.65 -0.41,0 -0.82,0.01 -1.23,0.01 -0.59,-0.01 -0.78,0.09 -1.23,0.1l0 -6.32 6.81 0.02c1.52,0.22 2.2,1.71 1.73,3.11 -0.18,0.53 -0.3,0.73 -0.71,1.03 -0.74,0.55 -1.98,0.39 -2.63,-0.08 -1.02,-0.74 -0.61,-1.31 -1.3,-2.17 -1.15,-1.41 -3.58,0.39 -1.9,2.82 1.21,1.77 5.3,1.81 6.9,-0.73 1.27,-2.01 0.38,-6.26 -2.34,-6.79 -1.76,-0.33 -4.39,-0.27 -6.56,-0.27l0 -19.88c0,-4.3 1.71,-3.9 1.94,-4.79 -0.64,0.01 -0.96,0.16 -2.24,0.1 -1.35,-0.06 -2.16,-0.76 -3.08,-1.71 -0.33,-0.32 -0.95,-0.96 -1.41,-1.01 -0.91,-0.31 -1.17,-0.41 -2.24,-0.39 -1.13,0.24 -1.66,0.53 -2.32,1.2 -0.63,0.63 -0.96,1.32 -1.19,2.38 -0.25,1.17 -0.11,1.96 0.23,2.91 0.82,2.27 4.25,3.38 5.36,1.45 0.21,-0.38 0.48,-0.81 0.35,-1.44 -0.49,-2.37 -3.79,-0.39 -3.95,-3.2 -0.02,-0.45 0.17,-1.06 0.38,-1.33 1.32,-1.76 5.44,-0.82 5.42,5.42 -0.01,4.73 0,9.45 0,14.17 -1.07,0 -1.06,0.02 -1.9,-0.24 -1.78,-0.54 -1.9,-0.12 -1.02,-2.17 1.25,-2.94 -1.46,-3.91 -2.28,-2.48 -0.66,1.15 0.63,2.3 0.48,3.43 -0.15,1.14 -1.62,1.34 -2.44,1.85 -2.56,1.61 -2.67,5.3 -0.66,7.44 0.37,0.4 0.85,0.65 0.99,1.25 -0.42,0.63 -1.82,0.95 -2.55,1.32l-1.22 0.71c-3.69,2.46 -6.21,5.94 -7.44,10.2 -0.29,1.01 -0.55,2.17 -0.62,3.26 -0.04,0.61 -0.1,1.08 -0.1,1.84 0,0.78 0.05,1.3 0.11,1.94 -0.29,0.19 -0.48,0.34 -0.78,0.55l-1.64 1.11c-0.33,0.2 -0.54,0.38 -0.85,0.58l-8.58 5.38c-0.64,0.38 -1.16,0.69 -1.82,1.04 0.78,-3.32 -2.62,-4.3 -3.45,-2.43 -0.42,0.96 0.05,2.25 -1.15,2.82 -2.68,1.29 -4.46,-2.73 -1.1,-4.67 3.29,-1.89 10.51,-0.35 13.05,-1.01 1.47,-0.39 2.64,-1.35 3.12,-2.8 0.55,-1.66 0.38,-3.26 -0.8,-4.53 -1.73,-1.84 -3.17,-1.45 -6.5,-1.45 -1.87,0 -3.89,0.55 -4.8,-1.22 -0.33,-0.64 -0.3,-0.79 -0.3,-1.73l-0.21 0c-0.3,1.31 -0.68,2.6 0.12,3.85 0.64,0.99 1.55,1.76 3.14,1.76 1.17,0 6.37,-0.16 7.27,0.07 1.45,0.35 1.64,2.21 0.72,3.01 -0.55,0.48 -1.12,0.38 -2.07,0.38 -1.76,0 -8.53,0.16 -9.72,-0.07 -2.35,-0.47 -2.53,-1.69 -3.02,-1.87 0,2.61 -0.17,3.78 -1.76,5.48 -3.13,3.35 -0.06,7 2.57,7.06 -0.25,0.34 -1.21,0.71 -1.63,0.92 -0.57,0.29 -1.1,0.55 -1.7,0.85 -1.73,0.87 -3.56,1.63 -5.34,2.41 -1.72,0.76 -4.94,1.96 -6.68,2.39l-3.06 0.81c-3.82,0.84 -7.84,1.23 -11.72,0.53 -0.79,-0.14 -1.49,-0.26 -2.17,-0.48 -0.89,-0.28 -1.92,-0.57 -2.75,-1.03 -0.31,-0.17 -0.53,-0.28 -0.87,-0.45 -0.57,-0.29 -1.07,-0.63 -1.58,-0.97 -0.76,-0.52 -1.43,-1.14 -2.08,-1.79 -0.68,-0.68 -1.22,-1.42 -1.78,-2.2 -0.76,-1.04 -1.12,-3.01 -0.25,-3.96 1.23,-1.36 2.56,0.43 3.96,-0.43 1.29,-0.79 1.1,-2.67 -0.34,-3.15 -1.97,-0.67 -3.92,1.06 -4.79,2.62 -0.17,0.3 -0.24,0.62 -0.36,0.96 -0.12,0.39 -0.09,0.71 -0.39,0.93l-0.58 -1.66c-0.2,-0.61 -0.26,-1.2 -0.36,-1.89 -0.08,-0.56 -0.23,-1.41 -0.28,-1.96 -0.05,-0.64 0.04,-1.6 -0.41,-1.93 -0.94,0.69 -0.36,5.39 -0.18,6.5 0.23,1.35 0.57,2.68 1.08,3.91 0.57,1.37 1.23,2.8 2.18,3.94 1.23,1.49 0.98,1.27 2.4,2.6 1.97,1.84 4.46,3.2 7.05,4.06l3.3 0.98c0.51,0.12 0.22,-0.11 0.48,0.24 -0.6,0.16 -1.07,0.99 -1.22,1.63 1.66,-0.39 1.72,0.02 2.84,-0.11 0.81,-0.1 1.52,-0.71 1.85,-1.32 0.33,0 0.69,-0.01 1.02,0 0.5,0.01 0.48,0.09 0.92,0.1l1.93 -0.1c1.7,-0.02 5.33,-0.69 6.95,-1.21 0.54,-0.18 1.03,-0.27 1.59,-0.44 0.45,-0.14 0.98,-0.35 1.51,-0.53 1.29,-0.43 2.43,-0.94 3.65,-1.45l6.15 -3.03c3.06,-1.64 5.99,-3.57 8.88,-5.49l12.15 -8.34c0.18,0.37 0.26,0.85 0.44,1.29 1.35,3.33 2.55,5.31 5.04,7.81 0.78,0.78 1.56,1.41 2.5,1.98l1.78 0.98c1.89,0.84 3.4,1.19 5.79,1.54 5.7,0.85 12.41,-1.5 16.18,-5.32 0.84,-0.85 0.38,-0.56 1.08,-0.58 0.47,-0.01 0.91,-0.28 1.28,-0.52 0.83,-0.55 1.29,-1.27 2.41,-1.27l0 -0.2c-0.35,-0.1 -0.62,-0.34 -1.03,-0.4 -0.59,-0.08 -0.99,0.06 -1.42,0.09z"/>
   <path class="fil1" d="M81.48 58.91c0,1.18 0.31,1.35 -0.39,2.47 -0.48,0.77 -1.04,1.2 -1.96,1.2 -2.16,0 -1.47,-3.16 -3.06,-3.16 -0.66,0 -1.56,-0.04 -1.83,1.12l-0.2 0c-0.1,-1.14 -0.34,-1.02 0.36,-2.69 0.28,-0.68 0.53,-0.98 0.98,-1.47 0.09,-0.09 0.16,-0.17 0.24,-0.26 0.09,-0.09 0.24,-0.22 0.33,-0.29 1.55,-1.31 3.58,-1.21 5.31,-0.16 0.55,0.33 1.79,0.99 1.85,1.71 -1.02,0 -1.63,0.54 -1.63,1.53zm-52.1 -8.36c1.77,-0.85 6.93,0.91 6.93,5.61 0,0.48 -0.11,0.74 -0.2,1.12 -0.24,-0.09 -0.14,-0.06 -0.29,-0.22 -0.4,-0.4 -0.52,-0.7 -1.34,-0.7 -0.96,0 -1.18,0.68 -1.6,1.26 -0.98,1.35 -2.04,1.47 -3.56,0.84l-0.79 -0.53c-0.02,-0.01 -0.04,-0.03 -0.06,-0.05 -0.01,-0.01 -0.03,-0.03 -0.05,-0.05 -0.97,-0.98 -0.98,-1.31 -0.98,-3 0,-0.62 0.2,-0.93 0.31,-1.42 2.29,0 1.74,-2.04 1.63,-2.86zm70.04 -17.28c1.07,-0.02 1.33,0.08 2.24,0.39 -0.01,-0.02 -0.04,-0.07 -0.05,-0.06 0,0 -0.16,-0.24 -1.1,-0.66 -0.52,-0.23 -0.75,-0.4 -1.36,-0.57 -0.57,-0.17 -0.94,-0.29 -1.55,-0.39 -2.6,-0.44 -5.49,0.25 -7.8,1.41 -2.49,1.26 -4.77,2.75 -7,4.42 -0.73,0.55 -1.5,1.06 -2.22,1.65l-5.45 4.03c-0.4,0.3 -0.72,0.51 -1.12,0.81 -2.58,1.94 -5.28,3.69 -7.88,5.58 -2.26,1.64 -8.19,5.63 -10.41,6.82l-6.05 3.54c-0.43,0.21 -0.83,0.4 -1.28,0.65l-2.6 1.28c-2.72,1.22 -5.49,2.26 -8.31,3.2 -4,1.33 -8.59,1.97 -12.19,-0.73 -1.46,-1.1 -2.64,-2.58 -2.64,-5.12 0.81,0.39 1.41,0.23 1.97,-0.27 0.7,-0.64 0.35,-1.24 0.37,-2.17 0.02,-0.76 0.22,-1.6 0.38,-2.29 0.16,-0.75 0.46,-1.31 0.85,-1.89 0.57,0.13 0.61,0.39 1.12,0.51 -0.48,2.09 -1.01,3.12 -0.27,5.36 0.54,1.62 1.62,2.74 3.25,3.18 5.49,1.48 9.11,-5.5 6.26,-10.24 -1.31,-2.16 -3.57,-3.21 -6.09,-3.49 -0.96,-0.11 -1.99,0.21 -2.72,0.42 -2,0.55 -2.38,1.51 -3.89,2.52 -0.32,-1.17 -2.16,-1.63 -3.23,-1.18 -0.34,0.14 -0.85,0.4 -0.95,0.78 0.36,0.08 0.79,0.35 1.05,0.58 2.21,2.02 -2.12,8.41 2.95,14.47 1.04,1.25 2.59,2.08 4.14,2.6 4.61,1.54 9.76,0.08 14.02,-1.41l2.41 -0.95c1.64,-0.73 4.23,-1.76 5.73,-2.63 0.37,-0.22 0.65,-0.36 1.06,-0.57l2.72 -1.46c0.25,-0.14 0.25,-0.16 0.51,-0.3 0.23,-0.12 0.32,-0.15 0.54,-0.28l6.71 -4.1c3,-1.97 6.02,-3.93 8.84,-6.14 2.82,-2.22 5.78,-4.29 8.65,-6.44l1.94 -1.43 -0.81 1.85c-0.23,0.65 -0.42,1.37 -0.5,2.14 -0.13,1.2 -0.02,2.62 0.15,3.79 0.08,0.48 0.14,0.71 0.14,1.19 -0.74,-0.35 -1.73,-0.28 -2.74,-0.93 -0.76,-0.5 -1.43,-1.19 -1.65,-2.13 -1.1,0.26 -1.99,2 -1.65,3.08 0.17,0.52 0.39,0.73 0.64,1.1 -0.33,0.22 -0.56,0.61 -0.85,0.9 -1.59,1.57 -2.38,4.27 -1.5,6.45 0.99,2.47 3.39,4.75 6.37,4.12 1.53,-0.32 2.87,-1.49 3.24,-2.98 0.05,-0.23 0.07,-0.51 0.18,-0.74 0.73,0.2 1.92,1.72 0.28,3.24 -0.07,0.06 -0.17,0.14 -0.22,0.19 -0.14,0.16 -0.08,0.01 -0.16,0.24 1.91,0.45 3.97,-1.83 3.97,-3.67l0.21 0c0,0.73 0.03,1.09 -0.15,1.7 -0.12,0.42 -0.39,1.01 -0.57,1.36l-0.65 1.18c-0.28,0.42 -0.53,0.72 -0.85,1.1 -0.7,0.83 -1.06,1.2 -1.96,1.8 -0.82,0.54 -1.88,0.96 -2.96,0.92 -4.64,-0.18 -4.48,-4.39 -6.25,-5.17 -1.1,-0.48 -2.19,0.39 -2.21,1.39 -1.29,-0.85 -2.01,-5.71 -0.34,-8.69 0.24,-0.43 0.42,-0.75 0.7,-1.14 0.33,-0.44 0.51,-0.7 0.76,-1.18 -0.93,0.25 -2.6,3.36 -2.84,3.99 -1.03,2.71 -0.61,5.65 0.7,8.25 0.66,1.32 1.49,2.6 2.05,3.96 1.07,2.59 -0.2,2.39 -0.22,3.38 2.33,0 3.08,-0.84 3.57,-2.96 0.21,0.1 0.91,0.24 1.21,0.32 1.65,0.47 3.68,0.21 5.27,-0.46 1.76,-0.74 3.45,-1.88 4.44,-3.52 1.48,-2.47 2.09,-4.75 1.32,-7.66 -0.64,-2.36 -1.79,-4.43 -2.93,-6.55 -0.95,-1.77 -2.34,-5.44 -2.16,-7.29 0.12,-1.32 0.68,-3.77 1.82,-4.61 0,1.52 -0.71,3.38 -0.08,5.69 0.44,1.63 1.45,2.91 3.17,3.16 1.94,0.29 3.13,-2.17 1.79,-3.42 -1.32,-1.23 -2.89,0.39 -3.63,-2.7 -1.34,-5.62 8.84,-11.67 14.35,-10.12z"/>
   <path class="fil0" d="M47.94 85.52c-0.7,0 -1.05,0.02 -1.53,-0.52 -0.17,-0.19 -0.51,-0.76 -0.51,-1.11l0 -7.55c0,-1.27 1.1,-2.44 2.95,-2.44 -0.39,-0.54 -1.46,-0.51 -2.14,-0.51 -1.2,0 -2.05,0.68 -2.62,1.35 -0.76,0.9 -0.84,1.64 -0.84,3.24 0,1.32 -0.01,2.65 0,3.97 0.01,1.38 -0.57,1.94 -2.14,1.94l-15.3 0c-2.3,0 -4.79,-1.37 -4.79,-3.16l0 -0.51c0,-1.5 2.15,-2.4 3.37,-1.64 0.94,0.59 -0.01,2.33 1.04,3.25 1.08,0.94 3.24,0.37 3.24,-1.82 0,-2.23 -1.75,-3.77 -3.98,-3.77 -1.43,0 -2.7,0 -3.85,1.15 -1.91,1.9 -1.14,4.74 0.56,6.42 1.81,1.79 1.76,2.05 1.76,4.67 0,0.54 -0.31,0.31 0.11,0.61 0.14,-0.64 0.78,-1.44 1.3,-1.76 0.68,-0.42 1.42,-0.66 2.46,-0.69 2.43,-0.07 14.18,0.19 15.48,-0.12 1.21,-0.29 1.36,-0.63 2.06,-1.1 0.47,0.31 0.65,0.57 1.24,0.8 1.43,0.58 2.25,0.55 3.67,0.03 0.55,-0.2 0.88,-0.54 1.31,-0.83 0.47,0.31 0.65,0.57 1.24,0.8 1.43,0.58 2.25,0.55 3.67,0.03 0.55,-0.2 0.88,-0.54 1.31,-0.83 0.43,0.29 0.45,0.47 1.22,0.82 1.82,0.81 4.15,0.35 5.37,-1.27 0.9,-1.21 0.95,-2 0.95,-4.04 0,-1.66 0.01,-3.33 0,-5 -0.01,-2.02 1.64,-2.03 2.96,-2.03 -0.62,-0.85 -5.74,-1.64 -5.71,4.28 0.01,0.81 0.14,5.86 -0.13,6.4 -0.77,1.59 -3.33,1.1 -3.33,-0.79l0 -8.26c0,-0.63 0.51,-1.08 0.91,-1.33 0.64,-0.38 1.06,-0.3 2.04,-0.3 -0.47,-0.64 -3.19,-1.18 -4.78,0.83 -0.21,0.27 -0.26,0.24 -0.42,0.59 -0.58,1.25 -0.41,1.44 -0.41,2.96 0,1.46 0,2.92 0,4.39 0.01,0.73 0.02,1.39 -0.23,1.91 -0.59,1.25 -2.28,1.13 -2.84,0.45 -0.15,-0.18 -0.49,-0.85 -0.49,-1.14l0 -8.36c0,-0.56 0.56,-1.11 0.91,-1.33 0.61,-0.37 1.1,-0.3 2.04,-0.3 -0.52,-0.71 -2.77,-0.93 -4.22,0.26 -1.38,1.12 -1.38,2.3 -1.38,4.12 0,1.08 0.15,5.49 -0.22,6.31 -0.19,0.4 -0.71,0.93 -1.31,0.93z"/>
   <path class="fil0" d="M48.14 69.21l2.93 2.98 2.86 -2.8 2.85 2.8c0.61,-0.42 2.34,-2.53 2.88,-2.68 0.11,0.4 0.04,0.12 0.55,0.68l1.33 1.32c0.28,0.24 0.42,0.44 0.67,0.65l2.98 -2.93 -2.96 -3 -2.75 2.7 -2.65 -2.7 -2.85 2.8c-0.3,-0.21 -2.57,-2.37 -2.68,-2.78 -0.47,0.04 -1.13,0.88 -1.66,1.4 -0.43,0.44 -1.2,1.11 -1.5,1.56z"/>
   <polygon class="fil0" points="29.46,76.32 32.42,79.33 35.27,76.52 38.13,79.33 41.11,76.34 38.17,73.36 35.32,76.17 32.46,73.36 "/>
   <path class="fil0" d="M105.51 90.08c0.13,0.41 0.41,0.56 0.66,0.82l2.22 2.16c0.43,-0.11 2.88,-2.68 3.06,-2.95l-3.03 -2.98 -2.91 2.95z"/>
   <polygon class="fil0" points="96.44,45.63 99.4,48.64 102.4,45.68 99.45,42.68 "/>
   <path class="fil2" d="M88.72 107.03c-1.32,0 -0.61,-0.65 -0.51,-0.7 0.29,-0.15 0.74,-0.14 1.12,-0.32 0,0.43 -0.05,1.02 -0.61,1.02zm-1.33 -1.63c0.4,0.01 0.24,-0.03 0.51,0.1 0.58,-1.1 1.43,-0.49 1.43,-0.2l0 0.3c-2.66,0 -2.47,1.94 -0.92,1.94 0.63,0 0.67,-0.17 1.02,-0.41 0.04,0.44 0.02,0.41 0.61,0.41 0,-0.42 -0.08,-0.52 -0.1,-0.92 -0.05,-0.94 0.32,-2.24 -1.12,-2.24 -0.85,0 -1.27,0.33 -1.43,1.02z"/>
   <path class="fil2" d="M108.09 107.03c-0.66,0 -0.58,0.05 -0.82,-0.3 0.17,-0.64 0.86,-0.45 1.43,-0.72 0,0.43 -0.05,1.02 -0.61,1.02zm-1.33 -1.63c0.32,0.03 0.19,0 0.41,0.1 0.28,-0.2 0.34,-0.61 0.81,-0.61 0.56,0 0.71,0.15 0.72,0.71 -3.39,0 -1.91,2.91 0,1.64 0.47,0.34 -0.11,0.3 0.71,0.3 0,-0.42 -0.08,-0.52 -0.1,-0.92 -0.05,-0.94 0.32,-2.24 -1.12,-2.24 -0.85,0 -1.27,0.33 -1.43,1.02z"/>
   <path class="fil2" d="M69.24 105.71c0.05,-0.51 0.29,-0.82 0.82,-0.82 0.4,0 0.57,0.44 0.71,0.71 -0.35,0 -1.39,-0.05 -1.53,0.11zm0.51 1.83c0.58,0 1.45,0.03 1.53,-1.02 -0.31,-0.03 -0.19,0 -0.41,-0.1 -0.5,0.37 -0.12,0.61 -1.01,0.61 -0.48,0 -0.62,-0.52 -0.62,-0.92l2.14 0c-0.02,-0.91 -0.49,-1.73 -1.32,-1.73 -2.06,0 -1.81,3.16 -0.31,3.16z"/>
   <path class="fil2" d="M75.46 105.3c0,0.95 1.59,0.86 1.84,1.23 0.2,0.3 -0.61,1.02 -1.34,0 -0.01,-0.02 -0.06,-0.09 -0.09,-0.11 -0.19,0.09 -0.13,0.08 -0.41,0.1 0.03,1.43 2.45,1.32 2.45,0.1 0,-1.18 -1.4,-0.73 -1.84,-1.32 0.08,-0.27 0.2,-0.41 0.51,-0.41 0.78,0 0.46,0.51 0.92,0.51 0.49,0 0.27,-0.5 0.09,-0.69 -0.59,-0.57 -2.13,-0.36 -2.13,0.59z"/>
   <path class="fil2" d="M94.32 106.32c0,1.31 1.04,1.52 1.94,0.92 0.11,0.4 0.03,0.29 0.51,0.3 0.2,-0.85 0.1,-1.86 0.1,-2.75 0,-0.32 -0.14,-0.31 -0.41,-0.31 -0.5,0 -0.1,0.28 -0.21,1.42 -0.19,1.86 -1.32,1.04 -1.32,0.62l0 -2.04 -0.61 0 0 1.84z"/>
   <path class="fil2" d="M114.41 104.79c-0.1,-0.13 -0.07,0.11 -0.11,-0.31l-0.61 0 0 2.76c0,0.32 0.63,0.74 0.62,-0.4 0,-0.76 -0.23,-2.44 1.22,-1.75 0.18,0.79 0.1,1.51 0.1,2.45 0.75,0 0.61,0.13 0.61,-1.53 0,-0.41 -0.03,-0.85 -0.19,-1.14 -0.22,-0.41 -0.8,-0.62 -1.33,-0.39 -0.46,0.2 -0.21,0.01 -0.31,0.31z"/>
   <path class="fil2" d="M82.29 104.18l0 0.3 -0.4 0c0.01,0.45 -0.04,0.48 0.4,0.51l0 2.25c0.32,0.21 1.12,0.6 1.12,0 0,-0.34 -0.18,-0.3 -0.51,-0.31l0 -1.94c0.41,-0.03 0.34,-0.04 0.51,-0.3 -0.21,-0.3 0.02,-0.2 -0.51,-0.21 0,-0.69 0.11,-1.25 -0.43,-0.85 -0.41,0.3 -0.18,0.27 -0.18,0.55z"/>
   <path class="fil2" d="M120.73 103.97l0 0.51 -0.41 0c0.01,0.45 -0.03,0.48 0.41,0.51l0 2.25c0.41,0.27 0.12,0.3 0.81,0.3 0.34,0 0.41,-0.31 0.14,-0.53l-0.21 -0.11c-0.16,-0.11 -0.23,0.16 -0.23,-0.28l0 -1.63c0.5,-0.01 0.5,0 0.51,-0.51l-0.51 0 0 -1.02c-0.22,0.12 -0.51,0.18 -0.51,0.51z"/>
   <path class="fil2" d="M101.26 104.48l0 3.06c0.9,0 0.58,-0.36 0.6,-1.64 0.02,-1.01 0.27,-0.86 0.92,-0.81 0.03,-0.27 0.05,-0.27 0.11,-0.51 -0.99,-0.52 -0.51,0.12 -1.27,-0.05 -0.18,-0.04 -0.13,-0.05 -0.36,-0.05z"/>
   <path class="fil2" d="M63.13 104.48l0 2.76c0,0.23 0.07,0.3 0.3,0.3 0.52,0 0.29,-1.15 0.3,-1.64 0.02,-1.01 0.27,-0.86 0.93,-0.81l0.11 -0.4c-0.25,-0.32 -0.4,-0.36 -0.8,-0.18l-0.18 0.09c-0.19,0.04 -0.08,-0.03 -0.37,-0.09 -0.15,-0.03 -0.13,-0.03 -0.29,-0.03z"/>
  </g>
 </g>
</svg>
