<?xml version="1.0" encoding="UTF-8"?>
<!DOCTYPE svg PUBLIC "-//W3C//DTD SVG 1.1//EN" "http://www.w3.org/Graphics/SVG/1.1/DTD/svg11.dtd">
<!-- Creator: CorelDRAW 2020 (64-Bit) -->
<svg xmlns="http://www.w3.org/2000/svg" xml:space="preserve" width="140px" height="140px" version="1.1" style="shape-rendering:geometricPrecision; text-rendering:geometricPrecision; image-rendering:optimizeQuality; fill-rule:evenodd; clip-rule:evenodd"
viewBox="0 0 140 140"
 xmlns:xlink="http://www.w3.org/1999/xlink"
 xmlns:xodm="http://www.corel.com/coreldraw/odm/2003">
 <defs>
  <style type="text/css">
   <![CDATA[
    .fil0 {fill:black}
   ]]>
  </style>
 </defs>
 <g id="Layer_x0020_1">
  <metadata id="CorelCorpID_0Corel-Layer"/>
  <g id="_1970068005168">
   <path class="fil0" d="M98.45 52.77l17.57 0 0 17.57 -17.57 0 0 -17.57zm21.14 19.3l0 1.69c-0.05,0.15 -0.15,0.22 -0.36,0.25l-20.59 -0.01c-3.43,0 -5.79,0.09 -8.25,-0.9 -2.2,-0.89 -4.57,-2.61 -5.75,-4.6 -0.78,-1.32 -1.37,-2.24 -1.76,-3.91 -0.15,-0.63 -0.26,-1.2 -0.26,-2.03 -0.06,0.1 0,-0.05 -0.09,0.18l-0.09 0.55c-0.05,0.7 -0.31,1.49 -0.5,2.16 -0.85,3.03 -3.72,6.16 -6.69,7.4 -1.47,0.61 -1.07,0.47 -2.64,0.84 -1.9,0.43 -4.36,0.31 -6.64,0.31 -5.89,0 -11.77,0 -17.66,0 -2.58,0 -2.85,0.3 -2.84,-0.64 0.02,-2.32 0,-4.64 0,-6.96 -0.28,0.33 -0.28,0.88 -0.79,1.4 -0.37,0.38 -0.67,0.69 -1.19,0.92 -1.85,0.8 -2.64,-0.03 -3.41,-0.21 0.96,1.83 0.53,4.08 -1.38,5.03 -0.55,0.28 -1.24,0.51 -1.94,0.4 -3.73,-0.62 -3.18,-4 -3.18,-6.72 0,-5.55 -0.49,-5.23 1,-5.21l3.67 0c3.19,0 5.75,-0.66 7.03,2.3 0.05,0.14 0.02,0.08 0.08,0.19 0.07,0.12 0.05,0.09 0.11,0.16l0 -6.22c-0.18,0.21 -0.29,0.61 -0.42,0.86 -0.21,0.42 -0.25,0.42 -0.56,0.72 -0.43,0.43 -0.83,0.76 -1.54,0.93 -1.37,0.32 -6.44,0.11 -8.55,0.15 -0.57,0.01 -0.78,0.13 -0.83,-0.36 -0.11,-0.99 0.01,-5.74 0.01,-7.42 0,-1.06 0.04,-1.37 0.36,-2.11 0.44,-0.98 1.54,-2 2.93,-2.02 3.48,-0.03 4.52,3.4 3.11,5.5 0.38,-0.1 1.59,-1.15 3.44,-0.33 0.57,0.25 0.84,0.52 1.26,0.94 0.51,0.53 0.51,1.08 0.79,1.4l0 -7.5c8.09,0 16.17,0 24.25,0 1.9,0 3.53,0.15 5.22,0.92l1.97 1.04c1.12,0.68 2.38,1.88 3.14,2.9l1.17 1.85c0.2,0.36 0.3,0.71 0.47,1.08 0.17,0.34 0.27,0.75 0.36,1.1 0.13,0.46 0.23,0.75 0.32,1.24 0.12,0.6 -0.03,0.81 0.25,1.22 0,-1.81 0.65,-3.55 1.31,-4.73 0.51,-0.9 0.48,-0.97 1.18,-1.85 0.35,-0.45 1,-1.23 1.43,-1.58 2.87,-2.29 4.8,-3.19 8.89,-3.19 8.06,0 16.11,0 24.16,0l0 22.87zm-70.55 -19.3l17.57 0 0 17.57 -17.57 0 0 -17.57zm-8.96 15.74l-0.1 -0.1 0.1 0.1zm-0.1 -0.1l-0.09 -0.09 0.09 0.09zm-0.09 -0.09l0 0zm54.99 -17.47l0 21.41c-0.05,-0.08 -0.04,-0.04 -0.1,-0.18 -0.24,-0.64 -0.28,-2.49 -1.74,-4.75 -0.55,-0.84 -1.13,-1.57 -1.84,-2.28 -0.27,-0.28 -0.45,-0.38 -0.73,-0.64l-1.59 -1.15c-0.34,-0.18 -0.58,-0.27 -0.91,-0.47 -1.08,-0.65 -3,-1.15 -4.34,-1.15 0.13,-0.08 -0.1,0.01 0.19,-0.08 0.07,-0.03 0.24,-0.07 0.29,-0.08 0.95,-0.16 0.69,-0.05 1.75,-0.35 0.38,-0.12 0.71,-0.19 1.05,-0.32 1.6,-0.61 3.62,-1.91 4.73,-3.23l1.32 -1.7c0.4,-0.55 1.12,-2.11 1.34,-2.78l0.58 -2.25zm-24.61 21.77l0 -22.14c0,1.19 0.39,2.3 0.76,3.35l1.53 2.69c1.02,1.36 0.98,1.17 2.03,2.17 0.43,0.41 1.12,0.82 1.61,1.14 1.38,0.89 3.04,1.41 4.67,1.64l0.56 0.17c-2.08,0 -4.47,1.04 -6.07,2.16 -1.61,1.12 -2.96,2.75 -3.84,4.49 -0.67,1.33 -1.25,2.75 -1.25,4.33zm-30.29 -17.93l0 0z"/>
   <path class="fil0" d="M26.26 54.69l0 0zm0 0c-0.74,-0.39 -1.41,-0.76 -2.42,-0.59 -4.2,0.69 -3.8,6.1 -0.47,6.86 1.09,0.25 7.88,0.13 9.29,0.13 0,-1.27 0.11,-8.31 -0.09,-9.23 -0.84,-3.79 -6.48,-3.37 -6.85,0.28 -0.05,0.5 -0.02,1.09 0.08,1.46 0.13,0.51 0.37,0.74 0.46,1.09z"/>
   <path class="fil0" d="M26.26 68.41l0 0zm-5.49 -2.77l0 -0.22c0.04,-1.41 0.91,-2.81 2.67,-3.3 0.85,-0.24 8,-0.11 9.22,-0.11 0,2.1 0,4.21 0,6.31 0,2.7 0.18,3.53 -1.34,4.88 -1.35,1.18 -3.9,1.1 -5.21,-1.07 -1.05,-1.76 0.1,-3.53 0.15,-3.72 -0.7,0.37 -1.58,0.8 -2.51,0.6 -0.41,-0.09 -0.86,-0.26 -1.16,-0.41 -1.17,-0.6 -1.79,-1.77 -1.82,-2.96z"/>
   <path class="fil0" d="M105.5 59.81l3.48 0 0 3.48 -3.48 0 0 -3.48zm-3.57 7.05l10.61 0 0 -10.62 -10.61 0 0 10.62z"/>
   <path class="fil0" d="M52.24 61.28c0,1.59 0.2,2.19 0.96,3.44 0.45,0.75 1.39,1.48 2.15,1.87 1.42,0.7 3.68,0.77 4.97,0.01 1.14,-0.67 2.17,-1.56 2.66,-2.82 0.69,-1.8 0.7,-2.58 0.02,-4.39 -0.18,-0.48 -0.18,-0.51 -0.47,-0.9 -0.97,-1.33 -2.48,-2.52 -4.25,-2.52 -1.32,0 -1.7,-0.05 -2.93,0.55 -0.69,0.33 -1,0.6 -1.53,1.12 -0.76,0.75 -1.58,2.16 -1.58,3.64z"/>
   <path class="fil0" d="M62.22 84.99c0,0.6 0.12,3.96 0.31,4.34 0.19,0.38 0.54,0.59 1.06,0.59l3.66 0c0.44,0 0.55,-0.27 0.92,-0.37 0.3,0.84 1.56,0.02 1.64,0 0.21,0.78 1.83,0.22 1.83,-0.36 0,-2.54 0.12,-1.94 -0.64,-1.93 0,0.75 0.09,1.12 0.09,1.83 -1.09,0.03 -1.09,0.58 -1.09,-1.55 -0.6,0 -0.57,-0.01 -0.56,0.63 0,0.31 0.01,0.62 0.01,0.92 -1.11,0.1 -1.1,0.36 -1.1,-1.19l-0.55 0c0,1.55 0.43,1.29 -4.03,1.29 -0.33,0 -0.51,-0.08 -0.73,-0.19l-0.18 -4.21 -0.64 0.2z"/>
   <path class="fil0" d="M91.96 88.09c0.78,0.18 0.88,1.3 0.25,1.14 -0.19,-0.06 -0.35,-0.17 -0.62,-0.23 0.03,-0.36 0.23,-0.65 0.37,-0.91zm-0.83 0.64c-1.23,0 -0.85,-0.61 -0.45,-1.19 0.34,0.08 0.38,0.19 0.73,0.27 -0.09,0.37 -0.24,0.47 -0.28,0.92zm-5.03 -3.66l0.09 1.27c0.01,0.56 0.07,2.69 0.22,2.99 0.44,0.87 2.02,0.59 3.53,0.59 0.44,0 0.71,-0.1 1.06,-0.23 0.91,-0.35 1.03,0.64 1.75,0.11 0.39,-0.29 0.4,-0.78 0.4,-1.26 0,-0.93 -1.88,-1.45 -2.93,-2.01 -0.17,0.26 -0.15,0.28 -0.28,0.55 0.26,0.36 0.15,0.01 0.28,0.37 -1.05,0.76 0,1.73 0,1.74 -1.04,0 -2.56,0.17 -3.3,-0.19 -0.14,-0.59 -0.09,-1.37 -0.09,-2.1 0,-0.83 -0.09,-1.29 -0.09,-2.11 -0.19,0.05 -0.64,0.09 -0.64,0.28z"/>
   <path class="fil0" d="M81.16 80.95l-0.92 0c0,-1.88 1.14,-1.39 1.28,-0.63 0.1,0.5 0.12,0.63 -0.36,0.63zm5.67 -0.09c0,-1.45 0.14,-1.54 -0.27,-1.65 -0.27,0.2 -0.21,0.44 -0.19,0.92 0.04,0.81 0.36,0.73 -1,0.73 0,-1.33 0.1,-1.27 -0.46,-1.28 0,1.45 0.05,1.29 -1.19,1.28 -0.54,0 -1.35,-0.09 -1.74,0.09 0,-2.41 -1.91,-2.41 -2.16,-0.33 -0.13,1.05 0.75,0.79 1.71,0.79 -0.63,0.93 -0.85,0.94 -1.84,1.46l0.19 0.36c0.96,-0.07 1.71,-1.09 2.1,-1.82 1.37,0 1.98,0.16 2.94,-0.17 0.28,-0.1 0.01,-0.09 0.3,0.03 0.37,0.16 -0.19,0.14 0.79,0.14 0.34,0 0.41,-0.09 0.55,-0.28 0.4,0.27 0.08,0.28 0.82,0.28 1.2,0 0.92,-0.72 0.92,-2.47 -0.65,0 -0.58,-0.17 -0.38,1.41 0.09,0.77 -0.57,0.52 -1.09,0.51z"/>
   <path class="fil0" d="M73.11 88.82c0,-0.36 0.19,-0.73 0.55,-0.73 0.59,0 0.68,0.55 0.73,1.1l-1.28 0 0 -0.37zm4.94 -1.56l0.09 1.74c-0.53,0.05 -0.82,0.19 -1.46,0.19l-1.83 0c0,-2.62 -2.29,-2.34 -2.29,0.09 0,0.83 1.1,0.64 1.65,0.64 -0.3,0.44 -0.28,0.42 -0.72,0.74 -0.3,0.23 -0.56,0.41 -1.02,0.45 0.02,0.34 0.14,0.48 0.27,0.73 0.37,-0.09 0.95,-0.48 1.21,-0.71 0.33,-0.29 0.77,-0.76 0.8,-1.21 3.13,0 3.94,0.25 3.94,-1.74 0,-0.51 -0.09,-0.54 -0.09,-1.01 -0.22,0.05 -0.27,0.09 -0.55,0.09z"/>
   <path class="fil0" d="M51.33 87.36c0.07,0.3 0.18,1.31 0.18,1.64 -0.52,0.05 -0.82,0.19 -1.46,0.19 -1.05,0 -3.25,0.14 -3.94,-0.19 -0.08,-0.37 -0.18,-0.92 -0.18,-1.37 -0.4,0.01 -0.28,0.06 -0.64,0.09 0.05,2.29 0.89,2.3 -1.55,3.48 0.06,0.27 0.15,0.42 0.27,0.64 0.34,-0.08 1.06,-0.55 1.34,-0.77 0.16,-0.13 0.39,-0.45 0.49,-0.61 0.15,-0.24 0.27,-0.43 0.27,-0.82 0.26,0.17 0.39,0.28 0.83,0.28l3.47 0c1.97,0 1.65,-1.19 1.65,-2.47 0,-0.43 -0.49,-0.21 -0.73,-0.09z"/>
   <path class="fil0" d="M106.78 87.26l0.09 1.74c-0.48,0.04 -0.7,0.19 -1.28,0.19 -0.58,0 -3.42,0.05 -3.78,-0.07 -0.45,-0.14 -0.5,-0.67 -0.52,-1.49 -1.21,0.1 -0.25,0.87 -0.43,2.18 -0.05,0.38 -0.43,0.64 -0.68,0.83 -0.44,0.33 -0.61,0.33 -1.09,0.56 0.1,0.41 0.19,0.29 0.28,0.64 0.72,-0.17 2.1,-1.06 2.1,-2.2 0.26,0.17 0.39,0.28 0.83,0.28 5.55,0 5.12,0.21 5.12,-2.47 0,-0.42 -0.26,-0.2 -0.64,-0.19z"/>
   <path class="fil0" d="M58.56 86.35c0.12,0.13 0.13,0.14 0.29,0.25 0.81,0.6 1.54,1.26 1.54,2.4 -0.67,0.06 -3.94,0.65 -3.94,-0.46 0,-0.6 0.1,-0.79 0.1,-1.37l-0.46 0c0,0.76 -0.9,2.75 1.46,2.75 0.85,0 2,0.07 2.74,-0.19 1.31,-0.48 0.49,-2.31 -0.68,-3.34 -0.21,-0.19 -0.15,-0.01 -0.23,-0.32 0.41,-0.09 1.38,-0.54 1.74,-0.73l-0.11 -0.54c-0.39,0.03 -1.82,0.68 -2.12,0.87 -0.32,0.21 -0.23,0.26 -0.33,0.68z"/>
   <path class="fil0" d="M82.9 89c0,0.87 1.55,0.14 1.55,0.92 0,1.08 -3.02,0.98 -3.02,0.27 0,-0.88 0.22,-1.45 0.28,-2.19l-0.55 0c-0.29,2.12 -0.86,3.47 1.65,3.47 1.33,0 2.19,-0.47 2.19,-1.74 0,-0.74 -0.86,-0.94 -1.55,-1 0.46,-1.98 1.14,-1.21 1.55,-1.1l0.2 -0.26c-0.38,-1.29 -2.3,-0.66 -2.3,1.63z"/>
   <path class="fil0" d="M63.13 80.49c0,0.69 -2.16,0.17 -3.38,0.46 -0.04,0.43 -0.24,0.53 0.35,0.55 0.58,0.02 0.84,-0.08 0.84,0.46 0,0.71 -3.02,1.02 -3.02,0 0,-1.56 0.56,-2.02 -0.09,-2.2 -0.12,0.25 -0.37,1.77 -0.37,2.2 0,1.75 3.93,1.55 3.93,-0.19 0,-0.21 -0.03,-0.1 -0.09,-0.36 2.85,0 2.2,-0.61 2.2,-2.02l0 -2.83 -0.46 0c0,1.42 0.09,2.51 0.09,3.93z"/>
   <path class="fil0" d="M95.71 86.71c0.06,0.74 0.39,1.54 0.46,2.29 -3.06,0.71 -0.82,-0.27 -2.29,-0.27 0,0.66 -0.02,1.28 1,1.28 0.37,0 0.55,-0.05 0.86,-0.15 0.17,-0.05 0.23,-0.06 0.34,-0.12 0.41,-0.22 0.16,0.01 0.27,-0.28l0.18 0c0.07,0.26 -0.02,0.15 0.23,0.32 0.52,0.32 1.63,0.08 2.07,-0.13 0.89,-0.44 0.45,-1.56 0.45,-2.48 -0.22,0.05 -0.27,0.09 -0.55,0.09 0,0.72 0.09,1.04 0.09,1.74 -1.9,0.16 -1.82,0.65 -2.2,-0.91 -0.1,-0.44 -0.33,-1.21 -0.36,-1.65 -0.28,0.07 -0.35,0.14 -0.55,0.27z"/>
   <path class="fil0" d="M65.88 81.41c1.26,0 1.4,0.07 2.58,-0.16 0.82,-0.16 0.9,0 0.9,-0.67 -1.46,0.04 -1.64,1.1 -2.11,-0.91 0.83,-0.4 1.04,0.06 1.56,-0.18l0 -0.37c-0.3,-0.02 -1.93,-0.42 -1.93,0.73 0,0.53 0.15,0.66 0.19,1.1 -0.27,-0.13 -0.35,-0.1 -0.73,-0.09 -0.13,0 -0.35,0.01 -0.46,0 -0.2,-0.01 0.01,0.02 -0.17,-0.02 -0.36,-0.07 -0.53,-0.08 -0.57,-0.89l0.01 -2.39c0,-0.43 0.13,-1 -0.28,-1 -0.45,0 -0.28,0.86 -0.22,1.23 0.22,1.43 -0.44,3.62 1.23,3.62z"/>
   <path class="fil0" d="M41.72 90.28c0,0.38 -2.88,0.93 -2.8,-0.32 0.04,-0.65 0.24,-1.34 0.24,-1.96 -0.57,0 -0.43,-0.16 -0.62,0.84 -0.14,0.79 -0.45,1.71 0.24,2.28 0.64,0.54 3.23,0.59 3.47,-0.67 0.09,-0.48 -0.11,-2.31 -0.16,-2.91 -0.77,0.02 -0.63,0.25 -0.51,1.06 0.08,0.58 0.14,1.07 0.14,1.68z"/>
   <path class="fil0" d="M73.47 80.22c0,0.86 -0.07,0.55 1.47,0.91l0 0.83c-0.74,0.38 -3.02,0.88 -3.02,-0.37 0,-1.85 0.68,-1.99 -0.19,-2.01 0,0.87 -0.96,3.29 1.01,3.29 1.23,0 2.65,0.06 2.65,-1.55 0,-0.78 -0.88,-0.9 -1.55,-0.92 0.05,-0.56 0.43,-1.55 1.01,-1.55 0.37,0 0.62,0.57 0.7,0.08 0.05,-0.3 -0.35,-0.54 -0.8,-0.54 -0.68,0 -1.28,1.16 -1.28,1.83z"/>
   <path class="fil0" d="M102.57 97.97c0.86,0 0.97,-0.32 1.56,-0.46 0.21,0.79 2.01,0.5 2.01,-0.09 0,-0.72 0.06,-0.61 -0.09,-0.91 -0.45,0.12 -0.19,0.34 -0.19,1 -0.61,0.14 -0.45,0.09 -1.19,0.09 -0.24,0 -0.27,-0.13 -0.36,-0.27 0.36,-0.08 0.46,-0.03 0.64,-0.28 -0.23,-0.31 -0.24,-0.09 -1.19,-0.46 -0.52,-0.2 -0.86,-0.25 -0.92,0.46 0.28,-0.07 0.21,0.01 0.28,-0.27 0.53,0.01 0.6,0.18 1.01,0.27 -0.61,0.53 -1.09,0.55 -1.83,0.55 -0.43,0 -0.25,-0.58 -0.32,-1.06 -0.06,-0.45 -0.05,-0.83 -0.05,-1.32l-0.27 0c0,0.54 -0.05,1.3 0.02,1.81 0.08,0.63 0.12,0.94 0.89,0.94z"/>
   <path class="fil0" d="M66.24 95.5l0.1 2.1c0.96,0.65 0.81,0.31 1.33,0.25 0.35,-0.04 0.26,0.12 0.4,0.12 0.46,0 0.11,-0.08 0.51,-0.12 0.49,-0.04 -0.05,0.12 0.41,0.12 0.37,0 0.29,-0.14 0.55,-0.14 0.26,0 0.18,0.14 0.55,0.14 1.19,0 1.28,-0.39 1.15,-1.06 -0.11,-0.52 0.03,-0.3 -0.24,-0.4 -0.2,0.36 -0.03,0.63 0,1 -1.94,0.45 -1.19,-0.45 -1.46,-1 -0.48,0.12 -0.18,0.04 -0.18,1.09l-0.55 0c0,-0.95 0.05,-0.74 -0.19,-0.91 -0.14,0.26 -0.09,0.46 -0.09,0.91 -0.76,0 -0.64,0.01 -0.64,-0.73 -0.32,0.09 -0.27,0 -0.27,0.73l-1.01 -0.09 -0.09 -2.29c-0.2,0.06 -0.28,0.03 -0.28,0.28z"/>
   <path class="fil0" d="M43.19 84.98l0.18 5.03c0.64,-0.05 0.56,-0.25 0.55,-0.91 -0.01,-0.51 0.02,-0.94 -0.05,-1.42 -0.13,-0.83 -0.04,-2 -0.04,-2.89 -0.22,0.05 -0.46,0.1 -0.64,0.19z"/>
   <path class="fil0" d="M63.87 96.78c0.53,0.01 0.59,0.18 1,0.27l-0.27 0.19c-0.09,0.05 -0.2,0.1 -0.31,0.15 -1.3,0.62 -2.09,-0.29 -2.16,0.58 0.39,0 0.45,-0.04 0.73,0.09 -0.06,0.53 -0.54,0.46 -1.19,0.46 -0.25,0 -0.25,-0.05 -0.46,-0.09 -0.09,-0.45 0.08,-0.85 0.09,-1.38l-0.27 0c-0.09,1.1 -0.55,1.83 1.01,1.83 0.66,0 1.08,-0.24 1.09,-0.91 1.21,0 1.54,-0.51 1.99,-0.66 0.57,-0.2 0.32,0.14 0.58,-0.35 -0.22,-0.1 -0.51,-0.11 -0.8,-0.21 -0.35,-0.12 -1.08,-0.59 -1.32,0.04 -0.12,0.31 0.16,0.47 0.29,-0.01z"/>
   <path class="fil0" d="M81.98 97.6c0.18,-0.26 1.56,-1.71 1.56,-0.09 -0.4,0.01 -0.33,0.07 -0.73,0.09 -0.26,0.02 -0.56,0 -0.83,0zm-1.28 0.37c0.44,0 0.49,-0.16 0.8,-0.14 0.63,0.04 2.31,0.56 2.31,-0.68 0,-0.69 -0.66,-1.22 -1.89,0.11 -0.06,0.06 -0.13,0.15 -0.18,0.19 -0.14,0.13 -0.01,0.08 -0.21,0.15 0,-0.48 0.1,-0.52 -0.19,-0.73 -0.14,0.25 -0.09,0.32 -0.09,0.73l-1.01 -0.09 0.01 -1.84c-0.03,-0.47 0.08,-0.25 -0.19,-0.45 -0.42,0.31 -0.09,0.8 -0.09,1.56 0,0.36 -0.15,1.19 0.73,1.19z"/>
   <path class="fil0" d="M52.98 84.98l0.09 3.75c-0.01,0.58 0.09,0.82 0.09,1.28 0.62,-0.05 0.47,-0.23 0.46,-0.91l0 -4.31c-0.22,0.05 -0.46,0.1 -0.64,0.19z"/>
   <path class="fil0" d="M91.59 97.51c-1.73,0.4 -1.37,-0.28 -1.37,-0.82l-0.28 0c0,0.95 0.15,0.91 -0.73,0.91 -0.38,0 -0.54,-1.28 -0.55,-1.46 -0.63,0.17 -0.07,0.55 0,1.37 -1.3,0.31 -0.9,0.18 -1.08,-0.01 -0.15,-0.15 0.03,-0.08 -0.2,-0.17 -0.48,1.04 1.31,0.5 1.31,0.5 0.28,-0.02 0.39,0.14 0.61,0.14 0.43,0 0.32,-0.08 0.69,-0.13 0.01,0 1.87,0.39 1.87,-0.33l0 -2.01c0,-0.26 -0.03,-0.17 -0.18,-0.28 -0.36,0.27 -0.12,0.52 -0.09,1.01 0.02,0.4 0,0.88 0,1.28z"/>
   <path class="fil0" d="M51.06 97.97c0.45,0 0.12,-0.09 0.49,-0.13 0.33,-0.04 0.23,0.13 0.51,0.13 0.35,0 0.03,-0.1 0.39,-0.12 0.35,-0.02 0.16,0.33 0.98,-0.06 0.15,-0.62 0,-0.58 0,-1.28 -0.72,0.19 0.2,1.09 -0.45,1.09l-0.28 0c0,-0.75 0.07,-0.69 -0.27,-0.91 -0.15,0.26 -0.09,0.46 -0.09,0.91l-0.55 0 0 -0.73 -0.28 0c0,0.77 0.13,0.73 -0.73,0.73 -0.59,0 -0.37,-1.76 -0.37,-2.38l-0.27 0c0,1.77 -0.3,2.75 0.92,2.75z"/>
   <path class="fil0" d="M54.53 96.96c0.5,0.14 0.27,0.25 0.46,0.64l-0.82 0c0.21,-0.44 -0.09,-0.34 0.36,-0.64zm2.56 0.55c-0.68,0.16 -1.1,0.09 -1.92,0.09 0,-1.4 -1.19,-1.09 -1.19,0 0,0.45 0.48,0.37 0.92,0.37 -0.44,0.66 -0.87,0.4 -1.01,0.91 0.48,0.22 1.2,-0.59 1.28,-0.91 2.28,0 2.2,0 2.2,-1.19 0,-0.35 0.03,-0.03 -0.09,-0.27 -0.45,0.12 -0.19,0.34 -0.19,1z"/>
   <path class="fil0" d="M76.58 81.5c0.41,-0.11 0.29,-0.28 0.28,-0.82l-0.09 -4.12c-0.6,0.01 -0.51,0.22 -0.46,0.91 0.11,1.68 0.05,2.01 0.08,3.49 0.01,0.47 -0.06,0.35 0.19,0.54z"/>
   <path class="fil0" d="M78.32 79.39c0,2.01 0.71,1.86 -0.53,2.86 -0.25,0.19 -0.69,0.45 -1.02,0.53 0.02,0.25 0.04,0.25 0.09,0.46 0.61,-0.05 1.58,-0.81 1.85,-1.26 0.47,-0.76 0.07,-1.67 0.07,-2.68 -0.21,0.05 -0.21,0.07 -0.46,0.09z"/>
   <path class="fil0" d="M92.96 96.96c0.41,0.1 0.45,0.16 0.46,0.64l-0.73 0c0.01,-0.39 0.08,-0.45 0.27,-0.64zm1.74 0.55l-1.01 0.09c-0.02,-1.27 -1.28,-1.2 -1.28,0 0,0.45 0.48,0.37 0.92,0.37 -0.16,0.24 -0.24,0.33 -0.53,0.48 -0.86,0.48 -0.36,0.69 0.35,0.17 0.22,-0.17 0.37,-0.35 0.45,-0.65 1.55,0 1.38,-0.33 1.38,-1.19 0,-0.35 0.02,-0.03 -0.1,-0.27 -0.29,0.1 -0.21,0 -0.22,0.31 0,0.15 0.04,0.48 0.04,0.69z"/>
   <path class="fil0" d="M48.13 95.96c0,0.37 0.91,0.5 0.91,1.37 0,0.44 -0.61,0.27 -1.74,0.27 -0.24,0 -0.25,-0.04 -0.45,-0.09 0,-0.55 0.09,-0.79 0,-1 -0.34,0.13 -0.28,0.44 -0.28,0.91 0,0.78 2.75,0.75 2.75,0.09 0,-1.06 -0.39,-0.9 -0.83,-1.55 0.85,-0.45 0.89,-0.2 1.01,-0.64 -0.25,-0.11 -0.85,0.2 -1.12,0.34 -0.19,0.11 -0.25,0.01 -0.25,0.3z"/>
   <path class="fil0" d="M97.17 96.87l0 0.64 -0.64 0c0.09,-0.37 0.22,-0.6 0.64,-0.64zm-0.09 -0.27c-0.57,0.04 -0.92,0.73 -0.74,1.01 0.25,0.41 0.63,0.01 1.1,0.2 0.39,0.15 0.61,0.34 1.47,-0.12l0 -1.18c-0.5,0.13 -0.31,0.46 -0.18,1 -0.45,0.1 -0.64,0.09 -1.19,0.09 -0.11,-0.44 -0.08,-0.93 -0.19,-1.37 -0.28,0.08 -0.27,0.01 -0.27,0.37z"/>
   <path class="fil0" d="M40.62 98.24c-1.28,0.3 -0.52,0.19 -1.64,0.1 0,-0.6 0.09,-0.91 0.09,-1.38l-0.28 0c0,0.43 -0.19,0.96 -0.13,1.24 0.2,0.92 2.08,0.67 2.18,0.03 0.02,-0.1 -0.03,-0.54 -0.03,-0.81 0.01,-0.48 0.09,-0.53 -0.19,-0.73 -0.29,0.21 -0.2,0.24 -0.13,0.67 0.06,0.39 0,0.6 0.13,0.88z"/>
   <path class="fil0" d="M43.92 97.6c-1,0 -1.19,0.16 -1.19,-0.82l-0.28 0c0,1.17 0.3,1.17 -0.39,1.62 -0.22,0.13 -0.22,0.18 -0.52,0.21l0.1 0.36c0.42,-0.11 1.05,-0.54 1.18,-1.09 0.62,0.14 1.01,0.15 1.65,-0.19l0 -1.18c-0.4,0.1 -0.26,0.06 -0.28,0.54 -0.01,0.32 0.07,0.55 -0.27,0.55z"/>
   <path class="fil0" d="M85.64 96.96c0.24,0.18 0.27,0.23 0.28,0.64l-0.73 0c0,-0.43 0.1,-0.54 0.45,-0.64zm-0.73 0.55c0,0.54 0.3,0.46 0.92,0.46 -0.34,0.5 -0.6,0.54 -1.01,0.73 0.16,0.24 0.13,0.41 0.83,-0.09 0.75,-0.53 0.81,-1.92 -0.19,-1.92 -0.31,0 -0.55,0.51 -0.55,0.82z"/>
   <path class="fil0" d="M59.02 96.96c0.34,0.09 0.42,0.24 0.45,0.64l-0.73 0c0.01,-0.41 0.03,-0.46 0.28,-0.64zm-0.55 0.64c0,0.45 0.47,0.37 0.91,0.37 -0.46,0.69 -0.78,0.41 -0.88,0.77 -0.08,0.31 0.06,0.19 0.18,0.17 0.16,-0.02 1.07,-0.48 1.07,-1.4 0,-1.03 -1.28,-1.21 -1.28,0.09z"/>
   <path class="fil0" d="M73.56 97.97c1.84,0 1.65,-0.15 1.65,-1.19 0,-0.25 -0.07,-0.22 -0.27,-0.27 0,1.29 0.32,1.09 -1.74,1.09 -0.25,0 -0.25,-0.04 -0.46,-0.09 0,-0.51 0.08,-0.61 0.09,-1l-0.27 0c-0.04,0.41 -0.26,0.75 -0.07,1.06 0.19,0.32 0.6,0.4 1.07,0.4z"/>
   <path class="fil0" d="M79.15 97.6c-0.91,0 -1.13,0.29 -1.19,-0.27l-0.28 0c0.02,0.77 0.45,0.64 1.1,0.64 1.4,0 0.06,-1.91 -0.24,-1.78 -0.45,0.19 0.53,0.45 0.61,1.41z"/>
   <path class="fil0" d="M100.83 97.6l-0.71 0.03c-0.02,0 -0.3,-0.02 -0.39,-0.03l0 -0.27 -0.27 0c0,0.74 0.13,0.64 1.01,0.64 1.35,0 0.19,-1.89 -0.18,-1.76 -0.46,0.17 0.52,0.37 0.54,1.39z"/>
   <path class="fil0" d="M75.76 97.97l0.28 0 0 -2.2c0,-0.48 0.07,-0.36 -0.19,-0.55 -0.4,0.3 -0.14,0.6 -0.09,1.2 0.04,0.45 0,1.07 0,1.55z"/>
   <path class="fil0" d="M75.94 98.61c0.01,0.1 -0.18,0.66 0.7,0.06 0.79,-0.54 0.57,-0.89 0.48,-1.89l-0.26 0c0,1.24 0.3,1.16 -0.4,1.62 -0.21,0.13 -0.22,0.18 -0.52,0.21z"/>
   <path class="fil0" d="M106.78 97.97l0.27 0 0 -2.75c-0.64,0.06 -0.29,0.41 -0.27,1.1 0.02,0.54 0,1.11 0,1.65z"/>
   <path class="fil0" d="M41.36 97.97l0.27 0 0.01 -2.2c-0.01,-0.48 0.06,-0.36 -0.19,-0.55 -0.4,0.3 -0.09,0.13 -0.09,1.19 0,0.52 0,1.04 0,1.56z"/>
   <path class="fil0" d="M45.02 95.5l0.09 2.47 0.27 0c0,-1.02 -0.09,-1.71 -0.09,-2.75 -0.2,0.06 -0.27,0.03 -0.27,0.28z"/>
   <path class="fil0" d="M105.86 91.38c0.47,0.12 0.18,0.24 0.64,0.37 0.1,-0.35 0.18,-0.27 0.37,-0.55 -0.15,-0.23 -0.32,-0.31 -0.55,-0.46 -0.25,0.17 -0.42,0.26 -0.46,0.64z"/>
   <path class="fil0" d="M39.8 86.71c0.39,0.59 0.59,0.63 1.01,0l-0.53 -0.57 -0.48 0.57z"/>
   <path class="fil0" d="M98.36 86.07c0.15,0.23 0.35,0.38 0.64,0.46 0.13,-0.18 0.24,-0.36 0.37,-0.55 -0.16,-0.22 -0.39,-0.39 -0.64,-0.45 -0.1,0.34 -0.18,0.26 -0.37,0.54z"/>
   <path class="fil0" d="M77.32 92.2c0.33,0.09 0.19,0.1 0.45,0.28l0.48 -0.44c-0.19,-0.27 -0.28,-0.44 -0.66,-0.48 -0.13,0.49 -0.23,0.1 -0.27,0.64z"/>
   <path class="fil0" d="M76.86 91.29c0.44,0.12 0.1,0.16 0.55,0.27 0.07,-0.27 0.72,-0.68 -0.28,-0.91 -0.14,0.21 -0.24,0.3 -0.27,0.64z"/>
   <path class="fil0" d="M68.69 86.33c0.17,0.24 0.37,0.4 0.67,0.48 0.12,-0.49 0.22,-0.1 0.27,-0.64 -0.33,-0.09 -0.19,-0.1 -0.46,-0.28l-0.48 0.44z"/>
   <path class="fil0" d="M69.17 85.53c0.35,0.09 0.27,0.17 0.55,0.36 0.33,-0.48 0.71,-0.49 -0.09,-0.91 -0.23,0.15 -0.38,0.25 -0.46,0.55z"/>
   <path class="fil0" d="M69.72 86.35l0.44 0.48 0.5 -0.46c-0.19,-0.27 -0.29,-0.45 -0.66,-0.48 -0.09,0.34 -0.1,0.19 -0.28,0.46z"/>
   <path class="fil0" d="M50.23 91.2l0.44 0.48c0.23,-0.18 0.41,-0.4 0.48,-0.66 -0.49,-0.13 -0.1,-0.23 -0.64,-0.28 -0.09,0.34 -0.1,0.19 -0.28,0.46z"/>
   <path class="fil0" d="M77.77 91.2c0.3,0.15 0.31,0.2 0.55,0.36 0.22,-0.32 0.33,-0.2 0.37,-0.64 -0.34,-0.09 -0.19,-0.09 -0.46,-0.27 -0.31,0.21 -0.28,0.22 -0.46,0.55z"/>
   <path class="fil0" d="M51.24 91.11c0,0.22 0.23,0.34 0.36,0.55l0.57 -0.53c-0.26,-0.18 -0.27,-0.23 -0.57,-0.39 -0.1,0.07 -0.36,0.22 -0.36,0.37z"/>
   <path class="fil0" d="M86.65 78.02c0,0.22 0.15,0.27 0.27,0.46 0.97,-0.65 -0.27,-0.97 -0.27,-0.46z"/>
   <path class="fil0" d="M86.19 77.29l0.35 0.29 0.4 -0.36 -0.36 -0.41c-0.22,0.16 -0.26,0.28 -0.39,0.48z"/>
   <path class="fil0" d="M85.83 78.02c0,0.3 0.18,0.35 0.45,0.37 0.07,-0.24 -0.03,-0.1 0.19,-0.18 -0.04,-0.41 -0.08,-0.37 -0.46,-0.46 -0.05,0.07 -0.18,0.22 -0.18,0.27z"/>
   <path class="fil0" d="M97.9 98.52c0.2,0.35 0.29,0.13 0.46,0.13 0.21,0 0.2,0.24 0.46,-0.13 -0.27,-0.36 -0.14,-0.06 -0.44,-0.08 0,0 -0.42,-0.28 -0.48,0.08z"/>
   <path class="fil0" d="M73.93 96.23c0.28,0.23 0.46,0 0.46,0 -0.09,-0.32 -0.04,-0.2 -0.28,-0.37 -0.14,0.22 -0.12,0.1 -0.18,0.37z"/>
   <path class="fil0" d="M39.53 96.14c0,0.35 -0.03,0.03 0.09,0.27 0.32,-0.08 0.2,-0.03 0.36,-0.27 -0.21,-0.15 -0.09,-0.11 -0.36,-0.18 0,0 -0.09,0.17 -0.09,0.18z"/>
   <path class="fil0" d="M51.97 96.05c0.16,0.24 0.05,0.19 0.37,0.27 0.1,-0.44 0,-0.64 -0.37,-0.27z"/>
   <path class="fil0" d="M90.49 98.61c-0.16,-0.24 -0.04,-0.19 -0.36,-0.27 -0.13,0.56 -0.06,0.55 0.36,0.27z"/>
   <path class="fil0" d="M64.32 98.43c0,0.25 0.04,0.17 0.19,0.27 0.45,-0.26 0.01,-0.45 0,-0.46 -0.09,0.05 -0.19,0.06 -0.19,0.19z"/>
   <path class="fil0" d="M52.52 96.05c0,0.26 0.04,0.17 0.18,0.27 0.46,-0.25 0.02,-0.44 0,-0.46 -0.08,0.05 -0.18,0.06 -0.18,0.19z"/>
   <path class="fil0" d="M89.58 98.52c0,0.26 0.04,0.17 0.18,0.27 0.46,-0.25 0.01,-0.44 0,-0.45 -0.08,0.04 -0.18,0.05 -0.18,0.18z"/>
   <path class="fil0" d="M70.82 95.96c0.26,0.45 0.45,0.01 0.46,0 -0.21,-0.38 -0.44,-0.12 -0.46,0z"/>
   <path class="fil0" d="M73.66 96.32c0.08,-0.04 0.18,-0.06 0.18,-0.18 0,-0.35 0.03,-0.03 -0.09,-0.28 -0.3,0.16 -0.49,0.18 -0.09,0.46z"/>
   <path class="fil0" d="M94.15 95.86c0.29,0.4 0.3,0.21 0.46,-0.09 0,0 -0.17,-0.09 -0.18,-0.09 -0.17,0 -0.25,0.05 -0.28,0.18z"/>
   <path class="fil0" d="M105.32 95.86c0.28,0.4 0.3,0.21 0.45,-0.09 0,0 -0.17,-0.09 -0.18,-0.09 -0.17,0 -0.25,0.05 -0.27,0.18z"/>
   <polygon class="fil0" points="52.23,95.67 52.51,95.88 52.72,95.6 52.44,95.39 "/>
   <path class="fil0" d="M43.46 98.61c0,0 0.17,0.09 0.18,0.09 0.26,0 0.17,-0.04 0.28,-0.18 -0.33,-0.45 -0.3,-0.13 -0.46,0.09z"/>
   <path class="fil0" d="M56.45 98.7c0.09,-0.04 0.19,-0.06 0.19,-0.18 0,-0.35 0.02,-0.03 -0.09,-0.28 -0.31,0.21 -0.42,0.23 -0.1,0.46z"/>
   <path class="fil0" d="M44.01 98.7l0.37 0c-0.04,-0.42 0.09,-0.16 -0.19,-0.36 -0.23,0.17 -0.18,-0.04 -0.18,0.36z"/>
   <path class="fil0" d="M56.55 98.98c0.2,0.28 -0.06,0.14 0.36,0.18l0 -0.37c-0.21,0.02 -0.33,-0.01 -0.36,0.19z"/>
   <path class="fil0" d="M56.82 98.7c0.42,-0.03 0.16,0.1 0.37,-0.18 -0.21,-0.28 0.05,-0.15 -0.37,-0.18l0 0.36z"/>
   <path class="fil0" d="M105.86 96.05c0.43,-0.04 0.16,0.1 0.37,-0.19l-0.16 -0.2c-0.26,0.19 -0.21,-0.01 -0.21,0.39z"/>
   <path class="fil0" d="M94.7 96.05c0.43,-0.04 0.16,0.1 0.37,-0.19l-0.17 -0.2c-0.25,0.19 -0.2,-0.01 -0.2,0.39z"/>
  </g>
 </g>
</svg>
