<?xml version="1.0" encoding="UTF-8"?>
<!DOCTYPE svg PUBLIC "-//W3C//DTD SVG 1.1//EN" "http://www.w3.org/Graphics/SVG/1.1/DTD/svg11.dtd">
<!-- Creator: CorelDRAW 2020 (64-Bit) -->
<svg xmlns="http://www.w3.org/2000/svg" xml:space="preserve" width="140px" height="140px" version="1.1" style="shape-rendering:geometricPrecision; text-rendering:geometricPrecision; image-rendering:optimizeQuality; fill-rule:evenodd; clip-rule:evenodd"
viewBox="0 0 140 140"
 xmlns:xlink="http://www.w3.org/1999/xlink"
 xmlns:xodm="http://www.corel.com/coreldraw/odm/2003">
 <defs>
  <style type="text/css">
   <![CDATA[
    .fil0 {fill:#5D5D5E}
   ]]>
  </style>
 </defs>
 <g id="Layer_x0020_1">
  <metadata id="CorelCorpID_0Corel-Layer"/>
  <g id="_2738997201520">
   <path class="fil0" d="M39.35 71.26l0 -1.73 1.52 0 0 2.03 -1.62 0c0.07,-0.12 0.1,-0.11 0.1,-0.3zm-2.64 -1.73l0.4 0 0 2.03 -0.4 0 0 -2.03zm1.11 -0.4l0 -1.73 0.92 0 0 2.03 -1.02 0c0.07,-0.12 0.1,-0.11 0.1,-0.3zm1.53 -2.14l0 -1.72 1.52 0 0 2.03 -1.62 0c0.07,-0.13 0.1,-0.11 0.1,-0.31zm-2.64 -1.83l0.4 0 0 2.14 -0.4 0 0 -2.14zm1.11 -2.13l0.92 0 0 2.13 -0.92 0 0 -2.13zm-1.11 -2.13l0.4 0 0 2.03 -0.4 0 0 -2.03zm2.54 0l1.62 0 0 2.13 -1.52 0 0 -1.83c0,-0.39 0.03,-0.03 -0.1,-0.3zm-1.43 -2.24l0.92 0 0 2.14 -0.92 0 0 -2.14zm1.53 -2.13l1.52 0 0 2.13 -1.52 0 0 -2.13zm-2.64 0l0.4 0 0 2.13 -0.4 0 0 -2.13zm4.26 -2.13l2.34 0 0 2.13 2.13 0 0 -2.13 75.27 0 0 17.16 -72.53 0 0 -2.13 -2.23 0 0 2.13 -2.95 0 0 -2.13 -2.03 0 0 -2.03 2.03 0 0 -2.24 -2.03 0 0 -2.03 2.03 0 0 -2.23 -2.03 0 0 -2.14 2.03 0 0 -2.23 -2.03 0 0 -2.13zm-3.25 0l1.02 0 0 2.03 -1.02 0c0.2,-0.36 0.1,-1.28 0.1,-1.73 0,-0.39 0.03,-0.04 -0.1,-0.3zm-19.09 0.3l0 16.56c0,0.91 0.6,1.62 1.52,1.62l100.46 0c1.17,0 1.52,-0.88 1.52,-1.93l0 -16.25c0,-1.04 -0.49,-1.73 -1.52,-1.73l-100.46 0c-1.03,0 -1.52,0.69 -1.52,1.73z"/>
   <path class="fil0" d="M37.62 83.04l1.12 0 0 1.22 -1.12 0 0 -1.22zm-7.62 0.31c0,-0.24 0.07,-0.31 0.31,-0.31l0.91 0 0 1.22 -1.22 0 0 -0.91zm-3.76 -0.31l1.22 0 0 1.22 -1.22 0 0 -1.22zm1.22 -1.83c-3.94,0 -3.76,-0.18 -3.76,3.05l-1.21 0 0 -3.05 -2.54 0 0 6.1 -1.32 0 0 1.83 2.84 0c0.33,0 1.02,-0.69 1.02,-1.02l0 -2.03c1.35,0 9.96,0.14 10.55,-0.11 0.26,-0.11 0.34,-0.19 0.42,-0.4l0.1 0.51c1.1,0 2.93,0.17 3.52,-0.24l0.44 -0.47 0 0.71c4.1,0 3.86,0.39 3.86,-3.66 0,-0.72 -0.66,-1.22 -1.42,-1.22l-3.56 0c-0.5,0 -0.91,0.22 -1.12,0.5 -0.39,0.52 -0.3,1.79 -0.3,2.55l-1.12 0c0,-3.42 -0.19,-3.05 -3.86,-3.05l0 -1.22 -2.54 0 0 1.22z"/>
   <path class="fil0" d="M83.53 83.14l0 -0.81 1.22 0 0 1.93c-0.68,-0.02 -1.22,-0.45 -1.22,-1.12zm-19.5 1.83c0,0.64 0.65,1.12 1.32,1.12l13.2 0c0.39,0 0.68,-0.25 0.92,-0.41l0 0.41 6.6 0c0.61,0 1.22,-0.61 1.22,-1.22l0 -3.25c0,-0.59 -0.52,-1.12 -1.12,-1.12l-4.06 0c-1.51,0 -1.53,2.75 -0.74,3.48l0.33 0.28 -1.93 0 0 -2.74c0,-0.52 -0.93,-0.31 -2.33,-0.31 -0.24,0 -0.31,0.07 -0.31,0.31l0 2.74 -10.56 0 0 -7.52c0,-0.53 -1.08,-0.3 -2.54,-0.3l0 8.53z"/>
   <path class="fil0" d="M118.37 83.04l1.22 0 0 1.22 -1.22 0 0 -1.22zm-7.52 0l1.12 0 0 1.22 -1.12 0 0 -1.22zm-2.64 -0.41l0 3.46 3.76 0 0 1.22 -3.76 0 0 1.83 5.18 0c0.34,0 0.7,-0.25 0.88,-0.45 0.5,-0.57 0.34,-1.63 0.34,-2.6 1.55,0 2.79,0.25 3.43,-0.43l0.23 -0.28 0 0.71c4.1,0 3.86,0.39 3.86,-3.66 0,-0.72 -0.66,-1.22 -1.42,-1.22l-3.56 0c-1.71,0 -1.42,1.86 -1.42,3.05l-1.12 0c0,-3.48 0.11,-3.05 -4.97,-3.05 -0.89,0 -1.43,0.54 -1.43,1.42z"/>
   <path class="fil0" d="M57.53 83.04l1.12 0 0 1.22 -1.12 0 0 -1.22zm-2.64 -0.2l0 3.25 3.76 0 0 1.22 -3.76 0 0 1.83 5.18 0c0.6,0 1.22,-0.57 1.22,-1.43l0 -5.08c0,-0.88 -0.54,-1.42 -1.42,-1.42l-3.56 0c-1,0 -1.42,0.69 -1.42,1.63z"/>
   <path class="fil0" d="M102.93 76.74l0 7.72c0,1.91 1.3,1.63 2.64,1.63l0 -9.35c0,-0.51 -0.93,-0.3 -2.33,-0.3 -0.24,0 -0.31,0.07 -0.31,0.3z"/>
   <path class="fil0" d="M49.61 81.52l0 5.79 -1.22 0 0 1.83 2.64 0c0.56,0 1.22,-0.66 1.22,-1.22l0 -6.71c-1.49,0 -2.64,-0.23 -2.64,0.31z"/>
   <path class="fil0" d="M95.11 83.04l2.54 0 0 1.22 -3.05 0c-0.45,0 -0.3,0.47 -0.3,1.52 0,0.24 0.07,0.31 0.3,0.31l4.27 0c1.74,0 1.42,-2.06 1.42,-3.25 0,-0.93 -0.43,-1.63 -1.42,-1.63l-3.76 0 0 1.83z"/>
   <path class="fil0" d="M49.5 63.13c0,2.49 -0.44,2.03 1.93,2.03 0.5,0 0.31,-0.74 0.31,-2.03 0,-0.48 -0.68,-0.3 -1.93,-0.3 -0.23,0 -0.31,0.07 -0.31,0.3z"/>
   <path class="fil0" d="M49.71 68.62c0,2.48 -0.45,2.03 1.93,2.03 0.49,0 0.3,-0.74 0.3,-2.03 0,-0.49 -0.68,-0.31 -1.93,-0.31 -0.23,0 -0.3,0.07 -0.3,0.31z"/>
   <path class="fil0" d="M45.95 56.73c0,2.56 -0.2,1.93 1.12,1.93 1.41,0 1.11,0.67 1.11,-2.23 -1.36,0 -2.23,-0.21 -2.23,0.3z"/>
   <path class="fil0" d="M104.96 63.84c0,2.4 -0.49,1.93 2.24,1.93l0 -2.23c-1.37,0 -2.24,-0.21 -2.24,0.3z"/>
   <path class="fil0" d="M50.22 58.46l0 1.93 2.23 0c0,-2.73 0.47,-2.23 -1.93,-2.23 -0.23,0 -0.3,0.07 -0.3,0.3z"/>
   <path class="fil0" d="M59.66 68.31l0 1.93 1.83 0c0.5,0 0.41,0.62 0.41,-2.23 -1.37,0 -2.24,-0.21 -2.24,0.3z"/>
   <path class="fil0" d="M64.33 62.83c0,0.48 0.68,0.3 1.93,0.3 0.51,0 0.31,-0.86 0.31,-2.23l-2.24 0 0 1.93z"/>
   <path class="fil0" d="M67.08 58.46c0,0.49 0.68,0.3 1.93,0.3 0.5,0 0.3,-0.86 0.3,-2.23l-2.23 0 0 1.93z"/>
   <polygon class="fil0" points="71.85,61.3 74.09,61.3 74.09,59.07 71.85,59.07 "/>
   <polygon class="fil0" points="45.95,67.3 48.18,67.3 48.18,65.06 45.95,65.06 "/>
   <polygon class="fil0" points="45.95,63.03 48.18,63.03 48.18,60.8 45.95,60.8 "/>
   <path class="fil0" d="M52.65 57.34l1.93 0c0.24,0 0.31,-0.07 0.31,-0.3l0 -1.93 -2.24 0 0 2.23z"/>
   <path class="fil0" d="M70.33 66.59l1.93 0c0.23,0 0.3,-0.07 0.3,-0.31l0 -1.93 -2.23 0 0 2.24z"/>
   <path class="fil0" d="M76.83 65.16c0,0.24 0.07,0.31 0.3,0.31l1.93 0 0 -2.24 -2.23 0 0 1.93z"/>
   <path class="fil0" d="M59.66 58.46c0,0.23 0.07,0.3 0.31,0.3l1.93 0 0 -2.23 -2.24 0 0 1.93z"/>
   <path class="fil0" d="M97.45 69.73l2.23 0 0 -1.93c0,-0.23 -0.07,-0.3 -0.3,-0.3l-1.93 0 0 2.23z"/>
   <path class="fil0" d="M65.45 69.13c0,0.23 0.07,0.3 0.31,0.3l1.93 0 0 -2.23 -2.24 0 0 1.93z"/>
   <path class="fil0" d="M43.31 69.23c0,0.39 0.22,0.2 1.73,0.2 0.49,0 0.4,0.61 0.4,-2.23l-2.13 0 0 2.03z"/>
   <path class="fil0" d="M74.9 70.24l1.72 0c0.25,0 0.41,0.23 0.41,-0.2l0 -2.03 -2.13 0 0 2.23z"/>
   <polygon class="fil0" points="77.03,58.97 79.16,58.97 79.16,56.73 77.03,56.73 "/>
   <polygon class="fil0" points="98.06,59.58 100.19,59.58 100.19,57.34 98.06,57.34 "/>
   <polygon class="fil0" points="113.6,60.8 115.73,60.8 115.73,58.56 113.6,58.56 "/>
   <polygon class="fil0" points="89.83,65.98 91.96,65.98 91.96,63.74 89.83,63.74 "/>
   <polygon class="fil0" points="43.31,65.27 45.44,65.27 45.44,63.03 43.31,63.03 "/>
   <polygon class="fil0" points="59.36,64.76 61.49,64.76 61.49,62.52 59.36,62.52 "/>
   <polygon class="fil0" points="82.21,62.62 84.34,62.62 84.34,60.39 82.21,60.39 "/>
   <polygon class="fil0" points="88.81,57.75 90.95,57.75 90.95,55.51 88.81,55.51 "/>
   <polygon class="fil0" points="54.18,69.73 56.31,69.73 56.31,67.5 54.18,67.5 "/>
   <polygon class="fil0" points="54.08,65.47 56.21,65.47 56.21,63.23 54.08,63.23 "/>
   <polygon class="fil0" points="55.6,61.2 57.73,61.2 57.73,58.97 55.6,58.97 "/>
   <polygon class="fil0" points="43.31,60.9 45.44,60.9 45.44,58.66 43.31,58.66 "/>
   <path class="fil0" d="M84.34 69.53l1.83 0c0.24,0 0.31,-0.07 0.31,-0.3l0 -1.93 -2.14 0 0 2.23z"/>
   <path class="fil0" d="M76.73 75.83c0,0.64 1.24,0.41 2.54,0.41 0.58,0 0.4,-0.88 0.4,-1.83l-0.71 0 0 1.01 -0.41 0 0 -1.01 -0.71 0 0 1.01 -0.4 0 0 -1.01 -0.71 0 0 1.42z"/>
   <path class="fil0" d="M85.16 78.47c0,-0.51 -0.51,-1.02 -1.02,-1.02 -0.91,0 -1.46,1.05 -0.75,1.77 0.67,0.66 1.77,0.23 1.77,-0.75z"/>
   <path class="fil0" d="M77.34 79.08c0,0.62 0.4,1.01 0.94,1.07 0.2,0.02 0.47,-0.05 0.65,-0.18 0.81,-0.56 0.48,-1.91 -0.58,-1.91 -0.51,0 -1.01,0.51 -1.01,1.02z"/>
  </g>
 </g>
</svg>
