<?xml version="1.0" encoding="UTF-8"?>
<!DOCTYPE svg PUBLIC "-//W3C//DTD SVG 1.1//EN" "http://www.w3.org/Graphics/SVG/1.1/DTD/svg11.dtd">
<!-- Creator: CorelDRAW 2020 (64-Bit) -->
<svg xmlns="http://www.w3.org/2000/svg" xml:space="preserve" width="140px" height="140px" version="1.1" style="shape-rendering:geometricPrecision; text-rendering:geometricPrecision; image-rendering:optimizeQuality; fill-rule:evenodd; clip-rule:evenodd"
viewBox="0 0 140 140"
 xmlns:xlink="http://www.w3.org/1999/xlink"
 xmlns:xodm="http://www.corel.com/coreldraw/odm/2003">
 <defs>
  <style type="text/css">
   <![CDATA[
    .fil3 {fill:black}
    .fil1 {fill:black}
    .fil5 {fill:#030303}
    .fil7 {fill:#060606}
    .fil4 {fill:#202020}
    .fil2 {fill:#585858}
    .fil0 {fill:#989898}
    .fil8 {fill:#F8F8F8}
    .fil6 {fill:#FDFDFE}
   ]]>
  </style>
 </defs>
 <g id="Layer_x0020_1">
  <metadata id="CorelCorpID_0Corel-Layer"/>
  <g id="_2774298661200">
   <path class="fil0" d="M56.36 39.79c0.64,-0.29 1.49,-0.42 2.18,-0.49 1.14,-0.11 2.26,0.01 3.28,0.19 3.94,0.69 6.1,2.82 8.22,5.95 0.62,0.92 2.22,3.65 2.39,4.75 -0.5,-0.18 -1.28,-1.37 -1.64,-1.8 -0.52,-0.6 -1,-1.15 -1.57,-1.75 -2.3,-2.44 -4.33,-4.67 -7.71,-5.54 -0.95,-0.24 -1.8,-0.38 -2.79,-0.55 -0.99,-0.18 -2.08,-0.19 -2.66,-0.29l-0.23 -0.07c-0.02,-0.03 -0.05,-0.02 -0.07,-0.03l0.6 -0.37zm-9.51 -3.03c0.21,-1.44 0.58,-3 0.66,-4.57 0.09,-1.82 -0.23,-3.33 -0.25,-5.1 0.4,0.22 0.43,0.44 0.76,1.09 0.58,1.13 1.08,2.6 1.03,4.01 -0.06,1.61 -1.12,4.31 -2.2,4.57zm-3.77 17.73c0.01,4.56 0.69,7.14 2.12,10.68 1.25,3.12 2.79,5.91 4.57,8.23 3.56,4.62 8.46,8.37 15.47,10.22 7.54,1.98 15.25,1.59 21.38,-1.81 2.81,-1.56 5.24,-3.54 7.4,-5.39 1.35,-1.15 5.03,-5.25 5.82,-6.98l-1.48 1.64c-0.55,0.58 -1.02,1.05 -1.62,1.61 -6.38,6.05 -14.38,9.73 -23.68,8.47 -3.62,-0.49 -7.02,-1.87 -9.8,-3.31 -5.76,-2.97 -10.18,-7.39 -13.14,-12.87 -1.94,-3.58 -2.55,-5.72 -3.52,-9.5 -1.06,-4.18 -0.68,-7.59 -0.22,-11.91 0.92,0.05 3.93,1.49 4.75,1.98 2.56,1.53 5.98,3.81 8.54,5.13 5.55,2.86 8.72,-2.8 14.87,6.6 0.29,0.44 1.64,2.8 1.83,2.96 0.58,-2.66 -0.17,-8.76 -0.99,-11.42 -0.2,-0.66 -0.4,-1.29 -0.6,-1.96 -1.01,-3.3 -3.29,-7.49 -5.38,-9.99 -1.45,-1.73 -3.65,-3.33 -6.98,-3.35 -4.72,-0.02 -7.4,2.37 -9.99,5.1 -1.48,1.54 -0.89,1.41 -3.24,2.84 -0.54,0.33 -1.42,0.96 -2.24,0.79 -0.14,-2.2 3.63,-5.2 5.2,-6.94 0.65,-0.72 0.8,-0.98 0.77,-2.27 -0.08,-3.93 -3.02,-7.07 -6.08,-9.09 -1.31,-0.86 -2.42,-1.43 -3.84,-2.24 -0.71,-0.4 -8.51,-4.28 -8.76,-2.33 -0.11,0.96 1.98,2.72 2.45,3.62 1.37,2.68 -0.41,7.07 5.36,12.86 0.52,0.52 0.96,0.97 1.57,1.46 3.01,2.44 1.63,1.68 0.71,6.19 -0.73,3.55 -1.25,7.06 -1.25,10.98z"/>
   <path class="fil1" d="M86.62 81.81c-6.13,3.4 -13.84,3.79 -21.38,1.81 -7.01,-1.85 -11.91,-5.6 -15.47,-10.22 -1.78,-2.32 -3.32,-5.11 -4.57,-8.23 -1.43,-3.54 -2.11,-6.12 -2.12,-10.68 0,-3.92 0.52,-7.43 1.25,-10.98 0.92,-4.51 2.3,-3.75 -0.71,-6.19 -0.61,-0.49 -1.05,-0.94 -1.57,-1.46 -5.77,-5.79 -3.99,-10.18 -5.36,-12.86 -0.47,-0.9 -2.56,-2.66 -2.45,-3.62 0.25,-1.95 8.05,1.93 8.76,2.33 1.42,0.81 2.53,1.38 3.84,2.24 3.06,2.02 6,5.16 6.08,9.09 0.03,1.29 -0.12,1.55 -0.77,2.27 -1.57,1.74 -5.34,4.74 -5.2,6.94 0.82,0.17 1.7,-0.46 2.24,-0.79 2.35,-1.43 1.76,-1.3 3.24,-2.84 2.59,-2.73 5.27,-5.12 9.99,-5.1 3.33,0.02 5.53,1.62 6.98,3.35 2.09,2.5 4.37,6.69 5.38,9.99 0.2,0.67 0.4,1.3 0.6,1.96 0.82,2.66 1.57,8.76 0.99,11.42 -0.19,-0.16 -1.54,-2.52 -1.83,-2.96 -6.15,-9.4 -9.32,-3.74 -14.87,-6.6 -2.56,-1.32 -5.98,-3.6 -8.54,-5.13 -0.82,-0.49 -3.83,-1.93 -4.75,-1.98 -0.46,4.32 -0.84,7.73 0.22,11.91 0.97,3.78 1.58,5.92 3.52,9.5 2.96,5.48 7.38,9.9 13.14,12.87 2.78,1.44 6.18,2.82 9.8,3.31 9.3,1.26 17.3,-2.42 23.68,-8.47 0.6,-0.56 1.07,-1.03 1.62,-1.61l1.48 -1.64c-0.79,1.73 -4.47,5.83 -5.82,6.98 -2.16,1.85 -4.59,3.83 -7.4,5.39zm-51.68 -63.48l0.66 0c2.03,0.17 5.03,1.64 6.02,2.11 2.75,1.33 5.34,2.8 7.71,4.71 2.54,2.05 5.22,7.24 3.82,9.73 -0.3,0.53 -0.48,0.59 -0.81,1 -1.46,1.82 -4.18,3.43 -4.73,5.8 0.62,-0.15 1.35,-0.73 1.88,-1.06 0.58,-0.37 1.24,-0.78 1.65,-1.3 1.68,-2.1 3.9,-4.25 6.4,-5.36 2.66,-1.18 6.18,-1.39 8.89,-0.1 0.54,0.26 1.08,0.59 1.54,0.93 0.95,0.69 1.7,1.53 2.39,2.46 1.42,1.89 2.68,3.96 3.63,6.14 0.5,1.15 1.02,2.34 1.37,3.56 0.19,0.65 0.38,1.16 0.55,1.83 0.94,3.7 1.46,7.89 0.92,11.78 -0.06,0.44 -0.21,0.74 -0.56,0.57 -0.15,-0.07 -0.11,-0.07 -0.18,-0.18 -0.08,-0.11 -0.14,-0.28 -0.24,-0.44l-1.81 -3.03c-0.97,-1.44 -2.04,-2.93 -3.41,-3.99 -3.49,-2.73 -7.06,-0.36 -10.34,-1.91l-0.94 -0.48c-0.38,-0.18 -0.61,-0.3 -0.93,-0.49 -1.18,-0.72 -2.39,-1.37 -3.56,-2.14 -2.35,-1.54 -4.66,-3 -7.31,-3.98 -1.03,-0.38 -0.81,-0.26 -0.89,1.46 -0.03,0.73 -0.33,3.35 -0.28,3.98 0.04,0.44 0.07,0.78 0.09,1.33 0.17,3.45 1.63,8.1 2.94,11.11 1.16,2.65 2.61,4.92 4.32,7.07 0.86,1.1 1.76,1.99 2.73,2.96l1.52 1.33c1.25,1.11 2.7,2.02 4.13,2.89 0.87,0.52 1.86,1.06 2.81,1.46 1.32,0.54 2.63,1.2 4.02,1.58 0.69,0.19 1.45,0.45 2.25,0.6 4.98,0.97 9.63,0.89 14.38,-1l3.38 -1.55c1.08,-0.54 2.11,-1.18 3.07,-1.87 1.2,-0.85 2.37,-1.72 3.44,-2.73 0.26,-0.23 0.41,-0.3 0.67,-0.56 1.23,-1.24 5.31,-5.35 5.67,-6.67 0.38,0.01 0.35,0.04 0.57,0.19 -0.16,0.59 -1.25,2.23 -1.62,2.84 -0.18,0.29 -0.33,0.57 -0.52,0.9 -0.4,0.66 -0.69,1.21 -1.16,1.78l-2.02 2.45c-0.62,0.81 -1.37,1.54 -2.11,2.25 -1,0.96 -2.13,1.8 -3.21,2.67 -0.91,0.73 -2.36,1.95 -3.41,2.48 -0.38,0.2 -0.61,0.37 -0.95,0.57 -3.76,2.17 -7.91,3.32 -12.81,3.32 -2.84,0 -4.26,-0.17 -7.03,-0.65 -2.25,-0.39 -4.52,-1.08 -6.59,-1.95 -3.66,-1.54 -6.53,-3.56 -9.13,-6.15 -1.27,-1.28 -2.45,-2.72 -3.46,-4.23 -2.05,-3.06 -4.47,-8.07 -5.27,-11.91l-0.28 -1.61c-0.38,-2.87 -0.27,-9.16 0.37,-11.91 0.2,-0.87 0.4,-2.53 0.68,-3.78 0.98,-4.27 2.19,-3.22 -1.06,-5.84 -1.11,-0.89 -2,-1.99 -2.89,-3.09 -2.18,-2.67 -2.64,-5.5 -3.2,-8.85 -0.14,-0.83 -0.23,-1.83 -0.65,-2.39 -0.76,-1.01 -2.39,-2.27 -2.39,-3.59 0,-0.22 0.26,-0.62 0.4,-0.74 0.23,-0.17 0.53,-0.27 0.88,-0.31z"/>
   <path class="fil2" d="M51.47 50.44c-0.91,3.58 -0.51,7.43 0.55,10.58 1.02,3.04 2.39,5.81 4.13,8 3.2,4 8.54,8.06 14.95,9.32 11.84,2.33 22.46,-2.99 27.08,-14.45 0.32,-0.79 1.46,-3.64 1.5,-4.54 -0.72,1.32 -1,2.13 -1.93,3.7 -5.56,9.4 -13.94,14.66 -26.01,12.02 -6.27,-1.37 -10.93,-4.52 -14.05,-8.46 -3.41,-4.31 -5.82,-10.46 -6.22,-16.17z"/>
   <path class="fil3" d="M51.47 50.44c0.4,5.71 2.81,11.86 6.22,16.17 3.12,3.94 7.78,7.09 14.05,8.46 12.07,2.64 20.45,-2.62 26.01,-12.02 0.93,-1.57 1.21,-2.38 1.93,-3.7 -0.04,0.9 -1.18,3.75 -1.5,4.54 -4.62,11.46 -15.24,16.78 -27.08,14.45 -6.41,-1.26 -11.75,-5.32 -14.95,-9.32 -1.74,-2.19 -3.11,-4.96 -4.13,-8 -1.06,-3.15 -1.46,-7 -0.55,-10.58zm-1.01 3.86c0,1.82 0.05,3.19 0.48,4.93l1.14 3.6c0.29,0.7 0.62,1.47 0.96,2.18l1.67 2.97c1.12,1.68 2.54,3.28 4.07,4.57 1.48,1.24 0.91,0.87 3.01,2.4 2.1,1.53 6.11,3.32 8.68,3.85 7.16,1.46 13.72,0.41 19.54,-3.45l2.13 -1.67c0.15,-0.13 0.24,-0.23 0.38,-0.38 0.28,-0.27 0.48,-0.48 0.76,-0.76 1.76,-1.75 3.22,-3.95 4.36,-6.17 0.79,-1.52 1.67,-3.69 2.18,-5.32 0.05,-0.17 0.11,-0.44 0.15,-0.6 0.09,-0.3 0.13,-0.35 0.19,-0.58 0.12,-0.44 0.22,-0.83 0.3,-1.21 0.2,-0.91 0.39,-1.73 0.39,-2.65 -0.22,-0.05 -0.22,-0.07 -0.48,-0.1 -0.6,2.6 -2.95,6.75 -4.38,8.91 -0.22,0.33 -0.4,0.56 -0.63,0.89 -0.62,0.92 -1.35,1.63 -1.98,2.38l-1.52 1.52c-1.28,1.17 -2.68,2.33 -4.26,3.13l-2 0.95c-0.37,0.17 -0.72,0.32 -1.08,0.43 -1.21,0.38 -2.31,0.68 -3.6,0.86 -3.44,0.48 -4.8,0.19 -8.17,-0.27l-2.38 -0.56c-2.69,-0.65 -5.87,-2.19 -8.04,-3.83 -0.31,-0.23 -0.55,-0.42 -0.85,-0.66 -0.32,-0.25 -0.49,-0.43 -0.83,-0.69 -0.83,-0.64 -1.26,-1.26 -1.82,-1.88l-2.79 -3.85 -1.5 -2.96c-0.09,-0.2 -0.12,-0.34 -0.2,-0.56 -0.22,-0.58 -0.4,-0.86 -0.64,-1.64l-0.68 -2.26c-0.77,-2.91 -1.04,-4.87 -1.04,-7.97 -0.33,0.08 -0.3,0.15 -0.44,0.51 -0.12,0.3 -0.19,0.45 -0.28,0.76 -0.52,1.79 -0.8,3.32 -0.8,5.18z"/>
   <path class="fil4" d="M48.37 107.35c-0.21,-0.9 -1.16,-1.95 -2.16,-0.27 -0.38,0.62 -1.24,2.02 -0.6,2.65 0.57,0.57 1.19,0.24 1.43,0.18 -0.2,0.88 -0.86,1.5 -1.58,1.93 -0.39,0.23 -3.4,2.27 -1.27,1.58 0.8,-0.25 2.04,-0.55 2.55,-1.06 1.03,-1.05 1.01,-2.49 1.83,-3.48 0.21,-0.25 0.68,-0.8 0.75,-1.06l0.19 0c0.21,0.8 1.63,1.56 3,-0.23 1.02,-1.34 1.05,-0.73 1.8,-0.94 0.38,-0.11 0.47,-0.39 0.69,-0.65 0.21,-0.26 1.72,-0.69 1.72,-2.73 0,-0.37 0.03,-0.04 -0.09,-0.29 -0.46,0.31 -0.47,1.14 -0.76,1.14 -0.33,0 -0.37,-0.07 -0.67,-0.09l-0.66 1.14c-0.67,-0.06 -0.37,-0.4 -1.53,0.55 -1.19,0.98 -2.74,0.56 -2.74,-1.31 0,-0.8 0.23,-4.64 0.63,-5.17l8.03 -6.57c0.23,-0.19 0.3,-0.21 0.52,-0.43l1.05 -0.95c0.76,-0.77 2.31,-2.19 2.85,-3.03 0.31,-0.5 0.57,-0.83 0.58,-1.41 -0.53,0.04 -0.52,0.4 -1.23,0.95l-3.58 3.25c-0.24,0.24 -0.32,0.27 -0.57,0.48 -0.24,0.21 -0.35,0.32 -0.61,0.53l-1.81 1.6c-0.22,0.2 -0.39,0.32 -0.62,0.52 -0.24,0.21 -0.37,0.29 -0.61,0.52 -1.29,1.2 -3.21,2.18 -3.96,3.92l-0.41 0.73c-0.54,0.77 -0.78,1.44 -0.97,2.36 -0.3,1.51 -0.25,4.95 -1.19,5.64z"/>
   <path class="fil4" d="M64.88 106.02c0,0.7 -0.09,1.27 0.76,1.71 0.24,0.12 1.24,0.29 1.24,0.57 0,0.42 -0.36,1.07 -0.56,1.34 -2.18,2.86 -6.56,2.46 -6.56,-0.11 0,-1.18 0.59,-2.64 0.95,-3.51l0.68 -1.6c0.31,-0.83 0.6,-1.03 0.46,-1.63 -0.37,0.03 -0.36,0.03 -0.66,0.68l-1.34 2.83c-0.95,2.15 -2.3,6.6 0.57,7.88 1.72,0.77 3.73,-0.07 4.92,-1.25l0.82 -0.99c0.64,-0.92 0.75,-1.38 1.1,-2.31 0.41,-1.13 0.56,-1.95 0.56,-3.33 0,-1.38 -1.61,-1.17 -1.61,-1.7 0,-0.9 2.18,-2.85 3.13,-2.85 0.19,0 0.31,0.13 0.57,0.19 0.17,-0.25 0.16,-0.19 0.34,-0.52 0.25,-0.45 0.71,-1.44 0.71,-1.95 0,-0.58 -0.61,-0.24 -0.94,-0.08 -1.51,0.73 -3.33,2.68 -4.18,4.17 -0.31,0.52 -0.96,1.98 -0.96,2.46z"/>
   <path class="fil4" d="M37.17 103.74c0,1.09 -1.8,3.86 -1.8,5.13 0,0.44 0.39,0.77 0.67,0.94 0.2,0.13 0.92,0.52 1.13,0.57 0,0.67 -0.11,1 -0.41,1.39l-0.7 0.73c-1.46,1.18 -6,2.36 -6,-1.55 0,-1.08 0.61,-2.26 0.93,-3.04 0.2,-0.5 0.37,-0.96 0.58,-1.42 0.05,-0.1 0.08,-0.19 0.15,-0.33 0.15,-0.31 0.42,-0.81 0.23,-1.18 -0.45,0.12 -0.68,0.87 -0.94,1.42 -0.27,0.55 -0.53,1.01 -0.76,1.61 -1.14,2.9 -1.14,2.66 -1.14,5.79 0,0.47 0.54,1.38 0.88,1.78 0.77,0.9 1.73,0.88 2.82,0.88 2.08,0 4.05,-2.76 4.8,-4.69l0.3 -0.84c0.04,-0.11 0.08,-0.32 0.1,-0.38 0.21,-1 0.52,-2.34 -0.35,-3.03 -0.26,-0.21 -0.6,-0.47 -0.87,-0.65l0.94 -2.38c0.13,-0.3 0.14,-0.23 0.26,-0.6 0.38,-1.22 0.69,-2.54 0.07,-3.79 -0.2,-0.4 -0.46,-0.89 -0.89,-1.01l-0.89 2.34c-0.11,0.5 0.89,1.74 0.89,2.31z"/>
   <path class="fil4" d="M107.11 108.2c0.49,-0.73 1.97,-2.93 2.85,-1.61 -0.2,0.86 -1.75,1.61 -2.85,1.61zm-1.8 -0.19l-0.91 1.18c-0.66,0.55 -0.83,-0.17 -1.59,0.21 -1.01,0.52 -0.99,1.84 -2.53,1.84 -1.23,0 -1.98,-1.17 -1.64,-2.49 0.15,-0.54 0.33,-0.64 0.22,-1.12 -0.49,0.04 -0.6,0.41 -0.82,0.8 -1.05,1.93 -1.35,3.26 -3.7,4.65 -0.4,0.25 -0.66,0.41 -1.04,0.67 -0.45,0.29 -0.79,0.27 -0.8,0.91 0.49,0 2.53,-0.52 2.92,-0.68 0.74,-0.31 1.61,-1.43 1.73,-1.89 0.52,0.38 0.21,2 2.28,2 1.28,0 1.8,-1.62 2.48,-2.36 0.88,-0.93 1.2,-0.2 1.9,-0.57 0.39,-0.2 0.78,-1.09 1.12,-1.34 0.84,0.22 -0.05,0.56 1.9,0.56 0.85,0 1.52,-0.36 2.06,-0.87 1.33,-1.27 1.83,-2.12 1.83,-4.06 0,-0.61 -0.7,-0.85 -0.86,-0.85 -1.06,0 -2.61,2.3 -3.14,3.11 -0.51,0.77 -0.6,0.37 -1.41,0.3z"/>
   <path class="fil4" d="M89.84 104.69c0,1.64 1.8,0.05 1.8,1.42 0,1.36 -0.71,2.92 -1.58,3.83 -0.43,0.44 -0.93,0.85 -1.49,1.16 -1.18,0.66 -3.81,1.03 -4.9,-0.04 -1.14,-1.12 -0.52,-3.06 0,-4.28l1.05 -2.18c0,-0.37 0.03,-0.04 -0.1,-0.29 -0.44,0.12 -1.34,1.96 -1.55,2.34 -0.15,0.28 -0.18,0.32 -0.32,0.63 -0.9,2 -1.48,5.41 0.5,6.75 1.58,1.08 4.19,0.43 5.43,-0.73 2.2,-2.05 3.17,-3.86 3.87,-6.85 0.25,-1.05 0.38,-2.46 -0.08,-3.44 -1.22,-2.61 -2.63,1.33 -2.63,1.68z"/>
   <path class="fil4" d="M41.35 112c2.39,0 4.47,-4.51 3.54,-6.39 -0.14,-0.28 -0.31,-0.42 -0.52,-0.61 -1.46,-1.37 -2.57,2.02 -2.35,2.53 0.41,0.96 1.57,0.21 1.61,0.2l0.4 0.36c-0.36,1.44 -3.54,1.73 -3.54,-0.46 0,-1.65 0.88,-6.97 0.67,-7.4 -0.42,0.22 -0.46,0.71 -0.8,1.57 -0.05,0.12 -0.08,0.25 -0.12,0.36 -0.13,0.41 -0.16,0.34 -0.24,0.81 -0.18,1.09 -0.39,2.35 -0.52,3.46 -0.21,1.71 -0.78,5.57 1.87,5.57z"/>
   <path class="fil4" d="M80.45 106.59c0,0.75 0.28,1.11 -0.48,1.61 -0.2,-0.85 -1.1,-1.6 -1.85,-0.61 -0.36,0.49 -1.09,1.77 -1.09,2.51 0,1.19 1.55,0.77 1.71,0.76 -0.55,1.03 -0.7,1.27 -1.67,1.94 -0.51,0.35 -1.89,1.12 -2.03,1.67 0.58,0 1.06,-0.19 1.55,-0.35 1.69,-0.55 2.12,-0.69 2.89,-2.8 0.84,-2.27 0.51,-0.94 1.39,-2.41 1.1,-1.85 0.9,-2.66 0.9,-4.88 0,-0.37 0.03,-0.04 -0.09,-0.29 -0.49,0.33 -1.23,2.32 -1.23,2.85z"/>
   <path class="fil5" d="M58.64 40.06c-0.33,-0.07 -0.31,-0.09 -0.45,-0.23 0.88,-0.31 3.62,0.1 4.54,0.32 1.3,0.32 2.45,0.94 3.32,1.6 0.95,0.72 1.74,1.53 2.48,2.45 0.38,0.46 1.82,2.4 1.98,3.02 -0.47,-0.24 -0.9,-0.93 -1.25,-1.28 -2.29,-2.26 -3.91,-4.19 -7.12,-5.14 -1.94,-0.57 -2.25,-0.46 -3.5,-0.74zm-2.88 0.1c0.02,0.01 0.05,0 0.07,0.03l0.23 0.07c0.58,0.1 1.67,0.11 2.66,0.29 0.99,0.17 1.84,0.31 2.79,0.55 3.38,0.87 5.41,3.1 7.71,5.54 0.57,0.6 1.05,1.15 1.57,1.75 0.36,0.43 1.14,1.62 1.64,1.8 -0.17,-1.1 -1.77,-3.83 -2.39,-4.75 -2.12,-3.13 -4.28,-5.26 -8.22,-5.95 -1.02,-0.18 -2.14,-0.3 -3.28,-0.19 -0.69,0.07 -1.54,0.2 -2.18,0.49l-0.6 0.37z"/>
   <path class="fil4" d="M55.58 110.86l0.76 -0.1c-0.14,1.74 -3.09,2.6 -3.89,3.8 0.35,0.29 1.91,-0.36 2.34,-0.51 0.9,-0.3 1.19,-0.46 1.67,-1.18 0.38,-0.57 0.65,-1.13 0.89,-1.85 0.41,-1.23 1.13,-3.52 -0.47,-4.22 -1.05,-0.47 -1.99,1.91 -2.23,2.66 -0.29,0.9 0.38,1.4 0.93,1.4z"/>
   <path class="fil4" d="M73.04 99c0.66,-0.15 0.67,-0.73 1.47,-1.01 1.16,-0.4 1.94,0.4 3.97,-0.48 1.09,-0.47 3.11,-2.26 3.11,-3.64 -0.5,0.04 -0.72,0.42 -1.03,0.69 -0.32,0.29 -0.65,0.46 -1.06,0.65 -1.04,0.47 -1.62,0.33 -3.04,0.37 -1.15,0.02 -1.61,0.62 -2.21,1.21 -0.58,0.58 -1.21,1.29 -1.21,2.21z"/>
   <path class="fil4" d="M94.49 108.68l0.76 -0.11c-0.75,1.44 -1.17,1.63 -2.75,2.67 -0.39,0.25 -0.69,0.47 -0.95,0.85 0.43,0.25 1.75,-0.34 2.24,-0.51 0.77,-0.26 1.09,-0.43 1.54,-1.12 0.6,-0.92 2.29,-5.02 0.32,-5.6 -0.29,-0.09 -0.56,-0.05 -0.81,0.18 -0.12,0.12 -0.41,0.55 -0.51,0.73 -0.31,0.55 -0.51,0.98 -0.74,1.64 -0.34,1.02 0.83,1.28 0.9,1.27z"/>
   <path class="fil4" d="M71.53 110.57c0.32,0 0.36,-0.07 0.66,-0.09 -0.3,1.3 -1.99,2.19 -3.23,3.03 -0.26,0.18 -0.34,0.2 -0.38,0.58 0.48,0 0.65,-0.09 1.02,-0.22 1.14,-0.39 1.97,-0.42 2.57,-1.32 0.56,-0.83 1.35,-2.68 1.35,-3.78 0,-0.72 0.06,-1.72 -0.94,-2.02 -0.96,-0.29 -1.85,1.99 -2.01,2.59 -0.22,0.82 0.39,1.23 0.96,1.23z"/>
   <path class="fil4" d="M90.13 96.62l-0.19 0c-0.15,-0.55 -0.74,-0.94 -1.33,-0.94 -0.36,1.33 -1.8,1.83 -0.53,2.8 0.21,0.17 0.52,0.52 0.72,0.52 0.5,0 0.88,-1.07 1.23,-1.33 0.94,0.63 0.85,1.48 1.86,0.15 1.08,-1.42 -0.04,-2.44 -0.82,-2.62 -0.31,0.21 -0.84,1.02 -0.94,1.42z"/>
   <path class="fil6" d="M58.19 39.83c0.14,0.14 0.12,0.16 0.45,0.23 1.25,0.28 1.56,0.17 3.5,0.74 3.21,0.95 4.83,2.88 7.12,5.14 0.35,0.35 0.78,1.04 1.25,1.28 -0.16,-0.62 -1.6,-2.56 -1.98,-3.02 -0.74,-0.92 -1.53,-1.73 -2.48,-2.45 -0.87,-0.66 -2.02,-1.28 -3.32,-1.6 -0.92,-0.22 -3.66,-0.63 -4.54,-0.32z"/>
   <path class="fil4" d="M37.93 118.55c-0.3,-0.21 -0.62,-0.86 -1.04,-0.86 -0.46,0 -1.23,1.74 -1.33,2.18 0.22,0.34 0.25,0.26 0.54,0.51 0.37,0.32 0.25,0.44 0.79,0.44 0.36,0 0.87,-0.9 0.95,-1.23 0.54,0.14 0.65,0.7 1.23,0.85 0.51,-0.34 1.14,-1.27 1.14,-1.7 0,-0.58 -0.62,-1.36 -1.1,-1.46 -0.47,-0.1 -0.76,0.96 -1.18,1.27z"/>
   <path class="fil4" d="M74.47 110.95c0.59,-0.15 0.94,-1.2 1.12,-1.72 0.12,-0.3 0.25,-0.79 0.3,-1.12 0.06,-0.45 0.06,-0.82 0.12,-1.3 0.11,-0.82 -0.01,-1.89 0.08,-2.77 0.06,-0.49 0.24,-2.26 0.09,-2.58 -0.36,0.1 -0.29,0.17 -0.61,0.83 -1.32,2.76 -0.57,3.86 -0.83,6.28 -0.09,0.79 -0.42,2.07 -0.27,2.38z"/>
   <path class="fil4" d="M53.12 92.83c-0.56,-0.15 -0.6,-0.71 -1.24,-0.86 -0.36,0.25 -1.14,1.74 -1.14,2.09 0,0.29 0.34,0.44 0.54,0.6 0.75,0.61 0.84,0.74 1.65,-0.79 0.69,0.19 0.88,1.29 1.52,0.48 0.4,-0.5 0.66,-0.85 0.66,-1.52 0,-0.5 -0.6,-1.18 -1.01,-1.26 -0.34,-0.08 -0.38,0.16 -0.55,0.46 -0.16,0.26 -0.36,0.52 -0.43,0.8z"/>
   <path class="fil4" d="M64.79 114.18c0.61,0.14 1.88,-0.26 2.48,-0.46 0.9,-0.3 1.21,-0.75 1.6,-1.53l0.89 -2.24c0.21,-0.63 0.65,-1.93 0.53,-2.51 -0.46,0.01 -0.3,-0.08 -0.51,0.25l-0.69 1.59c-0.1,0.27 -0.13,0.29 -0.23,0.52 -0.08,0.18 -0.14,0.32 -0.24,0.52 -0.2,0.4 -0.32,0.6 -0.56,0.96 -1.04,1.49 -3.19,1.88 -3.27,2.9z"/>
   <path class="fil7" d="M47.99 29.29c0.41,0.69 0.6,2.1 0.56,3 -0.03,0.6 -0.11,1.02 -0.26,1.51l-0.61 1.26c-0.02,-1.65 0.48,-2.25 0.26,-5.11 -0.03,-0.46 -0.07,-0.48 0.05,-0.66zm-1.14 7.47c1.08,-0.26 2.14,-2.96 2.2,-4.57 0.05,-1.41 -0.45,-2.88 -1.03,-4.01 -0.33,-0.65 -0.36,-0.87 -0.76,-1.09 0.02,1.77 0.34,3.28 0.25,5.1 -0.08,1.57 -0.45,3.13 -0.66,4.57z"/>
   <path class="fil4" d="M98.57 100.8c0,0.36 0.06,0.31 0.28,0.48 0.09,0.08 0.28,0.2 0.39,0.28 0.25,0.18 0.51,0.39 0.85,0.47 0.4,-0.35 1.01,-1.25 1.11,-1.93 0.06,-0.47 -0.2,-0.74 -0.43,-1.02 -1.04,-1.28 -1.28,-0.5 -1.72,0.39 -0.19,0.37 -0.48,0.8 -0.48,1.33z"/>
   <path class="fil4" d="M82.25 100.23c0.38,-0.25 1.04,-1.29 1.04,-1.9 0,-0.37 -0.83,-1.33 -1.23,-1.33 -0.38,0 -1.05,1.59 -1.13,1.83 -0.24,0.77 1.01,1.33 1.32,1.4z"/>
   <path class="fil4" d="M43.25 99.28c0,0.4 0.03,0.26 0.23,0.43 0.14,0.12 0.21,0.15 0.34,0.24 0.25,0.17 0.47,0.32 0.76,0.47 0.41,-0.36 1.04,-1.51 1.04,-1.99 0,-0.26 -0.56,-1.15 -1.33,-1.33 -0.33,0.31 -0.41,0.53 -0.63,0.98 -0.19,0.37 -0.41,0.7 -0.41,1.2z"/>
   <path class="fil4" d="M51.79 91.12c0,0.13 1.04,1.04 1.23,1.04 0.42,0 1.04,-1.42 1.04,-1.89 0,-0.3 -0.54,-1.24 -1.13,-1.24 -0.43,0 -1.14,1.83 -1.14,2.09z"/>
   <path class="fil8" d="M48.29 33.8c0.15,-0.49 0.23,-0.91 0.26,-1.51 0.04,-0.9 -0.15,-2.31 -0.56,-3 -0.12,0.18 -0.08,0.2 -0.05,0.66 0.22,2.86 -0.28,3.46 -0.26,5.11l0.61 -1.26z"/>
  </g>
 </g>
</svg>
