<?xml version="1.0" encoding="UTF-8"?>
<!DOCTYPE svg PUBLIC "-//W3C//DTD SVG 1.1//EN" "http://www.w3.org/Graphics/SVG/1.1/DTD/svg11.dtd">
<!-- Creator: CorelDRAW 2020 (64-Bit) -->
<svg xmlns="http://www.w3.org/2000/svg" xml:space="preserve" width="140px" height="140px" version="1.1" style="shape-rendering:geometricPrecision; text-rendering:geometricPrecision; image-rendering:optimizeQuality; fill-rule:evenodd; clip-rule:evenodd"
viewBox="0 0 140 140"
 xmlns:xlink="http://www.w3.org/1999/xlink"
 xmlns:xodm="http://www.corel.com/coreldraw/odm/2003">
 <defs>
  <style type="text/css">
   <![CDATA[
    .fil16 {fill:#343434}
    .fil17 {fill:#383738}
    .fil1 {fill:#3A3A3A}
    .fil2 {fill:#3C3C3C}
    .fil6 {fill:#3D3D3D}
    .fil5 {fill:#3E3E3E}
    .fil8 {fill:#3F3F3F}
    .fil9 {fill:#414141}
    .fil19 {fill:#79797A}
    .fil3 {fill:#7B7B7B}
    .fil20 {fill:#DEDFDF}
    .fil21 {fill:#E2E3E3}
    .fil13 {fill:#E4E4E4}
    .fil10 {fill:#E7E7E8}
    .fil15 {fill:#EAEBEB}
    .fil11 {fill:#EBEBEC}
    .fil7 {fill:#EEEEEF}
    .fil12 {fill:#F2F2F3}
    .fil18 {fill:#F3F3F3}
    .fil4 {fill:whitesmoke}
    .fil14 {fill:#F7F7F7}
    .fil0 {fill:#F9F9FA}
   ]]>
  </style>
 </defs>
 <g id="Layer_x0020_1">
  <metadata id="CorelCorpID_0Corel-Layer"/>
  <g id="_2738993630592">
   <path class="fil0" d="M90.94 64.5c-0.43,0.74 -0.52,1.54 -0.96,2.26l-0.54 1.04c-1.96,4.82 -8.07,1.66 -5.96,-2.99 0.19,-0.42 0.21,-0.87 0.33,-1.29 0.19,-0.65 0.98,-2.86 1.38,-3.35l5.6 -13.53c1.86,-3.38 6.37,-3 7.94,0.06l3.7 9.12c0.08,0.18 0.18,0.25 0.3,0.51l2.54 6.24c1.03,2.53 2.04,5.38 -0.31,7.01 -0.69,0.48 -1.4,0.79 -2.55,0.52 -2.44,-0.56 -2.77,-3.64 -3.91,-5.62l-7.56 0.02zm37.1 -4.51l0 3.73 -0.53 1.35c-2.21,6.16 -10.65,8.04 -16.2,5.43 -1.03,-0.48 -2.08,-1.08 -2.9,-1.86 -0.37,-0.34 -0.31,-0.59 -0.77,-0.71 -0.53,1.11 -0.54,1.6 -1.61,2.51 -2.21,1.86 -4.99,1.2 -6.6,-0.95 -0.36,-0.48 -0.74,-1.33 -0.97,-1.89 -0.16,-0.4 -0.61,-1.79 -1.07,-1.79l-5.18 0c-0.46,0 -0.5,0.18 -0.66,0.51 -0.01,0.02 -0.02,0.05 -0.03,0.07 -0.01,0.02 -0.03,0.05 -0.04,0.07 -0.01,0.02 -0.02,0.05 -0.03,0.07 -0.46,0.9 -0.82,2.06 -1.36,2.87 -2.61,3.98 -7.14,1.37 -7.5,0.01l-0.32 0c-0.14,0.53 -0.94,1.17 -1.39,1.46 -0.62,0.42 -1.58,0.65 -2.52,0.65 -1.67,0 -3.8,-1.53 -3.91,-2.85 -0.41,0.11 -0.24,0.08 -0.47,0.48 -0.12,0.21 -0.19,0.33 -0.35,0.5 -0.3,0.33 -0.54,0.6 -0.93,0.86 -2.19,1.48 -4.97,1.09 -6.67,-0.92 -0.32,-0.37 -0.32,-0.8 -0.77,-0.92 -0.17,1.99 -3.81,3.92 -6.41,2.18 -0.43,-0.29 -1.17,-0.83 -1.31,-1.34 -0.49,0.04 -0.44,0.3 -0.8,0.58 -2.01,1.58 -6.87,1.64 -9.45,1.64 -2.87,0 -6.16,-1.18 -8.09,-3.32 -0.02,-0.02 -0.04,-0.04 -0.05,-0.06 -1.04,-1.19 -2.26,-2.57 -2.64,-4.23l-0.21 0c0,0.56 -0.06,0.63 -0.17,1.11 -0.12,0.55 -0.11,0.44 -0.28,0.88 -0.33,0.82 -0.74,1.59 -1.32,2.27 -0.23,0.27 -0.26,0.37 -0.53,0.63l-0.45 0.4c-0.02,0.01 -0.04,0.03 -0.06,0.05l-0.79 0.58c-1,0.67 -1.92,1.11 -3.33,1.42 -4.25,0.94 -9.5,0.67 -12.78,-2.32l-0.31 -0.33c-2.14,-2.44 -1.75,-3.29 -2.34,-5.58 -0.02,-0.08 -0.04,-0.27 -0.05,-0.55l0 -11.35 0 -5.34c0.03,-0.24 0.07,-0.43 0.13,-0.55 0.22,-0.41 0.49,-0.77 0.86,-1.04 1.16,-0.87 4.01,-0.57 5.45,-0.57 3.04,0 3.25,3.59 2.9,5.86 -0.19,1.26 -0.04,8.2 -0.04,9.78 0,1.26 -0.16,3.91 1.58,3.91 1.04,0 1.92,-0.05 2.29,-1.1 0.47,-1.39 0.25,-12.27 0.25,-14.33 0,-0.47 -0.09,-0.47 -0.07,-0.82 0.18,-3.88 3.06,-3.3 6.1,-3.3 4.03,0 3.38,3.16 3.38,6.13 0,0.64 -0.11,0.77 -0.11,1.37 0.43,-0.28 0.61,-1.1 0.88,-1.55 1.56,-2.59 3.66,-4.15 6.46,-5.27 3.22,-1.29 6.84,-1.05 10.18,-0.34 0.74,0.16 2.75,0.66 2.99,1.56 0.56,-0.05 0.69,-0.59 1.08,-0.92 1.9,-1.59 5.79,-1.69 8.02,-0.68 0.58,0.26 1.06,0.6 1.47,1.07l0.47 0.59c0.63,1 1.31,4.22 1.64,5.65 0.32,-0.36 0.35,-1.01 0.45,-1.46 0.23,-0.97 0.91,-3.5 1.32,-4.17 0.9,-1.43 2.69,-2.3 5,-2.3 2.95,0 5.48,0.66 6.3,3.42 0.47,1.63 0.25,12.47 0.25,14.76 0.46,-0.52 0.84,-1.94 1.1,-2.6l3.16 -7.62c1.08,-2.56 2.11,-6.69 4.71,-7.87 0.28,-0.12 0.95,-0.51 1.28,-0.51 2.07,0 2.45,-0.29 4.02,0.53 1.36,0.7 2.34,2.01 2.9,3.44l5.03 12.3c0.16,0.38 0.2,0.95 0.63,1.06 0.12,-0.5 0.39,-0.81 0.73,-1.17 0.43,-0.45 1.23,-0.99 1.91,-1.05 -0.13,-0.52 -0.65,-0.75 -0.97,-1.14 -2.37,-3.01 -2.14,-7.47 0.16,-10.45 0.17,-0.23 0.33,-0.42 0.54,-0.63 3.02,-3.01 9.7,-3.74 13.49,-2.05 2.62,1.18 5.49,4.18 5.49,7.3 0,2.68 -1.88,3.55 -2.22,4.01 0.13,0.17 0.75,0.7 0.98,0.93 1.18,1.17 1.18,2.01 1.67,3.09 0.14,0.31 0.24,0.31 0.3,0.65 0.01,0.02 0.01,0.05 0.01,0.08zm-14.06 0.75l2.47 0.7c0.44,0.13 0.87,0.23 1.25,0.34 0.45,0.14 0.76,0.35 1.15,0.44 -0.04,0.47 -0.31,0.6 -0.68,0.81 -1.02,0.56 -2.49,0.54 -3.3,-0.53 -0.21,-0.28 -0.31,-0.52 -0.46,-0.81 -0.18,-0.34 -0.37,-0.48 -0.43,-0.95zm-56.04 -11.31c0,-1.15 0.08,-2.12 0.54,-2.97 0.31,-0.57 1.17,-1.18 2.06,-1.34 7.5,-1.37 6.7,2.64 7.77,5.48l1.07 4c0.07,0.29 0.11,0.37 0.18,0.65l0.24 0.68c0.39,-0.18 0.14,0.12 0.31,-0.42l0.22 -0.92c0.04,-0.16 0.06,-0.29 0.1,-0.46 0.12,-0.54 0.33,-1.21 0.46,-1.75 0.16,-0.6 0.15,-0.18 0.32,-0.8 0.37,-1.38 0.69,-3.14 1.14,-4.48 0.61,-1.79 2.47,-2.24 4.43,-2.25 3.95,0 5,1.09 5,4.69 0.01,5.1 0,10.21 0,15.32 0,1.38 0.14,2.55 -0.39,3.55 -0.44,0.83 -1.04,1.45 -2.11,1.71 -2.39,0.59 -3.97,-1.19 -3.97,-3.57l-0.01 -4.74c-0.05,-0.22 -0.02,-0.12 -0.11,-0.25 -0.26,0.13 -0.28,0.21 -0.34,0.66 -0.23,1.64 -0.46,1.94 -0.89,3.53 -0.14,0.5 -0.21,0.95 -0.36,1.48 -0.09,0.33 -0.37,0.93 -0.57,1.18 -0.1,0.12 -0.78,0.8 -0.9,0.9 -1.34,1.09 -3.83,1.1 -5.08,-0.54 -1.05,-1.37 -0.71,-1.3 -1.03,-2.48 -0.04,-0.16 -0.19,-0.41 -0.26,-0.66l-0.87 -3.59c-0.12,-0.57 0.08,-0.96 -0.55,-1.03l0.01 5.54c0,1.6 -0.75,3.39 -2.48,3.6 -4.85,0.61 -3.93,-5.04 -3.93,-8.04l0 -12.68zm-12.45 8.88c0,-1.37 0.48,-4.56 1.76,-5.43 2.54,-1.74 6.96,0.67 8.6,0.67 0.36,0 0.41,-0.08 0.74,-0.1l0 8.45c-2.19,-0.51 -3.9,1.17 -6.77,1.17 -2.21,0 -3.56,-0.78 -4.04,-2.73 -0.09,-0.38 -0.29,-1.55 -0.29,-2.03zm-30.46 -10.89c0,-2.74 1.06,-2.37 3.51,-2.37 2.27,0 3.47,-0.21 3.45,2.37 -0.02,3.91 0,7.82 -0.01,11.73 0,2.55 -0.01,5.56 3.22,5.59 2.6,0.01 3.31,-1.92 3.31,-4.42l0 -9.62c-0.02,-6.12 -0.43,-5.56 4.72,-5.55 1.24,0 2.04,0.11 2.17,1.31 0.19,1.83 0,4.83 -0.01,6.78 -0.02,2.28 -0.07,4.45 -0.09,6.76 -0.01,2.69 -0.01,6.16 -2.2,8.13 -2.22,1.99 -4.7,2.44 -7.9,2.43 -3.5,0 -6.71,-0.59 -8.73,-3.42 -1.67,-2.34 -1.34,-7.09 -1.38,-10.63l-0.06 -9.09zm100.43 4.02c1.28,-0.3 2.7,0.17 2.96,1.16 -0.38,-0.03 -0.2,-0.08 -0.71,-0.23l-1.62 -0.5c-0.01,-0.01 -0.37,-0.13 -0.39,-0.14 -0.02,-0.01 -0.05,-0.02 -0.07,-0.04l-0.17 -0.25zm-59.16 0.76c-1.31,0.17 -2.15,-0.36 -3.2,-0.64 -3.08,-0.81 -6.59,-1.06 -8.04,2.27 -0.83,1.89 -0.96,4.39 -0.54,6.61 0.42,2.28 1.84,3.11 3.68,3.8 0.49,0.19 2.99,0.13 3.63,-0.06l1.27 -0.41c0.5,-0.15 0.87,-0.29 1.35,-0.43 2.07,-0.6 2.22,-0.18 2.22,1.31 -0.01,3.2 0.52,4.49 -2.47,5.15 -1.17,0.26 -1.83,0.41 -3.07,0.58 -2.29,0.3 -4.71,0.24 -6.75,-0.31 -0.36,-0.1 -1.19,-0.3 -1.43,-0.46l-0.55 -0.38c-2.09,-1.06 -3.63,-2.85 -4.46,-5 -1.41,-3.65 -1.59,-8.3 -0.1,-12.05 0.32,-0.83 0.63,-1.76 1.2,-2.54 1,-1.36 2.36,-2.65 4.12,-3.42 0.52,-0.22 0.95,-0.33 1.38,-0.52 0.43,-0.19 0.88,-0.35 1.46,-0.48 1.2,-0.26 1.83,-0.39 3.3,-0.37 1.62,0.02 5.17,0.51 6.35,1.16 1.32,0.73 1.02,2.69 1.02,4.69 0,0.98 0.02,0.85 -0.37,1.5zm60.43 18.08c-0.39,0 -0.98,0.02 -1.36,-0.04 -2.87,-0.5 -3.83,-0.81 -6.2,-2.68 -1.49,-1.17 -3.4,-5.28 -1.61,-7.32 0.79,-0.89 2.62,-1.28 3.91,-0.47 0.82,0.52 1.6,2.04 2.07,3 2.42,4.92 10.84,-0.73 4.2,-2.32 -1.31,-0.31 -2.7,-0.7 -3.97,-1.09l-3.58 -1.6c-1.08,-0.93 -1.56,-1.47 -2.3,-2.78 -0.3,-0.53 -0.19,-0.36 -0.35,-1.05 -0.49,-2.25 -0.33,-3.2 0.52,-5.35 1.18,-2.96 5.12,-4.07 8.78,-4.07 3.37,-0.01 5.16,0.67 7.04,2.43 4,3.76 1.44,8.69 -2.13,7.38 -1.98,-0.72 -1.94,-2.78 -3.29,-3.66 -0.46,-0.3 -1.16,-0.5 -1.83,-0.53 -1.35,-0.06 -3.09,0.31 -2.97,1.73 0.09,0.26 0.53,0.49 0.78,0.62 1.35,0.69 0.71,0.54 2.62,1.14 0.72,0.23 1.41,0.24 2.11,0.56 0.46,0.21 1.38,0.37 1.97,0.56 2.8,0.93 4.36,1.84 5.32,4.95 0.23,0.76 0.24,1.48 0.23,2.42 -0.01,1.75 -0.25,2.54 -1.17,4.02 -0.47,0.75 -0.65,0.91 -1.13,1.42 -1.58,1.68 -4.75,2.73 -7.66,2.73z"/>
   <path class="fil1" d="M57.94 49.43l0 12.68c0,3 -0.92,8.65 3.93,8.04 1.73,-0.21 2.48,-2 2.48,-3.6l-0.01 -5.54c0.63,0.07 0.43,0.46 0.55,1.03l0.87 3.59c0.07,0.25 0.22,0.5 0.26,0.66 0.32,1.18 -0.02,1.11 1.03,2.48 1.25,1.64 3.74,1.63 5.08,0.54 0.12,-0.1 0.8,-0.78 0.9,-0.9 0.2,-0.25 0.48,-0.85 0.57,-1.18 0.15,-0.53 0.22,-0.98 0.36,-1.48 0.43,-1.59 0.66,-1.89 0.89,-3.53 0.06,-0.45 0.08,-0.53 0.34,-0.66 0.09,0.13 0.06,0.03 0.11,0.25l0.01 4.74c0,2.38 1.58,4.16 3.97,3.57 1.07,-0.26 1.67,-0.88 2.11,-1.71 0.53,-1 0.39,-2.17 0.39,-3.55 0,-5.11 0.01,-10.22 0,-15.32 0,-3.6 -1.05,-4.69 -5,-4.69 -1.96,0.01 -3.82,0.46 -4.43,2.25 -0.45,1.34 -0.77,3.1 -1.14,4.48 -0.17,0.62 -0.16,0.2 -0.32,0.8 -0.13,0.54 -0.34,1.21 -0.46,1.75 -0.04,0.17 -0.06,0.3 -0.1,0.46l-0.22 0.92c-0.17,0.54 0.08,0.24 -0.31,0.42l-0.24 -0.68c-0.07,-0.28 -0.11,-0.36 -0.18,-0.65l-1.07 -4c-1.07,-2.84 -0.27,-6.85 -7.77,-5.48 -0.89,0.16 -1.75,0.77 -2.06,1.34 -0.46,0.85 -0.54,1.82 -0.54,2.97z"/>
   <path class="fil2" d="M64.37 74.96c0.8,-0.17 1.07,-0.21 1.09,0.57l0.01 3.61c0,0.83 -0.34,0.93 -1.06,0.62 -0.22,-0.59 -0.1,-3.9 -0.04,-4.8zm13.08 4.83l-0.83 0.03c-0.05,-0.68 0.48,-1.57 0.81,-2.53 0.23,-0.65 0.61,-2 0.89,-2.42 1.09,-0.09 1.06,-0.18 1.87,1.89 0.22,0.57 0.99,2.48 0.97,3.04l-0.91 0c-0.25,-0.52 -0.2,-0.63 -0.51,-1.11l-1.8 -0.01c-0.16,0.39 -0.31,0.8 -0.49,1.11zm-42.2 -0.04c0.03,-0.84 0.66,-2.04 0.94,-2.82 0.49,-1.34 0.54,-2.17 1.47,-2.04 0.52,0.08 0.58,0.52 0.81,1 0.18,0.4 0.34,0.86 0.5,1.29 0.21,0.56 0.92,2.14 0.92,2.6 -1.17,0.14 -1.14,-0.07 -1.37,-1.1l-1.84 0.01c-0.31,0.38 -0.17,0.33 -0.4,0.74 -0.17,0.3 0.02,0.34 -1.03,0.32zm-9.51 -3.15c0,-0.55 -0.19,-1.57 0.32,-1.69 0.97,-0.25 0.81,0.39 0.81,1.05 0,1.94 -0.37,3.99 1.82,2.75l0.04 -0.85c0.04,-1.74 -0.34,-3.28 0.68,-2.89 0.36,0.13 0.28,0.16 0.28,0.66 0.02,2.92 0.35,4.35 -2.17,4.27 -1.92,-0.06 -1.78,-1.52 -1.78,-3.3zm-0.98 2.11c-0.57,1.28 -1.59,1.18 -3.27,1.16 -0.81,-0.01 -0.63,-0.14 -0.63,-1.58 0,-3.82 -0.3,-3.4 1.17,-3.39 0.94,0.02 2.51,-0.11 2.85,1.6 0.13,0.67 0.11,1.68 -0.12,2.21zm25.54 -0.32c-0.14,0.35 -0.02,0.12 -0.18,0.39 -1.42,2.48 -5.59,0.46 -4.25,-2.56 0.81,-1.84 3.47,-2.05 4.39,-0.05 0.24,0.53 0.26,1.69 0.04,2.22zm20.17 1.45c-0.13,-0.61 -0.11,-4.26 -0.01,-4.91 1.58,-0.15 0.85,0.5 1.05,1.86l1.44 0c0.6,-0.13 0.22,-0.65 0.38,-1.85 0.46,-0.06 0.57,-0.08 0.93,0.05 0.08,0.76 0.29,4.5 -0.07,4.75 -0.26,0.18 -0.72,0.1 -0.85,-0.12 -0.12,-0.2 -0.02,-1.5 -0.1,-1.91 -1.61,-0.18 -1.83,-0.09 -1.84,0.56 -0.01,1.2 0.4,1.68 -0.93,1.57zm-19.17 -0.07c-0.1,-0.73 -0.03,-2.64 -0.04,-3.6l0.03 -0.93c0.06,-0.21 0.02,-0.12 0.11,-0.24 1.02,-0.88 1.94,2.55 2.65,2.77l0.11 -0.33c0.18,-1.27 -0.57,-2.95 0.87,-2.45 0.22,0.56 0.15,3.92 0.07,4.77 -1.24,0.18 -1.22,-0.26 -1.73,-1.1 -0.22,-0.35 -0.39,-0.69 -0.54,-0.95 -0.18,-0.32 -0.23,-0.71 -0.66,-0.78 -0.19,2.55 0.58,2.99 -0.87,2.84zm18.42 -4.78l0.03 0.65c-0.16,0.09 -0.07,0.06 -0.28,0.1 -0.2,0.04 -0.21,0.03 -0.41,0.03 -0.95,0.04 -0.7,-0.07 -0.7,2.2 0,0.36 0,0.71 0.01,1.06 0.01,0.5 0.08,0.79 -0.47,0.8 -0.54,0 -0.5,-0.2 -0.5,-0.69 -0.01,-0.79 0.19,-2.92 -0.08,-3.22 -0.29,-0.32 -0.48,-0.08 -1.31,-0.18 -0.15,-1.1 0.41,-0.78 1.47,-0.77 0.74,0 1.5,-0.04 2.24,0.02zm-35.1 3.28c0.02,1.24 -1.37,1.88 -2.64,1.49 -1.61,-0.48 -2.05,-2.95 -0.97,-4.11 1.65,-1.77 3.64,-0.5 3.66,0.63 -0.28,0.19 -0.52,0.27 -0.96,0.25 -0.31,-0.49 -0.54,-1.13 -1.42,-0.76 -1.04,0.45 -1.07,2.8 0.02,3.14 0.95,0.3 1.13,-0.35 1.45,-0.82 0.4,-0.03 0.57,0.07 0.86,0.18zm-18.19 1.49c-0.07,-0.58 -0.14,-4.42 0.04,-4.69 0.25,-0.38 3.29,-0.16 3.39,-0.1 0.27,0.18 0.27,0.64 -0.07,0.78 -0.4,0.16 -2.02,-0.12 -2.33,0.09 -0.17,0.12 -0.21,0.66 -0.08,0.87 0.22,0.38 1.81,0.02 2.21,0.19 0.37,0.16 0.36,0.6 0,0.75 -0.57,0.22 -1.6,-0.19 -2.21,0.15 -0.09,0.29 -0.11,0.88 0.06,1.05 0.24,0.26 1,0.15 1.63,0.14 1.62,-0.04 0.89,0.72 0.83,0.76 -0.22,0.13 -3.06,0.07 -3.47,0.01zm45.87 -2.01c0.1,-0.22 0.37,-2.09 0.44,-2.44 0.09,-0.47 0.19,-0.56 0.82,-0.48 0.55,0.07 0.37,0.43 0.28,0.81 -0.26,1.11 -0.76,3.63 -1.24,4.25l-0.93 -0.13c-0.16,-0.33 -0.38,-1.19 -0.47,-1.64 -0.16,-0.7 -0.22,-1.32 -0.49,-1.52 -0.27,0.17 -0.18,0.38 -0.27,0.79l-0.68 2.38c-0.94,0.12 -1.14,0.15 -1.3,-0.71l-0.75 -3.27c-0.3,-0.86 -0.23,-0.96 0.77,-0.87 0.27,0.46 0.32,0.79 0.46,1.42 0.26,1.15 0,1.24 0.4,1.42 0.26,-0.16 0.22,-0.6 0.44,-1.44 0.19,-0.75 0.07,-0.84 0.42,-1.41l1.04 0.01c0.27,0.54 0.31,0.9 0.49,1.51 0.34,1.15 0.01,1.28 0.57,1.32zm-18.88 -2.06l-1.26 0.11c-0.12,0.59 -0.03,2.53 -0.04,3.34 0,0.5 0.01,0.69 -0.54,0.69 -0.76,0 -0.53,-0.46 -0.53,-1.75l-0.02 -1.99c-0.21,-0.77 -1.32,0.16 -1.45,-0.67 -0.12,-0.71 0.69,-0.51 1.26,-0.51 2.23,0 2.95,-0.28 2.58,0.78zm38.65 6.08l0 -8.77 -50.43 0c-2.02,0 -16.21,-0.18 -16.8,0.11 -0.22,0.46 -0.22,8.09 0,8.56 0.25,0.25 30.58,0.1 33.51,0.1 11.24,0 22.48,0 33.72,0z"/>
   <path class="fil1" d="M116.73 70.28c2.91,0 6.08,-1.05 7.66,-2.73 0.48,-0.51 0.66,-0.67 1.13,-1.42 0.92,-1.48 1.16,-2.27 1.17,-4.02 0.01,-0.94 0,-1.66 -0.23,-2.42 -0.96,-3.11 -2.52,-4.02 -5.32,-4.95 -0.59,-0.19 -1.51,-0.35 -1.97,-0.56 -0.7,-0.32 -1.39,-0.33 -2.11,-0.56 -1.91,-0.6 -1.27,-0.45 -2.62,-1.14 -0.25,-0.13 -0.69,-0.36 -0.78,-0.62 -0.12,-1.42 1.62,-1.79 2.97,-1.73 0.67,0.03 1.37,0.23 1.83,0.53 1.35,0.88 1.31,2.94 3.29,3.66 3.57,1.31 6.13,-3.62 2.13,-7.38 -1.88,-1.76 -3.67,-2.44 -7.04,-2.43 -3.66,0 -7.6,1.11 -8.78,4.07 -0.85,2.15 -1.01,3.1 -0.52,5.35 0.16,0.69 0.05,0.52 0.35,1.05 0.74,1.31 1.22,1.85 2.3,2.78l3.58 1.6c1.27,0.39 2.66,0.78 3.97,1.09 6.64,1.59 -1.78,7.24 -4.2,2.32 -0.47,-0.96 -1.25,-2.48 -2.07,-3 -1.29,-0.81 -3.12,-0.42 -3.91,0.47 -1.79,2.04 0.12,6.15 1.61,7.32 2.37,1.87 3.33,2.18 6.2,2.68 0.38,0.06 0.97,0.04 1.36,0.04z"/>
   <path class="fil3" d="M15.03 47.42l0.06 9.09c0.04,3.54 -0.29,8.29 1.38,10.63 2.02,2.83 5.23,3.42 8.73,3.42 3.2,0.01 5.68,-0.44 7.9,-2.43 2.19,-1.97 2.19,-5.44 2.2,-8.13 0.02,-2.31 0.07,-4.48 0.09,-6.76 0.01,-1.95 0.2,-4.95 0.01,-6.78 -0.13,-1.2 -0.93,-1.31 -2.17,-1.31 -5.15,-0.01 -4.74,-0.57 -4.72,5.55l0 9.62c0,2.5 -0.71,4.43 -3.31,4.42 -3.23,-0.03 -3.22,-3.04 -3.22,-5.59 0.01,-3.91 -0.01,-7.82 0.01,-11.73 0.02,-2.58 -1.18,-2.37 -3.45,-2.37 -2.45,0 -3.51,-0.37 -3.51,2.37z"/>
   <path class="fil1" d="M93.29 58.81c-0.06,-0.54 0.88,-2.85 1.19,-3.6 0.09,-0.22 0,-0.02 0.11,-0.22 0.09,-0.16 0.07,-0.12 0.16,-0.22 0.33,0.17 0.23,0.08 0.53,0.87l0.91 2.86c-0.02,0.26 0.01,0.09 -0.08,0.23 -0.19,0.19 -2.54,0.1 -2.82,0.08zm-2.35 5.69l7.56 -0.02c1.14,1.98 1.47,5.06 3.91,5.62 1.15,0.27 1.86,-0.04 2.55,-0.52 2.35,-1.63 1.34,-4.48 0.31,-7.01l-2.54 -6.24c-0.12,-0.26 -0.22,-0.33 -0.3,-0.51l-3.7 -9.12c-1.57,-3.06 -6.08,-3.44 -7.94,-0.06l-5.6 13.53c-0.4,0.49 -1.19,2.7 -1.38,3.35 -0.12,0.42 -0.14,0.87 -0.33,1.29 -2.11,4.65 4,7.81 5.96,2.99l0.54 -1.04c0.44,-0.72 0.53,-1.52 0.96,-2.26z"/>
   <path class="fil3" d="M56.3 52.2c0.39,-0.65 0.37,-0.52 0.37,-1.5 0,-2 0.3,-3.96 -1.02,-4.69 -1.18,-0.65 -4.73,-1.14 -6.35,-1.16 -1.47,-0.02 -2.1,0.11 -3.3,0.37 -0.58,0.13 -1.03,0.29 -1.46,0.48 -0.43,0.19 -0.86,0.3 -1.38,0.52 -1.76,0.77 -3.12,2.06 -4.12,3.42 -0.57,0.78 -0.88,1.71 -1.2,2.54 -1.49,3.75 -1.31,8.4 0.1,12.05 0.83,2.15 2.37,3.94 4.46,5l0.55 0.38c0.24,0.16 1.07,0.36 1.43,0.46 2.04,0.55 4.46,0.61 6.75,0.31 1.24,-0.17 1.9,-0.32 3.07,-0.58 2.99,-0.66 2.46,-1.95 2.47,-5.15 0,-1.49 -0.15,-1.91 -2.22,-1.31 -0.48,0.14 -0.85,0.28 -1.35,0.43l-1.27 0.41c-0.64,0.19 -3.14,0.25 -3.63,0.06 -1.84,-0.69 -3.26,-1.52 -3.68,-3.8 -0.42,-2.22 -0.29,-4.72 0.54,-6.61 1.45,-3.33 4.96,-3.08 8.04,-2.27 1.05,0.28 1.89,0.81 3.2,0.64z"/>
   <path class="fil3" d="M88.43 75.03c0.29,-0.12 0.51,-0.12 0.81,-0.01 0.16,0.39 0.16,4.06 0.06,4.69 -1.36,0.36 -0.96,-0.71 -0.96,-1.85 0,-0.75 -0.13,-2.27 0.09,-2.83zm-4.92 0.05c0.53,-0.07 1.62,-0.09 2.16,-0.04 2.37,0.2 2.05,3.29 1.22,4.17 -0.66,0.71 -1.6,0.57 -2.61,0.58 -0.54,0.01 -0.68,0.1 -0.79,-0.33 -0.05,-0.21 -0.01,-3.96 0.02,-4.38zm28.95 0.99c0,-0.64 -0.21,-1.12 0.47,-1.14 0.75,-0.03 0.85,0.66 1.58,1.79 0.57,0.9 0.24,0.76 0.74,1.01 0.16,-0.21 0.08,0.06 0.17,-0.39 0.01,-0.05 0.02,-0.26 0.02,-0.32 -0.01,-0.69 -0.14,-1.46 0.09,-2.05 1.16,-0.19 0.83,0.35 0.83,2.89 0,2.04 0.18,2.04 -0.99,1.89l-1.27 -1.97c-0.26,-0.47 -0.07,-0.45 -0.54,-0.65 -0.27,0.36 -0.16,0.72 -0.16,1.37 0.01,0.45 0.05,0.9 -0.08,1.24 -0.37,0.14 -0.48,0.12 -0.85,-0.05l-0.01 -3.62zm-9.27 3.7c-0.14,-0.64 -0.1,-3.95 -0.04,-4.71 0.82,-0.04 2.91,-0.21 3.46,0.35 0.32,0.33 0.49,0.91 0.25,1.45 -0.25,0.57 -0.59,0.48 -0.95,0.79 0.06,0.4 1.29,1.32 1.31,2.13l-0.94 -0.04c-0.92,-1.27 -1.13,-2.12 -2.2,-1.95 -0.3,1.63 0.53,2.04 -0.89,1.98zm17.35 -1.68l0.75 0.18c0.14,1.2 -2.21,2.52 -3.64,0.8 -0.32,-0.39 -0.49,-0.93 -0.49,-1.63 -0.03,-3.65 4.24,-2.88 4.12,-1.15l-0.81 0.2c-1.11,-1.54 -2.45,-0.81 -2.34,1.16 0.04,0.65 0.4,1.32 0.96,1.42 0.91,0.18 1.05,-0.56 1.45,-0.98zm-29.33 -1.23c0.96,0.25 2.29,-0.42 1.97,0.81 -0.59,0.13 -1.49,-0.12 -1.92,0.17 -0.22,0.48 0.03,1.51 -0.14,1.78 -0.13,0.21 -0.54,0.25 -0.75,0.1 -0.36,-0.24 -0.15,-4.6 -0.04,-4.71 0.32,-0.14 2.73,-0.11 3.17,-0.02l0.05 0.69c-1.45,0.37 -2.62,-0.7 -2.34,1.18zm34.56 -1.16c-0.55,0.12 -1.19,0.05 -1.75,0.04 -0.9,-0.02 -0.9,0.14 -0.73,1.06 0.59,0.1 2.33,-0.27 2.35,0.43 0.02,0.55 -0.48,0.43 -0.98,0.42 -0.69,-0.02 -1.95,-0.35 -1.38,1.28 0.68,0.26 1.9,-0.08 2.57,0.17l0.01 0.56c-0.47,0.28 -2.94,0.2 -3.58,0.06l0 -4.74 2.59 -0.04c0.73,0 1.23,-0.05 0.9,0.76zm-17.79 3.92c-0.15,-0.24 -0.22,-4.21 -0.03,-4.52 0.19,-0.32 3.35,-0.13 3.35,-0.13 0.25,0.1 0.36,0.5 0.08,0.7 -0.41,0.28 -1.9,-0.12 -2.32,0.13 -0.29,0.16 -0.26,0.74 -0.1,0.94 0.28,0.37 1.7,-0.02 2.15,0.19 0.27,0.12 0.37,0.52 -0.01,0.68 -0.6,0.25 -1.61,-0.17 -2.19,0.15 -0.13,0.35 -0.1,0.86 0.02,1.16 0.55,0.6 2.92,-0.71 2.59,0.81l-2.83 0.06c-0.74,0 -0.6,-0.06 -0.71,-0.17zm-6.14 -2.63l0 0.56 -2.44 0.07c-0.19,2.49 0.84,1.15 2.74,1.51l0.01 0.53c-0.3,0.17 -2.6,0.19 -3.18,0.12 -0.47,-0.06 -0.18,0.05 -0.39,-0.15 -0.24,-0.37 -0.18,-4.17 0.01,-4.62 0.39,-0.16 1.96,-0.06 2.5,-0.07 0.46,0 0.87,-0.12 0.97,0.3 0.13,0.59 -0.41,0.52 -0.86,0.51 -0.72,-0.01 -2.3,-0.3 -1.71,0.93 0.24,0.48 1.86,0.1 2.35,0.31zm-4.31 -1.21c-1.94,0.16 -2.44,-0.52 -2.13,1.11 0.68,0.12 1.98,-0.24 1.97,0.44 -0.01,0.7 -0.98,0.24 -1.75,0.43 -0.69,0.17 0.32,2.57 -1.05,2 -0.33,-0.14 -0.24,-0.39 -0.23,-0.83 0.11,-4.76 -0.69,-3.95 2.21,-3.99 0.73,-0.01 1.51,-0.08 0.98,0.84zm-15.46 5.99l39.84 0c1.57,0 4.32,0.2 5.6,-0.1 0,-1.34 0.2,-7.92 -0.1,-8.56 -0.28,-0.28 -41.43,-0.11 -45.34,-0.11l0 8.77z"/>
   <path class="fil4" d="M84.36 96.89c-0.07,-0.28 -0.12,-10.01 -0.01,-11.19 0.06,-0.7 0.34,-1.08 0.85,-1.42 1.18,-0.78 2.65,0.05 2.74,1.19 0.09,1.21 0,7.26 0,8.99 0,1.66 0.22,2.86 -0.86,3.64 -0.62,0.45 -1.68,0.51 -2.33,-0.52l-0.39 -0.69zm43.68 -11.41l0 11c-0.03,0.58 -0.16,0.46 -0.43,1.03 -0.46,0.98 -1.28,1.6 -2.42,1.6 -2.03,0 -4.13,-3.7 -5.15,-5.42 -0.42,-0.73 -0.27,-0.71 -0.66,-0.82 0.01,0.48 0.1,0.42 0.1,0.95l0 2.33c0,2.44 -2.67,4.38 -4.54,1.59 -0.28,0.2 -0.21,0.25 -0.44,0.51l-0.45 0.39c-1.39,0.91 -2.77,0.27 -3.45,-0.91 -0.19,-0.34 -0.38,-0.73 -0.56,-1.12 -0.24,-0.5 -0.16,-0.88 -0.81,-0.88l-2.44 0.05c-0.35,0 0.17,-0.05 -0.31,-0.05 -0.64,0 -0.68,1.08 -1.23,2.04 -0.66,1.15 -2.01,1.8 -3.42,0.91 -0.38,-0.23 -0.41,-0.51 -0.85,-0.63 -0.3,0.22 -0.12,0.18 -0.42,0.42 -3.22,2.65 -5.32,-3.61 -6.36,-4.73 -0.15,-0.15 -0.6,-0.55 -0.83,-0.55 -0.63,0 -0.31,0.21 -0.31,0.63l0 2.22c0,1.85 -1.33,3.07 -2.33,3.07 -1.3,0 -0.58,0.04 -0.93,-0.12 -1.45,-0.65 -0.81,-1.08 -1.61,-1.15 -0.09,0.34 -0.3,0.6 -0.56,0.81 -0.83,0.62 -0.85,0.46 -2.18,0.46 -0.18,0 -0.72,-0.39 -0.87,-0.51 -0.88,-0.69 -0.93,-1.79 -0.93,-2.87l-0.02 -9.96c0.25,-2.88 3.55,-3.47 4.67,-1.35 0.76,-0.51 0.78,-1.27 2.85,-1.27 3.19,0 6.59,-0.47 8.61,1.43l0.96 1.26c0.02,0.02 0.03,0.05 0.04,0.07 0.01,0.02 0.03,0.04 0.04,0.07 0.1,0.18 0.1,0.19 0.16,0.36 0.39,1.15 0.38,2.46 -0.05,3.6 -0.44,1.15 -0.96,1.65 -1.93,2.3l2.11 3.06 2.28 -5.86c0.1,-0.25 0.2,-0.47 0.31,-0.74l0.97 -2.52c0.12,-0.28 0.19,-0.46 0.3,-0.75 1.1,-2.79 4.39,-3.04 5.76,-0.27l2 4.54c0.21,0.47 0.4,1.02 0.59,1.53 0.24,0.62 0.94,2.74 1.32,3.02 0,-2.22 0,-4.44 0,-6.66 0,-1.21 -0.13,-2.11 0.36,-2.92 0.9,-1.5 1.7,-1.42 2.81,-1.42 1.28,0 3.02,3.02 3.8,4.24 0.31,0.49 1.09,1.84 1.48,2.11 0,-1.27 -0.01,-2.55 0,-3.81 0.01,-1.13 0.63,-1.95 1.37,-2.33 2.1,-1.08 3.51,1.39 3.6,2.01l0 0.01zm-17.71 9.47l-4.67 -0.03c-0.59,0.72 -0.45,1.29 -1.07,2.4 -0.37,0.66 -1.32,1.39 -2.24,0.83 -1.63,-1 -0.33,-2.95 0.38,-4.88l2.98 -7.49c0.67,-1.72 2.13,-2.16 3.36,-1.42 0.57,0.35 0.5,0.41 0.82,0.99l4.15 9.91c0.42,0.97 0.43,1.95 -0.21,2.54 -0.75,0.69 -1.94,0.53 -2.44,-0.33 -0.73,-1.28 -0.94,-2.31 -1.06,-2.52zm13.56 -2.96c0.39,-4.36 -1.17,-8.36 2.25,-8.01 0.65,1.14 0.93,-0.01 0.93,2.87l0 8.03c0,1.33 0.13,2.54 -0.83,3.16 -0.39,0.26 -1.1,0.31 -1.65,0.16 -1.11,-0.3 -3.85,-4.67 -4.38,-5.61l-0.79 -1.22c-0.34,-0.58 -0.12,-1.08 -0.86,-1.11 -0.1,1.53 0,3.58 0.03,5.15 0.01,0.85 0.05,1.66 -0.39,2.21 -0.38,0.48 -0.99,0.99 -1.84,0.49 -1.26,-0.75 -0.92,-2.6 -0.92,-4.29 0,-1.72 0,-3.45 0,-5.17 0,-1.53 -0.34,-3.61 0.88,-4.33 0.53,-0.32 1.75,-0.28 2.19,0.12 0.52,0.46 3.56,5.18 4.18,6.18 0.16,0.24 0.33,0.51 0.51,0.75 0.31,0.4 0.23,0.58 0.69,0.62zm-26.01 -0.21c0.04,0.69 0.73,1.36 1.09,1.84 0.76,1.04 2.17,2.82 1.42,3.94 -0.35,0.53 -1.28,0.98 -2.14,0.57 -1.24,-0.59 -2.81,-4.13 -3.56,-4.99 -0.47,-0.53 -1.08,-0.81 -1.85,-0.75 -0.6,0.05 0.45,-0.08 -0.2,0.03 -0.23,0.04 -0.23,0.04 -0.28,0.35 -0.2,1.26 0.38,3.68 -0.48,4.85 -0.58,0.78 -1.7,1.23 -2.74,0.02 -0.24,-0.29 -0.3,-0.75 -0.34,-1.11 -0.12,-0.92 -0.11,-10.74 0.03,-11.31 0.41,-1.54 2.85,-1.18 4.54,-1.18 2.24,0.01 3.48,-0.2 5.12,0.63 1.28,0.64 2.05,1.93 1.88,3.87 -0.13,1.56 -0.93,2.87 -2.49,3.24z"/>
   <path class="fil5" d="M92.24 88.01c0,-1.13 -0.14,-1.06 1.03,-1.06 1.72,-0.01 3.47,-0.33 4,0.95 0.39,0.96 -0.23,1.58 -0.72,1.91 -0.6,0.41 -3.81,0.32 -4,0.27 -0.5,-0.11 -0.31,-0.96 -0.31,-2.07zm5.64 3.77c1.56,-0.37 2.36,-1.68 2.49,-3.24 0.17,-1.94 -0.6,-3.23 -1.88,-3.87 -1.64,-0.83 -2.88,-0.62 -5.12,-0.63 -1.69,0 -4.13,-0.36 -4.54,1.18 -0.14,0.57 -0.15,10.39 -0.03,11.31 0.04,0.36 0.1,0.82 0.34,1.11 1.04,1.21 2.16,0.76 2.74,-0.02 0.86,-1.17 0.28,-3.59 0.48,-4.85 0.05,-0.31 0.05,-0.31 0.28,-0.35 0.65,-0.11 -0.4,0.02 0.2,-0.03 0.77,-0.06 1.38,0.22 1.85,0.75 0.75,0.86 2.32,4.4 3.56,4.99 0.86,0.41 1.79,-0.04 2.14,-0.57 0.75,-1.12 -0.66,-2.9 -1.42,-3.94 -0.36,-0.48 -1.05,-1.15 -1.09,-1.84z"/>
   <path class="fil6" d="M123.89 91.99c-0.46,-0.04 -0.38,-0.22 -0.69,-0.62 -0.18,-0.24 -0.35,-0.51 -0.51,-0.75 -0.62,-1 -3.66,-5.72 -4.18,-6.18 -0.44,-0.4 -1.66,-0.44 -2.19,-0.12 -1.22,0.72 -0.88,2.8 -0.88,4.33 0,1.72 0,3.45 0,5.17 0,1.69 -0.34,3.54 0.92,4.29 0.85,0.5 1.46,-0.01 1.84,-0.49 0.44,-0.55 0.4,-1.36 0.39,-2.21 -0.03,-1.57 -0.13,-3.62 -0.03,-5.15 0.74,0.03 0.52,0.53 0.86,1.11l0.79 1.22c0.53,0.94 3.27,5.31 4.38,5.61 0.55,0.15 1.26,0.1 1.65,-0.16 0.96,-0.62 0.83,-1.83 0.83,-3.16l0 -8.03c0,-2.88 -0.28,-1.73 -0.93,-2.87 -3.42,-0.35 -1.86,3.65 -2.25,8.01z"/>
   <path class="fil7" d="M27.16 88.33c0,-0.84 0.43,-1.36 1.32,-1.31 1.39,0.07 1,2.36 1,4.27 0,2.84 -0.25,2.68 1.11,2.66 0.96,-0.01 2.26,-0.16 2.68,0.36 0.44,0.54 0.6,1.77 -1.47,1.77 -3.43,0 -4.63,0.45 -4.64,-1.73l0 -6.02zm-6.08 5.82c-0.38,0.7 -0.86,2.97 -2.24,1.7 -0.77,-0.7 0.17,-2.46 0.48,-3.38 0.2,-0.61 0.38,-1.09 0.61,-1.71 0.15,-0.4 0.22,-0.43 0.38,-0.75 0.41,-0.82 0.52,-3.5 2.54,-2.95 0.85,0.24 1.41,2.06 1.67,2.9l1.24 3.19c0.44,0.89 1.14,2.94 -0.46,3.03 -0.81,0.04 -0.97,-0.52 -1.18,-1.07 -0.36,-0.99 -0.34,-0.94 -0.71,-1l-2.33 0.04zm25.15 2.01c-2.93,0 -3.97,-1.97 -3.96,-4.66 0.02,-2.71 1.31,-4.47 4.17,-4.47 2.75,0.01 3.95,1.97 3.94,4.68 -0.01,2.76 -1.32,4.45 -4.15,4.45zm5.27 -7.2c0,-1.38 0.08,-1.73 1.5,-1.73 2.72,0 5.41,-0.56 5.41,2.47 0,1.44 -0.46,1.82 -1.35,2.22 -0.06,0.74 0.39,0.44 1.18,2.39 0.7,1.69 -0.49,2.13 -1.21,1.72 -1.43,-0.79 -1.41,-3.78 -3.35,-3.53 -0.16,1.55 0.28,2.78 -0.39,3.41 -0.5,0.46 -1.79,0.75 -1.79,-1.35l0 -5.6zm-17.22 -1.37c0.51,-0.22 0.51,-0.48 1.27,-0.49 1.61,-0.01 4,-0.19 4.86,0.8 0.54,0.61 0.9,2.16 0.18,2.93 -0.9,0.97 0.71,0.28 0.71,2.47 0,1.91 -1.23,2.67 -3,2.68 -3.44,0 -4.11,0.41 -4.11,-1.63 -0.01,-2.32 -0.08,-4.46 0.09,-6.76zm24.62 1.38c0.85,0.21 -0.03,0.67 2.13,0.63 0.56,-0.01 0.98,-0.19 0.89,0.15 -0.02,0.08 -2.93,3.78 -3.22,3.97 -0.1,-0.15 -0.12,-0.2 -0.19,-0.34l-0.76 -1.04c0.74,-1.1 1.52,-0.87 1.15,-3.37zm0.53 -0.22c-0.36,-2.15 1.13,-1.64 4.98,-1.64 0.71,0 0.93,0 1.31,0.34 1.1,0.99 -0.2,2.11 -0.24,2.16l-2.15 2.71c-0.32,0.38 -1.3,1.47 -1.3,1.88 1.12,0.06 5.31,-0.62 4.21,1.33 -0.29,0.51 -0.8,0.44 -1.41,0.44l-4.12 0c-1.06,0 -1.89,-0.1 -1.7,-1.4 0.09,-0.59 0.9,-1.37 1.24,-1.85 0.42,-0.57 0.87,-1.14 1.33,-1.74 0.55,-0.71 1.22,-1.3 1.29,-1.86 -1.66,-0.07 -2.39,0.24 -3.44,-0.37zm-41.42 6.03c0,0.59 -0.01,1.48 0.99,1.85 1.56,0.58 2.13,-0.82 2.39,-1.96 0.74,-0.17 0.39,0 1.06,0 1.13,0 0.61,-0.55 1.28,1.05 0.13,0.32 0.24,0.5 0.56,0.71 0.7,0.47 1.29,0.46 1.9,-0.03 0.14,-0.12 0.21,-0.16 0.34,-0.29 0.27,-0.27 0.03,-0.14 0.36,-0.38 0.02,0.02 0.09,0.09 0.1,0.11 0.28,0.32 0.59,0.73 1.17,0.73l4.33 0c0.63,0 1.03,-0.24 1.16,-0.74 0.78,0.07 0.44,0.74 1.59,0.74 2.44,0 5.58,0.52 6.48,-2.08 0.1,-0.31 0.05,-0.39 0.18,-0.67 0.33,0.24 0.13,0.12 0.32,0.53 1.18,2.59 4.97,3.2 7.05,1.45 0.59,-0.49 1.43,-1.56 1.51,-2.5l0.21 0c0,1.33 -0.46,2.1 0.46,3.02 1,1.01 2.81,0.17 2.81,-1.33l-0.1 -1.8c0.53,0.04 0.24,-0.02 0.81,0.88l0.63 1.16c1.43,2.84 3.08,0.92 3.32,0.92 0.33,0 0.32,0.42 1.16,0.42l5.49 0c0.58,0 2.1,-1.17 0.98,-2.46 -0.72,-0.83 -1.49,-0.5 -3.51,-0.5l2.74 -3.49c0.61,-0.72 1.35,-2 0.45,-2.87 -0.26,-0.25 -0.7,-0.61 -1.08,-0.61l-5.07 0c-0.35,0 -0.81,0.31 -0.98,0.51 -0.35,0.42 -0.18,0.59 -0.18,1.18 -0.5,-0.14 -0.31,-0.33 -1.14,-1.09 -0.22,-0.2 -0.37,-0.29 -0.66,-0.39 -1.07,-0.37 -3.35,-0.21 -4.76,-0.21 -0.67,0 -1.48,0.84 -1.48,1.48 0,0.73 0.11,1.03 0.11,1.79l-0.21 0c-0.09,-1 -0.87,-1.89 -1.45,-2.46 -1.16,-1.12 -3.66,-1.32 -5.11,-0.61 -1.07,0.53 -2.02,1.59 -2.28,2.8 -0.21,0.92 -0.25,1.15 -0.25,2.28 -0.22,-0.08 -0.08,-0.02 -0.2,-0.12 -0.02,-0.02 -0.19,-0.19 -0.21,-0.22 -0.34,-0.42 -0.16,-0.45 0.05,-1.07 0.66,-1.86 -0.61,-3.87 -2.71,-3.87l-3.7 0c-0.34,0 -0.99,0.68 -1.14,0.97 -0.26,0.55 -0.13,5.49 -0.13,6.32 -1.1,-0.3 0.68,-0.57 -2.64,-0.53 -1.29,0.02 -1.06,0.33 -1.06,-2.22 0,-1.01 0.05,-2.35 0.04,-3.16 -0.01,-0.56 -0.17,-0.76 -0.48,-1.05 -0.87,-0.81 -1.88,-0.67 -2.55,0.26 -0.4,0.56 -0.28,1.08 -0.28,1.94 0,1.52 0,3.03 0,4.55l-2.43 -6.13c-0.96,-1.54 -2.8,-1.6 -3.64,0.07 -0.2,0.41 -0.32,0.68 -0.49,1.09l-1.96 5.33c-0.11,0.28 -0.15,0.35 -0.15,0.7z"/>
   <path class="fil6" d="M109.52 92.43c-0.24,0.17 -0.34,0.11 -0.92,0.1 -1.53,-0.02 -2.32,0.24 -1.68,-0.93 0.32,-0.58 0.42,-0.85 0.63,-1.44 0.22,-0.64 0.36,-1.32 0.62,-1.45 0.33,0.2 0.2,-0.01 0.33,0.48 0.24,0.9 0.44,1.49 0.89,2.36 0.33,0.64 0.3,0.64 0.13,0.88zm0.81 2.52c0.12,0.21 0.33,1.24 1.06,2.52 0.5,0.86 1.69,1.02 2.44,0.33 0.64,-0.59 0.63,-1.57 0.21,-2.54l-4.15 -9.91c-0.32,-0.58 -0.25,-0.64 -0.82,-0.99 -1.23,-0.74 -2.69,-0.3 -3.36,1.42l-2.98 7.49c-0.71,1.93 -2.01,3.88 -0.38,4.88 0.92,0.56 1.87,-0.17 2.24,-0.83 0.62,-1.11 0.48,-1.68 1.07,-2.4l4.67 0.03z"/>
   <path class="fil8" d="M84.75 97.58c0.65,1.03 1.71,0.97 2.33,0.52 1.08,-0.78 0.86,-1.98 0.86,-3.64 0,-1.73 0.09,-7.78 0,-8.99 -0.09,-1.14 -1.56,-1.97 -2.74,-1.19 -0.51,0.34 -0.79,0.72 -0.85,1.42 -0.11,1.18 -0.06,10.91 0.01,11.19l0.39 0.69z"/>
   <path class="fil6" d="M36.48 94.06c-0.12,-0.31 -0.1,-0.66 -0.1,-1.09 0,-0.52 -0.07,-0.67 0.44,-0.73 3.13,-0.34 2.43,1.52 1.82,1.8 -0.45,0.21 -1.78,0.16 -2.16,0.02zm2.24 -3.93c-0.57,0.42 -0.72,0.4 -1.7,0.37 -0.58,-0.02 -0.77,0.06 -0.59,-1.41 0.73,-0.09 1.72,-0.12 2.29,0.19l0 0.85zm-4.44 -2.54c-0.17,2.3 -0.1,4.44 -0.09,6.76 0,2.04 0.67,1.63 4.11,1.63 1.77,-0.01 3,-0.77 3,-2.68 0,-2.19 -1.61,-1.5 -0.71,-2.47 0.72,-0.77 0.36,-2.32 -0.18,-2.93 -0.86,-0.99 -3.25,-0.81 -4.86,-0.8 -0.76,0.01 -0.76,0.27 -1.27,0.49z"/>
   <path class="fil6" d="M53.69 90.02c-0.08,-1.12 0.21,-0.97 0.67,-0.98 1.18,-0.02 1,-0.01 1.74,0.4 0.08,0.77 -0.03,1.1 -0.68,1.22 -0.46,0.08 -1.26,0.1 -1.58,-0.07l-0.15 -0.57zm-2.19 -1.06l0 5.6c0,2.1 1.29,1.81 1.79,1.35 0.67,-0.63 0.23,-1.86 0.39,-3.41 1.94,-0.25 1.92,2.74 3.35,3.53 0.72,0.41 1.91,-0.03 1.21,-1.72 -0.79,-1.95 -1.24,-1.65 -1.18,-2.39 0.89,-0.4 1.35,-0.78 1.35,-2.22 0,-3.03 -2.69,-2.47 -5.41,-2.47 -1.42,0 -1.5,0.35 -1.5,1.73z"/>
   <path class="fil1" d="M48.14 92.34c-0.11,0.59 -0.3,1.2 -0.74,1.49 -1.97,1.27 -3.44,-0.86 -2.9,-3.12 0.74,-3.16 4.34,-2 3.64,1.63zm-1.91 3.82c2.83,0 4.14,-1.69 4.15,-4.45 0.01,-2.71 -1.19,-4.67 -3.94,-4.68 -2.86,0 -4.15,1.76 -4.17,4.47 -0.01,2.69 1.03,4.66 3.96,4.66z"/>
   <path class="fil8" d="M21.08 94.15l2.33 -0.04c0.37,0.06 0.35,0.01 0.71,1 0.21,0.55 0.37,1.11 1.18,1.07 1.6,-0.09 0.9,-2.14 0.46,-3.03l-1.24 -3.19c-0.26,-0.84 -0.82,-2.66 -1.67,-2.9 -2.02,-0.55 -2.13,2.13 -2.54,2.95 -0.16,0.32 -0.23,0.35 -0.38,0.75 -0.23,0.62 -0.41,1.1 -0.61,1.71 -0.31,0.92 -1.25,2.68 -0.48,3.38 1.38,1.27 1.86,-1 2.24,-1.7z"/>
   <path class="fil6" d="M59.43 88.75c1.05,0.61 1.78,0.3 3.44,0.37 -0.07,0.56 -0.74,1.15 -1.29,1.86 -0.46,0.6 -0.91,1.17 -1.33,1.74 -0.34,0.48 -1.15,1.26 -1.24,1.85 -0.19,1.3 0.64,1.4 1.7,1.4l4.12 0c0.61,0 1.12,0.07 1.41,-0.44 1.1,-1.95 -3.09,-1.27 -4.21,-1.33 0,-0.41 0.98,-1.5 1.3,-1.88l2.15 -2.71c0.04,-0.05 1.34,-1.17 0.24,-2.16 -0.38,-0.34 -0.6,-0.34 -1.31,-0.34 -3.85,0 -5.34,-0.51 -4.98,1.64z"/>
   <path class="fil9" d="M27.16 88.33l0 6.02c0.01,2.18 1.21,1.73 4.64,1.73 2.07,0 1.91,-1.23 1.47,-1.77 -0.42,-0.52 -1.72,-0.37 -2.68,-0.36 -1.36,0.02 -1.11,0.18 -1.11,-2.66 0,-1.91 0.39,-4.2 -1,-4.27 -0.89,-0.05 -1.32,0.47 -1.32,1.31z"/>
   <path class="fil10" d="M62.3 77.75c-0.56,-0.04 -0.23,-0.17 -0.57,-1.32 -0.18,-0.61 -0.22,-0.97 -0.49,-1.51l-1.04 -0.01c-0.35,0.57 -0.23,0.66 -0.42,1.41 -0.22,0.84 -0.18,1.28 -0.44,1.44 -0.4,-0.18 -0.14,-0.27 -0.4,-1.42 -0.14,-0.63 -0.19,-0.96 -0.46,-1.42 -1,-0.09 -1.07,0.01 -0.77,0.87l0.75 3.27c0.16,0.86 0.36,0.83 1.3,0.71l0.68 -2.38c0.09,-0.41 0,-0.62 0.27,-0.79 0.27,0.2 0.33,0.82 0.49,1.52 0.09,0.45 0.31,1.31 0.47,1.64l0.93 0.13c0.48,-0.62 0.98,-3.14 1.24,-4.25 0.09,-0.38 0.27,-0.74 -0.28,-0.81 -0.63,-0.08 -0.73,0.01 -0.82,0.48 -0.07,0.35 -0.34,2.22 -0.44,2.44z"/>
   <path class="fil11" d="M47.48 75.94c0.79,-0.41 1.68,-0.02 1.83,0.77 0.18,0.93 0.01,1.85 -0.62,2.15 -1.93,0.92 -2.47,-2.27 -1.21,-2.92zm2.82 2.45c0.22,-0.53 0.2,-1.69 -0.04,-2.22 -0.92,-2 -3.58,-1.79 -4.39,0.05 -1.34,3.02 2.83,5.04 4.25,2.56 0.16,-0.27 0.04,-0.04 0.18,-0.39z"/>
   <path class="fil12" d="M51.3 79.77c1.45,0.15 0.68,-0.29 0.87,-2.84 0.43,0.07 0.48,0.46 0.66,0.78 0.15,0.26 0.32,0.6 0.54,0.95 0.51,0.84 0.49,1.28 1.73,1.1 0.08,-0.85 0.15,-4.21 -0.07,-4.77 -1.44,-0.5 -0.69,1.18 -0.87,2.45l-0.11 0.33c-0.71,-0.22 -1.63,-3.65 -2.65,-2.77 -0.09,0.12 -0.05,0.03 -0.11,0.24l-0.03 0.93c0.01,0.96 -0.06,2.87 0.04,3.6z"/>
   <path class="fil11" d="M21.96 75.8c0.89,-0.09 1.63,-0.06 1.87,0.65 0.2,0.58 0.12,1.8 -0.2,2.17 -0.27,0.33 -0.61,0.33 -1.08,0.33 -0.64,0 -0.66,-0.02 -0.66,-0.65 0.01,-0.62 -0.04,-1.97 0.07,-2.5zm2.8 2.91c0.23,-0.53 0.25,-1.54 0.12,-2.21 -0.34,-1.71 -1.91,-1.58 -2.85,-1.6 -1.47,-0.01 -1.17,-0.43 -1.17,3.39 0,1.44 -0.18,1.57 0.63,1.58 1.68,0.02 2.7,0.12 3.27,-1.16z"/>
   <path class="fil7" d="M112.46 76.07l0.01 3.62c0.37,0.17 0.48,0.19 0.85,0.05 0.13,-0.34 0.09,-0.79 0.08,-1.24 0,-0.65 -0.11,-1.01 0.16,-1.37 0.47,0.2 0.28,0.18 0.54,0.65l1.27 1.97c1.17,0.15 0.99,0.15 0.99,-1.89 0,-2.54 0.33,-3.08 -0.83,-2.89 -0.23,0.59 -0.1,1.36 -0.09,2.05 0,0.06 -0.01,0.27 -0.02,0.32 -0.09,0.45 -0.01,0.18 -0.17,0.39 -0.5,-0.25 -0.17,-0.11 -0.74,-1.01 -0.73,-1.13 -0.83,-1.82 -1.58,-1.79 -0.68,0.02 -0.47,0.5 -0.47,1.14z"/>
   <path class="fil13" d="M77.45 79.79c0.18,-0.31 0.33,-0.72 0.49,-1.11l1.8 0.01c0.31,0.48 0.26,0.59 0.51,1.11l0.91 0c0.02,-0.56 -0.75,-2.47 -0.97,-3.04 -0.81,-2.07 -0.78,-1.98 -1.87,-1.89 -0.28,0.42 -0.66,1.77 -0.89,2.42 -0.33,0.96 -0.86,1.85 -0.81,2.53l0.83 -0.03z"/>
   <path class="fil13" d="M35.25 79.75c1.05,0.02 0.86,-0.02 1.03,-0.32 0.23,-0.41 0.09,-0.36 0.4,-0.74l1.84 -0.01c0.23,1.03 0.2,1.24 1.37,1.1 0,-0.46 -0.71,-2.04 -0.92,-2.6 -0.16,-0.43 -0.32,-0.89 -0.5,-1.29 -0.23,-0.48 -0.29,-0.92 -0.81,-1 -0.93,-0.13 -0.98,0.7 -1.47,2.04 -0.28,0.78 -0.91,1.98 -0.94,2.82z"/>
   <path class="fil7" d="M70.47 79.84c1.33,0.11 0.92,-0.37 0.93,-1.57 0.01,-0.65 0.23,-0.74 1.84,-0.56 0.08,0.41 -0.02,1.71 0.1,1.91 0.13,0.22 0.59,0.3 0.85,0.12 0.36,-0.25 0.15,-3.99 0.07,-4.75 -0.36,-0.13 -0.47,-0.11 -0.93,-0.05 -0.16,1.2 0.22,1.72 -0.38,1.85l-1.44 0c-0.2,-1.36 0.53,-2.01 -1.05,-1.86 -0.1,0.65 -0.12,4.3 0.01,4.91z"/>
   <path class="fil7" d="M84.53 75.8c1.42,-0.07 1.93,0.05 1.94,1.53 0.01,1.71 -0.41,1.6 -1.98,1.59l0.04 -3.12zm-1.02 -0.72c-0.03,0.42 -0.07,4.17 -0.02,4.38 0.11,0.43 0.25,0.34 0.79,0.33 1.01,-0.01 1.95,0.13 2.61,-0.58 0.83,-0.88 1.15,-3.97 -1.22,-4.17 -0.54,-0.05 -1.63,-0.03 -2.16,0.04z"/>
   <path class="fil14" d="M104.05 75.85c0.52,-0.11 1.52,-0.25 1.84,0.17 0.23,0.3 0.16,0.83 -0.39,0.97 -0.33,0.09 -1.08,0.05 -1.46,0l0.01 -1.14zm-0.86 3.92c1.42,0.06 0.59,-0.35 0.89,-1.98 1.07,-0.17 1.28,0.68 2.2,1.95l0.94 0.04c-0.02,-0.81 -1.25,-1.73 -1.31,-2.13 0.36,-0.31 0.7,-0.22 0.95,-0.79 0.24,-0.54 0.07,-1.12 -0.25,-1.45 -0.55,-0.56 -2.64,-0.39 -3.46,-0.35 -0.06,0.76 -0.1,4.07 0.04,4.71z"/>
   <path class="fil7" d="M16.43 79.76c0.41,0.06 3.25,0.12 3.47,-0.01 0.06,-0.04 0.79,-0.8 -0.83,-0.76 -0.63,0.01 -1.39,0.12 -1.63,-0.14 -0.17,-0.17 -0.15,-0.76 -0.06,-1.05 0.61,-0.34 1.64,0.07 2.21,-0.15 0.36,-0.15 0.37,-0.59 0,-0.75 -0.4,-0.17 -1.99,0.19 -2.21,-0.19 -0.13,-0.21 -0.09,-0.75 0.08,-0.87 0.31,-0.21 1.93,0.07 2.33,-0.09 0.34,-0.14 0.34,-0.6 0.07,-0.78 -0.1,-0.06 -3.14,-0.28 -3.39,0.1 -0.18,0.27 -0.11,4.11 -0.04,4.69z"/>
   <path class="fil11" d="M25.74 76.6c0,1.78 -0.14,3.24 1.78,3.3 2.52,0.08 2.19,-1.35 2.17,-4.27 0,-0.5 0.08,-0.53 -0.28,-0.66 -1.02,-0.39 -0.64,1.15 -0.68,2.89l-0.04 0.85c-2.19,1.24 -1.82,-0.81 -1.82,-2.75 0,-0.66 0.16,-1.3 -0.81,-1.05 -0.51,0.12 -0.32,1.14 -0.32,1.69z"/>
   <path class="fil7" d="M107.98 79.62c0.11,0.11 -0.03,0.17 0.71,0.17l2.83 -0.06c0.33,-1.52 -2.04,-0.21 -2.59,-0.81 -0.12,-0.3 -0.15,-0.81 -0.02,-1.16 0.58,-0.32 1.59,0.1 2.19,-0.15 0.38,-0.16 0.28,-0.56 0.01,-0.68 -0.45,-0.21 -1.87,0.18 -2.15,-0.19 -0.16,-0.2 -0.19,-0.78 0.1,-0.94 0.42,-0.25 1.91,0.15 2.32,-0.13 0.28,-0.2 0.17,-0.6 -0.08,-0.7 0,0 -3.16,-0.19 -3.35,0.13 -0.19,0.31 -0.12,4.28 0.03,4.52z"/>
   <path class="fil7" d="M125.77 75.7c0.33,-0.81 -0.17,-0.76 -0.9,-0.76l-2.59 0.04 0 4.74c0.64,0.14 3.11,0.22 3.58,-0.06l-0.01 -0.56c-0.67,-0.25 -1.89,0.09 -2.57,-0.17 -0.57,-1.63 0.69,-1.3 1.38,-1.28 0.5,0.01 1,0.13 0.98,-0.42 -0.02,-0.7 -1.76,-0.33 -2.35,-0.43 -0.17,-0.92 -0.17,-1.08 0.73,-1.06 0.56,0.01 1.2,0.08 1.75,-0.04z"/>
   <path class="fil4" d="M101.84 76.99c-0.49,-0.21 -2.11,0.17 -2.35,-0.31 -0.59,-1.23 0.99,-0.94 1.71,-0.93 0.45,0.01 0.99,0.08 0.86,-0.51 -0.1,-0.42 -0.51,-0.3 -0.97,-0.3 -0.54,0.01 -2.11,-0.09 -2.5,0.07 -0.19,0.45 -0.25,4.25 -0.01,4.62 0.21,0.2 -0.08,0.09 0.39,0.15 0.58,0.07 2.88,0.05 3.18,-0.12l-0.01 -0.53c-1.9,-0.36 -2.93,0.98 -2.74,-1.51l2.44 -0.07 0 -0.56z"/>
   <path class="fil7" d="M34.62 78.27c-0.29,-0.11 -0.46,-0.21 -0.86,-0.18 -0.32,0.47 -0.5,1.12 -1.45,0.82 -1.09,-0.34 -1.06,-2.69 -0.02,-3.14 0.88,-0.37 1.11,0.27 1.42,0.76 0.44,0.02 0.68,-0.06 0.96,-0.25 -0.02,-1.13 -2.01,-2.4 -3.66,-0.63 -1.08,1.16 -0.64,3.63 0.97,4.11 1.27,0.39 2.66,-0.25 2.64,-1.49z"/>
   <path class="fil7" d="M95.06 89.17c-0.97,0 -1.26,0.18 -2,0l0 -1.37c0.81,-0.19 1.56,-0.11 2.53,-0.11 0.98,0 1.36,1.12 0.4,1.46 -0.5,0.18 -0.54,0.02 -0.93,0.02zm-2.82 -1.16c0,1.11 -0.19,1.96 0.31,2.07 0.19,0.05 3.4,0.14 4,-0.27 0.49,-0.33 1.11,-0.95 0.72,-1.91 -0.53,-1.28 -2.28,-0.96 -4,-0.95 -1.17,0 -1.03,-0.07 -1.03,1.06z"/>
   <path class="fil7" d="M120.54 78.09c-0.4,0.42 -0.54,1.16 -1.45,0.98 -0.56,-0.1 -0.92,-0.77 -0.96,-1.42 -0.11,-1.97 1.23,-2.7 2.34,-1.16l0.81 -0.2c0.12,-1.73 -4.15,-2.5 -4.12,1.15 0,0.7 0.17,1.24 0.49,1.63 1.43,1.72 3.78,0.4 3.64,-0.8l-0.75 -0.18z"/>
   <path class="fil7" d="M97.53 75.78c0.53,-0.92 -0.25,-0.85 -0.98,-0.84 -2.9,0.04 -2.1,-0.77 -2.21,3.99 -0.01,0.44 -0.1,0.69 0.23,0.83 1.37,0.57 0.36,-1.83 1.05,-2 0.77,-0.19 1.74,0.27 1.75,-0.43 0.01,-0.68 -1.29,-0.32 -1.97,-0.44 -0.31,-1.63 0.19,-0.95 2.13,-1.11z"/>
   <path class="fil7" d="M91.21 76.86c-0.28,-1.88 0.89,-0.81 2.34,-1.18l-0.05 -0.69c-0.44,-0.09 -2.85,-0.12 -3.17,0.02 -0.11,0.11 -0.32,4.47 0.04,4.71 0.21,0.15 0.62,0.11 0.75,-0.1 0.17,-0.27 -0.08,-1.3 0.14,-1.78 0.43,-0.29 1.33,-0.04 1.92,-0.17 0.32,-1.23 -1.01,-0.56 -1.97,-0.81z"/>
   <path class="fil15" d="M43.42 75.69c0.37,-1.06 -0.35,-0.78 -2.58,-0.78 -0.57,0 -1.38,-0.2 -1.26,0.51 0.13,0.83 1.24,-0.1 1.45,0.67l0.02 1.99c0,1.29 -0.23,1.75 0.53,1.75 0.55,0 0.54,-0.19 0.54,-0.69 0.01,-0.81 -0.08,-2.75 0.04,-3.34l1.26 -0.11z"/>
   <path class="fil11" d="M46.23 89.49c1.97,0 1.63,4.12 0.32,4.12 -0.41,0 -1.07,0.07 -1.33,-0.78 -0.05,-0.18 -0.23,-1.22 -0.23,-1.31 0.01,-0.14 0.2,-1.14 0.27,-1.31 0.13,-0.31 0.59,-0.72 0.97,-0.72zm1.91 2.85c0.7,-3.63 -2.9,-4.79 -3.64,-1.63 -0.54,2.26 0.93,4.39 2.9,3.12 0.44,-0.29 0.63,-0.9 0.74,-1.49z"/>
   <path class="fil12" d="M93.29 58.81c0.28,0.02 2.63,0.11 2.82,-0.08 0.09,-0.14 0.06,0.03 0.08,-0.23l-0.91 -2.86c-0.3,-0.79 -0.2,-0.7 -0.53,-0.87 -0.09,0.1 -0.07,0.06 -0.16,0.22 -0.11,0.2 -0.02,0 -0.11,0.22 -0.31,0.75 -1.25,3.06 -1.19,3.6z"/>
   <path class="fil16" d="M47.48 75.94c-1.26,0.65 -0.72,3.84 1.21,2.92 0.63,-0.3 0.8,-1.22 0.62,-2.15 -0.15,-0.79 -1.04,-1.18 -1.83,-0.77z"/>
   <path class="fil12" d="M69.06 75.77c0.2,0 0.21,0.01 0.41,-0.03 0.21,-0.04 0.12,-0.01 0.28,-0.1l-0.03 -0.65c-0.74,-0.06 -1.5,-0.02 -2.24,-0.02 -1.06,-0.01 -1.62,-0.33 -1.47,0.77 0.83,0.1 1.02,-0.14 1.31,0.18 0.27,0.3 0.07,2.43 0.08,3.22 0,0.49 -0.04,0.69 0.5,0.69 0.55,-0.01 0.48,-0.3 0.47,-0.8 -0.01,-0.35 -0.01,-0.7 -0.01,-1.06 0,-2.27 -0.25,-2.16 0.7,-2.2z"/>
   <path class="fil17" d="M21.96 75.8c-0.11,0.53 -0.06,1.88 -0.07,2.5 0,0.63 0.02,0.65 0.66,0.65 0.47,0 0.81,0 1.08,-0.33 0.32,-0.37 0.4,-1.59 0.2,-2.17 -0.24,-0.71 -0.98,-0.74 -1.87,-0.65z"/>
   <path class="fil18" d="M108.07 90.76l0.21 0c0.09,0.39 0.2,0.47 0.21,0.95l-0.64 0c0.01,-0.48 0.12,-0.56 0.22,-0.95zm1.45 1.67c0.17,-0.24 0.2,-0.24 -0.13,-0.88 -0.45,-0.87 -0.65,-1.46 -0.89,-2.36 -0.13,-0.49 0,-0.28 -0.33,-0.48 -0.26,0.13 -0.4,0.81 -0.62,1.45 -0.21,0.59 -0.31,0.86 -0.63,1.44 -0.64,1.17 0.15,0.91 1.68,0.93 0.58,0.01 0.68,0.07 0.92,-0.1z"/>
   <path class="fil19" d="M84.49 78.92c1.57,0.01 1.99,0.12 1.98,-1.59 -0.01,-1.48 -0.52,-1.6 -1.94,-1.53l-0.04 3.12z"/>
   <path class="fil20" d="M64.37 74.96c-0.06,0.9 -0.18,4.21 0.04,4.8 0.72,0.31 1.06,0.21 1.06,-0.62l-0.01 -3.61c-0.02,-0.78 -0.29,-0.74 -1.09,-0.57z"/>
   <path class="fil15" d="M88.43 75.03c-0.22,0.56 -0.09,2.08 -0.09,2.83 0,1.14 -0.4,2.21 0.96,1.85 0.1,-0.63 0.1,-4.3 -0.06,-4.69 -0.3,-0.11 -0.52,-0.11 -0.81,0.01z"/>
   <path class="fil21" d="M37.88 93.61c-1.05,0 -0.95,0.11 -0.95,-0.74 0.92,0 1.1,-0.1 1.69,0.21 -0.09,0.36 -0.29,0.53 -0.74,0.53zm-1.4 0.45c0.38,0.14 1.71,0.19 2.16,-0.02 0.61,-0.28 1.31,-2.14 -1.82,-1.8 -0.51,0.06 -0.44,0.21 -0.44,0.73 0,0.43 -0.02,0.78 0.1,1.09z"/>
   <path class="fil12" d="M54.48 89.6l1.16 0.1 0 0.32c-0.33,0.08 -0.89,0.2 -1.27,0.21 -0.11,-0.22 -0.41,-0.63 0.11,-0.63zm-0.64 0.99c0.32,0.17 1.12,0.15 1.58,0.07 0.65,-0.12 0.76,-0.45 0.68,-1.22 -0.74,-0.41 -0.56,-0.42 -1.74,-0.4 -0.46,0.01 -0.75,-0.14 -0.67,0.98l0.15 0.57z"/>
   <path class="fil15" d="M36.93 89.6c0.59,-0.05 0.97,-0.2 1.27,0.21 -0.18,0.26 0.07,0.21 -0.95,0.21 -0.41,0 -0.04,0.03 -0.32,-0.11l0 -0.31zm1.79 0.53l0 -0.85c-0.57,-0.31 -1.56,-0.28 -2.29,-0.19 -0.18,1.47 0.01,1.39 0.59,1.41 0.98,0.03 1.13,0.05 1.7,-0.37z"/>
   <path class="fil3" d="M104.04 76.99c0.38,0.05 1.13,0.09 1.46,0 0.55,-0.14 0.62,-0.67 0.39,-0.97 -0.32,-0.42 -1.32,-0.28 -1.84,-0.17l-0.01 1.14z"/>
  </g>
 </g>
</svg>
