<?xml version="1.0" encoding="UTF-8"?>
<!DOCTYPE svg PUBLIC "-//W3C//DTD SVG 1.1//EN" "http://www.w3.org/Graphics/SVG/1.1/DTD/svg11.dtd">
<!-- Creator: CorelDRAW 2020 (64-Bit) -->
<svg xmlns="http://www.w3.org/2000/svg" xml:space="preserve" width="140px" height="140px" version="1.1" style="shape-rendering:geometricPrecision; text-rendering:geometricPrecision; image-rendering:optimizeQuality; fill-rule:evenodd; clip-rule:evenodd"
viewBox="0 0 140 140"
 xmlns:xlink="http://www.w3.org/1999/xlink"
 xmlns:xodm="http://www.corel.com/coreldraw/odm/2003">
 <defs>
  <style type="text/css">
   <![CDATA[
    .fil1 {fill:#212121}
    .fil0 {fill:#737374}
   ]]>
  </style>
 </defs>
 <g id="Layer_x0020_1">
  <metadata id="CorelCorpID_0Corel-Layer"/>
  <g id="_2738084047216">
   <path class="fil0" d="M15.54 83.43l7.06 0c0.38,0 0.42,-0.7 0.74,-1.51l4.17 -11.8c0.33,0.25 1.14,2.89 1.29,3.32l3.32 9.26c0.32,0.94 -0.03,0.73 2.75,0.73 -0.01,-0.54 -0.25,-0.97 -0.39,-1.35 -0.17,-0.45 -0.27,-0.83 -0.45,-1.28l-6.2 -17.35c-0.14,-0.39 -0.04,-0.38 -0.32,-0.59l-1.57 4.57c-0.87,2.53 -2.03,5.42 -2.85,7.9 -0.12,0.36 -0.25,0.78 -0.39,1.14 -0.29,0.72 -0.56,1.53 -0.81,2.26l-0.83 2.24 -2.35 0 7.16 -20.26 3.48 0c0.04,0.46 0.29,0.93 0.45,1.39 0.18,0.55 0.33,0.91 0.51,1.44 2.15,6.19 4.51,12.44 6.65,18.62 0.09,0.26 0.14,0.43 0.23,0.69 0.29,0.77 0.01,0.58 2.49,0.58 0.45,0 0.23,-0.28 0.13,-0.52l-0.86 -2.44c-1.74,-4.66 -3.39,-9.57 -5.09,-14.25l-2.87 -7.97 -6.86 0c-0.04,0.44 -1.44,4.23 -1.65,4.8l-1.71 4.74c-0.21,0.55 -0.34,1.03 -0.56,1.59 -0.2,0.52 -0.41,1.09 -0.57,1.57l-4.23 11.85c-0.1,0.29 -0.31,0.63 0.13,0.63z"/>
   <path class="fil0" d="M39.17 70.33c0,4.01 1.17,7.05 3.86,9.74 1.28,1.28 2.04,1.79 3.71,2.64 4.07,2.05 9.47,1.49 13.16,-1.17 0.53,-0.38 1.35,-1 1.68,-1.49 -0.23,-0.34 -1.38,-1.54 -1.74,-1.64 -0.28,0.19 -0.61,0.62 -1.33,1.13 -3.12,2.2 -7.34,2.59 -10.78,0.95 -0.6,-0.28 -1.09,-0.62 -1.6,-0.95 -2.59,-1.71 -4.5,-5.14 -4.5,-8.29 0,-2.75 0.43,-4.52 1.94,-6.65l0.84 -1.01c0.13,-0.17 0.15,-0.24 0.31,-0.4l1.41 -1.15c0.43,-0.3 1.09,-0.72 1.62,-0.94 3.67,-1.52 6.59,-1.35 10.15,0.53 -0.1,0.37 -1.31,1.52 -1.64,1.74 -6.93,-3.67 -14.84,3.31 -11.64,10.82 0.39,0.91 1.04,1.86 1.69,2.51 2.44,2.46 6.22,3.27 9.4,1.78 0.75,-0.35 2.06,-1.11 2.49,-1.71 -0.11,-0.41 -0.46,-0.61 -0.74,-0.89 -0.31,-0.31 -0.55,-0.61 -0.89,-0.84 -0.27,0.17 -0.51,0.42 -0.81,0.62 -2.42,1.68 -5.6,1.43 -7.61,-0.6 -2.4,-2.42 -2.43,-6.12 -0.05,-8.49 1.75,-1.75 4.25,-2.2 6.6,-1.23 0.83,0.35 1.2,0.76 1.87,1.2l5.04 -4.99c-0.25,-0.35 -0.47,-0.52 -0.8,-0.78 -1.02,-0.79 -1.71,-1.38 -2.99,-1.93 -5.6,-2.4 -11.46,-1.17 -15.5,3.38 -0.68,0.77 -1.42,1.99 -1.89,2.92 -0.63,1.27 -1.26,3.33 -1.26,5.19z"/>
   <path class="fil1" d="M85.83 67.46l-1.94 0 0 -2.55c0.4,0.22 1.6,0.06 2.15,0.09 1.08,0.05 1.63,0.24 1.63,1.34 0,0.92 -0.91,1.12 -1.84,1.12zm-2.04 -4.6c0.21,-0.38 0.1,-1.84 0.1,-2.35 1.47,0 3.17,-0.26 3.17,1.22 0,1.42 -1.86,1.13 -3.27,1.13zm-2.56 6.85l5.01 0c5.28,0 4.99,-5.22 1.94,-5.93 0.16,-0.14 0.05,-0.04 0.24,-0.17 0.14,-0.09 0.18,-0.1 0.32,-0.2 1.49,-0.99 1.22,-3.57 -0.35,-4.54 -1.38,-0.85 -5.3,-0.62 -7.16,-0.62l0 11.46z"/>
   <path class="fil1" d="M94.53 81.17l0 -2.55c1.26,0 3.78,-0.29 3.78,1.02 0,0.78 -0.08,1.41 -1.42,1.44 -0.72,0.01 -1.83,-0.16 -2.36,0.09zm1.74 -4.7l-1.74 0 0 -2.36c1.53,0 3.17,-0.17 3.17,1.23 0,0.92 -0.53,1.13 -1.43,1.13zm-4.4 6.85l5.63 0c1.73,0 3.04,-0.9 3.41,-2.31 0.49,-1.83 -0.7,-3.41 -1.98,-3.52l0 -0.2c1.48,-0.35 2.21,-3.12 0.32,-4.63 -0.51,-0.41 -1.47,-0.69 -2.37,-0.69l-5.01 0 0 11.35z"/>
   <path class="fil1" d="M120.83 63.78l-2.46 0 0 -3.27c2.52,0 3.99,-0.27 3.99,1.73 0,0.92 -0.62,1.54 -1.53,1.54zm-5.12 -5.22l0 10.85c0,0.54 1.16,0.3 2.66,0.3l0 -3.58c2.01,0 1.63,-0.18 2.27,0.8l1.93 2.78 3.17 0c-0.1,-0.37 -0.1,-0.21 -0.32,-0.49l-2.55 -3.6c2.63,-0.61 2.88,-5.45 0.65,-6.69 -1.6,-0.89 -5.41,-0.68 -7.5,-0.68 -0.24,0 -0.31,0.08 -0.31,0.31z"/>
   <path class="fil1" d="M91.87 58.56l0 10.85c0,0.54 1.16,0.3 2.66,0.3l0 -4.5 4.19 0 0 4.5 2.56 0 0 -11.46 -2.56 0 0 4.81 -4.19 0 0 -4.5c0,-0.52 -0.94,-0.31 -2.35,-0.31 -0.24,0 -0.31,0.08 -0.31,0.31z"/>
   <path class="fil1" d="M111.21 83.32l8.39 0 0 -2.25 -5.83 0 0 -2.35 5.11 0c0,-1.38 0.21,-2.25 -0.31,-2.25l-4.8 0 0 -2.15 5.62 0 0 -2.35 -8.18 0 0 11.35z"/>
   <path class="fil1" d="M107.22 65.01c0.06,-0.28 1.15,-2.97 1.43,-3.17 0.03,0.38 0.46,1.2 0.6,1.54 0.12,0.29 0.2,0.47 0.31,0.72 0.13,0.31 0.25,0.5 0.32,0.81 -0.49,0 -2.47,-0.12 -2.66,0.1zm-4.81 4.7l2.76 0 1.02 -2.45 4.71 0 1.02 2.45 2.77 0c-0.03,-0.34 -0.42,-1.1 -0.58,-1.46l-4.04 -9.37c-0.32,-0.84 -0.19,-0.63 -2.55,-0.63 -0.32,0 -0.31,0.26 -0.44,0.58l-4.67 10.88z"/>
   <path class="fil1" d="M73.96 61.84l1.43 3.07 -2.66 0c0.2,-0.86 1.02,-2.18 1.23,-3.07zm-6.04 7.87l2.67 0c0.19,-0.37 0.98,-2.04 1.02,-2.45l4.81 0c0.09,0.41 0.35,0.89 0.49,1.24 0.17,0.4 0.35,0.87 0.53,1.21l2.76 0 -2.47 -5.71c-0.38,-0.94 -0.82,-1.89 -1.22,-2.87 -0.27,-0.64 -1.09,-2.32 -1.22,-2.88l-2.45 0 -4.36 9.97c-0.17,0.41 -0.52,1.08 -0.56,1.49z"/>
   <path class="fil1" d="M84.71 75.44l0.7 1.55c0.16,0.4 0.59,1.24 0.63,1.63l-2.66 0c0.08,-0.38 1.18,-2.56 1.33,-3.18zm-6.14 7.88l2.76 0 1.02 -2.45 4.71 0 1.02 2.45 2.77 0c-0.23,-0.97 -4.61,-10.48 -4.81,-11.35l-2.56 0c-0.22,0.4 -0.39,0.89 -0.59,1.35l-1.85 4.29c-0.41,0.98 -0.83,1.91 -1.24,2.85l-1.23 2.86z"/>
   <path class="fil1" d="M67.72 77.29c0,1.78 0.25,2.7 1.23,3.99 0.65,0.86 1.55,1.49 2.72,1.88 4.14,1.37 6.12,-1.63 6.69,-1.78 -0.11,-0.43 -0.5,-0.65 -0.79,-0.95 -0.33,-0.32 -0.58,-0.65 -0.95,-0.89 -1.7,2.54 -6.24,1.81 -6.24,-1.95 0,-2.74 2.6,-4 4.8,-3.16 1.19,0.46 1.14,1.06 1.75,1.22 0.09,-0.35 0.08,-0.24 0.33,-0.49 0.26,-0.26 1.04,-1.12 1.1,-1.35 -0.87,-1.3 -2.92,-2.15 -4.7,-2.15 -2.47,0 -4.36,1.34 -5.33,3.27 -0.32,0.65 -0.61,1.39 -0.61,2.36z"/>
   <path class="fil1" d="M102.51 83.32l7.47 0 0 -2.04c0,-0.24 -0.07,-0.31 -0.31,-0.31l-4.5 0 0 -9 -2.66 0 0 11.35z"/>
  </g>
 </g>
</svg>
