<?xml version="1.0" encoding="UTF-8"?>
<!DOCTYPE svg PUBLIC "-//W3C//DTD SVG 1.1//EN" "http://www.w3.org/Graphics/SVG/1.1/DTD/svg11.dtd">
<!-- Creator: CorelDRAW 2020 (64-Bit) -->
<svg xmlns="http://www.w3.org/2000/svg" xml:space="preserve" width="140px" height="140px" version="1.1" style="shape-rendering:geometricPrecision; text-rendering:geometricPrecision; image-rendering:optimizeQuality; fill-rule:evenodd; clip-rule:evenodd"
viewBox="0 0 140 140"
 xmlns:xlink="http://www.w3.org/1999/xlink"
 xmlns:xodm="http://www.corel.com/coreldraw/odm/2003">
 <defs>
  <style type="text/css">
   <![CDATA[
    .fil3 {fill:#373737}
    .fil1 {fill:#393939}
    .fil0 {fill:#3A3A3A}
    .fil2 {fill:#3C3C3C}
    .fil7 {fill:#3E3E3E}
    .fil21 {fill:#5D5D5E}
    .fil17 {fill:#626262}
    .fil25 {fill:#666666}
    .fil9 {fill:dimgray}
    .fil24 {fill:#767677}
    .fil26 {fill:#848485}
    .fil28 {fill:#8A8A8A}
    .fil12 {fill:#909090}
    .fil18 {fill:#969697}
    .fil30 {fill:#9B9B9B}
    .fil14 {fill:#9D9D9D}
    .fil10 {fill:#A5A5A5}
    .fil5 {fill:#AEAEAE}
    .fil20 {fill:#B3B3B3}
    .fil27 {fill:#B6B6B7}
    .fil8 {fill:#B9B9B9}
    .fil13 {fill:#BABABA}
    .fil4 {fill:#C4C4C4}
    .fil19 {fill:#CBCBCB}
    .fil15 {fill:#CCCCCD}
    .fil32 {fill:#D0D0D0}
    .fil16 {fill:#D2D2D3}
    .fil6 {fill:#D7D7D7}
    .fil23 {fill:gainsboro}
    .fil31 {fill:#E0E0E0}
    .fil11 {fill:#E5E5E5}
    .fil29 {fill:#E8E8E8}
    .fil22 {fill:#E9E9E9}
    .fil33 {fill:#F5F6F6}
   ]]>
  </style>
 </defs>
 <g id="Layer_x0020_1">
  <metadata id="CorelCorpID_0Corel-Layer"/>
  <g id="_2738313993712">
   <path class="fil0" d="M117.92 68.63l0.18 0.02c0.01,-0.68 0.01,-0.25 0.65,-1.39l1.56 -2.49c1.06,-1.61 1.94,-2.42 2.64,-3.4l0.72 -0.98c0.25,-0.33 1.11,-0.97 0.93,-1.39l-1.95 -1.45c-0.58,-0.52 -0.81,-0.52 -1.47,-1.07 -0.27,-0.23 -0.21,-0.29 -0.51,-0.44 -0.72,0.3 -3.47,4.15 -4.07,4.92 -0.11,0.14 -0.17,0.23 -0.28,0.36 -0.14,0.16 -0.26,0.27 -0.34,0.4l-1.97 3.24c-0.46,0.98 -0.51,0.7 -0.96,1.56 -0.14,0.27 -0.27,0.63 -0.4,0.89 -0.26,0.49 -0.29,0.38 -0.31,0.62 -0.05,0.56 -0.06,0.09 0.07,0.29 0.36,0.36 4,-0.02 4.98,0.1 0.59,0.08 0.09,0.01 0.53,0.21z"/>
   <path class="fil1" d="M15.43 80l7.6 0.05 -0.01 -3.47c-0.58,-0.03 -1.95,0.2 -2.31,-0.15 -0.42,-0.38 -0.16,-2.06 -0.16,-2.69 0,-0.64 -0.25,-2.3 0.16,-2.7 0.41,-0.43 1.68,-0.01 2.3,-0.22l0.03 -0.8c-0.44,-0.14 -6.67,-0.12 -7.48,-0.06l-0.13 10.04z"/>
   <path class="fil0" d="M85.34 69.94c-0.17,-0.15 -0.42,-0.15 -0.62,-0.16 -1.42,-0.05 -1.2,0.1 -1.18,1.09l-0.01 8.93c0.07,0.59 0.43,0.43 1.08,0.42 0.49,-0.01 0.99,-0.01 1.48,-0.01 1.34,0 8.45,0.14 8.7,-0.1 0.13,-0.12 0.28,-3.19 -0.03,-3.48 -0.57,-0.43 -8.27,0.27 -9.2,-0.22 -0.53,-0.86 0.27,-5.63 -0.22,-6.47z"/>
   <path class="fil1" d="M38.17 79.99l4.64 0.04 -0.01 -5.13c-0.01,-1.57 0.69,-1.22 2.23,-1.24l0.02 -3.65 -6.87 -0.01 -0.01 9.99z"/>
   <path class="fil1" d="M20.53 64.94c0,-1.09 -0.16,-1.45 1.06,-1.45 1.55,-0.01 1.52,0.92 1.39,-3.38l-6.58 -0.02c-1.22,0 -0.94,-0.15 -0.94,1.03 0,2.1 -0.08,5.04 0.05,7.05 2.15,0.02 5.48,0.1 7.46,-0.05 0.5,-1.23 -1.63,-0.09 -2.28,-0.79 -0.28,-0.31 -0.16,-1.73 -0.16,-2.39z"/>
   <path class="fil0" d="M110.17 71.97c0.04,0.23 -0.2,0.79 -0.33,1.02 -0.53,0.89 -0.16,0.72 -0.62,0.87 -0.33,-0.18 -0.13,0.07 -0.43,-0.87 -0.1,-0.32 -1.04,-1.91 -1.06,-2.32 -0.19,-0.14 -0.19,0.02 -0.5,-0.68 -0.63,-1.39 -0.99,-0.08 -3.48,1.14 -1.74,0.86 -0.66,1.02 0.24,2.31 0.78,1.12 0.45,0.55 1.01,1.75 0.75,1.6 0.3,0.42 0.59,2.15 0.07,0.41 0.18,0.7 0.2,1.17 0.01,0.46 -0.07,0.77 0.07,1.22 0.71,0.09 4.23,0.2 4.59,-0.09 0.27,-0.32 0.12,-1.36 0.12,-1.87 0,-1.38 0.08,-4.98 -0.02,-5.9 -0.18,0.08 -0.12,0.02 -0.38,0.1z"/>
   <path class="fil1" d="M41.97 68.28c1.28,0 1.08,0.04 1.07,-1.22 -0.01,-0.75 0,-1.49 -0.01,-2.23 -0.01,-0.98 -0.09,-1.28 0.95,-1.27 1.29,0.02 1.28,0.27 1.28,-0.96 0,-2.9 0.26,-2.65 -0.96,-2.65 -1.98,0 -4.32,-0.06 -6.26,0.03l0 8.28 3.93 0.02z"/>
   <path class="fil1" d="M49.26 67.65l0.04 0.56c0.68,0.06 4.32,0.12 4.81,-0.04 0.66,-2.05 0.16,-5.46 -1.01,-6.52 -0.74,-0.68 -1.62,-1.16 -2.65,-1.28 -0.78,-0.09 -2.87,-0.55 -3.65,-0.26l-0.01 3.43c0.45,0.38 1.99,0.33 2.55,2.63l0.07 1.2c-0.08,0.3 0,0.18 -0.15,0.28z"/>
   <path class="fil2" d="M113.24 79.77c0.23,-0.55 0.24,-0.69 0.43,-1.3l0.54 -1.23c0.39,-0.7 1.14,-3.08 1.44,-3.76 0.17,-0.39 0.49,-0.77 0.64,-1.13 0.36,-0.89 0.97,-1.96 0.88,-2.63l-5.26 0c-0.18,1.01 -0.05,6.77 -0.06,8.58 0,1.47 -0.31,1.67 1.39,1.47z"/>
   <path class="fil0" d="M66.26 70.88l0 8.38c0,1.33 0.19,0.95 1.59,0.95 4.4,0 3.69,0.51 3.69,-2.12 0,-1.12 -0.05,-0.96 -1.14,-0.94 -2.76,0.03 -2.25,0.62 -2.25,-4.15 0,-3.44 0.31,-3.24 -1.04,-3.24 -1.07,0 -0.85,0.05 -0.85,1.12z"/>
   <path class="fil3" d="M59.64 77.31c-0.04,0.54 -0.1,2.32 0.07,2.74l4.81 -0.01c0.21,-0.49 0.13,-8.9 0.07,-10.06l-1.56 -0.01c-0.1,1.68 -0.01,3.65 -0.01,5.36 -0.01,2.75 0.24,1.81 -3.38,1.98z"/>
   <path class="fil1" d="M66.3 68.24c0.51,0.17 1.63,0.29 1.75,-0.25l0.03 -2.21c0,-0.8 -0.05,-1.74 0.01,-2.52 0.62,-0.49 1.2,-0.35 2.41,-0.33 0.31,0.01 0.71,0.04 0.86,-0.11 0.21,-0.34 0.19,-2.3 0.05,-2.81 -0.57,-0.1 -4.66,-0.11 -5.06,0.03l-0.05 8.2z"/>
   <path class="fil1" d="M59.58 61.12c0.01,2.64 -0.24,1.66 2.55,1.81 0.57,0.03 0.42,0.08 0.79,0.34l0.01 4.97c2.11,0.08 1.77,0.2 1.77,-0.97l-0.03 -7.28 -4.03 -0.02c-1.28,0 -1.06,-0.11 -1.06,1.15z"/>
   <path class="fil1" d="M30.2 80.12l0.07 -0.16c0.11,-0.4 0.06,-3.16 0.03,-3.46l-5.72 -0.04c-0.07,0.75 -0.02,1.63 -0.02,2.37 -0.01,1.67 -0.69,1.39 3.3,1.39 0.66,0 1.86,0.17 2.34,-0.1z"/>
   <path class="fil4" d="M85.34 69.94c0.49,0.84 -0.31,5.61 0.22,6.47 0.93,0.49 8.63,-0.21 9.2,0.22 0.31,0.29 0.16,3.36 0.03,3.48 -0.25,0.24 -7.36,0.1 -8.7,0.1 -0.49,0 -0.99,0 -1.48,0.01 -0.65,0.01 -1.01,0.17 -1.08,-0.42l0.01 -8.93c-0.02,-0.99 -0.24,-1.14 1.18,-1.09 0.2,0.01 0.45,0.01 0.62,0.16zm-2.32 -0.13l0 10.72 12.3 0c0,-4.84 0.35,-4.59 -0.84,-4.57l-8.49 0.01 0 -6.16c0,-0.89 -0.59,-0.63 -2.55,-0.63 -0.32,0 -0.42,0.31 -0.42,0.63z"/>
   <path class="fil1" d="M52.89 71.82c0.22,-0.17 0.45,-0.45 0.6,-0.66 0.34,-0.45 0.21,-0.57 0.37,-0.83 0.03,-0.62 -0.01,-0.3 -0.12,-0.45l-6.96 0.02 -0.04 3.73c0.96,0.21 1.68,-0.2 2.54,-0.31 0.71,-0.08 0.57,-0.15 0.8,-0.25l1.41 -0.51c0.48,-0.2 0.83,-0.61 1.4,-0.74z"/>
   <path class="fil5" d="M41.97 68.28l-3.93 -0.02 0 -8.28c1.94,-0.09 4.28,-0.03 6.26,-0.03 1.22,0 0.96,-0.25 0.96,2.65 0,1.23 0.01,0.98 -1.28,0.96 -1.04,-0.01 -0.96,0.29 -0.95,1.27 0.01,0.74 0,1.48 0.01,2.23 0.01,1.26 0.21,1.22 -1.07,1.22zm-4.46 -8.54l0 8.48c0,0.26 0.49,0.75 0.74,0.75l4.78 0c0.32,0 0.42,-0.31 0.42,-0.64l0 -4.24c0.43,0 0.85,-0.01 1.28,0 1.27,0.02 0.95,0.45 0.95,-4.35 0,-0.33 -0.31,-0.43 -0.64,-0.43l-6.89 0c-0.33,0 -0.64,0.1 -0.64,0.43z"/>
   <polygon class="fil1" points="24.68,63.57 29.69,63.54 29.68,60.03 24.65,60.05 "/>
   <path class="fil6" d="M117.92 68.63c-0.44,-0.2 0.06,-0.13 -0.53,-0.21 -0.98,-0.12 -4.62,0.26 -4.98,-0.1 -0.13,-0.2 -0.12,0.27 -0.07,-0.29 0.02,-0.24 0.05,-0.13 0.31,-0.62 0.13,-0.26 0.26,-0.62 0.4,-0.89 0.45,-0.86 0.5,-0.58 0.96,-1.56l1.97 -3.24c0.08,-0.13 0.2,-0.24 0.34,-0.4 0.11,-0.13 0.17,-0.22 0.28,-0.36 0.6,-0.77 3.35,-4.62 4.07,-4.92 0.3,0.15 0.24,0.21 0.51,0.44 0.66,0.55 0.89,0.55 1.47,1.07l1.95 1.45c0.18,0.42 -0.68,1.06 -0.93,1.39l-0.72 0.98c-0.7,0.98 -1.58,1.79 -2.64,3.4l-1.56 2.49c-0.64,1.14 -0.64,0.71 -0.65,1.39 0.91,-0.02 0.27,-0.07 0.69,-0.72 0.62,-0.99 0.04,-0.46 0.53,-0.96 0.55,-0.57 0.16,0.09 0.55,-0.82 0.22,-0.5 0.48,-0.4 0.66,-0.83 0.24,-0.55 -0.27,-0.07 0.82,-1.09 0.47,-0.44 0.12,-0.42 0.49,-0.88 0.37,-0.46 1.18,-0.99 1.37,-1.5 0.16,-0.43 -0.12,-0.14 0.62,-0.87 0.33,-0.32 0.61,-0.8 1.09,-0.92l0 -1.49 -0.81 -0.36c-0.48,-0.23 -0.69,-0.74 -1.03,-0.98 -0.48,-0.35 -0.3,0.13 -1,-0.59 -0.29,-0.3 -0.65,-0.5 -0.77,-0.93l-1.38 0c0,0.47 0.08,0.41 -0.14,0.7l-0.22 0.21c-0.07,0.07 -0.14,0.14 -0.21,0.21 -0.28,0.29 -1.14,1.01 -1.26,1.33 -0.08,0.2 0.07,0.14 -0.21,0.49 -0.23,0.29 -0.73,0.62 -0.87,0.94 -0.15,0.35 0.06,0.32 -0.67,1.02 -0.4,0.39 -0.41,0.22 -0.54,0.63 -0.01,0.03 -0.01,0.06 -0.02,0.09l-0.16 0.36c-0.11,0.12 -0.34,0.25 -0.44,0.41 -0.44,0.66 0.33,0.07 -0.67,1.03 -0.44,0.41 -0.05,0.16 -0.3,0.66 -0.12,0.25 -0.14,0.05 -0.28,0.48 -0.11,0.38 0.06,0.22 -0.47,0.68 -0.23,0.21 -0.08,0.01 -0.21,0.21l-1.11 2.29c-0.53,1.15 -0.97,1.54 0.24,1.53l5.42 -0.01c0.08,-0.15 0.06,-0.13 0.11,-0.34z"/>
   <path class="fil2" d="M54.91 80.53l1.01 0c0.12,-0.54 0.15,-0.25 0.61,-0.49 0.43,-0.23 1.03,-1.03 1.06,-1.84 0.09,-1.96 -1.27,-1.72 -1.3,-2.66 -0.41,0 -0.25,0.04 -0.51,-0.1 -0.12,0.34 0.11,0.18 -0.44,0.27 -1.23,0.19 -0.05,-0.36 -1.33,0.43 -1.19,0.74 -1.21,2.6 -0.45,3.4 1.19,1.26 1.16,0.29 1.35,0.99z"/>
   <path class="fil2" d="M78.46 78.65l0 -1.08c-0.48,0 -0.43,-0.14 -0.56,-0.53 -0.14,-0.44 -0.13,-0.31 -0.43,-0.61 -1.69,-1.62 -3.65,-0.24 -3.91,1.13 -0.3,1.56 0.75,2.77 2.78,2.6 0.8,-0.07 1.51,-0.71 1.65,-1.48l0.47 -0.03z"/>
   <path class="fil2" d="M32.51 80.32c0.34,0.22 -0.1,0.1 0.34,0.19 0.15,0.03 0.47,0.02 0.63,0.02 0.4,0 0.8,0 1.21,0 0.1,-0.28 0.06,-0.17 0.25,-0.36 0.76,-0.77 1.2,-0.64 1.16,-2.3 -0.04,-1.63 -1.42,-2.14 -2.95,-1.85 -0.58,0.11 -0.32,0.01 -0.66,0.34 -0.27,0.25 -0.73,0.67 -0.82,1.02 -0.19,0.77 -0.03,1.67 0.5,2.22 0.31,0.33 0.31,0.12 0.34,0.72z"/>
   <path class="fil7" d="M83.51 68.37c2.34,0.37 1.94,-0.35 1.93,-1.1l0 -6.37c0.01,-0.64 0.16,-1 -0.5,-1.04 -0.52,-0.03 -1.05,-0.01 -1.47,0.14l0.04 8.37z"/>
   <path class="fil2" d="M82.02 69.96c-0.39,-0.12 -1.31,-0.23 -1.51,0.11 -0.13,0.21 -0.01,8.07 -0.06,9.19 -0.03,0.61 -0.09,0.6 0.08,0.77 0.23,0.22 1.13,0.13 1.52,0.03l-0.03 -10.1z"/>
   <path class="fil0" d="M98.41 80.53l1.74 0c0.14,-0.43 0.06,-0.19 0.57,-0.66 0.21,-0.19 0.35,-0.32 0.51,-0.65 0.29,-0.58 0.38,-1.17 0.1,-1.84 -0.7,-1.69 -2.13,-1.31 -3.14,-1.31 -0.52,0.64 -0.51,0.33 -0.8,0.79 -0.21,0.32 -0.85,3.05 0.99,3.38l0.03 0.29z"/>
   <path class="fil8" d="M66.26 70.88c0,-1.07 -0.22,-1.12 0.85,-1.12 1.35,0 1.04,-0.2 1.04,3.24 0,4.77 -0.51,4.18 2.25,4.15 1.09,-0.02 1.14,-0.18 1.14,0.94 0,2.63 0.71,2.12 -3.69,2.12 -1.4,0 -1.59,0.38 -1.59,-0.95l0 -8.38zm-0.53 -1.17l0 10.82 6.26 0c0,-4.47 0.35,-3.83 -1.38,-3.82 -2.52,0.01 -2.02,0.7 -2.02,-3.29 0,-4.66 0.33,-4.27 -0.95,-4.25 -0.6,0.02 -1.21,0.01 -1.81,0.01 -0.05,0.24 -0.1,0.24 -0.1,0.53z"/>
   <path class="fil9" d="M15.56 69.96c0.81,-0.06 7.04,-0.08 7.48,0.06l-0.03 0.8c-0.62,0.21 -1.89,-0.21 -2.3,0.22 -0.41,0.4 -0.16,2.06 -0.16,2.7 0,0.63 -0.26,2.31 0.16,2.69 0.36,0.35 1.73,0.12 2.31,0.15l0.01 3.47 -7.6 -0.05 0.13 -10.04zm7.74 10.57c0.04,-0.62 0.23,-3.8 -0.14,-4.11 -0.44,-0.38 -1.54,0.09 -2.3,-0.24 -0.18,-0.5 -0.24,-4.47 0.02,-4.85 0.22,-0.25 0.59,-0.17 1.14,-0.16 0.43,0.01 0.79,0.03 1.21,-0.05 0.13,-0.51 0.13,-0.93 -0.01,-1.34 -0.7,-0.24 -6.91,-0.09 -8.2,-0.06l0 10.81 8.28 0z"/>
   <path class="fil10" d="M37.96 80.08c-0.14,-0.87 -0.11,-9.86 0.08,-10.27 0.72,-0.12 6.87,-0.14 7.14,0.08 0.27,0.3 0.1,3.74 0.04,3.92 -0.59,0.23 -1.53,-0.07 -1.91,0.22 -0.59,0.45 0.08,4.75 -0.29,6.07 -0.56,0.26 -4.56,0.23 -5.06,-0.02zm-0.45 -10.58l0 11.03 5.94 0 0 -6.26 2.12 0c0.23,-0.99 0.11,-3.6 0.11,-4.77 0,-0.25 -0.07,-0.32 -0.32,-0.32l-7.53 0c-0.24,0 -0.32,0.07 -0.32,0.32z"/>
   <path class="fil11" d="M113.24 79.77c-1.7,0.2 -1.39,0 -1.39,-1.47 0.01,-1.81 -0.12,-7.57 0.06,-8.58l5.26 0c0.09,0.67 -0.52,1.74 -0.88,2.63 -0.15,0.36 -0.47,0.74 -0.64,1.13 -0.3,0.68 -1.05,3.06 -1.44,3.76l-0.54 1.23c-0.19,0.61 -0.2,0.75 -0.43,1.3zm-1.58 0.55c0.94,0 1.33,0.07 2.12,-0.11 0,-1.7 0.42,-0.72 0.42,-1.48 0,-0.76 -0.22,-0.06 0.22,-0.85l0.06 -0.15c0.43,-1.04 0.18,-0.03 0.42,-0.76 0.13,-0.41 -0.1,-0.37 0.07,-0.67l0.34 -0.71c0.11,-0.26 -0.02,-0.1 0.38,-0.37 0,-0.35 -0.05,-0.6 0.08,-0.87l0.31 -0.65c0.37,-0.69 0.09,0.48 0.37,-1 0.08,-0.44 0.02,-0.03 0.23,-0.52l0.75 -1.48c0.01,-0.02 0.02,-0.05 0.03,-0.07 0.5,-1.15 0.46,-0.08 0.46,-1.13 0,-0.25 -0.08,-0.32 -0.32,-0.32l-5.52 0c-0.26,0 -0.69,0.42 -0.79,0.69 -0.17,0.5 0.01,1.03 0.04,1.44l0.01 7.73c0,0.52 -0.17,1.28 0.32,1.28z"/>
   <path class="fil2" d="M81.94 68.2c0.27,-0.38 0.19,-7.14 0.1,-8.13l-1.59 -0.06c-0.14,1.7 0.05,5.23 0,7.37 -0.02,0.68 -0.23,1.01 0.98,0.95 0.42,-0.03 0.25,0.07 0.51,-0.13z"/>
   <path class="fil12" d="M82.02 69.96l0.03 10.1c-0.39,0.1 -1.29,0.19 -1.52,-0.03 -0.17,-0.17 -0.11,-0.16 -0.08,-0.77 0.05,-1.12 -0.07,-8.98 0.06,-9.19 0.2,-0.34 1.12,-0.23 1.51,-0.11zm-2.29 10.04c0,0.78 1.83,0.53 2.86,0.53l0 -10.72c0,-0.85 -0.51,-0.63 -2.12,-0.63 -0.64,0 -0.42,1.37 -0.42,2.44l0 7.22c0.02,1.33 -0.32,0.63 -0.32,1.16z"/>
   <path class="fil13" d="M62.6 76.87c0.31,-0.29 0.17,-0.87 0.17,-1.65 0,-0.66 -0.14,-5.96 0.23,-5.39l0.29 -0.08c0.1,-0.02 0.41,-0.02 0.53,-0.02 1.44,-0.01 1.07,-0.16 1.05,5.28 -0.01,0.89 -0.01,1.77 -0.01,2.65 -0.01,3.41 0.79,2.51 -4.44,2.64 -0.61,0.01 -0.91,0.14 -0.97,-0.5 -0.32,-3.43 0.1,-2.7 2.47,-2.73 0.43,0 0.45,0.08 0.68,-0.2zm-0.27 -0.16l-3.29 0c-0.22,0.97 -0.1,2.74 -0.1,3.82l6.26 0 0 -11.03c0,-0.53 -1.75,-0.32 -2.76,-0.32 -0.38,1.61 0.13,6.4 -0.11,7.53z"/>
   <path class="fil14" d="M59.58 61.12c0,-1.26 -0.22,-1.15 1.06,-1.15l4.03 0.02 0.03 7.28c0,1.17 0.34,1.05 -1.77,0.97l-0.01 -4.97c-0.37,-0.26 -0.22,-0.31 -0.79,-0.34 -2.79,-0.15 -2.54,0.83 -2.55,-1.81zm-0.12 2.22l2.87 0c0.16,0.76 0,3.84 0,5.1 0.1,0.06 0.14,0.08 0.26,0.17 0.57,0.41 0.37,0.36 1.12,0.36 1.23,0.01 0.72,-0.02 1.49,-0.43l0 -8.59c-0.63,-0.1 -0.49,-0.23 -1.38,-0.21 -0.97,0.01 -3.82,-0.09 -4.36,0.1 -0.3,0.78 -0.08,2.6 0,3.5z"/>
   <path class="fil15" d="M83.51 68.37l-0.04 -8.37c0.42,-0.15 0.95,-0.17 1.47,-0.14 0.66,0.04 0.51,0.4 0.5,1.04l0 6.37c0.01,0.75 0.41,1.47 -1.93,1.1zm-0.39 -8.95c-0.25,1.09 -0.1,7.02 -0.1,8.59 0,0.4 0.15,0.57 0.49,0.78 0.3,0.19 -0.03,0.18 0.36,0.18l1.27 0c0.2,0 0.08,0.07 0.54,-0.31 0.2,-0.17 0.31,-0.29 0.31,-0.65l0 -7.85c0,-0.36 -0.08,-0.41 -0.11,-0.74 -1.63,-0.14 -1,-0.18 -2.76,0z"/>
   <path class="fil16" d="M15.02 68.41l0 0.56c0.89,0 7.93,0.15 8.36,-0.13 0.42,-0.27 0.48,-0.57 0.46,-1.26 -0.02,-1.01 -0.59,-0.74 -2.66,-0.74 0,-0.45 -0.07,-2.12 -0.01,-2.44 0.12,-0.53 0.9,-0.31 2.23,-0.31 0.05,-1.16 0.38,-3.35 0,-4.35 -0.87,-0.33 -6.88,-0.11 -8.38,-0.11l0 0.25c1.27,-0.03 7.49,-0.18 8.19,0.06 0.08,0.24 0.24,3.36 -0.07,3.68 -0.37,0.38 -1.19,0.09 -2.23,0.21 -0.32,0.49 -0.29,3.07 -0.04,3.32 0.6,0.61 2.2,-0.4 2.4,0.54 0.27,1.25 -1.8,0.75 -4.32,0.75 -1.32,0 -2.61,0 -3.93,-0.03z"/>
   <path class="fil11" d="M15.02 69.72c1.29,-0.03 7.5,-0.18 8.2,0.06 0.14,0.41 0.14,0.83 0.01,1.34 -0.42,0.08 -0.78,0.06 -1.21,0.05 -0.55,-0.01 -0.92,-0.09 -1.14,0.16 -0.26,0.38 -0.2,4.35 -0.02,4.85 0.76,0.33 1.86,-0.14 2.3,0.24 0.37,0.31 0.18,3.49 0.14,4.11l0.53 0c0,-5.51 0.41,-4.6 -1.81,-4.56 -1.07,0.02 -0.84,0.21 -0.84,-2.34 0,-2.28 -0.25,-2.04 1.16,-2.01 0.74,0.01 0.89,0.09 1.26,-0.33 0.18,-0.2 0.19,-0.17 0.23,-0.52 0.23,-1.97 -1.04,-1.59 -2.44,-1.59 -2.12,0 -4.24,0 -6.37,0l0 0.54z"/>
   <path class="fil17" d="M20.53 64.94c0,0.66 -0.12,2.08 0.16,2.39 0.65,0.7 2.78,-0.44 2.28,0.79 -1.98,0.15 -5.31,0.07 -7.46,0.05 -0.13,-2.01 -0.05,-4.95 -0.05,-7.05 0,-1.18 -0.28,-1.03 0.94,-1.03l6.58 0.02c0.13,4.3 0.16,3.37 -1.39,3.38 -1.22,0 -1.06,0.36 -1.06,1.45zm-5.51 3.47c1.32,0.03 2.61,0.03 3.93,0.03 2.52,0 4.59,0.5 4.32,-0.75 -0.2,-0.94 -1.8,0.07 -2.4,-0.54 -0.25,-0.25 -0.28,-2.83 0.04,-3.32 1.04,-0.12 1.86,0.17 2.23,-0.21 0.31,-0.32 0.15,-3.44 0.07,-3.68 -0.7,-0.24 -6.92,-0.09 -8.19,-0.06l0 8.53z"/>
   <path class="fil18" d="M81.94 68.2c-0.26,0.2 -0.09,0.1 -0.51,0.13 -1.21,0.06 -1,-0.27 -0.98,-0.95 0.05,-2.14 -0.14,-5.67 0,-7.37l1.59 0.06c0.09,0.99 0.17,7.75 -0.1,8.13zm-2.21 -8.14c0,0.87 0.32,-0.88 0.32,2.01l-0.01 5.95c-0.01,1.11 -0.22,0.95 1.7,0.95 0.21,0 0.09,0.07 0.54,-0.31 0.2,-0.17 0.31,-0.29 0.31,-0.65 0,-1.57 0.15,-7.5 -0.1,-8.59 -0.67,-0.06 -1.86,-0.34 -2.41,0.14 -0.45,0.4 -0.35,0.31 -0.35,0.5z"/>
   <path class="fil19" d="M30.2 80.12c-0.48,0.27 -1.68,0.1 -2.34,0.1 -3.99,0 -3.31,0.28 -3.3,-1.39 0,-0.74 -0.05,-1.62 0.02,-2.37l5.72 0.04c0.03,0.3 0.08,3.06 -0.03,3.46l-0.07 0.16zm-6.27 -3.52c0,1.09 -0.12,2.95 0.11,3.93 0.47,0 6.21,0.16 6.65,-0.14 0.58,-0.41 0.25,-1.43 0.25,-2.62 0,-0.45 0.13,-0.78 0.08,-1.04 -0.11,-0.67 -0.35,-0.16 -0.51,-0.76l-5.41 0c-0.73,-0.01 -1.17,-0.12 -1.17,0.63z"/>
   <path class="fil20" d="M105.79 69.39c-0.99,0.34 -0.38,-0.1 -0.97,0.48 -0.63,0.62 -0.45,0.17 -0.94,0.55 -0.54,0.43 0.05,0.23 -0.87,0.61 -0.37,0.15 -0.77,0.61 -0.79,0.69 -0.15,0.49 0.52,0.9 0.82,1.19 0.13,0.13 0.07,0.04 0.16,0.16 0.29,0.38 0.07,0.39 0.34,0.73 0.57,0.73 0.22,-0.05 0.63,0.96 0.17,0.41 0.15,0.1 0.34,0.5 0.01,0.02 0.02,0.06 0.03,0.08 0.04,0.1 0.01,0.08 0.08,0.24 0.15,0.35 0.16,0.08 0.24,0.5 0.08,0.43 -0.09,0.94 0.06,1.32 0.33,0.77 0.37,-0.54 0.37,2.41 0.59,0.07 0.65,0.18 1.38,0.18 1.08,-0.01 3.44,0.12 4.07,-0.16 0.15,-0.94 0.04,-5.09 0.05,-6.62 0.01,-1.29 0.25,-1.61 -0.4,-1.67 -0.24,0.26 -0.09,0.05 -0.22,0.43 0.26,-0.08 0.2,-0.02 0.38,-0.1 0.1,0.92 0.02,4.52 0.02,5.9 0,0.51 0.15,1.55 -0.12,1.87 -0.36,0.29 -3.88,0.18 -4.59,0.09 -0.14,-0.45 -0.06,-0.76 -0.07,-1.22 -0.02,-0.47 -0.13,-0.76 -0.2,-1.17 -0.29,-1.73 0.16,-0.55 -0.59,-2.15 -0.56,-1.2 -0.23,-0.63 -1.01,-1.75 -0.9,-1.29 -1.98,-1.45 -0.24,-2.31 2.49,-1.22 2.85,-2.53 3.48,-1.14 0.31,0.7 0.31,0.54 0.5,0.68 -0.03,-0.59 -0.49,-1.29 -0.85,-1.55 -0.77,-0.08 -0.71,0.41 -1.09,0.27z"/>
   <path class="fil18" d="M66.35 60.04c0.4,-0.14 4.49,-0.13 5.06,-0.03 0.14,0.51 0.16,2.47 -0.05,2.81 -0.15,0.15 -0.55,0.12 -0.86,0.11 -1.21,-0.02 -1.79,-0.16 -2.41,0.33 -0.06,0.78 -0.01,1.72 -0.01,2.52l-0.03 2.21c-0.12,0.54 -1.24,0.42 -1.75,0.25l0.05 -8.2zm1.94 8.61c0.19,-0.06 0.16,-0.03 0.3,-0.11l-0.01 -4.46c-0.01,-0.75 -0.01,-0.75 0.74,-0.75 0.5,0.01 1,0.01 1.5,0.02 1.52,0.01 1.17,0.39 1.17,-3.35 -0.63,-0.09 -0.4,-0.25 -1.27,-0.24 -5.64,0.05 -4.67,-1.1 -4.67,4.43 0,0.96 -0.1,3.55 0.1,4.25 0.36,0.11 0.62,0.08 1.06,0.07l0.84 0.04c0.21,0.05 0.13,0.02 0.24,0.1z"/>
   <path class="fil21" d="M38.18 70l6.87 0.01 -0.02 3.65c-1.54,0.02 -2.24,-0.33 -2.23,1.24l0.01 5.13 -4.64 -0.04 0.01 -9.99zm-0.22 10.08c0.5,0.25 4.5,0.28 5.06,0.02 0.37,-1.32 -0.3,-5.62 0.29,-6.07 0.38,-0.29 1.32,0.01 1.91,-0.22 0.06,-0.18 0.23,-3.62 -0.04,-3.92 -0.27,-0.22 -6.42,-0.2 -7.14,-0.08 -0.19,0.41 -0.22,9.4 -0.08,10.27z"/>
   <path class="fil22" d="M105.79 69.39c0.38,0.14 0.32,-0.35 1.09,-0.27 0.36,0.26 0.82,0.96 0.85,1.55 0.02,0.41 0.96,2 1.06,2.32 0.3,0.94 0.1,0.69 0.43,0.87 0.46,-0.15 0.09,0.02 0.62,-0.87 0.13,-0.23 0.37,-0.79 0.33,-1.02 0.13,-0.38 -0.02,-0.17 0.22,-0.43 0.65,0.06 0.41,0.38 0.4,1.67 -0.01,1.53 0.1,5.68 -0.05,6.62 -0.63,0.28 -2.99,0.15 -4.07,0.16 -0.73,0 -0.79,-0.11 -1.38,-0.18 0,0.79 0.67,0.51 2.66,0.51 0.81,0 2.49,0.17 3.07,-0.11 0.27,-0.27 0.09,-6.68 0.11,-8.06 0.01,-1.03 -0.21,-1.6 -1.03,-0.82 -0.5,0.48 -0.14,0.14 -0.43,0.74 -0.01,0.02 -0.02,0.05 -0.04,0.07 -0.26,0.49 -0.2,0.14 -0.2,1.07l-0.21 0c0,-0.51 -0.02,-0.33 -0.19,-0.66l-0.2 -0.54c-0.22,-0.42 -0.05,0.01 -0.24,-0.29 -0.02,-0.02 -0.03,-0.05 -0.04,-0.07 -0.01,-0.02 -0.02,-0.05 -0.03,-0.07 -0.58,-1.39 -0.45,-0.89 -0.72,-1.41 -0.15,-0.3 -0.41,-1.22 -0.57,-1.33 -0.19,-0.14 -0.86,-0.22 -1.24,0.2 -0.03,0.04 -0.1,0.13 -0.12,0.17 -0.13,0.2 -0.03,-0.02 -0.08,0.18z"/>
   <path class="fil23" d="M49.26 67.65c-0.26,-0.85 0.05,-1.46 -0.55,-2.46 -0.2,-0.34 -0.35,-0.53 -0.72,-0.77 -0.79,-0.51 -0.82,-0.57 -0.97,-0.12 0.39,0.4 0.17,0.06 0.6,0.29 0.8,0.43 0.81,1.15 0.97,1.36 0.22,0.28 0.38,0.05 0.28,1.54 -0.05,0.8 -0.8,0.51 -0.3,1.11 0.02,0.02 0.04,0.04 0.06,0.06l0.12 0.09c0.57,0.43 3.7,0.21 4.46,0.22 0.47,0 1.14,0.11 1.44,-0.58 0.1,-0.24 -0.01,-0.19 0.22,-0.53 0.11,-0.16 0.16,-0.1 0.23,-0.4 0.12,-0.53 0.1,-2.76 -0.15,-3.1 -0.18,-0.24 -0.16,0.01 -0.24,-0.39 -0.13,-0.63 0.22,-0.59 -0.21,-1.17l-0.22 -0.42c-0.22,-0.62 -0.39,-0.4 -0.62,-0.76 -0.38,-0.6 0.22,-0.46 -0.62,-0.75 -0.23,-0.09 -0.15,0 -0.4,-0.24 -0.23,-0.23 -0.2,-0.17 -0.28,-0.47l-0.77 0 0.02 0.32c0.5,0.13 0.54,0.26 0.91,0.44 1.79,0.9 2.07,3.11 2.06,4.97 0,0.46 -0.01,0.93 -0.04,1.38 0,0.18 -0.02,0.57 -0.07,0.73 -0.23,0.82 -1.44,0.47 -2.85,0.47l-2.22 -0.02c-0.21,-0.05 -0.16,-0.04 -0.29,-0.12 -0.04,-0.33 -0.07,-0.44 0.15,-0.68z"/>
   <path class="fil24" d="M49.26 67.65c0.15,-0.1 0.07,0.02 0.15,-0.28l-0.07 -1.2c-0.56,-2.3 -2.1,-2.25 -2.55,-2.63l0.01 -3.43c0.78,-0.29 2.87,0.17 3.65,0.26 1.03,0.12 1.91,0.6 2.65,1.28 1.17,1.06 1.67,4.47 1.01,6.52 -0.49,0.16 -4.13,0.1 -4.81,0.04l-0.04 -0.56zm-2.58 -3.56c0.25,0.08 0.16,0.05 0.34,0.21 0.15,-0.45 0.18,-0.39 0.97,0.12 0.37,0.24 0.52,0.43 0.72,0.77 0.6,1 0.29,1.61 0.55,2.46 -0.22,0.24 -0.19,0.35 -0.15,0.68 0.13,0.08 0.08,0.07 0.29,0.12l2.22 0.02c1.41,0 2.62,0.35 2.85,-0.47 0.05,-0.16 0.07,-0.55 0.07,-0.73 0.03,-0.45 0.04,-0.92 0.04,-1.38 0.01,-1.86 -0.27,-4.07 -2.06,-4.97 -0.37,-0.18 -0.41,-0.31 -0.91,-0.44l-0.02 -0.32c-0.58,-0.18 -0.13,-0.39 -0.92,-0.43 -0.57,-0.03 -0.84,0.1 -1.31,-0.1l-0.12 0.25c-2.6,0.15 -2.95,-1.34 -2.72,3.25 0.03,0.52 0.13,0.46 0.16,0.96z"/>
   <path class="fil23" d="M48.6 74.16l-0.09 -0.35c-0.67,-0.01 -1.46,0.26 -1.89,-0.06 -0.02,-0.02 -0.04,-0.09 -0.04,-0.07 -0.11,0.3 -0.1,-1.72 -0.1,-1.85 0,-0.68 -0.08,-1.53 0.09,-2.08 0.54,-0.2 7.01,-0.22 7.58,-0.04 -0.02,0.78 0.09,0.44 -0.29,0.62 -0.16,0.26 -0.03,0.38 -0.37,0.83 -0.15,0.21 -0.38,0.49 -0.6,0.66 -0.01,0.03 -0.04,0.04 -0.05,0.09 -0.01,0.05 -0.08,0.15 -0.09,0.18 -0.07,0.17 -0.04,0.07 -0.08,0.27l0.43 0 0.42 -0.54c0.62,-0.54 0.24,-0.23 0.57,-0.91 0.26,-0.53 0.15,-0.49 0.33,-0.73 0.06,-0.08 0.11,-0.03 0.28,-0.26 0,-1.02 -0.18,-0.75 -1.28,-0.74l-6.37 -0.01c-1.17,-0.02 -0.84,-0.08 -0.84,3.3 0,0.35 -0.01,0.71 -0.01,1.07 -0.01,0.54 -0.1,0.64 0.33,0.73 0.53,0.11 1.65,0.09 2.07,-0.11z"/>
   <path class="fil25" d="M59.64 77.31c3.62,-0.17 3.37,0.77 3.38,-1.98 0,-1.71 -0.09,-3.68 0.01,-5.36l1.56 0.01c0.06,1.16 0.14,9.57 -0.07,10.06l-4.81 0.01c-0.17,-0.42 -0.11,-2.2 -0.07,-2.74zm2.96 -0.44c-0.23,0.28 -0.25,0.2 -0.68,0.2 -2.37,0.03 -2.79,-0.7 -2.47,2.73 0.06,0.64 0.36,0.51 0.97,0.5 5.23,-0.13 4.43,0.77 4.44,-2.64 0,-0.88 0,-1.76 0.01,-2.65 0.02,-5.44 0.39,-5.29 -1.05,-5.28 -0.12,0 -0.43,0 -0.53,0.02l-0.29 0.08c-0.37,-0.57 -0.23,4.73 -0.23,5.39 0,0.78 0.14,1.36 -0.17,1.65z"/>
   <path class="fil26" d="M24.65 60.05l5.03 -0.02 0.01 3.51 -5.01 0.03 -0.03 -3.52zm-0.06 4.04l5.5 0c0.27,-0.58 0.1,-0.89 0.1,-1.91 0,-0.75 0,-1.5 0,-2.25 -0.54,-0.06 -0.52,-0.18 -1.27,-0.18 -5.24,0.04 -4.49,-0.61 -4.49,2.22 0,1.84 0.01,0.82 0.16,2.12z"/>
   <path class="fil19" d="M78.46 78.65l-0.47 0.03c-0.14,0.77 -0.85,1.41 -1.65,1.48 -2.03,0.17 -3.08,-1.04 -2.78,-2.6 0.26,-1.37 2.22,-2.75 3.91,-1.13 0.3,0.3 0.29,0.17 0.43,0.61 0.13,0.39 0.08,0.53 0.56,0.53 0,-0.93 -0.09,-0.3 -0.41,-1.2 -0.13,-0.37 0.17,-0.09 -0.19,-0.34 -0.3,-0.21 -0.22,0.14 -0.71,-0.35 -0.3,-0.3 -0.23,-0.41 -0.71,-0.46 -0.4,-0.04 -1.16,-0.06 -1.5,0.1l-0.42 0.21c-0.38,0.13 -0.01,-0.11 -0.38,0.15 -0.02,0.02 -0.08,0.09 -0.11,0.11l-0.41 0.44c-0.15,0.13 -0.22,0.17 -0.36,0.27 0,1.63 -0.44,0.73 -0.33,1.8 0.07,0.79 0,0.14 0.22,0.54l0.07 0.14c0.18,0.44 -0.11,0.19 0.45,0.71 0.02,0.02 0.04,0.04 0.06,0.05l0.21 0.22c0.01,0.01 0.03,0.03 0.05,0.05l0.1 0.11c0.56,0.6 0.83,0.41 1.72,0.41 1.43,0 1.42,-0.09 2.23,-0.84 0.02,-0.01 0.04,-0.03 0.06,-0.05l0.25 -0.27c0.12,-0.23 0.11,-0.36 0.11,-0.72z"/>
   <path class="fil4" d="M32.51 80.32c-0.03,-0.6 -0.03,-0.39 -0.34,-0.72 -0.53,-0.55 -0.69,-1.45 -0.5,-2.22 0.09,-0.35 0.55,-0.77 0.82,-1.02 0.34,-0.33 0.08,-0.23 0.66,-0.34 1.53,-0.29 2.91,0.22 2.95,1.85 0.04,1.66 -0.4,1.53 -1.16,2.3 -0.19,0.19 -0.15,0.08 -0.25,0.36 1.32,0 0.8,-0.38 1.97,-1.17 0,-3.09 0.23,-2.1 -1.03,-3.42 -0.7,-0.74 -0.46,-0.12 -1.33,-0.58 -0.18,-0.09 -0.06,-0.08 -0.3,-0.12 -0.13,-0.03 -0.38,-0.02 -0.52,-0.02 -0.13,0.5 -0.05,0.21 -0.41,0.34l-0.23 0.08c-0.18,0.1 -0.04,0.06 -0.24,0.19 -0.37,0.22 -0.65,0.1 -0.93,0.56 -0.01,0.02 -0.03,0.04 -0.04,0.06 -0.01,0.03 -0.02,0.05 -0.03,0.08l-0.42 0.84c-0.08,0.26 -0.03,1.24 -0.03,1.57 0.12,0.17 0.21,0.21 0.26,0.27 0.3,0.44 -0.01,0.35 0.39,0.78 0.17,0.18 0.13,0.07 0.3,0.33l0.41 0z"/>
   <path class="fil27" d="M98.41 80.53l-0.03 -0.29c-1.84,-0.33 -1.2,-3.06 -0.99,-3.38 0.29,-0.46 0.28,-0.15 0.8,-0.79 1.01,0 2.44,-0.38 3.14,1.31 0.28,0.67 0.19,1.26 -0.1,1.84 -0.16,0.33 -0.3,0.46 -0.51,0.65 -0.51,0.47 -0.43,0.23 -0.57,0.66l0.79 0c0.72,-0.83 0.81,-0.53 0.8,-1.24 -0.01,-0.72 0.03,-0.21 0.28,-0.66 0.42,-0.75 -0.18,-1.26 -0.21,-1.3 -0.4,-0.64 0.36,0.06 -0.94,-1.28 -0.37,-0.38 -0.31,-0.5 -0.98,-0.52 -2.28,-0.04 -1.08,0.02 -2.13,0.44 -0.31,0.12 -1.01,0.67 -1.12,0.99 -0.1,0.3 -0.05,0.7 -0.05,1.02 0.01,1 -0.18,1.22 0.4,1.73 0.93,0.81 0.44,0.82 1.42,0.82z"/>
   <path class="fil6" d="M68.29 68.65c-0.11,-0.08 -0.03,-0.05 -0.24,-0.1l-0.84 -0.04c-0.44,0.01 -0.7,0.04 -1.06,-0.07 -0.2,-0.7 -0.1,-3.29 -0.1,-4.25 0,-5.53 -0.97,-4.38 4.67,-4.43 0.87,-0.01 0.64,0.15 1.27,0.24l0 -0.47c-0.54,-0.29 -0.6,-0.22 -1.38,-0.22 -1.23,0.01 -3.91,-0.09 -4.78,0.11 -0.33,1.42 -0.1,7.05 -0.1,9.02 0.99,0.66 -0.14,0.53 2.33,0.53l0.23 -0.32z"/>
   <path class="fil28" d="M48.6 74.16l0.05 -0.21c0.41,0 1,0.07 1.29,-0.09 0.17,-0.1 0.14,-0.19 0.36,-0.27 0.31,-0.13 0.83,-0.07 1.6,-0.53 0.27,-0.16 0.48,-0.49 0.77,-0.7 0.04,-0.2 0.01,-0.1 0.08,-0.27 0.01,-0.03 0.08,-0.13 0.09,-0.18 0.01,-0.05 0.04,-0.06 0.05,-0.09 -0.57,0.13 -0.92,0.54 -1.4,0.74l-1.41 0.51c-0.23,0.1 -0.09,0.17 -0.8,0.25 -0.86,0.11 -1.58,0.52 -2.54,0.31l0.04 -3.73 6.96 -0.02c0.11,0.15 0.15,-0.17 0.12,0.45 0.38,-0.18 0.27,0.16 0.29,-0.62 -0.57,-0.18 -7.04,-0.16 -7.58,0.04 -0.17,0.55 -0.09,1.4 -0.09,2.08 0,0.13 -0.01,2.15 0.1,1.85 0,-0.02 0.02,0.05 0.04,0.07 0.43,0.32 1.22,0.05 1.89,0.06l0.09 0.35z"/>
   <path class="fil29" d="M29.45 71c-0.49,0.03 -0.6,0.13 -1.16,0.13 -0.85,0 -3.26,0.05 -3.81,-0.08l0.04 -1.29c0.93,-0.21 3.84,-0.06 4.93,-0.02 -0.01,-0.74 -0.05,-0.56 -1.59,-0.56l-3.16 0.02c-0.97,0.27 -0.84,1.65 -0.66,2.42l4.46 0c0.84,0.02 0.95,0.17 0.95,-0.62z"/>
   <path class="fil29" d="M24.59 64.09c-0.15,-1.3 -0.16,-0.28 -0.16,-2.12 0,-2.83 -0.75,-2.18 4.49,-2.22 0.75,0 0.73,0.12 1.27,0.18 0.11,-0.15 0.04,-0.05 0,-0.51 -1.17,-0.1 -4.84,-0.26 -5.71,-0.09 -0.8,0.16 -0.55,1.42 -0.55,2.42 0,0.5 -0.01,1 0,1.5 0,0.63 0.02,0.82 0.66,0.84z"/>
   <path class="fil30" d="M24.66 68.25l-0.08 -0.74c0.5,-0.13 2.87,-0.07 3.71,-0.07 0.46,-0.01 0.9,-0.06 0.86,0.45 -0.05,0.67 -1.38,0.43 -2.03,0.43 -0.6,0 -1.98,0.09 -2.46,-0.07zm4.79 0.27l0 -1.57c-0.41,-0.03 -0.5,-0.11 -1.06,-0.11l-3.81 0c-0.03,0.57 -0.35,0.78 -0.15,1.37 0.13,0.37 0.01,0.08 0.13,0.24 0.57,0.33 3.97,0.1 4.89,0.07z"/>
   <path class="fil31" d="M59.46 63.34c-0.08,-0.9 -0.3,-2.72 0,-3.5 0.54,-0.19 3.39,-0.09 4.36,-0.1 0.89,-0.02 0.75,0.11 1.38,0.21l0 -0.53c-1.93,-0.16 -4.23,-0.16 -6.16,0 -0.21,0.92 -0.21,3 0,3.92l0.42 0z"/>
   <path class="fil2" d="M24.66 68.25c0.48,0.16 1.86,0.07 2.46,0.07 0.65,0 1.98,0.24 2.03,-0.43 0.04,-0.51 -0.4,-0.46 -0.86,-0.45 -0.84,0 -3.21,-0.06 -3.71,0.07l0.08 0.74z"/>
   <path class="fil29" d="M15.02 59.63c1.5,0 7.51,-0.22 8.38,0.11 0.38,1 0.05,3.19 0,4.35 0.3,-0.01 0.24,-0.02 0.43,-0.11 0,-1.13 -0.01,-2.26 0,-3.39 0.01,-0.72 0.17,-1.14 -0.44,-1.26 -0.66,-0.13 -7.14,-0.01 -8.37,0.09l0 0.21z"/>
   <path class="fil21" d="M24.75 70.01l4.11 -0.01 0.01 0.82 -4.14 0 0.02 -0.81zm4.7 0.99l0 -1.26c-1.09,-0.04 -4,-0.19 -4.93,0.02l-0.04 1.29c0.55,0.13 2.96,0.08 3.81,0.08 0.56,0 0.67,-0.1 1.16,-0.13z"/>
   <path class="fil32" d="M54.91 80.53c-0.19,-0.7 -0.16,0.27 -1.35,-0.99 -0.76,-0.8 -0.74,-2.66 0.45,-3.4 1.28,-0.79 0.1,-0.24 1.33,-0.43 0.55,-0.09 0.32,0.07 0.44,-0.27 -0.33,-0.47 -1,-0.22 -1.33,-0.04 -0.03,0.01 -0.11,0.06 -0.14,0.08 -0.38,0.18 -0.29,0 -0.67,0.38 -0.76,0.77 -0.44,0.43 -0.71,1l-0.26 0.37c-0.21,0.37 -0.1,1.19 -0.1,1.71 0.09,0.25 0.22,0 0.42,0.54 0.21,0.57 0.09,0.59 0.99,0.92 0.39,0.15 0.1,0.13 0.93,0.13z"/>
   <polygon class="fil3" points="24.73,70.82 28.87,70.82 28.86,70 24.75,70.01 "/>
   <path class="fil16" d="M55.92 80.53c0.17,0 0.29,0.01 0.45,-0.02 1.39,-0.26 1.2,-0.99 1.45,-1.31 0.24,-0.31 0.36,-0.07 0.28,-1.54 -0.04,-0.65 0.01,-0.01 -0.47,-1.13 -0.09,-0.22 0.03,-0.02 -0.12,-0.2 -0.28,-0.35 -0.71,-0.76 -1.22,-0.79 0.03,0.94 1.39,0.7 1.3,2.66 -0.03,0.81 -0.63,1.61 -1.06,1.84 -0.46,0.24 -0.49,-0.05 -0.61,0.49z"/>
   <path class="fil15" d="M46.68 64.09c-0.03,-0.5 -0.13,-0.44 -0.16,-0.96 -0.23,-4.59 0.12,-3.1 2.72,-3.25l0.12 -0.25c-0.26,-0.48 -0.91,-0.31 -1.77,-0.32 -1.72,-0.01 -1.38,-0.23 -1.38,2.97 0,1.71 -0.21,1.76 0.47,1.81z"/>
   <path class="fil33" d="M29.45 68.52c-0.92,0.03 -4.32,0.26 -4.89,-0.07 -0.12,-0.16 0,0.13 -0.13,-0.24 -0.2,-0.59 0.12,-0.8 0.15,-1.37 -0.56,0.13 -0.69,0.36 -0.66,1.07 0.02,0.39 0.03,0.45 0.26,0.7l0.17 0.16c0.12,0.11 0.07,0.09 0.22,0.2l3.93 0c0.71,0.01 0.9,0.16 0.95,-0.45z"/>
  </g>
 </g>
</svg>
