<?xml version="1.0" encoding="UTF-8"?>
<!DOCTYPE svg PUBLIC "-//W3C//DTD SVG 1.1//EN" "http://www.w3.org/Graphics/SVG/1.1/DTD/svg11.dtd">
<!-- Creator: CorelDRAW 2020 (64-Bit) -->
<svg xmlns="http://www.w3.org/2000/svg" xml:space="preserve" width="140px" height="140px" version="1.1" style="shape-rendering:geometricPrecision; text-rendering:geometricPrecision; image-rendering:optimizeQuality; fill-rule:evenodd; clip-rule:evenodd"
viewBox="0 0 140 140"
 xmlns:xlink="http://www.w3.org/1999/xlink"
 xmlns:xodm="http://www.corel.com/coreldraw/odm/2003">
 <defs>
  <style type="text/css">
   <![CDATA[
    .fil26 {fill:#353535}
    .fil27 {fill:#383738}
    .fil8 {fill:#393939}
    .fil3 {fill:#3A3A3A}
    .fil2 {fill:#3C3C3C}
    .fil25 {fill:#3D3D3D}
    .fil17 {fill:#3E3E3E}
    .fil1 {fill:#444444}
    .fil15 {fill:#4E4E4E}
    .fil18 {fill:#5B5B5B}
    .fil7 {fill:#5D5D5E}
    .fil5 {fill:#646464}
    .fil24 {fill:dimgray}
    .fil11 {fill:#6C6C6C}
    .fil6 {fill:#737373}
    .fil13 {fill:#7B7B7B}
    .fil10 {fill:#7C7C7D}
    .fil23 {fill:#838383}
    .fil20 {fill:#979797}
    .fil9 {fill:#9B9B9B}
    .fil12 {fill:#AFAFAF}
    .fil0 {fill:#B1B1B2}
    .fil21 {fill:#B7B7B8}
    .fil19 {fill:#BCBCBD}
    .fil4 {fill:#BEBEBE}
    .fil22 {fill:#C8C8C9}
    .fil14 {fill:#CCCCCC}
    .fil16 {fill:#CECECE}
    .fil30 {fill:#D7D7D7}
    .fil29 {fill:#F4F4F4}
    .fil28 {fill:#F8F8F8}
   ]]>
  </style>
 </defs>
 <g id="Layer_x0020_1">
  <metadata id="CorelCorpID_0Corel-Layer"/>
  <g id="_2738179764496">
   <path class="fil0" d="M109.64 47.64c0.33,0.22 0.39,0.45 0.62,0.75l1.78 2.94c0.22,0.57 0.39,0.71 0.69,1.79 0.05,0.19 0.03,0.22 0.06,0.41 0.21,1.18 0.12,2.72 -0.08,3.92 -0.1,0.62 -0.01,0.3 -0.31,0.7 -0.21,0.3 -0.18,0.33 -0.18,0.83l-0.33 0.23c-0.06,0.09 -0.03,0.08 -0.07,0.2 -0.17,0.44 -0.48,0.81 -0.63,1.14 -0.04,0.11 -0.11,0.2 -0.2,0.34l-0.38 0.73c-0.31,0.8 -0.93,0.58 -1.27,1.5 -0.22,0.58 -0.35,0.61 -0.99,0.76 -0.05,0.1 0.05,0.22 -0.13,0.36 -0.27,0.23 -0.17,-0.05 -0.49,0.22l-1.17 0.96c-0.33,0.16 -0.52,0.44 -0.83,0.64 -0.2,0.13 -0.05,0.03 -0.2,0.16l-1.03 0.73c-0.42,0.16 -0.41,0.05 -0.74,0.37 -0.24,0.23 -0.52,0.17 -0.78,0.33 -0.35,0.23 0.04,0.13 -0.39,0.34 -0.18,0.09 -0.43,0.1 -0.57,0.17 -0.38,0.17 -0.12,0.02 -0.32,0.42 -1.13,0 -0.72,0.31 -1.24,0.51 -0.29,0.12 -0.42,0.02 -0.7,0.22 -0.47,0.34 0.17,0.19 -0.61,0.32 -0.32,0.05 -0.78,0.07 -1.09,0.29l-0.55 0.29c-0.02,0.01 -0.04,0.02 -0.06,0.03l-0.43 0.22c-0.01,0 -0.04,0.02 -0.06,0.03 -0.24,0.12 -0.16,0.15 -0.44,0.2 -0.56,0.11 -1.38,-0.01 -1.87,0.35 -0.33,0.23 -0.61,0.23 -1,0.37 -0.69,0.25 -0.53,0.41 -1.45,0.4 -0.7,-0.01 -1.09,0.14 -1.66,0.19l-0.02 0.09c0,0 -0.01,0.04 -0.01,0.04 -0.14,0.3 -0.66,0.22 -1.03,0.28 -0.72,0.12 -0.69,0.39 -1.24,0.42 -1.31,0.08 -2.56,0.06 -3.77,0.39 -0.89,0.24 -1.34,0.15 -2.23,0.26 -0.31,0.04 -0.32,0.12 -0.61,0.11l-2.26 -0.03c-0.02,0.29 0,0.18 -0.09,0.37 -1.48,-0.34 -5.59,0.26 -7.53,-0.04 -0.53,-0.08 -1.02,0.01 -1.51,-0.05 -0.49,-0.06 -0.14,-0.1 -0.57,-0.17l-2.21 -0.2c-0.23,0.01 -0.55,0.05 -0.63,0.04 -0.25,-0.03 0.1,0.02 -0.24,-0.07l-2.21 -0.48c-0.71,-0.18 -1.53,0.02 -2.21,-0.18 -0.47,-0.14 -0.77,-0.36 -1.17,-0.41 -0.76,-0.09 -1.3,-0.04 -2.07,-0.24 -0.15,-0.04 -0.46,-0.14 -0.63,-0.19l-1.35 -0.22c0.11,-0.51 -0.25,-0.32 -0.89,-0.41 -0.55,-0.07 -0.51,-0.28 -1.05,-0.42 -0.38,-0.1 -0.98,-0.05 -1.29,-0.19l-0.3 -0.25c-0.33,-0.26 -0.91,-0.18 -1.25,-0.41 -0.6,-0.42 -1.09,-0.27 -1.64,-0.58 -0.28,-0.15 -0.14,-0.15 -0.51,-0.22 -0.84,-0.16 -0.33,-0.33 -0.92,-0.56 -0.18,-0.06 -0.5,-0.1 -0.73,-0.1 -0.19,-0.39 0.05,-0.27 -0.3,-0.44 -0.11,-0.05 -0.43,-0.09 -0.58,-0.16 -0.22,-0.11 -0.21,-0.22 -0.4,-0.33 -0.34,-0.21 -0.56,-0.15 -1,-0.48 -0.23,-0.16 -0.32,-0.09 -0.52,-0.22 -0.32,-0.2 -0.02,-0.33 -0.7,-0.5l-0.22 -0.06c-0.34,-0.1 -0.12,-0.23 -0.41,-0.41l-0.54 -0.39c-0.25,-0.25 -0.42,-0.23 -0.62,-0.48 -0.37,-0.45 -0.47,-0.05 -0.5,-0.48l-0.01 -0.08c-0.09,-0.17 0.04,-0.02 -0.11,-0.11 -0.18,-0.1 -0.43,-0.09 -0.64,-0.2 -0.01,-0.01 -0.01,-0.05 -0.01,-0.04 0,0.03 -0.02,-0.2 -0.14,-0.27 -0.62,-0.38 -0.23,0.31 -0.75,-0.72 -0.2,-0.39 -0.2,-0.44 -0.53,-0.67 -0.57,-0.4 -0.66,-0.29 -1,-0.95 -0.01,-0.02 -0.02,-0.04 -0.03,-0.06 -0.2,-0.4 -0.58,-0.74 -0.78,-1.15 -0.1,-0.19 -0.06,-0.15 -0.2,-0.35 -0.12,-0.18 -0.16,-0.18 -0.25,-0.4 -0.09,-0.2 -0.25,-0.68 -0.27,-0.93 -0.06,-0.51 -0.01,-0.7 -0.47,-0.82 0,-1.5 -0.29,-2.94 -0.08,-4.42 0.04,-0.28 0.09,-0.27 0.16,-0.57 0.03,-0.11 0.03,-0.19 0.06,-0.31 0.05,-0.18 0.09,-0.26 0.12,-0.34l0.26 -0.85c0.2,-0.5 0.46,-0.82 0.73,-1.31 0.08,-0.13 0.09,-0.13 0.12,-0.21 0.01,-0.01 0.02,-0.04 0.02,-0.05 0.18,-0.48 0.12,-0.2 0.42,-0.55 0.21,-0.24 0.08,-0.24 0.22,-0.53 0.14,-0.3 0.32,-0.43 0.51,-0.68 0.17,-0.22 0.02,-0.02 0.19,-0.18l1.2 -1.2c0.01,-0.02 0.03,-0.04 0.05,-0.05 0.01,-0.01 0.02,-0.04 0.04,-0.05 0.01,-0.02 0.06,-0.09 0.08,-0.1 0.23,-0.24 0.65,-0.36 0.85,-0.72l0.12 -0.25c0.18,-0.36 0.35,-0.19 0.77,-0.61 0.24,-0.26 0.41,-0.12 0.68,-0.34 0.29,-0.24 -0.07,-0.13 0.37,-0.37 0.25,-0.13 0.38,-0.09 0.61,-0.31l0.79 -0.6c0.01,-0.01 0.03,-0.02 0.05,-0.04 0.14,-0.08 0.44,-0.1 0.56,-0.17 0.2,-0.12 0.23,-0.33 0.33,-0.51 1.35,0 0.77,-0.24 1.42,-0.51 0.26,-0.11 0.11,0.03 0.34,-0.13 0.52,-0.37 -0.1,-0.47 1.1,-0.47 0.31,-0.65 0.01,-0.32 0.85,-0.62 0.43,-0.15 0.96,-0.25 1.31,-0.53 0.16,-0.13 -0.07,-0.01 0.14,-0.14l0.46 -0.28 -0.77 0.06c-0.19,0.06 -0.17,0.03 -0.35,0.11 -0.58,0.24 -1.14,0.23 -1.64,0.49 -0.7,0.35 -0.56,0.15 -1.24,0.32 -0.46,0.11 -0.38,0.25 -0.62,0.4 -0.4,0.25 -0.93,-0.03 -1.32,0.34l-0.24 0.22c-0.52,0.27 -0.88,-0.06 -1.5,0.44 -0.37,0.29 -0.49,0.14 -0.8,0.4 -0.16,0.14 -0.28,0.24 -0.56,0.27 -1.19,0.1 -0.55,0.19 -1.25,0.69 -0.81,0.57 -0.62,0.42 -1.42,0.23 -0.45,0.42 -0.29,0.6 -0.85,1 -0.47,0.35 -0.14,0.08 -0.68,0.24 -0.35,0.11 -0.36,0.34 -0.62,0.5 -0.47,0.28 -0.49,0.45 -1.05,0.6 -0.32,0.1 -0.36,0.16 -0.53,0.4 -0.23,0.32 -0.12,0.43 -0.43,0.58l-0.2 0.08c-0.08,0.01 -0.16,0.02 -0.24,0.04 -0.22,0.03 -0.23,0.05 -0.48,0.07 0.15,0.71 -0.13,-0.06 -0.55,0.74l-0.42 0.4c-0.19,0.35 -0.09,0.36 -0.38,0.64 -0.22,0.22 -0.46,0.2 -0.63,0.39 -0.24,0.31 0.08,0.45 -0.6,0.5 0.14,0.22 0.11,0.1 0.18,0.37 -0.36,0 -0.37,0.03 -0.64,0.1 0,0.85 -0.47,1 -0.9,1.5l-0.42 0.69c-0.09,0.2 -0.1,0.39 -0.15,0.58l-0.16 0.41c-0.02,0.02 -0.06,0.09 -0.07,0.1 -0.26,0.25 0.05,0.07 -0.43,-0.05 0.05,0.6 0.12,0.74 -0.17,1.3 -0.01,0.02 -0.02,0.04 -0.03,0.06 -0.01,0.02 -0.02,0.05 -0.03,0.06l-0.43 1.51c-0.08,0.31 -0.31,2.28 -0.25,2.78 0.03,0.31 0.15,0.51 0.22,0.79 0.17,0.63 0.17,1.54 0.46,2.04 0.18,0.3 0.02,-0.24 0.16,0.39 0.13,0.62 0.41,0.88 0.57,1.4 0.09,0.27 -0.13,-0.05 0.11,0.31l0.55 0.94c0.41,0.59 0.27,-0.02 0.89,1.23 0.3,0.61 0.4,0.55 0.89,1.05l0.53 0.48c0.1,0.08 0.17,0.1 0.24,0.21 0.12,0.21 -0.06,0.19 0.14,0.34 0.34,0.26 0.43,0.14 1.04,0.88l0.79 0.7c0.31,0.22 0.42,0.13 0.62,0.39 0.07,0.11 -0.01,0.06 0.11,0.16 0.01,0.01 0.19,0.1 0.19,0.1 0.29,0.1 0.38,0.12 0.58,0.34l0.31 0.24c0.14,0.11 0.16,0.15 0.29,0.27 0.41,0.39 0.36,0.09 0.88,0.59 0.27,0.24 0,0.07 0.38,0.18 0.9,0.25 0.04,0.54 1.48,0.54 0.25,0.52 0.28,0.42 0.77,0.61 0.43,0.17 0.37,0.35 0.91,0.48 0.22,0.05 0.31,0.06 0.47,0.17 0.28,0.19 0.01,0.16 0.46,0.29 0.23,0.06 0.34,0.01 0.5,0.14 0.28,0.24 0.05,0.09 -0.06,0.23 -0.36,0.47 0.1,-0.38 -0.09,0.11 0.4,-0.19 0.48,0.03 1.01,0.09 0.66,0.08 0.49,0.09 0.74,0.56 0.47,0 0.73,-0.04 1.03,0.17 0.47,0.32 0.09,0.31 0.9,0.39 0.25,0.02 0.25,0.02 0.45,0.1 0.64,0.24 0.71,0.44 1.49,0.44 0.37,0.7 0.95,0.33 1.59,0.54 0.45,0.14 0.1,-0.13 0.35,0.39 0.44,-0.04 0.56,0.04 1,0.11 0.37,0.06 0.81,0.07 1.31,0.07 0.03,0.26 0.03,0.25 0.19,0.36 0.2,0.14 0.24,0.09 0.54,0.11 0.44,0.03 0.59,0.08 1.11,0.08 0.04,0.43 -0.1,0.17 0.19,0.37 0.39,-0.1 0.14,-0.16 0.43,-0.13 0.55,0.06 0.13,0.23 1.87,0.23 0.16,0.38 -0.06,-0.02 0.1,0.36 0.8,0 1.58,0.12 2.31,0.18 0.54,0.05 1.17,-0.04 1.68,0.16l0.34 0.21c0.53,0.28 1.68,0.05 2.35,0.15 0.49,0.08 1.43,-0.07 1.81,0.13 0.36,0.2 -0.26,0.1 0.46,0.19 0.51,0.07 0.61,0.01 1,0.02 0.28,0.01 0.81,0.13 1.12,0.16 1.47,0.11 5.96,0 7.66,0 0.83,0.01 1.63,-0.13 2.32,-0.14 1.28,-0.02 0.73,0.03 2.22,-0.2l2.84 -0.3c0.09,-0.01 0.18,-0.01 0.27,-0.01l0.15 -0.01c0.02,0 0.04,0 0.06,0 0.46,-0.05 0.39,-0.33 0.9,-0.36 0.59,-0.02 1.86,-0.01 2.36,-0.13 0.79,-0.19 0.6,0.08 0.98,-0.11 0.55,-0.27 -0.3,0.03 0.24,-0.24 0.29,-0.14 1.18,-0.14 1.59,-0.25l0.43 -0.21c0.52,-0.21 1.16,-0.12 1.78,-0.16 0.45,-0.03 0.6,-0.18 1.11,-0.18 0.01,-0.02 0.01,-0.06 0.01,-0.05l0.02 -0.09c0.13,-0.29 0.46,-0.22 0.8,-0.24 0.64,-0.04 0.7,-0.02 0.93,-0.45 0.81,0 0.97,-0.28 1.75,-0.28 0.01,-0.01 0.01,-0.05 0.01,-0.04l0.08 -0.24c0.71,0 0.76,-0.13 1.26,-0.4 0.83,-0.45 1.39,0.21 2.06,-0.8l0.74 0c0.09,-0.22 0.06,-0.07 0,-0.37 0.46,-0.01 1.26,-0.08 1.55,-0.43l0.28 -0.22c0.35,-0.18 0.46,-0.39 0.85,-0.45 0.64,-0.1 0.56,-0.05 0.83,-0.56 0.25,0 0.36,0.02 0.6,-0.04 0.36,-0.09 0.08,-0.1 0.51,-0.14 0,-0.01 0,-0.06 0,-0.05l0.02 -0.09c0.13,-0.32 0.4,-0.19 0.68,-0.44 0.31,-0.28 -0.08,-0.13 0.41,-0.33 0.06,-0.03 0.24,-0.07 0.28,-0.09 0.46,-0.22 0,-0.26 0.65,-0.46 0.36,-0.11 0.22,0 0.5,-0.24l0.2 -0.17c0.24,-0.18 0.31,-0.43 0.55,-0.55 0.29,-0.15 0.52,-0.05 0.8,-0.31l0.19 -0.18c0.43,-0.4 0.27,-0.44 0.8,-0.68l1.05 -0.88c0.26,-0.3 0.4,-0.17 0.42,-0.7 0.57,0 0.36,0.09 0.58,-0.25 0.01,-0.02 0.02,-0.04 0.03,-0.06 0.01,-0.02 0.02,-0.04 0.03,-0.06l0.91 -1.21c0.07,-0.02 0.27,-0.06 0.3,-0.08 0.13,-0.05 0.12,0.04 0.22,-0.18 0,-0.01 0.01,-0.04 0.01,-0.06l0.27 -0.63c0.03,-0.04 0.11,-0.17 0.11,-0.17 0.01,-0.03 0.05,-0.1 0.06,-0.12 0.06,-0.11 0.04,-0.11 0.09,-0.2l1.1 -1.94c0.01,-0.02 0.02,-0.04 0.03,-0.06l0.31 -0.79c0.11,-0.22 0.01,0.03 0.11,-0.18l0.15 -0.67c0.04,-0.31 0.01,-0.56 0.06,-0.87 0.11,-0.72 0.24,-0.8 0.24,-1.6 0,-0.67 -0.08,-1.13 -0.09,-1.66 -0.02,-0.83 -0.14,-1.12 -0.34,-1.79 -0.21,-0.69 -0.37,-1.44 -0.79,-1.97 -0.21,-0.26 -0.22,-0.56 -0.42,-0.89l-0.15 -0.34c-0.1,-0.34 -0.54,-0.65 -0.74,-1.06 -0.04,-0.09 -0.05,-0.13 -0.09,-0.19l-0.07 -0.11c-0.02,-0.03 -0.07,-0.08 -0.09,-0.1 -0.58,-0.73 -0.56,-0.46 -0.76,-0.81l-0.12 -0.25c-0.24,-0.49 -0.04,-0.52 -0.77,-0.52l-0.51 -0.88c-0.19,-0.22 0.02,-0.07 -0.36,-0.19 -0.6,-0.19 -0.22,-0.08 -0.55,-0.46 -0.2,-0.23 -0.09,-0.04 -0.24,-0.22 -0.06,-0.08 -0.04,-0.05 -0.11,-0.17 -0.01,-0.02 -0.05,-0.15 -0.07,-0.2l-0.65 0 -0.74 -1.02c-0.27,-0.16 -0.49,-0.06 -0.86,-0.33 -0.38,-0.28 -0.73,-0.58 -1.26,-0.59l0.68 0.79c1.15,1.06 0.45,0.45 1.03,1.19 0.12,0.16 0.11,-0.1 0.23,0.33z"/>
   <path class="fil1" d="M20.04 59.72c0,0.97 -0.16,2.33 0.12,3.21 0.03,0.11 0.1,0.39 0.12,0.52 0.04,0.24 0.01,0.39 0.04,0.61 0.06,0.5 0.03,0.11 0.19,0.46 0,0 0.32,1.17 0.77,2.18l0.14 0.32c0.08,0.15 0.03,0.03 0.13,0.23 0.05,0.11 0.04,0.1 0.09,0.2l0.59 0.97c0.01,0.02 0.03,0.04 0.04,0.05l1.29 1.85c0.5,0.86 1.69,1.92 2.44,2.64 0.01,0.01 0.04,0.03 0.05,0.04l1.42 1.17c0.29,0.23 0.39,0.47 0.78,0.5 0.04,0.38 0.02,0.28 0.31,0.43l0.3 0.16c0.02,0.01 0.04,0.03 0.05,0.04l0.55 0.38c0.18,0.14 0.22,0.22 0.39,0.35l0.82 0.47c0.03,0.01 0.1,0.05 0.12,0.06l0.65 0.46c0.01,0.01 0.23,0.13 0.24,0.13l0.57 0.3c0.01,0.01 0.02,0.03 0.03,0.04 0,0.01 0.01,0.03 0.02,0.04l1.39 0.75c0.12,0.06 0.13,0.05 0.26,0.11l1.5 0.8c0.42,0.26 1.09,0.42 1.56,0.66 0.02,0 0.04,0.02 0.06,0.03 0.02,0.01 0.05,0.02 0.07,0.02l2.23 0.91c0.19,0.06 0.2,0.08 0.33,0.13l1.59 0.62c0.14,0.04 0.18,0.02 0.31,0.06 0.46,0.14 0.85,0.42 1.34,0.51l2.37 0.68c0.37,0.11 0.54,0.04 0.9,0.2 0.28,0.14 0,0.04 0.25,0.12 0.15,0.04 0.17,0.02 0.31,0.06l0.24 0.13c0.25,0.13 0.88,0.14 1.08,0.22 0.39,0.15 -0.04,0.15 0.65,0.17 0.65,0.03 0.59,0.25 1.2,0.28 0.7,0.04 0.59,0.25 1.2,0.28 0.33,0.01 0.38,-0.05 0.67,0.06 0.38,0.15 0.04,0.15 0.53,0.21l0.84 0.18c0.03,0 0.05,0.01 0.08,0.01 0.07,0.02 0.38,0.07 0.39,0.07 0.26,0.03 0.46,0.02 0.72,0.02 0.62,0 0.6,0.26 1.19,0.28 0.67,0.03 0.82,0.14 1.3,0.18 0.69,0.06 1.46,0.02 2.09,0.21 0.43,0.13 0.89,0.03 1.36,0.12 1.23,0.23 1.49,0.21 2.73,0.22 0.68,0.01 0.98,0.28 1.29,0.28 0.43,0 0.23,-0.09 0.76,-0.03 0.92,0.12 1.92,-0.02 2.84,0.03l8.41 -0.08c0.46,-0.04 0.5,0.09 0.8,0.05 0.58,-0.06 0.69,-0.25 1.68,-0.24 0.7,0 1.16,0.02 1.74,-0.11 0.53,-0.11 1.24,-0.11 1.59,-0.16 0.47,-0.06 0.39,-0.13 0.74,-0.18 0.29,-0.04 0.55,-0.02 0.86,-0.07 0.35,-0.05 0.55,-0.02 0.89,-0.03 0.51,-0.03 0.57,-0.28 0.73,-0.28 0.43,0 0.5,0.12 0.81,0.07 0.27,-0.05 0.32,-0.2 0.68,-0.25 0.71,-0.1 1.89,-0.13 2.54,-0.32 0.45,-0.12 -0.01,-0.21 0.77,-0.24 0.59,-0.03 0.32,-0.02 0.74,-0.19 0.4,-0.16 0.45,-0.06 0.92,-0.08 0.05,-0.01 0.13,-0.01 0.17,-0.02 0.17,-0.04 0.11,-0.04 0.2,-0.08 0.27,-0.15 -0.14,-0.12 0.73,-0.19 0.46,-0.04 0.1,-0.01 0.44,-0.11 0.34,-0.1 0.47,-0.03 0.76,-0.17 0.68,-0.32 0.52,-0.24 1.49,-0.44 0.91,-0.19 1.43,-0.57 2.39,-0.57l0 -0.27c0.56,0 0.38,0.03 0.79,-0.14 0.18,-0.08 0.21,-0.08 0.34,-0.11 0.1,-0.03 0.16,-0.03 0.24,-0.05 0.47,-0.14 0.19,-0.14 0.91,-0.29 0.41,-0.08 0.89,-0.42 1.38,-0.56l1.06 -0.41c0.43,-0.1 0.76,-0.31 1.15,-0.51 0.02,-0.01 0.04,-0.02 0.06,-0.03l5.45 -2.67c0.2,-0.14 0.05,-0.05 0.29,-0.17l0.46 -0.28c0.01,-0.02 0.03,-0.03 0.05,-0.04l0.11 -0.08c0.62,-0.45 1.85,-1.04 2.33,-1.54 0.31,-0.32 0.74,-0.43 1,-0.76 0.08,-0.09 0.02,-0.04 0.13,-0.14 0.43,-0.4 0.94,-0.66 2.08,-1.8 0.34,-0.34 0.62,-0.64 0.97,-0.96l0.52 -0.5c0.26,-0.29 0.32,-0.19 0.33,-0.68 -0.49,0.04 -1.68,1.33 -2.08,1.6l-0.75 0.54c-0.18,0.17 -0.23,0.23 -0.43,0.4l-1.06 0.7c-0.69,0.41 -1.33,1 -2.07,1.34 -0.21,0.1 -0.38,0.11 -0.59,0.24l-2.86 1.55c-0.01,0 -0.04,0.01 -0.05,0.01l-0.85 0.4c-0.11,0.04 -0.22,0.1 -0.26,0.12 -0.02,0.01 -0.1,0.04 -0.12,0.05l-0.79 0.33c-0.4,0.12 -0.31,0.04 -0.65,0.27 -0.33,0.23 -0.84,0.25 -1.2,0.46 -0.65,0.35 -1.13,0.4 -1.85,0.74 -0.4,0.18 -0.26,0.04 -0.69,0.13l-0.71 0.31c-0.05,0.02 -0.15,0.06 -0.2,0.08 -0.05,0.02 -0.32,0.09 -0.35,0.1 -0.3,0.07 -0.42,0.07 -0.69,0.15l-1.27 0.39c-0.44,0.1 -0.22,0.15 -0.61,0.22 -0.91,0.16 -0.49,0.17 -1.34,0.32 -0.25,0.04 -0.4,0.15 -0.62,0.21 -0.31,0.08 -0.58,-0.01 -0.85,0.07 -0.42,0.11 -0.01,0.17 -0.59,0.24 -0.47,0.06 -0.3,0.01 -0.71,0.12l-2.85 0.56c-0.42,0.19 -1.03,0.16 -1.47,0.29 -0.28,0.08 -1.17,0.13 -1.51,0.15 -0.55,0.02 -0.95,0.23 -1.49,0.27l-1.04 0.16c-0.44,0.1 -1.64,0.12 -2.09,0.12 -0.76,-0.01 -0.88,0.16 -1.47,0.18l-3.33 0.1c-0.58,0.05 -0.91,0.18 -1.57,0.18 -2.25,0 -3.89,0.07 -6.06,-0.21 -0.59,-0.08 -1.33,-0.07 -2.06,-0.07l-4.42 -0.28c-0.54,-0.06 -0.06,-0.02 -0.43,-0.13 -0.36,-0.11 -0.67,-0.01 -1.04,-0.06 -0.83,-0.12 -0.51,-0.23 -1.86,-0.26 -0.27,-0.01 -0.65,-0.06 -0.9,-0.11l-0.94 -0.17c-0.65,-0.03 -0.41,-0.19 -0.84,-0.27 -0.5,-0.08 -1.02,-0.05 -1.47,-0.2l-1.24 -0.32c-0.42,-0.11 -0.48,0.04 -0.88,-0.14 -0.27,-0.12 -0.05,-0.11 -0.38,-0.17 -0.17,-0.03 -0.37,0 -0.54,-0.01 -0.45,-0.04 -0.42,-0.18 -0.77,-0.25 -0.2,-0.04 -0.3,-0.01 -0.5,-0.06l-2.14 -0.62c-0.02,-0.01 -0.04,-0.02 -0.06,-0.03 -0.46,-0.15 -0.66,-0.29 -1.15,-0.33 -0.56,-0.05 -1.01,-0.46 -1.57,-0.55l-4.67 -1.79c-0.17,-0.1 -0.21,-0.1 -0.39,-0.16l-0.89 -0.41c-0.11,-0.05 -0.1,-0.03 -0.2,-0.08l-3.38 -1.78c-0.35,-0.15 -0.11,0 -0.34,-0.21l-1.28 -0.84c-0.13,-0.08 -0.21,-0.12 -0.35,-0.21l-2.67 -1.94c-0.07,-0.06 -0.09,-0.08 -0.14,-0.14 -0.66,-0.6 -1.34,-1.11 -1.92,-1.77l-1.07 -1.05c0,-0.01 -0.12,-0.15 -0.12,-0.16l-2.86 -4.89c-0.28,-0.56 -0.11,-0.35 -0.25,-0.86l-0.5 -1.71 0 -3.69c0,-0.29 0.07,-0.28 0.16,-0.48 0.07,-0.15 0.06,-0.06 0.1,-0.27 0.02,-0.13 0,-0.21 0.03,-0.34 0.06,-0.29 0.17,-0.34 0.28,-0.83 0.07,-0.35 -0.01,-0.04 0.09,-0.27 0.17,-0.39 0.07,-0.12 0.18,-0.56 0.05,-0.2 0.03,-0.12 0.1,-0.27l0.66 -1.18c0.25,-0.37 0.22,-0.64 0.48,-1.01l0.59 -0.88c0.08,-0.1 0.11,-0.12 0.17,-0.2l1.17 -1.41c0.28,-0.32 0.46,-0.48 0.71,-0.77 0.45,-0.51 1.91,-1.88 2.4,-2.21l1.8 -1.34c0.07,-0.06 0.15,-0.1 0.22,-0.15 0.45,-0.31 0.87,-0.63 1.36,-0.85 0.02,-0.01 0.19,-0.08 0.2,-0.08l1.36 -0.86c0.02,-0.01 0.04,-0.02 0.06,-0.03l7.81 -3.54c0.43,-0.21 -0.07,-0.07 0.55,-0.19l1.15 -0.42c0.01,-0.01 0.03,-0.03 0.05,-0.03l0.82 -0.28c0.01,-0.01 0.04,-0.02 0.05,-0.03l1.65 -0.41c0.02,0 0.04,-0.02 0.06,-0.03l0.6 -0.13c0.4,-0.12 0.12,-0.15 0.52,-0.22 0.26,-0.05 0.42,0.02 0.69,-0.06 0.41,-0.12 0.57,-0.27 1.15,-0.32 -0.04,-0.45 -0.28,-0.37 -0.65,-0.37 -0.39,0 -0.36,0.14 -0.6,0.23 -0.28,0.09 -0.48,0.02 -0.78,0.05 -0.42,0.03 -0.31,0.1 -0.62,0.21 -0.35,0.12 -0.5,0.01 -0.83,0.09 -0.2,0.05 -0.3,0.17 -0.61,0.23l-0.69 0.13c-0.43,0.2 -0.08,0.12 -0.67,0.17 -0.5,0.04 -0.56,0.2 -1.02,0.27 -0.46,0.06 -0.48,0.22 -1.01,0.28 -0.58,0.07 -1.13,0.31 -1.68,0.44l-1.66 0.56c-0.99,0.21 -3.36,1.18 -4.37,1.62l-0.42 0.14c-0.18,0.08 0.03,-0.01 -0.18,0.09 -0.18,0.08 -0.11,0.05 -0.33,0.13l-0.92 0.38c-0.11,0.05 -0.14,0.05 -0.26,0.11 -0.21,0.11 -0.08,0.06 -0.29,0.16l-1.36 0.67c-0.02,0.01 -0.05,0.02 -0.07,0.03 -0.02,0.01 -0.04,0.02 -0.06,0.03l-0.17 0.1c-0.02,0.01 -0.05,0.02 -0.06,0.03l-1.74 0.94c-1.1,0.59 -1.51,0.95 -1.83,1.13 -0.02,0.01 -0.04,0.02 -0.06,0.03l-2.36 1.61c-0.02,0.02 -0.09,0.06 -0.11,0.07l-1.64 1.4c-0.09,0.07 -0.12,0.09 -0.21,0.17l-0.1 0.08c-0.09,0.08 -0.06,0.06 -0.15,0.13 -0.77,0.64 -0.97,1.04 -1.52,1.52 -0.11,0.09 -0.19,0.12 -0.28,0.19 -0.33,0.26 -0.12,0.14 -0.33,0.49 -0.05,0.09 -0.1,0.15 -0.16,0.21 -0.01,0.02 -0.03,0.04 -0.04,0.05l-1.38 1.85c-0.41,0.67 -0.8,1.3 -1.11,2.03l-0.58 1.54c-0.04,0.2 -0.01,0.26 -0.04,0.43 -0.11,0.75 -0.16,-0.02 -0.27,0.65 -0.05,0.3 -0.01,0.54 -0.07,0.76 -0.09,0.35 -0.21,0.4 -0.21,0.71z"/>
   <path class="fil2" d="M63.22 67.26c0.13,-0.35 0.04,-2.97 0.04,-3.57l0 -2.77c0,-0.14 0.01,-0.34 0.01,-0.47 -0.02,-0.34 0.05,-0.23 -0.1,-0.4 -0.23,-0.23 -6.74,-0.15 -7.24,-0.09 -0.26,0.57 -0.08,7.24 -0.08,7.25 0.14,0.24 7.04,0.2 7.37,0.05z"/>
   <path class="fil3" d="M74.62 61.75l-0.01 4.99c-0.01,0.83 0.06,0.6 0.89,0.6l5.35 0.01c1.5,0 1.21,0.83 1.18,-4.77 -0.01,-3.15 0.28,-2.65 -1.37,-2.64l-5.26 0c-0.6,-0.02 -0.78,-0.17 -0.79,0.42 -0.02,0.44 0.01,0.94 0.01,1.39z"/>
   <path class="fil2" d="M55.86 54.83l0.01 3.07 6.15 0.02c1.71,0 1.25,0.57 1.24,-5.58l0.01 -1.21c0,-0.74 -0.1,-0.61 -1.34,-0.61l-5.35 0c-0.51,0 -0.7,-0.13 -0.73,0.43 -0.03,0.37 0.01,0.9 0.01,1.3 0,0.86 0,1.72 0,2.58z"/>
   <path class="fil3" d="M72.76 67.31l0.04 -7.28c-0.56,-0.15 -6.52,-0.18 -7.31,-0.06l-0.06 6.87c0,0.14 -0.01,0.11 0.03,0.24 0.06,0.26 -0.05,0.04 0.09,0.2 0.19,0.1 6.72,0.15 7.21,0.03z"/>
   <path class="fil2" d="M55.89 43.39c-0.01,0.89 -0.09,4.47 0.08,5.04l6.24 0.01c1.37,0 0.98,-0.04 0.98,-1.54l0.01 -5.18c0.01,-0.88 -0.19,-0.6 -2.84,-0.6l-3.59 0c-1.08,0 -0.88,-0.42 -0.88,2.27z"/>
   <path class="fil1" d="M65.16 50.77l0 6.19c0,0.79 0.83,0.55 1.76,0.55l5.35 0c0,-1.57 0.16,-0.68 0,-2.59l0.03 -3.43c-0.07,-0.48 0.13,-1.09 -0.31,-1.09l-6.46 0c-0.21,0 -0.37,0.16 -0.37,0.37z"/>
   <path class="fil2" d="M82.25 52.99c0.01,5.71 -0.35,4.96 1,4.95l3.5 0.01c0.28,0 0.56,-0.01 0.84,0 1.27,0.02 0.86,-0.1 0.87,-3.67 0,-3.02 0.26,-2.8 -0.78,-2.8l-3.69 0c-1.93,0 -1.75,-0.39 -1.74,1.51z"/>
   <path class="fil3" d="M65.45 43.3l0 3.93 6.11 0.01 0.02 -6.01c-1.02,-0.16 -3.01,-0.04 -4.11,-0.04 -2.53,0 -2.02,-0.43 -2.02,2.11z"/>
   <path class="fil2" d="M79.71 52.56c-0.29,-0.23 -2.11,-0.09 -2.64,-0.09 -0.5,0 -2.31,-0.2 -2.44,0.18 -0.03,0.11 -0.02,4.87 0.01,5.27 0.29,0.1 4.78,0.08 5.13,-0.02 0.04,-0.28 0.12,-5.09 -0.06,-5.34z"/>
   <path class="fil3" d="M86.86 48.76c0.14,-0.35 0.21,-0.24 0.22,-0.75 0.13,-4.6 -0.02,-4.15 -2.36,-4.16 -3.18,-0.02 -3.02,-0.63 -2.88,4.76 0.21,0.16 0.33,0.32 0.47,0.49 0.83,0.04 1.67,0.01 2.51,0.02 1.38,0 1.38,0.14 2.04,-0.36z"/>
   <path class="fil4" d="M86.86 48.76c-0.66,0.5 -0.66,0.36 -2.04,0.36 -0.84,-0.01 -1.68,0.02 -2.51,-0.02 -0.14,-0.17 -0.26,-0.33 -0.47,-0.49 -0.14,-5.39 -0.3,-4.78 2.88,-4.76 2.34,0.01 2.49,-0.44 2.36,4.16 -0.01,0.51 -0.08,0.4 -0.22,0.75zm0 0l0 0z"/>
   <path class="fil2" d="M79.37 49.52l0 -4.3c-0.45,-0.39 -1.56,-0.24 -2.3,-0.24 -2.97,0 -2.43,-0.35 -2.42,2.47 0,2.77 -0.92,2.45 4.62,2.29l0.1 -0.22z"/>
   <path class="fil1" d="M87.86 40.99c0,0.67 -0.08,1.32 0.14,1.81 0.68,1.54 1.85,1.4 3.09,1.33 0.79,-0.04 1.56,-0.75 1.73,-1.5 0.04,-0.22 0.03,-0.54 0.05,-0.78 0.02,-0.21 0.06,-1 -0.08,-1.36l-0.2 -0.35c-0.34,-0.53 -0.36,-0.27 -0.39,-0.72 -0.58,-0.01 -0.2,-0.06 -0.59,-0.15 -0.21,-0.05 -0.51,-0.04 -0.76,-0.07 -0.28,-0.04 -1.13,0 -1.51,0.04 -0.29,0.03 -0.74,0.36 -1,0.57 -0.27,0.2 -0.48,0.87 -0.48,1.18z"/>
   <path class="fil2" d="M79.1 38.78l0 -0.01c-0.8,-0.14 -3.8,-0.19 -4.42,0.01l-0.06 4.18c0.51,0.39 1.52,0.25 2.26,0.25 0.73,0 1.77,0.15 2.22,-0.26 0.13,-0.68 0.1,-3.45 0,-4.17z"/>
   <path class="fil5" d="M72.64 96.08c-0.13,-0.26 -0.1,-0.18 -0.1,-0.56 -0.63,0 -0.82,0.11 -1.23,0.52l-0.25 0.22c-0.01,0.01 -0.04,0.02 -0.06,0.03 -0.01,0.01 -0.04,0.02 -0.06,0.03 -0.02,0.01 -0.1,0.04 -0.13,0.06 -0.3,0.15 -0.39,0.5 -0.6,0.78 -0.46,0.62 -0.7,0.6 -1,1.4l-0.23 0.42c-0.25,0.55 -0.39,1.54 0.29,1.76 0.63,0.19 0.69,-0.12 0.69,0.78 -0.16,0.05 -0.1,0.02 -0.19,0.09l-0.24 0.31c-0.01,0.02 -0.02,0.05 -0.03,0.07 -0.14,0.31 -0.27,0.34 -0.57,0.54 -0.28,0.18 -0.01,0.11 -0.71,0.3 -1.65,0.44 -1.24,-0.2 -2.04,-0.02 -0.2,-0.37 -0.56,-0.63 -0.56,-1.1l0.83 -2.32c0.16,-0.48 0.64,-1.01 0.37,-1.56 -0.34,0.09 -0.23,0.22 -0.5,0.7l-0.3 0.62c-0.05,0.16 -0.02,0.13 -0.09,0.28 -0.03,0.09 -0.09,0.17 -0.09,0.18l-0.39 0.91c-0.08,0.32 -0.2,0.38 -0.27,0.74l-0.24 0.96c-0.18,0.62 -0.04,0.68 0.13,1.05l0.06 0.13c0.01,0.03 0.01,0.05 0.02,0.08 0.04,0.16 -0.01,0.11 0.07,0.3l1.37 1.11c0.62,0.13 1.55,-0.22 1.97,-0.52 0.45,-0.33 1,-0.83 1.26,-1.33l0.21 -0.44c0.08,-0.16 0.02,0.01 0.08,-0.19 0.05,-0.14 0.03,-0.16 0.07,-0.3l0.2 -0.45c0.07,-0.25 0.01,-0.35 0.05,-0.59 0.14,-0.7 0.27,0.08 0.27,-1.67 -0.5,-0.12 -0.22,-0.14 -0.52,-0.31 -0.15,-0.09 -0.41,-0.15 -0.59,-0.24 0.03,-0.37 -0.02,-0.14 0.1,-0.36 0.07,-0.13 0.03,-0.05 0.12,-0.16l1.26 -1.05c0.44,-0.25 0.22,-0.19 0.92,-0.19 0.09,-0.35 0,-0.01 0.12,-0.24l0.1 -0.19c0.14,-0.33 -0.07,-0.25 0.43,-0.58z"/>
   <path class="fil5" d="M32.31 99.77l0.37 1.01c0.65,0 0.72,0.03 1.02,0.37 -0.11,0.41 -0.5,0.75 -0.71,0.96 -0.94,0.95 -0.45,0.51 -1.48,0.73 -0.49,0.11 0.17,0.16 -0.67,0.16 -0.32,0 -0.03,-0.11 -0.57,-0.18 -0.43,-0.05 -0.27,0.11 -0.57,-0.16 -0.24,-0.21 -0.43,-0.7 -0.43,-1.14 0,-0.28 0.17,-0.23 0.26,-0.66l0.83 -2.13c0.03,-0.08 0.04,-0.11 0.07,-0.2 0.27,-0.63 0.18,-0.23 0.13,-0.79 -0.45,0.04 -0.2,-0.09 -0.4,0.33l-1.51 3.86 -0.07 1.09c0.01,0.2 -0.01,0.06 0.07,0.23 0.25,0.54 0.12,0.47 0.28,0.73 0.24,0.39 0.62,0.54 0.83,0.65l0.12 0.06c0.02,0.01 0.05,0.02 0.06,0.03 0.26,0.14 -0.15,0.12 0.25,0.12 1.82,0 0.59,0 1.56,-0.28 0.48,-0.14 0.65,-0.31 1.08,-0.77 0.72,-0.78 0.67,-0.8 0.99,-1.77 0.11,-0.32 0.13,-0.13 0.22,-0.44 0.05,-0.17 0.02,-0.25 0.03,-0.42 0.04,-0.38 0.75,-1.25 -0.16,-1.97 -0.79,-0.61 -0.95,-0.26 0.27,-1.61 0.1,-0.1 0.13,-0.15 0.24,-0.22l0.12 -0.07c0.01,-0.01 0.04,-0.03 0.06,-0.04 0.01,-0.01 0.04,-0.02 0.06,-0.03 0.38,-0.18 0.48,-0.13 0.98,-0.13 0.09,-0.4 0.19,-0.52 0.36,-0.83 0.01,-0.02 0.03,-0.04 0.04,-0.06 0,0 0.45,-0.68 -0.13,-0.68 -0.52,0 -0.39,0 -0.82,0.38l-0.25 0.22c-0.12,0.09 -0.13,0.1 -0.27,0.19 -0.75,0.44 -0.79,0.79 -1.15,1.24 -0.11,0.15 -0.12,0.13 -0.22,0.24 -0.26,0.31 -0.49,0.85 -0.6,1.25l-0.04 0.14c-0.11,0.35 -0.25,0.36 -0.25,0.59z"/>
   <path class="fil5" d="M106.96 99.58c0.36,-0.17 0.36,-0.01 0.46,-0.27l0.37 0c0.08,0.7 0.11,-0.25 0.65,0.55 -0.56,0.15 -0.04,0.28 -1.11,0.28 -0.37,0 -0.26,-0.31 -0.37,-0.56zm0.09 -2.12c0,-0.36 -0.04,-0.55 0.05,-0.87 0.29,-0.96 0.22,-0.47 0.14,-1.43 -0.39,0.03 -0.18,-0.17 -0.54,0.66 -0.25,0.56 0,0.44 -0.2,1 -0.16,0.46 -0.19,0.36 -0.18,1.01 0.01,1.06 -0.28,0.58 -0.28,1.02 0,0.83 -0.29,2.65 0.72,3.07 0.4,0.16 1.02,0.06 1.28,-0.24 0,0 0.19,-0.27 0.19,-0.27l0.34 -0.68c0.01,-0.02 0.01,-0.05 0.02,-0.07 0.03,-0.1 0.03,-0.12 0.06,-0.21l0.25 -0.68c0.08,-0.41 0.57,-0.84 0.11,-1.5 -0.09,-0.14 -0.01,-0.01 -0.11,-0.16 -0.15,-0.22 -0.11,-0.26 -0.35,-0.39 -0.08,-0.04 -0.27,-0.1 -0.39,-0.17 0.09,-0.34 0.54,-0.66 0.89,-1.04l0.84 -0.73c0.02,-0.02 0.08,-0.07 0.1,-0.08 0.02,-0.02 0.04,-0.03 0.05,-0.05 0.66,-0.6 1.94,-1.76 2.35,-2.35 0.07,-0.1 0.06,-0.07 0.12,-0.17l0.29 -0.44c0.45,-0.67 0.37,-0.7 0.25,-0.95 -0.32,0.09 -0.26,0.22 -0.71,0.67l-3.9 3.85c-0.02,0.01 -0.04,0.03 -0.05,0.04l-0.5 0.52c-0.01,0.02 -0.03,0.04 -0.05,0.05 -0.43,0.48 -0.38,0.56 -0.79,0.59z"/>
   <path class="fil6" d="M44.31 98.48c-0.17,-0.33 -0.12,-0.14 0.02,-0.46 0.01,-0.01 0.07,-0.13 0.1,-0.19l0.43 -0.92c0.23,0.01 0.69,0.42 0.77,0.61 0.13,0.32 0.11,1.11 -0.03,1.42 -0.34,-0.16 -0.11,-0.03 -0.28,-0.46l-1.01 0zm-6.18 3.41c0.98,0 0.53,-0.04 0.98,-0.22l0.68 -0.24c0.35,-0.21 0.25,-0.14 0.41,-0.42l0.38 -0.63c0.41,-0.89 0.09,-0.71 0.5,-0.98 0.31,0.65 -0.37,1.75 0.66,2.38 0.18,0.11 0.84,0.28 1.19,-0.07l0.24 -0.22c0.47,-0.47 0.17,-0.35 0.44,-0.66 0.1,-0.11 0.35,-0.22 0.61,-0.6 0.23,0.16 0.22,0.3 0.54,0.27l1.32 -2.11c0.08,-0.23 0.06,-0.4 -0.06,-0.69 -0.21,-0.51 -0.45,-0.7 -0.7,-1.07l-0.55 0c-0.22,0.34 -0.31,0.46 -0.51,0.87l-0.41 1.07c0.83,0.4 0.76,-0.1 0.64,0.46l0.19 0c0.04,-0.11 -0.12,-0.34 0.27,-0.11 0.21,0.12 0.17,0.11 0.19,0.39 -0.89,0 -0.82,-0.13 -1.35,0.49l-0.22 0.34 -1.2 0c-0.17,-0.33 -0.1,-0.46 -0.46,-0.56 0,-1.47 0.19,-0.26 0.18,-2.31 -0.01,-0.89 0.6,-1.35 0.19,-2.21 -0.32,0.04 -0.23,-0.08 -0.49,0.62 -0.01,0.02 -0.02,0.04 -0.03,0.06l-0.12 0.62c-0.05,0.52 0,0.23 -0.14,0.6 -0.22,0.57 -0.01,0.39 -0.09,1.01 -0.06,0.53 -0.14,0.75 -0.24,1.15 -0.38,-0.28 0.05,0.03 -0.08,-0.82 -0.08,-0.49 -0.01,-0.14 -0.47,-0.84l-0.56 0c-0.06,0.23 -0.13,0.23 -0.31,0.43l-0.7 1.51 0.57 0.53c0.45,-0.02 0.11,-0.05 0.54,-0.16 -0.06,0.24 -0.01,0.11 -0.13,0.33 -0.03,0.04 -0.09,0.13 -0.12,0.16l-0.93 0.83c-0.17,0.08 -0.09,0.02 -0.2,0.07 -0.3,0.12 -0.58,0.4 -0.65,0.73z"/>
   <path class="fil7" d="M79.37 99.22c0.38,0.1 0.16,0.12 0.42,0.2 0.31,0.09 0.06,-0.16 0.39,0.1 0.39,0.3 0.03,0.67 -0.02,0.85 -0.08,0.28 0.03,0.24 -0.04,0.45 -0.15,0.42 -0.03,-0.12 -0.21,0.35 -0.02,0.06 -0.01,0.17 -0.17,0.35 -0.51,0.57 -1.11,1.19 -1.89,1.34 -1.16,0.21 -1.29,-0.05 -2.35,-0.05 -0.02,-0.58 0,-0.18 -0.16,-0.49l-0.16 -0.4c-0.24,-0.7 -0.11,-0.12 0,-0.61 0.19,-0.84 -0.11,-0.12 0.31,-1.09l0.49 -0.98c0.08,-0.19 0.12,-0.39 0.16,-0.58 -0.42,0.28 -0.48,0.15 -0.73,0.65 -0.09,0.17 -0.11,0.26 -0.21,0.44 -0.08,0.15 -0.2,0.33 -0.27,0.46 -0.1,0.19 -0.11,0.27 -0.18,0.48l-0.1 0.26c-0.18,0.54 0.03,0.52 -0.15,0.96 -0.09,0.21 -0.2,0.17 -0.2,0.53 0,0.43 0.01,-0.06 0.12,0.32 0.04,0.15 0.01,0.11 0.05,0.28 0.02,0.13 0.1,0.65 0.14,0.75 0.01,0.03 0.02,0.05 0.02,0.07 0.2,0.45 0.76,0.6 0.87,0.98 0.43,0 0.97,0.03 1.39,0.01 0.29,-0.02 1.14,-0.33 1.33,-0.52 0.46,-0.45 -0.37,0.38 0.08,-0.09 0.27,-0.28 1,-0.67 1.39,-1.48 0.07,-0.15 0.03,-0.11 0.12,-0.25 0.25,-0.4 0.54,-0.56 0.78,-1.43 0.08,-0.31 0,-0.07 0.1,-0.27 0.37,-0.82 0,-0.67 0.24,-1.24 0.2,-0.48 0.19,0.01 0.19,-1.09 0,-0.67 -0.88,-2.04 -1.45,-0.81l-0.08 0.19c-0.27,0.55 -0.22,-0.12 -0.22,1.36z"/>
   <path class="fil8" d="M90.13 46.71c-0.77,0.48 -0.45,3.08 -0.4,3.21 0.23,0.68 0.57,0.58 1.36,0.58 0.4,0 1.71,0.04 2.01,-0.03 0.54,-0.15 0.5,-0.77 0.5,-1.45 -0.01,-2.13 0.34,-2.48 -1.49,-2.42 -0.53,0.01 -1.67,-0.08 -1.98,0.11z"/>
   <path class="fil9" d="M48.18 97.74c0.08,-0.05 0.13,-0.06 0.19,-0.1 0.51,0.82 0.45,-0.12 0.26,2.38 -0.3,-0.11 -0.09,-0.04 -0.26,-0.42 -0.56,-0.07 -1.75,0.23 -0.19,-1.86zm5.26 4.02l0.28 -0.26c0.01,0.02 0.01,0.05 0.01,0.06 0.03,0.49 -0.73,1.38 -1.04,1.69 -0.27,0.28 -0.54,0.46 -0.81,0.66 -0.22,0.17 -0.14,0.13 -0.46,0.25 -0.23,0.08 -0.25,0.11 -0.48,0.13 -0.95,0.09 -1.63,0.01 -2.07,-0.68 -0.32,-0.52 -0.6,-1.67 -0.22,-2.27l0.07 0.27c0.17,0.64 0.48,1.15 1.21,1.34 0.28,0.08 1.08,0.06 1.4,0.05 0.44,-0.02 0.73,-0.15 1.1,-0.46 -0.3,0 -0.27,-0.03 -0.51,0.05 -0.63,0.22 0.39,0.11 -1.34,0.13 -0.87,0.02 -0.63,-0.04 -1.16,-0.4 -0.2,-0.13 -0.42,0.02 -0.39,-0.83 0.03,-0.75 -0.05,-1.26 0.38,-1.98 0.16,-0.28 0.22,-0.26 0.07,-0.57 -0.36,0.09 -0.1,0.22 -0.47,0.37 0.03,-0.28 0.26,-1.36 -0.37,-1.77 0,-0.01 -0.02,-0.14 -0.27,-0.09 -0.45,0.1 -0.26,-0.14 -0.19,0.29 -0.26,-0.02 -0.11,-0.07 -0.36,0 -0.11,0.39 0.02,-0.03 -0.16,0.3 -1.21,2.27 0.12,1.26 0.11,2.19 0,0.52 -0.63,0.58 -1.29,1.15l-0.33 0.42c0.27,0.13 0.37,0.15 0.66,0.01l0.11 -0.07c0.18,-0.1 -0.02,-0.03 0.19,-0.09 0.37,-0.11 0.36,0.08 0.85,-0.44l0.21 -0.25c0.17,-0.15 0.03,-0.11 0.29,-0.18l-0.19 1.01c-0.04,0.15 0,-0.13 -0.04,0.19l-0.14 0.65c0.57,0.15 -0.06,0.57 0.9,1.5l0.77 0.43c0.13,0.02 1.04,0.02 1.18,0 0.47,-0.07 1.21,-0.51 1.61,-0.8 0.37,-0.27 0.6,-0.67 0.79,-0.95 0.47,-0.7 0.49,-0.64 0.84,-1.57 0.04,-0.13 0.07,-0.18 0.08,-0.19 0.09,-0.24 0,0.06 0.1,-0.28 0.15,-0.53 0.25,-0.55 0.28,-0.91 0.11,-1.41 -0.06,-0.89 0.71,-1.32 0.86,-0.47 0.98,-0.39 1.41,-0.72 0.45,-0.34 0.82,-0.29 0.84,-1 1.23,0 0.82,-0.06 1.56,-0.56l0 -0.55 -0.35 -0.29c-0.49,0.14 -0.05,0.2 -1.03,0.2 -0.11,0.49 -0.18,0.41 -0.34,0.76 -0.08,0.19 -0.09,0.39 -0.35,0.48 -0.21,0.08 -0.14,0.02 -0.32,0.05 -0.56,0.11 -0.21,0.2 -0.64,0.38 -0.41,0.19 -0.13,-0.02 -0.43,0.05 -0.18,0.05 -0.24,0.15 -0.38,0.24 -0.36,0.25 0.04,0.09 -0.5,0.07 -1.1,-0.05 -0.34,0.66 -0.79,2.52 -0.15,0.63 -0.05,0.28 -0.34,0.86 -0.24,0.49 -0.25,0.17 -0.25,0.73z"/>
   <path class="fil8" d="M81.84 39.42c0,2.95 -0.42,2.44 2.61,2.48 1.38,0.02 1.08,-0.59 1.08,-2.29 0.01,-1.67 -0.09,-1.48 -1.73,-1.46 -2.05,0.02 -1.96,-0.18 -1.96,1.27z"/>
   <path class="fil1" d="M97.55 35.82c0,0.57 -0.02,0.04 0.11,0.36l0.27 0.65c0.61,1.17 1.15,0.93 2.48,0.93 0.32,0 0.07,-0.02 0.29,-0.17l0.11 -0.07c0.22,-0.15 0.22,-0.11 0.4,-0.34l0.37 -0.74c0.16,-0.29 0.12,0.38 0.12,-0.89 0,-0.47 0.06,0.11 -0.19,-0.37 -0.3,-0.6 -0.43,-0.9 -1.23,-1.16 -0.47,-0.16 0.37,-0.13 -0.89,-0.13 -0.23,0 -1.01,0.43 -1.35,0.95 -0.01,0.03 -0.06,0.09 -0.07,0.11l-0.13 0.24c-0.24,0.57 -0.29,0.39 -0.29,0.63z"/>
   <path class="fil10" d="M91.09 98.57c0.1,-0.36 0.45,-0.74 0.83,-0.74 0.35,0 0.03,-0.03 0.28,0.09 -0.12,0.23 -0.26,0.29 -0.48,0.45 -0.43,0.31 -0.2,-0.01 -0.63,0.2zm-5.63 1.38l0.36 -0.41c0.14,-0.22 0.09,0.37 0.1,-0.24 0.11,0.91 0.23,1.57 1.7,1.19l-0.52 0.93c-0.38,0.46 -0.87,0.32 -1.28,-0.18l-0.73 -0.36c-0.18,0.4 -0.74,1 -1.28,0.83 0.37,-0.39 0.75,-0.36 1.34,-1.07 0.21,-0.25 0.2,-0.27 0.22,-0.59 -0.03,0.01 -0.06,0.01 -0.07,0.05l-0.24 0.2c-0.15,0.16 -0.11,0.16 -0.23,0.32 -0.22,0.29 -0.44,0.32 -0.94,0.72 -0.51,0.42 -0.8,0.3 -0.92,0.74 0.89,0.2 0.7,-0.01 1.32,-0.16 0.56,-0.13 0.19,0.11 0.59,-0.24 0.25,-0.22 0.27,-0.16 0.3,-0.53l0.28 0c0.07,0.29 0.17,0.47 0.39,0.63l0.81 0.3c0.11,-0.28 -0.03,-0.05 0.21,-0.17 0.02,-0.01 0.1,-0.04 0.13,-0.05 0.39,-0.2 0.71,-0.91 0.73,-0.93l0.61 -0.59c0.52,-0.32 -0.04,0.14 0.58,-0.07 0.51,-0.17 0.15,-0.64 1.18,-0.44 0.59,0.11 0.41,0.13 0.71,0.22 0.13,-0.09 0.15,-0.12 0.27,-0.2 0.38,-0.23 0.52,-0.2 0.75,-0.63 0.27,0.07 0.15,0.03 0.37,0.18 -0.11,-0.4 -0.27,-0.25 0.06,-0.57 0.51,-0.5 0.14,-0.2 0.37,-0.76 0.11,-0.29 0.31,-0.21 0.21,-0.78 -0.03,-0.19 -0.36,-1.18 -1.16,-0.26 -0.02,0.02 -0.03,0.04 -0.05,0.05l-0.59 0.61c-0.01,0.01 -0.03,0.03 -0.04,0.05 -0.01,0.01 -0.03,0.04 -0.04,0.05 -0.4,0.49 -0.4,0.35 -0.42,0.69 -1.42,0 -0.67,0.72 -1.67,0.82 -0.83,0.09 -0.34,-0.11 -1.18,0.67 -0.29,0.27 -0.18,0.05 -0.29,0.35 -0.73,-0.01 -0.87,-0.37 -0.97,-0.45l-0.08 -0.06c-0.03,-0.01 -0.05,0 -0.15,-0.04 0,-1.02 0.59,-1.33 -0.03,-1.16 -0.05,0.01 -0.25,0.17 -0.28,0.2 -0.23,0.29 -0.43,0.76 -0.43,1.14z"/>
   <path class="fil8" d="M94.68 42.65l-0.08 0c0.63,0.33 0.33,0.5 1.28,0.5 0.72,0.01 1.58,0.07 1.88,-0.65 0.11,-0.27 0.06,-0.46 0.05,-0.77 0,-0.76 0.24,-1.86 -1.37,-1.85 -1.49,0.02 -2.3,0.04 -1.76,2.77z"/>
   <path class="fil11" d="M72.64 96.08c0,0.41 -0.07,0.97 0.06,1.32 0.01,0.02 0.24,0.43 0.27,0.47 0.22,0.32 0.02,0.23 0.5,0.24l0 0.27c-0.42,0.12 -0.06,-0.07 -0.6,0.7l-0.44 0.85c-0.19,0.39 -0.25,0.21 -0.29,0.53 -0.14,1.07 0.2,0.66 0.22,1.34 0.53,0.12 1.03,0.4 1.56,-0.48l0.2 -0.34c0.3,-0.64 0.1,-1.02 -0.1,-1.4l-0.22 0.15c-0.04,0.03 -0.04,0.18 -0.43,0.32 0,-0.18 -0.01,-0.39 0,-0.57 0.01,-0.52 0.05,-0.38 0.12,-0.52l0.13 -0.38c0.08,-0.24 0.05,-0.07 0.25,-0.34 0.06,-0.08 0.18,-0.31 0.24,-0.41 0.11,-0.16 0.03,-0.02 0.12,-0.16l0.22 -0.43c0.11,-0.22 0.07,-0.08 0.14,-0.23 0.12,-0.26 0.08,-0.21 0.08,-0.56 -0.55,-0.13 -0.59,-0.02 -0.83,-0.28 -0.53,-0.57 0.04,-1.87 0.06,-1.96 0.22,-0.87 0.26,-0.59 0.12,-0.9 -0.43,0.17 0,-0.03 -0.24,0.22l-0.87 1.9c-0.01,0.11 0,0.34 0,0.46l-0.27 0.19z"/>
   <path class="fil12" d="M55.89 43.39c0,-2.69 -0.2,-2.27 0.88,-2.27l3.59 0c2.65,0 2.85,-0.28 2.84,0.6l-0.01 5.18c0,1.5 0.39,1.54 -0.98,1.54l-6.24 -0.01c-0.17,-0.57 -0.09,-4.15 -0.08,-5.04zm-0.32 -1.84l0 6.45c0,0.34 0.25,0.74 0.55,0.74l6.64 0c0.32,0 0.36,-0.07 0.65,-0.09 0.22,-0.94 0.09,-5.86 0.09,-7.2 0,-0.31 -0.16,-0.64 -0.46,-0.64l-7.11 0c-0.32,0 -0.36,0.41 -0.36,0.74z"/>
   <path class="fil8" d="M87.23 34.85c-0.32,0.51 -0.21,1.42 -0.2,2.18 0.01,0.98 0.61,0.81 1.48,0.81 0.86,0 1.55,0.28 1.58,-0.72l-0.04 -2.12c-0.49,-0.33 -2.06,-0.31 -2.82,-0.15z"/>
   <path class="fil13" d="M99.03 102.08c0.32,0 0.31,-0.11 0.66,-0.17 0.84,-0.15 0.88,-0.32 1.38,-0.92l0.09 -0.1c0.01,-0.02 0.03,-0.04 0.04,-0.05 0.65,-0.8 -0.23,-0.53 0.99,-1.23 0.44,-0.24 0.79,-0.46 1.06,-0.87 0.35,-0.52 0.22,-0.48 0.4,-0.81 0.27,-0.52 0.09,-0.15 0.19,-0.64 0.17,-0.8 0.27,0.57 0.26,-2.41 0,-0.69 0.09,-1.1 0.09,-1.66 -0.65,-0.14 -0.45,0.18 -0.61,0.58l-0.13 0.24c-0.01,0.02 -0.03,0.04 -0.03,0.06 -0.15,0.39 -0.21,3.15 -0.25,3.36 -0.05,0.28 -0.17,0.35 -0.4,0.52l-1.45 1.22c-0.13,0.24 -0.08,0.39 -0.24,0.68l-1.42 1.17c-0.18,0.1 -0.51,0.23 -0.68,0.43 -0.13,0.14 -0.17,-0.13 -0.13,0.31 0.01,0.15 0.02,0.29 0.18,0.29z"/>
   <path class="fil2" d="M93.51 34.91c-0.38,0.22 -0.57,0.32 -0.59,0.91 -0.02,0.45 -0.05,1.08 0.1,1.41 0.33,0.7 1.5,0.75 2.26,0.46 0.73,-0.27 1.18,-2.59 -0.32,-2.88 -0.41,-0.08 -1.14,-0.07 -1.45,0.1z"/>
   <path class="fil14" d="M72.76 67.31c-0.49,0.12 -7.02,0.07 -7.21,-0.03 -0.14,-0.16 -0.03,0.06 -0.09,-0.2 -0.04,-0.13 -0.03,-0.1 -0.03,-0.24l0.06 -6.87c0.79,-0.12 6.75,-0.09 7.31,0.06l-0.04 7.28zm0 0c0.27,0.03 0.15,0.08 0.34,-0.02l0 -7.38c-0.67,-0.32 -4.74,-0.21 -6,-0.19 -0.46,0.01 -0.55,0.1 -0.91,0.08l-0.94 0.02c-0.27,1.19 -0.09,5.82 -0.09,7.47 0.59,0.4 0.88,0.38 1.68,0.29 0.71,-0.08 3.49,0.01 4.24,0.07 0.5,0.04 0.44,-0.13 0.99,-0.07 0.31,0.03 0.18,0.12 0.45,0.04 0.42,-0.12 0.2,-0.06 0.24,-0.31z"/>
   <path class="fil15" d="M96.72 33.24l0.95 -0.34c0.65,-0.37 0.7,-1.59 0.35,-2.16 -0.16,-0.28 -0.05,-0.14 -0.26,-0.3 -1.14,-0.88 -2.58,-0.01 -2.46,1.58 0,0.03 0,0.1 0.01,0.13 0.03,0.18 0.21,0.32 0.41,0.52 0.27,0.26 0.12,0.15 0.44,0.3 0.48,0.21 0.32,0.27 0.56,0.27z"/>
   <path class="fil13" d="M110.65 86.3c-0.08,0.3 -0.13,0.28 -0.35,0.48l-0.15 0.13c-0.01,0.01 -0.03,0.03 -0.04,0.04l-0.42 0.42c-0.11,0.1 -0.13,0.13 -0.24,0.22l-1.85 1.56c-0.88,0.81 -0.56,0.41 -1,0.76 -0.57,0.46 -0.51,0.54 -1.54,1.31l-0.11 0.08c-0.01,0.01 -0.03,0.03 -0.05,0.04 -0.12,0.12 -0.05,0.04 -0.13,0.15l-0.38 0.56c-0.09,0.12 -0.41,0.3 -0.07,0.47 0.2,0.11 0.13,0.07 0.6,-0.24l0.21 -0.16c0.01,-0.01 0.03,-0.03 0.04,-0.04 0.02,-0.02 0.03,-0.04 0.05,-0.05l0.83 -0.65c0.04,-0.03 0.24,-0.17 0.27,-0.19l1.23 -0.98c0.68,-0.64 0.89,-0.63 1.24,-0.98l2.85 -3.05c0.18,-0.32 0.27,-0.28 0.3,-0.71 -0.44,0.03 -0.13,0 -0.36,0.1 -0.59,0.25 -0.38,0.58 -0.93,0.73z"/>
   <path class="fil16" d="M63.22 67.26c-0.33,0.15 -7.23,0.19 -7.37,-0.05 0,-0.01 -0.18,-6.68 0.08,-7.25 0.5,-0.06 7.01,-0.14 7.24,0.09 0.15,0.17 0.08,0.06 0.1,0.4 0,0.13 -0.01,0.33 -0.01,0.47l0 2.77c0,0.6 0.09,3.22 -0.04,3.57zm-7.47 -7.44c-0.1,0.39 -0.18,0.16 -0.18,0.46l0 6.82c0,0.75 2.7,0.47 3.41,0.47l3.12 0.01c0.23,0.03 0.29,0.08 0.58,0.08 0.35,0 0.82,-0.25 0.82,-0.56l0 -7.01c0,-0.32 -0.41,-0.37 -0.74,-0.37l-5.99 0c-0.52,0 -0.55,0.1 -1.02,0.1z"/>
   <path class="fil14" d="M55.86 54.83c0,-0.86 0,-1.72 0,-2.58 0,-0.4 -0.04,-0.93 -0.01,-1.3 0.03,-0.56 0.22,-0.43 0.73,-0.43l5.35 0c1.24,0 1.34,-0.13 1.34,0.61l-0.01 1.21c0.01,6.15 0.47,5.58 -1.24,5.58l-6.15 -0.02 -0.01 -3.07zm-0.2 -4.33c-0.22,0.94 -0.09,5.94 -0.09,7.29 0,0.21 0.06,0.27 0.27,0.27l7.29 0c0.56,0 0.37,-1.03 0.37,-1.57l0 -5.99c-1.45,-0.34 -5.6,-0.19 -7.1,-0.19 -0.33,0 -0.53,0.08 -0.74,0.19z"/>
   <path class="fil14" d="M65.45 43.3c0,-2.54 -0.51,-2.11 2.02,-2.11 1.1,0 3.09,-0.12 4.11,0.04l-0.02 6.01 -6.11 -0.01 0 -3.93zm-0.29 -1.75l0 5.53c0,0.68 1.67,0.37 2.31,0.37l2.77 0c0.39,0 0.51,0.07 0.75,0.08 0.29,0.01 0.45,-0.11 0.72,-0.17l0.05 -0.93c0.1,-1.33 0.07,-2.93 -0.04,-4.25 -0.03,-0.41 0.09,-0.51 0.09,-1 -0.44,-0.3 -0.06,-0.21 -0.72,-0.3 -0.95,-0.13 -4.6,-0.17 -5.41,0.07 -0.36,0.11 -0.52,0.17 -0.52,0.6z"/>
   <path class="fil15" d="M102.44 32.32c0.75,0 1.13,-0.68 1.14,-1.4 0.01,-0.74 -0.06,-0.67 -0.25,-0.88 -0.51,-0.58 -0.52,-0.49 -1.44,-0.49 -0.25,0 -0.3,0.05 -0.51,0.14 -0.58,0.28 -0.75,1.2 -0.54,1.64 0.19,0.38 0.12,0.36 0.44,0.67 0.2,0.2 0.14,0.32 1.16,0.32z"/>
   <path class="fil17" d="M53.44 101.76c-0.46,-0.12 -0.37,0.11 -0.55,0.32 -0.16,0.2 -0.03,0.05 -0.28,0.19 -0.28,0.15 -0.27,-0.13 -0.18,0.27 -0.37,0.31 -0.66,0.44 -1.1,0.46 -0.32,0.01 -1.12,0.03 -1.4,-0.05 -0.73,-0.19 -1.04,-0.7 -1.21,-1.34l-0.07 -0.27c-0.38,0.6 -0.1,1.75 0.22,2.27 0.44,0.69 1.12,0.77 2.07,0.68 0.23,-0.02 0.25,-0.05 0.48,-0.13 0.32,-0.12 0.24,-0.08 0.46,-0.25 0.27,-0.2 0.54,-0.38 0.81,-0.66 0.31,-0.31 1.07,-1.2 1.04,-1.69 0,-0.01 0,-0.04 -0.01,-0.06l-0.28 0.26z"/>
   <path class="fil18" d="M64.05 107.24c-0.04,-0.26 0.23,0.04 0.08,0.02 -0.17,-0.02 -0.04,0.19 -0.08,-0.02zm0.1 -1.01l-0.65 -0.56c-0.08,0.08 -0.12,0.13 -0.23,0.24 -0.24,0.25 0.14,-0.17 -0.09,0.09 -0.1,0.13 -0.04,0.04 -0.11,0.16 -0.75,1.15 0.09,1.64 0.34,1.64 0.39,0 -0.05,-0.1 0.46,-0.28 -0.07,0.27 -0.32,0.61 -0.46,0.83 0.1,0.19 0.2,0.45 0.4,0.61 0.22,0.17 -0.16,0.13 0.34,0.13 0.54,0 0.11,-0.41 0.64,-0.56 0,-0.89 -0.13,-0.37 -0.27,-0.92 0.25,-0.35 0.14,-0.02 0.47,-0.35 0.6,-0.59 0.48,-1.77 -0.29,-1.77 -0.27,0 -0.49,0.52 -0.55,0.74z"/>
   <path class="fil14" d="M74.62 61.75c0,-0.45 -0.03,-0.95 -0.01,-1.39 0.01,-0.59 0.19,-0.44 0.79,-0.42l5.26 0c1.65,-0.01 1.36,-0.51 1.37,2.64 0.03,5.6 0.32,4.77 -1.18,4.77l-5.35 -0.01c-0.83,0 -0.9,0.23 -0.89,-0.6l0.01 -4.99zm-0.14 1.11c0,1.06 0.11,3.55 -0.09,4.43 0.46,0.31 0.06,0.21 0.71,0.24 1.85,0.09 3.79,0.04 5.66,0.04 0.61,0 0.79,-0.1 1.38,-0.1 0.22,-0.94 0.09,-6.02 0.09,-7.38 0,-0.64 -2.47,-0.32 -3.04,-0.32l-4.34 -0.05c-0.34,0 -0.34,0.22 -0.38,0.54 -0.17,1.24 -0.07,0.75 0.01,1.68 0.02,0.28 0,0.63 0,0.92z"/>
   <path class="fil5" d="M82.97 99.77l0.03 0.03c0,-0.01 -0.04,-0.02 -0.03,-0.03zm-1.01 -0.55c0,0.26 0.1,0.39 0.28,0.54 0.32,0.28 0.29,0.12 0.64,0.29 -0.06,0.11 -0.11,0.18 -0.18,0.28 -0.27,0.43 -0.25,0.35 -0.74,0.64 -0.2,0.12 -0.36,0.25 -0.55,0.38 -0.33,0.22 -0.37,0.08 -0.47,0.45 0.69,0.16 0.38,0.15 1.33,-0.24l0.75 -0.45 0.55 -1.02c0.16,-0.35 0.17,-0.18 0.22,-0.52 0.02,-0.15 0,-0.28 0.03,-0.43 0.05,-0.4 0.31,-0.55 -0.14,-1.37 -0.18,-0.33 -0.05,0.09 -0.16,-0.31l-0.64 0 -0.51 0.79c-0.09,0.19 -0.1,0.26 -0.2,0.44 -0.12,0.24 -0.21,0.24 -0.21,0.53z"/>
   <path class="fil19" d="M82.25 52.99c-0.01,-1.9 -0.19,-1.51 1.74,-1.51l3.69 0c1.04,0 0.78,-0.22 0.78,2.8 -0.01,3.57 0.4,3.69 -0.87,3.67 -0.28,-0.01 -0.56,0 -0.84,0l-3.5 -0.01c-1.35,0.01 -0.99,0.76 -1,-4.95zm-0.2 -1.39l0 6.28c0,0.34 0.32,0.37 0.57,0.3 0.72,-0.18 0.18,-0.03 0.81,-0.03l4.52 0c0.32,0 0.36,-0.06 0.65,-0.09 0.29,-1.25 -0.03,-4.68 0,-5.07 0.03,-0.3 0.24,-1.76 -0.28,-1.76l-5.9 0c-0.22,0 -0.37,0.16 -0.37,0.37z"/>
   <path class="fil20" d="M60.18 100.05c0.06,-0.27 -0.01,-0.14 0.18,-0.28 -0.06,0.27 0.02,0.13 -0.18,0.28zm-0.37 -0.47c-0.33,-0.29 -0.13,-0.69 0.04,-1 0.1,-0.18 0.49,-1.07 0.77,-0.9 0.46,0.27 0.32,1.28 0.29,1.66l-0.72 0.05c-0.01,-0.02 -0.02,-0.05 -0.03,-0.07 -0.27,-0.55 0.09,0.13 -0.07,-0.17 -0.17,0.33 0.07,0.34 -0.28,0.43zm0.37 0.47c-0.21,0.9 -1.63,1.06 -1.85,1.66l-0.27 0 -0.46 -0.74c-0.26,1.08 -0.19,0.33 -0.19,1.66 0.39,0.09 0.36,0.21 0.67,-0.06l0.09 -0.1c0.01,-0.02 0.03,-0.04 0.04,-0.06 0.02,-0.02 0.07,-0.08 0.08,-0.1 0.13,-0.21 0.11,-0.13 0.14,-0.42 0.83,0 0.49,-0.02 0.81,-0.2l0.81 -0.39c0.36,-0.2 0.39,-0.32 0.56,-0.64l0.47 -1.01c0.03,-0.16 0.01,-0.24 0.05,-0.41 0.09,-0.44 0.43,-0.51 0.08,-1.15 -0.12,-0.22 -0.26,-0.44 -0.38,-0.63l-0.65 0c-0.1,0.37 -0.41,0.5 -0.56,0.82 -0.12,0.24 -0.01,0.01 -0.09,0.28l-0.04 0.15c-0.1,0.31 -0.14,0.03 -0.14,0.78 0.48,0.32 0.52,0.47 0.83,0.56z"/>
   <path class="fil13" d="M61.01 101.71c0.27,0.37 0.37,0.23 0.84,0.19 0.8,-0.06 0.98,-0.08 1.44,-0.95 0.11,-0.2 0.1,-0.13 0.19,-0.38 0.3,-0.93 0.22,-0.77 0.96,-1.43 0.62,-0.54 0.35,0.26 1,-0.85l0.26 -0.66c0.07,-0.18 0.28,-0.01 0.02,-0.54 -0.56,0.15 -0.11,0.29 -0.96,0.71 -0.26,0.12 -0.7,0.37 -0.86,0.62l-0.45 0.93c-0.17,0.3 -0.16,0.47 -0.43,0.76 -0.93,1.01 -1.78,1.29 -2.01,1.6z"/>
   <path class="fil21" d="M79.37 49.52l-0.1 0.22c-5.54,0.16 -4.62,0.48 -4.62,-2.29 -0.01,-2.82 -0.55,-2.47 2.42,-2.47 0.74,0 1.85,-0.15 2.3,0.24l0 4.3zm0 0c0.13,-0.05 0.3,0.22 0.29,-0.68l-0.02 -3.04c-0.01,-0.07 -0.1,-0.71 -0.14,-0.79 -0.14,-0.33 -0.32,-0.25 -0.77,-0.24 -0.63,0.01 -3.55,-0.05 -3.9,0.08 -0.66,0.24 -0.41,0.92 -0.36,1.51l-0.08 1.92c0,0.87 -0.03,1.17 0.28,1.75 0.91,0 4.26,0.17 4.79,-0.09l-0.09 -0.42z"/>
   <path class="fil18" d="M78.17 93.4c-0.13,-0.2 -0.29,-0.39 -0.46,-0.55 -0.56,0.27 -0.18,-0.1 -0.52,0.4 -0.13,0.21 -0.66,0.7 -0.19,1.32 0.13,0.17 0.36,0.4 0.62,0.4 0.39,0 0.31,-0.3 0.34,-0.38 0.07,-0.17 0.26,-0.27 0.49,-0.36 0.22,0.2 0.35,0.43 0.74,0.46 0.17,-0.63 0.55,-0.26 0.55,-1.29 0,-0.27 -0.06,-0.13 -0.19,-0.36l-0.18 -0.38 -0.55 0c-0.1,0.38 -0.33,0.53 -0.65,0.74z"/>
   <path class="fil22" d="M79.71 52.56c0.18,0.25 0.1,5.06 0.06,5.34 -0.35,0.1 -4.84,0.12 -5.13,0.02 -0.03,-0.4 -0.04,-5.16 -0.01,-5.27 0.13,-0.38 1.94,-0.18 2.44,-0.18 0.53,0 2.35,-0.14 2.64,0.09zm0.31 5.41l0 -5.63c-0.29,-0.02 -0.33,-0.09 -0.65,-0.09l-4.52 0c-0.21,0 -0.34,0.15 -0.4,0.34 -0.08,0.23 0,0.2 -0.04,0.45 -0.01,0.02 -0.03,0.09 -0.04,0.12 0,0.01 -0.01,0.04 -0.01,0.06 -0.01,0.01 -0.01,0.04 -0.02,0.06l0.14 2.76c0.22,2.64 -0.92,2.11 2.49,2.11 0.98,0 2.36,0.15 3.05,-0.18z"/>
   <path class="fil22" d="M79.1 38.78c0.1,0.72 0.13,3.49 0,4.17 -0.45,0.41 -1.49,0.26 -2.22,0.26 -0.74,0 -1.75,0.14 -2.26,-0.25l0.06 -4.18c0.62,-0.2 3.62,-0.15 4.42,-0.01l-0.15 -0.21c-0.11,-0.13 -0.02,0 -0.13,-0.15l-3.61 -0.01c-0.43,0.02 -0.61,0.2 -0.7,0.49 -0.1,0.33 -0.21,1.81 -0.16,2.14 0.11,0.78 0.06,1.58 0.22,2.27 0.7,0.16 2.74,0.08 3.7,0.09 1.66,0.02 1.08,-0.84 1.17,-3 0.04,-0.78 0.18,-1.29 -0.34,-1.61z"/>
   <path class="fil23" d="M62.02 94.23c0.03,-0.02 0.06,-0.08 0.07,-0.06 0.01,0.02 0.05,-0.04 0.06,-0.05 0.61,-0.47 0.35,-0.03 0.89,0.2 0.23,-0.09 0.17,0 0.39,-0.25 0.1,-0.13 0.06,-0.17 0.16,-0.33 0.41,0 0.78,0.28 0.37,0.98 -0.05,0.08 -0.12,0.23 -0.18,0.34 -0.66,-0.2 0.05,-0.44 -1.07,-0.33 -0.08,0.19 -0.17,0.32 -0.22,0.61 -0.48,0 -0.14,0.03 -0.39,-0.1 -0.2,-0.12 -0.13,-0.1 -0.26,-0.18l0 -0.55c-0.22,0.09 -0.18,-0.14 -0.18,0.74 0.21,0.14 0.56,0.39 0.83,0.46 0.14,-0.21 0.39,-0.49 0.46,-0.74 0.52,0.04 0.25,0.23 0.83,0.37 1.02,-0.75 0.55,-1.88 -0.19,-1.94 0.15,-0.63 0.38,-0.59 -0.11,-1.26 -0.5,-0.68 -0.73,-0.09 -0.96,0.38l-0.31 0.51 0.46 0.65c-0.63,0 -0.78,0.02 -0.65,0.55z"/>
   <path class="fil21" d="M90.13 46.71c0.31,-0.19 1.45,-0.1 1.98,-0.11 1.83,-0.06 1.48,0.29 1.49,2.42 0,0.68 0.04,1.3 -0.5,1.45 -0.3,0.07 -1.61,0.03 -2.01,0.03 -0.79,0 -1.13,0.1 -1.36,-0.58 -0.05,-0.13 -0.37,-2.73 0.4,-3.21zm0.41 4.16l1.39 -0.06c0.4,-0.01 1.38,0.2 1.82,-0.52 0.37,-0.61 0.2,-1.84 0.2,-3.02 0,-0.24 -0.64,-0.8 -0.66,-0.81 -0.33,-0.2 0.17,-0.02 -0.72,-0.02l-2.04 -0.01c-0.86,-0.01 -1.1,0.25 -1.03,1.03 0.16,1.7 -0.29,2.47 0.32,3.02 0.07,0.06 0.08,0.06 0.15,0.12 0.24,0.2 0.28,0.27 0.57,0.27z"/>
   <path class="fil10" d="M34.99 101.52l0 0.37c0.69,0.15 1.97,-0.28 2.3,-0.83l0.07 -0.12c0.01,-0.02 0.02,-0.04 0.03,-0.06 0.29,-0.47 0.36,-0.72 0.49,-1.17 0.06,-0.2 0.01,-0.03 0.08,-0.2l0.17 -0.57c0.09,-0.41 0.02,-0.11 0.14,-0.33 0.26,-0.51 0.05,-0.16 0.04,-0.78 -0.23,0.02 -0.23,-0.04 -0.43,0.31 -0.01,0.02 -0.02,0.04 -0.03,0.06 -0.39,0.76 -0.54,1.95 -1.76,2.67 -0.19,0.12 -0.31,0.18 -0.52,0.31 -0.28,0.17 -0.31,0.27 -0.58,0.34z"/>
   <path class="fil9" d="M97.83 98.02c0.22,-0.21 0.17,-0.25 0.49,-0.38 0.24,0.39 0.35,0.23 0.32,0.79 -0.06,1.18 -0.05,1.15 -0.62,1.16 -0.19,0.01 -0.36,0.01 -0.56,-0.03 -0.19,-0.39 -0.15,-0.7 0.1,-1.09 0.18,-0.28 0.17,-0.13 0.27,-0.45zm0 0l-0.42 0.11c-0.01,0.01 -0.04,0.02 -0.05,0.02l-0.18 0.05c0.38,0.8 -0.73,0.83 0.22,1.54 0.3,0.23 0.34,0.21 0.61,0.03 -0.03,0.42 -0.31,0.64 -0.58,0.89l-0.15 0.14c-0.08,0.06 0,0.02 -0.16,0.11 -0.36,0.21 -1.04,0.51 -1.14,0.89 0.64,0.31 0.7,-0.05 1.12,-0.17 0.34,-0.1 0.1,0.04 0.43,-0.13 0.02,-0.01 0.09,-0.06 0.11,-0.07 0.02,-0.01 0.04,-0.03 0.06,-0.04 0.02,-0.01 0.08,-0.06 0.11,-0.07 0.27,-0.21 0.54,-0.8 0.65,-1.01 0.01,-0.02 0.02,-0.05 0.03,-0.06 0.38,-0.76 0.07,0.24 0.32,-0.97l0.14 -0.42c0.14,-0.41 0.13,-0.58 -0.15,-0.9 -0.03,-0.03 -0.13,-0.14 -0.13,-0.14 -0.18,-0.22 -0.12,-0.08 -0.2,-0.36 -0.59,0 -0.78,-0.04 -0.64,0.56z"/>
   <path class="fil13" d="M102.53 101.8c0.27,0.15 0.55,0.09 1.02,0.09 0.45,0 -0.14,-0.05 0.48,-0.25 0.16,-0.06 0.44,0.03 0.78,-0.52l0.47 -0.91c0.21,-0.48 -0.02,-0.17 0.31,-0.81 0.16,-0.32 0.07,-0.27 0.12,-0.5 0.03,-0.15 0.01,-0.07 0.08,-0.21 0.14,-0.28 0.16,0.13 0.16,-0.77l-0.37 0c-0.07,0.3 -0.01,0.07 -0.1,0.27l-0.37 0.93c-0.01,0.02 -0.02,0.04 -0.03,0.06l-1 1.49c-0.19,0.2 -0.11,0.1 -0.28,0.18 -0.02,0.01 -0.05,0.02 -0.07,0.03 -0.02,0.01 -0.04,0.01 -0.06,0.02 -0.34,0.16 -1.05,0.57 -1.14,0.9z"/>
   <path class="fil19" d="M81.84 39.42c0,-1.45 -0.09,-1.25 1.96,-1.27 1.64,-0.02 1.74,-0.21 1.73,1.46 0,1.7 0.3,2.31 -1.08,2.29 -3.03,-0.04 -2.61,0.47 -2.61,-2.48zm-0.35 -0.46l0 2.12c0,0.31 0.28,0.19 0.28,0.93 0.33,0 0.51,0.05 0.67,0.06 0.3,0.02 0.27,-0.06 0.62,-0.06 0.59,0 0.46,0.1 1.04,0.03 0.41,-0.06 0.85,-0.03 1.27,-0.03 0.35,-0.53 0.47,-0.88 0.39,-1.67l-0.11 -2.12c-0.43,-0.22 -0.41,-0.37 -0.65,-0.37l-2.68 0c-0.32,0 -0.04,-0.03 -0.3,0.16l-0.24 0.22c-0.11,0.15 -0.29,0.48 -0.29,0.73z"/>
   <path class="fil19" d="M53.91 93.3c0.31,-0.35 0,-0.34 0.32,-0.52 0.39,-0.21 1.03,0.39 0.23,1.42 -0.43,-0.14 -0.15,-0.29 -0.74,-0.43 -0.3,0.04 -0.4,0.54 -0.74,0.69 -0.24,-0.1 -0.43,-0.26 -0.54,-0.5 0,-0.02 0.34,-0.83 0.63,-1 0.56,0.17 0.21,0.38 0.84,0.34zm-0.04 -0.58c-0.4,-0.06 -0.08,0.03 -0.34,-0.12 -0.49,-0.27 -0.36,-0.47 -0.31,-0.61 0.08,-0.28 0.29,-0.68 0.5,-0.8 0.58,0.28 0.28,1.11 0.15,1.53zm-0.98 -0.61c0,0.35 0.02,0.3 0.28,0.37l0 0.18c-0.27,0.07 -0.38,0.18 -0.51,0.42l-0.14 0.33c-0.16,0.33 -0.18,-0.08 -0.18,0.64 0,0.03 0.55,1.47 1.38,-0.09 0.22,0.14 0.41,0.46 0.65,0.46 0.37,0 0.02,0.03 0.24,-0.13l0.28 -0.36c0.02,-0.02 0.05,-0.1 0.06,-0.13l0.05 -0.13c0.01,-0.02 0.22,-0.07 0.03,-0.66 -0.06,-0.19 -0.02,-0.09 -0.08,-0.19 -0.21,-0.35 -0.43,-0.5 -0.77,-0.43 0.29,-0.44 0.29,-0.9 -0.13,-1.25 -0.2,-0.18 0.17,-0.14 -0.33,-0.14 -0.22,0 -0.41,0.24 -0.5,0.42l-0.14 0.33c-0.13,0.24 -0.19,0.07 -0.19,0.36z"/>
   <path class="fil8" d="M94.6 100.96c-0.15,-0.02 -0.07,-0.05 -0.28,0.09 -0.72,-0.14 -0.28,-0.3 -0.65,-0.39 -0.07,0.6 -0.08,0.81 0.28,1.09 0.51,0.01 0.74,-0.38 1.02,-0.69 0.22,-0.57 1.13,-2.49 -0.19,-2.89l-0.25 0.35c-0.18,0.36 -0.4,0.85 -0.37,1.25 0.26,0.16 0.55,0.17 0.7,0.41 0.21,0.35 0.14,0.62 -0.26,0.78z"/>
   <path class="fil12" d="M87.23 34.85c0.76,-0.16 2.33,-0.18 2.82,0.15l0.04 2.12c-0.03,1 -0.72,0.72 -1.58,0.72 -0.87,0 -1.47,0.17 -1.48,-0.81 -0.01,-0.76 -0.12,-1.67 0.2,-2.18zm-0.38 -0.13c0,0.56 -0.09,2.56 0,2.85 0.24,0.73 1.21,0.47 2.86,0.47 0.37,0 0.51,-0.18 0.69,-0.88l0.04 -1.43c0,-0.17 -0.29,-0.95 -0.36,-1.1 -0.43,0 -1.04,-0.08 -1.28,-0.07 -1.59,0.1 -0.38,-0.21 -1.95,0.16z"/>
   <path class="fil12" d="M94.97 101.06c-0.28,0.31 -0.51,0.7 -1.02,0.69 -0.36,-0.28 -0.35,-0.49 -0.28,-1.09 0.37,0.09 -0.07,0.25 0.65,0.39l-0.28 -0.45c0.15,-0.22 0.11,-0.1 0.19,-0.37 0.37,0.01 0.34,0.04 0.55,0.18 -0.1,0.4 -0.1,0.08 -0.18,0.55 0.4,-0.16 0.47,-0.43 0.26,-0.78 -0.15,-0.24 -0.44,-0.25 -0.7,-0.41 -0.03,-0.4 0.19,-0.89 0.37,-1.25l0.25 -0.35c1.32,0.4 0.41,2.32 0.19,2.89zm0 0c0.57,0.05 -0.07,0.1 0.21,-0.06 0.02,-0.01 0.18,-0.15 0.2,-0.17 0.32,-0.45 -0.02,-0.5 0.24,-1.06 0.2,-0.44 0.26,-0.04 0.08,-0.8 0,-0.01 -0.01,-0.04 -0.01,-0.05 -0.1,-0.44 -0.07,-0.65 -0.91,-1.09 -0.4,0.27 -0.36,0.28 -0.45,0.56l-0.07 0.21c-0.15,0.36 -0.29,0.27 -0.43,1.14 0,0.01 -0.05,0.34 -0.07,0.39 -0.15,0.5 -0.34,0.2 -0.28,1.21 0.06,1.11 1.23,0.45 1.41,0.2 0.19,-0.25 0.13,-0.15 0.08,-0.48z"/>
   <path class="fil2" d="M85.46 99.95l-0.09 0.1c-0.02,0.32 -0.01,0.34 -0.22,0.59 -0.59,0.71 -0.97,0.68 -1.34,1.07 0.54,0.17 1.1,-0.43 1.28,-0.83l0.73 0.36c0.41,0.5 0.9,0.64 1.28,0.18l0.52 -0.93c-1.47,0.38 -1.59,-0.28 -1.7,-1.19 -0.01,0.61 0.04,0.02 -0.1,0.24l-0.36 0.41z"/>
   <path class="fil12" d="M94.68 42.65c-0.54,-2.73 0.27,-2.75 1.76,-2.77 1.61,-0.01 1.37,1.09 1.37,1.85 0.01,0.31 0.06,0.5 -0.05,0.77 -0.3,0.72 -1.16,0.66 -1.88,0.65 -0.95,0 -0.65,-0.17 -1.28,-0.5l-0.11 0.27c1,0.53 0.11,0.47 2.23,0.48 0.52,0 0.44,0.05 0.72,-0.21 0.69,-0.64 0.6,-0.74 0.58,-2.2 -0.01,-0.18 0,-0.26 -0.04,-0.43l-0.55 -0.74c-0.33,-0.2 -2.19,-0.21 -2.52,0.01 -0.02,0.02 -0.08,0.07 -0.1,0.09 -0.21,0.19 -0.17,0.21 -0.29,0.45 -0.3,0.61 -0.21,0.69 -0.21,1.64 0,0.65 0.15,0.55 0.37,0.64z"/>
   <path class="fil19" d="M93.51 34.91c0.31,-0.17 1.04,-0.18 1.45,-0.1 1.5,0.29 1.05,2.61 0.32,2.88 -0.76,0.29 -1.93,0.24 -2.26,-0.46 -0.15,-0.33 -0.12,-0.96 -0.1,-1.41 0.02,-0.59 0.21,-0.69 0.59,-0.91zm-0.85 0.36c0,0.23 0.05,0.36 0.06,0.48 0.01,0.3 -0.06,0.04 -0.06,0.44 0,0.41 0.07,0.14 0.06,0.45 -0.01,0.13 -0.06,0.28 -0.06,0.57 0.6,0.16 -0.09,0.15 0.71,0.68 0.24,0.15 -0.02,0.15 0.3,0.15l1.39 0c0.21,0 0.75,-0.42 0.94,-0.73 0.2,-0.32 0.35,-2.58 -0.85,-2.69 -0.23,-0.02 -0.88,-0.05 -0.98,-0.05 -1.44,0.1 -0.77,0.5 -1.51,0.7z"/>
   <path class="fil8" d="M53.91 93.3c-0.63,0.04 -0.28,-0.17 -0.84,-0.34 -0.29,0.17 -0.63,0.98 -0.63,1 0.11,0.24 0.3,0.4 0.54,0.5 0.34,-0.15 0.44,-0.65 0.74,-0.69 0.59,0.14 0.31,0.29 0.74,0.43 0.8,-1.03 0.16,-1.63 -0.23,-1.42 -0.32,0.18 -0.01,0.17 -0.32,0.52z"/>
   <path class="fil11" d="M86.85 95.8c0.45,0.68 0.44,0.74 1.01,0.74 0.34,0 0.42,-0.5 0.57,-0.81 0.04,-0.08 0.13,-0.22 0.17,-0.3 -0.13,-0.25 -0.53,-0.77 -0.74,-0.92 -0.41,0.09 -0.49,0.3 -0.68,0.7l-0.33 0.59z"/>
   <path class="fil24" d="M42.74 95.71c0,0.58 -0.01,0.44 0.3,0.63 0.69,0.42 0.82,0.17 1.04,-0.22 0.66,-1.19 -0.23,-0.92 -0.42,-1.61 -0.45,0.04 -0.39,0.26 -0.69,0.78 -0.18,0.31 -0.23,0.15 -0.23,0.42z"/>
   <path class="fil25" d="M62.02 94.23c-0.17,-0.02 -0.02,-0.13 -0.15,0.05 -0.13,0.19 -0.1,-0.03 -0.03,0.23l0 0.55c0.13,0.08 0.06,0.06 0.26,0.18 0.25,0.13 -0.09,0.1 0.39,0.1 0.05,-0.29 0.14,-0.42 0.22,-0.61 1.12,-0.11 0.41,0.13 1.07,0.33 0.06,-0.11 0.13,-0.26 0.18,-0.34 0.41,-0.7 0.04,-0.98 -0.37,-0.98 -0.1,0.16 -0.06,0.2 -0.16,0.33 -0.22,0.25 -0.16,0.16 -0.39,0.25 -0.54,-0.23 -0.28,-0.67 -0.89,-0.2 -0.01,0.01 -0.05,0.07 -0.06,0.05 -0.01,-0.02 -0.04,0.04 -0.07,0.06z"/>
   <path class="fil18" d="M45.42 91.74c0,1.24 0.3,0.41 0.55,1.02l0.37 0 0.5 -0.89c0.08,-0.21 0.05,-0.25 0.05,-0.5 -0.37,-0.1 -0.16,-0.06 -0.35,-0.29 -0.7,-0.79 -1.12,0.64 -1.12,0.66z"/>
   <path class="fil26" d="M48.18 97.74c-1.56,2.09 -0.37,1.79 0.19,1.86 0.17,0.38 -0.04,0.31 0.26,0.42 0.19,-2.5 0.25,-1.56 -0.26,-2.38 -0.06,0.04 -0.11,0.05 -0.19,0.1z"/>
   <path class="fil27" d="M97.83 98.02c-0.1,0.32 -0.09,0.17 -0.27,0.45 -0.25,0.39 -0.29,0.7 -0.1,1.09 0.2,0.04 0.37,0.04 0.56,0.03 0.57,-0.01 0.56,0.02 0.62,-1.16 0.03,-0.56 -0.08,-0.4 -0.32,-0.79 -0.32,0.13 -0.27,0.17 -0.49,0.38z"/>
   <path class="fil27" d="M44.31 98.48l1.01 0c0.17,0.43 -0.06,0.3 0.28,0.46 0.14,-0.31 0.16,-1.1 0.03,-1.42 -0.08,-0.19 -0.54,-0.6 -0.77,-0.61l-0.43 0.92c-0.03,0.06 -0.09,0.18 -0.1,0.19 -0.14,0.32 -0.19,0.13 -0.02,0.46z"/>
   <path class="fil26" d="M59.81 99.58c0.35,-0.09 0.11,-0.1 0.28,-0.43 0.16,0.3 -0.2,-0.38 0.07,0.17 0.01,0.02 0.02,0.05 0.03,0.07l0.72 -0.05c0.03,-0.38 0.17,-1.39 -0.29,-1.66 -0.28,-0.17 -0.67,0.72 -0.77,0.9 -0.17,0.31 -0.37,0.71 -0.04,1z"/>
   <path class="fil26" d="M53.87 92.72c0.13,-0.42 0.43,-1.25 -0.15,-1.53 -0.21,0.12 -0.42,0.52 -0.5,0.8 -0.05,0.14 -0.18,0.34 0.31,0.61 0.26,0.15 -0.06,0.06 0.34,0.12z"/>
   <path class="fil19" d="M110.65 86.3c0.12,-0.43 0.15,-0.08 0.19,-0.56 -0.4,-0.08 -0.48,0.07 -1.07,0.69l-0.09 0.09c-0.02,0.01 -0.04,0.03 -0.05,0.05l-0.23 0.23c-0.22,0.15 -0.06,-0.08 -0.24,0.14 -0.43,0.52 0.24,0.24 0.6,0.04 0.38,-0.22 0.47,-0.57 0.89,-0.68z"/>
   <path class="fil28" d="M83.43 96.72c0,0.21 0.07,0.21 0.19,0.37 0.96,-0.51 -0.19,-0.98 -0.19,-0.37z"/>
   <path class="fil28" d="M66.45 101.34c0.26,-0.02 0.37,0 0.37,-0.28 0,-0.31 -0.16,-0.27 -0.46,-0.28 0.01,0.28 0.04,0.34 0.09,0.56z"/>
   <path class="fil22" d="M53.63 37.58c0.17,0.31 0.52,0.26 0.64,-0.09 -0.22,-0.13 -0.6,-0.17 -0.64,0.09z"/>
   <path class="fil28" d="M66.92 102.08c0.17,0.31 0.2,0.17 0.55,0.09l0 -0.19c-0.11,-0.02 -0.51,-0.23 -0.55,0.1z"/>
   <path class="fil28" d="M40.43 62.49c0.1,0.1 0.34,-0.13 0.11,-0.05 0,0 -0.26,-0.1 -0.11,0.05z"/>
   <path class="fil29" d="M109.64 47.64c-0.23,0.06 -0.13,-0.05 -0.19,0.18l0.19 -0.18z"/>
   <polygon class="fil30" points="38.13,101.89 38.03,101.89 38.11,102 "/>
  </g>
 </g>
</svg>
