<?xml version="1.0" encoding="UTF-8"?>
<!DOCTYPE svg PUBLIC "-//W3C//DTD SVG 1.1//EN" "http://www.w3.org/Graphics/SVG/1.1/DTD/svg11.dtd">
<!-- Creator: CorelDRAW 2020 (64-Bit) -->
<svg xmlns="http://www.w3.org/2000/svg" xml:space="preserve" width="200px" height="40px" version="1.1" style="shape-rendering:geometricPrecision; text-rendering:geometricPrecision; image-rendering:optimizeQuality; fill-rule:evenodd; clip-rule:evenodd"
viewBox="0 0 200 40"
 xmlns:xlink="http://www.w3.org/1999/xlink"
 xmlns:xodm="http://www.corel.com/coreldraw/odm/2003">
 <defs>
  <style type="text/css">
   <![CDATA[
    .str0 {stroke:#FEFEFE;stroke-width:2.67;stroke-miterlimit:2.61313}
    .fil0 {fill:none}
    .fil1 {fill:#FEFEFE}
   ]]>
  </style>
 </defs>
 <g id="Layer_x0020_1">
  <metadata id="CorelCorpID_0Corel-Layer"/>
  <path class="fil0 str0" d="M6.87 2.21l187.14 0c0.11,0 0.2,0.11 0.2,0.24l0 34.98c0,0.13 -0.09,0.24 -0.2,0.24l-187.14 0c-0.11,0 -0.2,-0.11 -0.2,-0.24l0 -34.98c0,-0.13 0.09,-0.24 0.2,-0.24z"/>
  <polygon class="fil1" points="9.36,34.83 44.63,34.82 44.61,15.41 33.9,15.42 33.91,25.66 20.21,25.66 20.21,14.23 21.62,14.25 21.62,24.4 32.37,24.41 32.36,5.1 9.36,5.08 "/>
  <polygon class="fil1" points="44.64,14.25 33.88,14.29 33.9,5.11 44.64,5.1 "/>
  <polygon class="fil1" points="46.09,5.1 46.08,34.82 56.89,34.82 56.86,14.19 69.03,14.23 69.03,5.12 "/>
  <polygon class="fil1" points="58.21,15.44 58.21,34.82 81.3,34.82 81.3,5.07 70.51,5.07 70.51,25.66 69.07,25.66 69.07,15.44 "/>
  <polygon class="fil1" points="82.74,5.08 82.74,34.83 154.56,34.83 154.56,15.43 143.82,15.43 143.82,25.66 142.4,25.66 142.4,15.44 118.06,15.44 118.06,14.25 142.4,14.25 142.4,5.07 107.2,5.07 107.2,24.4 131.59,24.4 131.59,25.66 93.55,25.66 93.55,5.07 "/>
  <polygon class="fil1" points="94.9,5.07 94.9,5.08 94.9,24.4 105.7,24.4 105.7,5.07 "/>
  <polygon class="fil1" points="143.82,5.07 143.82,14.24 154.56,14.24 154.56,5.07 "/>
  <polygon class="fil1" points="156.09,5.07 156.09,34.81 179.08,34.81 179.08,25.66 166.87,25.66 166.87,14.24 168.28,14.24 168.28,24.4 191.37,24.4 191.37,5.07 180.46,5.07 180.46,15.44 179.08,15.44 179.08,5.07 "/>
  <polygon class="fil1" points="180.46,25.66 180.46,34.83 191.38,34.83 191.38,25.66 "/>
 </g>
</svg>
