<?xml version="1.0" encoding="UTF-8"?>
<!DOCTYPE svg PUBLIC "-//W3C//DTD SVG 1.1//EN" "http://www.w3.org/Graphics/SVG/1.1/DTD/svg11.dtd">
<!-- Creator: CorelDRAW 2020 (64-Bit) -->
<svg xmlns="http://www.w3.org/2000/svg" xml:space="preserve" width="140px" height="140px" version="1.1" style="shape-rendering:geometricPrecision; text-rendering:geometricPrecision; image-rendering:optimizeQuality; fill-rule:evenodd; clip-rule:evenodd"
viewBox="0 0 140 140"
 xmlns:xlink="http://www.w3.org/1999/xlink"
 xmlns:xodm="http://www.corel.com/coreldraw/odm/2003">
 <defs>
  <style type="text/css">
   <![CDATA[
    .fil0 {fill:#434343}
   ]]>
  </style>
   <clipPath id="id0">
    <rect x="4.32" y="31.78" width="132.14" height="76.2"/>
   </clipPath>
 </defs>
 <g id="Layer_x0020_1">
  <metadata id="CorelCorpID_0Corel-Layer"/>
  <g style="clip-path:url(#id0)">
   <image x="4.32" y="31.78" width="132.14" height="76.2" xlink:href="sandicate_Images\sandicate_ImgID1.png"/>
  </g>
  <g id="_2596062367552">
   <path class="fil0" d="M55.3 63.86l0 -27.14c0,-0.57 0.1,-1.06 0.26,-1.46 0.52,-1.29 1.9,-1.92 3.25,-1.92l26.97 0c0.82,0 1.42,0.12 2.05,0.51l0.48 0.38c0.13,0.15 0.26,0.3 0.36,0.48 0.34,0.58 0.6,1.26 0.6,2.01l0 27.29c0,0.53 -0.11,1.02 -0.26,1.39 -0.08,0.2 -0.18,0.37 -0.29,0.54 -0.12,0.17 -0.23,0.29 -0.38,0.44 -0.52,0.53 -1.58,0.92 -2.36,0.92l-27.48 0c-0.99,0 -1.94,-0.41 -2.51,-1.21 -0.43,-0.61 -0.69,-1.44 -0.69,-2.23zm-1.58 -26.97l0 26.8c0,1.17 0.23,2.09 0.77,2.99 0.09,0.14 0.16,0.25 0.26,0.38l0.44 0.51 0.52 0.43c0.79,0.6 1.89,0.88 2.9,0.88l27.3 0c1.15,0 1.98,-0.32 2.86,-0.84 0.18,-0.11 0.56,-0.42 0.7,-0.56 0.96,-0.97 1.38,-2.11 1.38,-3.57l0 -27.15c0,-1.01 -0.31,-2.06 -0.8,-2.82 -0.34,-0.52 -0.63,-0.87 -1.15,-1.26 -0.21,-0.16 -0.51,-0.35 -0.75,-0.45 -0.61,-0.26 -1.28,-0.45 -1.98,-0.45l-27.73 0c-0.86,0 -1.7,0.32 -2.38,0.68 -0.89,0.48 -1.62,1.34 -2,2.3 -0.24,0.6 -0.34,1.3 -0.34,2.13z"/>
   <path class="fil0" d="M82.43 87.81c-0.14,0 -0.28,0 -0.42,0 -0.15,0 -0.22,-0.03 -0.39,-0.03 -0.13,0 -0.27,0 -0.41,0 -0.16,0 -0.24,-0.02 -0.41,-0.02 0.04,-0.06 0.09,-0.11 0.14,-0.17 0.16,-0.16 0.21,-0.26 0.43,-0.47 0.06,-0.06 0.09,-0.12 0.14,-0.16 0.07,-0.06 0.1,-0.08 0.16,-0.15 0.47,-0.46 1.32,-1.06 2.01,-1.06 0.48,0 0.81,0.07 1.19,0.35 0.3,0.23 0.52,0.43 0.52,0.86 0,0.55 -1.12,0.75 -1.6,0.78 -0.13,0.01 -0.31,0.02 -0.44,0.03 -0.15,0.03 -0.32,0.01 -0.47,0.01 -0.1,0.01 -0.1,0.02 -0.22,0.03 -0.07,0 -0.16,0 -0.23,0zm-18.64 -2.21c0,0.14 0.09,0.18 0.2,0.23 0.13,0.05 0.18,0.08 0.27,0.16 0.15,0.11 0.95,0.9 1.1,1.09 0.1,0.13 0.16,0.11 0.16,0.29 -0.09,0.02 -0.17,0.06 -0.24,0.09 -0.09,0.03 -0.17,0.05 -0.27,0.08 -0.17,0.05 -0.35,0.1 -0.53,0.14 -0.46,0.09 -1.09,0.16 -1.62,0.11 -0.56,-0.05 -1.04,-0.04 -1.47,-0.47 -0.25,-0.24 -0.09,-0.22 0.06,-0.69 0.09,-0.3 0.29,-1.08 -0.26,-1.08 -0.09,0 -0.36,0.33 -0.43,0.4 -0.06,0.06 -0.07,0.09 -0.13,0.15 -0.1,0.1 -0.16,0.2 -0.27,0.29l-0.31 0.26c-0.44,0.33 -0.94,0.59 -1.48,0.77 -1.58,0.52 -4.44,0.79 -6.15,0.35 -0.63,-0.16 -1.39,-0.5 -1.64,-1.16 -0.34,-0.88 0.24,-1.63 0.17,-1.88 -0.05,-0.18 -0.2,-0.22 -0.37,-0.22 -0.29,0 -0.62,0.75 -0.73,1.01 -0.43,1.08 -0.41,2.43 0.3,3.37 0.06,0.08 0.15,0.19 0.24,0.25 0.19,0.15 0.19,0.17 0.42,0.32 0.06,0.05 0.09,0.06 0.16,0.1 0.22,0.11 0.43,0.2 0.69,0.28 1.95,0.61 5.14,0.32 6.89,-0.36 0.47,-0.18 0.9,-0.39 1.31,-0.66 0.11,-0.07 0.2,-0.13 0.3,-0.2 0.09,-0.07 0.19,-0.18 0.29,-0.21 0.05,0.22 0.31,0.61 0.46,0.8 0.13,0.14 0.24,0.27 0.4,0.38 0.53,0.37 1.36,0.38 2.11,0.38 0.87,0 1.76,-0.38 2.4,-0.94l0.56 -0.55c0.08,0.11 0.15,0.17 0.24,0.28 0.08,0.1 0.17,0.18 0.27,0.25 0.05,0.05 0.08,0.09 0.13,0.13 1.06,0.9 1.73,0.83 3.07,0.83 0.53,0 1.01,-0.23 1.37,-0.43 0.37,-0.2 0.7,-0.51 0.9,-0.89 0.14,0.09 0.25,0.33 0.37,0.45l0.43 0.41c0.55,0.45 0.98,0.46 1.69,0.46 0.67,0 1.41,-0.06 1.89,-0.25 0.25,-0.1 0.45,-0.26 0.65,-0.41 0.07,-0.05 0.08,-0.07 0.14,-0.12 0.06,-0.07 0.09,-0.08 0.15,-0.13 0.09,-0.09 0.16,-0.21 0.26,-0.28 0.02,0.07 0.07,0.12 0.11,0.17 0.43,0.55 1.07,0.84 1.77,0.94 0.16,0.02 0.38,0.02 0.56,0.05 0.18,0.03 1.15,0.03 1.42,0.03 1.25,0 2.38,-0.26 3.32,-0.96 0.26,-0.19 0.47,-0.41 0.68,-0.65 0.31,-0.35 0.52,-0.73 0.7,-1.17 0.42,-1.03 0.21,-2.59 -0.94,-3.02 -1.12,-0.42 -2.27,0.15 -3.11,0.78l-0.73 0.62c-0.35,0.27 -1.13,1.15 -1.43,1.53 -0.08,0.11 -0.16,0.19 -0.24,0.3 -0.03,0.03 -0.23,0.3 -0.24,0.3 -0.58,0 -1.03,-0.2 -1.33,-0.65 -0.34,-0.53 -0.1,-1.14 -0.41,-1.32 -0.21,-0.13 -0.46,-0.04 -0.54,0.19 -0.11,0.27 0.14,1.32 -1.33,1.76 -0.37,0.11 -0.92,0.13 -1.35,0.13 -2.36,0 -1.98,-1.68 -2.1,-2.02 -0.15,-0.4 -0.71,-0.36 -0.76,0 -0.07,0.59 0,0.99 -0.47,1.46 -0.68,0.68 -2.37,0.61 -3.28,0.43 -0.1,-0.02 -1.01,-0.24 -1.01,-0.39 0,-0.07 0.23,-0.16 0.35,-0.26 0.05,-0.03 0.08,-0.05 0.13,-0.09l0.33 -0.28c0.04,-0.04 0.06,-0.06 0.1,-0.1 0.14,-0.14 0.27,-0.29 0.38,-0.45 0.09,-0.13 0.25,-0.39 0.25,-0.6 0,-0.64 -0.33,-0.95 -0.8,-1.24 -0.49,-0.3 -1.25,-0.36 -1.82,-0.36 -0.63,0 -1.22,0.16 -1.6,0.41 -0.36,0.24 -0.76,0.69 -0.76,1.28z"/>
   <path class="fil0" d="M78.59 51.26c0,0.44 -0.01,0.61 0.08,1.05 0.11,0.53 0.15,0.84 -0.02,1.36 -0.21,0.61 -0.61,1.06 -1.18,1.34 -0.39,0.19 -1.79,0.45 -2.33,0.59 -0.1,0.03 -0.27,0.07 -0.36,0.08 0.57,2.43 2.91,3.98 5.45,3.43 2,-0.44 3.54,-2.3 3.54,-4.34 0,-0.89 -0.18,-1.13 -0.18,-1.65 0,-0.87 0.55,-1.69 1.3,-2.03 0.4,-0.18 1.45,-0.37 1.99,-0.5l0.7 -0.15c-0.24,-1.04 -0.9,-2.09 -1.75,-2.67 -0.89,-0.6 -1.61,-0.88 -2.8,-0.88 -0.69,0 -1.29,0.19 -1.78,0.41 -0.47,0.2 -0.8,0.45 -1.16,0.76 -0.09,0.09 -0.19,0.15 -0.27,0.27 -0.23,0.29 -0.37,0.39 -0.6,0.79 -0.33,0.58 -0.63,1.36 -0.63,2.14z"/>
   <path class="fil0" d="M63.4 57.11c0,0.77 0.11,1.44 0.41,2.06 0.26,0.52 0.47,0.87 0.89,1.29 0.55,0.55 1.29,1.01 2.05,1.19 0.69,0.18 0.77,0.16 1.45,0.16 0.47,0 0.81,-0.16 1.13,-0.16 0.6,0 1.01,0.08 1.49,0.44 0.31,0.23 0.56,0.54 0.72,0.9 0.09,0.2 0.14,0.4 0.19,0.62l0.46 2.01c0.92,-0.22 1.6,-0.62 2.23,-1.25 0.05,-0.05 0.08,-0.08 0.12,-0.12 0.71,-0.72 1.2,-1.97 1.2,-3.07 0,-0.34 -0.06,-0.72 -0.12,-1.01 -0.07,-0.32 -0.17,-0.57 -0.29,-0.84 -0.06,-0.15 -0.11,-0.24 -0.19,-0.38l-0.72 -0.96c-1.06,-1.06 -2.51,-1.54 -4.01,-1.29 -0.41,0.06 -0.35,0.11 -0.84,0.11 -0.47,0 -0.97,-0.22 -1.23,-0.42l-0.31 -0.26c-0.54,-0.52 -0.64,-1.22 -0.79,-1.93 -0.05,-0.24 -0.1,-0.44 -0.15,-0.68 -0.03,-0.15 -0.14,-0.56 -0.14,-0.68 -0.34,0 -1.11,0.38 -1.4,0.55 -0.33,0.21 -0.81,0.59 -1.05,0.9 -0.64,0.79 -1.1,1.74 -1.1,2.82z"/>
   <path class="fil0" d="M60.8 45.94c0,1.18 0.52,1.73 -0.24,2.88 -0.11,0.16 -0.24,0.3 -0.39,0.42 -0.39,0.32 -0.64,0.41 -1.13,0.52 -0.24,0.05 -0.44,0.1 -0.67,0.15l-1.36 0.31c0,0.19 0.17,0.61 0.24,0.77 0.21,0.54 0.59,1.06 1,1.48 0.19,0.19 0.63,0.52 0.85,0.65 0.21,0.13 0.43,0.23 0.66,0.33 0.25,0.09 0.48,0.17 0.77,0.23 0.48,0.09 0.92,0.12 1.4,0.06 0.55,-0.08 0.82,-0.15 1.32,-0.35 0.12,-0.05 0.26,-0.12 0.36,-0.18 0.81,-0.47 1.51,-1.15 1.92,-2 0.37,-0.8 0.44,-1.32 0.44,-2.22 0,-0.63 -0.28,-1.06 -0.11,-1.8 0.19,-0.77 0.74,-1.38 1.45,-1.63 0.39,-0.14 2.35,-0.54 2.47,-0.6 -0.12,-0.53 -0.3,-0.93 -0.57,-1.39 -0.17,-0.27 -0.44,-0.61 -0.67,-0.83 -0.8,-0.81 -2,-1.31 -3.22,-1.31 -0.99,0 -1.82,0.32 -2.56,0.81 -0.23,0.15 -0.43,0.33 -0.61,0.52 -0.83,0.82 -1.35,1.94 -1.35,3.18z"/>
   <path class="fil0" d="M68.85 39.36c0,0.9 0.2,1.72 0.61,2.4 0.24,0.38 0.42,0.62 0.74,0.95 0.36,0.36 0.85,0.71 1.33,0.92 0.83,0.35 1.67,0.49 2.58,0.34 0.47,-0.08 0.39,-0.11 0.91,-0.11 0.48,0 0.94,0.22 1.23,0.42 0.84,0.61 0.87,1.3 1.08,2.2 0.11,0.45 0.21,0.9 0.31,1.34 0.43,-0.03 1.3,-0.48 1.67,-0.75 1.09,-0.8 1.86,-2.16 1.86,-3.51 0,-0.93 -0.16,-1.68 -0.62,-2.46 -0.19,-0.33 -0.34,-0.54 -0.6,-0.81 -0.05,-0.05 -0.07,-0.1 -0.13,-0.15 -0.32,-0.24 -0.45,-0.44 -0.95,-0.71 -0.13,-0.07 -0.25,-0.13 -0.38,-0.19 -0.71,-0.34 -1.68,-0.49 -2.56,-0.34 -0.57,0.09 -0.36,0.11 -0.97,0.11 -0.78,0 -1.65,-0.63 -1.93,-1.34 -0.19,-0.46 -0.52,-2.05 -0.65,-2.62 -0.36,0.01 -1.08,0.38 -1.39,0.56 -0.78,0.46 -1.46,1.28 -1.8,2.12 -0.17,0.43 -0.34,1.01 -0.34,1.63z"/>
   <polygon class="fil0" points="4.32,97.05 136.24,97.05 136.24,96.51 4.32,96.51 "/>
   <path class="fil0" d="M97.41 80.25c0,0.24 0.05,0.45 0.09,0.69 0.06,0.46 0.12,0.94 0.14,1.41l0.18 2.19c0,0.37 0.06,0.74 0.06,1.1l0.02 0.39c0.02,0.51 0.05,0.99 0.05,1.52 0,0.72 0.06,1.06 0.42,1.54 0.04,0.06 0.05,0.06 0.09,0.11 0.44,0.52 1.01,0.77 1.78,0.77 1.56,0 2.76,0.11 3.96,-0.89 0.2,-0.18 0.38,-0.43 0.5,-0.67 0.2,-0.39 0.33,-0.78 0.33,-1.25 0.09,0.06 0.4,0.53 0.5,0.66 0.26,0.34 0.58,0.79 0.88,1.1 0.16,0.16 0.3,0.34 0.49,0.48 0.4,0.3 1.07,0.57 1.61,0.57l0.56 0c2.1,0 3.01,-1.25 3.01,-3.36 0,-0.54 -0.1,-1.06 -0.27,-1.54 -0.1,-0.29 -0.46,-0.98 -0.7,-1.14 -0.06,0.05 -0.23,0.33 -0.29,0.42l-0.86 1.31c0.07,0.1 0.13,0.17 0.21,0.27 0.22,0.28 0.44,0.56 0.62,0.87 0.41,0.67 0.08,0.87 -0.65,0.94 -0.49,0.05 -1.42,0.1 -1.85,0 -0.14,-0.03 -0.24,-0.06 -0.37,-0.1 -0.21,-0.08 -0.47,-0.21 -0.65,-0.35 -0.08,-0.07 -0.17,-0.17 -0.25,-0.25 -0.33,-0.33 -0.63,-0.68 -0.94,-1.03 -0.05,-0.05 -0.05,-0.07 -0.11,-0.13l-0.22 -0.25c-0.19,-0.22 -0.41,-0.43 -0.61,-0.64l-0.23 -0.25c-0.04,-0.05 -0.07,-0.08 -0.12,-0.12 -0.05,-0.06 -0.06,-0.09 -0.12,-0.14 -0.08,-0.09 -0.16,-0.16 -0.24,-0.25l-0.97 -1.03c-0.08,-0.08 -0.2,-0.15 -0.21,-0.29 0.4,-0.21 3.58,-1.28 3.96,-1.39l0.9 -0.28c0.29,-0.1 0.23,0.03 0.43,-0.76 0.06,-0.23 0.38,-1.26 0.38,-1.44 -0.2,0.09 -1.45,0.53 -1.74,0.64 -0.29,0.12 -0.57,0.22 -0.85,0.33 -0.3,0.12 -0.58,0.22 -0.88,0.34 -0.58,0.23 -1.16,0.45 -1.73,0.68 -0.28,0.11 -0.56,0.22 -0.85,0.33 -0.24,0.1 -0.65,0.29 -0.87,0.34l-0.42 2.23c0.12,0.08 0.22,0.17 0.33,0.26 0.04,0.02 0.05,0.04 0.08,0.07l0.25 0.21c0.1,0.09 0.19,0.21 0.29,0.29 0.23,0.18 0.4,0.39 0.6,0.59 0.05,0.06 0.1,0.1 0.15,0.16 0.05,0.06 0.08,0.1 0.13,0.16 0.1,0.12 0.17,0.2 0.26,0.33 0.62,0.89 0.7,1.28 -0.51,1.58 -0.29,0.08 -0.7,0.15 -1.02,0.18 -0.46,0.04 -0.98,0.05 -1.47,0.05 -0.99,0 -1.36,-0.28 -1.36,-1.28 0,-0.41 -0.04,-0.87 -0.04,-1.28 0,-0.11 0,-0.22 0,-0.32 0,-0.14 -0.03,-0.18 -0.02,-0.33 0,-0.11 0,-0.21 0,-0.32 0,-0.15 -0.02,-0.22 -0.03,-0.33 -0.02,-0.44 0,-0.86 -0.02,-1.3l-0.02 -0.65c0,-0.62 -0.07,-1.3 -0.06,-1.92 0,-0.2 -0.03,-0.45 -0.05,-0.63 -0.01,-0.2 -0.02,-0.45 -0.08,-0.59 -0.13,0.02 -0.23,0.15 -0.32,0.23 -0.05,0.04 -0.06,0.04 -0.11,0.08l-0.76 0.72c-0.09,0.09 -0.29,0.33 -0.39,0.36z"/>
   <path class="fil0" d="M117.67 86.94l0 0.13c0,0.27 -0.66,0.48 -0.92,0.55 -0.7,0.21 -2.31,0.31 -2.86,-0.1 -0.22,-0.16 -0.26,-0.31 -0.3,-0.63 -0.03,-0.17 0,-0.26 -0.05,-0.41 -0.04,-0.13 -0.12,-0.23 -0.27,-0.23 -0.53,0 -1.18,2.39 -0.01,3.26 1,0.74 3.02,0.52 3.96,-0.14l0.34 -0.27c0.17,-0.14 0.32,-0.3 0.45,-0.47l0.26 -0.37c0.03,0.1 0.13,0.26 0.18,0.35 0.25,0.43 0.59,0.85 1.04,1.07 0.12,0.06 0.27,0.12 0.39,0.16 0.44,0.12 0.88,0.13 1.36,0.13 0.52,0 1.06,-0.22 1.38,-0.42 0.1,-0.06 0.18,-0.1 0.28,-0.17 0.21,-0.15 0.58,-0.48 0.64,-0.73 0.09,0.02 0.13,0.15 0.19,0.22 0.06,0.08 0.12,0.14 0.19,0.22 0.36,0.47 0.98,0.88 1.65,0.88 1.4,0 2.23,-0.1 3.15,-1.05 0.04,-0.05 0.06,-0.1 0.12,-0.14 0.39,0.74 0.96,1.19 1.88,1.19 0.43,0 0.8,-0.18 1.03,-0.38 0.13,-0.12 0.23,-0.23 0.34,-0.37 0.09,-0.1 0.21,-0.35 0.3,-0.42 0.11,0.08 0.35,0.57 0.71,0.82 0.6,0.44 1.56,0.48 2.19,0.05 0.39,-0.26 0.64,-0.66 0.83,-1.08 0.19,-0.41 0.31,-0.92 0.34,-1.45l0 -0.67c-0.04,-0.68 -0.21,-1.34 -0.51,-1.84 -0.06,-0.11 -0.26,-0.45 -0.34,-0.5 -0.07,0.05 -0.61,1 -0.71,1.16 -0.07,0.12 -0.2,0.28 -0.24,0.42 0.07,0.09 0.15,0.18 0.22,0.27 0.08,0.1 0.15,0.2 0.22,0.3 0.22,0.29 0.54,0.7 0.32,1.07 -0.23,0.38 -0.73,0.39 -1.12,0.44 -0.95,0.1 -1.56,-0.61 -1.65,-1.44 -0.03,-0.27 0.02,-0.69 -0.39,-0.69 -0.29,0 -0.39,0.27 -0.39,0.56 0,0.51 -0.24,1.01 -0.61,1.32 -0.74,0.61 -1.71,0.14 -2,-0.85 -0.07,-0.26 -0.03,-0.62 -0.14,-0.83 -0.15,-0.3 -0.54,-0.24 -0.66,0.05 -0.07,0.15 -0.04,0.34 -0.07,0.52 -0.06,0.39 -0.15,0.58 -0.38,0.81 -0.53,0.52 -1.23,0.57 -1.99,0.57 -2.35,0 -1.96,-1.69 -2.1,-2.04 -0.1,-0.28 -0.52,-0.38 -0.69,-0.11 -0.18,0.31 0.19,1.46 -1.11,1.94 -0.18,0.07 -0.49,0.14 -0.71,0.16l-0.8 0.02c-0.82,-0.02 -1.18,-0.45 -1.46,-1.15 -0.25,-0.63 -0.47,-1.3 -0.7,-1.92l-0.69 -1.93c-0.04,-0.1 -0.08,-0.21 -0.12,-0.32 -0.05,-0.11 -0.07,-0.22 -0.12,-0.33 -0.11,0.08 -0.3,0.39 -0.39,0.5l-0.67 0.89c-0.04,0.06 -0.07,0.09 -0.05,0.15 0.01,0.04 0.04,0.12 0.06,0.16l0.73 1.75c0.15,0.38 0.47,0.95 0.47,1.36z"/>
   <path class="fil0" d="M68.16 50.31c0,0.99 0.37,1.91 0.95,2.62 0.04,0.06 0.07,0.08 0.12,0.14 0.04,0.06 0.08,0.09 0.13,0.14 0.63,0.63 1.62,1.21 2.89,1.21 1.37,0 2.59,-0.65 3.37,-1.72 0.13,-0.18 0.28,-0.43 0.38,-0.64 0.5,-1.13 0.53,-2.32 0.02,-3.46 -0.1,-0.22 -0.21,-0.44 -0.35,-0.62 -0.48,-0.65 -0.86,-1.01 -1.59,-1.38 -1.34,-0.67 -3.04,-0.5 -4.23,0.38 -1.03,0.78 -1.69,1.96 -1.69,3.33z"/>
   <path class="fil0" d="M91.97 88.02c0,0.53 0.06,0.87 0.57,1.18 0.32,0.2 0.72,0.31 1.13,0.4 0.44,0.09 1.6,0.24 1.92,0.35 0.55,0.2 0.51,0.94 -0.87,1.32 -0.18,0.05 -0.35,0.09 -0.55,0.14 -1.3,0.33 -3.68,0.43 -5.01,-0.1 -1.35,-0.53 -1.33,-1.89 -0.94,-3.06l0.4 -1.09c0,-0.33 -0.54,-0.63 -0.96,0.23 -0.4,0.8 -0.78,1.86 -0.78,2.8 0,0.49 -0.01,0.77 0.11,1.26 0.1,0.39 0.31,0.9 0.58,1.19 0.22,0.22 0.17,0.21 0.47,0.44 0.9,0.68 2.16,0.77 3.3,0.77 1.49,0 2.89,-0.37 3.83,-0.92l0.51 -0.36c0.52,-0.42 0.88,-0.95 1.07,-1.61 0.18,-0.66 0.23,-1.95 -0.16,-2.44 -0.42,-0.53 -1.16,-0.54 -1.84,-0.66 -0.25,-0.04 -0.47,-0.09 -0.7,-0.14 -0.78,-0.16 -1.3,-0.48 -0.76,-1.24 0.13,-0.18 0.39,-0.42 0.57,-0.55 0.39,-0.29 0.82,-0.51 1.31,-0.6 0.16,-0.03 0.52,-0.06 0.68,-0.04 0.15,0.02 0.21,0.02 0.33,0.04 0.11,0.03 0.19,0.05 0.3,0.09 0.68,0.2 0.67,0.29 0.67,-0.06 0,-0.79 -0.71,-1.91 -1.58,-1.91 -0.65,0 -1.1,0.18 -1.59,0.54 -1.03,0.77 -2.01,2.71 -2.01,4.03z"/>
   <path class="fil0" d="M35.04 86.1c0,-0.38 0.45,-0.72 0.78,-0.72 0.46,0 0.67,0.15 1,0.47 0.18,0.18 0.45,0.6 0.47,0.85 -0.16,0 -0.38,0.06 -0.56,0.07 -0.68,0.01 -1.69,0.19 -1.69,-0.67zm-1.11 1.21l0 0.19c0,1.03 1.18,1.3 2.06,1.3l0.65 0c0.16,0 0.25,-0.02 0.39,-0.02 0.13,0 0.28,0 0.41,0 0.13,0 0.23,-0.02 0.39,-0.02 0,0.12 0.05,0.23 0.06,0.35 0.02,0.14 0.02,0.2 0,0.35 -0.03,0.12 -0.08,0.22 -0.12,0.3 -0.63,1.03 -3.26,1.25 -4.2,1.25 -0.9,0 -2.08,-0.06 -2.73,-0.7 -0.97,-0.96 -0.35,-2.39 0.07,-3.49 0.07,-0.16 0.18,-0.4 -0.01,-0.52 -0.09,-0.05 -0.19,-0.05 -0.27,-0.03 -0.32,0.09 -0.73,0.93 -0.85,1.21 -0.55,1.23 -0.79,2.39 -0.31,3.71 0.47,1.34 1.84,1.98 3.25,1.98 1.06,0 1.64,0 2.68,-0.21 0.62,-0.13 1.18,-0.34 1.65,-0.61 1.01,-0.58 1.67,-1.62 1.67,-2.86 0,-1.48 0.09,-3.13 -0.58,-4.46 -0.37,-0.75 -0.99,-1.42 -2.06,-1.42 -1.05,0 -1.68,1.52 -1.94,2.43 -0.11,0.37 -0.21,0.81 -0.21,1.27z"/>
   <path class="fil0" d="M23.22 85.68l0.27 0.36c0.2,0.23 0.72,0.93 0.72,1.2 0,0.67 -3.01,0.54 -3.66,0.54 -0.64,0 -1.19,-0.24 -1.61,-0.67l-0.9 -1.1c-0.03,-0.03 -0.04,-0.05 -0.06,-0.09 -0.04,-0.04 -0.02,-0.05 -0.09,-0.06 -0.02,0.08 -0.06,0.17 -0.1,0.24l-0.66 1.51c-0.04,0.09 -0.08,0.15 -0.1,0.26 0.06,0.09 0.14,0.15 0.22,0.23 0.05,0.06 0.06,0.08 0.11,0.13 0.04,0.05 0.07,0.08 0.12,0.12 0.04,0.05 0.05,0.07 0.09,0.12 0.36,0.38 0.97,1.18 0.97,1.63 0,0.91 -1.91,2.38 -2.67,2.83 -0.37,0.22 -0.69,0.38 -1.1,0.55 -0.27,0.11 -0.75,0.26 -0.96,0.41 -0.08,0.06 -0.1,0.08 -0.12,0.17 0.29,0.2 1.09,0.25 1.55,0.32 0.76,0.1 1.3,0.14 2.07,0.14 0.26,0 0.69,-0.53 0.84,-0.72 0.22,-0.28 0.46,-0.62 0.64,-0.94 0.32,-0.59 0.73,-1.72 0.73,-2.41l0 -0.29c0,-0.17 -0.04,-0.27 -0.05,-0.41 0.09,0.02 0.16,0.07 0.26,0.1 0.69,0.18 1.83,0.12 2.58,0.12 1.13,0 2,-0.33 2.56,-1.27 0.1,-0.15 0.18,-0.35 0.24,-0.54 0.31,-0.93 0.28,-2.25 -0.08,-3.16 -0.08,-0.2 -0.19,-0.41 -0.31,-0.58 -0.07,-0.12 -0.28,-0.46 -0.4,-0.49 -0.02,0.07 -0.35,0.55 -0.41,0.65 -0.05,0.08 -0.09,0.14 -0.14,0.23l-0.28 0.43c-0.08,0.11 -0.25,0.33 -0.27,0.44z"/>
   <path class="fil0" d="M45.8 85.66c0.21,0.33 1.01,1.19 1.01,1.58 0,0.47 -1.34,0.49 -1.66,0.53 -0.22,0.02 -1.94,0.03 -2.14,0.01 -0.74,-0.09 -1.17,-0.31 -1.62,-0.82 -0.05,-0.06 -0.1,-0.09 -0.14,-0.15 -0.09,-0.11 -0.68,-0.84 -0.71,-0.95l-0.05 0c-0.01,0.06 -0.07,0.18 -0.1,0.24 -0.04,0.09 -0.08,0.17 -0.11,0.26l-0.65 1.49c0,0.07 0.16,0.19 0.21,0.24l0.44 0.51c0.29,0.34 0.86,1.03 0.86,1.5 0,0.49 -0.56,1.09 -0.83,1.36l-0.56 0.54c-0.54,0.46 -0.98,0.78 -1.61,1.12l-0.55 0.27c-0.36,0.16 -1.24,0.39 -1.3,0.65 0.1,0.14 0.49,0.19 0.71,0.22 0.59,0.09 1.54,0.22 2.11,0.23l0.45 0.03c0.36,0 0.49,0.04 0.83,-0.3l0.36 -0.42c0.18,-0.24 0.49,-0.68 0.64,-0.94 0.12,-0.23 0.27,-0.56 0.36,-0.81 0.25,-0.69 0.37,-1.11 0.37,-1.89 0,-0.17 -0.04,-0.27 -0.05,-0.41 0.07,0.02 0.08,0.03 0.14,0.06 0.06,0.02 0.09,0.03 0.15,0.04 0.12,0.03 0.22,0.06 0.33,0.07 0.6,0.08 1.58,0.05 2.22,0.05 0.63,0 1.34,-0.13 1.83,-0.47 0.17,-0.11 0.28,-0.22 0.42,-0.36 0.05,-0.05 0.12,-0.13 0.16,-0.2 0.06,-0.09 0.1,-0.15 0.15,-0.24 0.1,-0.15 0.18,-0.35 0.24,-0.54 0.19,-0.58 0.21,-1.06 0.21,-1.7 0,-0.83 -0.3,-1.67 -0.77,-2.3 -0.06,-0.08 -0.13,-0.2 -0.23,-0.23l-1.09 1.7c-0.04,0.05 0,0 -0.03,0.03z"/>
   <path class="fil0" d="M11.09 86.61c0.09,0.13 0.16,0.19 0.27,0.3 0.57,0.57 1.53,1.83 1.53,2.54 0,0.51 -0.16,0.76 -0.57,1.05 -0.95,0.69 -3.74,0.98 -5.05,0.67 -0.96,-0.22 -1.85,-0.77 -1.85,-1.87 0,-0.53 0.11,-0.94 0.29,-1.4 0.06,-0.18 0.14,-0.37 0.2,-0.56 0.03,-0.08 0.21,-0.53 0.21,-0.55 0,-0.21 -0.35,-0.64 -0.91,0.29 -0.4,0.67 -0.89,1.86 -0.89,2.71l0 0.05c0,1 0.15,1.76 0.77,2.5 0.65,0.77 1.73,1.12 2.76,1.12 1.48,0 3.03,-0.1 4.27,-0.84 1.68,-1.01 1.77,-2.75 1.46,-4.56 -0.03,-0.23 -0.09,-0.46 -0.14,-0.67l-0.21 -0.64c-0.18,-0.57 -0.51,-1.15 -0.85,-1.64 -0.06,-0.09 -0.31,-0.42 -0.38,-0.47 -0.02,0.13 -0.16,0.37 -0.22,0.5l-0.69 1.47z"/>
   <path class="fil0" d="M15.08 90.45c0.35,-0.08 0.75,-1.46 0.83,-1.81 0.06,-0.21 0.14,-0.51 0.14,-0.75 0,-0.76 0,-1.53 0,-2.29l-0.02 -3.42c0,-0.33 0.03,-0.84 0,-1.15 -0.05,-0.45 0.03,-1.86 -0.13,-2.19 -0.21,0.11 -1.29,1.04 -1.59,1.3 -0.19,0.15 -0.18,0.06 -0.14,0.5 0.03,0.26 0.04,0.54 0.06,0.82l0.5 6.2c0.03,0.29 0.06,0.97 0.1,1.24 0.01,0.12 0.03,0.28 0.03,0.4 0.01,0.17 0.08,0.84 0.13,1 0.02,0.08 0.04,0.1 0.09,0.15z"/>
   <path class="fil0" d="M25.88 80.25c0,0.23 0.04,0.43 0.04,0.65l0.35 4.5c0.09,0.83 0.12,1.73 0.21,2.56 0.01,0.1 0.03,0.23 0.03,0.32l0.08 0.96c0.05,0.39 0.03,0.95 0.2,1.21 0.27,-0.03 0.52,-0.76 0.59,-0.99 0.46,-1.39 0.41,-1.27 0.41,-2.78 0,-0.53 -0.01,-1.07 0,-1.6 0,-0.15 -0.03,-0.21 -0.03,-0.37l0 -2.79c0,-0.27 -0.02,-0.48 -0.02,-0.76 0,-0.48 0.02,-2.02 -0.11,-2.3 -0.14,0.02 -0.77,0.58 -0.88,0.68l-0.74 0.62c-0.06,0.05 -0.05,0.07 -0.13,0.09z"/>
   <path class="fil0" d="M98.99 101.16c0,1.37 0.24,1.7 1.35,1.85 0.49,0.06 0.82,0.03 1.4,0.14 0.8,0.16 0.71,0.57 0.71,1.37 0,0.4 -0.05,0.8 -0.29,0.96 -0.21,0.14 -0.56,0.14 -0.81,0.14 -0.14,0 -0.19,0.03 -0.31,0.03 -0.11,-0.01 -0.14,-0.03 -0.28,-0.03 -1.26,0.01 -1.23,-0.33 -1.23,-1.54l-0.61 0c0,0.77 -0.09,1.56 0.59,1.97 0.34,0.21 1.29,0.3 1.61,0.25 0.2,-0.03 0.38,0.03 0.86,-0.07 1.12,-0.21 1.14,-1.08 1.14,-2.06 0,-2.1 -1.32,-1.51 -2.83,-1.84 -0.7,-0.15 -0.63,-0.69 -0.63,-1.34 0,-0.19 0.03,-0.41 0.08,-0.55 0.16,-0.44 0.83,-0.4 1.28,-0.42 0.05,0 0.08,0.01 0.15,0.02 0.61,0.02 1.11,0.03 1.25,0.63 0.04,0.16 0.05,0.41 0.05,0.6l0.61 0c0,-0.61 -0.09,-1.24 -0.41,-1.54 -0.16,-0.16 -0.4,-0.25 -0.67,-0.31 -0.29,-0.06 -0.62,-0.05 -0.92,-0.07l-0.92 0.05c-0.29,0.04 -0.52,0.11 -0.71,0.26 -0.37,0.27 -0.46,0.87 -0.46,1.5z"/>
   <path class="fil0" d="M22.94 106.23l3.61 0 0 -0.67 -2.94 0 0 -2.51 2.77 0c0.05,0 0.06,-0.02 0.06,-0.07l0 -0.61 -2.83 0 0 -2.27 2.96 0 0 -0.67 -3.63 0 0 6.8z"/>
   <path class="fil0" d="M72.32 105.69c-0.43,0 -0.88,0.02 -1.07,-0.39 -0.23,-0.48 -0.25,-2.5 0.02,-2.98 0.18,-0.32 0.56,-0.36 0.92,-0.36 1.1,0 1.17,0.76 1.17,1.8l-0.04 0.71c-0.03,0.26 -0.01,0.34 -0.09,0.63 -0.12,0.41 -0.39,0.59 -0.91,0.59zm1.03 -3.66c-0.12,-0.08 -0.15,-0.31 -0.5,-0.49 -0.57,-0.31 -1.72,-0.29 -2.13,0.39 -0.35,0.58 -0.31,1.51 -0.31,2.24 0,0.77 0.12,1.73 0.87,2.01 0.31,0.12 0.89,0.17 1.27,0.09 0.3,-0.07 0.49,-0.18 0.66,-0.42l0.14 -0.23 0 0.61 0.61 0 0 -6.8 -0.61 0 0 2.6z"/>
   <path class="fil0" d="M114.94 105.69c-0.47,0 -0.91,0.04 -1.12,-0.42 -0.22,-0.49 -0.22,-2.41 0.02,-2.92 0.07,-0.15 0.18,-0.25 0.34,-0.3 0.41,-0.15 1.26,-0.16 1.54,0.33 0.2,0.35 0.22,0.82 0.22,1.32 0,0.57 0.02,1.51 -0.4,1.83 -0.13,0.1 -0.38,0.16 -0.6,0.16zm1 -3.66c-0.06,-0.04 -0.12,-0.18 -0.22,-0.28 -0.1,-0.09 -0.17,-0.15 -0.28,-0.22 -0.45,-0.26 -1.72,-0.32 -2.14,0.41 -0.33,0.57 -0.31,1.48 -0.31,2.21 0,0.78 0.12,1.74 0.87,2.03 0.43,0.17 1.3,0.22 1.76,-0.13 0.08,-0.06 0.12,-0.12 0.18,-0.2 0.03,-0.04 0.04,-0.06 0.06,-0.11 0.02,-0.02 0.02,-0.03 0.03,-0.05l0.05 -0.07 0 0.61 0.6 0 0 -6.8 -0.6 0 0 2.6z"/>
   <path class="fil0" d="M125.25 104.78c0,-0.33 0.05,-0.55 0.27,-0.74 0.16,-0.15 0.57,-0.19 0.87,-0.19 0.79,0 1.13,0.21 1.13,0.95 0,0.85 -0.59,0.89 -1.28,0.89 -0.29,0 -0.58,-0.08 -0.75,-0.21 -0.16,-0.12 -0.24,-0.42 -0.24,-0.7zm-0.44 -2.45l0 0.43 0.61 0c0,-0.51 -0.01,-0.84 0.8,-0.84 0.32,0 0.63,-0.02 0.92,0.09 0.17,0.07 0.26,0.2 0.29,0.39 0.06,0.32 0.02,0.94 0.02,1.32 -0.14,-0.17 -0.17,-0.27 -0.46,-0.36 -0.25,-0.07 -0.59,-0.08 -0.88,-0.08 -0.98,0 -1.47,0.36 -1.47,1.35 0,0.83 0.06,1.47 1.04,1.64 0.32,0.06 0.76,0.04 1.07,-0.01 0.27,-0.06 0.41,-0.13 0.6,-0.29 0.06,-0.04 0.12,-0.1 0.17,-0.13l0 0.39c0.32,0 0.56,0.05 0.56,-0.07 0,-0.59 0.04,-3.43 -0.04,-3.87 -0.14,-0.83 -0.82,-0.93 -1.63,-0.93 -0.52,0 -1.16,0.07 -1.45,0.47 -0.08,0.12 -0.15,0.3 -0.15,0.5z"/>
   <path class="fil0" d="M12.29 105.69c-0.59,0 -1.24,-0.04 -1.24,-0.78 0,-0.35 -0.03,-0.7 0.31,-0.9 0.34,-0.2 1.65,-0.33 1.88,0.29 0.08,0.22 0.1,0.6 0.03,0.85 -0.12,0.43 -0.52,0.54 -0.98,0.54zm-1.69 -3.23l0 0.3 0.6 0c0,-0.21 0.01,-0.52 0.16,-0.66 0.27,-0.25 1.29,-0.21 1.59,-0.08 0.16,0.06 0.25,0.19 0.28,0.38 0.06,0.35 0.03,0.92 0.03,1.32 -0.07,-0.06 -0.09,-0.14 -0.19,-0.21 -0.32,-0.24 -0.75,-0.23 -1.2,-0.23 -1.07,0 -1.45,0.46 -1.45,1.5 0,0.84 0.25,1.34 0.97,1.48 0.34,0.06 0.76,0.06 1.12,0 0.2,-0.03 0.3,-0.08 0.45,-0.15 0.24,-0.12 0.25,-0.24 0.36,-0.27l0 0.39 0.55 0 0 -3.7c0,-1 -0.77,-1.17 -1.67,-1.17 -0.85,0 -1.6,0.16 -1.6,1.1z"/>
   <path class="fil0" d="M55.21 105.69c-0.32,0 -0.71,0 -0.95,-0.18 -0.37,-0.26 -0.41,-1.25 0.04,-1.51 0.33,-0.19 1.64,-0.32 1.87,0.3 0.09,0.24 0.1,0.6 0.03,0.85 -0.06,0.18 -0.07,0.2 -0.19,0.32 -0.17,0.16 -0.47,0.22 -0.8,0.22zm-1.69 -3.12l0 0.19 0.63 0c0,-0.28 -0.03,-0.59 0.23,-0.73 0.29,-0.16 1.19,-0.15 1.5,-0.01 0.16,0.07 0.25,0.2 0.28,0.38 0.06,0.33 0.03,0.93 0.03,1.32 -0.03,-0.04 -0.06,-0.07 -0.09,-0.11 -0.05,-0.05 -0.05,-0.06 -0.11,-0.11 -0.1,-0.07 -0.13,-0.1 -0.27,-0.14 -0.26,-0.07 -0.62,-0.08 -0.92,-0.08 -0.7,0 -1.21,0.2 -1.38,0.83 -0.02,0.09 -0.04,0.23 -0.05,0.32 -0.01,0.39 -0.04,0.45 0.03,0.9 0.08,0.5 0.4,0.83 0.92,0.93 0.5,0.09 1.31,0.1 1.75,-0.28 0.07,-0.05 0.1,-0.12 0.18,-0.14l0 0.39 0.54 0 0 -3.7c0,-0.97 -0.74,-1.17 -1.62,-1.17 -1.01,0 -1.65,0.19 -1.65,1.21z"/>
   <path class="fil0" d="M133.47 102.96c0,-0.98 0.46,-1.04 1.19,-1.04 1.02,0 0.95,0.65 0.95,1.45l-2.14 0 0 -0.41zm-0.67 0.58c0,0.98 -0.11,2.24 0.73,2.61 0.39,0.17 0.88,0.14 1.33,0.14 0.93,0 1.38,-0.28 1.38,-1.25l0 -0.24 -0.63 0c0,0.91 -0.15,0.95 -1.19,0.95 -1.07,0 -0.95,-0.75 -0.95,-1.77l2.77 0c0,-1.63 0.15,-2.62 -1.71,-2.62 -0.32,0 -0.61,0.03 -0.86,0.11 -0.27,0.1 -0.41,0.2 -0.55,0.42 -0.24,0.35 -0.32,1.06 -0.32,1.65z"/>
   <path class="fil0" d="M30.75 103c0,-0.48 0.08,-0.86 0.5,-1.01 0.3,-0.11 0.92,-0.09 1.21,0.02 0.5,0.19 0.41,0.79 0.44,1.08 0,0.1 0.02,0.15 0.02,0.28l-2.17 0 0 -0.37zm-0.67 0.65l0.04 1.3c0.06,0.95 0.56,1.34 1.5,1.34 0.53,0 1.11,0.04 1.53,-0.24 0.39,-0.25 0.37,-0.8 0.37,-1.25l-0.6 0 -0.04 0.44c-0.03,0.14 -0.06,0.25 -0.14,0.33 -0.23,0.23 -1.17,0.21 -1.47,0.12 -0.16,-0.05 -0.24,-0.1 -0.33,-0.22 -0.23,-0.31 -0.19,-1.04 -0.19,-1.49l2.77 0c0,-0.74 0.1,-1.78 -0.37,-2.25 -0.3,-0.3 -0.78,-0.37 -1.34,-0.37 -0.69,0 -1.17,0.13 -1.44,0.57 -0.23,0.38 -0.29,1.11 -0.29,1.72z"/>
   <path class="fil0" d="M80.07 102.74c0,1.54 0.88,1.21 2.11,1.38 0.62,0.08 0.61,0.21 0.61,0.79 0,0.24 -0.04,0.52 -0.18,0.64 -0.25,0.23 -0.82,0.18 -1.2,0.18 -0.79,0 -0.76,-0.47 -0.76,-1l-0.61 0c0,0.73 0.07,1.45 0.96,1.54 0.37,0.04 1.04,0.04 1.37,-0.01 1.11,-0.17 1.03,-0.83 1.03,-1.79 0,-0.35 -0.11,-0.62 -0.36,-0.74 -0.22,-0.11 -0.6,-0.18 -0.92,-0.19l-1.01 -0.09c-0.15,-0.03 -0.29,-0.07 -0.36,-0.2 -0.11,-0.2 -0.11,-0.95 0.06,-1.15 0.18,-0.23 0.8,-0.18 1.14,-0.18 0.67,0 0.8,0.18 0.8,0.78l0.61 0c0,-1.13 -0.42,-1.34 -1.67,-1.34 -0.45,0 -0.99,0.05 -1.25,0.24 -0.31,0.24 -0.37,0.61 -0.37,1.14z"/>
   <path class="fil0" d="M93.03 106.23l0.26 0c0,0.1 -0.07,0.34 -0.1,0.44 -0.17,0.57 -0.33,0.71 -1,0.71l0 0.58 0.41 0.02c0.17,0 0.34,-0.05 0.46,-0.11 0.66,-0.33 0.74,-1.13 0.93,-1.88 0.07,-0.29 0.14,-0.59 0.22,-0.9l0.77 -3.17c0.03,-0.12 0.11,-0.36 0.11,-0.48 -0.76,0 -0.58,-0.12 -0.73,0.49l-0.89 3.69c-0.01,0 -0.01,-0.02 -0.01,-0.01l-1.21 -4.17 -0.6 0c0,0.09 0.13,0.49 0.16,0.6l1.13 3.89c0.03,0.1 0.07,0.2 0.09,0.3z"/>
   <path class="fil0" d="M105.37 106.23l0.28 0c-0.04,0.09 -0.08,0.5 -0.27,0.83 -0.16,0.28 -0.46,0.32 -0.85,0.32 0,0.49 -0.05,0.59 0.12,0.6l0.29 0c0.28,0 0.62,-0.15 0.78,-0.34 0.3,-0.34 0.39,-0.77 0.5,-1.19 0.16,-0.62 0.44,-1.71 0.55,-2.26 0.07,-0.32 0.16,-0.6 0.22,-0.91 0.05,-0.22 0.44,-1.69 0.44,-1.84l-0.61 0c-0.01,0.22 -0.99,3.98 -0.99,4.14l-0.05 0c0,-0.08 -0.04,-0.19 -0.06,-0.26l-0.53 -1.81c-0.04,-0.12 -0.59,-1.94 -0.6,-2.07l-0.6 0 0.34 1.2c0.06,0.19 0.12,0.39 0.17,0.58 0.06,0.21 0.12,0.41 0.18,0.61 0.06,0.19 0.11,0.4 0.17,0.58 0.06,0.2 0.12,0.41 0.18,0.61l0.34 1.21z"/>
   <path class="fil0" d="M75.35 104.84c0,0.84 0.34,1.45 1.23,1.45 0.56,0 1.06,0.01 1.41,-0.53 0.04,-0.06 0.06,-0.1 0.11,-0.14l0 0.61 0.6 0 0 -4.79 -0.6 0 0 3.06c0,0.84 -0.4,1.25 -1.24,1.25 -0.56,0 -0.89,-0.32 -0.89,-0.86l0 -3.45 -0.62 0 0 3.4z"/>
   <path class="fil0" d="M108.99 102.05l0 -0.61 -0.61 0 0 4.79 0.61 0 0 -2.77c0,-0.83 0.16,-1.54 1.12,-1.54 0.33,0 0.63,0.01 0.84,0.29 0.13,0.17 0.18,0.46 0.18,0.75l0 3.27 0.61 0 0 -3.51c0,-0.94 -0.48,-1.36 -1.41,-1.36 -0.32,0 -0.64,0.05 -0.84,0.17 -0.31,0.18 -0.41,0.46 -0.5,0.52z"/>
   <path class="fil0" d="M15.81 102.05l0 -0.61 -0.6 0 0 4.79 0.6 0 0 -3.03c0,-0.8 0.35,-1.28 1.15,-1.28 0.34,0 0.64,0.02 0.83,0.32 0.13,0.21 0.17,0.49 0.17,0.83l0 3.16 0.6 0 0 -3.49c0,-0.99 -0.49,-1.38 -1.45,-1.38 -0.31,0 -0.61,0.06 -0.81,0.18 -0.1,0.06 -0.21,0.14 -0.27,0.23l-0.22 0.28z"/>
   <path class="fil0" d="M66.41 102.05l0 -0.61 -0.61 0 0 4.79 0.61 0 0 -2.95c0,-0.8 0.26,-1.36 1.14,-1.36 0.33,0 0.64,0.02 0.82,0.31 0.13,0.2 0.18,0.47 0.18,0.79l0 3.21 0.61 0 0 -3.42c0,-1.08 -0.49,-1.45 -1.46,-1.45 -1.03,0 -1.15,0.58 -1.29,0.69z"/>
   <path class="fil0" d="M34.78 103.37c0,1.53 -0.2,2.92 1.49,2.92 0.56,0 1.22,0.04 1.6,-0.37 0.33,-0.36 0.33,-0.9 0.33,-1.45l-0.63 0c0,0.57 0.02,1.11 -0.58,1.24 -0.26,0.06 -0.81,0.06 -1.05,-0.02 -0.16,-0.05 -0.26,-0.14 -0.33,-0.29 -0.21,-0.42 -0.16,-1.51 -0.16,-2.05 0,-0.36 0.03,-0.76 0.13,-1.02 0.16,-0.45 0.61,-0.41 1.06,-0.41 0.34,0 0.58,0.08 0.72,0.3 0.1,0.16 0.13,0.42 0.12,0.63 0,0.25 -0.07,0.2 0.63,0.2 0,-1.48 -0.41,-1.69 -1.73,-1.69 -1.34,0 -1.6,0.8 -1.6,2.01z"/>
   <path class="fil0" d="M120.11 103.61c0,0.56 -0.02,1.64 0.24,2.1 0.37,0.64 1.12,0.58 1.78,0.58 0.21,0 0.43,-0.03 0.59,-0.08 0.35,-0.11 0.58,-0.29 0.71,-0.65 0.13,-0.37 0.11,-0.69 0.11,-1.09l-0.61 0c0,0.39 -0.02,0.77 -0.19,1.02 -0.23,0.33 -1.14,0.3 -1.49,0.18 -0.56,-0.19 -0.46,-1.43 -0.46,-2.08 0,-0.4 0.02,-0.85 0.1,-1.16 0.15,-0.57 0.61,-0.51 1.13,-0.51 0.75,0 0.82,0.45 0.82,1.13l0.61 0c0,-0.5 0,-1.03 -0.32,-1.35 -0.36,-0.36 -0.91,-0.34 -1.41,-0.34 -0.65,0 -1.1,0.17 -1.33,0.6 -0.21,0.38 -0.28,1.06 -0.28,1.65z"/>
   <path class="fil0" d="M48.85 103.59c0,0.78 -0.08,1.87 0.45,2.38 0.42,0.42 1.74,0.38 2.18,0.23 0.8,-0.27 0.79,-0.98 0.79,-1.73l-0.61 0c0,1 -0.16,1.28 -1.06,1.28 -0.41,0 -0.77,-0.04 -0.91,-0.32 -0.22,-0.44 -0.17,-1.51 -0.17,-2.08 0,-0.36 0.03,-0.76 0.13,-1.02 0.16,-0.46 0.66,-0.41 1.1,-0.41 0.33,0 0.55,0.09 0.68,0.29 0.12,0.18 0.15,0.54 0.15,0.84l0.6 0c0,-1.48 -0.39,-1.69 -1.73,-1.69 -0.3,0 -0.59,0.05 -0.81,0.14 -0.73,0.28 -0.79,1.27 -0.79,2.09z"/>
   <path class="fil0" d="M84.89 101.44l-0.49 0 0 0.54 0.49 0 0 3.38c0,0.33 0.08,0.67 0.38,0.82 0.23,0.12 0.72,0.14 1.05,0.11 0.83,-0.09 0.89,-0.98 0.89,-1.69l-0.56 0c0,0.29 0.01,0.68 -0.11,0.91 -0.18,0.36 -0.8,0.26 -0.93,0.11 -0.08,-0.09 -0.11,-0.29 -0.11,-0.45l0 -3.19 1.56 0 0 -0.54 -1.56 0 0 -1.1 -0.61 0 0 1.1z"/>
   <path class="fil0" d="M129.58 101.44l-0.5 0 0 0.54 0.5 0 0 3.47c0,0.39 0.15,0.65 0.45,0.76 0.26,0.09 0.76,0.13 1.08,0.06 0.72,-0.16 0.78,-1.01 0.78,-1.67l-0.56 0c0,0.27 -0.01,0.63 -0.09,0.85 -0.08,0.23 -0.27,0.3 -0.52,0.3 -0.38,0 -0.54,-0.15 -0.54,-0.54l0 -3.23 1.56 0 0 -0.54 -1.56 0 0 -1.1 -0.6 0 0 1.1z"/>
   <path class="fil0" d="M39.54 101.38c0,0.11 -0.2,0.06 -0.5,0.06l0 0.54 0.5 0 0 3.51c0,0.36 0.16,0.62 0.48,0.74 0.23,0.08 0.8,0.1 1.07,0.04 0.32,-0.08 0.52,-0.29 0.62,-0.6 0.06,-0.17 0.08,-0.3 0.11,-0.5l0.04 -0.57 -0.57 0c0,0.09 -0.01,0.12 -0.02,0.2 -0.02,0.41 0.04,0.95 -0.58,0.95 -0.35,0 -0.54,-0.13 -0.54,-0.47l0 -3.3 1.53 0 0 -0.54 -1.53 0 0 -1.1 -0.61 0 0 1.04z"/>
   <path class="fil0" d="M43.46 102.01l0 -0.57 -0.63 0 0 4.72c0,0.05 0.02,0.07 0.07,0.07l0.56 0 0 -3.44c0,-0.49 0.31,-0.87 0.82,-0.87 0.57,0 0.85,0.06 0.85,0.84l0 0.29 0.56 0c0,-0.84 0.05,-1.69 -1.11,-1.69 -0.61,0 -0.82,0.17 -1.07,0.57l-0.05 0.08z"/>
   <path class="fil0" d="M7.31 102.01l0 -0.57 -0.61 0 0 4.79 0.61 0 0 -3.36c0,-0.27 0.07,-0.53 0.2,-0.68 0.22,-0.26 0.49,-0.27 0.81,-0.27 0.71,0 0.65,0.58 0.65,1.13l0.57 0c0,-0.83 0.05,-1.69 -1.11,-1.69 -0.29,0 -0.53,0.05 -0.72,0.17 -0.25,0.15 -0.32,0.38 -0.4,0.48z"/>
   <path class="fil0" d="M88.81 102.01l0 -0.57 -0.6 0 0 4.79 0.6 0 0 -3.16c0,-0.31 0.04,-0.63 0.16,-0.82 0.07,-0.1 0.15,-0.17 0.25,-0.22 0.26,-0.14 0.97,-0.23 1.17,0.17 0.11,0.2 0.11,0.57 0.11,0.85l0.54 0c0,-0.62 0.08,-1.38 -0.61,-1.63 -0.33,-0.11 -0.91,-0.08 -1.21,0.11 -0.11,0.07 -0.13,0.11 -0.22,0.21 -0.05,0.07 -0.14,0.23 -0.19,0.27z"/>
   <polygon class="fil0" points="4.32,106.23 4.99,106.23 4.99,99.43 4.32,99.43 "/>
   <path class="fil0" d="M63.57 99.5l0 6.66c0,0.05 0.01,0.07 0.06,0.07l0.61 0 0 -6.8 -0.61 0c-0.05,0 -0.06,0.02 -0.06,0.07z"/>
   <path class="fil0" d="M21.81 92.46c0.06,0.09 0.17,0.18 0.25,0.26 0.06,0.06 0.07,0.08 0.12,0.14 0.13,0.16 0.53,0.49 0.65,0.66 0.11,-0.07 0.4,-0.39 0.5,-0.51 0.08,-0.09 0.44,-0.45 0.52,-0.51 0.07,0.05 0.43,0.42 0.5,0.5 0.14,0.17 0.39,0.36 0.49,0.52 0.12,-0.08 0.4,-0.39 0.53,-0.51 0.04,-0.05 0.08,-0.08 0.13,-0.13l0.38 -0.42 -1.03 -1.04 -1 1 -1.02 -1 -0.51 0.51c-0.12,0.13 -0.43,0.41 -0.51,0.53z"/>
   <path class="fil0" d="M108.58 92.46c0.02,0.1 0.98,1.02 1.04,1.06 0.09,-0.15 0.89,-0.94 0.97,-1l0.99 0.98 1.05 -1.03c-0.19,-0.13 -0.81,-0.89 -1.04,-1.05 -0.22,0.15 -0.87,0.91 -1,1 -0.1,-0.07 -0.17,-0.16 -0.24,-0.26l-0.76 -0.74 -1.01 1.04z"/>
   <path class="fil0" d="M53.44 83.02l1.01 1.02c0.14,-0.04 0.84,-0.86 1.02,-0.98l1 0.98 1.02 -1.01c-0.03,-0.11 -0.98,-1.03 -1.04,-1.07 -0.09,0.13 -0.92,0.93 -0.98,1.02l-0.99 -1.02c-0.08,0.05 -0.46,0.43 -0.53,0.52 -0.14,0.18 -0.4,0.38 -0.51,0.54z"/>
   <path class="fil0" d="M34.17 81.09l1.02 1.04 1 -0.99 1 0.99 1.04 -1.03 -0.9 -0.93c-0.06,-0.06 -0.08,-0.11 -0.17,-0.11 -0.03,0.09 -0.15,0.18 -0.22,0.25 -0.09,0.09 -0.16,0.16 -0.25,0.25 -0.12,0.12 -0.4,0.37 -0.48,0.49l-1.02 -1c-0.08,0.06 -0.95,0.94 -1.02,1.04z"/>
   <polygon class="fil0" points="28.05,106.23 28.67,106.23 28.67,99.43 28.05,99.43 "/>
   <path class="fil0" d="M58.29 99.5l0 6.66c0,0.05 0.01,0.07 0.06,0.07l0.57 0 0 -6.8 -0.57 0c-0.05,0 -0.06,0.02 -0.06,0.07z"/>
   <polygon class="fil0" points="46.81,106.23 47.44,106.23 47.44,101.44 46.81,101.44 "/>
   <polygon class="fil0" points="118.1,106.23 118.71,106.23 118.71,101.44 118.1,101.44 "/>
   <path class="fil0" d="M45.58 92.44l1.14 1.15 1.16 -1.15c-0.05,-0.08 -0.21,-0.22 -0.28,-0.29 -0.27,-0.23 -0.77,-0.77 -0.87,-0.84 -0.18,0.12 -0.38,0.41 -0.57,0.56 -0.11,0.08 -0.51,0.47 -0.58,0.57z"/>
   <path class="fil0" d="M121.67 82.54c0.12,0.17 0.42,0.41 0.57,0.58 0.13,0.15 0.45,0.5 0.58,0.59l1.15 -1.14c-0.07,-0.11 -1.15,-1.13 -1.15,-1.13 -0.1,0.07 -0.68,0.67 -0.85,0.84 -0.05,0.06 -0.09,0.09 -0.14,0.13 -0.06,0.05 -0.1,0.1 -0.16,0.13z"/>
   <path class="fil0" d="M7.59 86.55l1.14 1.13 1.16 -1.15 -0.58 -0.56c-0.13,-0.13 -0.47,-0.44 -0.55,-0.57 -0.19,0.13 -1.13,1.09 -1.17,1.15z"/>
   <path class="fil0" d="M70.5 82.57l1.13 1.14 1.15 -1.14 -1.13 -1.13c-0.1,0.03 -0.48,0.45 -0.58,0.55 -0.14,0.13 -0.48,0.44 -0.57,0.58z"/>
   <polygon class="fil0" points="46.81,100.23 47.44,100.23 47.44,99.43 46.81,99.43 "/>
   <polygon class="fil0" points="118.1,100.23 118.71,100.23 118.71,99.43 118.1,99.43 "/>
  </g>
 </g>
</svg>
